<svg width="256" height="68" viewBox="0 0 256 68" fill="none" xmlns="http://www.w3.org/2000/svg">
<path d="M25.5878 15.2557C24.8965 15.2557 24.2692 15.1255 23.7057 14.8651C23.1423 14.5999 22.6948 14.2188 22.3634 13.7216C22.032 13.2197 21.8662 12.6136 21.8662 11.9034C21.8662 11.2784 21.9893 10.7718 22.2356 10.3835C22.4818 9.99053 22.8108 9.68276 23.2228 9.46023C23.6347 9.23769 24.0892 9.07197 24.5864 8.96307C25.0883 8.84943 25.5926 8.75947 26.0992 8.69318C26.7621 8.60795 27.2995 8.54403 27.7114 8.50142C28.1281 8.45407 28.4311 8.37595 28.6205 8.26705C28.8146 8.15814 28.9117 7.96875 28.9117 7.69886V7.64205C28.9117 6.94129 28.7199 6.39678 28.3364 6.00852C27.9576 5.62027 27.3823 5.42614 26.6106 5.42614C25.8104 5.42614 25.183 5.60133 24.7284 5.9517C24.2739 6.30208 23.9543 6.67614 23.7696 7.07386L22.1787 6.50568C22.4628 5.8428 22.8416 5.3267 23.3151 4.95739C23.7933 4.58333 24.3141 4.32292 24.8776 4.17614C25.4458 4.02462 26.0045 3.94886 26.5537 3.94886C26.9041 3.94886 27.3066 3.99148 27.7611 4.0767C28.2204 4.1572 28.6631 4.32528 29.0892 4.58097C29.5201 4.83665 29.8776 5.22254 30.1617 5.73864C30.4458 6.25473 30.5878 6.94602 30.5878 7.8125V15H28.9117V13.5227H28.8265C28.7128 13.7595 28.5234 14.0128 28.2583 14.2827C27.9931 14.5526 27.6404 14.7822 27.2 14.9716C26.7597 15.161 26.2223 15.2557 25.5878 15.2557ZM25.8435 13.75C26.5064 13.75 27.0651 13.6198 27.5196 13.3594C27.9789 13.099 28.3246 12.7628 28.5566 12.3509C28.7933 11.9389 28.9117 11.5057 28.9117 11.0511V9.51705C28.8407 9.60227 28.6844 9.6804 28.4429 9.75142C28.2062 9.81771 27.9316 9.87689 27.6191 9.92898C27.3113 9.97633 27.0106 10.0189 26.7171 10.0568C26.4283 10.09 26.1939 10.1184 26.014 10.142C25.5784 10.1989 25.1712 10.2912 24.7924 10.419C24.4183 10.5421 24.1153 10.7292 23.8833 10.9801C23.656 11.2263 23.5424 11.5625 23.5424 11.9886C23.5424 12.571 23.7578 13.0114 24.1887 13.3097C24.6243 13.6032 25.1759 13.75 25.8435 13.75ZM46.9994 6.53409L45.4937 6.96023C45.399 6.70928 45.2593 6.46544 45.0747 6.22869C44.8948 5.98722 44.6485 5.78835 44.336 5.6321C44.0235 5.47585 43.6235 5.39773 43.1358 5.39773C42.4682 5.39773 41.9118 5.55161 41.4667 5.85938C41.0264 6.16241 40.8062 6.5483 40.8062 7.01705C40.8062 7.43371 40.9577 7.76278 41.2608 8.00426C41.5638 8.24574 42.0373 8.44697 42.6812 8.60795L44.3005 9.00568C45.2759 9.24242 46.0027 9.60464 46.4809 10.0923C46.9592 10.5753 47.1983 11.1979 47.1983 11.9602C47.1983 12.5852 47.0183 13.1439 46.6585 13.6364C46.3034 14.1288 45.8062 14.517 45.167 14.8011C44.5278 15.0852 43.7844 15.2273 42.9369 15.2273C41.8242 15.2273 40.9033 14.9858 40.1741 14.5028C39.445 14.0199 38.9833 13.3144 38.7892 12.3864L40.3801 11.9886C40.5316 12.5758 40.8181 13.0161 41.2395 13.3097C41.6656 13.6032 42.2219 13.75 42.9085 13.75C43.6897 13.75 44.31 13.5843 44.7693 13.2528C45.2333 12.9167 45.4653 12.5142 45.4653 12.0455C45.4653 11.6667 45.3327 11.3494 45.0676 11.0938C44.8024 10.8333 44.3952 10.6392 43.846 10.5114L42.0278 10.0852C41.0288 9.84848 40.2949 9.48153 39.8261 8.98438C39.3621 8.48248 39.1301 7.85511 39.1301 7.10227C39.1301 6.48674 39.3029 5.94223 39.6485 5.46875C39.9989 4.99527 40.4748 4.62358 41.0761 4.35369C41.6822 4.08381 42.3687 3.94886 43.1358 3.94886C44.2153 3.94886 45.0628 4.18561 45.6784 4.65909C46.2986 5.13258 46.739 5.75758 46.9994 6.53409ZM52.9316 15.2557C52.2403 15.2557 51.6129 15.1255 51.0495 14.8651C50.486 14.5999 50.0386 14.2188 49.7071 13.7216C49.3757 13.2197 49.21 12.6136 49.21 11.9034C49.21 11.2784 49.3331 10.7718 49.5793 10.3835C49.8255 9.99053 50.1546 9.68276 50.5665 9.46023C50.9784 9.23769 51.433 9.07197 51.9302 8.96307C52.432 8.84943 52.9363 8.75947 53.4429 8.69318C54.1058 8.60795 54.6432 8.54403 55.0552 8.50142C55.4718 8.45407 55.7749 8.37595 55.9642 8.26705C56.1584 8.15814 56.2554 7.96875 56.2554 7.69886V7.64205C56.2554 6.94129 56.0637 6.39678 55.6802 6.00852C55.3014 5.62027 54.7261 5.42614 53.9543 5.42614C53.1541 5.42614 52.5267 5.60133 52.0722 5.9517C51.6177 6.30208 51.2981 6.67614 51.1134 7.07386L49.5225 6.50568C49.8066 5.8428 50.1854 5.3267 50.6588 4.95739C51.1371 4.58333 51.6579 4.32292 52.2213 4.17614C52.7895 4.02462 53.3482 3.94886 53.8975 3.94886C54.2479 3.94886 54.6503 3.99148 55.1049 4.0767C55.5642 4.1572 56.0069 4.32528 56.433 4.58097C56.8639 4.83665 57.2213 5.22254 57.5054 5.73864C57.7895 6.25473 57.9316 6.94602 57.9316 7.8125V15H56.2554V13.5227H56.1702C56.0566 13.7595 55.8672 14.0128 55.602 14.2827C55.3369 14.5526 54.9841 14.7822 54.5438 14.9716C54.1034 15.161 53.566 15.2557 52.9316 15.2557ZM53.1873 13.75C53.8501 13.75 54.4088 13.6198 54.8634 13.3594C55.3227 13.099 55.6683 12.7628 55.9003 12.3509C56.1371 11.9389 56.2554 11.5057 56.2554 11.0511V9.51705C56.1844 9.60227 56.0282 9.6804 55.7867 9.75142C55.5499 9.81771 55.2753 9.87689 54.9628 9.92898C54.6551 9.97633 54.3544 10.0189 54.0608 10.0568C53.772 10.09 53.5376 10.1184 53.3577 10.142C52.9221 10.1989 52.5149 10.2912 52.1361 10.419C51.7621 10.5421 51.459 10.7292 51.227 10.9801C50.9998 11.2263 50.8861 11.5625 50.8861 11.9886C50.8861 12.571 51.1016 13.0114 51.5324 13.3097C51.968 13.6032 52.5196 13.75 53.1873 13.75ZM65.7352 4.09091V5.51136H60.0818V4.09091H65.7352ZM61.7295 1.47727H63.4057V11.875C63.4057 12.3485 63.4743 12.7036 63.6116 12.9403C63.7537 13.1723 63.9336 13.3286 64.1514 13.4091C64.3739 13.4848 64.6083 13.5227 64.8545 13.5227C65.0392 13.5227 65.1907 13.5133 65.3091 13.4943C65.4274 13.4706 65.5221 13.4517 65.5932 13.4375L65.9341 14.9432C65.8204 14.9858 65.6618 15.0284 65.4582 15.071C65.2546 15.1184 64.9966 15.142 64.6841 15.142C64.2106 15.142 63.7466 15.0402 63.292 14.8366C62.8422 14.633 62.4682 14.3229 62.1699 13.9062C61.8763 13.4896 61.7295 12.964 61.7295 12.3295V1.47727ZM75.1315 10.5398V4.09091H76.8076V15H75.1315V13.1534H75.0179C74.7622 13.7074 74.3645 14.1785 73.8247 14.5668C73.2849 14.9503 72.6031 15.142 71.7792 15.142C71.0974 15.142 70.4914 14.9929 69.961 14.6946C69.4307 14.3916 69.0141 13.937 68.711 13.331C68.408 12.7202 68.2565 11.9508 68.2565 11.0227V4.09091H69.9326V10.9091C69.9326 11.7045 70.1552 12.339 70.6003 12.8125C71.0501 13.286 71.623 13.5227 72.319 13.5227C72.7357 13.5227 73.1594 13.4162 73.5903 13.2031C74.0259 12.9901 74.3905 12.6634 74.6841 12.223C74.9824 11.7827 75.1315 11.2216 75.1315 10.5398ZM79.8776 15V4.09091H81.4969V5.73864H81.6106C81.8094 5.19886 82.1693 4.76089 82.6901 4.42472C83.2109 4.08854 83.7981 3.92045 84.4515 3.92045C84.5746 3.92045 84.7284 3.92282 84.9131 3.92756C85.0978 3.93229 85.2374 3.93939 85.3321 3.94886V5.65341C85.2753 5.6392 85.1451 5.6179 84.9415 5.58949C84.7427 5.55634 84.532 5.53977 84.3094 5.53977C83.7791 5.53977 83.3056 5.65104 82.889 5.87358C82.477 6.09138 82.1503 6.39441 81.9088 6.78267C81.6721 7.16619 81.5537 7.60417 81.5537 8.09659V15H79.8776ZM90.5292 15.2557C89.8379 15.2557 89.2106 15.1255 88.6471 14.8651C88.0837 14.5999 87.6362 14.2188 87.3048 13.7216C86.9734 13.2197 86.8076 12.6136 86.8076 11.9034C86.8076 11.2784 86.9307 10.7718 87.177 10.3835C87.4232 9.99053 87.7522 9.68276 88.1642 9.46023C88.5761 9.23769 89.0307 9.07197 89.5278 8.96307C90.0297 8.84943 90.534 8.75947 91.0406 8.69318C91.7035 8.60795 92.2409 8.54403 92.6528 8.50142C93.0695 8.45407 93.3725 8.37595 93.5619 8.26705C93.756 8.15814 93.8531 7.96875 93.8531 7.69886V7.64205C93.8531 6.94129 93.6613 6.39678 93.2778 6.00852C92.899 5.62027 92.3237 5.42614 91.552 5.42614C90.7518 5.42614 90.1244 5.60133 89.6699 5.9517C89.2153 6.30208 88.8957 6.67614 88.711 7.07386L87.1201 6.50568C87.4042 5.8428 87.783 5.3267 88.2565 4.95739C88.7347 4.58333 89.2556 4.32292 89.819 4.17614C90.3872 4.02462 90.9459 3.94886 91.4951 3.94886C91.8455 3.94886 92.248 3.99148 92.7025 4.0767C93.1618 4.1572 93.6045 4.32528 94.0307 4.58097C94.4615 4.83665 94.819 5.22254 95.1031 5.73864C95.3872 6.25473 95.5292 6.94602 95.5292 7.8125V15H93.8531V13.5227H93.7679C93.6542 13.7595 93.4648 14.0128 93.1997 14.2827C92.9345 14.5526 92.5818 14.7822 92.1414 14.9716C91.7011 15.161 91.1637 15.2557 90.5292 15.2557ZM90.7849 13.75C91.4478 13.75 92.0065 13.6198 92.461 13.3594C92.9203 13.099 93.266 12.7628 93.498 12.3509C93.7347 11.9389 93.8531 11.5057 93.8531 11.0511V9.51705C93.7821 9.60227 93.6258 9.6804 93.3843 9.75142C93.1476 9.81771 92.873 9.87689 92.5605 9.92898C92.2527 9.97633 91.9521 10.0189 91.6585 10.0568C91.3697 10.09 91.1353 10.1184 90.9554 10.142C90.5198 10.1989 90.1126 10.2912 89.7338 10.419C89.3597 10.5421 89.0567 10.7292 88.8247 10.9801C88.5974 11.2263 88.4838 11.5625 88.4838 11.9886C88.4838 12.571 88.6992 13.0114 89.1301 13.3097C89.5657 13.6032 90.1173 13.75 90.7849 13.75ZM103.333 4.09091V5.51136H97.6794V4.09091H103.333ZM99.3272 1.47727H101.003V11.875C101.003 12.3485 101.072 12.7036 101.209 12.9403C101.351 13.1723 101.531 13.3286 101.749 13.4091C101.972 13.4848 102.206 13.5227 102.452 13.5227C102.637 13.5227 102.788 13.5133 102.907 13.4943C103.025 13.4706 103.12 13.4517 103.191 13.4375L103.532 14.9432C103.418 14.9858 103.259 15.0284 103.056 15.071C102.852 15.1184 102.594 15.142 102.282 15.142C101.808 15.142 101.344 15.0402 100.89 14.8366C100.44 14.633 100.066 14.3229 99.7675 13.9062C99.474 13.4896 99.3272 12.964 99.3272 12.3295V1.47727ZM110.311 15.2273C109.26 15.2273 108.353 14.9953 107.591 14.5312C106.833 14.0625 106.248 13.4091 105.836 12.571C105.429 11.7282 105.226 10.7481 105.226 9.63068C105.226 8.51326 105.429 7.52841 105.836 6.67614C106.248 5.81913 106.821 5.15152 107.555 4.6733C108.294 4.19034 109.156 3.94886 110.14 3.94886C110.709 3.94886 111.27 4.04356 111.824 4.23295C112.378 4.42235 112.882 4.73011 113.336 5.15625C113.791 5.57765 114.153 6.13636 114.423 6.83239C114.693 7.52841 114.828 8.38542 114.828 9.40341V10.1136H106.419V8.66477H113.123C113.123 8.04924 113 7.5 112.754 7.01705C112.513 6.53409 112.167 6.15294 111.717 5.87358C111.272 5.59422 110.746 5.45455 110.14 5.45455C109.473 5.45455 108.895 5.62026 108.407 5.9517C107.924 6.27841 107.553 6.70455 107.292 7.23011C107.032 7.75568 106.902 8.31913 106.902 8.92045V9.88636C106.902 10.7102 107.044 11.4086 107.328 11.9815C107.617 12.5497 108.017 12.983 108.528 13.2812C109.04 13.5748 109.634 13.7216 110.311 13.7216C110.751 13.7216 111.149 13.66 111.504 13.5369C111.864 13.4091 112.174 13.2197 112.434 12.9688C112.695 12.7131 112.896 12.3958 113.038 12.017L114.657 12.4716C114.487 13.0208 114.201 13.5038 113.798 13.9205C113.396 14.3324 112.898 14.6544 112.307 14.8864C111.715 15.1136 111.049 15.2273 110.311 15.2273ZM121.497 15.2273C120.588 15.2273 119.785 14.9976 119.089 14.5384C118.393 14.0743 117.849 13.4209 117.456 12.5781C117.063 11.7306 116.866 10.7292 116.866 9.57386C116.866 8.42803 117.063 7.43371 117.456 6.59091C117.849 5.74811 118.396 5.09706 119.096 4.63778C119.797 4.1785 120.607 3.94886 121.525 3.94886C122.236 3.94886 122.797 4.06723 123.209 4.30398C123.625 4.53598 123.942 4.80114 124.16 5.09943C124.383 5.39299 124.556 5.63447 124.679 5.82386H124.821V0.454545H126.497V15H124.878V13.3239H124.679C124.556 13.5227 124.38 13.7737 124.153 14.0767C123.926 14.375 123.602 14.6425 123.18 14.8793C122.759 15.1113 122.198 15.2273 121.497 15.2273ZM121.724 13.7216C122.397 13.7216 122.965 13.5464 123.429 13.196C123.893 12.8409 124.245 12.3509 124.487 11.7259C124.728 11.0961 124.849 10.3693 124.849 9.54545C124.849 8.73106 124.731 8.01847 124.494 7.40767C124.257 6.79214 123.907 6.31392 123.443 5.97301C122.979 5.62737 122.406 5.45455 121.724 5.45455C121.014 5.45455 120.422 5.63684 119.949 6.00142C119.48 6.36127 119.127 6.85133 118.89 7.47159C118.658 8.08712 118.542 8.77841 118.542 9.54545C118.542 10.322 118.661 11.0275 118.897 11.6619C119.139 12.2917 119.494 12.7936 119.963 13.1676C120.436 13.5369 121.023 13.7216 121.724 13.7216ZM132.299 13.0114L132.186 13.7784C132.105 14.3182 131.982 14.8958 131.817 15.5114C131.656 16.1269 131.487 16.7069 131.312 17.2514C131.137 17.7959 130.993 18.2292 130.879 18.5511H129.601C129.662 18.2481 129.743 17.848 129.842 17.3509C129.942 16.8537 130.041 16.2973 130.14 15.6818C130.245 15.071 130.33 14.446 130.396 13.8068L130.481 13.0114H132.299ZM145.462 15.2273C144.477 15.2273 143.613 14.9929 142.869 14.5241C142.131 14.0554 141.553 13.3996 141.136 12.5568C140.725 11.714 140.519 10.7292 140.519 9.60227C140.519 8.46591 140.725 7.47396 141.136 6.62642C141.553 5.77888 142.131 5.12074 142.869 4.65199C143.613 4.18324 144.477 3.94886 145.462 3.94886C146.447 3.94886 147.308 4.18324 148.047 4.65199C148.79 5.12074 149.368 5.77888 149.78 6.62642C150.197 7.47396 150.405 8.46591 150.405 9.60227C150.405 10.7292 150.197 11.714 149.78 12.5568C149.368 13.3996 148.79 14.0554 148.047 14.5241C147.308 14.9929 146.447 15.2273 145.462 15.2273ZM145.462 13.7216C146.21 13.7216 146.825 13.5298 147.308 13.1463C147.791 12.7628 148.149 12.2585 148.381 11.6335C148.613 11.0085 148.729 10.3314 148.729 9.60227C148.729 8.87311 148.613 8.19366 148.381 7.56392C148.149 6.93419 147.791 6.42519 147.308 6.03693C146.825 5.64867 146.21 5.45455 145.462 5.45455C144.714 5.45455 144.098 5.64867 143.615 6.03693C143.132 6.42519 142.775 6.93419 142.543 7.56392C142.311 8.19366 142.195 8.87311 142.195 9.60227C142.195 10.3314 142.311 11.0085 142.543 11.6335C142.775 12.2585 143.132 12.7628 143.615 13.1463C144.098 13.5298 144.714 13.7216 145.462 13.7216ZM153.764 4.09091L156.378 8.55114L158.992 4.09091H160.923L157.401 9.54545L160.923 15H158.992L156.378 10.767L153.764 15H151.832L155.298 9.54545L151.832 4.09091H153.764ZM163.315 15V4.09091H164.991V15H163.315ZM164.167 2.27273C163.841 2.27273 163.559 2.16146 163.322 1.93892C163.09 1.71638 162.974 1.44886 162.974 1.13636C162.974 0.823864 163.09 0.556345 163.322 0.333806C163.559 0.111269 163.841 0 164.167 0C164.494 0 164.773 0.111269 165.005 0.333806C165.242 0.556345 165.361 0.823864 165.361 1.13636C165.361 1.44886 165.242 1.71638 165.005 1.93892C164.773 2.16146 164.494 2.27273 164.167 2.27273ZM172.181 15.2273C171.271 15.2273 170.469 14.9976 169.773 14.5384C169.077 14.0743 168.532 13.4209 168.139 12.5781C167.746 11.7306 167.55 10.7292 167.55 9.57386C167.55 8.42803 167.746 7.43371 168.139 6.59091C168.532 5.74811 169.079 5.09706 169.78 4.63778C170.481 4.1785 171.29 3.94886 172.209 3.94886C172.919 3.94886 173.48 4.06723 173.892 4.30398C174.309 4.53598 174.626 4.80114 174.844 5.09943C175.066 5.39299 175.239 5.63447 175.362 5.82386H175.504V0.454545H177.181V15H175.561V13.3239H175.362C175.239 13.5227 175.064 13.7737 174.837 14.0767C174.609 14.375 174.285 14.6425 173.864 14.8793C173.442 15.1113 172.881 15.2273 172.181 15.2273ZM172.408 13.7216C173.08 13.7216 173.648 13.5464 174.112 13.196C174.576 12.8409 174.929 12.3509 175.171 11.7259C175.412 11.0961 175.533 10.3693 175.533 9.54545C175.533 8.73106 175.414 8.01847 175.178 7.40767C174.941 6.79214 174.591 6.31392 174.127 5.97301C173.663 5.62737 173.09 5.45455 172.408 5.45455C171.698 5.45455 171.106 5.63684 170.632 6.00142C170.163 6.36127 169.811 6.85133 169.574 7.47159C169.342 8.08712 169.226 8.77841 169.226 9.54545C169.226 10.322 169.344 11.0275 169.581 11.6619C169.823 12.2917 170.178 12.7936 170.646 13.1676C171.12 13.5369 171.707 13.7216 172.408 13.7216ZM183.693 15.2557C183.002 15.2557 182.375 15.1255 181.811 14.8651C181.248 14.5999 180.8 14.2188 180.469 13.7216C180.137 13.2197 179.972 12.6136 179.972 11.9034C179.972 11.2784 180.095 10.7718 180.341 10.3835C180.587 9.99053 180.916 9.68276 181.328 9.46023C181.74 9.23769 182.195 9.07197 182.692 8.96307C183.194 8.84943 183.698 8.75947 184.205 8.69318C184.868 8.60795 185.405 8.54403 185.817 8.50142C186.234 8.45407 186.537 8.37595 186.726 8.26705C186.92 8.15814 187.017 7.96875 187.017 7.69886V7.64205C187.017 6.94129 186.825 6.39678 186.442 6.00852C186.063 5.62027 185.488 5.42614 184.716 5.42614C183.916 5.42614 183.288 5.60133 182.834 5.9517C182.379 6.30208 182.06 6.67614 181.875 7.07386L180.284 6.50568C180.568 5.8428 180.947 5.3267 181.421 4.95739C181.899 4.58333 182.42 4.32292 182.983 4.17614C183.551 4.02462 184.11 3.94886 184.659 3.94886C185.01 3.94886 185.412 3.99148 185.867 4.0767C186.326 4.1572 186.769 4.32528 187.195 4.58097C187.626 4.83665 187.983 5.22254 188.267 5.73864C188.551 6.25473 188.693 6.94602 188.693 7.8125V15H187.017V13.5227H186.932C186.818 13.7595 186.629 14.0128 186.364 14.2827C186.099 14.5526 185.746 14.7822 185.306 14.9716C184.865 15.161 184.328 15.2557 183.693 15.2557ZM183.949 13.75C184.612 13.75 185.171 13.6198 185.625 13.3594C186.084 13.099 186.43 12.7628 186.662 12.3509C186.899 11.9389 187.017 11.5057 187.017 11.0511V9.51705C186.946 9.60227 186.79 9.6804 186.548 9.75142C186.312 9.81771 186.037 9.87689 185.725 9.92898C185.417 9.97633 185.116 10.0189 184.823 10.0568C184.534 10.09 184.299 10.1184 184.119 10.142C183.684 10.1989 183.277 10.2912 182.898 10.419C182.524 10.5421 182.221 10.7292 181.989 10.9801C181.761 11.2263 181.648 11.5625 181.648 11.9886C181.648 12.571 181.863 13.0114 182.294 13.3097C182.73 13.6032 183.281 13.75 183.949 13.75ZM196.497 4.09091V5.51136H190.844V4.09091H196.497ZM192.491 1.47727H194.167V11.875C194.167 12.3485 194.236 12.7036 194.373 12.9403C194.515 13.1723 194.695 13.3286 194.913 13.4091C195.136 13.4848 195.37 13.5227 195.616 13.5227C195.801 13.5227 195.952 13.5133 196.071 13.4943C196.189 13.4706 196.284 13.4517 196.355 13.4375L196.696 14.9432C196.582 14.9858 196.424 15.0284 196.22 15.071C196.016 15.1184 195.758 15.142 195.446 15.142C194.972 15.142 194.508 15.0402 194.054 14.8366C193.604 14.633 193.23 14.3229 192.932 13.9062C192.638 13.4896 192.491 12.964 192.491 12.3295V1.47727ZM199.018 15V4.09091H200.694V15H199.018ZM199.87 2.27273C199.544 2.27273 199.262 2.16146 199.025 1.93892C198.793 1.71638 198.677 1.44886 198.677 1.13636C198.677 0.823864 198.793 0.556345 199.025 0.333806C199.262 0.111269 199.544 0 199.87 0C200.197 0 200.477 0.111269 200.709 0.333806C200.945 0.556345 201.064 0.823864 201.064 1.13636C201.064 1.44886 200.945 1.71638 200.709 1.93892C200.477 2.16146 200.197 2.27273 199.87 2.27273ZM208.196 15.2273C207.211 15.2273 206.347 14.9929 205.604 14.5241C204.865 14.0554 204.288 13.3996 203.871 12.5568C203.459 11.714 203.253 10.7292 203.253 9.60227C203.253 8.46591 203.459 7.47396 203.871 6.62642C204.288 5.77888 204.865 5.12074 205.604 4.65199C206.347 4.18324 207.211 3.94886 208.196 3.94886C209.181 3.94886 210.043 4.18324 210.781 4.65199C211.525 5.12074 212.102 5.77888 212.514 6.62642C212.931 7.47396 213.139 8.46591 213.139 9.60227C213.139 10.7292 212.931 11.714 212.514 12.5568C212.102 13.3996 211.525 14.0554 210.781 14.5241C210.043 14.9929 209.181 15.2273 208.196 15.2273ZM208.196 13.7216C208.944 13.7216 209.56 13.5298 210.043 13.1463C210.526 12.7628 210.883 12.2585 211.115 11.6335C211.347 11.0085 211.463 10.3314 211.463 9.60227C211.463 8.87311 211.347 8.19366 211.115 7.56392C210.883 6.93419 210.526 6.42519 210.043 6.03693C209.56 5.64867 208.944 5.45455 208.196 5.45455C207.448 5.45455 206.832 5.64867 206.35 6.03693C205.867 6.42519 205.509 6.93419 205.277 7.56392C205.045 8.19366 204.929 8.87311 204.929 9.60227C204.929 10.3314 205.045 11.0085 205.277 11.6335C205.509 12.2585 205.867 12.7628 206.35 13.1463C206.832 13.5298 207.448 13.7216 208.196 13.7216ZM217.374 8.4375V15H215.698V4.09091H217.317V5.79545H217.459C217.715 5.24148 218.103 4.7964 218.624 4.46023C219.145 4.11932 219.817 3.94886 220.641 3.94886C221.38 3.94886 222.026 4.10038 222.58 4.40341C223.134 4.7017 223.565 5.15625 223.873 5.76705C224.18 6.37311 224.334 7.14015 224.334 8.06818V15H222.658V8.18182C222.658 7.32481 222.436 6.6572 221.991 6.17898C221.545 5.69602 220.935 5.45455 220.158 5.45455C219.623 5.45455 219.145 5.57055 218.723 5.80256C218.307 6.03456 217.978 6.37311 217.736 6.81818C217.495 7.26326 217.374 7.80303 217.374 8.4375ZM233.647 7.98295V9.54545H227.283V7.98295H233.647ZM8.21034 30.5341L6.70466 30.9602C6.60996 30.7093 6.47028 30.4654 6.28562 30.2287C6.1057 29.9872 5.85949 29.7884 5.54699 29.6321C5.23449 29.4759 4.83439 29.3977 4.3467 29.3977C3.67909 29.3977 3.12274 29.5516 2.67767 29.8594C2.23733 30.1624 2.01716 30.5483 2.01716 31.017C2.01716 31.4337 2.16867 31.7628 2.4717 32.0043C2.77473 32.2457 3.24822 32.447 3.89216 32.608L5.51147 33.0057C6.48685 33.2424 7.21365 33.6046 7.69187 34.0923C8.17009 34.5753 8.4092 35.1979 8.4092 35.9602C8.4092 36.5852 8.22928 37.1439 7.86943 37.6364C7.51432 38.1288 7.01716 38.517 6.37795 38.8011C5.73875 39.0852 4.99538 39.2273 4.14784 39.2273C3.03515 39.2273 2.11422 38.9858 1.38505 38.5028C0.655888 38.0199 0.19424 37.3144 0.000111014 36.3864L1.59102 35.9886C1.74254 36.5758 2.02899 37.0161 2.4504 37.3097C2.87653 37.6032 3.43288 37.75 4.11943 37.75C4.90068 37.75 5.52094 37.5843 5.98022 37.2528C6.44424 36.9167 6.67625 36.5142 6.67625 36.0455C6.67625 35.6667 6.54367 35.3494 6.27852 35.0938C6.01337 34.8333 5.60617 34.6392 5.05693 34.5114L3.23875 34.0852C2.23969 33.8485 1.50579 33.4815 1.03704 32.9844C0.573028 32.4825 0.34102 31.8551 0.34102 31.1023C0.34102 30.4867 0.513842 29.9422 0.859486 29.4688C1.20986 28.9953 1.68572 28.6236 2.28704 28.3537C2.8931 28.0838 3.57966 27.9489 4.3467 27.9489C5.42625 27.9489 6.27379 28.1856 6.88932 28.6591C7.50958 29.1326 7.94992 29.7576 8.21034 30.5341ZM15.6766 28.0909V29.5114H10.0232V28.0909H15.6766ZM11.6709 25.4773H13.3471V35.875C13.3471 36.3485 13.4157 36.7036 13.553 36.9403C13.6951 37.1723 13.875 37.3286 14.0928 37.4091C14.3153 37.4848 14.5497 37.5227 14.7959 37.5227C14.9806 37.5227 15.1321 37.5133 15.2505 37.4943C15.3688 37.4706 15.4635 37.4517 15.5346 37.4375L15.8755 38.9432C15.7618 38.9858 15.6032 39.0284 15.3996 39.071C15.196 39.1184 14.938 39.142 14.6255 39.142C14.152 39.142 13.688 39.0402 13.2334 38.8366C12.7836 38.633 12.4096 38.3229 12.1113 37.9062C11.8177 37.4896 11.6709 36.964 11.6709 36.3295V25.4773ZM21.4081 39.2557C20.7168 39.2557 20.0895 39.1255 19.526 38.8651C18.9626 38.5999 18.5151 38.2188 18.1837 37.7216C17.8523 37.2197 17.6865 36.6136 17.6865 35.9034C17.6865 35.2784 17.8097 34.7718 18.0559 34.3835C18.3021 33.9905 18.6311 33.6828 19.0431 33.4602C19.455 33.2377 19.9096 33.072 20.4067 32.9631C20.9086 32.8494 21.4129 32.7595 21.9195 32.6932C22.5824 32.608 23.1198 32.544 23.5317 32.5014C23.9484 32.4541 24.2514 32.3759 24.4408 32.267C24.6349 32.1581 24.732 31.9687 24.732 31.6989V31.642C24.732 30.9413 24.5402 30.3968 24.1567 30.0085C23.7779 29.6203 23.2026 29.4261 22.4309 29.4261C21.6307 29.4261 21.0033 29.6013 20.5488 29.9517C20.0942 30.3021 19.7746 30.6761 19.59 31.0739L17.999 30.5057C18.2831 29.8428 18.6619 29.3267 19.1354 28.9574C19.6136 28.5833 20.1345 28.3229 20.6979 28.1761C21.2661 28.0246 21.8248 27.9489 22.374 27.9489C22.7244 27.9489 23.1269 27.9915 23.5814 28.0767C24.0407 28.1572 24.4834 28.3253 24.9096 28.581C25.3404 28.8366 25.6979 29.2225 25.982 29.7386C26.2661 30.2547 26.4081 30.946 26.4081 31.8125V39H24.732V37.5227H24.6468C24.5331 37.7595 24.3437 38.0128 24.0786 38.2827C23.8134 38.5526 23.4607 38.7822 23.0204 38.9716C22.58 39.161 22.0426 39.2557 21.4081 39.2557ZM21.6638 37.75C22.3267 37.75 22.8854 37.6198 23.34 37.3594C23.7992 37.099 24.1449 36.7628 24.3769 36.3509C24.6136 35.9389 24.732 35.5057 24.732 35.0511V33.517C24.661 33.6023 24.5047 33.6804 24.2633 33.7514C24.0265 33.8177 23.7519 33.8769 23.4394 33.929C23.1316 33.9763 22.831 34.0189 22.5374 34.0568C22.2486 34.09 22.0142 34.1184 21.8343 34.142C21.3987 34.1989 20.9915 34.2912 20.6127 34.419C20.2386 34.5421 19.9356 34.7292 19.7036 34.9801C19.4763 35.2263 19.3627 35.5625 19.3627 35.9886C19.3627 36.571 19.5781 37.0114 20.009 37.3097C20.4446 37.6032 20.9962 37.75 21.6638 37.75ZM29.6947 39V24.4545H31.3708V29.8239H31.5129C31.636 29.6345 31.8065 29.393 32.0243 29.0994C32.2468 28.8011 32.564 28.536 32.976 28.304C33.3926 28.0672 33.9561 27.9489 34.6663 27.9489C35.5849 27.9489 36.3945 28.1785 37.0953 28.6378C37.796 29.0971 38.3429 29.7481 38.7359 30.5909C39.1289 31.4337 39.3254 32.428 39.3254 33.5739C39.3254 34.7292 39.1289 35.7306 38.7359 36.5781C38.3429 37.4209 37.7984 38.0743 37.1024 38.5384C36.4064 38.9976 35.6038 39.2273 34.6947 39.2273C33.994 39.2273 33.4329 39.1113 33.0115 38.8793C32.5901 38.6425 32.2657 38.375 32.0385 38.0767C31.8112 37.7737 31.636 37.5227 31.5129 37.3239H31.314V39H29.6947ZM31.3424 33.5455C31.3424 34.3693 31.4632 35.0961 31.7047 35.7259C31.9461 36.3509 32.2989 36.8409 32.7629 37.196C33.2269 37.5464 33.7951 37.7216 34.4674 37.7216C35.1682 37.7216 35.753 37.5369 36.2217 37.1676C36.6952 36.7936 37.0503 36.2917 37.287 35.6619C37.5285 35.0275 37.6493 34.322 37.6493 33.5455C37.6493 32.7784 37.5309 32.0871 37.2941 31.4716C37.0621 30.8513 36.7094 30.3613 36.2359 30.0014C35.7672 29.6368 35.1777 29.4545 34.4674 29.4545C33.7856 29.4545 33.2127 29.6274 32.7487 29.973C32.2847 30.3139 31.9343 30.7921 31.6976 31.4077C31.4608 32.0185 31.3424 32.7311 31.3424 33.5455ZM43.5655 24.4545V39H41.8893V24.4545H43.5655ZM51.2093 39.2273C50.1581 39.2273 49.2514 38.9953 48.4891 38.5312C47.7315 38.0625 47.1468 37.4091 46.7348 36.571C46.3276 35.7282 46.124 34.7481 46.124 33.6307C46.124 32.5133 46.3276 31.5284 46.7348 30.6761C47.1468 29.8191 47.7197 29.1515 48.4536 28.6733C49.1922 28.1903 50.054 27.9489 51.0388 27.9489C51.607 27.9489 52.1681 28.0436 52.7221 28.233C53.276 28.4223 53.7803 28.7301 54.2348 29.1562C54.6894 29.5777 55.0516 30.1364 55.3215 30.8324C55.5914 31.5284 55.7263 32.3854 55.7263 33.4034V34.1136H47.3172V32.6648H54.0218C54.0218 32.0492 53.8987 31.5 53.6525 31.017C53.411 30.5341 53.0653 30.1529 52.6155 29.8736C52.1704 29.5942 51.6449 29.4545 51.0388 29.4545C50.3712 29.4545 49.7936 29.6203 49.3059 29.9517C48.8229 30.2784 48.4512 30.7045 48.1908 31.2301C47.9304 31.7557 47.8002 32.3191 47.8002 32.9205V33.8864C47.8002 34.7102 47.9422 35.4086 48.2263 35.9815C48.5151 36.5497 48.9152 36.983 49.4266 37.2812C49.938 37.5748 50.5322 37.7216 51.2093 37.7216C51.6496 37.7216 52.0473 37.66 52.4025 37.5369C52.7623 37.4091 53.0724 37.2197 53.3329 36.9688C53.5933 36.7131 53.7945 36.3958 53.9365 36.017L55.5559 36.4716C55.3854 37.0208 55.099 37.5038 54.6965 37.9205C54.294 38.3324 53.7969 38.6544 53.205 38.8864C52.6132 39.1136 51.9479 39.2273 51.2093 39.2273ZM75.6624 24.4545V39H73.9579L66.0317 27.5795H65.8897V39H64.1283V24.4545H65.8329L73.7874 35.9034H73.9294V24.4545H75.6624ZM79.7835 39H77.9369L83.2778 24.4545H85.096L90.4369 39H88.5903L84.2437 26.7557H84.1301L79.7835 39ZM80.4653 33.3182H87.9085V34.8807H80.4653V33.3182ZM92.7025 39V24.4545H101.481V26.017H94.4639V30.9318H101.026V32.4943H94.4639V37.4375H101.595V39H92.7025ZM113.264 39.2557C112.572 39.2557 111.945 39.1255 111.382 38.8651C110.818 38.5999 110.371 38.2188 110.039 37.7216C109.708 37.2197 109.542 36.6136 109.542 35.9034C109.542 35.2784 109.665 34.7718 109.911 34.3835C110.158 33.9905 110.487 33.6828 110.899 33.4602C111.31 33.2377 111.765 33.072 112.262 32.9631C112.764 32.8494 113.268 32.7595 113.775 32.6932C114.438 32.608 114.975 32.544 115.387 32.5014C115.804 32.4541 116.107 32.3759 116.296 32.267C116.49 32.1581 116.587 31.9687 116.587 31.6989V31.642C116.587 30.9413 116.396 30.3968 116.012 30.0085C115.633 29.6203 115.058 29.4261 114.286 29.4261C113.486 29.4261 112.859 29.6013 112.404 29.9517C111.95 30.3021 111.63 30.6761 111.445 31.0739L109.855 30.5057C110.139 29.8428 110.517 29.3267 110.991 28.9574C111.469 28.5833 111.99 28.3229 112.553 28.1761C113.122 28.0246 113.68 27.9489 114.23 27.9489C114.58 27.9489 114.982 27.9915 115.437 28.0767C115.896 28.1572 116.339 28.3253 116.765 28.581C117.196 28.8366 117.553 29.2225 117.837 29.7386C118.122 30.2547 118.264 30.946 118.264 31.8125V39H116.587V37.5227H116.502C116.389 37.7595 116.199 38.0128 115.934 38.2827C115.669 38.5526 115.316 38.7822 114.876 38.9716C114.435 39.161 113.898 39.2557 113.264 39.2557ZM113.519 37.75C114.182 37.75 114.741 37.6198 115.195 37.3594C115.655 37.099 116 36.7628 116.232 36.3509C116.469 35.9389 116.587 35.5057 116.587 35.0511V33.517C116.516 33.6023 116.36 33.6804 116.119 33.7514C115.882 33.8177 115.607 33.8769 115.295 33.929C114.987 33.9763 114.686 34.0189 114.393 34.0568C114.104 34.09 113.87 34.1184 113.69 34.142C113.254 34.1989 112.847 34.2912 112.468 34.419C112.094 34.5421 111.791 34.7292 111.559 34.9801C111.332 35.2263 111.218 35.5625 111.218 35.9886C111.218 36.571 111.434 37.0114 111.864 37.3097C112.3 37.6032 112.852 37.75 113.519 37.75ZM129.05 30.5341L127.545 30.9602C127.45 30.7093 127.31 30.4654 127.125 30.2287C126.946 29.9872 126.699 29.7884 126.387 29.6321C126.074 29.4759 125.674 29.3977 125.187 29.3977C124.519 29.3977 123.963 29.5516 123.518 29.8594C123.077 30.1624 122.857 30.5483 122.857 31.017C122.857 31.4337 123.009 31.7628 123.312 32.0043C123.615 32.2457 124.088 32.447 124.732 32.608L126.351 33.0057C127.327 33.2424 128.053 33.6046 128.532 34.0923C129.01 34.5753 129.249 35.1979 129.249 35.9602C129.249 36.5852 129.069 37.1439 128.709 37.6364C128.354 38.1288 127.857 38.517 127.218 38.8011C126.579 39.0852 125.835 39.2273 124.988 39.2273C123.875 39.2273 122.954 38.9858 122.225 38.5028C121.496 38.0199 121.034 37.3144 120.84 36.3864L122.431 35.9886C122.582 36.5758 122.869 37.0161 123.29 37.3097C123.716 37.6032 124.273 37.75 124.959 37.75C125.741 37.75 126.361 37.5843 126.82 37.2528C127.284 36.9167 127.516 36.5142 127.516 36.0455C127.516 35.6667 127.384 35.3494 127.118 35.0938C126.853 34.8333 126.446 34.6392 125.897 34.5114L124.079 34.0852C123.08 33.8485 122.346 33.4815 121.877 32.9844C121.413 32.4825 121.181 31.8551 121.181 31.1023C121.181 30.4867 121.354 29.9422 121.699 29.4688C122.05 28.9953 122.526 28.6236 123.127 28.3537C123.733 28.0838 124.42 27.9489 125.187 27.9489C126.266 27.9489 127.114 28.1856 127.729 28.6591C128.349 29.1326 128.79 29.7576 129.05 30.5341ZM139.499 30.5341L137.994 30.9602C137.899 30.7093 137.759 30.4654 137.575 30.2287C137.395 29.9872 137.149 29.7884 136.836 29.6321C136.524 29.4759 136.123 29.3977 135.636 29.3977C134.968 29.3977 134.412 29.5516 133.967 29.8594C133.526 30.1624 133.306 30.5483 133.306 31.017C133.306 31.4337 133.458 31.7628 133.761 32.0043C134.064 32.2457 134.537 32.447 135.181 32.608L136.801 33.0057C137.776 33.2424 138.503 33.6046 138.981 34.0923C139.459 34.5753 139.698 35.1979 139.698 35.9602C139.698 36.5852 139.518 37.1439 139.158 37.6364C138.803 38.1288 138.306 38.517 137.667 38.8011C137.028 39.0852 136.284 39.2273 135.437 39.2273C134.324 39.2273 133.403 38.9858 132.674 38.5028C131.945 38.0199 131.483 37.3144 131.289 36.3864L132.88 35.9886C133.032 36.5758 133.318 37.0161 133.739 37.3097C134.166 37.6032 134.722 37.75 135.408 37.75C136.19 37.75 136.81 37.5843 137.269 37.2528C137.733 36.9167 137.965 36.5142 137.965 36.0455C137.965 35.6667 137.833 35.3494 137.568 35.0938C137.302 34.8333 136.895 34.6392 136.346 34.5114L134.528 34.0852C133.529 33.8485 132.795 33.4815 132.326 32.9844C131.862 32.4825 131.63 31.8551 131.63 31.1023C131.63 30.4867 131.803 29.9422 132.149 29.4688C132.499 28.9953 132.975 28.6236 133.576 28.3537C134.182 28.0838 134.869 27.9489 135.636 27.9489C136.715 27.9489 137.563 28.1856 138.178 28.6591C138.799 29.1326 139.239 29.7576 139.499 30.5341ZM146.653 39.2273C145.668 39.2273 144.804 38.9929 144.061 38.5241C143.322 38.0554 142.745 37.3996 142.328 36.5568C141.916 35.714 141.71 34.7292 141.71 33.6023C141.71 32.4659 141.916 31.474 142.328 30.6264C142.745 29.7789 143.322 29.1207 144.061 28.652C144.804 28.1832 145.668 27.9489 146.653 27.9489C147.638 27.9489 148.5 28.1832 149.238 28.652C149.982 29.1207 150.559 29.7789 150.971 30.6264C151.388 31.474 151.596 32.4659 151.596 33.6023C151.596 34.7292 151.388 35.714 150.971 36.5568C150.559 37.3996 149.982 38.0554 149.238 38.5241C148.5 38.9929 147.638 39.2273 146.653 39.2273ZM146.653 37.7216C147.401 37.7216 148.017 37.5298 148.5 37.1463C148.983 36.7628 149.34 36.2585 149.572 35.6335C149.804 35.0085 149.92 34.3314 149.92 33.6023C149.92 32.8731 149.804 32.1937 149.572 31.5639C149.34 30.9342 148.983 30.4252 148.5 30.0369C148.017 29.6487 147.401 29.4545 146.653 29.4545C145.905 29.4545 145.29 29.6487 144.807 30.0369C144.324 30.4252 143.966 30.9342 143.734 31.5639C143.502 32.1937 143.386 32.8731 143.386 33.6023C143.386 34.3314 143.502 35.0085 143.734 35.6335C143.966 36.2585 144.324 36.7628 144.807 37.1463C145.29 37.5298 145.905 37.7216 146.653 37.7216ZM158.587 39.2273C157.564 39.2273 156.683 38.9858 155.945 38.5028C155.206 38.0199 154.638 37.3546 154.24 36.5071C153.842 35.6596 153.644 34.6913 153.644 33.6023C153.644 32.4943 153.847 31.5166 154.254 30.669C154.666 29.8168 155.239 29.1515 155.973 28.6733C156.712 28.1903 157.574 27.9489 158.558 27.9489C159.325 27.9489 160.017 28.0909 160.632 28.375C161.248 28.6591 161.752 29.0568 162.145 29.5682C162.538 30.0795 162.782 30.6761 162.877 31.358H161.2C161.073 30.8608 160.788 30.4205 160.348 30.0369C159.913 29.6487 159.325 29.4545 158.587 29.4545C157.933 29.4545 157.36 29.625 156.868 29.9659C156.38 30.3021 155.999 30.7779 155.725 31.3935C155.455 32.0043 155.32 32.7216 155.32 33.5455C155.32 34.3883 155.452 35.1222 155.717 35.7472C155.987 36.3722 156.366 36.8575 156.854 37.2031C157.346 37.5488 157.924 37.7216 158.587 37.7216C159.022 37.7216 159.418 37.6458 159.773 37.4943C160.128 37.3428 160.429 37.125 160.675 36.8409C160.921 36.5568 161.096 36.2159 161.2 35.8182H162.877C162.782 36.4621 162.547 37.0421 162.173 37.5582C161.804 38.0696 161.314 38.4768 160.703 38.7798C160.097 39.0781 159.392 39.2273 158.587 39.2273ZM165.327 39V28.0909H167.003V39H165.327ZM166.179 26.2727C165.852 26.2727 165.571 26.1615 165.334 25.9389C165.102 25.7164 164.986 25.4489 164.986 25.1364C164.986 24.8239 165.102 24.5563 165.334 24.3338C165.571 24.1113 165.852 24 166.179 24C166.506 24 166.785 24.1113 167.017 24.3338C167.254 24.5563 167.372 24.8239 167.372 25.1364C167.372 25.4489 167.254 25.7164 167.017 25.9389C166.785 26.1615 166.506 26.2727 166.179 26.2727ZM173.283 39.2557C172.592 39.2557 171.964 39.1255 171.401 38.8651C170.838 38.5999 170.39 38.2188 170.059 37.7216C169.727 37.2197 169.562 36.6136 169.562 35.9034C169.562 35.2784 169.685 34.7718 169.931 34.3835C170.177 33.9905 170.506 33.6828 170.918 33.4602C171.33 33.2377 171.785 33.072 172.282 32.9631C172.784 32.8494 173.288 32.7595 173.795 32.6932C174.457 32.608 174.995 32.544 175.407 32.5014C175.823 32.4541 176.126 32.3759 176.316 32.267C176.51 32.1581 176.607 31.9687 176.607 31.6989V31.642C176.607 30.9413 176.415 30.3968 176.032 30.0085C175.653 29.6203 175.078 29.4261 174.306 29.4261C173.506 29.4261 172.878 29.6013 172.424 29.9517C171.969 30.3021 171.65 30.6761 171.465 31.0739L169.874 30.5057C170.158 29.8428 170.537 29.3267 171.01 28.9574C171.489 28.5833 172.009 28.3229 172.573 28.1761C173.141 28.0246 173.7 27.9489 174.249 27.9489C174.599 27.9489 175.002 27.9915 175.456 28.0767C175.916 28.1572 176.358 28.3253 176.785 28.581C177.215 28.8366 177.573 29.2225 177.857 29.7386C178.141 30.2547 178.283 30.946 178.283 31.8125V39H176.607V37.5227H176.522C176.408 37.7595 176.219 38.0128 175.954 38.2827C175.688 38.5526 175.336 38.7822 174.895 38.9716C174.455 39.161 173.918 39.2557 173.283 39.2557ZM173.539 37.75C174.202 37.75 174.76 37.6198 175.215 37.3594C175.674 37.099 176.02 36.7628 176.252 36.3509C176.489 35.9389 176.607 35.5057 176.607 35.0511V33.517C176.536 33.6023 176.38 33.6804 176.138 33.7514C175.902 33.8177 175.627 33.8769 175.314 33.929C175.007 33.9763 174.706 34.0189 174.412 34.0568C174.124 34.09 173.889 34.1184 173.709 34.142C173.274 34.1989 172.866 34.2912 172.488 34.419C172.114 34.5421 171.811 34.7292 171.579 34.9801C171.351 35.2263 171.238 35.5625 171.238 35.9886C171.238 36.571 171.453 37.0114 171.884 37.3097C172.32 37.6032 172.871 37.75 173.539 37.75ZM186.087 28.0909V29.5114H180.433V28.0909H186.087ZM182.081 25.4773H183.757V35.875C183.757 36.3485 183.826 36.7036 183.963 36.9403C184.105 37.1723 184.285 37.3286 184.503 37.4091C184.725 37.4848 184.96 37.5227 185.206 37.5227C185.391 37.5227 185.542 37.5133 185.661 37.4943C185.779 37.4706 185.874 37.4517 185.945 37.4375L186.286 38.9432C186.172 38.9858 186.013 39.0284 185.81 39.071C185.606 39.1184 185.348 39.142 185.036 39.142C184.562 39.142 184.098 39.0402 183.644 38.8366C183.194 38.633 182.82 38.3229 182.521 37.9062C182.228 37.4896 182.081 36.964 182.081 36.3295V25.4773ZM193.065 39.2273C192.014 39.2273 191.107 38.9953 190.345 38.5312C189.587 38.0625 189.002 37.4091 188.59 36.571C188.183 35.7282 187.98 34.7481 187.98 33.6307C187.98 32.5133 188.183 31.5284 188.59 30.6761C189.002 29.8191 189.575 29.1515 190.309 28.6733C191.048 28.1903 191.909 27.9489 192.894 27.9489C193.462 27.9489 194.024 28.0436 194.578 28.233C195.132 28.4223 195.636 28.7301 196.09 29.1562C196.545 29.5777 196.907 30.1364 197.177 30.8324C197.447 31.5284 197.582 32.3854 197.582 33.4034V34.1136H189.173V32.6648H195.877C195.877 32.0492 195.754 31.5 195.508 31.017C195.266 30.5341 194.921 30.1529 194.471 29.8736C194.026 29.5942 193.5 29.4545 192.894 29.4545C192.227 29.4545 191.649 29.6203 191.161 29.9517C190.678 30.2784 190.307 30.7045 190.046 31.2301C189.786 31.7557 189.656 32.3191 189.656 32.9205V33.8864C189.656 34.7102 189.798 35.4086 190.082 35.9815C190.371 36.5497 190.771 36.983 191.282 37.2812C191.793 37.5748 192.388 37.7216 193.065 37.7216C193.505 37.7216 193.903 37.66 194.258 37.5369C194.618 37.4091 194.928 37.2197 195.188 36.9688C195.449 36.7131 195.65 36.3958 195.792 36.017L197.411 36.4716C197.241 37.0208 196.954 37.5038 196.552 37.9205C196.149 38.3324 195.652 38.6544 195.06 38.8864C194.469 39.1136 193.803 39.2273 193.065 39.2273ZM204.251 39.2273C203.342 39.2273 202.539 38.9976 201.843 38.5384C201.147 38.0743 200.603 37.4209 200.21 36.5781C199.817 35.7306 199.62 34.7292 199.62 33.5739C199.62 32.428 199.817 31.4337 200.21 30.5909C200.603 29.7481 201.149 29.0971 201.85 28.6378C202.551 28.1785 203.361 27.9489 204.279 27.9489C204.989 27.9489 205.551 28.0672 205.962 28.304C206.379 28.536 206.696 28.8011 206.914 29.0994C207.137 29.393 207.31 29.6345 207.433 29.8239H207.575V24.4545H209.251V39H207.632V37.3239H207.433C207.31 37.5227 207.134 37.7737 206.907 38.0767C206.68 38.375 206.355 38.6425 205.934 38.8793C205.513 39.1113 204.952 39.2273 204.251 39.2273ZM204.478 37.7216C205.15 37.7216 205.719 37.5464 206.183 37.196C206.647 36.8409 206.999 36.3509 207.241 35.7259C207.482 35.0961 207.603 34.3693 207.603 33.5455C207.603 32.7311 207.485 32.0185 207.248 31.4077C207.011 30.7921 206.661 30.3139 206.197 29.973C205.733 29.6274 205.16 29.4545 204.478 29.4545C203.768 29.4545 203.176 29.6368 202.703 30.0014C202.234 30.3613 201.881 30.8513 201.644 31.4716C201.412 32.0871 201.296 32.7784 201.296 33.5455C201.296 34.322 201.415 35.0275 201.651 35.6619C201.893 36.2917 202.248 36.7936 202.717 37.1676C203.19 37.5369 203.777 37.7216 204.478 37.7216ZM220.65 39L217.326 28.0909H219.087L221.445 36.4432H221.559L223.889 28.0909H225.678L227.98 36.4148H228.093L230.451 28.0909H232.212L228.889 39H227.241L224.855 30.6193H224.684L222.298 39H220.65ZM234.428 39V28.0909H236.105V39H234.428ZM235.281 26.2727C234.954 26.2727 234.672 26.1615 234.435 25.9389C234.203 25.7164 234.087 25.4489 234.087 25.1364C234.087 24.8239 234.203 24.5563 234.435 24.3338C234.672 24.1113 234.954 24 235.281 24C235.607 24 235.887 24.1113 236.119 24.3338C236.355 24.5563 236.474 24.8239 236.474 25.1364C236.474 25.4489 236.355 25.7164 236.119 25.9389C235.887 26.1615 235.607 26.2727 235.281 26.2727ZM243.919 28.0909V29.5114H238.265V28.0909H243.919ZM239.913 25.4773H241.589V35.875C241.589 36.3485 241.658 36.7036 241.795 36.9403C241.937 37.1723 242.117 37.3286 242.335 37.4091C242.558 37.4848 242.792 37.5227 243.038 37.5227C243.223 37.5227 243.374 37.5133 243.493 37.4943C243.611 37.4706 243.706 37.4517 243.777 37.4375L244.118 38.9432C244.004 38.9858 243.845 39.0284 243.642 39.071C243.438 39.1184 243.18 39.142 242.868 39.142C242.394 39.142 241.93 39.0402 241.476 38.8366C241.026 38.633 240.652 38.3229 240.353 37.9062C240.06 37.4896 239.913 36.964 239.913 36.3295V25.4773ZM248.351 32.4375V39H246.674V24.4545H248.351V29.7955H248.493C248.748 29.232 249.132 28.7846 249.643 28.4531C250.159 28.117 250.846 27.9489 251.703 27.9489C252.446 27.9489 253.097 28.098 253.656 28.3963C254.215 28.6899 254.648 29.142 254.956 29.7528C255.268 30.3589 255.424 31.1307 255.424 32.0682V39H253.748V32.1818C253.748 31.3153 253.523 30.6454 253.074 30.1719C252.629 29.6937 252.011 29.4545 251.22 29.4545C250.671 29.4545 250.178 29.5705 249.743 29.8026C249.312 30.0346 248.971 30.3731 248.72 30.8182C248.474 31.2633 248.351 31.803 248.351 32.4375ZM23.4935 63V48.4545H25.1697V53.8239H25.3117C25.4348 53.6345 25.6053 53.393 25.8231 53.0994C26.0456 52.8011 26.3629 52.536 26.7748 52.304C27.1915 52.0672 27.7549 51.9489 28.4651 51.9489C29.3837 51.9489 30.1934 52.1785 30.8941 52.6378C31.5949 53.0971 32.1417 53.7481 32.5347 54.5909C32.9277 55.4337 33.1242 56.428 33.1242 57.5739C33.1242 58.7292 32.9277 59.7306 32.5347 60.5781C32.1417 61.4209 31.5972 62.0743 30.9012 62.5384C30.2052 62.9976 29.4026 63.2273 28.4935 63.2273C27.7928 63.2273 27.2317 63.1113 26.8103 62.8793C26.3889 62.6425 26.0646 62.375 25.8373 62.0767C25.61 61.7737 25.4348 61.5227 25.3117 61.3239H25.1129V63H23.4935ZM25.1413 57.5455C25.1413 58.3693 25.262 59.0961 25.5035 59.7259C25.745 60.3509 26.0977 60.8409 26.5617 61.196C27.0257 61.5464 27.5939 61.7216 28.2663 61.7216C28.967 61.7216 29.5518 61.5369 30.0205 61.1676C30.494 60.7936 30.8491 60.2917 31.0859 59.6619C31.3273 59.0275 31.4481 58.322 31.4481 57.5455C31.4481 56.7784 31.3297 56.0871 31.093 55.4716C30.861 54.8513 30.5082 54.3613 30.0347 54.0014C29.566 53.6368 28.9765 53.4545 28.2663 53.4545C27.5845 53.4545 27.0115 53.6274 26.5475 53.973C26.0835 54.3139 25.7331 54.7921 25.4964 55.4077C25.2596 56.0185 25.1413 56.7311 25.1413 57.5455ZM38.8984 63.2557C38.2071 63.2557 37.5797 63.1255 37.0163 62.8651C36.4528 62.5999 36.0054 62.2188 35.6739 61.7216C35.3425 61.2197 35.1768 60.6136 35.1768 59.9034C35.1768 59.2784 35.2999 58.7718 35.5461 58.3835C35.7923 57.9905 36.1214 57.6828 36.5333 57.4602C36.9452 57.2377 37.3998 57.072 37.897 56.9631C38.3988 56.8494 38.9031 56.7595 39.4097 56.6932C40.0726 56.608 40.61 56.544 41.022 56.5014C41.4386 56.4541 41.7416 56.3759 41.931 56.267C42.1252 56.1581 42.2222 55.9687 42.2222 55.6989V55.642C42.2222 54.9413 42.0305 54.3968 41.647 54.0085C41.2682 53.6203 40.6929 53.4261 39.9211 53.4261C39.1209 53.4261 38.4935 53.6013 38.039 53.9517C37.5845 54.3021 37.2648 54.6761 37.0802 55.0739L35.4893 54.5057C35.7734 53.8428 36.1522 53.3267 36.6256 52.9574C37.1039 52.5833 37.6247 52.3229 38.1881 52.1761C38.7563 52.0246 39.315 51.9489 39.8643 51.9489C40.2147 51.9489 40.6171 51.9915 41.0717 52.0767C41.5309 52.1572 41.9737 52.3253 42.3998 52.581C42.8307 52.8366 43.1881 53.2225 43.4722 53.7386C43.7563 54.2547 43.8984 54.946 43.8984 55.8125V63H42.2222V61.5227H42.137C42.0234 61.7595 41.834 62.0128 41.5688 62.2827C41.3037 62.5526 40.9509 62.7822 40.5106 62.9716C40.0702 63.161 39.5328 63.2557 38.8984 63.2557ZM39.1541 61.75C39.8169 61.75 40.3756 61.6198 40.8302 61.3594C41.2895 61.099 41.6351 60.7628 41.8671 60.3509C42.1039 59.9389 42.2222 59.5057 42.2222 59.0511V57.517C42.1512 57.6023 41.995 57.6804 41.7535 57.7514C41.5167 57.8177 41.2421 57.8769 40.9296 57.929C40.6219 57.9763 40.3212 58.0189 40.0276 58.0568C39.7388 58.09 39.5044 58.1184 39.3245 58.142C38.8889 58.1989 38.4817 58.2912 38.1029 58.419C37.7289 58.5421 37.4258 58.7292 37.1938 58.9801C36.9666 59.2263 36.8529 59.5625 36.8529 59.9886C36.8529 60.571 37.0684 61.0114 37.4992 61.3097C37.9348 61.6032 38.4864 61.75 39.1541 61.75ZM54.6849 54.5341L53.1793 54.9602C53.0846 54.7093 52.9449 54.4654 52.7602 54.2287C52.5803 53.9872 52.3341 53.7884 52.0216 53.6321C51.7091 53.4759 51.309 53.3977 50.8213 53.3977C50.1537 53.3977 49.5974 53.5516 49.1523 53.8594C48.7119 54.1624 48.4918 54.5483 48.4918 55.017C48.4918 55.4337 48.6433 55.7628 48.9463 56.0043C49.2493 56.2457 49.7228 56.447 50.3668 56.608L51.9861 57.0057C52.9615 57.2424 53.6883 57.6046 54.1665 58.0923C54.6447 58.5753 54.8838 59.1979 54.8838 59.9602C54.8838 60.5852 54.7039 61.1439 54.344 61.6364C53.9889 62.1288 53.4918 62.517 52.8526 62.8011C52.2134 63.0852 51.47 63.2273 50.6224 63.2273C49.5098 63.2273 48.5888 62.9858 47.8597 62.5028C47.1305 62.0199 46.6688 61.3144 46.4747 60.3864L48.0656 59.9886C48.2171 60.5758 48.5036 61.0161 48.925 61.3097C49.3511 61.6032 49.9075 61.75 50.594 61.75C51.3753 61.75 51.9956 61.5843 52.4548 61.2528C52.9188 60.9167 53.1509 60.5142 53.1509 60.0455C53.1509 59.6667 53.0183 59.3494 52.7531 59.0938C52.488 58.8333 52.0808 58.6392 51.5315 58.5114L49.7134 58.0852C48.7143 57.8485 47.9804 57.4815 47.5117 56.9844C47.0476 56.4825 46.8156 55.8551 46.8156 55.1023C46.8156 54.4867 46.9885 53.9422 47.3341 53.4688C47.6845 52.9953 48.1603 52.6236 48.7617 52.3537C49.3677 52.0838 50.0543 51.9489 50.8213 51.9489C51.9009 51.9489 52.7484 52.1856 53.3639 52.6591C53.9842 53.1326 54.4245 53.7576 54.6849 54.5341ZM61.9808 63.2273C60.9296 63.2273 60.0229 62.9953 59.2606 62.5312C58.503 62.0625 57.9183 61.4091 57.5063 60.571C57.0991 59.7282 56.8955 58.7481 56.8955 57.6307C56.8955 56.5133 57.0991 55.5284 57.5063 54.6761C57.9183 53.8191 58.4912 53.1515 59.2251 52.6733C59.9637 52.1903 60.8255 51.9489 61.8103 51.9489C62.3785 51.9489 62.9396 52.0436 63.4935 52.233C64.0475 52.4223 64.5518 52.7301 65.0063 53.1562C65.4609 53.5777 65.8231 54.1364 66.093 54.8324C66.3629 55.5284 66.4978 56.3854 66.4978 57.4034V58.1136H58.0887V56.6648H64.7933C64.7933 56.0492 64.6702 55.5 64.4239 55.017C64.1825 54.5341 63.8368 54.1529 63.387 53.8736C62.9419 53.5942 62.4164 53.4545 61.8103 53.4545C61.1427 53.4545 60.565 53.6203 60.0773 53.9517C59.5944 54.2784 59.2227 54.7045 58.9623 55.2301C58.7019 55.7557 58.5717 56.3191 58.5717 56.9205V57.8864C58.5717 58.7102 58.7137 59.4086 58.9978 59.9815C59.2866 60.5497 59.6867 60.983 60.1981 61.2812C60.7095 61.5748 61.3037 61.7216 61.9808 61.7216C62.4211 61.7216 62.8188 61.66 63.1739 61.5369C63.5338 61.4091 63.8439 61.2197 64.1043 60.9688C64.3648 60.7131 64.566 60.3958 64.708 60.017L66.3273 60.4716C66.1569 61.0208 65.8704 61.5038 65.468 61.9205C65.0655 62.3324 64.5684 62.6544 63.9765 62.8864C63.3846 63.1136 62.7194 63.2273 61.9808 63.2273ZM70.7237 48.4545V63H69.0475V48.4545H70.7237ZM73.7936 63V52.0909H75.4697V63H73.7936ZM74.6459 50.2727C74.3192 50.2727 74.0375 50.1615 73.8007 49.9389C73.5687 49.7164 73.4527 49.4489 73.4527 49.1364C73.4527 48.8239 73.5687 48.5563 73.8007 48.3338C74.0375 48.1113 74.3192 48 74.6459 48C74.9726 48 75.2519 48.1113 75.484 48.3338C75.7207 48.5563 75.8391 48.8239 75.8391 49.1364C75.8391 49.4489 75.7207 49.7164 75.484 49.9389C75.2519 50.1615 74.9726 50.2727 74.6459 50.2727ZM80.2158 56.4375V63H78.5397V52.0909H80.159V53.7955H80.3011C80.5568 53.2415 80.945 52.7964 81.4658 52.4602C81.9867 52.1193 82.659 51.9489 83.4829 51.9489C84.2215 51.9489 84.8678 52.1004 85.4218 52.4034C85.9758 52.7017 86.4067 53.1562 86.7144 53.767C87.0222 54.3731 87.1761 55.1402 87.1761 56.0682V63H85.4999V56.1818C85.4999 55.3248 85.2774 54.6572 84.8323 54.179C84.3872 53.696 83.7764 53.4545 82.9999 53.4545C82.4649 53.4545 81.9867 53.5705 81.5653 53.8026C81.1486 54.0346 80.8195 54.3731 80.5781 54.8182C80.3366 55.2633 80.2158 55.803 80.2158 56.4375ZM94.8128 63.2273C93.7617 63.2273 92.8549 62.9953 92.0926 62.5312C91.335 62.0625 90.7503 61.4091 90.3384 60.571C89.9312 59.7282 89.7276 58.7481 89.7276 57.6307C89.7276 56.5133 89.9312 55.5284 90.3384 54.6761C90.7503 53.8191 91.3232 53.1515 92.0571 52.6733C92.7957 52.1903 93.6575 51.9489 94.6423 51.9489C95.2105 51.9489 95.7716 52.0436 96.3256 52.233C96.8796 52.4223 97.3838 52.7301 97.8384 53.1562C98.2929 53.5777 98.6551 54.1364 98.925 54.8324C99.1949 55.5284 99.3298 56.3854 99.3298 57.4034V58.1136H90.9207V56.6648H97.6253C97.6253 56.0492 97.5022 55.5 97.256 55.017C97.0145 54.5341 96.6688 54.1529 96.219 53.8736C95.774 53.5942 95.2484 53.4545 94.6423 53.4545C93.9747 53.4545 93.3971 53.6203 92.9094 53.9517C92.4264 54.2784 92.0547 54.7045 91.7943 55.2301C91.5339 55.7557 91.4037 56.3191 91.4037 56.9205V57.8864C91.4037 58.7102 91.5457 59.4086 91.8298 59.9815C92.1187 60.5497 92.5188 60.983 93.0301 61.2812C93.5415 61.5748 94.1357 61.7216 94.8128 61.7216C95.2531 61.7216 95.6509 61.66 96.006 61.5369C96.3658 61.4091 96.676 61.2197 96.9364 60.9688C97.1968 60.7131 97.398 60.3958 97.5401 60.017L99.1594 60.4716C98.9889 61.0208 98.7025 61.5038 98.3 61.9205C97.8975 62.3324 97.4004 62.6544 96.8085 62.8864C96.2167 63.1136 95.5514 63.2273 94.8128 63.2273ZM109.181 48.4545V63H107.505V48.4545H109.181ZM112.251 63V52.0909H113.927V63H112.251ZM113.103 50.2727C112.776 50.2727 112.494 50.1615 112.258 49.9389C112.026 49.7164 111.91 49.4489 111.91 49.1364C111.91 48.8239 112.026 48.5563 112.258 48.3338C112.494 48.1113 112.776 48 113.103 48C113.43 48 113.709 48.1113 113.941 48.3338C114.178 48.5563 114.296 48.8239 114.296 49.1364C114.296 49.4489 114.178 49.7164 113.941 49.9389C113.709 50.1615 113.43 50.2727 113.103 50.2727ZM116.997 67.0909V52.0909H118.616V53.8239H118.815C118.938 53.6345 119.108 53.393 119.326 53.0994C119.549 52.8011 119.866 52.536 120.278 52.304C120.695 52.0672 121.258 51.9489 121.968 51.9489C122.887 51.9489 123.697 52.1785 124.397 52.6378C125.098 53.0971 125.645 53.7481 126.038 54.5909C126.431 55.4337 126.627 56.428 126.627 57.5739C126.627 58.7292 126.431 59.7306 126.038 60.5781C125.645 61.4209 125.1 62.0743 124.404 62.5384C123.708 62.9976 122.906 63.2273 121.997 63.2273C121.296 63.2273 120.735 63.1113 120.313 62.8793C119.892 62.6425 119.568 62.375 119.34 62.0767C119.113 61.7737 118.938 61.5227 118.815 61.3239H118.673V67.0909H116.997ZM118.644 57.5455C118.644 58.3693 118.765 59.0961 119.007 59.7259C119.248 60.3509 119.601 60.8409 120.065 61.196C120.529 61.5464 121.097 61.7216 121.769 61.7216C122.47 61.7216 123.055 61.5369 123.524 61.1676C123.997 60.7936 124.352 60.2917 124.589 59.6619C124.831 59.0275 124.951 58.322 124.951 57.5455C124.951 56.7784 124.833 56.0871 124.596 55.4716C124.364 54.8513 124.011 54.3613 123.538 54.0014C123.069 53.6368 122.48 53.4545 121.769 53.4545C121.088 53.4545 120.515 53.6274 120.051 53.973C119.587 54.3139 119.236 54.7921 119 55.4077C118.763 56.0185 118.644 56.7311 118.644 57.5455ZM129.184 63V52.0909H130.86V63H129.184ZM130.037 50.2727C129.71 50.2727 129.428 50.1615 129.191 49.9389C128.959 49.7164 128.843 49.4489 128.843 49.1364C128.843 48.8239 128.959 48.5563 129.191 48.3338C129.428 48.1113 129.71 48 130.037 48C130.363 48 130.643 48.1113 130.875 48.3338C131.111 48.5563 131.23 48.8239 131.23 49.1364C131.23 49.4489 131.111 49.7164 130.875 49.9389C130.643 50.1615 130.363 50.2727 130.037 50.2727ZM138.05 63.2273C137.141 63.2273 136.338 62.9976 135.642 62.5384C134.946 62.0743 134.401 61.4209 134.008 60.5781C133.615 59.7306 133.419 58.7292 133.419 57.5739C133.419 56.428 133.615 55.4337 134.008 54.5909C134.401 53.7481 134.948 53.0971 135.649 52.6378C136.35 52.1785 137.159 51.9489 138.078 51.9489C138.788 51.9489 139.349 52.0672 139.761 52.304C140.178 52.536 140.495 52.8011 140.713 53.0994C140.936 53.393 141.108 53.6345 141.231 53.8239H141.374V48.4545H143.05V63H141.43V61.3239H141.231C141.108 61.5227 140.933 61.7737 140.706 62.0767C140.479 62.375 140.154 62.6425 139.733 62.8793C139.311 63.1113 138.75 63.2273 138.05 63.2273ZM138.277 61.7216C138.949 61.7216 139.517 61.5464 139.981 61.196C140.445 60.8409 140.798 60.3509 141.04 59.7259C141.281 59.0961 141.402 58.3693 141.402 57.5455C141.402 56.7311 141.284 56.0185 141.047 55.4077C140.81 54.7921 140.46 54.3139 139.996 53.973C139.532 53.6274 138.959 53.4545 138.277 53.4545C137.567 53.4545 136.975 53.6368 136.501 54.0014C136.033 54.3613 135.68 54.8513 135.443 55.4716C135.211 56.0871 135.095 56.7784 135.095 57.5455C135.095 58.322 135.213 59.0275 135.45 59.6619C135.692 60.2917 136.047 60.7936 136.516 61.1676C136.989 61.5369 137.576 61.7216 138.277 61.7216ZM159.704 54.5341L158.199 54.9602C158.104 54.7093 157.964 54.4654 157.78 54.2287C157.6 53.9872 157.354 53.7884 157.041 53.6321C156.729 53.4759 156.329 53.3977 155.841 53.3977C155.173 53.3977 154.617 53.5516 154.172 53.8594C153.731 54.1624 153.511 54.5483 153.511 55.017C153.511 55.4337 153.663 55.7628 153.966 56.0043C154.269 56.2457 154.742 56.447 155.386 56.608L157.006 57.0057C157.981 57.2424 158.708 57.6046 159.186 58.0923C159.664 58.5753 159.903 59.1979 159.903 59.9602C159.903 60.5852 159.723 61.1439 159.364 61.6364C159.008 62.1288 158.511 62.517 157.872 62.8011C157.233 63.0852 156.49 63.2273 155.642 63.2273C154.529 63.2273 153.608 62.9858 152.879 62.5028C152.15 62.0199 151.688 61.3144 151.494 60.3864L153.085 59.9886C153.237 60.5758 153.523 61.0161 153.945 61.3097C154.371 61.6032 154.927 61.75 155.614 61.75C156.395 61.75 157.015 61.5843 157.474 61.2528C157.938 60.9167 158.17 60.5142 158.17 60.0455C158.17 59.6667 158.038 59.3494 157.773 59.0938C157.508 58.8333 157.1 58.6392 156.551 58.5114L154.733 58.0852C153.734 57.8485 153 57.4815 152.531 56.9844C152.067 56.4825 151.835 55.8551 151.835 55.1023C151.835 54.4867 152.008 53.9422 152.354 53.4688C152.704 52.9953 153.18 52.6236 153.781 52.3537C154.387 52.0838 155.074 51.9489 155.841 51.9489C156.92 51.9489 157.768 52.1856 158.383 52.6591C159.004 53.1326 159.444 53.7576 159.704 54.5341ZM162.426 63V52.0909H164.103V63H162.426ZM163.279 50.2727C162.952 50.2727 162.67 50.1615 162.434 49.9389C162.202 49.7164 162.086 49.4489 162.086 49.1364C162.086 48.8239 162.202 48.5563 162.434 48.3338C162.67 48.1113 162.952 48 163.279 48C163.605 48 163.885 48.1113 164.117 48.3338C164.354 48.5563 164.472 48.8239 164.472 49.1364C164.472 49.4489 164.354 49.7164 164.117 49.9389C163.885 50.1615 163.605 50.2727 163.279 50.2727ZM171.576 67.3182C170.766 67.3182 170.07 67.214 169.488 67.0057C168.905 66.8021 168.42 66.5322 168.032 66.196C167.648 65.8646 167.343 65.5095 167.116 65.1307L168.451 64.1932C168.602 64.392 168.794 64.6193 169.026 64.875C169.258 65.1354 169.575 65.3603 169.978 65.5497C170.385 65.7438 170.918 65.8409 171.576 65.8409C172.457 65.8409 173.183 65.6278 173.756 65.2017C174.329 64.7756 174.616 64.108 174.616 63.1989V60.983H174.474C174.351 61.1818 174.175 61.428 173.948 61.7216C173.726 62.0104 173.404 62.2685 172.982 62.4957C172.566 62.7183 172.002 62.8295 171.292 62.8295C170.411 62.8295 169.62 62.6212 168.92 62.2045C168.224 61.7879 167.672 61.1818 167.265 60.3864C166.862 59.5909 166.661 58.625 166.661 57.4886C166.661 56.3712 166.858 55.3982 167.251 54.5696C167.644 53.7363 168.191 53.0923 168.891 52.6378C169.592 52.1785 170.402 51.9489 171.32 51.9489C172.03 51.9489 172.594 52.0672 173.011 52.304C173.432 52.536 173.754 52.8011 173.976 53.0994C174.204 53.393 174.379 53.6345 174.502 53.8239H174.673V52.0909H176.292V63.3125C176.292 64.25 176.079 65.0123 175.653 65.5994C175.231 66.1913 174.663 66.6245 173.948 66.8991C173.238 67.1785 172.447 67.3182 171.576 67.3182ZM171.519 61.3239C172.191 61.3239 172.76 61.17 173.224 60.8622C173.688 60.5545 174.04 60.1117 174.282 59.5341C174.523 58.9564 174.644 58.2652 174.644 57.4602C174.644 56.6742 174.526 55.9806 174.289 55.3793C174.052 54.7779 173.702 54.3068 173.238 53.9659C172.774 53.625 172.201 53.4545 171.519 53.4545C170.809 53.4545 170.217 53.6345 169.744 53.9943C169.275 54.3542 168.922 54.8371 168.685 55.4432C168.453 56.0492 168.337 56.7216 168.337 57.4602C168.337 58.2178 168.456 58.8878 168.692 59.4702C168.934 60.0478 169.289 60.5024 169.758 60.8338C170.231 61.1605 170.818 61.3239 171.519 61.3239ZM181.036 56.4375V63H179.36V52.0909H180.979V53.7955H181.121C181.377 53.2415 181.765 52.7964 182.286 52.4602C182.807 52.1193 183.479 51.9489 184.303 51.9489C185.042 51.9489 185.688 52.1004 186.242 52.4034C186.796 52.7017 187.227 53.1562 187.535 53.767C187.843 54.3731 187.996 55.1402 187.996 56.0682V63H186.32V56.1818C186.32 55.3248 186.098 54.6572 185.653 54.179C185.208 53.696 184.597 53.4545 183.82 53.4545C183.285 53.4545 182.807 53.5705 182.386 53.8026C181.969 54.0346 181.64 54.3731 181.398 54.8182C181.157 55.2633 181.036 55.803 181.036 56.4375ZM194.269 63.2557C193.578 63.2557 192.951 63.1255 192.387 62.8651C191.824 62.5999 191.376 62.2188 191.045 61.7216C190.714 61.2197 190.548 60.6136 190.548 59.9034C190.548 59.2784 190.671 58.7718 190.917 58.3835C191.163 57.9905 191.492 57.6828 191.904 57.4602C192.316 57.2377 192.771 57.072 193.268 56.9631C193.77 56.8494 194.274 56.7595 194.781 56.6932C195.444 56.608 195.981 56.544 196.393 56.5014C196.81 56.4541 197.113 56.3759 197.302 56.267C197.496 56.1581 197.593 55.9687 197.593 55.6989V55.642C197.593 54.9413 197.402 54.3968 197.018 54.0085C196.639 53.6203 196.064 53.4261 195.292 53.4261C194.492 53.4261 193.865 53.6013 193.41 53.9517C192.956 54.3021 192.636 54.6761 192.451 55.0739L190.86 54.5057C191.144 53.8428 191.523 53.3267 191.997 52.9574C192.475 52.5833 192.996 52.3229 193.559 52.1761C194.127 52.0246 194.686 51.9489 195.235 51.9489C195.586 51.9489 195.988 51.9915 196.443 52.0767C196.902 52.1572 197.345 52.3253 197.771 52.581C198.202 52.8366 198.559 53.2225 198.843 53.7386C199.127 54.2547 199.269 54.946 199.269 55.8125V63H197.593V61.5227H197.508C197.394 61.7595 197.205 62.0128 196.94 62.2827C196.675 62.5526 196.322 62.7822 195.882 62.9716C195.441 63.161 194.904 63.2557 194.269 63.2557ZM194.525 61.75C195.188 61.75 195.747 61.6198 196.201 61.3594C196.661 61.099 197.006 60.7628 197.238 60.3509C197.475 59.9389 197.593 59.5057 197.593 59.0511V57.517C197.522 57.6023 197.366 57.6804 197.125 57.7514C196.888 57.8177 196.613 57.8769 196.301 57.929C195.993 57.9763 195.692 58.0189 195.399 58.0568C195.11 58.09 194.876 58.1184 194.696 58.142C194.26 58.1989 193.853 58.2912 193.474 58.419C193.1 58.5421 192.797 58.7292 192.565 58.9801C192.338 59.2263 192.224 59.5625 192.224 59.9886C192.224 60.571 192.439 61.0114 192.87 61.3097C193.306 61.6032 193.858 61.75 194.525 61.75ZM204.005 48.4545V63H202.329V48.4545H204.005ZM207.075 63V52.0909H208.751V63H207.075ZM207.927 50.2727C207.6 50.2727 207.319 50.1615 207.082 49.9389C206.85 49.7164 206.734 49.4489 206.734 49.1364C206.734 48.8239 206.85 48.5563 207.082 48.3338C207.319 48.1113 207.6 48 207.927 48C208.254 48 208.533 48.1113 208.765 48.3338C209.002 48.5563 209.12 48.8239 209.12 49.1364C209.12 49.4489 209.002 49.7164 208.765 49.9389C208.533 50.1615 208.254 50.2727 207.927 50.2727ZM213.497 56.4375V63H211.821V52.0909H213.44V53.7955H213.582C213.838 53.2415 214.226 52.7964 214.747 52.4602C215.268 52.1193 215.94 51.9489 216.764 51.9489C217.503 51.9489 218.149 52.1004 218.703 52.4034C219.257 52.7017 219.688 53.1562 219.996 53.767C220.303 54.3731 220.457 55.1402 220.457 56.0682V63H218.781V56.1818C218.781 55.3248 218.559 54.6572 218.114 54.179C217.668 53.696 217.058 53.4545 216.281 53.4545C215.746 53.4545 215.268 53.5705 214.847 53.8026C214.43 54.0346 214.101 54.3731 213.859 54.8182C213.618 55.2633 213.497 55.803 213.497 56.4375ZM227.924 67.3182C227.114 67.3182 226.418 67.214 225.836 67.0057C225.253 66.8021 224.768 66.5322 224.38 66.196C223.996 65.8646 223.691 65.5095 223.463 65.1307L224.799 64.1932C224.95 64.392 225.142 64.6193 225.374 64.875C225.606 65.1354 225.923 65.3603 226.326 65.5497C226.733 65.7438 227.265 65.8409 227.924 65.8409C228.804 65.8409 229.531 65.6278 230.104 65.2017C230.677 64.7756 230.963 64.108 230.963 63.1989V60.983H230.821C230.698 61.1818 230.523 61.428 230.296 61.7216C230.073 62.0104 229.751 62.2685 229.33 62.4957C228.913 62.7183 228.35 62.8295 227.639 62.8295C226.759 62.8295 225.968 62.6212 225.267 62.2045C224.571 61.7879 224.02 61.1818 223.613 60.3864C223.21 59.5909 223.009 58.625 223.009 57.4886C223.009 56.3712 223.205 55.3982 223.598 54.5696C223.991 53.7363 224.538 53.0923 225.239 52.6378C225.94 52.1785 226.749 51.9489 227.668 51.9489C228.378 51.9489 228.942 52.0672 229.358 52.304C229.78 52.536 230.102 52.8011 230.324 53.0994C230.551 53.393 230.727 53.6345 230.85 53.8239H231.02V52.0909H232.639V63.3125C232.639 64.25 232.426 65.0123 232 65.5994C231.579 66.1913 231.011 66.6245 230.296 66.8991C229.586 67.1785 228.795 67.3182 227.924 67.3182ZM227.867 61.3239C228.539 61.3239 229.107 61.17 229.571 60.8622C230.035 60.5545 230.388 60.1117 230.63 59.5341C230.871 58.9564 230.992 58.2652 230.992 57.4602C230.992 56.6742 230.873 55.9806 230.637 55.3793C230.4 54.7779 230.05 54.3068 229.586 53.9659C229.122 53.625 228.549 53.4545 227.867 53.4545C227.157 53.4545 226.565 53.6345 226.091 53.9943C225.622 54.3542 225.27 54.8371 225.033 55.4432C224.801 56.0492 224.685 56.7216 224.685 57.4602C224.685 58.2178 224.803 58.8878 225.04 59.4702C225.282 60.0478 225.637 60.5024 226.105 60.8338C226.579 61.1605 227.166 61.3239 227.867 61.3239Z" fill="#DADADA"/>
</svg>
