<svg width="307" height="44" viewBox="0 0 307 44" fill="none" xmlns="http://www.w3.org/2000/svg">
<path d="M-0.000110865 15V0.454545H8.7783V2.01705H1.76125V6.93182H8.32375V8.49432H1.76125V13.4375H8.89194V15H-0.000110865ZM12.9757 4.09091L15.5894 8.55114L18.203 4.09091H20.1348L16.6121 9.54545L20.1348 15H18.203L15.5894 10.767L12.9757 15H11.0439L14.5098 9.54545L11.0439 4.09091H12.9757ZM26.6512 15.2273C25.6 15.2273 24.6933 14.9953 23.931 14.5312C23.1734 14.0625 22.5887 13.4091 22.1767 12.571C21.7695 11.7282 21.5659 10.7481 21.5659 9.63068C21.5659 8.51326 21.7695 7.52841 22.1767 6.67614C22.5887 5.81913 23.1616 5.15152 23.8955 4.6733C24.6341 4.19034 25.4959 3.94886 26.4807 3.94886C27.0489 3.94886 27.61 4.04356 28.164 4.23295C28.7179 4.42235 29.2222 4.73011 29.6767 5.15625C30.1313 5.57765 30.4935 6.13636 30.7634 6.83239C31.0333 7.52841 31.1682 8.38542 31.1682 9.40341V10.1136H22.7591V8.66477H29.4637C29.4637 8.04924 29.3406 7.5 29.0943 7.01705C28.8529 6.53409 28.5072 6.15294 28.0574 5.87358C27.6123 5.59422 27.0868 5.45455 26.4807 5.45455C25.8131 5.45455 25.2354 5.62026 24.7478 5.9517C24.2648 6.27841 23.8931 6.70455 23.6327 7.23011C23.3723 7.75568 23.2421 8.31913 23.2421 8.92045V9.88636C23.2421 10.7102 23.3841 11.4086 23.6682 11.9815C23.957 12.5497 24.3571 12.983 24.8685 13.2812C25.3799 13.5748 25.9741 13.7216 26.6512 13.7216C27.0915 13.7216 27.4892 13.66 27.8443 13.5369C28.2042 13.4091 28.5143 13.2197 28.7747 12.9688C29.0352 12.7131 29.2364 12.3958 29.3784 12.017L30.9978 12.4716C30.8273 13.0208 30.5408 13.5038 30.1384 13.9205C29.7359 14.3324 29.2388 14.6544 28.6469 14.8864C28.0551 15.1136 27.3898 15.2273 26.6512 15.2273ZM33.7179 15V4.09091H35.3372V5.73864H35.4509C35.6497 5.19886 36.0096 4.76089 36.5304 4.42472C37.0513 4.08854 37.6384 3.92045 38.2918 3.92045C38.4149 3.92045 38.5688 3.92282 38.7534 3.92756C38.9381 3.93229 39.0778 3.93939 39.1725 3.94886V5.65341C39.1157 5.6392 38.9854 5.6179 38.7818 5.58949C38.583 5.55634 38.3723 5.53977 38.1497 5.53977C37.6194 5.53977 37.146 5.65104 36.7293 5.87358C36.3174 6.09138 35.9907 6.39441 35.7492 6.78267C35.5124 7.16619 35.3941 7.60417 35.3941 8.09659V15H33.7179ZM45.2591 15.2273C44.2364 15.2273 43.3557 14.9858 42.6171 14.5028C41.8784 14.0199 41.3103 13.3546 40.9125 12.5071C40.5148 11.6596 40.3159 10.6913 40.3159 9.60227C40.3159 8.49432 40.5195 7.51657 40.9267 6.66903C41.3387 5.81676 41.9116 5.15152 42.6455 4.6733C43.3841 4.19034 44.2459 3.94886 45.2307 3.94886C45.9978 3.94886 46.689 4.09091 47.3046 4.375C47.9201 4.65909 48.4244 5.05682 48.8174 5.56818C49.2104 6.07955 49.4542 6.67614 49.5489 7.35795H47.8728C47.7449 6.8608 47.4608 6.42045 47.0205 6.03693C46.5849 5.64867 45.9978 5.45455 45.2591 5.45455C44.6057 5.45455 44.0328 5.625 43.5404 5.96591C43.0527 6.30208 42.6715 6.77794 42.3969 7.39347C42.127 8.00426 41.9921 8.72159 41.9921 9.54545C41.9921 10.3883 42.1247 11.1222 42.3898 11.7472C42.6597 12.3722 43.0385 12.8575 43.5262 13.2031C44.0186 13.5488 44.5962 13.7216 45.2591 13.7216C45.6947 13.7216 46.0901 13.6458 46.4452 13.4943C46.8003 13.3428 47.101 13.125 47.3472 12.8409C47.5934 12.5568 47.7686 12.2159 47.8728 11.8182H49.5489C49.4542 12.4621 49.2198 13.0421 48.8458 13.5582C48.4765 14.0696 47.9864 14.4768 47.3756 14.7798C46.7695 15.0781 46.064 15.2273 45.2591 15.2273ZM51.9992 15V4.09091H53.6753V15H51.9992ZM52.8515 2.27273C52.5247 2.27273 52.243 2.16146 52.0063 1.93892C51.7743 1.71638 51.6583 1.44886 51.6583 1.13636C51.6583 0.823864 51.7743 0.556345 52.0063 0.333806C52.243 0.111269 52.5247 0 52.8515 0C53.1782 0 53.4575 0.111269 53.6895 0.333806C53.9263 0.556345 54.0446 0.823864 54.0446 1.13636C54.0446 1.44886 53.9263 1.71638 53.6895 1.93892C53.4575 2.16146 53.1782 2.27273 52.8515 2.27273ZM64.4725 6.53409L62.9669 6.96023C62.8722 6.70928 62.7325 6.46544 62.5478 6.22869C62.3679 5.98722 62.1217 5.78835 61.8092 5.6321C61.4967 5.47585 61.0966 5.39773 60.6089 5.39773C59.9413 5.39773 59.385 5.55161 58.9399 5.85938C58.4995 6.16241 58.2794 6.5483 58.2794 7.01705C58.2794 7.43371 58.4309 7.76278 58.7339 8.00426C59.0369 8.24574 59.5104 8.44697 60.1544 8.60795L61.7737 9.00568C62.7491 9.24242 63.4759 9.60464 63.9541 10.0923C64.4323 10.5753 64.6714 11.1979 64.6714 11.9602C64.6714 12.5852 64.4915 13.1439 64.1316 13.6364C63.7765 14.1288 63.2794 14.517 62.6402 14.8011C62.001 15.0852 61.2576 15.2273 60.41 15.2273C59.2974 15.2273 58.3764 14.9858 57.6473 14.5028C56.9181 14.0199 56.4564 13.3144 56.2623 12.3864L57.8532 11.9886C58.0047 12.5758 58.2912 13.0161 58.7126 13.3097C59.1387 13.6032 59.6951 13.75 60.3816 13.75C61.1629 13.75 61.7832 13.5843 62.2424 13.2528C62.7064 12.9167 62.9385 12.5142 62.9385 12.0455C62.9385 11.6667 62.8059 11.3494 62.5407 11.0938C62.2756 10.8333 61.8684 10.6392 61.3191 10.5114L59.501 10.0852C58.5019 9.84848 57.768 9.48153 57.2992 8.98438C56.8352 8.48248 56.6032 7.85511 56.6032 7.10227C56.6032 6.48674 56.776 5.94223 57.1217 5.46875C57.4721 4.99527 57.9479 4.62358 58.5493 4.35369C59.1553 4.08381 59.8419 3.94886 60.6089 3.94886C61.6885 3.94886 62.536 4.18561 63.1515 4.65909C63.7718 5.13258 64.2121 5.75758 64.4725 6.53409ZM71.7684 15.2273C70.7172 15.2273 69.8105 14.9953 69.0482 14.5312C68.2906 14.0625 67.7059 13.4091 67.2939 12.571C66.8867 11.7282 66.6831 10.7481 66.6831 9.63068C66.6831 8.51326 66.8867 7.52841 67.2939 6.67614C67.7059 5.81913 68.2788 5.15152 69.0127 4.6733C69.7513 4.19034 70.6131 3.94886 71.5979 3.94886C72.1661 3.94886 72.7272 4.04356 73.2811 4.23295C73.8351 4.42235 74.3394 4.73011 74.7939 5.15625C75.2485 5.57765 75.6107 6.13636 75.8806 6.83239C76.1505 7.52841 76.2854 8.38542 76.2854 9.40341V10.1136H67.8763V8.66477H74.5809C74.5809 8.04924 74.4577 7.5 74.2115 7.01705C73.9701 6.53409 73.6244 6.15294 73.1746 5.87358C72.7295 5.59422 72.204 5.45455 71.5979 5.45455C70.9303 5.45455 70.3526 5.62026 69.8649 5.9517C69.382 6.27841 69.0103 6.70455 68.7499 7.23011C68.4895 7.75568 68.3593 8.31913 68.3593 8.92045V9.88636C68.3593 10.7102 68.5013 11.4086 68.7854 11.9815C69.0742 12.5497 69.4743 12.983 69.9857 13.2812C70.497 13.5748 71.0913 13.7216 71.7684 13.7216C72.2087 13.7216 72.6064 13.66 72.9615 13.5369C73.3214 13.4091 73.6315 13.2197 73.8919 12.9688C74.1524 12.7131 74.3536 12.3958 74.4956 12.017L76.1149 12.4716C75.9445 13.0208 75.658 13.5038 75.2556 13.9205C74.8531 14.3324 74.3559 14.6544 73.7641 14.8864C73.1722 15.1136 72.507 15.2273 71.7684 15.2273ZM85.0851 7.98295V9.54545H78.7215V7.98295H85.0851ZM91.2446 15.2557C90.5533 15.2557 89.9259 15.1255 89.3625 14.8651C88.799 14.5999 88.3516 14.2188 88.0201 13.7216C87.6887 13.2197 87.523 12.6136 87.523 11.9034C87.523 11.2784 87.6461 10.7718 87.8923 10.3835C88.1385 9.99053 88.4676 9.68276 88.8795 9.46023C89.2914 9.23769 89.746 9.07197 90.2431 8.96307C90.745 8.84943 91.2493 8.75947 91.7559 8.69318C92.4188 8.60795 92.9562 8.54403 93.3681 8.50142C93.7848 8.45407 94.0878 8.37595 94.2772 8.26705C94.4714 8.15814 94.5684 7.96875 94.5684 7.69886V7.64205C94.5684 6.94129 94.3767 6.39678 93.9931 6.00852C93.6144 5.62027 93.0391 5.42614 92.2673 5.42614C91.4671 5.42614 90.8397 5.60133 90.3852 5.9517C89.9306 6.30208 89.611 6.67614 89.4264 7.07386L87.8355 6.50568C88.1196 5.8428 88.4984 5.3267 88.9718 4.95739C89.4501 4.58333 89.9709 4.32292 90.5343 4.17614C91.1025 4.02462 91.6612 3.94886 92.2105 3.94886C92.5609 3.94886 92.9633 3.99148 93.4179 4.0767C93.8771 4.1572 94.3198 4.32528 94.746 4.58097C95.1769 4.83665 95.5343 5.22254 95.8184 5.73864C96.1025 6.25473 96.2446 6.94602 96.2446 7.8125V15H94.5684V13.5227H94.4832C94.3696 13.7595 94.1802 14.0128 93.915 14.2827C93.6499 14.5526 93.2971 14.7822 92.8568 14.9716C92.4164 15.161 91.879 15.2557 91.2446 15.2557ZM91.5002 13.75C92.1631 13.75 92.7218 13.6198 93.1764 13.3594C93.6357 13.099 93.9813 12.7628 94.2133 12.3509C94.4501 11.9389 94.5684 11.5057 94.5684 11.0511V9.51705C94.4974 9.60227 94.3412 9.6804 94.0997 9.75142C93.8629 9.81771 93.5883 9.87689 93.2758 9.92898C92.968 9.97633 92.6674 10.0189 92.3738 10.0568C92.085 10.09 91.8506 10.1184 91.6707 10.142C91.2351 10.1989 90.8279 10.2912 90.4491 10.419C90.0751 10.5421 89.772 10.7292 89.54 10.9801C89.3127 11.2263 89.1991 11.5625 89.1991 11.9886C89.1991 12.571 89.4145 13.0114 89.8454 13.3097C90.281 13.6032 90.8326 13.75 91.5002 13.75ZM103.736 15.2273C102.713 15.2273 101.832 14.9858 101.094 14.5028C100.355 14.0199 99.7868 13.3546 99.3891 12.5071C98.9914 11.6596 98.7925 10.6913 98.7925 9.60227C98.7925 8.49432 98.9961 7.51657 99.4033 6.66903C99.8152 5.81676 100.388 5.15152 101.122 4.6733C101.861 4.19034 102.722 3.94886 103.707 3.94886C104.474 3.94886 105.166 4.09091 105.781 4.375C106.397 4.65909 106.901 5.05682 107.294 5.56818C107.687 6.07955 107.931 6.67614 108.025 7.35795H106.349C106.221 6.8608 105.937 6.42045 105.497 6.03693C105.061 5.64867 104.474 5.45455 103.736 5.45455C103.082 5.45455 102.509 5.625 102.017 5.96591C101.529 6.30208 101.148 6.77794 100.873 7.39347C100.604 8.00426 100.469 8.72159 100.469 9.54545C100.469 10.3883 100.601 11.1222 100.866 11.7472C101.136 12.3722 101.515 12.8575 102.003 13.2031C102.495 13.5488 103.073 13.7216 103.736 13.7216C104.171 13.7216 104.567 13.6458 104.922 13.4943C105.277 13.3428 105.578 13.125 105.824 12.8409C106.07 12.5568 106.245 12.2159 106.349 11.8182H108.025C107.931 12.4621 107.696 13.0421 107.322 13.5582C106.953 14.0696 106.463 14.4768 105.852 14.7798C105.246 15.0781 104.541 15.2273 103.736 15.2273ZM115.22 4.09091V5.51136H109.567V4.09091H115.22ZM111.214 1.47727H112.891V11.875C112.891 12.3485 112.959 12.7036 113.096 12.9403C113.239 13.1723 113.418 13.3286 113.636 13.4091C113.859 13.4848 114.093 13.5227 114.339 13.5227C114.524 13.5227 114.676 13.5133 114.794 13.4943C114.912 13.4706 115.007 13.4517 115.078 13.4375L115.419 14.9432C115.305 14.9858 115.147 15.0284 114.943 15.071C114.739 15.1184 114.481 15.142 114.169 15.142C113.695 15.142 113.231 15.0402 112.777 14.8366C112.327 14.633 111.953 14.3229 111.655 13.9062C111.361 13.4896 111.214 12.964 111.214 12.3295V1.47727ZM117.741 15V4.09091H119.418V15H117.741ZM118.594 2.27273C118.267 2.27273 117.985 2.16146 117.748 1.93892C117.516 1.71638 117.4 1.44886 117.4 1.13636C117.4 0.823864 117.516 0.556345 117.748 0.333806C117.985 0.111269 118.267 0 118.594 0C118.92 0 119.2 0.111269 119.432 0.333806C119.668 0.556345 119.787 0.823864 119.787 1.13636C119.787 1.44886 119.668 1.71638 119.432 1.93892C119.2 2.16146 118.92 2.27273 118.594 2.27273ZM131.408 4.09091L127.374 15H125.669L121.635 4.09091H123.453L126.465 12.7841H126.578L129.59 4.09091H131.408ZM136.498 15.2557C135.807 15.2557 135.18 15.1255 134.616 14.8651C134.053 14.5999 133.605 14.2188 133.274 13.7216C132.943 13.2197 132.777 12.6136 132.777 11.9034C132.777 11.2784 132.9 10.7718 133.146 10.3835C133.392 9.99053 133.721 9.68276 134.133 9.46023C134.545 9.23769 135 9.07197 135.497 8.96307C135.999 8.84943 136.503 8.75947 137.01 8.69318C137.673 8.60795 138.21 8.54403 138.622 8.50142C139.039 8.45407 139.342 8.37595 139.531 8.26705C139.725 8.15814 139.822 7.96875 139.822 7.69886V7.64205C139.822 6.94129 139.631 6.39678 139.247 6.00852C138.868 5.62027 138.293 5.42614 137.521 5.42614C136.721 5.42614 136.094 5.60133 135.639 5.9517C135.185 6.30208 134.865 6.67614 134.68 7.07386L133.089 6.50568C133.373 5.8428 133.752 5.3267 134.226 4.95739C134.704 4.58333 135.225 4.32292 135.788 4.17614C136.356 4.02462 136.915 3.94886 137.464 3.94886C137.815 3.94886 138.217 3.99148 138.672 4.0767C139.131 4.1572 139.574 4.32528 140 4.58097C140.431 4.83665 140.788 5.22254 141.072 5.73864C141.356 6.25473 141.498 6.94602 141.498 7.8125V15H139.822V13.5227H139.737C139.623 13.7595 139.434 14.0128 139.169 14.2827C138.904 14.5526 138.551 14.7822 138.111 14.9716C137.67 15.161 137.133 15.2557 136.498 15.2557ZM136.754 13.75C137.417 13.75 137.976 13.6198 138.43 13.3594C138.89 13.099 139.235 12.7628 139.467 12.3509C139.704 11.9389 139.822 11.5057 139.822 11.0511V9.51705C139.751 9.60227 139.595 9.6804 139.354 9.75142C139.117 9.81771 138.842 9.87689 138.53 9.92898C138.222 9.97633 137.921 10.0189 137.628 10.0568C137.339 10.09 137.105 10.1184 136.925 10.142C136.489 10.1989 136.082 10.2912 135.703 10.419C135.329 10.5421 135.026 10.7292 134.794 10.9801C134.567 11.2263 134.453 11.5625 134.453 11.9886C134.453 12.571 134.668 13.0114 135.099 13.3097C135.535 13.6032 136.087 13.75 136.754 13.75ZM149.302 4.09091V5.51136H143.649V4.09091H149.302ZM145.296 1.47727H146.973V11.875C146.973 12.3485 147.041 12.7036 147.179 12.9403C147.321 13.1723 147.5 13.3286 147.718 13.4091C147.941 13.4848 148.175 13.5227 148.421 13.5227C148.606 13.5227 148.758 13.5133 148.876 13.4943C148.994 13.4706 149.089 13.4517 149.16 13.4375L149.501 14.9432C149.387 14.9858 149.229 15.0284 149.025 15.071C148.822 15.1184 148.563 15.142 148.251 15.142C147.777 15.142 147.313 15.0402 146.859 14.8366C146.409 14.633 146.035 14.3229 145.737 13.9062C145.443 13.4896 145.296 12.964 145.296 12.3295V1.47727ZM156.28 15.2273C155.229 15.2273 154.322 14.9953 153.56 14.5312C152.802 14.0625 152.218 13.4091 151.806 12.571C151.398 11.7282 151.195 10.7481 151.195 9.63068C151.195 8.51326 151.398 7.52841 151.806 6.67614C152.218 5.81913 152.79 5.15152 153.524 4.6733C154.263 4.19034 155.125 3.94886 156.11 3.94886C156.678 3.94886 157.239 4.04356 157.793 4.23295C158.347 4.42235 158.851 4.73011 159.306 5.15625C159.76 5.57765 160.122 6.13636 160.392 6.83239C160.662 7.52841 160.797 8.38542 160.797 9.40341V10.1136H152.388V8.66477H159.093C159.093 8.04924 158.969 7.5 158.723 7.01705C158.482 6.53409 158.136 6.15294 157.686 5.87358C157.241 5.59422 156.716 5.45455 156.11 5.45455C155.442 5.45455 154.864 5.62026 154.377 5.9517C153.894 6.27841 153.522 6.70455 153.262 7.23011C153.001 7.75568 152.871 8.31913 152.871 8.92045V9.88636C152.871 10.7102 153.013 11.4086 153.297 11.9815C153.586 12.5497 153.986 12.983 154.497 13.2812C155.009 13.5748 155.603 13.7216 156.28 13.7216C156.72 13.7216 157.118 13.66 157.473 13.5369C157.833 13.4091 158.143 13.2197 158.404 12.9688C158.664 12.7131 158.865 12.3958 159.007 12.017L160.627 12.4716C160.456 13.0208 160.17 13.5038 159.767 13.9205C159.365 14.3324 158.868 14.6544 158.276 14.8864C157.684 15.1136 157.019 15.2273 156.28 15.2273ZM167.466 15.2273C166.557 15.2273 165.755 14.9976 165.058 14.5384C164.362 14.0743 163.818 13.4209 163.425 12.5781C163.032 11.7306 162.835 10.7292 162.835 9.57386C162.835 8.42803 163.032 7.43371 163.425 6.59091C163.818 5.74811 164.365 5.09706 165.066 4.63778C165.766 4.1785 166.576 3.94886 167.495 3.94886C168.205 3.94886 168.766 4.06723 169.178 4.30398C169.594 4.53598 169.912 4.80114 170.13 5.09943C170.352 5.39299 170.525 5.63447 170.648 5.82386H170.79V0.454545H172.466V15H170.847V13.3239H170.648C170.525 13.5227 170.35 13.7737 170.122 14.0767C169.895 14.375 169.571 14.6425 169.149 14.8793C168.728 15.1113 168.167 15.2273 167.466 15.2273ZM167.693 13.7216C168.366 13.7216 168.934 13.5464 169.398 13.196C169.862 12.8409 170.215 12.3509 170.456 11.7259C170.698 11.0961 170.818 10.3693 170.818 9.54545C170.818 8.73106 170.7 8.01847 170.463 7.40767C170.227 6.79214 169.876 6.31392 169.412 5.97301C168.948 5.62737 168.375 5.45455 167.693 5.45455C166.983 5.45455 166.391 5.63684 165.918 6.00142C165.449 6.36127 165.096 6.85133 164.86 7.47159C164.628 8.08712 164.512 8.77841 164.512 9.54545C164.512 10.322 164.63 11.0275 164.867 11.6619C165.108 12.2917 165.463 12.7936 165.932 13.1676C166.406 13.5369 166.993 13.7216 167.693 13.7216ZM183.07 0.454545V15H181.394V0.454545H183.07ZM186.14 15V4.09091H187.816V15H186.14ZM186.992 2.27273C186.665 2.27273 186.384 2.16146 186.147 1.93892C185.915 1.71638 185.799 1.44886 185.799 1.13636C185.799 0.823864 185.915 0.556345 186.147 0.333806C186.384 0.111269 186.665 0 186.992 0C187.319 0 187.598 0.111269 187.83 0.333806C188.067 0.556345 188.185 0.823864 188.185 1.13636C188.185 1.44886 188.067 1.71638 187.83 1.93892C187.598 2.16146 187.319 2.27273 186.992 2.27273ZM190.886 19.0909V4.09091H192.505V5.82386H192.704C192.827 5.63447 192.998 5.39299 193.215 5.09943C193.438 4.80114 193.755 4.53598 194.167 4.30398C194.584 4.06723 195.147 3.94886 195.857 3.94886C196.776 3.94886 197.586 4.1785 198.286 4.63778C198.987 5.09706 199.534 5.74811 199.927 6.59091C200.32 7.43371 200.517 8.42803 200.517 9.57386C200.517 10.7292 200.32 11.7306 199.927 12.5781C199.534 13.4209 198.99 14.0743 198.294 14.5384C197.598 14.9976 196.795 15.2273 195.886 15.2273C195.185 15.2273 194.624 15.1113 194.203 14.8793C193.781 14.6425 193.457 14.375 193.23 14.0767C193.002 13.7737 192.827 13.5227 192.704 13.3239H192.562V19.0909H190.886ZM192.534 9.54545C192.534 10.3693 192.654 11.0961 192.896 11.7259C193.137 12.3509 193.49 12.8409 193.954 13.196C194.418 13.5464 194.986 13.7216 195.659 13.7216C196.359 13.7216 196.944 13.5369 197.413 13.1676C197.886 12.7936 198.241 12.2917 198.478 11.6619C198.72 11.0275 198.84 10.322 198.84 9.54545C198.84 8.77841 198.722 8.08712 198.485 7.47159C198.253 6.85133 197.901 6.36127 197.427 6.00142C196.958 5.63684 196.369 5.45455 195.659 5.45455C194.977 5.45455 194.404 5.62737 193.94 5.97301C193.476 6.31392 193.125 6.79214 192.889 7.40767C192.652 8.01847 192.534 8.73106 192.534 9.54545ZM203.073 15V4.09091H204.75V15H203.073ZM203.926 2.27273C203.599 2.27273 203.317 2.16146 203.08 1.93892C202.848 1.71638 202.732 1.44886 202.732 1.13636C202.732 0.823864 202.848 0.556345 203.08 0.333806C203.317 0.111269 203.599 0 203.926 0C204.252 0 204.532 0.111269 204.764 0.333806C205 0.556345 205.119 0.823864 205.119 1.13636C205.119 1.44886 205 1.71638 204.764 1.93892C204.532 2.16146 204.252 2.27273 203.926 2.27273ZM211.939 15.2273C211.03 15.2273 210.227 14.9976 209.531 14.5384C208.835 14.0743 208.291 13.4209 207.898 12.5781C207.505 11.7306 207.308 10.7292 207.308 9.57386C207.308 8.42803 207.505 7.43371 207.898 6.59091C208.291 5.74811 208.837 5.09706 209.538 4.63778C210.239 4.1785 211.049 3.94886 211.967 3.94886C212.677 3.94886 213.239 4.06723 213.65 4.30398C214.067 4.53598 214.384 4.80114 214.602 5.09943C214.825 5.39299 214.998 5.63447 215.121 5.82386H215.263V0.454545H216.939V15H215.319V13.3239H215.121C214.998 13.5227 214.822 13.7737 214.595 14.0767C214.368 14.375 214.043 14.6425 213.622 14.8793C213.201 15.1113 212.64 15.2273 211.939 15.2273ZM212.166 13.7216C212.838 13.7216 213.407 13.5464 213.871 13.196C214.335 12.8409 214.687 12.3509 214.929 11.7259C215.17 11.0961 215.291 10.3693 215.291 9.54545C215.291 8.73106 215.173 8.01847 214.936 7.40767C214.699 6.79214 214.349 6.31392 213.885 5.97301C213.421 5.62737 212.848 5.45455 212.166 5.45455C211.456 5.45455 210.864 5.63684 210.391 6.00142C209.922 6.36127 209.569 6.85133 209.332 7.47159C209.1 8.08712 208.984 8.77841 208.984 9.54545C208.984 10.322 209.103 11.0275 209.339 11.6619C209.581 12.2917 209.936 12.7936 210.405 13.1676C210.878 13.5369 211.465 13.7216 212.166 13.7216ZM233.594 6.53409L232.088 6.96023C231.993 6.70928 231.854 6.46544 231.669 6.22869C231.489 5.98722 231.243 5.78835 230.93 5.6321C230.618 5.47585 230.218 5.39773 229.73 5.39773C229.062 5.39773 228.506 5.55161 228.061 5.85938C227.621 6.16241 227.4 6.5483 227.4 7.01705C227.4 7.43371 227.552 7.76278 227.855 8.00426C228.158 8.24574 228.632 8.44697 229.275 8.60795L230.895 9.00568C231.87 9.24242 232.597 9.60464 233.075 10.0923C233.553 10.5753 233.793 11.1979 233.793 11.9602C233.793 12.5852 233.613 13.1439 233.253 13.6364C232.898 14.1288 232.4 14.517 231.761 14.8011C231.122 15.0852 230.379 15.2273 229.531 15.2273C228.418 15.2273 227.498 14.9858 226.768 14.5028C226.039 14.0199 225.578 13.3144 225.383 12.3864L226.974 11.9886C227.126 12.5758 227.412 13.0161 227.834 13.3097C228.26 13.6032 228.816 13.75 229.503 13.75C230.284 13.75 230.904 13.5843 231.364 13.2528C231.828 12.9167 232.06 12.5142 232.06 12.0455C232.06 11.6667 231.927 11.3494 231.662 11.0938C231.397 10.8333 230.989 10.6392 230.44 10.5114L228.622 10.0852C227.623 9.84848 226.889 9.48153 226.42 8.98438C225.956 8.48248 225.724 7.85511 225.724 7.10227C225.724 6.48674 225.897 5.94223 226.243 5.46875C226.593 4.99527 227.069 4.62358 227.67 4.35369C228.276 4.08381 228.963 3.94886 229.73 3.94886C230.81 3.94886 231.657 4.18561 232.273 4.65909C232.893 5.13258 233.333 5.75758 233.594 6.53409ZM236.316 15V4.09091H237.992V15H236.316ZM237.168 2.27273C236.841 2.27273 236.559 2.16146 236.323 1.93892C236.091 1.71638 235.975 1.44886 235.975 1.13636C235.975 0.823864 236.091 0.556345 236.323 0.333806C236.559 0.111269 236.841 0 237.168 0C237.495 0 237.774 0.111269 238.006 0.333806C238.243 0.556345 238.361 0.823864 238.361 1.13636C238.361 1.44886 238.243 1.71638 238.006 1.93892C237.774 2.16146 237.495 2.27273 237.168 2.27273ZM245.465 19.3182C244.655 19.3182 243.959 19.214 243.377 19.0057C242.795 18.8021 242.309 18.5322 241.921 18.196C241.538 17.8646 241.232 17.5095 241.005 17.1307L242.34 16.1932C242.492 16.392 242.683 16.6193 242.915 16.875C243.147 17.1354 243.465 17.3603 243.867 17.5497C244.274 17.7438 244.807 17.8409 245.465 17.8409C246.346 17.8409 247.073 17.6278 247.645 17.2017C248.218 16.7756 248.505 16.108 248.505 15.1989V12.983H248.363C248.24 13.1818 248.065 13.428 247.837 13.7216C247.615 14.0104 247.293 14.2685 246.871 14.4957C246.455 14.7183 245.891 14.8295 245.181 14.8295C244.3 14.8295 243.51 14.6212 242.809 14.2045C242.113 13.7879 241.561 13.1818 241.154 12.3864C240.752 11.5909 240.55 10.625 240.55 9.48864C240.55 8.37121 240.747 7.3982 241.14 6.5696C241.533 5.73627 242.08 5.09233 242.78 4.63778C243.481 4.1785 244.291 3.94886 245.209 3.94886C245.92 3.94886 246.483 4.06723 246.9 4.30398C247.321 4.53598 247.643 4.80114 247.866 5.09943C248.093 5.39299 248.268 5.63447 248.391 5.82386H248.562V4.09091H250.181V15.3125C250.181 16.25 249.968 17.0123 249.542 17.5994C249.12 18.1913 248.552 18.6245 247.837 18.8991C247.127 19.1785 246.336 19.3182 245.465 19.3182ZM245.408 13.3239C246.081 13.3239 246.649 13.17 247.113 12.8622C247.577 12.5545 247.93 12.1117 248.171 11.5341C248.413 10.9564 248.533 10.2652 248.533 9.46023C248.533 8.67424 248.415 7.98059 248.178 7.37926C247.941 6.77794 247.591 6.30682 247.127 5.96591C246.663 5.625 246.09 5.45455 245.408 5.45455C244.698 5.45455 244.106 5.63447 243.633 5.99432C243.164 6.35417 242.811 6.83712 242.574 7.44318C242.342 8.04924 242.226 8.72159 242.226 9.46023C242.226 10.2178 242.345 10.8878 242.582 11.4702C242.823 12.0478 243.178 12.5024 243.647 12.8338C244.12 13.1605 244.708 13.3239 245.408 13.3239ZM254.925 8.4375V15H253.249V4.09091H254.868V5.79545H255.011C255.266 5.24148 255.654 4.7964 256.175 4.46023C256.696 4.11932 257.368 3.94886 258.192 3.94886C258.931 3.94886 259.577 4.10038 260.131 4.40341C260.685 4.7017 261.116 5.15625 261.424 5.76705C261.732 6.37311 261.886 7.14015 261.886 8.06818V15H260.209V8.18182C260.209 7.32481 259.987 6.6572 259.542 6.17898C259.097 5.69602 258.486 5.45455 257.709 5.45455C257.174 5.45455 256.696 5.57055 256.275 5.80256C255.858 6.03456 255.529 6.37311 255.288 6.81818C255.046 7.26326 254.925 7.80303 254.925 8.4375ZM268.159 15.2557C267.467 15.2557 266.84 15.1255 266.277 14.8651C265.713 14.5999 265.266 14.2188 264.934 13.7216C264.603 13.2197 264.437 12.6136 264.437 11.9034C264.437 11.2784 264.56 10.7718 264.806 10.3835C265.053 9.99053 265.382 9.68276 265.794 9.46023C266.205 9.23769 266.66 9.07197 267.157 8.96307C267.659 8.84943 268.163 8.75947 268.67 8.69318C269.333 8.60795 269.87 8.54403 270.282 8.50142C270.699 8.45407 271.002 8.37595 271.191 8.26705C271.385 8.15814 271.482 7.96875 271.482 7.69886V7.64205C271.482 6.94129 271.291 6.39678 270.907 6.00852C270.528 5.62027 269.953 5.42614 269.181 5.42614C268.381 5.42614 267.754 5.60133 267.299 5.9517C266.845 6.30208 266.525 6.67614 266.34 7.07386L264.75 6.50568C265.034 5.8428 265.412 5.3267 265.886 4.95739C266.364 4.58333 266.885 4.32292 267.448 4.17614C268.017 4.02462 268.575 3.94886 269.125 3.94886C269.475 3.94886 269.877 3.99148 270.332 4.0767C270.791 4.1572 271.234 4.32528 271.66 4.58097C272.091 4.83665 272.448 5.22254 272.732 5.73864C273.017 6.25473 273.159 6.94602 273.159 7.8125V15H271.482V13.5227H271.397C271.284 13.7595 271.094 14.0128 270.829 14.2827C270.564 14.5526 270.211 14.7822 269.771 14.9716C269.331 15.161 268.793 15.2557 268.159 15.2557ZM268.414 13.75C269.077 13.75 269.636 13.6198 270.09 13.3594C270.55 13.099 270.895 12.7628 271.127 12.3509C271.364 11.9389 271.482 11.5057 271.482 11.0511V9.51705C271.411 9.60227 271.255 9.6804 271.014 9.75142C270.777 9.81771 270.502 9.87689 270.19 9.92898C269.882 9.97633 269.581 10.0189 269.288 10.0568C268.999 10.09 268.765 10.1184 268.585 10.142C268.149 10.1989 267.742 10.2912 267.363 10.419C266.989 10.5421 266.686 10.7292 266.454 10.9801C266.227 11.2263 266.113 11.5625 266.113 11.9886C266.113 12.571 266.329 13.0114 266.759 13.3097C267.195 13.6032 267.747 13.75 268.414 13.75ZM277.894 0.454545V15H276.218V0.454545H277.894ZM280.964 15V4.09091H282.64V15H280.964ZM281.816 2.27273C281.49 2.27273 281.208 2.16146 280.971 1.93892C280.739 1.71638 280.623 1.44886 280.623 1.13636C280.623 0.823864 280.739 0.556345 280.971 0.333806C281.208 0.111269 281.49 0 281.816 0C282.143 0 282.422 0.111269 282.654 0.333806C282.891 0.556345 283.009 0.823864 283.009 1.13636C283.009 1.44886 282.891 1.71638 282.654 1.93892C282.422 2.16146 282.143 2.27273 281.816 2.27273ZM287.386 8.4375V15H285.71V4.09091H287.329V5.79545H287.471C287.727 5.24148 288.115 4.7964 288.636 4.46023C289.157 4.11932 289.829 3.94886 290.653 3.94886C291.392 3.94886 292.038 4.10038 292.592 4.40341C293.146 4.7017 293.577 5.15625 293.885 5.76705C294.193 6.37311 294.346 7.14015 294.346 8.06818V15H292.67V8.18182C292.67 7.32481 292.448 6.6572 292.003 6.17898C291.558 5.69602 290.947 5.45455 290.17 5.45455C289.635 5.45455 289.157 5.57055 288.736 5.80256C288.319 6.03456 287.99 6.37311 287.748 6.81818C287.507 7.26326 287.386 7.80303 287.386 8.4375ZM301.813 19.3182C301.003 19.3182 300.307 19.214 299.725 19.0057C299.142 18.8021 298.657 18.5322 298.269 18.196C297.885 17.8646 297.58 17.5095 297.353 17.1307L298.688 16.1932C298.839 16.392 299.031 16.6193 299.263 16.875C299.495 17.1354 299.812 17.3603 300.215 17.5497C300.622 17.7438 301.155 17.8409 301.813 17.8409C302.693 17.8409 303.42 17.6278 303.993 17.2017C304.566 16.7756 304.853 16.108 304.853 15.1989V12.983H304.71C304.587 13.1818 304.412 13.428 304.185 13.7216C303.962 14.0104 303.64 14.2685 303.219 14.4957C302.802 14.7183 302.239 14.8295 301.529 14.8295C300.648 14.8295 299.857 14.6212 299.156 14.2045C298.46 13.7879 297.909 13.1818 297.502 12.3864C297.099 11.5909 296.898 10.625 296.898 9.48864C296.898 8.37121 297.094 7.3982 297.487 6.5696C297.88 5.73627 298.427 5.09233 299.128 4.63778C299.829 4.1785 300.639 3.94886 301.557 3.94886C302.267 3.94886 302.831 4.06723 303.247 4.30398C303.669 4.53598 303.991 4.80114 304.213 5.09943C304.441 5.39299 304.616 5.63447 304.739 5.82386H304.909V4.09091H306.529V15.3125C306.529 16.25 306.316 17.0123 305.889 17.5994C305.468 18.1913 304.9 18.6245 304.185 18.8991C303.475 19.1785 302.684 19.3182 301.813 19.3182ZM301.756 13.3239C302.428 13.3239 302.996 13.17 303.46 12.8622C303.924 12.5545 304.277 12.1117 304.519 11.5341C304.76 10.9564 304.881 10.2652 304.881 9.46023C304.881 8.67424 304.763 7.98059 304.526 7.37926C304.289 6.77794 303.939 6.30682 303.475 5.96591C303.011 5.625 302.438 5.45455 301.756 5.45455C301.046 5.45455 300.454 5.63447 299.98 5.99432C299.512 6.35417 299.159 6.83712 298.922 7.44318C298.69 8.04924 298.574 8.72159 298.574 9.46023C298.574 10.2178 298.692 10.8878 298.929 11.4702C299.171 12.0478 299.526 12.5024 299.995 12.8338C300.468 13.1605 301.055 13.3239 301.756 13.3239ZM50.8495 39V24.4545H52.5256V29.8239H52.6677C52.7908 29.6345 52.9612 29.393 53.179 29.0994C53.4016 28.8011 53.7188 28.536 54.1307 28.304C54.5474 28.0672 55.1109 27.9489 55.8211 27.9489C56.7397 27.9489 57.5493 28.1785 58.2501 28.6378C58.9508 29.0971 59.4977 29.7481 59.8907 30.5909C60.2837 31.4337 60.4802 32.428 60.4802 33.5739C60.4802 34.7292 60.2837 35.7306 59.8907 36.5781C59.4977 37.4209 58.9532 38.0743 58.2572 38.5384C57.5611 38.9976 56.7586 39.2273 55.8495 39.2273C55.1487 39.2273 54.5877 39.1113 54.1663 38.8793C53.7449 38.6425 53.4205 38.375 53.1932 38.0767C52.966 37.7737 52.7908 37.5227 52.6677 37.3239H52.4688V39H50.8495ZM52.4972 33.5455C52.4972 34.3693 52.618 35.0961 52.8594 35.7259C53.1009 36.3509 53.4537 36.8409 53.9177 37.196C54.3817 37.5464 54.9499 37.7216 55.6222 37.7216C56.323 37.7216 56.9077 37.5369 57.3765 37.1676C57.85 36.7936 58.2051 36.2917 58.4418 35.6619C58.6833 35.0275 58.804 34.322 58.804 33.5455C58.804 32.7784 58.6857 32.0871 58.4489 31.4716C58.2169 30.8513 57.8642 30.3613 57.3907 30.0014C56.9219 29.6368 56.3325 29.4545 55.6222 29.4545C54.9404 29.4545 54.3675 29.6274 53.9035 29.973C53.4395 30.3139 53.0891 30.7921 52.8523 31.4077C52.6156 32.0185 52.4972 32.7311 52.4972 33.5455ZM67.618 39.2273C66.5668 39.2273 65.6601 38.9953 64.8978 38.5312C64.1402 38.0625 63.5555 37.4091 63.1435 36.571C62.7363 35.7282 62.5327 34.7481 62.5327 33.6307C62.5327 32.5133 62.7363 31.5284 63.1435 30.6761C63.5555 29.8191 64.1284 29.1515 64.8623 28.6733C65.6009 28.1903 66.4627 27.9489 67.4475 27.9489C68.0157 27.9489 68.5768 28.0436 69.1307 28.233C69.6847 28.4223 70.189 28.7301 70.6435 29.1562C71.0981 29.5777 71.4603 30.1364 71.7302 30.8324C72.0001 31.5284 72.135 32.3854 72.135 33.4034V34.1136H63.7259V32.6648H70.4305C70.4305 32.0492 70.3074 31.5 70.0611 31.017C69.8197 30.5341 69.474 30.1529 69.0242 29.8736C68.5791 29.5942 68.0536 29.4545 67.4475 29.4545C66.7799 29.4545 66.2022 29.6203 65.7146 29.9517C65.2316 30.2784 64.8599 30.7045 64.5995 31.2301C64.3391 31.7557 64.2089 32.3191 64.2089 32.9205V33.8864C64.2089 34.7102 64.3509 35.4086 64.635 35.9815C64.9238 36.5497 65.3239 36.983 65.8353 37.2812C66.3467 37.5748 66.9409 37.7216 67.618 37.7216C68.0583 37.7216 68.456 37.66 68.8111 37.5369C69.171 37.4091 69.4811 37.2197 69.7415 36.9688C70.002 36.7131 70.2032 36.3958 70.3452 36.017L71.9646 36.4716C71.7941 37.0208 71.5076 37.5038 71.1052 37.9205C70.7027 38.3324 70.2056 38.6544 69.6137 38.8864C69.0218 39.1136 68.3566 39.2273 67.618 39.2273ZM75.4322 43.0909C75.1481 43.0909 74.8948 43.0672 74.6723 43.0199C74.4498 42.9773 74.2959 42.9347 74.2106 42.892L74.6368 41.4148C75.044 41.5189 75.4038 41.5568 75.7163 41.5284C76.0288 41.5 76.3058 41.3603 76.5473 41.1094C76.7935 40.8632 77.0184 40.4631 77.222 39.9091L77.5345 39.0568L73.5004 28.0909H75.3186L78.33 36.7841H78.4436L81.455 28.0909H83.2731L78.6425 40.5909C78.4341 41.1544 78.1761 41.6207 77.8683 41.9901C77.5606 42.3641 77.2031 42.6411 76.7959 42.821C76.3934 43.0009 75.9389 43.0909 75.4322 43.0909ZM89.5267 39.2273C88.5419 39.2273 87.6777 38.9929 86.9344 38.5241C86.1957 38.0554 85.6181 37.3996 85.2014 36.5568C84.7895 35.714 84.5835 34.7292 84.5835 33.6023C84.5835 32.4659 84.7895 31.474 85.2014 30.6264C85.6181 29.7789 86.1957 29.1207 86.9344 28.652C87.6777 28.1832 88.5419 27.9489 89.5267 27.9489C90.5115 27.9489 91.3733 28.1832 92.1119 28.652C92.8553 29.1207 93.433 29.7789 93.8449 30.6264C94.2615 31.474 94.4699 32.4659 94.4699 33.6023C94.4699 34.7292 94.2615 35.714 93.8449 36.5568C93.433 37.3996 92.8553 38.0554 92.1119 38.5241C91.3733 38.9929 90.5115 39.2273 89.5267 39.2273ZM89.5267 37.7216C90.2748 37.7216 90.8903 37.5298 91.3733 37.1463C91.8562 36.7628 92.2137 36.2585 92.4457 35.6335C92.6777 35.0085 92.7937 34.3314 92.7937 33.6023C92.7937 32.8731 92.6777 32.1937 92.4457 31.5639C92.2137 30.9342 91.8562 30.4252 91.3733 30.0369C90.8903 29.6487 90.2748 29.4545 89.5267 29.4545C88.7786 29.4545 88.1631 29.6487 87.6801 30.0369C87.1972 30.4252 86.8397 30.9342 86.6077 31.5639C86.3757 32.1937 86.2597 32.8731 86.2597 33.6023C86.2597 34.3314 86.3757 35.0085 86.6077 35.6335C86.8397 36.2585 87.1972 36.7628 87.6801 37.1463C88.1631 37.5298 88.7786 37.7216 89.5267 37.7216ZM98.7046 32.4375V39H97.0285V28.0909H98.6478V29.7955H98.7898C99.0455 29.2415 99.4338 28.7964 99.9546 28.4602C100.475 28.1193 101.148 27.9489 101.972 27.9489C102.71 27.9489 103.357 28.1004 103.911 28.4034C104.465 28.7017 104.895 29.1562 105.203 29.767C105.511 30.3731 105.665 31.1402 105.665 32.0682V39H103.989V32.1818C103.989 31.3248 103.766 30.6572 103.321 30.179C102.876 29.696 102.265 29.4545 101.489 29.4545C100.954 29.4545 100.475 29.5705 100.054 29.8026C99.6374 30.0346 99.3083 30.3731 99.0668 30.8182C98.8254 31.2633 98.7046 31.803 98.7046 32.4375ZM112.847 39.2273C111.938 39.2273 111.135 38.9976 110.439 38.5384C109.743 38.0743 109.199 37.4209 108.806 36.5781C108.413 35.7306 108.216 34.7292 108.216 33.5739C108.216 32.428 108.413 31.4337 108.806 30.5909C109.199 29.7481 109.746 29.0971 110.446 28.6378C111.147 28.1785 111.957 27.9489 112.875 27.9489C113.586 27.9489 114.147 28.0672 114.559 28.304C114.975 28.536 115.293 28.8011 115.51 29.0994C115.733 29.393 115.906 29.6345 116.029 29.8239H116.171V24.4545H117.847V39H116.228V37.3239H116.029C115.906 37.5227 115.731 37.7737 115.503 38.0767C115.276 38.375 114.952 38.6425 114.53 38.8793C114.109 39.1113 113.548 39.2273 112.847 39.2273ZM113.074 37.7216C113.747 37.7216 114.315 37.5464 114.779 37.196C115.243 36.8409 115.596 36.3509 115.837 35.7259C116.079 35.0961 116.199 34.3693 116.199 33.5455C116.199 32.7311 116.081 32.0185 115.844 31.4077C115.607 30.7921 115.257 30.3139 114.793 29.973C114.329 29.6274 113.756 29.4545 113.074 29.4545C112.364 29.4545 111.772 29.6368 111.299 30.0014C110.83 30.3613 110.477 30.8513 110.24 31.4716C110.008 32.0871 109.892 32.7784 109.892 33.5455C109.892 34.322 110.011 35.0275 110.248 35.6619C110.489 36.2917 110.844 36.7936 111.313 37.1676C111.786 37.5369 112.374 37.7216 113.074 37.7216ZM131.519 28.0909V29.5114H125.865V28.0909H131.519ZM127.513 25.4773H129.189V35.875C129.189 36.3485 129.258 36.7036 129.395 36.9403C129.537 37.1723 129.717 37.3286 129.935 37.4091C130.158 37.4848 130.392 37.5227 130.638 37.5227C130.823 37.5227 130.974 37.5133 131.093 37.4943C131.211 37.4706 131.306 37.4517 131.377 37.4375L131.718 38.9432C131.604 38.9858 131.445 39.0284 131.242 39.071C131.038 39.1184 130.78 39.142 130.468 39.142C129.994 39.142 129.53 39.0402 129.076 38.8366C128.626 38.633 128.252 38.3229 127.954 37.9062C127.66 37.4896 127.513 36.964 127.513 36.3295V25.4773ZM135.951 32.4375V39H134.275V24.4545H135.951V29.7955H136.093C136.348 29.232 136.732 28.7846 137.243 28.4531C137.759 28.117 138.446 27.9489 139.303 27.9489C140.046 27.9489 140.697 28.098 141.256 28.3963C141.815 28.6899 142.248 29.142 142.556 29.7528C142.868 30.3589 143.025 31.1307 143.025 32.0682V39H141.348V32.1818C141.348 31.3153 141.124 30.6454 140.674 30.1719C140.229 29.6937 139.611 29.4545 138.82 29.4545C138.271 29.4545 137.778 29.5705 137.343 29.8026C136.912 30.0346 136.571 30.3731 136.32 30.8182C136.074 31.2633 135.951 31.803 135.951 32.4375ZM150.665 39.2273C149.614 39.2273 148.707 38.9953 147.945 38.5312C147.187 38.0625 146.602 37.4091 146.19 36.571C145.783 35.7282 145.58 34.7481 145.58 33.6307C145.58 32.5133 145.783 31.5284 146.19 30.6761C146.602 29.8191 147.175 29.1515 147.909 28.6733C148.648 28.1903 149.51 27.9489 150.494 27.9489C151.063 27.9489 151.624 28.0436 152.178 28.233C152.732 28.4223 153.236 28.7301 153.69 29.1562C154.145 29.5777 154.507 30.1364 154.777 30.8324C155.047 31.5284 155.182 32.3854 155.182 33.4034V34.1136H146.773V32.6648H153.477C153.477 32.0492 153.354 31.5 153.108 31.017C152.867 30.5341 152.521 30.1529 152.071 29.8736C151.626 29.5942 151.1 29.4545 150.494 29.4545C149.827 29.4545 149.249 29.6203 148.761 29.9517C148.278 30.2784 147.907 30.7045 147.646 31.2301C147.386 31.7557 147.256 32.3191 147.256 32.9205V33.8864C147.256 34.7102 147.398 35.4086 147.682 35.9815C147.971 36.5497 148.371 36.983 148.882 37.2812C149.394 37.5748 149.988 37.7216 150.665 37.7216C151.105 37.7216 151.503 37.66 151.858 37.5369C152.218 37.4091 152.528 37.2197 152.788 36.9688C153.049 36.7131 153.25 36.3958 153.392 36.017L155.011 36.4716C154.841 37.0208 154.555 37.5038 154.152 37.9205C153.75 38.3324 153.252 38.6544 152.661 38.8864C152.069 39.1136 151.403 39.2273 150.665 39.2273ZM163.357 43.0909V28.0909H164.976V29.8239H165.175C165.298 29.6345 165.468 29.393 165.686 29.0994C165.909 28.8011 166.226 28.536 166.638 28.304C167.055 28.0672 167.618 27.9489 168.328 27.9489C169.247 27.9489 170.056 28.1785 170.757 28.6378C171.458 29.0971 172.005 29.7481 172.398 30.5909C172.791 31.4337 172.987 32.428 172.987 33.5739C172.987 34.7292 172.791 35.7306 172.398 36.5781C172.005 37.4209 171.46 38.0743 170.764 38.5384C170.068 38.9976 169.266 39.2273 168.357 39.2273C167.656 39.2273 167.095 39.1113 166.673 38.8793C166.252 38.6425 165.928 38.375 165.7 38.0767C165.473 37.7737 165.298 37.5227 165.175 37.3239H165.033V43.0909H163.357ZM165.004 33.5455C165.004 34.3693 165.125 35.0961 165.367 35.7259C165.608 36.3509 165.961 36.8409 166.425 37.196C166.889 37.5464 167.457 37.7216 168.129 37.7216C168.83 37.7216 169.415 37.5369 169.884 37.1676C170.357 36.7936 170.712 36.2917 170.949 35.6619C171.19 35.0275 171.311 34.322 171.311 33.5455C171.311 32.7784 171.193 32.0871 170.956 31.4716C170.724 30.8513 170.371 30.3613 169.898 30.0014C169.429 29.6368 168.84 29.4545 168.129 29.4545C167.448 29.4545 166.875 29.6274 166.411 29.973C165.947 30.3139 165.596 30.7921 165.359 31.4077C165.123 32.0185 165.004 32.7311 165.004 33.5455ZM180.118 39.2273C179.067 39.2273 178.16 38.9953 177.398 38.5312C176.64 38.0625 176.055 37.4091 175.644 36.571C175.236 35.7282 175.033 34.7481 175.033 33.6307C175.033 32.5133 175.236 31.5284 175.644 30.6761C176.055 29.8191 176.628 29.1515 177.362 28.6733C178.101 28.1903 178.963 27.9489 179.948 27.9489C180.516 27.9489 181.077 28.0436 181.631 28.233C182.185 28.4223 182.689 28.7301 183.144 29.1562C183.598 29.5777 183.96 30.1364 184.23 30.8324C184.5 31.5284 184.635 32.3854 184.635 33.4034V34.1136H176.226V32.6648H182.93C182.93 32.0492 182.807 31.5 182.561 31.017C182.32 30.5341 181.974 30.1529 181.524 29.8736C181.079 29.5942 180.554 29.4545 179.948 29.4545C179.28 29.4545 178.702 29.6203 178.215 29.9517C177.732 30.2784 177.36 30.7045 177.099 31.2301C176.839 31.7557 176.709 32.3191 176.709 32.9205V33.8864C176.709 34.7102 176.851 35.4086 177.135 35.9815C177.424 36.5497 177.824 36.983 178.335 37.2812C178.847 37.5748 179.441 37.7216 180.118 37.7216C180.558 37.7216 180.956 37.66 181.311 37.5369C181.671 37.4091 181.981 37.2197 182.242 36.9688C182.502 36.7131 182.703 36.3958 182.845 36.017L184.465 36.4716C184.294 37.0208 184.008 37.5038 183.605 37.9205C183.203 38.3324 182.706 38.6544 182.114 38.8864C181.522 39.1136 180.857 39.2273 180.118 39.2273ZM187.185 39V28.0909H188.804V29.7386H188.918C189.117 29.1989 189.476 28.7609 189.997 28.4247C190.518 28.0885 191.105 27.9205 191.759 27.9205C191.882 27.9205 192.036 27.9228 192.22 27.9276C192.405 27.9323 192.545 27.9394 192.639 27.9489V29.6534C192.582 29.6392 192.452 29.6179 192.249 29.5895C192.05 29.5563 191.839 29.5398 191.617 29.5398C191.086 29.5398 190.613 29.651 190.196 29.8736C189.784 30.0914 189.457 30.3944 189.216 30.7827C188.979 31.1662 188.861 31.6042 188.861 32.0966V39H187.185ZM194.626 39V28.0909H196.302V39H194.626ZM195.478 26.2727C195.152 26.2727 194.87 26.1615 194.633 25.9389C194.401 25.7164 194.285 25.4489 194.285 25.1364C194.285 24.8239 194.401 24.5563 194.633 24.3338C194.87 24.1113 195.152 24 195.478 24C195.805 24 196.084 24.1113 196.316 24.3338C196.553 24.5563 196.672 24.8239 196.672 25.1364C196.672 25.4489 196.553 25.7164 196.316 25.9389C196.084 26.1615 195.805 26.2727 195.478 26.2727ZM199.372 43.0909V28.0909H200.992V29.8239H201.19C201.314 29.6345 201.484 29.393 201.702 29.0994C201.924 28.8011 202.242 28.536 202.653 28.304C203.07 28.0672 203.634 27.9489 204.344 27.9489C205.262 27.9489 206.072 28.1785 206.773 28.6378C207.474 29.0971 208.02 29.7481 208.413 30.5909C208.806 31.4337 209.003 32.428 209.003 33.5739C209.003 34.7292 208.806 35.7306 208.413 36.5781C208.02 37.4209 207.476 38.0743 206.78 38.5384C206.084 38.9976 205.281 39.2273 204.372 39.2273C203.671 39.2273 203.11 39.1113 202.689 38.8793C202.268 38.6425 201.943 38.375 201.716 38.0767C201.489 37.7737 201.314 37.5227 201.19 37.3239H201.048V43.0909H199.372ZM201.02 33.5455C201.02 34.3693 201.141 35.0961 201.382 35.7259C201.624 36.3509 201.976 36.8409 202.44 37.196C202.904 37.5464 203.473 37.7216 204.145 37.7216C204.846 37.7216 205.43 37.5369 205.899 37.1676C206.373 36.7936 206.728 36.2917 206.965 35.6619C207.206 35.0275 207.327 34.322 207.327 33.5455C207.327 32.7784 207.208 32.0871 206.972 31.4716C206.74 30.8513 206.387 30.3613 205.913 30.0014C205.445 29.6368 204.855 29.4545 204.145 29.4545C203.463 29.4545 202.89 29.6274 202.426 29.973C201.962 30.3139 201.612 30.7921 201.375 31.4077C201.138 32.0185 201.02 32.7311 201.02 33.5455ZM213.236 32.4375V39H211.56V24.4545H213.236V29.7955H213.378C213.634 29.232 214.017 28.7846 214.528 28.4531C215.045 28.117 215.731 27.9489 216.588 27.9489C217.332 27.9489 217.983 28.098 218.541 28.3963C219.1 28.6899 219.533 29.142 219.841 29.7528C220.153 30.3589 220.31 31.1307 220.31 32.0682V39H218.634V32.1818C218.634 31.3153 218.409 30.6454 217.959 30.1719C217.514 29.6937 216.896 29.4545 216.105 29.4545C215.556 29.4545 215.064 29.5705 214.628 29.8026C214.197 30.0346 213.856 30.3731 213.605 30.8182C213.359 31.2633 213.236 31.803 213.236 32.4375ZM227.95 39.2273C226.899 39.2273 225.992 38.9953 225.23 38.5312C224.472 38.0625 223.887 37.4091 223.476 36.571C223.068 35.7282 222.865 34.7481 222.865 33.6307C222.865 32.5133 223.068 31.5284 223.476 30.6761C223.887 29.8191 224.46 29.1515 225.194 28.6733C225.933 28.1903 226.795 27.9489 227.78 27.9489C228.348 27.9489 228.909 28.0436 229.463 28.233C230.017 28.4223 230.521 28.7301 230.976 29.1562C231.43 29.5777 231.792 30.1364 232.062 30.8324C232.332 31.5284 232.467 32.3854 232.467 33.4034V34.1136H224.058V32.6648H230.762C230.762 32.0492 230.639 31.5 230.393 31.017C230.152 30.5341 229.806 30.1529 229.356 29.8736C228.911 29.5942 228.386 29.4545 227.78 29.4545C227.112 29.4545 226.534 29.6203 226.047 29.9517C225.564 30.2784 225.192 30.7045 224.932 31.2301C224.671 31.7557 224.541 32.3191 224.541 32.9205V33.8864C224.541 34.7102 224.683 35.4086 224.967 35.9815C225.256 36.5497 225.656 36.983 226.167 37.2812C226.679 37.5748 227.273 37.7216 227.95 37.7216C228.39 37.7216 228.788 37.66 229.143 37.5369C229.503 37.4091 229.813 37.2197 230.074 36.9688C230.334 36.7131 230.535 36.3958 230.677 36.017L232.297 36.4716C232.126 37.0208 231.84 37.5038 231.437 37.9205C231.035 38.3324 230.538 38.6544 229.946 38.8864C229.354 39.1136 228.689 39.2273 227.95 39.2273ZM235.017 39V28.0909H236.636V29.7386H236.75C236.949 29.1989 237.308 28.7609 237.829 28.4247C238.35 28.0885 238.937 27.9205 239.591 27.9205C239.714 27.9205 239.868 27.9228 240.052 27.9276C240.237 27.9323 240.377 27.9394 240.471 27.9489V29.6534C240.414 29.6392 240.284 29.6179 240.081 29.5895C239.882 29.5563 239.671 29.5398 239.449 29.5398C238.918 29.5398 238.445 29.651 238.028 29.8736C237.616 30.0914 237.289 30.3944 237.048 30.7827C236.811 31.1662 236.693 31.6042 236.693 32.0966V39H235.017ZM243.87 43.0909C243.586 43.0909 243.332 43.0672 243.11 43.0199C242.887 42.9773 242.733 42.9347 242.648 42.892L243.074 41.4148C243.481 41.5189 243.841 41.5568 244.154 41.5284C244.466 41.5 244.743 41.3603 244.985 41.1094C245.231 40.8632 245.456 40.4631 245.66 39.9091L245.972 39.0568L241.938 28.0909H243.756L246.767 36.7841H246.881L249.892 28.0909H251.711L247.08 40.5909C246.872 41.1544 246.614 41.6207 246.306 41.9901C245.998 42.3641 245.641 42.6411 245.233 42.821C244.831 43.0009 244.376 43.0909 243.87 43.0909ZM254.461 39.1136C254.111 39.1136 253.81 38.9882 253.559 38.7372C253.308 38.4863 253.183 38.1856 253.183 37.8352C253.183 37.4848 253.308 37.1842 253.559 36.9332C253.81 36.6823 254.111 36.5568 254.461 36.5568C254.811 36.5568 255.112 36.6823 255.363 36.9332C255.614 37.1842 255.739 37.4848 255.739 37.8352C255.739 38.0672 255.68 38.2803 255.562 38.4744C255.448 38.6686 255.294 38.8248 255.1 38.9432C254.911 39.0568 254.698 39.1136 254.461 39.1136Z" fill="#DADADA"/>
</svg>
