<svg width="118" height="15" viewBox="0 0 118 15" fill="none" xmlns="http://www.w3.org/2000/svg">
<path d="M1.12057e-05 14.7444V0.19893H8.77842V1.76143H1.76137V6.6762H8.32387V8.2387H1.76137V13.1819H8.89206V14.7444H1.12057e-05ZM12.8054 0.19893L16.5554 6.25007H16.669L20.419 0.19893H22.4929L17.919 7.47166L22.4929 14.7444H20.419L16.669 8.80688H16.5554L12.8054 14.7444H10.7315L15.419 7.47166L10.7315 0.19893H12.8054ZM24.7852 14.7444V0.19893H29.6999C30.841 0.19893 31.7738 0.404896 32.4982 0.816827C33.2274 1.22402 33.7672 1.77563 34.1176 2.47166C34.4679 3.16768 34.6431 3.94419 34.6431 4.8012C34.6431 5.65821 34.4679 6.43709 34.1176 7.13785C33.7719 7.83861 33.2369 8.39732 32.5124 8.81399C31.788 9.22592 30.86 9.43188 29.7283 9.43188H26.2056V7.86938H29.6715C30.4528 7.86938 31.0801 7.73444 31.5536 7.46455C32.0271 7.19467 32.3704 6.83009 32.5835 6.3708C32.8013 5.90679 32.9102 5.38359 32.9102 4.8012C32.9102 4.21882 32.8013 3.69798 32.5835 3.2387C32.3704 2.77942 32.0248 2.41957 31.5465 2.15916C31.0683 1.89401 30.4338 1.76143 29.6431 1.76143H26.5465V14.7444H24.7852ZM37.4805 14.7444V0.19893H46.2589V1.76143H39.2418V6.6762H45.8043V8.2387H39.2418V13.1819H46.3725V14.7444H37.4805ZM49.4336 14.7444V0.19893H54.3484C55.4847 0.19893 56.4175 0.393059 57.1467 0.781316C57.8758 1.16484 58.4156 1.69277 58.766 2.36512C59.1164 3.03747 59.2916 3.80215 59.2916 4.65916C59.2916 5.51616 59.1164 6.27611 58.766 6.93899C58.4156 7.60187 57.8782 8.1227 57.1538 8.50149C56.4293 8.87554 55.5037 9.06257 54.3768 9.06257H50.3995V7.47166H54.32C55.0965 7.47166 55.7215 7.35802 56.195 7.13075C56.6732 6.90348 57.0188 6.58151 57.2319 6.16484C57.4497 5.74344 57.5586 5.24154 57.5586 4.65916C57.5586 4.07677 57.4497 3.56777 57.2319 3.13217C57.0141 2.69656 56.6661 2.36039 56.1879 2.12365C55.7096 1.88217 55.0775 1.76143 54.2916 1.76143H51.195V14.7444H49.4336ZM56.2802 8.21029L59.8597 14.7444H57.8143L54.2916 8.21029H56.2802ZM63.9879 0.19893V14.7444H62.2266V0.19893H63.9879ZM67.5195 14.7444V0.19893H76.298V1.76143H69.2809V6.6762H75.8434V8.2387H69.2809V13.1819H76.4116V14.7444H67.5195ZM91.0068 0.19893V14.7444H89.3022L81.3761 3.32393H81.234V14.7444H79.4727V0.19893H81.1772L89.1318 11.6478H89.2738V0.19893H91.0068ZM106.236 4.74438H104.474C104.37 4.23776 104.188 3.79268 103.928 3.40916C103.672 3.02563 103.359 2.70367 102.99 2.44325C102.625 2.1781 102.221 1.97923 101.776 1.84666C101.331 1.71408 100.866 1.64779 100.384 1.64779C99.5029 1.64779 98.705 1.87033 97.9901 2.31541C97.2798 2.76048 96.714 3.41626 96.2926 4.28274C95.876 5.14921 95.6676 6.21219 95.6676 7.47166C95.6676 8.73113 95.876 9.7941 96.2926 10.6606C96.714 11.5271 97.2798 12.1828 97.9901 12.6279C98.705 13.073 99.5029 13.2955 100.384 13.2955C100.866 13.2955 101.331 13.2292 101.776 13.0967C102.221 12.9641 102.625 12.7676 102.99 12.5072C103.359 12.242 103.672 11.9177 103.928 11.5342C104.188 11.1459 104.37 10.7008 104.474 10.1989H106.236C106.103 10.9423 105.862 11.6075 105.511 12.1947C105.161 12.7818 104.725 13.2813 104.205 13.6932C103.684 14.1004 103.099 14.4106 102.45 14.6236C101.806 14.8367 101.117 14.9432 100.384 14.9432C99.143 14.9432 98.0398 14.6402 97.0739 14.0342C96.108 13.4281 95.348 12.5664 94.794 11.4489C94.2401 10.3315 93.9631 9.00575 93.9631 7.47166C93.9631 5.93757 94.2401 4.61181 94.794 3.49438C95.348 2.37696 96.108 1.51522 97.0739 0.909157C98.0398 0.303096 99.143 6.60419e-05 100.384 6.60419e-05C101.117 6.60419e-05 101.806 0.1066 102.45 0.319669C103.099 0.532737 103.684 0.845237 104.205 1.25717C104.725 1.66437 105.161 2.16152 105.511 2.74865C105.862 3.33103 106.103 3.99628 106.236 4.74438ZM109.082 14.7444V0.19893H117.86V1.76143H110.843V6.6762H117.406V8.2387H110.843V13.1819H117.974V14.7444H109.082Z" fill="#5E7CF2"/>
</svg>
