<svg width="1108" height="328" viewBox="0 0 1108 328" fill="none" xmlns="http://www.w3.org/2000/svg">
<path opacity="0.02" d="M72.7031 145.455V4.00543e-05H112.192V56.8182H164.464V4.00543e-05H203.953V145.455H164.464V88.6364H112.192V145.455H72.7031ZM310.783 4.00543e-05H350.271V93.1819C350.271 104.261 347.62 113.849 342.317 121.946C337.061 129.995 329.722 136.222 320.3 140.625C310.877 144.981 299.94 147.159 287.487 147.159C274.94 147.159 263.955 144.981 254.533 140.625C245.11 136.222 237.771 129.995 232.516 121.946C227.307 113.849 224.703 104.261 224.703 93.1819V4.00543e-05H264.192V89.7728C264.192 94.2709 265.186 98.2955 267.175 101.847C269.163 105.35 271.91 108.097 275.413 110.085C278.964 112.074 282.989 113.068 287.487 113.068C292.033 113.068 296.057 112.074 299.561 110.085C303.065 108.097 305.811 105.35 307.8 101.847C309.788 98.2955 310.783 94.2709 310.783 89.7728V4.00543e-05ZM371.039 4.00543e-05H420.187L453.994 82.3864H455.698L489.505 4.00543e-05H538.653V145.455H500.016V61.3637H498.88L466.494 144.318H443.198L410.812 60.7955H409.675V145.455H371.039V4.00543e-05ZM559.367 4.00543e-05H608.515L642.322 82.3864H644.026L677.833 4.00543e-05H726.981V145.455H688.344V61.3637H687.208L654.822 144.318H631.526L599.14 60.7955H598.004V145.455H559.367V4.00543e-05ZM785.479 145.455H742.866L790.877 4.00543e-05H844.854L892.866 145.455H850.252L818.434 40.0569H817.298L785.479 145.455ZM777.525 88.0682H857.638V117.614H777.525V88.0682ZM1034.73 4.00543e-05V145.455H1001.77L949.216 69.0341H948.364V145.455H908.875V4.00543e-05H942.398L994.102 76.1364H995.239V4.00543e-05H1034.73ZM0 325.455V180H62.7841C73.5795 180 83.0256 181.965 91.1222 185.895C99.2188 189.825 105.516 195.483 110.014 202.869C114.512 210.256 116.761 219.11 116.761 229.432C116.761 239.849 114.441 248.632 109.801 255.781C105.208 262.931 98.7453 268.329 90.4119 271.974C82.1259 275.62 72.4432 277.443 61.3636 277.443H23.8636V246.761H53.4091C58.0492 246.761 62.0028 246.193 65.2699 245.057C68.5843 243.873 71.1174 242.003 72.8693 239.446C74.6686 236.889 75.5682 233.551 75.5682 229.432C75.5682 225.265 74.6686 221.88 72.8693 219.276C71.1174 216.624 68.5843 214.683 65.2699 213.452C62.0028 212.173 58.0492 211.534 53.4091 211.534H39.4886V325.455H0ZM85.2273 258.693L121.591 325.455H78.6932L43.1818 258.693H85.2273ZM135.594 325.455V180H240.423V211.818H175.082V236.818H235.026V268.636H175.082V293.636H240.139V325.455H135.594ZM340.417 225.455C340.038 220.72 338.263 217.027 335.09 214.375C331.965 211.724 327.207 210.398 320.815 210.398C316.743 210.398 313.405 210.895 310.8 211.889C308.244 212.836 306.35 214.138 305.119 215.795C303.888 217.453 303.248 219.347 303.201 221.477C303.106 223.229 303.414 224.815 304.124 226.236C304.882 227.609 306.066 228.864 307.675 230C309.285 231.089 311.345 232.083 313.854 232.983C316.364 233.883 319.347 234.688 322.803 235.398L334.735 237.955C342.784 239.659 349.674 241.908 355.403 244.702C361.132 247.495 365.819 250.786 369.465 254.574C373.111 258.314 375.786 262.528 377.491 267.216C379.243 271.903 380.142 277.017 380.19 282.557C380.142 292.121 377.751 300.218 373.016 306.847C368.281 313.475 361.511 318.518 352.704 321.974C343.944 325.431 333.409 327.159 321.099 327.159C308.457 327.159 297.424 325.289 288.002 321.548C278.627 317.808 271.335 312.055 266.127 304.29C260.966 296.477 258.362 286.487 258.315 274.318H295.815C296.051 278.769 297.164 282.51 299.153 285.54C301.141 288.57 303.935 290.867 307.533 292.429C311.179 293.992 315.512 294.773 320.531 294.773C324.745 294.773 328.272 294.252 331.113 293.21C333.954 292.169 336.108 290.724 337.576 288.878C339.044 287.031 339.801 284.924 339.849 282.557C339.801 280.331 339.067 278.39 337.647 276.733C336.274 275.028 334.001 273.513 330.829 272.188C327.656 270.814 323.371 269.536 317.974 268.352L303.485 265.227C290.606 262.434 280.45 257.77 273.016 251.236C265.63 244.654 261.96 235.682 262.008 224.318C261.96 215.085 264.423 207.012 269.394 200.099C274.413 193.139 281.35 187.718 290.204 183.835C299.105 179.953 309.309 178.011 320.815 178.011C332.557 178.011 342.713 179.976 351.283 183.906C359.853 187.836 366.459 193.376 371.099 200.526C375.786 207.628 378.154 215.938 378.201 225.455H340.417ZM397.211 325.455V180H502.04V211.818H436.7V236.818H496.643V268.636H436.7V293.636H501.756V325.455H397.211ZM561.409 325.455H518.795L566.807 180H620.784L668.795 325.455H626.182L594.364 220.057H593.227L561.409 325.455ZM553.455 268.068H633.568V297.614H553.455V268.068ZM684.805 325.455V180H747.589C758.384 180 767.83 181.965 775.927 185.895C784.023 189.825 790.321 195.483 794.819 202.869C799.317 210.256 801.566 219.11 801.566 229.432C801.566 239.849 799.246 248.632 794.606 255.781C790.013 262.931 783.55 268.329 775.217 271.974C766.931 275.62 757.248 277.443 746.168 277.443H708.668V246.761H738.214C742.854 246.761 746.808 246.193 750.075 245.057C753.389 243.873 755.922 242.003 757.674 239.446C759.473 236.889 760.373 233.551 760.373 229.432C760.373 225.265 759.473 221.88 757.674 219.276C755.922 216.624 753.389 214.683 750.075 213.452C746.808 212.173 742.854 211.534 738.214 211.534H724.293V325.455H684.805ZM770.032 258.693L806.396 325.455H763.498L727.987 258.693H770.032ZM956.194 234.545H916.137C915.853 231.231 915.095 228.224 913.864 225.526C912.681 222.827 911.023 220.507 908.893 218.565C906.809 216.577 904.276 215.062 901.293 214.02C898.31 212.931 894.925 212.386 891.137 212.386C884.508 212.386 878.897 213.996 874.305 217.216C869.759 220.436 866.303 225.052 863.935 231.065C861.615 237.079 860.455 244.299 860.455 252.727C860.455 261.629 861.639 269.086 864.006 275.099C866.421 281.065 869.901 285.563 874.447 288.594C878.992 291.577 884.461 293.068 890.853 293.068C894.499 293.068 897.766 292.618 900.654 291.719C903.542 290.772 906.052 289.422 908.183 287.67C910.313 285.919 912.041 283.812 913.367 281.349C914.74 278.84 915.664 276.023 916.137 272.898L956.194 273.182C955.72 279.337 953.992 285.611 951.009 292.003C948.026 298.348 943.789 304.219 938.296 309.617C932.851 314.967 926.104 319.276 918.055 322.543C910.005 325.81 900.654 327.443 890.001 327.443C876.648 327.443 864.669 324.579 854.063 318.849C843.504 313.12 835.147 304.692 828.992 293.565C822.884 282.438 819.83 268.826 819.83 252.727C819.83 236.534 822.955 222.898 829.205 211.818C835.455 200.691 843.883 192.287 854.489 186.605C865.095 180.876 876.933 178.011 890.001 178.011C899.186 178.011 907.638 179.266 915.356 181.776C923.074 184.285 929.844 187.955 935.668 192.784C941.492 197.566 946.18 203.461 949.731 210.469C953.282 217.476 955.436 225.502 956.194 234.545ZM976.109 325.455V180H1015.6V236.818H1067.87V180H1107.36V325.455H1067.87V268.636H1015.6V325.455H976.109Z" fill="#E8E8E8"/>
</svg>
