<svg width="309" height="44" viewBox="0 0 309 44" fill="none" xmlns="http://www.w3.org/2000/svg">
<path d="M1.76137 0.681596V15.2271H1.12057e-05V0.681596H1.76137ZM9.18503 15.4543C8.27593 15.4543 7.47338 15.2247 6.77735 14.7654C6.08133 14.3014 5.53682 13.648 5.14383 12.8052C4.75084 11.9576 4.55434 10.9562 4.55434 9.80091C4.55434 8.65508 4.75084 7.66076 5.14383 6.81796C5.53682 5.97516 6.0837 5.32411 6.78446 4.86483C7.48521 4.40555 8.29487 4.17591 9.21343 4.17591C9.92366 4.17591 10.4847 4.29429 10.8967 4.53103C11.3133 4.76304 11.6306 5.02819 11.8484 5.32648C12.0709 5.62004 12.2437 5.86152 12.3668 6.05091H12.5089V0.681596H14.185V15.2271H12.5657V13.5509H12.3668C12.2437 13.7498 12.0685 14.0007 11.8413 14.3038C11.614 14.6021 11.2897 14.8696 10.8683 15.1063C10.4469 15.3383 9.88578 15.4543 9.18503 15.4543ZM9.4123 13.9486C10.0846 13.9486 10.6528 13.7735 11.1168 13.4231C11.5809 13.068 11.9336 12.5779 12.1751 11.9529C12.4166 11.3232 12.5373 10.5964 12.5373 9.77251C12.5373 8.95811 12.4189 8.24552 12.1822 7.63472C11.9454 7.01919 11.5951 6.54097 11.131 6.20006C10.667 5.85442 10.0941 5.6816 9.4123 5.6816C8.70207 5.6816 8.11021 5.86389 7.63673 6.22847C7.16798 6.58832 6.81523 7.07838 6.57849 7.69864C6.34648 8.31417 6.23048 9.00546 6.23048 9.77251C6.23048 10.549 6.34885 11.2545 6.58559 11.889C6.82707 12.5187 7.18218 13.0206 7.65093 13.3947C8.12442 13.764 8.71154 13.9486 9.4123 13.9486ZM22.0614 15.4543C21.0103 15.4543 20.1036 15.2223 19.3413 14.7583C18.5837 14.2896 17.9989 13.6361 17.587 12.7981C17.1798 11.9553 16.9762 10.9752 16.9762 9.85773C16.9762 8.74031 17.1798 7.75546 17.587 6.90319C17.9989 6.04618 18.5719 5.37857 19.3058 4.90035C20.0444 4.41739 20.9061 4.17591 21.891 4.17591C22.4592 4.17591 23.0203 4.27061 23.5742 4.46C24.1282 4.6494 24.6325 4.95716 25.087 5.3833C25.5416 5.8047 25.9038 6.36341 26.1737 7.05944C26.4435 7.75546 26.5785 8.61247 26.5785 9.63046V10.3407H18.1694V8.89182H24.8739C24.8739 8.27629 24.7508 7.72705 24.5046 7.2441C24.2632 6.76114 23.9175 6.37999 23.4677 6.10063C23.0226 5.82127 22.4971 5.6816 21.891 5.6816C21.2234 5.6816 20.6457 5.84732 20.158 6.17876C19.6751 6.50546 19.3034 6.9316 19.043 7.45716C18.7826 7.98273 18.6524 8.54618 18.6524 9.14751V10.1134C18.6524 10.9373 18.7944 11.6357 19.0785 12.2086C19.3673 12.7768 19.7674 13.21 20.2788 13.5083C20.7901 13.8019 21.3844 13.9486 22.0614 13.9486C22.5018 13.9486 22.8995 13.8871 23.2546 13.764C23.6145 13.6361 23.9246 13.4467 24.185 13.1958C24.4454 12.9401 24.6467 12.6229 24.7887 12.2441L26.408 12.6986C26.2376 13.2479 25.9511 13.7308 25.5487 14.1475C25.1462 14.5594 24.649 14.8814 24.0572 15.1134C23.4653 15.3407 22.8001 15.4543 22.0614 15.4543ZM30.8043 8.66455V15.2271H29.1282V4.31796H30.7475V6.02251H30.8896C31.1453 5.46853 31.5335 5.02345 32.0543 4.68728C32.5752 4.34637 33.2475 4.17591 34.0714 4.17591C34.81 4.17591 35.4563 4.32743 36.0103 4.63046C36.5643 4.92876 36.9952 5.3833 37.3029 5.9941C37.6107 6.60016 37.7646 7.3672 37.7646 8.29523V15.2271H36.0884V8.40887C36.0884 7.55186 35.8659 6.88425 35.4208 6.40603C34.9757 5.92307 34.3649 5.6816 33.5884 5.6816C33.0534 5.6816 32.5752 5.7976 32.1538 6.02961C31.7371 6.26161 31.408 6.60016 31.1666 7.04523C30.9251 7.49031 30.8043 8.03008 30.8043 8.66455ZM45.5717 4.31796V5.73841H39.9183V4.31796H45.5717ZM41.5661 1.70432H43.2422V12.1021C43.2422 12.5755 43.3109 12.9306 43.4482 13.1674C43.5902 13.3994 43.7701 13.5556 43.9879 13.6361C44.2105 13.7119 44.4449 13.7498 44.6911 13.7498C44.8757 13.7498 45.0272 13.7403 45.1456 13.7214C45.264 13.6977 45.3587 13.6788 45.4297 13.6646L45.7706 15.1702C45.657 15.2128 45.4984 15.2555 45.2948 15.2981C45.0912 15.3454 44.8331 15.3691 44.5206 15.3691C44.0471 15.3691 43.5831 15.2673 43.1286 15.0637C42.6788 14.8601 42.3047 14.55 42.0064 14.1333C41.7128 13.7166 41.5661 13.1911 41.5661 12.5566V1.70432ZM48.0931 15.2271V4.31796H49.7692V15.2271H48.0931ZM48.9453 2.49978C48.6186 2.49978 48.3369 2.38851 48.1002 2.16597C47.8681 1.94343 47.7521 1.67591 47.7521 1.36341C47.7521 1.05091 47.8681 0.783395 48.1002 0.560857C48.3369 0.33832 48.6186 0.227051 48.9453 0.227051C49.272 0.227051 49.5514 0.33832 49.7834 0.560857C50.0201 0.783395 50.1385 1.05091 50.1385 1.36341C50.1385 1.67591 50.0201 1.94343 49.7834 2.16597C49.5514 2.38851 49.272 2.49978 48.9453 2.49978ZM57.5835 4.31796V5.73841H51.9301V4.31796H57.5835ZM53.5778 1.70432H55.2539V12.1021C55.2539 12.5755 55.3226 12.9306 55.4599 13.1674C55.6019 13.3994 55.7819 13.5556 55.9997 13.6361C56.2222 13.7119 56.4566 13.7498 56.7028 13.7498C56.8874 13.7498 57.039 13.7403 57.1573 13.7214C57.2757 13.6977 57.3704 13.6788 57.4414 13.6646L57.7823 15.1702C57.6687 15.2128 57.5101 15.2555 57.3065 15.2981C57.1029 15.3454 56.8448 15.3691 56.5323 15.3691C56.0588 15.3691 55.5948 15.2673 55.1403 15.0637C54.6905 14.8601 54.3164 14.55 54.0181 14.1333C53.7246 13.7166 53.5778 13.1911 53.5778 12.5566V1.70432ZM61.1843 19.318C60.9002 19.318 60.6469 19.2943 60.4244 19.2469C60.2018 19.2043 60.048 19.1617 59.9627 19.1191L60.3889 17.6418C60.7961 17.746 61.1559 17.7839 61.4684 17.7555C61.7809 17.7271 62.0579 17.5874 62.2994 17.3364C62.5456 17.0902 62.7705 16.6901 62.9741 16.1361L63.2866 15.2839L59.2525 4.31796H61.0707L64.082 13.0111H64.1957L67.207 4.31796H69.0252L64.3945 16.818C64.1862 17.3814 63.9282 17.8478 63.6204 18.2171C63.3126 18.5912 62.9551 18.8681 62.548 19.0481C62.1455 19.228 61.6909 19.318 61.1843 19.318ZM77.4876 8.21001V9.77251H71.1239V8.21001H77.4876ZM89.3573 4.31796L85.3232 15.2271H83.6186L79.5845 4.31796H81.4027L84.4141 13.0111H84.5277L87.5391 4.31796H89.3573ZM95.7529 15.4543C94.7017 15.4543 93.795 15.2223 93.0327 14.7583C92.2751 14.2896 91.6904 13.6361 91.2784 12.7981C90.8712 11.9553 90.6676 10.9752 90.6676 9.85773C90.6676 8.74031 90.8712 7.75546 91.2784 6.90319C91.6904 6.04618 92.2633 5.37857 92.9972 4.90035C93.7358 4.41739 94.5975 4.17591 95.5824 4.17591C96.1506 4.17591 96.7117 4.27061 97.2656 4.46C97.8196 4.6494 98.3239 4.95716 98.7784 5.3833C99.233 5.8047 99.5952 6.36341 99.8651 7.05944C100.135 7.75546 100.27 8.61247 100.27 9.63046V10.3407H91.8608V8.89182H98.5654C98.5654 8.27629 98.4422 7.72705 98.196 7.2441C97.9546 6.76114 97.6089 6.37999 97.1591 6.10063C96.714 5.82127 96.1885 5.6816 95.5824 5.6816C94.9148 5.6816 94.3371 5.84732 93.8494 6.17876C93.3665 6.50546 92.9948 6.9316 92.7344 7.45716C92.474 7.98273 92.3438 8.54618 92.3438 9.14751V10.1134C92.3438 10.9373 92.4858 11.6357 92.7699 12.2086C93.0587 12.7768 93.4588 13.21 93.9702 13.5083C94.4815 13.8019 95.0758 13.9486 95.7529 13.9486C96.1932 13.9486 96.5909 13.8871 96.946 13.764C97.3059 13.6361 97.616 13.4467 97.8764 13.1958C98.1368 12.9401 98.3381 12.6229 98.4801 12.2441L100.099 12.6986C99.929 13.2479 99.6425 13.7308 99.2401 14.1475C98.8376 14.5594 98.3404 14.8814 97.7486 15.1134C97.1567 15.3407 96.4915 15.4543 95.7529 15.4543ZM102.82 15.2271V4.31796H104.439V5.96569H104.553C104.751 5.42591 105.111 4.98794 105.632 4.65177C106.153 4.31559 106.74 4.1475 107.393 4.1475C107.517 4.1475 107.67 4.14987 107.855 4.15461C108.04 4.15934 108.179 4.16644 108.274 4.17591V5.88046C108.217 5.86625 108.087 5.84495 107.884 5.81654C107.685 5.7834 107.474 5.76682 107.251 5.76682C106.721 5.76682 106.248 5.87809 105.831 6.10063C105.419 6.31843 105.092 6.62146 104.851 7.00972C104.614 7.39324 104.496 7.83122 104.496 8.32364V15.2271H102.82ZM110.261 15.2271V4.31796H111.937V15.2271H110.261ZM111.113 2.49978C110.787 2.49978 110.505 2.38851 110.268 2.16597C110.036 1.94343 109.92 1.67591 109.92 1.36341C109.92 1.05091 110.036 0.783395 110.268 0.560857C110.505 0.33832 110.787 0.227051 111.113 0.227051C111.44 0.227051 111.719 0.33832 111.951 0.560857C112.188 0.783395 112.306 1.05091 112.306 1.36341C112.306 1.67591 112.188 1.94343 111.951 2.16597C111.719 2.38851 111.44 2.49978 111.113 2.49978ZM119.865 4.31796V5.73841H113.984V4.31796H119.865ZM115.746 15.2271V2.81228C115.746 2.18728 115.893 1.66644 116.186 1.24978C116.48 0.83311 116.861 0.52061 117.33 0.312277C117.798 0.103944 118.293 -0.000222921 118.814 -0.000222921C119.226 -0.000222921 119.562 0.0329212 119.822 0.0992095C120.083 0.165497 120.277 0.22705 120.405 0.283868L119.922 1.73273C119.837 1.70432 119.718 1.66881 119.567 1.6262C119.42 1.58358 119.226 1.56228 118.984 1.56228C118.43 1.56228 118.03 1.70196 117.784 1.98131C117.543 2.26067 117.422 2.67023 117.422 3.21V15.2271H115.746ZM122.214 15.2271V4.31796H123.89V15.2271H122.214ZM123.066 2.49978C122.74 2.49978 122.458 2.38851 122.221 2.16597C121.989 1.94343 121.873 1.67591 121.873 1.36341C121.873 1.05091 121.989 0.783395 122.221 0.560857C122.458 0.33832 122.74 0.227051 123.066 0.227051C123.393 0.227051 123.672 0.33832 123.904 0.560857C124.141 0.783395 124.26 1.05091 124.26 1.36341C124.26 1.67591 124.141 1.94343 123.904 2.16597C123.672 2.38851 123.393 2.49978 123.066 2.49978ZM131.534 15.4543C130.483 15.4543 129.576 15.2223 128.814 14.7583C128.056 14.2896 127.472 13.6361 127.06 12.7981C126.652 11.9553 126.449 10.9752 126.449 9.85773C126.449 8.74031 126.652 7.75546 127.06 6.90319C127.472 6.04618 128.045 5.37857 128.778 4.90035C129.517 4.41739 130.379 4.17591 131.364 4.17591C131.932 4.17591 132.493 4.27061 133.047 4.46C133.601 4.6494 134.105 4.95716 134.56 5.3833C135.014 5.8047 135.376 6.36341 135.646 7.05944C135.916 7.75546 136.051 8.61247 136.051 9.63046V10.3407H127.642V8.89182H134.347C134.347 8.27629 134.223 7.72705 133.977 7.2441C133.736 6.76114 133.39 6.37999 132.94 6.10063C132.495 5.82127 131.97 5.6816 131.364 5.6816C130.696 5.6816 130.118 5.84732 129.631 6.17876C129.148 6.50546 128.776 6.9316 128.516 7.45716C128.255 7.98273 128.125 8.54618 128.125 9.14751V10.1134C128.125 10.9373 128.267 11.6357 128.551 12.2086C128.84 12.7768 129.24 13.21 129.751 13.5083C130.263 13.8019 130.857 13.9486 131.534 13.9486C131.974 13.9486 132.372 13.8871 132.727 13.764C133.087 13.6361 133.397 13.4467 133.658 13.1958C133.918 12.9401 134.119 12.6229 134.261 12.2441L135.881 12.6986C135.71 13.2479 135.424 13.7308 135.021 14.1475C134.619 14.5594 134.122 14.8814 133.53 15.1134C132.938 15.3407 132.273 15.4543 131.534 15.4543ZM142.72 15.4543C141.811 15.4543 141.009 15.2247 140.313 14.7654C139.616 14.3014 139.072 13.648 138.679 12.8052C138.286 11.9576 138.089 10.9562 138.089 9.80091C138.089 8.65508 138.286 7.66076 138.679 6.81796C139.072 5.97516 139.619 5.32411 140.32 4.86483C141.02 4.40555 141.83 4.17591 142.749 4.17591C143.459 4.17591 144.02 4.29429 144.432 4.53103C144.848 4.76304 145.166 5.02819 145.384 5.32648C145.606 5.62004 145.779 5.86152 145.902 6.05091H146.044V0.681596H147.72V15.2271H146.101V13.5509H145.902C145.779 13.7498 145.604 14.0007 145.376 14.3038C145.149 14.6021 144.825 14.8696 144.403 15.1063C143.982 15.3383 143.421 15.4543 142.72 15.4543ZM142.947 13.9486C143.62 13.9486 144.188 13.7735 144.652 13.4231C145.116 13.068 145.469 12.5779 145.71 11.9529C145.952 11.3232 146.072 10.5964 146.072 9.77251C146.072 8.95811 145.954 8.24552 145.717 7.63472C145.481 7.01919 145.13 6.54097 144.666 6.20006C144.202 5.85442 143.629 5.6816 142.947 5.6816C142.237 5.6816 141.645 5.86389 141.172 6.22847C140.703 6.58832 140.35 7.07838 140.114 7.69864C139.882 8.31417 139.766 9.00546 139.766 9.77251C139.766 10.549 139.884 11.2545 140.121 11.889C140.362 12.5187 140.717 13.0206 141.186 13.3947C141.66 13.764 142.247 13.9486 142.947 13.9486ZM153.523 13.2384L153.409 14.0055C153.329 14.5452 153.206 15.1229 153.04 15.7384C152.879 16.3539 152.711 16.934 152.536 17.4785C152.36 18.023 152.216 18.4562 152.102 18.7782H150.824C150.885 18.4752 150.966 18.0751 151.065 17.5779C151.165 17.0807 151.264 16.5244 151.364 15.9089C151.468 15.2981 151.553 14.6731 151.619 14.0339L151.705 13.2384H153.523ZM162.253 15.2271V4.31796H163.929V15.2271H162.253ZM163.105 2.49978C162.779 2.49978 162.497 2.38851 162.26 2.16597C162.028 1.94343 161.912 1.67591 161.912 1.36341C161.912 1.05091 162.028 0.783395 162.26 0.560857C162.497 0.33832 162.779 0.227051 163.105 0.227051C163.432 0.227051 163.712 0.33832 163.944 0.560857C164.18 0.783395 164.299 1.05091 164.299 1.36341C164.299 1.67591 164.18 1.94343 163.944 2.16597C163.712 2.38851 163.432 2.49978 163.105 2.49978ZM166.999 15.2271V4.31796H168.619V6.02251H168.761C168.988 5.44012 169.355 4.98794 169.862 4.66597C170.368 4.33927 170.977 4.17591 171.687 4.17591C172.406 4.17591 173.005 4.33927 173.484 4.66597C173.967 4.98794 174.343 5.44012 174.613 6.02251H174.727C175.006 5.45906 175.425 5.01161 175.984 4.68018C176.542 4.344 177.212 4.17591 177.994 4.17591C178.969 4.17591 179.767 4.48131 180.387 5.09211C181.007 5.69817 181.317 6.64277 181.317 7.92591V15.2271H179.641V7.92591C179.641 7.12099 179.421 6.54571 178.981 6.20006C178.54 5.85442 178.022 5.6816 177.425 5.6816C176.658 5.6816 176.064 5.9136 175.643 6.37762C175.221 6.8369 175.011 7.41929 175.011 8.12478V15.2271H173.306V7.75546C173.306 7.13519 173.105 6.63567 172.702 6.25688C172.3 5.87336 171.781 5.6816 171.147 5.6816C170.711 5.6816 170.304 5.7976 169.925 6.02961C169.551 6.26161 169.248 6.58358 169.016 6.99552C168.789 7.40271 168.675 7.87383 168.675 8.40887V15.2271H166.999ZM184.382 19.318V4.31796H186.001V6.05091H186.2C186.323 5.86152 186.494 5.62004 186.712 5.32648C186.934 5.02819 187.251 4.76304 187.663 4.53103C188.08 4.29429 188.643 4.17591 189.354 4.17591C190.272 4.17591 191.082 4.40555 191.783 4.86483C192.483 5.32411 193.03 5.97516 193.423 6.81796C193.816 7.66076 194.013 8.65508 194.013 9.80091C194.013 10.9562 193.816 11.9576 193.423 12.8052C193.03 13.648 192.486 14.3014 191.79 14.7654C191.094 15.2247 190.291 15.4543 189.382 15.4543C188.681 15.4543 188.12 15.3383 187.699 15.1063C187.277 14.8696 186.953 14.6021 186.726 14.3038C186.499 14.0007 186.323 13.7498 186.2 13.5509H186.058V19.318H184.382ZM186.03 9.77251C186.03 10.5964 186.151 11.3232 186.392 11.9529C186.634 12.5779 186.986 13.068 187.45 13.4231C187.914 13.7735 188.482 13.9486 189.155 13.9486C189.856 13.9486 190.44 13.764 190.909 13.3947C191.383 13.0206 191.738 12.5187 191.974 11.889C192.216 11.2545 192.337 10.549 192.337 9.77251C192.337 9.00546 192.218 8.31417 191.982 7.69864C191.75 7.07838 191.397 6.58832 190.923 6.22847C190.455 5.86389 189.865 5.6816 189.155 5.6816C188.473 5.6816 187.9 5.85442 187.436 6.20006C186.972 6.54097 186.622 7.01919 186.385 7.63472C186.148 8.24552 186.03 8.95811 186.03 9.77251ZM203.445 10.7668V4.31796H205.121V15.2271H203.445V13.3805H203.331C203.075 13.9344 202.678 14.4056 202.138 14.7938C201.598 15.1773 200.916 15.3691 200.092 15.3691C199.411 15.3691 198.804 15.2199 198.274 14.9217C197.744 14.6186 197.327 14.1641 197.024 13.558C196.721 12.9472 196.57 12.1778 196.57 11.2498V4.31796H198.246V11.1361C198.246 11.9316 198.468 12.5661 198.913 13.0396C199.363 13.513 199.936 13.7498 200.632 13.7498C201.049 13.7498 201.473 13.6432 201.903 13.4302C202.339 13.2171 202.704 12.8904 202.997 12.4501C203.295 12.0097 203.445 11.4486 203.445 10.7668ZM208.191 15.2271V4.31796H209.81V5.96569H209.924C210.123 5.42591 210.482 4.98794 211.003 4.65177C211.524 4.31559 212.111 4.1475 212.765 4.1475C212.888 4.1475 213.042 4.14987 213.226 4.15461C213.411 4.15934 213.551 4.16644 213.645 4.17591V5.88046C213.588 5.86625 213.458 5.84495 213.255 5.81654C213.056 5.7834 212.845 5.76682 212.623 5.76682C212.092 5.76682 211.619 5.87809 211.202 6.10063C210.79 6.31843 210.463 6.62146 210.222 7.00972C209.985 7.39324 209.867 7.83122 209.867 8.32364V15.2271H208.191ZM215.632 15.2271V4.31796H217.308V15.2271H215.632ZM216.484 2.49978C216.158 2.49978 215.876 2.38851 215.639 2.16597C215.407 1.94343 215.291 1.67591 215.291 1.36341C215.291 1.05091 215.407 0.783395 215.639 0.560857C215.876 0.33832 216.158 0.227051 216.484 0.227051C216.811 0.227051 217.09 0.33832 217.322 0.560857C217.559 0.783395 217.678 1.05091 217.678 1.36341C217.678 1.67591 217.559 1.94343 217.322 2.16597C217.09 2.38851 216.811 2.49978 216.484 2.49978ZM225.123 4.31796V5.73841H219.469V4.31796H225.123ZM221.117 1.70432H222.793V12.1021C222.793 12.5755 222.862 12.9306 222.999 13.1674C223.141 13.3994 223.321 13.5556 223.539 13.6361C223.761 13.7119 223.996 13.7498 224.242 13.7498C224.427 13.7498 224.578 13.7403 224.696 13.7214C224.815 13.6977 224.909 13.6788 224.98 13.6646L225.321 15.1702C225.208 15.2128 225.049 15.2555 224.846 15.2981C224.642 15.3454 224.384 15.3691 224.071 15.3691C223.598 15.3691 223.134 15.2673 222.679 15.0637C222.23 14.8601 221.855 14.55 221.557 14.1333C221.264 13.7166 221.117 13.1911 221.117 12.5566V1.70432ZM228.723 19.318C228.439 19.318 228.186 19.2943 227.963 19.2469C227.741 19.2043 227.587 19.1617 227.502 19.1191L227.928 17.6418C228.335 17.746 228.695 17.7839 229.007 17.7555C229.32 17.7271 229.597 17.5874 229.838 17.3364C230.085 17.0902 230.31 16.6901 230.513 16.1361L230.826 15.2839L226.792 4.31796H228.61L231.621 13.0111H231.735L234.746 4.31796H236.564L231.934 16.818C231.725 17.3814 231.467 17.8478 231.159 18.2171C230.852 18.5912 230.494 18.8681 230.087 19.0481C229.685 19.228 229.23 19.318 228.723 19.318ZM245.027 8.21001V9.77251H238.663V8.21001H245.027ZM251.186 15.4827C250.495 15.4827 249.867 15.3525 249.304 15.0921C248.741 14.827 248.293 14.4458 247.962 13.9486C247.63 13.4467 247.464 12.8407 247.464 12.1305C247.464 11.5055 247.588 10.9988 247.834 10.6106C248.08 10.2176 248.409 9.90982 248.821 9.68728C249.233 9.46474 249.688 9.29902 250.185 9.19012C250.687 9.07648 251.191 8.98652 251.697 8.92023C252.36 8.83501 252.898 8.77108 253.31 8.72847C253.726 8.68112 254.029 8.603 254.219 8.4941C254.413 8.38519 254.51 8.1958 254.51 7.92591V7.8691C254.51 7.16834 254.318 6.62383 253.935 6.23557C253.556 5.84732 252.981 5.65319 252.209 5.65319C251.409 5.65319 250.781 5.82838 250.327 6.17876C249.872 6.52913 249.553 6.90319 249.368 7.30091L247.777 6.73273C248.061 6.06985 248.44 5.55375 248.913 5.18444C249.392 4.81038 249.912 4.54997 250.476 4.40319C251.044 4.25167 251.603 4.17591 252.152 4.17591C252.502 4.17591 252.905 4.21853 253.359 4.30375C253.819 4.38425 254.261 4.55233 254.688 4.80802C255.118 5.0637 255.476 5.44959 255.76 5.96569C256.044 6.48179 256.186 7.17307 256.186 8.03955V15.2271H254.51V13.7498H254.425C254.311 13.9865 254.122 14.2398 253.857 14.5097C253.591 14.7796 253.239 15.0092 252.798 15.1986C252.358 15.388 251.821 15.4827 251.186 15.4827ZM251.442 13.9771C252.105 13.9771 252.663 13.8468 253.118 13.5864C253.577 13.326 253.923 12.9898 254.155 12.5779C254.392 12.166 254.51 11.7327 254.51 11.2782V9.7441C254.439 9.82932 254.283 9.90745 254.041 9.97847C253.804 10.0448 253.53 10.1039 253.217 10.156C252.91 10.2034 252.609 10.246 252.315 10.2839C252.027 10.317 251.792 10.3454 251.612 10.3691C251.177 10.4259 250.769 10.5182 250.391 10.6461C250.017 10.7692 249.714 10.9562 249.482 11.2072C249.254 11.4534 249.141 11.7896 249.141 12.2157C249.141 12.7981 249.356 13.2384 249.787 13.5367C250.223 13.8303 250.774 13.9771 251.442 13.9771ZM261.717 15.2271L258.393 4.31796H260.154L262.512 12.6702H262.626L264.956 4.31796H266.745L269.047 12.6418H269.16L271.518 4.31796H273.279L269.956 15.2271H268.308L265.922 6.84637H265.751L263.365 15.2271H261.717ZM278.706 15.4827C278.014 15.4827 277.387 15.3525 276.824 15.0921C276.26 14.827 275.813 14.4458 275.481 13.9486C275.15 13.4467 274.984 12.8407 274.984 12.1305C274.984 11.5055 275.107 10.9988 275.353 10.6106C275.6 10.2176 275.929 9.90982 276.341 9.68728C276.752 9.46474 277.207 9.29902 277.704 9.19012C278.206 9.07648 278.71 8.98652 279.217 8.92023C279.88 8.83501 280.417 8.77108 280.829 8.72847C281.246 8.68112 281.549 8.603 281.738 8.4941C281.932 8.38519 282.029 8.1958 282.029 7.92591V7.8691C282.029 7.16834 281.838 6.62383 281.454 6.23557C281.075 5.84732 280.5 5.65319 279.728 5.65319C278.928 5.65319 278.301 5.82838 277.846 6.17876C277.392 6.52913 277.072 6.90319 276.887 7.30091L275.297 6.73273C275.581 6.06985 275.959 5.55375 276.433 5.18444C276.911 4.81038 277.432 4.54997 277.995 4.40319C278.564 4.25167 279.122 4.17591 279.672 4.17591C280.022 4.17591 280.424 4.21853 280.879 4.30375C281.338 4.38425 281.781 4.55233 282.207 4.80802C282.638 5.0637 282.995 5.44959 283.279 5.96569C283.564 6.48179 283.706 7.17307 283.706 8.03955V15.2271H282.029V13.7498H281.944C281.831 13.9865 281.641 14.2398 281.376 14.5097C281.111 14.7796 280.758 15.0092 280.318 15.1986C279.877 15.388 279.34 15.4827 278.706 15.4827ZM278.961 13.9771C279.624 13.9771 280.183 13.8468 280.637 13.5864C281.097 13.326 281.442 12.9898 281.674 12.5779C281.911 12.166 282.029 11.7327 282.029 11.2782V9.7441C281.958 9.82932 281.802 9.90745 281.561 9.97847C281.324 10.0448 281.049 10.1039 280.737 10.156C280.429 10.2034 280.128 10.246 279.835 10.2839C279.546 10.317 279.312 10.3454 279.132 10.3691C278.696 10.4259 278.289 10.5182 277.91 10.6461C277.536 10.7692 277.233 10.9562 277.001 11.2072C276.774 11.4534 276.66 11.7896 276.66 12.2157C276.66 12.7981 276.876 13.2384 277.306 13.5367C277.742 13.8303 278.294 13.9771 278.961 13.9771ZM286.765 15.2271V4.31796H288.384V5.96569H288.498C288.697 5.42591 289.057 4.98794 289.577 4.65177C290.098 4.31559 290.685 4.1475 291.339 4.1475C291.462 4.1475 291.616 4.14987 291.8 4.15461C291.985 4.15934 292.125 4.16644 292.219 4.17591V5.88046C292.163 5.86625 292.032 5.84495 291.829 5.81654C291.63 5.7834 291.419 5.76682 291.197 5.76682C290.666 5.76682 290.193 5.87809 289.776 6.10063C289.364 6.31843 289.038 6.62146 288.796 7.00972C288.559 7.39324 288.441 7.83122 288.441 8.32364V15.2271H286.765ZM298.448 15.4543C297.397 15.4543 296.49 15.2223 295.728 14.7583C294.97 14.2896 294.386 13.6361 293.974 12.7981C293.567 11.9553 293.363 10.9752 293.363 9.85773C293.363 8.74031 293.567 7.75546 293.974 6.90319C294.386 6.04618 294.959 5.37857 295.692 4.90035C296.431 4.41739 297.293 4.17591 298.278 4.17591C298.846 4.17591 299.407 4.27061 299.961 4.46C300.515 4.6494 301.019 4.95716 301.474 5.3833C301.928 5.8047 302.29 6.36341 302.56 7.05944C302.83 7.75546 302.965 8.61247 302.965 9.63046V10.3407H294.556V8.89182H301.261C301.261 8.27629 301.138 7.72705 300.891 7.2441C300.65 6.76114 300.304 6.37999 299.854 6.10063C299.409 5.82127 298.884 5.6816 298.278 5.6816C297.61 5.6816 297.032 5.84732 296.545 6.17876C296.062 6.50546 295.69 6.9316 295.43 7.45716C295.169 7.98273 295.039 8.54618 295.039 9.14751V10.1134C295.039 10.9373 295.181 11.6357 295.465 12.2086C295.754 12.7768 296.154 13.21 296.665 13.5083C297.177 13.8019 297.771 13.9486 298.448 13.9486C298.889 13.9486 299.286 13.8871 299.641 13.764C300.001 13.6361 300.311 13.4467 300.572 13.1958C300.832 12.9401 301.033 12.6229 301.175 12.2441L302.795 12.6986C302.624 13.2479 302.338 13.7308 301.935 14.1475C301.533 14.5594 301.036 14.8814 300.444 15.1134C299.852 15.3407 299.187 15.4543 298.448 15.4543ZM308.015 13.2384L307.901 14.0055C307.821 14.5452 307.698 15.1229 307.532 15.7384C307.371 16.3539 307.203 16.934 307.028 17.4785C306.853 18.023 306.708 18.4562 306.594 18.7782H305.316C305.378 18.4752 305.458 18.0751 305.558 17.5779C305.657 17.0807 305.756 16.5244 305.856 15.9089C305.96 15.2981 306.045 14.6731 306.112 14.0339L306.197 13.2384H308.015ZM64.2241 28.318V29.7384H58.5707V28.318H64.2241ZM60.2184 25.7043H61.8945V36.1021C61.8945 36.5755 61.9632 36.9306 62.1005 37.1674C62.2426 37.3994 62.4225 37.5556 62.6403 37.6361C62.8628 37.7119 63.0972 37.7498 63.3434 37.7498C63.5281 37.7498 63.6796 37.7403 63.798 37.7214C63.9163 37.6977 64.011 37.6788 64.082 37.6646L64.423 39.1702C64.3093 39.2128 64.1507 39.2555 63.9471 39.2981C63.7435 39.3454 63.4855 39.3691 63.173 39.3691C62.6995 39.3691 62.2355 39.2673 61.7809 39.0637C61.3311 38.8601 60.957 38.55 60.6587 38.1333C60.3652 37.7166 60.2184 37.1911 60.2184 36.5566V25.7043ZM66.7454 39.2271V28.318H68.3647V29.9657H68.4783C68.6772 29.4259 69.0371 28.9879 69.5579 28.6518C70.0787 28.3156 70.6658 28.1475 71.3193 28.1475C71.4424 28.1475 71.5962 28.1499 71.7809 28.1546C71.9656 28.1593 72.1052 28.1664 72.1999 28.1759V29.8805C72.1431 29.8663 72.0129 29.8449 71.8093 29.8165C71.6105 29.7834 71.3998 29.7668 71.1772 29.7668C70.6469 29.7668 70.1734 29.8781 69.7568 30.1006C69.3448 30.3184 69.0181 30.6215 68.7766 31.0097C68.5399 31.3932 68.4215 31.8312 68.4215 32.3236V39.2271H66.7454ZM77.397 39.4827C76.7057 39.4827 76.0784 39.3525 75.5149 39.0921C74.9515 38.827 74.504 38.4458 74.1726 37.9486C73.8412 37.4467 73.6754 36.8407 73.6754 36.1305C73.6754 35.5055 73.7985 34.9988 74.0448 34.6106C74.291 34.2176 74.62 33.9098 75.032 33.6873C75.4439 33.4647 75.8984 33.299 76.3956 33.1901C76.8975 33.0765 77.4018 32.9865 77.9084 32.9202C78.5713 32.835 79.1087 32.7711 79.5206 32.7285C79.9373 32.6811 80.2403 32.603 80.4297 32.4941C80.6238 32.3852 80.7209 32.1958 80.7209 31.9259V31.8691C80.7209 31.1683 80.5291 30.6238 80.1456 30.2356C79.7668 29.8473 79.1915 29.6532 78.4198 29.6532C77.6196 29.6532 76.9922 29.8284 76.5377 30.1788C76.0831 30.5291 75.7635 30.9032 75.5788 31.3009L73.9879 30.7327C74.272 30.0699 74.6508 29.5538 75.1243 29.1844C75.6025 28.8104 76.1234 28.55 76.6868 28.4032C77.255 28.2517 77.8137 28.1759 78.3629 28.1759C78.7133 28.1759 79.1158 28.2185 79.5703 28.3038C80.0296 28.3842 80.4723 28.5523 80.8984 28.808C81.3293 29.0637 81.6868 29.4496 81.9709 29.9657C82.255 30.4818 82.397 31.1731 82.397 32.0396V39.2271H80.7209V37.7498H80.6357C80.522 37.9865 80.3326 38.2398 80.0675 38.5097C79.8023 38.7796 79.4496 39.0092 79.0092 39.1986C78.5689 39.388 78.0315 39.4827 77.397 39.4827ZM77.6527 37.9771C78.3156 37.9771 78.8743 37.8468 79.3288 37.5864C79.7881 37.326 80.1338 36.9898 80.3658 36.5779C80.6025 36.166 80.7209 35.7327 80.7209 35.2782V33.7441C80.6499 33.8293 80.4936 33.9074 80.2521 33.9785C80.0154 34.0448 79.7408 34.1039 79.4283 34.156C79.1205 34.2034 78.8199 34.246 78.5263 34.2839C78.2375 34.317 78.0031 34.3454 77.8232 34.3691C77.3876 34.4259 76.9804 34.5182 76.6016 34.6461C76.2275 34.7692 75.9245 34.9562 75.6925 35.2072C75.4652 35.4534 75.3516 35.7896 75.3516 36.2157C75.3516 36.7981 75.567 37.2384 75.9979 37.5367C76.4335 37.8303 76.9851 37.9771 77.6527 37.9771ZM89.8882 39.4543C88.8654 39.4543 87.9847 39.2128 87.2461 38.7299C86.5075 38.2469 85.9393 37.5817 85.5416 36.7342C85.1438 35.8866 84.945 34.9183 84.945 33.8293C84.945 32.7214 85.1486 31.7436 85.5558 30.8961C85.9677 30.0438 86.5406 29.3786 87.2745 28.9003C88.0132 28.4174 88.8749 28.1759 89.8597 28.1759C90.6268 28.1759 91.3181 28.318 91.9336 28.6021C92.5491 28.8861 93.0534 29.2839 93.4464 29.7952C93.8394 30.3066 94.0832 30.9032 94.1779 31.585H92.5018C92.3739 31.0878 92.0899 30.6475 91.6495 30.264C91.2139 29.8757 90.6268 29.6816 89.8882 29.6816C89.2347 29.6816 88.6618 29.8521 88.1694 30.193C87.6817 30.5291 87.3006 31.005 87.0259 31.6205C86.756 32.2313 86.6211 32.9486 86.6211 33.7725C86.6211 34.6153 86.7537 35.3492 87.0188 35.9742C87.2887 36.5992 87.6675 37.0845 88.1552 37.4302C88.6476 37.7758 89.2253 37.9486 89.8882 37.9486C90.3238 37.9486 90.7191 37.8729 91.0742 37.7214C91.4293 37.5699 91.73 37.3521 91.9762 37.068C92.2224 36.7839 92.3976 36.443 92.5018 36.0452H94.1779C94.0832 36.6892 93.8489 37.2692 93.4748 37.7853C93.1055 38.2967 92.6154 38.7039 92.0046 39.0069C91.3986 39.3052 90.6931 39.4543 89.8882 39.4543ZM101.202 39.4543C100.151 39.4543 99.2442 39.2223 98.4819 38.7583C97.7243 38.2896 97.1396 37.6361 96.7276 36.7981C96.3204 35.9553 96.1168 34.9752 96.1168 33.8577C96.1168 32.7403 96.3204 31.7555 96.7276 30.9032C97.1396 30.0462 97.7125 29.3786 98.4464 28.9003C99.185 28.4174 100.047 28.1759 101.032 28.1759C101.6 28.1759 102.161 28.2706 102.715 28.46C103.269 28.6494 103.773 28.9572 104.228 29.3833C104.682 29.8047 105.044 30.3634 105.314 31.0594C105.584 31.7555 105.719 32.6125 105.719 33.6305V34.3407H97.31V32.8918H104.015C104.015 32.2763 103.891 31.7271 103.645 31.2441C103.404 30.7611 103.058 30.38 102.608 30.1006C102.163 29.8213 101.638 29.6816 101.032 29.6816C100.364 29.6816 99.7864 29.8473 99.2987 30.1788C98.8157 30.5055 98.444 30.9316 98.1836 31.4572C97.9232 31.9827 97.793 32.5462 97.793 33.1475V34.1134C97.793 34.9373 97.935 35.6357 98.2191 36.2086C98.5079 36.7768 98.908 37.21 99.4194 37.5083C99.9308 37.8019 100.525 37.9486 101.202 37.9486C101.642 37.9486 102.04 37.8871 102.395 37.764C102.755 37.6361 103.065 37.4467 103.326 37.1958C103.586 36.9401 103.787 36.6229 103.929 36.2441L105.549 36.6986C105.378 37.2479 105.092 37.7308 104.689 38.1475C104.287 38.5594 103.79 38.8814 103.198 39.1134C102.606 39.3407 101.941 39.4543 101.202 39.4543ZM111.479 39.4827C110.788 39.4827 110.16 39.3525 109.597 39.0921C109.034 38.827 108.586 38.4458 108.255 37.9486C107.923 37.4467 107.757 36.8407 107.757 36.1305C107.757 35.5055 107.881 34.9988 108.127 34.6106C108.373 34.2176 108.702 33.9098 109.114 33.6873C109.526 33.4647 109.98 33.299 110.478 33.1901C110.98 33.0765 111.484 32.9865 111.99 32.9202C112.653 32.835 113.191 32.7711 113.603 32.7285C114.019 32.6811 114.322 32.603 114.512 32.4941C114.706 32.3852 114.803 32.1958 114.803 31.9259V31.8691C114.803 31.1683 114.611 30.6238 114.228 30.2356C113.849 29.8473 113.274 29.6532 112.502 29.6532C111.702 29.6532 111.074 29.8284 110.62 30.1788C110.165 30.5291 109.846 30.9032 109.661 31.3009L108.07 30.7327C108.354 30.0699 108.733 29.5538 109.206 29.1844C109.685 28.8104 110.205 28.55 110.769 28.4032C111.337 28.2517 111.896 28.1759 112.445 28.1759C112.795 28.1759 113.198 28.2185 113.652 28.3038C114.112 28.3842 114.554 28.5523 114.98 28.808C115.411 29.0637 115.769 29.4496 116.053 29.9657C116.337 30.4818 116.479 31.1731 116.479 32.0396V39.2271H114.803V37.7498H114.718C114.604 37.9865 114.415 38.2398 114.15 38.5097C113.884 38.7796 113.532 39.0092 113.091 39.1986C112.651 39.388 112.114 39.4827 111.479 39.4827ZM111.735 37.9771C112.398 37.9771 112.956 37.8468 113.411 37.5864C113.87 37.326 114.216 36.9898 114.448 36.5779C114.685 36.166 114.803 35.7327 114.803 35.2782V33.7441C114.732 33.8293 114.576 33.9074 114.334 33.9785C114.097 34.0448 113.823 34.1039 113.51 34.156C113.203 34.2034 112.902 34.246 112.608 34.2839C112.319 34.317 112.085 34.3454 111.905 34.3691C111.47 34.4259 111.062 34.5182 110.684 34.6461C110.31 34.7692 110.007 34.9562 109.775 35.2072C109.547 35.4534 109.434 35.7896 109.434 36.2157C109.434 36.7981 109.649 37.2384 110.08 37.5367C110.516 37.8303 111.067 37.9771 111.735 37.9771ZM119.766 39.2271V24.6816H121.442V30.0509H121.584C121.707 29.8615 121.877 29.62 122.095 29.3265C122.318 29.0282 122.635 28.763 123.047 28.531C123.464 28.2943 124.027 28.1759 124.737 28.1759C125.656 28.1759 126.465 28.4056 127.166 28.8648C127.867 29.3241 128.414 29.9752 128.807 30.818C129.2 31.6608 129.396 32.6551 129.396 33.8009C129.396 34.9562 129.2 35.9576 128.807 36.8052C128.414 37.648 127.869 38.3014 127.173 38.7654C126.477 39.2247 125.675 39.4543 124.766 39.4543C124.065 39.4543 123.504 39.3383 123.082 39.1063C122.661 38.8696 122.337 38.6021 122.109 38.3038C121.882 38.0007 121.707 37.7498 121.584 37.5509H121.385V39.2271H119.766ZM121.413 33.7725C121.413 34.5964 121.534 35.3232 121.776 35.9529C122.017 36.5779 122.37 37.068 122.834 37.4231C123.298 37.7735 123.866 37.9486 124.538 37.9486C125.239 37.9486 125.824 37.764 126.293 37.3947C126.766 37.0206 127.121 36.5187 127.358 35.889C127.599 35.2545 127.72 34.549 127.72 33.7725C127.72 33.0055 127.602 32.3142 127.365 31.6986C127.133 31.0784 126.78 30.5883 126.307 30.2285C125.838 29.8639 125.249 29.6816 124.538 29.6816C123.857 29.6816 123.284 29.8544 122.82 30.2001C122.356 30.541 122.005 31.0192 121.768 31.6347C121.532 32.2455 121.413 32.9581 121.413 33.7725ZM133.636 24.6816V39.2271H131.96V24.6816H133.636ZM141.28 39.4543C140.229 39.4543 139.322 39.2223 138.56 38.7583C137.802 38.2896 137.218 37.6361 136.806 36.7981C136.399 35.9553 136.195 34.9752 136.195 33.8577C136.195 32.7403 136.399 31.7555 136.806 30.9032C137.218 30.0462 137.791 29.3786 138.525 28.9003C139.263 28.4174 140.125 28.1759 141.11 28.1759C141.678 28.1759 142.239 28.2706 142.793 28.46C143.347 28.6494 143.851 28.9572 144.306 29.3833C144.76 29.8047 145.123 30.3634 145.392 31.0594C145.662 31.7555 145.797 32.6125 145.797 33.6305V34.3407H137.388V32.8918H144.093C144.093 32.2763 143.97 31.7271 143.723 31.2441C143.482 30.7611 143.136 30.38 142.686 30.1006C142.241 29.8213 141.716 29.6816 141.11 29.6816C140.442 29.6816 139.864 29.8473 139.377 30.1788C138.894 30.5055 138.522 30.9316 138.262 31.4572C138.001 31.9827 137.871 32.5462 137.871 33.1475V34.1134C137.871 34.9373 138.013 35.6357 138.297 36.2086C138.586 36.7768 138.986 37.21 139.498 37.5083C140.009 37.8019 140.603 37.9486 141.28 37.9486C141.721 37.9486 142.118 37.8871 142.473 37.764C142.833 37.6361 143.143 37.4467 143.404 37.1958C143.664 36.9401 143.865 36.6229 144.007 36.2441L145.627 36.6986C145.456 37.2479 145.17 37.7308 144.767 38.1475C144.365 38.5594 143.868 38.8814 143.276 39.1134C142.684 39.3407 142.019 39.4543 141.28 39.4543ZM154.199 39.2271V24.6816H155.875V30.0509H156.017C156.141 29.8615 156.311 29.62 156.529 29.3265C156.751 29.0282 157.069 28.763 157.48 28.531C157.897 28.2943 158.461 28.1759 159.171 28.1759C160.089 28.1759 160.899 28.4056 161.6 28.8648C162.301 29.3241 162.847 29.9752 163.24 30.818C163.633 31.6608 163.83 32.6551 163.83 33.8009C163.83 34.9562 163.633 35.9576 163.24 36.8052C162.847 37.648 162.303 38.3014 161.607 38.7654C160.911 39.2247 160.108 39.4543 159.199 39.4543C158.498 39.4543 157.937 39.3383 157.516 39.1063C157.095 38.8696 156.77 38.6021 156.543 38.3038C156.316 38.0007 156.141 37.7498 156.017 37.5509H155.819V39.2271H154.199ZM155.847 33.7725C155.847 34.5964 155.968 35.3232 156.209 35.9529C156.451 36.5779 156.803 37.068 157.267 37.4231C157.731 37.7735 158.3 37.9486 158.972 37.9486C159.673 37.9486 160.257 37.764 160.726 37.3947C161.2 37.0206 161.555 36.5187 161.792 35.889C162.033 35.2545 162.154 34.549 162.154 33.7725C162.154 33.0055 162.035 32.3142 161.799 31.6986C161.567 31.0784 161.214 30.5883 160.74 30.2285C160.272 29.8639 159.682 29.6816 158.972 29.6816C158.29 29.6816 157.717 29.8544 157.253 30.2001C156.789 30.541 156.439 31.0192 156.202 31.6347C155.965 32.2455 155.847 32.9581 155.847 33.7725ZM167.083 43.318C166.799 43.318 166.545 43.2943 166.323 43.2469C166.1 43.2043 165.946 43.1617 165.861 43.1191L166.287 41.6418C166.694 41.746 167.054 41.7839 167.367 41.7555C167.679 41.7271 167.956 41.5874 168.198 41.3364C168.444 41.0902 168.669 40.6901 168.873 40.1361L169.185 39.2839L165.151 28.318H166.969L169.98 37.0111H170.094L173.105 28.318H174.924L170.293 40.818C170.085 41.3814 169.827 41.8478 169.519 42.2171C169.211 42.5912 168.854 42.8681 168.446 43.0481C168.044 43.228 167.589 43.318 167.083 43.318ZM186.88 39.4543C185.971 39.4543 185.169 39.2247 184.473 38.7654C183.777 38.3014 183.232 37.648 182.839 36.8052C182.446 35.9576 182.25 34.9562 182.25 33.8009C182.25 32.6551 182.446 31.6608 182.839 30.818C183.232 29.9752 183.779 29.3241 184.48 28.8648C185.181 28.4056 185.99 28.1759 186.909 28.1759C187.619 28.1759 188.18 28.2943 188.592 28.531C189.009 28.763 189.326 29.0282 189.544 29.3265C189.766 29.62 189.939 29.8615 190.062 30.0509H190.204V24.6816H191.88V39.2271H190.261V37.5509H190.062C189.939 37.7498 189.764 38.0007 189.537 38.3038C189.309 38.6021 188.985 38.8696 188.564 39.1063C188.142 39.3383 187.581 39.4543 186.88 39.4543ZM187.108 37.9486C187.78 37.9486 188.348 37.7735 188.812 37.4231C189.276 37.068 189.629 36.5779 189.87 35.9529C190.112 35.3232 190.233 34.5964 190.233 33.7725C190.233 32.9581 190.114 32.2455 189.877 31.6347C189.641 31.0192 189.29 30.541 188.826 30.2001C188.362 29.8544 187.789 29.6816 187.108 29.6816C186.397 29.6816 185.806 29.8639 185.332 30.2285C184.863 30.5883 184.511 31.0784 184.274 31.6986C184.042 32.3142 183.926 33.0055 183.926 33.7725C183.926 34.549 184.044 35.2545 184.281 35.889C184.522 36.5187 184.877 37.0206 185.346 37.3947C185.82 37.764 186.407 37.9486 187.108 37.9486ZM199.757 39.4543C198.706 39.4543 197.799 39.2223 197.037 38.7583C196.279 38.2896 195.694 37.6361 195.282 36.7981C194.875 35.9553 194.672 34.9752 194.672 33.8577C194.672 32.7403 194.875 31.7555 195.282 30.9032C195.694 30.0462 196.267 29.3786 197.001 28.9003C197.74 28.4174 198.601 28.1759 199.586 28.1759C200.154 28.1759 200.716 28.2706 201.27 28.46C201.824 28.6494 202.328 28.9572 202.782 29.3833C203.237 29.8047 203.599 30.3634 203.869 31.0594C204.139 31.7555 204.274 32.6125 204.274 33.6305V34.3407H195.865V32.8918H202.569C202.569 32.2763 202.446 31.7271 202.2 31.2441C201.958 30.7611 201.613 30.38 201.163 30.1006C200.718 29.8213 200.192 29.6816 199.586 29.6816C198.919 29.6816 198.341 29.8473 197.853 30.1788C197.37 30.5055 196.999 30.9316 196.738 31.4572C196.478 31.9827 196.348 32.5462 196.348 33.1475V34.1134C196.348 34.9373 196.49 35.6357 196.774 36.2086C197.063 36.7768 197.463 37.21 197.974 37.5083C198.485 37.8019 199.08 37.9486 199.757 37.9486C200.197 37.9486 200.595 37.8871 200.95 37.764C201.31 37.6361 201.62 37.4467 201.88 37.1958C202.141 36.9401 202.342 36.6229 202.484 36.2441L204.103 36.6986C203.933 37.2479 203.646 37.7308 203.244 38.1475C202.842 38.5594 202.344 38.8814 201.752 39.1134C201.161 39.3407 200.495 39.4543 199.757 39.4543ZM214.551 30.7611L213.045 31.1873C212.95 30.9363 212.811 30.6925 212.626 30.4557C212.446 30.2143 212.2 30.0154 211.887 29.8592C211.575 29.7029 211.175 29.6248 210.687 29.6248C210.02 29.6248 209.463 29.7787 209.018 30.0864C208.578 30.3895 208.358 30.7753 208.358 31.2441C208.358 31.6608 208.509 31.9898 208.812 32.2313C209.115 32.4728 209.589 32.674 210.233 32.835L211.852 33.2327C212.827 33.4695 213.554 33.8317 214.032 34.3194C214.511 34.8023 214.75 35.425 214.75 36.1873C214.75 36.8123 214.57 37.371 214.21 37.8634C213.855 38.3558 213.358 38.7441 212.718 39.0282C212.079 39.3123 211.336 39.4543 210.488 39.4543C209.376 39.4543 208.455 39.2128 207.726 38.7299C206.996 38.2469 206.535 37.5414 206.341 36.6134L207.931 36.2157C208.083 36.8028 208.369 37.2431 208.791 37.5367C209.217 37.8303 209.773 37.9771 210.46 37.9771C211.241 37.9771 211.861 37.8113 212.321 37.4799C212.785 37.1437 213.017 36.7413 213.017 36.2725C213.017 35.8937 212.884 35.5765 212.619 35.3208C212.354 35.0604 211.947 34.8663 211.397 34.7384L209.579 34.3123C208.58 34.0755 207.846 33.7086 207.377 33.2114C206.913 32.7095 206.681 32.0822 206.681 31.3293C206.681 30.7138 206.854 30.1693 207.2 29.6958C207.55 29.2223 208.026 28.8506 208.627 28.5807C209.234 28.3109 209.92 28.1759 210.687 28.1759C211.767 28.1759 212.614 28.4127 213.23 28.8861C213.85 29.3596 214.29 29.9846 214.551 30.7611ZM217.273 39.2271V28.318H218.949V39.2271H217.273ZM218.125 26.4998C217.798 26.4998 217.517 26.3885 217.28 26.166C217.048 25.9434 216.932 25.6759 216.932 25.3634C216.932 25.0509 217.048 24.7834 217.28 24.5609C217.517 24.3383 217.798 24.2271 218.125 24.2271C218.452 24.2271 218.731 24.3383 218.963 24.5609C219.2 24.7834 219.318 25.0509 219.318 25.3634C219.318 25.6759 219.2 25.9434 218.963 26.166C218.731 26.3885 218.452 26.4998 218.125 26.4998ZM226.422 43.5452C225.613 43.5452 224.917 43.4411 224.334 43.2327C223.752 43.0291 223.266 42.7592 222.878 42.4231C222.495 42.0916 222.189 41.7365 221.962 41.3577L223.297 40.4202C223.449 40.6191 223.641 40.8464 223.873 41.1021C224.105 41.3625 224.422 41.5874 224.824 41.7768C225.231 41.9709 225.764 42.068 226.422 42.068C227.303 42.068 228.03 41.8549 228.603 41.4288C229.176 41.0026 229.462 40.335 229.462 39.4259V37.21H229.32C229.197 37.4089 229.022 37.6551 228.794 37.9486C228.572 38.2375 228.25 38.4955 227.828 38.7228C227.412 38.9453 226.848 39.0566 226.138 39.0566C225.257 39.0566 224.467 38.8483 223.766 38.4316C223.07 38.0149 222.518 37.4089 222.111 36.6134C221.709 35.818 221.507 34.8521 221.507 33.7157C221.507 32.5983 221.704 31.6253 222.097 30.7967C222.49 29.9633 223.037 29.3194 223.738 28.8648C224.438 28.4056 225.248 28.1759 226.167 28.1759C226.877 28.1759 227.44 28.2943 227.857 28.531C228.278 28.763 228.6 29.0282 228.823 29.3265C229.05 29.62 229.225 29.8615 229.348 30.0509H229.519V28.318H231.138V39.5396C231.138 40.4771 230.925 41.2394 230.499 41.8265C230.078 42.4183 229.509 42.8516 228.794 43.1262C228.084 43.4056 227.293 43.5452 226.422 43.5452ZM226.365 37.5509C227.038 37.5509 227.606 37.397 228.07 37.0893C228.534 36.7815 228.887 36.3388 229.128 35.7611C229.37 35.1835 229.49 34.4922 229.49 33.6873C229.49 32.9013 229.372 32.2076 229.135 31.6063C228.899 31.005 228.548 30.5339 228.084 30.193C227.62 29.8521 227.047 29.6816 226.365 29.6816C225.655 29.6816 225.063 29.8615 224.59 30.2214C224.121 30.5812 223.768 31.0642 223.532 31.6702C223.3 32.2763 223.184 32.9486 223.184 33.6873C223.184 34.4449 223.302 35.1148 223.539 35.6972C223.78 36.2749 224.135 36.7294 224.604 37.0609C225.078 37.3876 225.665 37.5509 226.365 37.5509ZM235.882 32.6646V39.2271H234.206V28.318H235.826V30.0225H235.968C236.223 29.4685 236.612 29.0235 237.132 28.6873C237.653 28.3464 238.326 28.1759 239.15 28.1759C239.888 28.1759 240.534 28.3274 241.088 28.6305C241.642 28.9288 242.073 29.3833 242.381 29.9941C242.689 30.6002 242.843 31.3672 242.843 32.2952V39.2271H241.167V32.4089C241.167 31.5519 240.944 30.8842 240.499 30.406C240.054 29.9231 239.443 29.6816 238.667 29.6816C238.132 29.6816 237.653 29.7976 237.232 30.0296C236.815 30.2616 236.486 30.6002 236.245 31.0452C236.003 31.4903 235.882 32.0301 235.882 32.6646ZM247.127 39.3407C246.777 39.3407 246.476 39.2152 246.225 38.9643C245.974 38.7133 245.849 38.4127 245.849 38.0623C245.849 37.7119 245.974 37.4112 246.225 37.1603C246.476 36.9093 246.777 36.7839 247.127 36.7839C247.478 36.7839 247.778 36.9093 248.029 37.1603C248.28 37.4112 248.406 37.7119 248.406 38.0623C248.406 38.2943 248.346 38.5074 248.228 38.7015C248.114 38.8956 247.96 39.0519 247.766 39.1702C247.577 39.2839 247.364 39.3407 247.127 39.3407Z" fill="#DADADA"/>
</svg>
