<svg width="240" height="68" viewBox="0 0 240 68" fill="none" xmlns="http://www.w3.org/2000/svg">
<path d="M5.03385 15.2271V4.31796H6.70998V15.2271H5.03385ZM5.88612 2.49978C5.55942 2.49978 5.27769 2.38851 5.04095 2.16597C4.80894 1.94343 4.69294 1.67591 4.69294 1.36341C4.69294 1.05091 4.80894 0.783395 5.04095 0.560857C5.27769 0.33832 5.55942 0.227051 5.88612 0.227051C6.21282 0.227051 6.49218 0.33832 6.72419 0.560857C6.96093 0.783395 7.0793 1.05091 7.0793 1.36341C7.0793 1.67591 6.96093 1.94343 6.72419 2.16597C6.49218 2.38851 6.21282 2.49978 5.88612 2.49978ZM11.4561 8.66455V15.2271H9.77994V4.31796H11.3993V6.02251H11.5413C11.797 5.46853 12.1852 5.02345 12.7061 4.68728C13.2269 4.34637 13.8993 4.17591 14.7231 4.17591C15.4618 4.17591 16.1081 4.32743 16.662 4.63046C17.216 4.92876 17.6469 5.3833 17.9547 5.9941C18.2624 6.60016 18.4163 7.3672 18.4163 8.29523V15.2271H16.7402V8.40887C16.7402 7.55186 16.5176 6.88425 16.0726 6.40603C15.6275 5.92307 15.0167 5.6816 14.2402 5.6816C13.7051 5.6816 13.2269 5.7976 12.8055 6.02961C12.3888 6.26161 12.0598 6.60016 11.8183 7.04523C11.5768 7.49031 11.4561 8.03008 11.4561 8.66455ZM26.3371 4.31796V5.73841H20.4564V4.31796H26.3371ZM22.2178 15.2271V2.81228C22.2178 2.18728 22.3646 1.66644 22.6581 1.24978C22.9517 0.83311 23.3329 0.52061 23.8016 0.312277C24.2704 0.103944 24.7651 -0.000222921 25.286 -0.000222921C25.6979 -0.000222921 26.0341 0.0329212 26.2945 0.0992095C26.5549 0.165497 26.749 0.22705 26.8769 0.283868L26.3939 1.73273C26.3087 1.70432 26.1903 1.66881 26.0388 1.6262C25.892 1.58358 25.6979 1.56228 25.4564 1.56228C24.9025 1.56228 24.5024 1.70196 24.2561 1.98131C24.0147 2.26067 23.8939 2.67023 23.8939 3.21V15.2271H22.2178ZM30.3623 0.681596V15.2271H28.6862V0.681596H30.3623ZM36.6425 15.4827C35.9512 15.4827 35.3239 15.3525 34.7604 15.0921C34.197 14.827 33.7495 14.4458 33.4181 13.9486C33.0866 13.4467 32.9209 12.8407 32.9209 12.1305C32.9209 11.5055 33.044 10.9988 33.2902 10.6106C33.5365 10.2176 33.8655 9.90982 34.2775 9.68728C34.6894 9.46474 35.1439 9.29902 35.6411 9.19012C36.143 9.07648 36.6472 8.98652 37.1539 8.92023C37.8168 8.83501 38.3542 8.77108 38.7661 8.72847C39.1828 8.68112 39.4858 8.603 39.6752 8.4941C39.8693 8.38519 39.9664 8.1958 39.9664 7.92591V7.8691C39.9664 7.16834 39.7746 6.62383 39.3911 6.23557C39.0123 5.84732 38.437 5.65319 37.6652 5.65319C36.865 5.65319 36.2377 5.82838 35.7831 6.17876C35.3286 6.52913 35.009 6.90319 34.8243 7.30091L33.2334 6.73273C33.5175 6.06985 33.8963 5.55375 34.3698 5.18444C34.848 4.81038 35.3688 4.54997 35.9323 4.40319C36.5005 4.25167 37.0592 4.17591 37.6084 4.17591C37.9588 4.17591 38.3613 4.21853 38.8158 4.30375C39.2751 4.38425 39.7178 4.55233 40.1439 4.80802C40.5748 5.0637 40.9323 5.44959 41.2164 5.96569C41.5005 6.48179 41.6425 7.17307 41.6425 8.03955V15.2271H39.9664V13.7498H39.8811C39.7675 13.9865 39.5781 14.2398 39.313 14.5097C39.0478 14.7796 38.6951 15.0092 38.2547 15.1986C37.8144 15.388 37.277 15.4827 36.6425 15.4827ZM36.8982 13.9771C37.5611 13.9771 38.1198 13.8468 38.5743 13.5864C39.0336 13.326 39.3793 12.9898 39.6113 12.5779C39.848 12.166 39.9664 11.7327 39.9664 11.2782V9.7441C39.8954 9.82932 39.7391 9.90745 39.4976 9.97847C39.2609 10.0448 38.9863 10.1039 38.6738 10.156C38.366 10.2034 38.0653 10.246 37.7718 10.2839C37.4829 10.317 37.2486 10.3454 37.0686 10.3691C36.633 10.4259 36.2258 10.5182 35.8471 10.6461C35.473 10.7692 35.17 10.9562 34.938 11.2072C34.7107 11.4534 34.5971 11.7896 34.5971 12.2157C34.5971 12.7981 34.8125 13.2384 35.2434 13.5367C35.679 13.8303 36.2306 13.9771 36.8982 13.9771ZM44.7018 15.2271V4.31796H46.3211V6.02251H46.4632C46.6905 5.44012 47.0574 4.98794 47.564 4.66597C48.0707 4.33927 48.6791 4.17591 49.3893 4.17591C50.109 4.17591 50.708 4.33927 51.1862 4.66597C51.6691 4.98794 52.0456 5.44012 52.3155 6.02251H52.4291C52.7084 5.45906 53.1275 5.01161 53.6862 4.68018C54.2449 4.344 54.9149 4.17591 55.6961 4.17591C56.6715 4.17591 57.4693 4.48131 58.0896 5.09211C58.7099 5.69817 59.02 6.64277 59.02 7.92591V15.2271H57.3439V7.92591C57.3439 7.12099 57.1237 6.54571 56.6833 6.20006C56.243 5.85442 55.7245 5.6816 55.128 5.6816C54.3609 5.6816 53.7667 5.9136 53.3453 6.37762C52.9239 6.8369 52.7132 7.41929 52.7132 8.12478V15.2271H51.0086V7.75546C51.0086 7.13519 50.8074 6.63567 50.4049 6.25688C50.0025 5.87336 49.484 5.6816 48.8495 5.6816C48.4139 5.6816 48.0067 5.7976 47.628 6.02961C47.2539 6.26161 46.9509 6.58358 46.7189 6.99552C46.4916 7.40271 46.378 7.87383 46.378 8.40887V15.2271H44.7018ZM62.0846 15.2271V4.31796H63.7039V6.02251H63.846C64.0733 5.44012 64.4402 4.98794 64.9468 4.66597C65.4535 4.33927 66.0619 4.17591 66.7721 4.17591C67.4918 4.17591 68.0908 4.33927 68.569 4.66597C69.052 4.98794 69.4284 5.44012 69.6983 6.02251H69.8119C70.0913 5.45906 70.5103 5.01161 71.069 4.68018C71.6277 4.344 72.2977 4.17591 73.0789 4.17591C74.0543 4.17591 74.8521 4.48131 75.4724 5.09211C76.0927 5.69817 76.4028 6.64277 76.4028 7.92591V15.2271H74.7267V7.92591C74.7267 7.12099 74.5065 6.54571 74.0662 6.20006C73.6258 5.85442 73.1074 5.6816 72.5108 5.6816C71.7437 5.6816 71.1495 5.9136 70.7281 6.37762C70.3067 6.8369 70.096 7.41929 70.096 8.12478V15.2271H68.3914V7.75546C68.3914 7.13519 68.1902 6.63567 67.7878 6.25688C67.3853 5.87336 66.8668 5.6816 66.2324 5.6816C65.7967 5.6816 65.3896 5.7976 65.0108 6.02961C64.6367 6.26161 64.3337 6.58358 64.1017 6.99552C63.8744 7.40271 63.7608 7.87383 63.7608 8.40887V15.2271H62.0846ZM82.6777 15.4827C81.9864 15.4827 81.359 15.3525 80.7956 15.0921C80.2321 14.827 79.7847 14.4458 79.4532 13.9486C79.1218 13.4467 78.9561 12.8407 78.9561 12.1305C78.9561 11.5055 79.0792 10.9988 79.3254 10.6106C79.5716 10.2176 79.9007 9.90982 80.3126 9.68728C80.7245 9.46474 81.1791 9.29902 81.6762 9.19012C82.1781 9.07648 82.6824 8.98652 83.189 8.92023C83.8519 8.83501 84.3893 8.77108 84.8012 8.72847C85.2179 8.68112 85.5209 8.603 85.7103 8.4941C85.9045 8.38519 86.0015 8.1958 86.0015 7.92591V7.8691C86.0015 7.16834 85.8098 6.62383 85.4262 6.23557C85.0475 5.84732 84.4722 5.65319 83.7004 5.65319C82.9002 5.65319 82.2728 5.82838 81.8183 6.17876C81.3637 6.52913 81.0441 6.90319 80.8595 7.30091L79.2686 6.73273C79.5527 6.06985 79.9315 5.55375 80.4049 5.18444C80.8832 4.81038 81.404 4.54997 81.9674 4.40319C82.5356 4.25167 83.0943 4.17591 83.6436 4.17591C83.994 4.17591 84.3964 4.21853 84.851 4.30375C85.3102 4.38425 85.753 4.55233 86.1791 4.80802C86.61 5.0637 86.9674 5.44959 87.2515 5.96569C87.5356 6.48179 87.6777 7.17307 87.6777 8.03955V15.2271H86.0015V13.7498H85.9163C85.8027 13.9865 85.6133 14.2398 85.3481 14.5097C85.083 14.7796 84.7302 15.0092 84.2899 15.1986C83.8495 15.388 83.3121 15.4827 82.6777 15.4827ZM82.9333 13.9771C83.5962 13.9771 84.1549 13.8468 84.6095 13.5864C85.0688 13.326 85.4144 12.9898 85.6464 12.5779C85.8832 12.166 86.0015 11.7327 86.0015 11.2782V9.7441C85.9305 9.82932 85.7743 9.90745 85.5328 9.97847C85.296 10.0448 85.0214 10.1039 84.7089 10.156C84.4012 10.2034 84.1005 10.246 83.8069 10.2839C83.5181 10.317 83.2837 10.3454 83.1038 10.3691C82.6682 10.4259 82.261 10.5182 81.8822 10.6461C81.5082 10.7692 81.2051 10.9562 80.9731 11.2072C80.7458 11.4534 80.6322 11.7896 80.6322 12.2157C80.6322 12.7981 80.8476 13.2384 81.2785 13.5367C81.7141 13.8303 82.2657 13.9771 82.9333 13.9771ZM95.4813 4.31796V5.73841H89.8279V4.31796H95.4813ZM91.4756 1.70432H93.1517V12.1021C93.1517 12.5755 93.2204 12.9306 93.3577 13.1674C93.4998 13.3994 93.6797 13.5556 93.8975 13.6361C94.12 13.7119 94.3544 13.7498 94.6006 13.7498C94.7853 13.7498 94.9368 13.7403 95.0552 13.7214C95.1735 13.6977 95.2682 13.6788 95.3392 13.6646L95.6802 15.1702C95.5665 15.2128 95.4079 15.2555 95.2043 15.2981C95.0007 15.3454 94.7427 15.3691 94.4302 15.3691C93.9567 15.3691 93.4927 15.2673 93.0381 15.0637C92.5883 14.8601 92.2142 14.55 91.9159 14.1333C91.6224 13.7166 91.4756 13.1911 91.4756 12.5566V1.70432ZM98.0026 15.2271V4.31796H99.6787V15.2271H98.0026ZM98.8549 2.49978C98.5282 2.49978 98.2464 2.38851 98.0097 2.16597C97.7777 1.94343 97.6617 1.67591 97.6617 1.36341C97.6617 1.05091 97.7777 0.783395 98.0097 0.560857C98.2464 0.33832 98.5282 0.227051 98.8549 0.227051C99.1816 0.227051 99.4609 0.33832 99.6929 0.560857C99.9297 0.783395 100.048 1.05091 100.048 1.36341C100.048 1.67591 99.9297 1.94343 99.6929 2.16597C99.4609 2.38851 99.1816 2.49978 98.8549 2.49978ZM107.181 15.4543C106.196 15.4543 105.332 15.2199 104.588 14.7512C103.85 14.2824 103.272 13.6267 102.855 12.7839C102.443 11.9411 102.237 10.9562 102.237 9.82932C102.237 8.69296 102.443 7.70101 102.855 6.85347C103.272 6.00593 103.85 5.34779 104.588 4.87904C105.332 4.41029 106.196 4.17591 107.181 4.17591C108.165 4.17591 109.027 4.41029 109.766 4.87904C110.509 5.34779 111.087 6.00593 111.499 6.85347C111.915 7.70101 112.124 8.69296 112.124 9.82932C112.124 10.9562 111.915 11.9411 111.499 12.7839C111.087 13.6267 110.509 14.2824 109.766 14.7512C109.027 15.2199 108.165 15.4543 107.181 15.4543ZM107.181 13.9486C107.929 13.9486 108.544 13.7569 109.027 13.3734C109.51 12.9898 109.868 12.4856 110.1 11.8606C110.332 11.2356 110.448 10.5585 110.448 9.82932C110.448 9.10016 110.332 8.42071 110.1 7.79097C109.868 7.16124 109.51 6.65224 109.027 6.26398C108.544 5.87572 107.929 5.6816 107.181 5.6816C106.432 5.6816 105.817 5.87572 105.334 6.26398C104.851 6.65224 104.493 7.16124 104.261 7.79097C104.029 8.42071 103.913 9.10016 103.913 9.82932C103.913 10.5585 104.029 11.2356 104.261 11.8606C104.493 12.4856 104.851 12.9898 105.334 13.3734C105.817 13.7569 106.432 13.9486 107.181 13.9486ZM116.358 8.66455V15.2271H114.682V4.31796H116.302V6.02251H116.444C116.699 5.46853 117.088 5.02345 117.608 4.68728C118.129 4.34637 118.802 4.17591 119.625 4.17591C120.364 4.17591 121.01 4.32743 121.564 4.63046C122.118 4.92876 122.549 5.3833 122.857 5.9941C123.165 6.60016 123.319 7.3672 123.319 8.29523V15.2271H121.643V8.40887C121.643 7.55186 121.42 6.88425 120.975 6.40603C120.53 5.92307 119.919 5.6816 119.143 5.6816C118.607 5.6816 118.129 5.7976 117.708 6.02961C117.291 6.26161 116.962 6.60016 116.721 7.04523C116.479 7.49031 116.358 8.03008 116.358 8.66455ZM132.632 8.21001V9.77251H126.268V8.21001H132.632ZM138.791 15.4827C138.1 15.4827 137.472 15.3525 136.909 15.0921C136.345 14.827 135.898 14.4458 135.567 13.9486C135.235 13.4467 135.069 12.8407 135.069 12.1305C135.069 11.5055 135.192 10.9988 135.439 10.6106C135.685 10.2176 136.014 9.90982 136.426 9.68728C136.838 9.46474 137.292 9.29902 137.79 9.19012C138.291 9.07648 138.796 8.98652 139.302 8.92023C139.965 8.83501 140.503 8.77108 140.915 8.72847C141.331 8.68112 141.634 8.603 141.824 8.4941C142.018 8.38519 142.115 8.1958 142.115 7.92591V7.8691C142.115 7.16834 141.923 6.62383 141.54 6.23557C141.161 5.84732 140.585 5.65319 139.814 5.65319C139.013 5.65319 138.386 5.82838 137.932 6.17876C137.477 6.52913 137.157 6.90319 136.973 7.30091L135.382 6.73273C135.666 6.06985 136.045 5.55375 136.518 5.18444C136.996 4.81038 137.517 4.54997 138.081 4.40319C138.649 4.25167 139.208 4.17591 139.757 4.17591C140.107 4.17591 140.51 4.21853 140.964 4.30375C141.424 4.38425 141.866 4.55233 142.292 4.80802C142.723 5.0637 143.081 5.44959 143.365 5.96569C143.649 6.48179 143.791 7.17307 143.791 8.03955V15.2271H142.115V13.7498H142.03C141.916 13.9865 141.727 14.2398 141.461 14.5097C141.196 14.7796 140.844 15.0092 140.403 15.1986C139.963 15.388 139.425 15.4827 138.791 15.4827ZM139.047 13.9771C139.71 13.9771 140.268 13.8468 140.723 13.5864C141.182 13.326 141.528 12.9898 141.76 12.5779C141.996 12.166 142.115 11.7327 142.115 11.2782V9.7441C142.044 9.82932 141.888 9.90745 141.646 9.97847C141.409 10.0448 141.135 10.1039 140.822 10.156C140.514 10.2034 140.214 10.246 139.92 10.2839C139.631 10.317 139.397 10.3454 139.217 10.3691C138.781 10.4259 138.374 10.5182 137.995 10.6461C137.621 10.7692 137.318 10.9562 137.086 11.2072C136.859 11.4534 136.745 11.7896 136.745 12.2157C136.745 12.7981 136.961 13.2384 137.392 13.5367C137.827 13.8303 138.379 13.9771 139.047 13.9771ZM154.578 6.76114L153.072 7.18728C152.977 6.93633 152.837 6.69249 152.653 6.45574C152.473 6.21427 152.227 6.0154 151.914 5.85915C151.602 5.7029 151.202 5.62478 150.714 5.62478C150.046 5.62478 149.49 5.77866 149.045 6.08643C148.605 6.38946 148.384 6.77535 148.384 7.2441C148.384 7.66076 148.536 7.98983 148.839 8.23131C149.142 8.47279 149.615 8.67402 150.259 8.83501L151.879 9.23273C152.854 9.46947 153.581 9.83169 154.059 10.3194C154.537 10.8023 154.776 11.425 154.776 12.1873C154.776 12.8123 154.596 13.371 154.237 13.8634C153.882 14.3558 153.384 14.7441 152.745 15.0282C152.106 15.3123 151.363 15.4543 150.515 15.4543C149.402 15.4543 148.481 15.2128 147.752 14.7299C147.023 14.2469 146.561 13.5414 146.367 12.6134L147.958 12.2157C148.11 12.8028 148.396 13.2431 148.818 13.5367C149.244 13.8303 149.8 13.9771 150.487 13.9771C151.268 13.9771 151.888 13.8113 152.347 13.4799C152.811 13.1437 153.043 12.7413 153.043 12.2725C153.043 11.8937 152.911 11.5765 152.646 11.3208C152.381 11.0604 151.973 10.8663 151.424 10.7384L149.606 10.3123C148.607 10.0755 147.873 9.70858 147.404 9.21143C146.94 8.70953 146.708 8.08216 146.708 7.32932C146.708 6.71379 146.881 6.16929 147.227 5.6958C147.577 5.22232 148.053 4.85063 148.654 4.58074C149.26 4.31086 149.947 4.17591 150.714 4.17591C151.793 4.17591 152.641 4.41266 153.257 4.88614C153.877 5.35963 154.317 5.98463 154.578 6.76114ZM165.027 6.76114L163.521 7.18728C163.426 6.93633 163.287 6.69249 163.102 6.45574C162.922 6.21427 162.676 6.0154 162.363 5.85915C162.051 5.7029 161.651 5.62478 161.163 5.62478C160.495 5.62478 159.939 5.77866 159.494 6.08643C159.054 6.38946 158.834 6.77535 158.834 7.2441C158.834 7.66076 158.985 7.98983 159.288 8.23131C159.591 8.47279 160.065 8.67402 160.709 8.83501L162.328 9.23273C163.303 9.46947 164.03 9.83169 164.508 10.3194C164.986 10.8023 165.226 11.425 165.226 12.1873C165.226 12.8123 165.046 13.371 164.686 13.8634C164.331 14.3558 163.834 14.7441 163.194 15.0282C162.555 15.3123 161.812 15.4543 160.964 15.4543C159.852 15.4543 158.931 15.2128 158.201 14.7299C157.472 14.2469 157.011 13.5414 156.817 12.6134L158.407 12.2157C158.559 12.8028 158.845 13.2431 159.267 13.5367C159.693 13.8303 160.249 13.9771 160.936 13.9771C161.717 13.9771 162.337 13.8113 162.797 13.4799C163.261 13.1437 163.493 12.7413 163.493 12.2725C163.493 11.8937 163.36 11.5765 163.095 11.3208C162.83 11.0604 162.423 10.8663 161.873 10.7384L160.055 10.3123C159.056 10.0755 158.322 9.70858 157.853 9.21143C157.389 8.70953 157.157 8.08216 157.157 7.32932C157.157 6.71379 157.33 6.16929 157.676 5.6958C158.026 5.22232 158.502 4.85063 159.103 4.58074C159.71 4.31086 160.396 4.17591 161.163 4.17591C162.243 4.17591 163.09 4.41266 163.706 4.88614C164.326 5.35963 164.766 5.98463 165.027 6.76114ZM172.181 15.4543C171.196 15.4543 170.332 15.2199 169.588 14.7512C168.85 14.2824 168.272 13.6267 167.855 12.7839C167.443 11.9411 167.237 10.9562 167.237 9.82932C167.237 8.69296 167.443 7.70101 167.855 6.85347C168.272 6.00593 168.85 5.34779 169.588 4.87904C170.332 4.41029 171.196 4.17591 172.181 4.17591C173.165 4.17591 174.027 4.41029 174.766 4.87904C175.509 5.34779 176.087 6.00593 176.499 6.85347C176.915 7.70101 177.124 8.69296 177.124 9.82932C177.124 10.9562 176.915 11.9411 176.499 12.7839C176.087 13.6267 175.509 14.2824 174.766 14.7512C174.027 15.2199 173.165 15.4543 172.181 15.4543ZM172.181 13.9486C172.929 13.9486 173.544 13.7569 174.027 13.3734C174.51 12.9898 174.868 12.4856 175.1 11.8606C175.332 11.2356 175.448 10.5585 175.448 9.82932C175.448 9.10016 175.332 8.42071 175.1 7.79097C174.868 7.16124 174.51 6.65224 174.027 6.26398C173.544 5.87572 172.929 5.6816 172.181 5.6816C171.432 5.6816 170.817 5.87572 170.334 6.26398C169.851 6.65224 169.493 7.16124 169.261 7.79097C169.029 8.42071 168.913 9.10016 168.913 9.82932C168.913 10.5585 169.029 11.2356 169.261 11.8606C169.493 12.4856 169.851 12.9898 170.334 13.3734C170.817 13.7569 171.432 13.9486 172.181 13.9486ZM184.114 15.4543C183.091 15.4543 182.211 15.2128 181.472 14.7299C180.733 14.2469 180.165 13.5817 179.768 12.7342C179.37 11.8866 179.171 10.9183 179.171 9.82932C179.171 8.72137 179.375 7.74362 179.782 6.89608C180.194 6.04381 180.767 5.37857 181.5 4.90035C182.239 4.41739 183.101 4.17591 184.086 4.17591C184.853 4.17591 185.544 4.31796 186.16 4.60205C186.775 4.88614 187.279 5.28387 187.672 5.79523C188.065 6.3066 188.309 6.90319 188.404 7.58501H186.728C186.6 7.08785 186.316 6.6475 185.875 6.26398C185.44 5.87572 184.853 5.6816 184.114 5.6816C183.461 5.6816 182.888 5.85205 182.395 6.19296C181.908 6.52913 181.527 7.00499 181.252 7.62052C180.982 8.23131 180.847 8.94864 180.847 9.77251C180.847 10.6153 180.98 11.3492 181.245 11.9742C181.515 12.5992 181.893 13.0845 182.381 13.4302C182.874 13.7758 183.451 13.9486 184.114 13.9486C184.55 13.9486 184.945 13.8729 185.3 13.7214C185.655 13.5699 185.956 13.3521 186.202 13.068C186.448 12.7839 186.624 12.443 186.728 12.0452H188.404C188.309 12.6892 188.075 13.2692 187.701 13.7853C187.331 14.2967 186.841 14.7039 186.231 15.0069C185.625 15.3052 184.919 15.4543 184.114 15.4543ZM190.854 15.2271V4.31796H192.53V15.2271H190.854ZM191.706 2.49978C191.38 2.49978 191.098 2.38851 190.861 2.16597C190.629 1.94343 190.513 1.67591 190.513 1.36341C190.513 1.05091 190.629 0.783395 190.861 0.560857C191.098 0.33832 191.38 0.227051 191.706 0.227051C192.033 0.227051 192.312 0.33832 192.545 0.560857C192.781 0.783395 192.9 1.05091 192.9 1.36341C192.9 1.67591 192.781 1.94343 192.545 2.16597C192.312 2.38851 192.033 2.49978 191.706 2.49978ZM198.81 15.4827C198.119 15.4827 197.492 15.3525 196.928 15.0921C196.365 14.827 195.917 14.4458 195.586 13.9486C195.255 13.4467 195.089 12.8407 195.089 12.1305C195.089 11.5055 195.212 10.9988 195.458 10.6106C195.704 10.2176 196.033 9.90982 196.445 9.68728C196.857 9.46474 197.312 9.29902 197.809 9.19012C198.311 9.07648 198.815 8.98652 199.322 8.92023C199.985 8.83501 200.522 8.77108 200.934 8.72847C201.351 8.68112 201.654 8.603 201.843 8.4941C202.037 8.38519 202.134 8.1958 202.134 7.92591V7.8691C202.134 7.16834 201.943 6.62383 201.559 6.23557C201.18 5.84732 200.605 5.65319 199.833 5.65319C199.033 5.65319 198.406 5.82838 197.951 6.17876C197.497 6.52913 197.177 6.90319 196.992 7.30091L195.401 6.73273C195.685 6.06985 196.064 5.55375 196.538 5.18444C197.016 4.81038 197.537 4.54997 198.1 4.40319C198.668 4.25167 199.227 4.17591 199.776 4.17591C200.127 4.17591 200.529 4.21853 200.984 4.30375C201.443 4.38425 201.886 4.55233 202.312 4.80802C202.743 5.0637 203.1 5.44959 203.384 5.96569C203.668 6.48179 203.81 7.17307 203.81 8.03955V15.2271H202.134V13.7498H202.049C201.935 13.9865 201.746 14.2398 201.481 14.5097C201.216 14.7796 200.863 15.0092 200.423 15.1986C199.982 15.388 199.445 15.4827 198.81 15.4827ZM199.066 13.9771C199.729 13.9771 200.288 13.8468 200.742 13.5864C201.202 13.326 201.547 12.9898 201.779 12.5779C202.016 12.166 202.134 11.7327 202.134 11.2782V9.7441C202.063 9.82932 201.907 9.90745 201.666 9.97847C201.429 10.0448 201.154 10.1039 200.842 10.156C200.534 10.2034 200.233 10.246 199.94 10.2839C199.651 10.317 199.417 10.3454 199.237 10.3691C198.801 10.4259 198.394 10.5182 198.015 10.6461C197.641 10.7692 197.338 10.9562 197.106 11.2072C196.879 11.4534 196.765 11.7896 196.765 12.2157C196.765 12.7981 196.98 13.2384 197.411 13.5367C197.847 13.8303 198.399 13.9771 199.066 13.9771ZM211.614 4.31796V5.73841H205.961V4.31796H211.614ZM207.608 1.70432H209.285V12.1021C209.285 12.5755 209.353 12.9306 209.491 13.1674C209.633 13.3994 209.812 13.5556 210.03 13.6361C210.253 13.7119 210.487 13.7498 210.733 13.7498C210.918 13.7498 211.07 13.7403 211.188 13.7214C211.306 13.6977 211.401 13.6788 211.472 13.6646L211.813 15.1702C211.699 15.2128 211.541 15.2555 211.337 15.2981C211.134 15.3454 210.875 15.3691 210.563 15.3691C210.089 15.3691 209.625 15.2673 209.171 15.0637C208.721 14.8601 208.347 14.55 208.049 14.1333C207.755 13.7166 207.608 13.1911 207.608 12.5566V1.70432ZM218.592 15.4543C217.541 15.4543 216.634 15.2223 215.872 14.7583C215.114 14.2896 214.53 13.6361 214.118 12.7981C213.71 11.9553 213.507 10.9752 213.507 9.85773C213.507 8.74031 213.71 7.75546 214.118 6.90319C214.53 6.04618 215.103 5.37857 215.836 4.90035C216.575 4.41739 217.437 4.17591 218.422 4.17591C218.99 4.17591 219.551 4.27061 220.105 4.46C220.659 4.6494 221.163 4.95716 221.618 5.3833C222.072 5.8047 222.434 6.36341 222.704 7.05944C222.974 7.75546 223.109 8.61247 223.109 9.63046V10.3407H214.7V8.89182H221.405C221.405 8.27629 221.281 7.72705 221.035 7.2441C220.794 6.76114 220.448 6.37999 219.998 6.10063C219.553 5.82127 219.028 5.6816 218.422 5.6816C217.754 5.6816 217.176 5.84732 216.689 6.17876C216.206 6.50546 215.834 6.9316 215.574 7.45716C215.313 7.98273 215.183 8.54618 215.183 9.14751V10.1134C215.183 10.9373 215.325 11.6357 215.609 12.2086C215.898 12.7768 216.298 13.21 216.809 13.5083C217.321 13.8019 217.915 13.9486 218.592 13.9486C219.032 13.9486 219.43 13.8871 219.785 13.764C220.145 13.6361 220.455 13.4467 220.716 13.1958C220.976 12.9401 221.177 12.6229 221.319 12.2441L222.939 12.6986C222.768 13.2479 222.482 13.7308 222.079 14.1475C221.677 14.5594 221.18 14.8814 220.588 15.1134C219.996 15.3407 219.331 15.4543 218.592 15.4543ZM229.778 15.4543C228.869 15.4543 228.067 15.2247 227.37 14.7654C226.674 14.3014 226.13 13.648 225.737 12.8052C225.344 11.9576 225.147 10.9562 225.147 9.80091C225.147 8.65508 225.344 7.66076 225.737 6.81796C226.13 5.97516 226.677 5.32411 227.378 4.86483C228.078 4.40555 228.888 4.17591 229.807 4.17591C230.517 4.17591 231.078 4.29429 231.49 4.53103C231.906 4.76304 232.224 5.02819 232.442 5.32648C232.664 5.62004 232.837 5.86152 232.96 6.05091H233.102V0.681596H234.778V15.2271H233.159V13.5509H232.96C232.837 13.7498 232.662 14.0007 232.434 14.3038C232.207 14.6021 231.883 14.8696 231.461 15.1063C231.04 15.3383 230.479 15.4543 229.778 15.4543ZM230.005 13.9486C230.678 13.9486 231.246 13.7735 231.71 13.4231C232.174 13.068 232.527 12.5779 232.768 11.9529C233.01 11.3232 233.13 10.5964 233.13 9.77251C233.13 8.95811 233.012 8.24552 232.775 7.63472C232.539 7.01919 232.188 6.54097 231.724 6.20006C231.26 5.85442 230.687 5.6816 230.005 5.6816C229.295 5.6816 228.703 5.86389 228.23 6.22847C227.761 6.58832 227.408 7.07838 227.172 7.69864C226.94 8.31417 226.824 9.00546 226.824 9.77251C226.824 10.549 226.942 11.2545 227.179 11.889C227.42 12.5187 227.775 13.0206 228.244 13.3947C228.718 13.764 229.305 13.9486 230.005 13.9486ZM8.21034 30.7611L6.70466 31.1873C6.60996 30.9363 6.47028 30.6925 6.28562 30.4557C6.1057 30.2143 5.85949 30.0154 5.54699 29.8592C5.23449 29.7029 4.83439 29.6248 4.3467 29.6248C3.67909 29.6248 3.12274 29.7787 2.67767 30.0864C2.23733 30.3895 2.01716 30.7753 2.01716 31.2441C2.01716 31.6608 2.16867 31.9898 2.4717 32.2313C2.77473 32.4728 3.24822 32.674 3.89216 32.835L5.51147 33.2327C6.48685 33.4695 7.21365 33.8317 7.69187 34.3194C8.17009 34.8023 8.4092 35.425 8.4092 36.1873C8.4092 36.8123 8.22928 37.371 7.86943 37.8634C7.51432 38.3558 7.01716 38.7441 6.37795 39.0282C5.73875 39.3123 4.99538 39.4543 4.14784 39.4543C3.03515 39.4543 2.11422 39.2128 1.38505 38.7299C0.655888 38.2469 0.19424 37.5414 0.000111014 36.6134L1.59102 36.2157C1.74254 36.8028 2.02899 37.2431 2.4504 37.5367C2.87653 37.8303 3.43288 37.9771 4.11943 37.9771C4.90068 37.9771 5.52094 37.8113 5.98022 37.4799C6.44424 37.1437 6.67625 36.7413 6.67625 36.2725C6.67625 35.8937 6.54367 35.5765 6.27852 35.3208C6.01337 35.0604 5.60617 34.8663 5.05693 34.7384L3.23875 34.3123C2.23969 34.0755 1.50579 33.7086 1.03704 33.2114C0.573028 32.7095 0.34102 32.0822 0.34102 31.3293C0.34102 30.7138 0.513842 30.1693 0.859486 29.6958C1.20986 29.2223 1.68572 28.8506 2.28704 28.5807C2.8931 28.3109 3.57966 28.1759 4.3467 28.1759C5.42625 28.1759 6.27379 28.4127 6.88932 28.8861C7.50958 29.3596 7.94992 29.9846 8.21034 30.7611ZM10.9323 39.2271V28.318H12.6084V39.2271H10.9323ZM11.7846 26.4998C11.4579 26.4998 11.1761 26.3885 10.9394 26.166C10.7074 25.9434 10.5914 25.6759 10.5914 25.3634C10.5914 25.0509 10.7074 24.7834 10.9394 24.5609C11.1761 24.3383 11.4579 24.2271 11.7846 24.2271C12.1113 24.2271 12.3906 24.3383 12.6226 24.5609C12.8594 24.7834 12.9777 25.0509 12.9777 25.3634C12.9777 25.6759 12.8594 25.9434 12.6226 26.166C12.3906 26.3885 12.1113 26.4998 11.7846 26.4998ZM20.0818 43.5452C19.2721 43.5452 18.5761 43.4411 17.9937 43.2327C17.4113 43.0291 16.926 42.7592 16.5378 42.4231C16.1542 42.0916 15.8488 41.7365 15.6216 41.3577L16.9568 40.4202C17.1083 40.6191 17.3001 40.8464 17.5321 41.1021C17.7641 41.3625 18.0813 41.5874 18.4838 41.7768C18.891 41.9709 19.4236 42.068 20.0818 42.068C20.9625 42.068 21.6893 41.8549 22.2622 41.4288C22.8351 41.0026 23.1216 40.335 23.1216 39.4259V37.21H22.9795C22.8564 37.4089 22.6812 37.6551 22.4539 37.9486C22.2314 38.2375 21.9094 38.4955 21.488 38.7228C21.0714 38.9453 20.5079 39.0566 19.7977 39.0566C18.917 39.0566 18.1263 38.8483 17.4255 38.4316C16.7295 38.0149 16.1779 37.4089 15.7707 36.6134C15.3682 35.818 15.167 34.8521 15.167 33.7157C15.167 32.5983 15.3635 31.6253 15.7565 30.7967C16.1495 29.9633 16.6964 29.3194 17.3971 28.8648C18.0979 28.4056 18.9075 28.1759 19.8261 28.1759C20.5363 28.1759 21.0998 28.2943 21.5164 28.531C21.9378 28.763 22.2598 29.0282 22.4824 29.3265C22.7096 29.62 22.8848 29.8615 23.0079 30.0509H23.1784V28.318H24.7977V39.5396C24.7977 40.4771 24.5846 41.2394 24.1585 41.8265C23.7371 42.4183 23.1689 42.8516 22.4539 43.1262C21.7437 43.4056 20.953 43.5452 20.0818 43.5452ZM20.025 37.5509C20.6973 37.5509 21.2655 37.397 21.7295 37.0893C22.1935 36.7815 22.5463 36.3388 22.7878 35.7611C23.0292 35.1835 23.15 34.4922 23.15 33.6873C23.15 32.9013 23.0316 32.2076 22.7949 31.6063C22.5581 31.005 22.2077 30.5339 21.7437 30.193C21.2797 29.8521 20.7068 29.6816 20.025 29.6816C19.3147 29.6816 18.7229 29.8615 18.2494 30.2214C17.7807 30.5812 17.4279 31.0642 17.1912 31.6702C16.9592 32.2763 16.8432 32.9486 16.8432 33.6873C16.8432 34.4449 16.9615 35.1148 17.1983 35.6972C17.4397 36.2749 17.7949 36.7294 18.2636 37.0609C18.7371 37.3876 19.3242 37.5509 20.025 37.5509ZM29.542 32.6646V39.2271H27.8659V28.318H29.4852V30.0225H29.6272C29.8829 29.4685 30.2712 29.0235 30.792 28.6873C31.3128 28.3464 31.9852 28.1759 32.8091 28.1759C33.5477 28.1759 34.194 28.3274 34.748 28.6305C35.302 28.9288 35.7328 29.3833 36.0406 29.9941C36.3484 30.6002 36.5022 31.3672 36.5022 32.2952V39.2271H34.8261V32.4089C34.8261 31.5519 34.6036 30.8842 34.1585 30.406C33.7134 29.9231 33.1026 29.6816 32.3261 29.6816C31.7911 29.6816 31.3128 29.7976 30.8914 30.0296C30.4748 30.2616 30.1457 30.6002 29.9042 31.0452C29.6628 31.4903 29.542 32.0301 29.542 32.6646ZM42.7753 39.4827C42.084 39.4827 41.4567 39.3525 40.8932 39.0921C40.3298 38.827 39.8823 38.4458 39.5509 37.9486C39.2195 37.4467 39.0537 36.8407 39.0537 36.1305C39.0537 35.5055 39.1768 34.9988 39.4231 34.6106C39.6693 34.2176 39.9983 33.9098 40.4103 33.6873C40.8222 33.4647 41.2767 33.299 41.7739 33.1901C42.2758 33.0765 42.7801 32.9865 43.2867 32.9202C43.9496 32.835 44.487 32.7711 44.8989 32.7285C45.3156 32.6811 45.6186 32.603 45.808 32.4941C46.0021 32.3852 46.0992 32.1958 46.0992 31.9259V31.8691C46.0992 31.1683 45.9074 30.6238 45.5239 30.2356C45.1451 29.8473 44.5698 29.6532 43.7981 29.6532C42.9979 29.6532 42.3705 29.8284 41.9159 30.1788C41.4614 30.5291 41.1418 30.9032 40.9571 31.3009L39.3662 30.7327C39.6503 30.0699 40.0291 29.5538 40.5026 29.1844C40.9808 28.8104 41.5016 28.55 42.0651 28.4032C42.6333 28.2517 43.192 28.1759 43.7412 28.1759C44.0916 28.1759 44.4941 28.2185 44.9486 28.3038C45.4079 28.3842 45.8506 28.5523 46.2767 28.808C46.7076 29.0637 47.0651 29.4496 47.3492 29.9657C47.6333 30.4818 47.7753 31.1731 47.7753 32.0396V39.2271H46.0992V37.7498H46.014C45.9003 37.9865 45.7109 38.2398 45.4458 38.5097C45.1806 38.7796 44.8279 39.0092 44.3875 39.1986C43.9472 39.388 43.4098 39.4827 42.7753 39.4827ZM43.031 37.9771C43.6939 37.9771 44.2526 37.8468 44.7071 37.5864C45.1664 37.326 45.5121 36.9898 45.7441 36.5779C45.9808 36.166 46.0992 35.7327 46.0992 35.2782V33.7441C46.0282 33.8293 45.8719 33.9074 45.6304 33.9785C45.3937 34.0448 45.1191 34.1039 44.8066 34.156C44.4988 34.2034 44.1981 34.246 43.9046 34.2839C43.6158 34.317 43.3814 34.3454 43.2015 34.3691C42.7659 34.4259 42.3587 34.5182 41.9799 34.6461C41.6058 34.7692 41.3028 34.9562 41.0708 35.2072C40.8435 35.4534 40.7299 35.7896 40.7299 36.2157C40.7299 36.7981 40.9453 37.2384 41.3762 37.5367C41.8118 37.8303 42.3634 37.9771 43.031 37.9771ZM52.5108 24.6816V39.2271H50.8346V24.6816H52.5108ZM55.5807 39.2271V28.318H57.2569V39.2271H55.5807ZM56.433 26.4998C56.1063 26.4998 55.8246 26.3885 55.5878 26.166C55.3558 25.9434 55.2398 25.6759 55.2398 25.3634C55.2398 25.0509 55.3558 24.7834 55.5878 24.5609C55.8246 24.3383 56.1063 24.2271 56.433 24.2271C56.7597 24.2271 57.0391 24.3383 57.2711 24.5609C57.5078 24.7834 57.6262 25.0509 57.6262 25.3634C57.6262 25.6759 57.5078 25.9434 57.2711 26.166C57.0391 26.3885 56.7597 26.4998 56.433 26.4998ZM62.003 32.6646V39.2271H60.3268V28.318H61.9461V30.0225H62.0882C62.3439 29.4685 62.7321 29.0235 63.253 28.6873C63.7738 28.3464 64.4461 28.1759 65.27 28.1759C66.0086 28.1759 66.6549 28.3274 67.2089 28.6305C67.7629 28.9288 68.1938 29.3833 68.5015 29.9941C68.8093 30.6002 68.9632 31.3672 68.9632 32.2952V39.2271H67.287V32.4089C67.287 31.5519 67.0645 30.8842 66.6194 30.406C66.1744 29.9231 65.5636 29.6816 64.787 29.6816C64.252 29.6816 63.7738 29.7976 63.3524 30.0296C62.9357 30.2616 62.6066 30.6002 62.3652 31.0452C62.1237 31.4903 62.003 32.0301 62.003 32.6646ZM76.4294 43.5452C75.6198 43.5452 74.9238 43.4411 74.3414 43.2327C73.759 43.0291 73.2737 42.7592 72.8854 42.4231C72.5019 42.0916 72.1965 41.7365 71.9692 41.3577L73.3044 40.4202C73.456 40.6191 73.6477 40.8464 73.8797 41.1021C74.1117 41.3625 74.429 41.5874 74.8314 41.7768C75.2386 41.9709 75.7713 42.068 76.4294 42.068C77.3101 42.068 78.0369 41.8549 78.6098 41.4288C79.1828 41.0026 79.4692 40.335 79.4692 39.4259V37.21H79.3272C79.2041 37.4089 79.0289 37.6551 78.8016 37.9486C78.5791 38.2375 78.2571 38.4955 77.8357 38.7228C77.419 38.9453 76.8556 39.0566 76.1454 39.0566C75.2647 39.0566 74.474 38.8483 73.7732 38.4316C73.0772 38.0149 72.5256 37.4089 72.1184 36.6134C71.7159 35.818 71.5147 34.8521 71.5147 33.7157C71.5147 32.5983 71.7112 31.6253 72.1042 30.7967C72.4972 29.9633 73.044 29.3194 73.7448 28.8648C74.4455 28.4056 75.2552 28.1759 76.1738 28.1759C76.884 28.1759 77.4474 28.2943 77.8641 28.531C78.2855 28.763 78.6075 29.0282 78.83 29.3265C79.0573 29.62 79.2325 29.8615 79.3556 30.0509H79.526V28.318H81.1454V39.5396C81.1454 40.4771 80.9323 41.2394 80.5061 41.8265C80.0847 42.4183 79.5166 42.8516 78.8016 43.1262C78.0914 43.4056 77.3007 43.5452 76.4294 43.5452ZM76.3726 37.5509C77.045 37.5509 77.6132 37.397 78.0772 37.0893C78.5412 36.7815 78.8939 36.3388 79.1354 35.7611C79.3769 35.1835 79.4976 34.4922 79.4976 33.6873C79.4976 32.9013 79.3793 32.2076 79.1425 31.6063C78.9058 31.005 78.5554 30.5339 78.0914 30.193C77.6274 29.8521 77.0544 29.6816 76.3726 29.6816C75.6624 29.6816 75.0705 29.8615 74.5971 30.2214C74.1283 30.5812 73.7756 31.0642 73.5388 31.6702C73.3068 32.2763 73.1908 32.9486 73.1908 33.6873C73.1908 34.4449 73.3092 35.1148 73.5459 35.6972C73.7874 36.2749 74.1425 36.7294 74.6113 37.0609C75.0847 37.3876 75.6719 37.5509 76.3726 37.5509ZM89.8385 43.318V28.318H91.4579V30.0509H91.6567C91.7798 29.8615 91.9503 29.62 92.1681 29.3265C92.3906 29.0282 92.7079 28.763 93.1198 28.531C93.5365 28.2943 94.0999 28.1759 94.8101 28.1759C95.7287 28.1759 96.5383 28.4056 97.2391 28.8648C97.9399 29.3241 98.4867 29.9752 98.8797 30.818C99.2727 31.6608 99.4692 32.6551 99.4692 33.8009C99.4692 34.9562 99.2727 35.9576 98.8797 36.8052C98.4867 37.648 97.9422 38.3014 97.2462 38.7654C96.5502 39.2247 95.7476 39.4543 94.8385 39.4543C94.1378 39.4543 93.5767 39.3383 93.1553 39.1063C92.7339 38.8696 92.4096 38.6021 92.1823 38.3038C91.955 38.0007 91.7798 37.7498 91.6567 37.5509H91.5147V43.318H89.8385ZM91.4863 33.7725C91.4863 34.5964 91.607 35.3232 91.8485 35.9529C92.09 36.5779 92.4427 37.068 92.9067 37.4231C93.3707 37.7735 93.9389 37.9486 94.6113 37.9486C95.312 37.9486 95.8968 37.764 96.3655 37.3947C96.839 37.0206 97.1941 36.5187 97.4309 35.889C97.6723 35.2545 97.7931 34.549 97.7931 33.7725C97.7931 33.0055 97.6747 32.3142 97.438 31.6986C97.206 31.0784 96.8532 30.5883 96.3797 30.2285C95.911 29.8639 95.3215 29.6816 94.6113 29.6816C93.9294 29.6816 93.3565 29.8544 92.8925 30.2001C92.4285 30.541 92.0781 31.0192 91.8414 31.6347C91.6046 32.2455 91.4863 32.9581 91.4863 33.7725ZM105.236 39.4827C104.545 39.4827 103.918 39.3525 103.354 39.0921C102.791 38.827 102.343 38.4458 102.012 37.9486C101.68 37.4467 101.515 36.8407 101.515 36.1305C101.515 35.5055 101.638 34.9988 101.884 34.6106C102.13 34.2176 102.459 33.9098 102.871 33.6873C103.283 33.4647 103.738 33.299 104.235 33.1901C104.737 33.0765 105.241 32.9865 105.748 32.9202C106.411 32.835 106.948 32.7711 107.36 32.7285C107.777 32.6811 108.08 32.603 108.269 32.4941C108.463 32.3852 108.56 32.1958 108.56 31.9259V31.8691C108.56 31.1683 108.368 30.6238 107.985 30.2356C107.606 29.8473 107.031 29.6532 106.259 29.6532C105.459 29.6532 104.831 29.8284 104.377 30.1788C103.922 30.5291 103.603 30.9032 103.418 31.3009L101.827 30.7327C102.111 30.0699 102.49 29.5538 102.964 29.1844C103.442 28.8104 103.963 28.55 104.526 28.4032C105.094 28.2517 105.653 28.1759 106.202 28.1759C106.553 28.1759 106.955 28.2185 107.41 28.3038C107.869 28.3842 108.312 28.5523 108.738 28.808C109.169 29.0637 109.526 29.4496 109.81 29.9657C110.094 30.4818 110.236 31.1731 110.236 32.0396V39.2271H108.56V37.7498H108.475C108.361 37.9865 108.172 38.2398 107.907 38.5097C107.642 38.7796 107.289 39.0092 106.848 39.1986C106.408 39.388 105.871 39.4827 105.236 39.4827ZM105.492 37.9771C106.155 37.9771 106.714 37.8468 107.168 37.5864C107.627 37.326 107.973 36.9898 108.205 36.5779C108.442 36.166 108.56 35.7327 108.56 35.2782V33.7441C108.489 33.8293 108.333 33.9074 108.091 33.9785C107.855 34.0448 107.58 34.1039 107.268 34.156C106.96 34.2034 106.659 34.246 106.366 34.2839C106.077 34.317 105.842 34.3454 105.662 34.3691C105.227 34.4259 104.82 34.5182 104.441 34.6461C104.067 34.7692 103.764 34.9562 103.532 35.2072C103.304 35.4534 103.191 35.7896 103.191 36.2157C103.191 36.7981 103.406 37.2384 103.837 37.5367C104.273 37.8303 104.824 37.9771 105.492 37.9771ZM118.04 28.318V29.7384H112.386V28.318H118.04ZM114.034 25.7043H115.71V36.1021C115.71 36.5755 115.779 36.9306 115.916 37.1674C116.058 37.3994 116.238 37.5556 116.456 37.6361C116.679 37.7119 116.913 37.7498 117.159 37.7498C117.344 37.7498 117.495 37.7403 117.614 37.7214C117.732 37.6977 117.827 37.6788 117.898 37.6646L118.239 39.1702C118.125 39.2128 117.966 39.2555 117.763 39.2981C117.559 39.3454 117.301 39.3691 116.989 39.3691C116.515 39.3691 116.051 39.2673 115.597 39.0637C115.147 38.8601 114.773 38.55 114.475 38.1333C114.181 37.7166 114.034 37.1911 114.034 36.5566V25.7043ZM122.472 32.6646V39.2271H120.796V24.6816H122.472V30.0225H122.614C122.869 29.4591 123.253 29.0116 123.764 28.6802C124.28 28.344 124.967 28.1759 125.824 28.1759C126.567 28.1759 127.218 28.3251 127.777 28.6234C128.336 28.9169 128.769 29.3691 129.077 29.9799C129.389 30.586 129.546 31.3577 129.546 32.2952V39.2271H127.869V32.4089C127.869 31.5424 127.645 30.8724 127.195 30.3989C126.75 29.9207 126.132 29.6816 125.341 29.6816C124.792 29.6816 124.299 29.7976 123.864 30.0296C123.433 30.2616 123.092 30.6002 122.841 31.0452C122.595 31.4903 122.472 32.0301 122.472 32.6646ZM135.084 39.2271L131.76 28.318H133.521L135.879 36.6702H135.993L138.322 28.318H140.112L142.413 36.6418H142.527L144.885 28.318H146.646L143.322 39.2271H141.674L139.288 30.8464H139.118L136.731 39.2271H135.084ZM152.072 39.4827C151.381 39.4827 150.754 39.3525 150.19 39.0921C149.627 38.827 149.179 38.4458 148.848 37.9486C148.516 37.4467 148.351 36.8407 148.351 36.1305C148.351 35.5055 148.474 34.9988 148.72 34.6106C148.966 34.2176 149.295 33.9098 149.707 33.6873C150.119 33.4647 150.574 33.299 151.071 33.1901C151.573 33.0765 152.077 32.9865 152.584 32.9202C153.246 32.835 153.784 32.7711 154.196 32.7285C154.612 32.6811 154.915 32.603 155.105 32.4941C155.299 32.3852 155.396 32.1958 155.396 31.9259V31.8691C155.396 31.1683 155.204 30.6238 154.821 30.2356C154.442 29.8473 153.867 29.6532 153.095 29.6532C152.295 29.6532 151.667 29.8284 151.213 30.1788C150.758 30.5291 150.439 30.9032 150.254 31.3009L148.663 30.7327C148.947 30.0699 149.326 29.5538 149.799 29.1844C150.278 28.8104 150.799 28.55 151.362 28.4032C151.93 28.2517 152.489 28.1759 153.038 28.1759C153.388 28.1759 153.791 28.2185 154.245 28.3038C154.705 28.3842 155.147 28.5523 155.574 28.808C156.004 29.0637 156.362 29.4496 156.646 29.9657C156.93 30.4818 157.072 31.1731 157.072 32.0396V39.2271H155.396V37.7498H155.311C155.197 37.9865 155.008 38.2398 154.743 38.5097C154.478 38.7796 154.125 39.0092 153.684 39.1986C153.244 39.388 152.707 39.4827 152.072 39.4827ZM152.328 37.9771C152.991 37.9771 153.549 37.8468 154.004 37.5864C154.463 37.326 154.809 36.9898 155.041 36.5779C155.278 36.166 155.396 35.7327 155.396 35.2782V33.7441C155.325 33.8293 155.169 33.9074 154.927 33.9785C154.691 34.0448 154.416 34.1039 154.103 34.156C153.796 34.2034 153.495 34.246 153.201 34.2839C152.913 34.317 152.678 34.3454 152.498 34.3691C152.063 34.4259 151.656 34.5182 151.277 34.6461C150.903 34.7692 150.6 34.9562 150.368 35.2072C150.14 35.4534 150.027 35.7896 150.027 36.2157C150.027 36.7981 150.242 37.2384 150.673 37.5367C151.109 37.8303 151.66 37.9771 152.328 37.9771ZM160.82 43.318C160.536 43.318 160.283 43.2943 160.06 43.2469C159.838 43.2043 159.684 43.1617 159.599 43.1191L160.025 41.6418C160.432 41.746 160.792 41.7839 161.105 41.7555C161.417 41.7271 161.694 41.5874 161.935 41.3364C162.182 41.0902 162.407 40.6901 162.61 40.1361L162.923 39.2839L158.889 28.318H160.707L163.718 37.0111H163.832L166.843 28.318H168.661L164.031 40.818C163.822 41.3814 163.564 41.8478 163.257 42.2171C162.949 42.5912 162.591 42.8681 162.184 43.0481C161.782 43.228 161.327 43.318 160.82 43.318ZM178.601 30.7611L177.095 31.1873C177.001 30.9363 176.861 30.6925 176.676 30.4557C176.496 30.2143 176.25 30.0154 175.938 29.8592C175.625 29.7029 175.225 29.6248 174.737 29.6248C174.07 29.6248 173.513 29.7787 173.068 30.0864C172.628 30.3895 172.408 30.7753 172.408 31.2441C172.408 31.6608 172.559 31.9898 172.862 32.2313C173.165 32.4728 173.639 32.674 174.283 32.835L175.902 33.2327C176.877 33.4695 177.604 33.8317 178.082 34.3194C178.561 34.8023 178.8 35.425 178.8 36.1873C178.8 36.8123 178.62 37.371 178.26 37.8634C177.905 38.3558 177.408 38.7441 176.769 39.0282C176.129 39.3123 175.386 39.4543 174.538 39.4543C173.426 39.4543 172.505 39.2128 171.776 38.7299C171.047 38.2469 170.585 37.5414 170.391 36.6134L171.982 36.2157C172.133 36.8028 172.42 37.2431 172.841 37.5367C173.267 37.8303 173.824 37.9771 174.51 37.9771C175.291 37.9771 175.912 37.8113 176.371 37.4799C176.835 37.1437 177.067 36.7413 177.067 36.2725C177.067 35.8937 176.934 35.5765 176.669 35.3208C176.404 35.0604 175.997 34.8663 175.448 34.7384L173.629 34.3123C172.63 34.0755 171.896 33.7086 171.428 33.2114C170.964 32.7095 170.732 32.0822 170.732 31.3293C170.732 30.7138 170.904 30.1693 171.25 29.6958C171.6 29.2223 172.076 28.8506 172.678 28.5807C173.284 28.3109 173.97 28.1759 174.737 28.1759C175.817 28.1759 176.664 28.4127 177.28 28.8861C177.9 29.3596 178.341 29.9846 178.601 30.7611ZM188.624 24.6816V39.2271H186.948V24.6816H188.624ZM191.694 39.2271V28.318H193.37V39.2271H191.694ZM192.546 26.4998C192.22 26.4998 191.938 26.3885 191.701 26.166C191.469 25.9434 191.353 25.6759 191.353 25.3634C191.353 25.0509 191.469 24.7834 191.701 24.5609C191.938 24.3383 192.22 24.2271 192.546 24.2271C192.873 24.2271 193.152 24.3383 193.384 24.5609C193.621 24.7834 193.739 25.0509 193.739 25.3634C193.739 25.6759 193.621 25.9434 193.384 26.166C193.152 26.3885 192.873 26.4998 192.546 26.4998ZM198.116 32.6646V39.2271H196.44V28.318H198.059V30.0225H198.201C198.457 29.4685 198.845 29.0235 199.366 28.6873C199.887 28.3464 200.559 28.1759 201.383 28.1759C202.122 28.1759 202.768 28.3274 203.322 28.6305C203.876 28.9288 204.307 29.3833 204.615 29.9941C204.923 30.6002 205.076 31.3672 205.076 32.2952V39.2271H203.4V32.4089C203.4 31.5519 203.178 30.8842 202.733 30.406C202.288 29.9231 201.677 29.6816 200.9 29.6816C200.365 29.6816 199.887 29.7976 199.466 30.0296C199.049 30.2616 198.72 30.6002 198.478 31.0452C198.237 31.4903 198.116 32.0301 198.116 32.6646ZM209.702 35.2498L209.673 33.1759H210.014L214.787 28.318H216.861L211.776 33.46H211.634L209.702 35.2498ZM208.139 39.2271V24.6816H209.815V39.2271H208.139ZM215.071 39.2271L210.81 33.8293L212.003 32.6646L217.202 39.2271H215.071ZM223.143 39.4543C222.092 39.4543 221.185 39.2223 220.423 38.7583C219.665 38.2896 219.08 37.6361 218.668 36.7981C218.261 35.9553 218.058 34.9752 218.058 33.8577C218.058 32.7403 218.261 31.7555 218.668 30.9032C219.08 30.0462 219.653 29.3786 220.387 28.9003C221.126 28.4174 221.988 28.1759 222.972 28.1759C223.541 28.1759 224.102 28.2706 224.656 28.46C225.21 28.6494 225.714 28.9572 226.168 29.3833C226.623 29.8047 226.985 30.3634 227.255 31.0594C227.525 31.7555 227.66 32.6125 227.66 33.6305V34.3407H219.251V32.8918H225.955C225.955 32.2763 225.832 31.7271 225.586 31.2441C225.345 30.7611 224.999 30.38 224.549 30.1006C224.104 29.8213 223.578 29.6816 222.972 29.6816C222.305 29.6816 221.727 29.8473 221.239 30.1788C220.757 30.5055 220.385 30.9316 220.124 31.4572C219.864 31.9827 219.734 32.5462 219.734 33.1475V34.1134C219.734 34.9373 219.876 35.6357 220.16 36.2086C220.449 36.7768 220.849 37.21 221.36 37.5083C221.872 37.8019 222.466 37.9486 223.143 37.9486C223.583 37.9486 223.981 37.8871 224.336 37.764C224.696 37.6361 225.006 37.4467 225.266 37.1958C225.527 36.9401 225.728 36.6229 225.87 36.2441L227.489 36.6986C227.319 37.2479 227.033 37.7308 226.63 38.1475C226.228 38.5594 225.73 38.8814 225.139 39.1134C224.547 39.3407 223.882 39.4543 223.143 39.4543ZM234.329 39.4543C233.42 39.4543 232.617 39.2247 231.921 38.7654C231.225 38.3014 230.681 37.648 230.288 36.8052C229.895 35.9576 229.698 34.9562 229.698 33.8009C229.698 32.6551 229.895 31.6608 230.288 30.818C230.681 29.9752 231.228 29.3241 231.928 28.8648C232.629 28.4056 233.439 28.1759 234.357 28.1759C235.068 28.1759 235.629 28.2943 236.041 28.531C236.457 28.763 236.774 29.0282 236.992 29.3265C237.215 29.62 237.388 29.8615 237.511 30.0509H237.653V24.6816H239.329V39.2271H237.71V37.5509H237.511C237.388 37.7498 237.212 38.0007 236.985 38.3038C236.758 38.6021 236.434 38.8696 236.012 39.1063C235.591 39.3383 235.03 39.4543 234.329 39.4543ZM234.556 37.9486C235.229 37.9486 235.797 37.7735 236.261 37.4231C236.725 37.068 237.078 36.5779 237.319 35.9529C237.56 35.3232 237.681 34.5964 237.681 33.7725C237.681 32.9581 237.563 32.2455 237.326 31.6347C237.089 31.0192 236.739 30.541 236.275 30.2001C235.811 29.8544 235.238 29.6816 234.556 29.6816C233.846 29.6816 233.254 29.8639 232.781 30.2285C232.312 30.5883 231.959 31.0784 231.722 31.6986C231.49 32.3142 231.374 33.0055 231.374 33.7725C231.374 34.549 231.493 35.2545 231.73 35.889C231.971 36.5187 232.326 37.0206 232.795 37.3947C233.268 37.764 233.855 37.9486 234.556 37.9486ZM35.286 52.318V53.7384H29.6326V52.318H35.286ZM31.2803 49.7043H32.9564V60.1021C32.9564 60.5755 33.0251 60.9306 33.1624 61.1674C33.3044 61.3994 33.4844 61.5556 33.7022 61.6361C33.9247 61.7119 34.1591 61.7498 34.4053 61.7498C34.59 61.7498 34.7415 61.7403 34.8598 61.7214C34.9782 61.6977 35.0729 61.6788 35.1439 61.6646L35.4848 63.1702C35.3712 63.2128 35.2126 63.2555 35.009 63.2981C34.8054 63.3454 34.5473 63.3691 34.2348 63.3691C33.7614 63.3691 33.2973 63.2673 32.8428 63.0637C32.393 62.8601 32.0189 62.55 31.7206 62.1333C31.4271 61.7166 31.2803 61.1911 31.2803 60.5566V49.7043ZM42.1219 63.4543C41.1371 63.4543 40.273 63.2199 39.5296 62.7512C38.7909 62.2824 38.2133 61.6267 37.7966 60.7839C37.3847 59.9411 37.1787 58.9562 37.1787 57.8293C37.1787 56.693 37.3847 55.701 37.7966 54.8535C38.2133 54.0059 38.7909 53.3478 39.5296 52.879C40.273 52.4103 41.1371 52.1759 42.1219 52.1759C43.1068 52.1759 43.9685 52.4103 44.7071 52.879C45.4505 53.3478 46.0282 54.0059 46.4401 54.8535C46.8568 55.701 47.0651 56.693 47.0651 57.8293C47.0651 58.9562 46.8568 59.9411 46.4401 60.7839C46.0282 61.6267 45.4505 62.2824 44.7071 62.7512C43.9685 63.2199 43.1068 63.4543 42.1219 63.4543ZM42.1219 61.9486C42.87 61.9486 43.4856 61.7569 43.9685 61.3734C44.4515 60.9898 44.8089 60.4856 45.0409 59.8606C45.273 59.2356 45.389 58.5585 45.389 57.8293C45.389 57.1002 45.273 56.4207 45.0409 55.791C44.8089 55.1612 44.4515 54.6522 43.9685 54.264C43.4856 53.8757 42.87 53.6816 42.1219 53.6816C41.3738 53.6816 40.7583 53.8757 40.2753 54.264C39.7924 54.6522 39.4349 55.1612 39.2029 55.791C38.9709 56.4207 38.8549 57.1002 38.8549 57.8293C38.8549 58.5585 38.9709 59.2356 39.2029 59.8606C39.4349 60.4856 39.7924 60.9898 40.2753 61.3734C40.7583 61.7569 41.3738 61.9486 42.1219 61.9486ZM55.2487 67.318V52.318H56.868V54.0509H57.0669C57.19 53.8615 57.3604 53.62 57.5782 53.3265C57.8008 53.0282 58.118 52.763 58.5299 52.531C58.9466 52.2943 59.5101 52.1759 60.2203 52.1759C61.1388 52.1759 61.9485 52.4056 62.6493 52.8648C63.35 53.3241 63.8969 53.9752 64.2899 54.818C64.6829 55.6608 64.8794 56.6551 64.8794 57.8009C64.8794 58.9562 64.6829 59.9576 64.2899 60.8052C63.8969 61.648 63.3524 62.3014 62.6564 62.7654C61.9603 63.2247 61.1578 63.4543 60.2487 63.4543C59.5479 63.4543 58.9869 63.3383 58.5655 63.1063C58.1441 62.8696 57.8197 62.6021 57.5924 62.3038C57.3652 62.0007 57.19 61.7498 57.0669 61.5509H56.9248V67.318H55.2487ZM56.8964 57.7725C56.8964 58.5964 57.0172 59.3232 57.2586 59.9529C57.5001 60.5779 57.8529 61.068 58.3169 61.4231C58.7809 61.7735 59.3491 61.9486 60.0214 61.9486C60.7222 61.9486 61.3069 61.764 61.7757 61.3947C62.2492 61.0206 62.6043 60.5187 62.841 59.889C63.0825 59.2545 63.2032 58.549 63.2032 57.7725C63.2032 57.0055 63.0849 56.3142 62.8481 55.6986C62.6161 55.0784 62.2634 54.5883 61.7899 54.2285C61.3211 53.8639 60.7316 53.6816 60.0214 53.6816C59.3396 53.6816 58.7667 53.8544 58.3027 54.2001C57.8387 54.541 57.4883 55.0192 57.2515 55.6347C57.0148 56.2455 56.8964 56.9581 56.8964 57.7725ZM69.1123 56.6646V63.2271H67.4362V48.6816H69.1123V54.0225H69.2544C69.5101 53.4591 69.8936 53.0116 70.4049 52.6802C70.921 52.344 71.6076 52.1759 72.4646 52.1759C73.208 52.1759 73.859 52.3251 74.4177 52.6234C74.9764 52.9169 75.4097 53.3691 75.7174 53.9799C76.0299 54.586 76.1862 55.3577 76.1862 56.2952V63.2271H74.5101V56.4089C74.5101 55.5424 74.2851 54.8724 73.8353 54.3989C73.3903 53.9207 72.7724 53.6816 71.9816 53.6816C71.4324 53.6816 70.94 53.7976 70.5044 54.0296C70.0735 54.2616 69.7326 54.6002 69.4816 55.0452C69.2354 55.4903 69.1123 56.0301 69.1123 56.6646ZM79.9415 67.318C79.6574 67.318 79.4041 67.2943 79.1816 67.2469C78.959 67.2043 78.8052 67.1617 78.7199 67.1191L79.1461 65.6418C79.5533 65.746 79.9131 65.7839 80.2256 65.7555C80.5381 65.7271 80.8151 65.5874 81.0566 65.3364C81.3028 65.0902 81.5277 64.6901 81.7313 64.1361L82.0438 63.2839L78.0097 52.318H79.8279L82.8392 61.0111H82.9529L85.9642 52.318H87.7824L83.1517 64.818C82.9434 65.3814 82.6854 65.8478 82.3776 66.2171C82.0698 66.5912 81.7124 66.8681 81.3052 67.0481C80.9027 67.228 80.4481 67.318 79.9415 67.318ZM97.7221 54.7611L96.2164 55.1873C96.1217 54.9363 95.982 54.6925 95.7973 54.4557C95.6174 54.2143 95.3712 54.0154 95.0587 53.8592C94.7462 53.7029 94.3461 53.6248 93.8584 53.6248C93.1908 53.6248 92.6345 53.7787 92.1894 54.0864C91.749 54.3895 91.5289 54.7753 91.5289 55.2441C91.5289 55.6608 91.6804 55.9898 91.9834 56.2313C92.2865 56.4728 92.7599 56.674 93.4039 56.835L95.0232 57.2327C95.9986 57.4695 96.7254 57.8317 97.2036 58.3194C97.6818 58.8023 97.9209 59.425 97.9209 60.1873C97.9209 60.8123 97.741 61.371 97.3811 61.8634C97.026 62.3558 96.5289 62.7441 95.8897 63.0282C95.2505 63.3123 94.5071 63.4543 93.6596 63.4543C92.5469 63.4543 91.6259 63.2128 90.8968 62.7299C90.1676 62.2469 89.706 61.5414 89.5118 60.6134L91.1027 60.2157C91.2543 60.8028 91.5407 61.2431 91.9621 61.5367C92.3883 61.8303 92.9446 61.9771 93.6311 61.9771C94.4124 61.9771 95.0327 61.8113 95.4919 61.4799C95.956 61.1437 96.188 60.7413 96.188 60.2725C96.188 59.8937 96.0554 59.5765 95.7902 59.3208C95.5251 59.0604 95.1179 58.8663 94.5686 58.7384L92.7505 58.3123C91.7514 58.0755 91.0175 57.7086 90.5488 57.2114C90.0847 56.7095 89.8527 56.0822 89.8527 55.3293C89.8527 54.7138 90.0256 54.1693 90.3712 53.6958C90.7216 53.2223 91.1974 52.8506 91.7988 52.5807C92.4048 52.3109 93.0914 52.1759 93.8584 52.1759C94.938 52.1759 95.7855 52.4127 96.401 52.8861C97.0213 53.3596 97.4616 53.9846 97.7221 54.7611ZM100.444 63.2271V52.318H102.12V63.2271H100.444ZM101.296 50.4998C100.97 50.4998 100.688 50.3885 100.451 50.166C100.219 49.9434 100.103 49.6759 100.103 49.3634C100.103 49.0509 100.219 48.7834 100.451 48.5609C100.688 48.3383 100.97 48.2271 101.296 48.2271C101.623 48.2271 101.902 48.3383 102.134 48.5609C102.371 48.7834 102.489 49.0509 102.489 49.3634C102.489 49.6759 102.371 49.9434 102.134 50.166C101.902 50.3885 101.623 50.4998 101.296 50.4998ZM109.622 63.4543C108.599 63.4543 107.719 63.2128 106.98 62.7299C106.241 62.2469 105.673 61.5817 105.275 60.7342C104.878 59.8866 104.679 58.9183 104.679 57.8293C104.679 56.7214 104.882 55.7436 105.29 54.8961C105.701 54.0438 106.274 53.3786 107.008 52.9003C107.747 52.4174 108.609 52.1759 109.594 52.1759C110.361 52.1759 111.052 52.318 111.667 52.6021C112.283 52.8861 112.787 53.2839 113.18 53.7952C113.573 54.3066 113.817 54.9032 113.912 55.585H112.236C112.108 55.0878 111.824 54.6475 111.383 54.264C110.948 53.8757 110.361 53.6816 109.622 53.6816C108.969 53.6816 108.396 53.8521 107.903 54.193C107.415 54.5291 107.034 55.005 106.76 55.6205C106.49 56.2313 106.355 56.9486 106.355 57.7725C106.355 58.6153 106.487 59.3492 106.753 59.9742C107.022 60.5992 107.401 61.0845 107.889 61.4302C108.381 61.7758 108.959 61.9486 109.622 61.9486C110.058 61.9486 110.453 61.8729 110.808 61.7214C111.163 61.5699 111.464 61.3521 111.71 61.068C111.956 60.7839 112.131 60.443 112.236 60.0452H113.912C113.817 60.6892 113.583 61.2692 113.209 61.7853C112.839 62.2967 112.349 62.7039 111.738 63.0069C111.132 63.3052 110.427 63.4543 109.622 63.4543ZM119.572 63.4827C118.881 63.4827 118.254 63.3525 117.69 63.0921C117.127 62.827 116.679 62.4458 116.348 61.9486C116.016 61.4467 115.851 60.8407 115.851 60.1305C115.851 59.5055 115.974 58.9988 116.22 58.6106C116.466 58.2176 116.795 57.9098 117.207 57.6873C117.619 57.4647 118.074 57.299 118.571 57.1901C119.073 57.0765 119.577 56.9865 120.084 56.9202C120.746 56.835 121.284 56.7711 121.696 56.7285C122.112 56.6811 122.415 56.603 122.605 56.4941C122.799 56.3852 122.896 56.1958 122.896 55.9259V55.8691C122.896 55.1683 122.704 54.6238 122.321 54.2356C121.942 53.8473 121.367 53.6532 120.595 53.6532C119.795 53.6532 119.167 53.8284 118.713 54.1788C118.258 54.5291 117.939 54.9032 117.754 55.3009L116.163 54.7327C116.447 54.0699 116.826 53.5538 117.299 53.1844C117.778 52.8104 118.299 52.55 118.862 52.4032C119.43 52.2517 119.989 52.1759 120.538 52.1759C120.888 52.1759 121.291 52.2185 121.745 52.3038C122.205 52.3842 122.647 52.5523 123.074 52.808C123.504 53.0637 123.862 53.4496 124.146 53.9657C124.43 54.4818 124.572 55.1731 124.572 56.0396V63.2271H122.896V61.7498H122.811C122.697 61.9865 122.508 62.2398 122.243 62.5097C121.978 62.7796 121.625 63.0092 121.184 63.1986C120.744 63.388 120.207 63.4827 119.572 63.4827ZM119.828 61.9771C120.491 61.9771 121.049 61.8468 121.504 61.5864C121.963 61.326 122.309 60.9898 122.541 60.5779C122.778 60.166 122.896 59.7327 122.896 59.2782V57.7441C122.825 57.8293 122.669 57.9074 122.427 57.9785C122.191 58.0448 121.916 58.1039 121.603 58.156C121.296 58.2034 120.995 58.246 120.701 58.2839C120.413 58.317 120.178 58.3454 119.998 58.3691C119.563 58.4259 119.156 58.5182 118.777 58.6461C118.403 58.7692 118.1 58.9562 117.868 59.2072C117.64 59.4534 117.527 59.7896 117.527 60.2157C117.527 60.7981 117.742 61.2384 118.173 61.5367C118.609 61.8303 119.16 61.9771 119.828 61.9771ZM129.308 48.6816V63.2271H127.632V48.6816H129.308ZM142.434 63.4543C141.412 63.4543 140.531 63.2128 139.792 62.7299C139.054 62.2469 138.486 61.5817 138.088 60.7342C137.69 59.8866 137.491 58.9183 137.491 57.8293C137.491 56.7214 137.695 55.7436 138.102 54.8961C138.514 54.0438 139.087 53.3786 139.821 52.9003C140.559 52.4174 141.421 52.1759 142.406 52.1759C143.173 52.1759 143.864 52.318 144.48 52.6021C145.095 52.8861 145.6 53.2839 145.993 53.7952C146.386 54.3066 146.629 54.9032 146.724 55.585H145.048C144.92 55.0878 144.636 54.6475 144.196 54.264C143.76 53.8757 143.173 53.6816 142.434 53.6816C141.781 53.6816 141.208 53.8521 140.716 54.193C140.228 54.5291 139.847 55.005 139.572 55.6205C139.302 56.2313 139.167 56.9486 139.167 57.7725C139.167 58.6153 139.3 59.3492 139.565 59.9742C139.835 60.5992 140.214 61.0845 140.701 61.4302C141.194 61.7758 141.772 61.9486 142.434 61.9486C142.87 61.9486 143.265 61.8729 143.62 61.7214C143.976 61.5699 144.276 61.3521 144.522 61.068C144.769 60.7839 144.944 60.443 145.048 60.0452H146.724C146.629 60.6892 146.395 61.2692 146.021 61.7853C145.652 62.2967 145.162 62.7039 144.551 63.0069C143.945 63.3052 143.239 63.4543 142.434 63.4543ZM153.606 63.4543C152.621 63.4543 151.757 63.2199 151.014 62.7512C150.275 62.2824 149.698 61.6267 149.281 60.7839C148.869 59.9411 148.663 58.9562 148.663 57.8293C148.663 56.693 148.869 55.701 149.281 54.8535C149.698 54.0059 150.275 53.3478 151.014 52.879C151.757 52.4103 152.621 52.1759 153.606 52.1759C154.591 52.1759 155.453 52.4103 156.192 52.879C156.935 53.3478 157.513 54.0059 157.924 54.8535C158.341 55.701 158.549 56.693 158.549 57.8293C158.549 58.9562 158.341 59.9411 157.924 60.7839C157.513 61.6267 156.935 62.2824 156.192 62.7512C155.453 63.2199 154.591 63.4543 153.606 63.4543ZM153.606 61.9486C154.354 61.9486 154.97 61.7569 155.453 61.3734C155.936 60.9898 156.293 60.4856 156.525 59.8606C156.757 59.2356 156.873 58.5585 156.873 57.8293C156.873 57.1002 156.757 56.4207 156.525 55.791C156.293 55.1612 155.936 54.6522 155.453 54.264C154.97 53.8757 154.354 53.6816 153.606 53.6816C152.858 53.6816 152.243 53.8757 151.76 54.264C151.277 54.6522 150.919 55.1612 150.687 55.791C150.455 56.4207 150.339 57.1002 150.339 57.8293C150.339 58.5585 150.455 59.2356 150.687 59.8606C150.919 60.4856 151.277 60.9898 151.76 61.3734C152.243 61.7569 152.858 61.9486 153.606 61.9486ZM161.108 63.2271V52.318H162.727V54.0225H162.869C163.097 53.4401 163.464 52.9879 163.97 52.666C164.477 52.3393 165.085 52.1759 165.796 52.1759C166.515 52.1759 167.114 52.3393 167.592 52.666C168.075 52.9879 168.452 53.4401 168.722 54.0225H168.835C169.115 53.4591 169.534 53.0116 170.092 52.6802C170.651 52.344 171.321 52.1759 172.102 52.1759C173.078 52.1759 173.876 52.4813 174.496 53.0921C175.116 53.6982 175.426 54.6428 175.426 55.9259V63.2271H173.75V55.9259C173.75 55.121 173.53 54.5457 173.09 54.2001C172.649 53.8544 172.131 53.6816 171.534 53.6816C170.767 53.6816 170.173 53.9136 169.752 54.3776C169.33 54.8369 169.119 55.4193 169.119 56.1248V63.2271H167.415V55.7555C167.415 55.1352 167.214 54.6357 166.811 54.2569C166.409 53.8734 165.89 53.6816 165.256 53.6816C164.82 53.6816 164.413 53.7976 164.034 54.0296C163.66 54.2616 163.357 54.5836 163.125 54.9955C162.898 55.4027 162.784 55.8738 162.784 56.4089V63.2271H161.108ZM183.349 52.318V53.7384H177.468V52.318H183.349ZM179.23 63.2271V50.8123C179.23 50.1873 179.376 49.6664 179.67 49.2498C179.963 48.8331 180.345 48.5206 180.813 48.3123C181.282 48.1039 181.777 47.9998 182.298 47.9998C182.71 47.9998 183.046 48.0329 183.306 48.0992C183.567 48.1655 183.761 48.227 183.889 48.2839L183.406 49.7327C183.32 49.7043 183.202 49.6688 183.051 49.6262C182.904 49.5836 182.71 49.5623 182.468 49.5623C181.914 49.5623 181.514 49.702 181.268 49.9813C181.026 50.2607 180.906 50.6702 180.906 51.21V63.2271H179.23ZM189.681 63.4543C188.696 63.4543 187.832 63.2199 187.088 62.7512C186.35 62.2824 185.772 61.6267 185.355 60.7839C184.943 59.9411 184.737 58.9562 184.737 57.8293C184.737 56.693 184.943 55.701 185.355 54.8535C185.772 54.0059 186.35 53.3478 187.088 52.879C187.832 52.4103 188.696 52.1759 189.681 52.1759C190.665 52.1759 191.527 52.4103 192.266 52.879C193.009 53.3478 193.587 54.0059 193.999 54.8535C194.415 55.701 194.624 56.693 194.624 57.8293C194.624 58.9562 194.415 59.9411 193.999 60.7839C193.587 61.6267 193.009 62.2824 192.266 62.7512C191.527 63.2199 190.665 63.4543 189.681 63.4543ZM189.681 61.9486C190.429 61.9486 191.044 61.7569 191.527 61.3734C192.01 60.9898 192.368 60.4856 192.6 59.8606C192.832 59.2356 192.948 58.5585 192.948 57.8293C192.948 57.1002 192.832 56.4207 192.6 55.791C192.368 55.1612 192.01 54.6522 191.527 54.264C191.044 53.8757 190.429 53.6816 189.681 53.6816C188.932 53.6816 188.317 53.8757 187.834 54.264C187.351 54.6522 186.993 55.1612 186.761 55.791C186.529 56.4207 186.413 57.1002 186.413 57.8293C186.413 58.5585 186.529 59.2356 186.761 59.8606C186.993 60.4856 187.351 60.9898 187.834 61.3734C188.317 61.7569 188.932 61.9486 189.681 61.9486ZM197.182 63.2271V52.318H198.802V53.9657H198.915C199.114 53.4259 199.474 52.9879 199.995 52.6518C200.516 52.3156 201.103 52.1475 201.756 52.1475C201.879 52.1475 202.033 52.1499 202.218 52.1546C202.402 52.1593 202.542 52.1664 202.637 52.1759V53.8805C202.58 53.8663 202.45 53.8449 202.246 53.8165C202.047 53.7834 201.837 53.7668 201.614 53.7668C201.084 53.7668 200.61 53.8781 200.194 54.1006C199.782 54.3184 199.455 54.6215 199.214 55.0097C198.977 55.3932 198.858 55.8312 198.858 56.3236V63.2271H197.182ZM210.052 52.318V53.7384H204.398V52.318H210.052ZM206.046 49.7043H207.722V60.1021C207.722 60.5755 207.791 60.9306 207.928 61.1674C208.07 61.3994 208.25 61.5556 208.468 61.6361C208.69 61.7119 208.925 61.7498 209.171 61.7498C209.356 61.7498 209.507 61.7403 209.625 61.7214C209.744 61.6977 209.839 61.6788 209.91 61.6646L210.25 63.1702C210.137 63.2128 209.978 63.2555 209.775 63.2981C209.571 63.3454 209.313 63.3691 209 63.3691C208.527 63.3691 208.063 63.2673 207.608 63.0637C207.159 62.8601 206.785 62.55 206.486 62.1333C206.193 61.7166 206.046 61.1911 206.046 60.5566V49.7043Z" fill="#DADADA"/>
</svg>
