<svg width="318" height="44" viewBox="0 0 318 44" fill="none" xmlns="http://www.w3.org/2000/svg">
<path d="M3.95155 15V0.454545H5.71291V13.4375H12.4743V15H3.95155ZM14.9743 15V4.09091H16.6504V15H14.9743ZM15.8265 2.27273C15.4998 2.27273 15.2181 2.16146 14.9814 1.93892C14.7494 1.71638 14.6334 1.44886 14.6334 1.13636C14.6334 0.823864 14.7494 0.556345 14.9814 0.333806C15.2181 0.111269 15.4998 0 15.8265 0C16.1533 0 16.4326 0.111269 16.6646 0.333806C16.9014 0.556345 17.0197 0.823864 17.0197 1.13636C17.0197 1.44886 16.9014 1.71638 16.6646 1.93892C16.4326 2.16146 16.1533 2.27273 15.8265 2.27273ZM19.7204 19.0909V4.09091H21.3397V5.82386H21.5386C21.6617 5.63447 21.8321 5.39299 22.0499 5.09943C22.2725 4.80114 22.5897 4.53598 23.0016 4.30398C23.4183 4.06723 23.9817 3.94886 24.692 3.94886C25.6105 3.94886 26.4202 4.1785 27.1209 4.63778C27.8217 5.09706 28.3686 5.74811 28.7616 6.59091C29.1546 7.43371 29.3511 8.42803 29.3511 9.57386C29.3511 10.7292 29.1546 11.7306 28.7616 12.5781C28.3686 13.4209 27.8241 14.0743 27.128 14.5384C26.432 14.9976 25.6295 15.2273 24.7204 15.2273C24.0196 15.2273 23.4585 15.1113 23.0371 14.8793C22.6157 14.6425 22.2914 14.375 22.0641 14.0767C21.8368 13.7737 21.6617 13.5227 21.5386 13.3239H21.3965V19.0909H19.7204ZM21.3681 9.54545C21.3681 10.3693 21.4888 11.0961 21.7303 11.7259C21.9718 12.3509 22.3245 12.8409 22.7886 13.196C23.2526 13.5464 23.8207 13.7216 24.4931 13.7216C25.1939 13.7216 25.7786 13.5369 26.2474 13.1676C26.7208 12.7936 27.076 12.2917 27.3127 11.6619C27.5542 11.0275 27.6749 10.322 27.6749 9.54545C27.6749 8.77841 27.5565 8.08712 27.3198 7.47159C27.0878 6.85133 26.735 6.36127 26.2616 6.00142C25.7928 5.63684 25.2033 5.45455 24.4931 5.45455C23.8113 5.45455 23.2384 5.62737 22.7743 5.97301C22.3103 6.31392 21.96 6.79214 21.7232 7.40767C21.4865 8.01847 21.3681 8.73106 21.3681 9.54545ZM31.9079 15V4.09091H33.584V15H31.9079ZM32.7601 2.27273C32.4334 2.27273 32.1517 2.16146 31.915 1.93892C31.683 1.71638 31.567 1.44886 31.567 1.13636C31.567 0.823864 31.683 0.556345 31.915 0.333806C32.1517 0.111269 32.4334 0 32.7601 0C33.0868 0 33.3662 0.111269 33.5982 0.333806C33.835 0.556345 33.9533 0.823864 33.9533 1.13636C33.9533 1.44886 33.835 1.71638 33.5982 1.93892C33.3662 2.16146 33.0868 2.27273 32.7601 2.27273ZM40.7733 15.2273C39.8642 15.2273 39.0616 14.9976 38.3656 14.5384C37.6696 14.0743 37.1251 13.4209 36.7321 12.5781C36.3391 11.7306 36.1426 10.7292 36.1426 9.57386C36.1426 8.42803 36.3391 7.43371 36.7321 6.59091C37.1251 5.74811 37.672 5.09706 38.3727 4.63778C39.0735 4.1785 39.8831 3.94886 40.8017 3.94886C41.5119 3.94886 42.073 4.06723 42.4849 4.30398C42.9016 4.53598 43.2188 4.80114 43.4366 5.09943C43.6592 5.39299 43.832 5.63447 43.9551 5.82386H44.0971V0.454545H45.7733V15H44.154V13.3239H43.9551C43.832 13.5227 43.6568 13.7737 43.4295 14.0767C43.2023 14.375 42.8779 14.6425 42.4565 14.8793C42.0351 15.1113 41.474 15.2273 40.7733 15.2273ZM41.0006 13.7216C41.6729 13.7216 42.2411 13.5464 42.7051 13.196C43.1691 12.8409 43.5219 12.3509 43.7633 11.7259C44.0048 11.0961 44.1256 10.3693 44.1256 9.54545C44.1256 8.73106 44.0072 8.01847 43.7704 7.40767C43.5337 6.79214 43.1833 6.31392 42.7193 5.97301C42.2553 5.62737 41.6824 5.45455 41.0006 5.45455C40.2903 5.45455 39.6985 5.63684 39.225 6.00142C38.7562 6.36127 38.4035 6.85133 38.1667 7.47159C37.9347 8.08712 37.8187 8.77841 37.8187 9.54545C37.8187 10.322 37.9371 11.0275 38.1739 11.6619C38.4153 12.2917 38.7704 12.7936 39.2392 13.1676C39.7127 13.5369 40.2998 13.7216 41.0006 13.7216ZM62.4281 6.53409L60.9224 6.96023C60.8277 6.70928 60.6881 6.46544 60.5034 6.22869C60.3235 5.98722 60.0773 5.78835 59.7648 5.6321C59.4523 5.47585 59.0522 5.39773 58.5645 5.39773C57.8969 5.39773 57.3405 5.55161 56.8954 5.85938C56.4551 6.16241 56.2349 6.5483 56.2349 7.01705C56.2349 7.43371 56.3864 7.76278 56.6895 8.00426C56.9925 8.24574 57.466 8.44697 58.1099 8.60795L59.7292 9.00568C60.7046 9.24242 61.4314 9.60464 61.9096 10.0923C62.3879 10.5753 62.627 11.1979 62.627 11.9602C62.627 12.5852 62.4471 13.1439 62.0872 13.6364C61.7321 14.1288 61.2349 14.517 60.5957 14.8011C59.9565 15.0852 59.2131 15.2273 58.3656 15.2273C57.2529 15.2273 56.332 14.9858 55.6028 14.5028C54.8737 14.0199 54.412 13.3144 54.2179 12.3864L55.8088 11.9886C55.9603 12.5758 56.2468 13.0161 56.6682 13.3097C57.0943 13.6032 57.6506 13.75 58.3372 13.75C59.1185 13.75 59.7387 13.5843 60.198 13.2528C60.662 12.9167 60.894 12.5142 60.894 12.0455C60.894 11.6667 60.7614 11.3494 60.4963 11.0938C60.2311 10.8333 59.8239 10.6392 59.2747 10.5114L57.4565 10.0852C56.4575 9.84848 55.7236 9.48153 55.2548 8.98438C54.7908 8.48248 54.5588 7.85511 54.5588 7.10227C54.5588 6.48674 54.7316 5.94223 55.0773 5.46875C55.4276 4.99527 55.9035 4.62358 56.5048 4.35369C57.1109 4.08381 57.7974 3.94886 58.5645 3.94886C59.644 3.94886 60.4916 4.18561 61.1071 4.65909C61.7274 5.13258 62.1677 5.75758 62.4281 6.53409ZM66.2296 19.0909C65.9455 19.0909 65.6922 19.0672 65.4697 19.0199C65.2471 18.9773 65.0932 18.9347 65.008 18.892L65.4341 17.4148C65.8413 17.5189 66.2012 17.5568 66.5137 17.5284C66.8262 17.5 67.1032 17.3603 67.3447 17.1094C67.5909 16.8632 67.8158 16.4631 68.0194 15.9091L68.3319 15.0568L64.2978 4.09091H66.116L69.1273 12.7841H69.241L72.2523 4.09091H74.0705L69.4398 16.5909C69.2315 17.1544 68.9734 17.6207 68.6657 17.9901C68.3579 18.3641 68.0004 18.6411 67.5932 18.821C67.1908 19.0009 66.7362 19.0909 66.2296 19.0909ZM84.0101 6.53409L82.5045 6.96023C82.4098 6.70928 82.2701 6.46544 82.0854 6.22869C81.9055 5.98722 81.6593 5.78835 81.3468 5.6321C81.0343 5.47585 80.6342 5.39773 80.1465 5.39773C79.4789 5.39773 78.9225 5.55161 78.4775 5.85938C78.0371 6.16241 77.817 6.5483 77.817 7.01705C77.817 7.43371 77.9685 7.76278 78.2715 8.00426C78.5745 8.24574 79.048 8.44697 79.692 8.60795L81.3113 9.00568C82.2867 9.24242 83.0135 9.60464 83.4917 10.0923C83.9699 10.5753 84.209 11.1979 84.209 11.9602C84.209 12.5852 84.0291 13.1439 83.6692 13.6364C83.3141 14.1288 82.817 14.517 82.1778 14.8011C81.5386 15.0852 80.7952 15.2273 79.9476 15.2273C78.835 15.2273 77.914 14.9858 77.1849 14.5028C76.4557 14.0199 75.994 13.3144 75.7999 12.3864L77.3908 11.9886C77.5423 12.5758 77.8288 13.0161 78.2502 13.3097C78.6763 13.6032 79.2327 13.75 79.9192 13.75C80.7005 13.75 81.3207 13.5843 81.78 13.2528C82.244 12.9167 82.4761 12.5142 82.4761 12.0455C82.4761 11.6667 82.3435 11.3494 82.0783 11.0938C81.8132 10.8333 81.406 10.6392 80.8567 10.5114L79.0386 10.0852C78.0395 9.84848 77.3056 9.48153 76.8368 8.98438C76.3728 8.48248 76.1408 7.85511 76.1408 7.10227C76.1408 6.48674 76.3136 5.94223 76.6593 5.46875C77.0097 4.99527 77.4855 4.62358 78.0868 4.35369C78.6929 4.08381 79.3795 3.94886 80.1465 3.94886C81.2261 3.94886 82.0736 4.18561 82.6891 4.65909C83.3094 5.13258 83.7497 5.75758 84.0101 6.53409ZM91.4764 4.09091V5.51136H85.823V4.09091H91.4764ZM87.4707 1.47727H89.1469V11.875C89.1469 12.3485 89.2155 12.7036 89.3528 12.9403C89.4949 13.1723 89.6748 13.3286 89.8926 13.4091C90.1151 13.4848 90.3495 13.5227 90.5957 13.5227C90.7804 13.5227 90.9319 13.5133 91.0503 13.4943C91.1686 13.4706 91.2633 13.4517 91.3344 13.4375L91.6753 14.9432C91.5616 14.9858 91.403 15.0284 91.1994 15.071C90.9958 15.1184 90.7378 15.142 90.4253 15.142C89.9518 15.142 89.4878 15.0402 89.0332 14.8366C88.5834 14.633 88.2094 14.3229 87.9111 13.9062C87.6175 13.4896 87.4707 12.964 87.4707 12.3295V1.47727ZM98.4544 15.2273C97.4033 15.2273 96.4965 14.9953 95.7342 14.5312C94.9766 14.0625 94.3919 13.4091 93.98 12.571C93.5728 11.7282 93.3692 10.7481 93.3692 9.63068C93.3692 8.51326 93.5728 7.52841 93.98 6.67614C94.3919 5.81913 94.9648 5.15152 95.6987 4.6733C96.4373 4.19034 97.2991 3.94886 98.2839 3.94886C98.8521 3.94886 99.4132 4.04356 99.9672 4.23295C100.521 4.42235 101.025 4.73011 101.48 5.15625C101.935 5.57765 102.297 6.13636 102.567 6.83239C102.836 7.52841 102.971 8.38542 102.971 9.40341V10.1136H94.5623V8.66477H101.267C101.267 8.04924 101.144 7.5 100.898 7.01705C100.656 6.53409 100.31 6.15294 99.8606 5.87358C99.4156 5.59422 98.89 5.45455 98.2839 5.45455C97.6163 5.45455 97.0387 5.62026 96.551 5.9517C96.068 6.27841 95.6963 6.70455 95.4359 7.23011C95.1755 7.75568 95.0453 8.31913 95.0453 8.92045V9.88636C95.0453 10.7102 95.1873 11.4086 95.4714 11.9815C95.7603 12.5497 96.1604 12.983 96.6717 13.2812C97.1831 13.5748 97.7773 13.7216 98.4544 13.7216C98.8947 13.7216 99.2925 13.66 99.6476 13.5369C100.007 13.4091 100.318 13.2197 100.578 12.9688C100.838 12.7131 101.04 12.3958 101.182 12.017L102.801 12.4716C102.631 13.0208 102.344 13.5038 101.942 13.9205C101.539 14.3324 101.042 14.6544 100.45 14.8864C99.8583 15.1136 99.193 15.2273 98.4544 15.2273ZM105.521 15V4.09091H107.14V5.79545H107.283C107.51 5.21307 107.877 4.76089 108.383 4.43892C108.89 4.11222 109.498 3.94886 110.209 3.94886C110.928 3.94886 111.527 4.11222 112.006 4.43892C112.488 4.76089 112.865 5.21307 113.135 5.79545H113.248C113.528 5.23201 113.947 4.78456 114.506 4.45312C115.064 4.11695 115.734 3.94886 116.515 3.94886C117.491 3.94886 118.289 4.25426 118.909 4.86506C119.529 5.47112 119.839 6.41572 119.839 7.69886V15H118.163V7.69886C118.163 6.89394 117.943 6.31866 117.503 5.97301C117.062 5.62737 116.544 5.45455 115.947 5.45455C115.18 5.45455 114.586 5.68655 114.165 6.15057C113.743 6.60985 113.533 7.19223 113.533 7.89773V15H111.828V7.52841C111.828 6.90814 111.627 6.40862 111.224 6.02983C110.822 5.64631 110.303 5.45455 109.669 5.45455C109.233 5.45455 108.826 5.57055 108.447 5.80256C108.073 6.03456 107.77 6.35653 107.538 6.76847C107.311 7.17566 107.197 7.64678 107.197 8.18182V15H105.521ZM130.631 6.53409L129.126 6.96023C129.031 6.70928 128.891 6.46544 128.707 6.22869C128.527 5.98722 128.28 5.78835 127.968 5.6321C127.655 5.47585 127.255 5.39773 126.768 5.39773C126.1 5.39773 125.544 5.55161 125.099 5.85938C124.658 6.16241 124.438 6.5483 124.438 7.01705C124.438 7.43371 124.59 7.76278 124.893 8.00426C125.196 8.24574 125.669 8.44697 126.313 8.60795L127.932 9.00568C128.908 9.24242 129.635 9.60464 130.113 10.0923C130.591 10.5753 130.83 11.1979 130.83 11.9602C130.83 12.5852 130.65 13.1439 130.29 13.6364C129.935 14.1288 129.438 14.517 128.799 14.8011C128.16 15.0852 127.416 15.2273 126.569 15.2273C125.456 15.2273 124.535 14.9858 123.806 14.5028C123.077 14.0199 122.615 13.3144 122.421 12.3864L124.012 11.9886C124.163 12.5758 124.45 13.0161 124.871 13.3097C125.297 13.6032 125.854 13.75 126.54 13.75C127.322 13.75 127.942 13.5843 128.401 13.2528C128.865 12.9167 129.097 12.5142 129.097 12.0455C129.097 11.6667 128.965 11.3494 128.699 11.0938C128.434 10.8333 128.027 10.6392 127.478 10.5114L125.66 10.0852C124.661 9.84848 123.927 9.48153 123.458 8.98438C122.994 8.48248 122.762 7.85511 122.762 7.10227C122.762 6.48674 122.935 5.94223 123.28 5.46875C123.631 4.99527 124.107 4.62358 124.708 4.35369C125.314 4.08381 126.001 3.94886 126.768 3.94886C127.847 3.94886 128.695 4.18561 129.31 4.65909C129.93 5.13258 130.371 5.75758 130.631 6.53409ZM143.098 15.2273C142.188 15.2273 141.386 14.9976 140.69 14.5384C139.994 14.0743 139.449 13.4209 139.056 12.5781C138.663 11.7306 138.467 10.7292 138.467 9.57386C138.467 8.42803 138.663 7.43371 139.056 6.59091C139.449 5.74811 139.996 5.09706 140.697 4.63778C141.398 4.1785 142.207 3.94886 143.126 3.94886C143.836 3.94886 144.397 4.06723 144.809 4.30398C145.226 4.53598 145.543 4.80114 145.761 5.09943C145.983 5.39299 146.156 5.63447 146.279 5.82386H146.421V0.454545H148.098V15H146.478V13.3239H146.279C146.156 13.5227 145.981 13.7737 145.754 14.0767C145.526 14.375 145.202 14.6425 144.781 14.8793C144.359 15.1113 143.798 15.2273 143.098 15.2273ZM143.325 13.7216C143.997 13.7216 144.565 13.5464 145.029 13.196C145.493 12.8409 145.846 12.3509 146.088 11.7259C146.329 11.0961 146.45 10.3693 146.45 9.54545C146.45 8.73106 146.331 8.01847 146.095 7.40767C145.858 6.79214 145.508 6.31392 145.044 5.97301C144.58 5.62737 144.007 5.45455 143.325 5.45455C142.615 5.45455 142.023 5.63684 141.549 6.00142C141.08 6.36127 140.728 6.85133 140.491 7.47159C140.259 8.08712 140.143 8.77841 140.143 9.54545C140.143 10.322 140.261 11.0275 140.498 11.6619C140.74 12.2917 141.095 12.7936 141.563 13.1676C142.037 13.5369 142.624 13.7216 143.325 13.7216ZM155.974 15.2273C154.923 15.2273 154.016 14.9953 153.254 14.5312C152.496 14.0625 151.911 13.4091 151.499 12.571C151.092 11.7282 150.889 10.7481 150.889 9.63068C150.889 8.51326 151.092 7.52841 151.499 6.67614C151.911 5.81913 152.484 5.15152 153.218 4.6733C153.957 4.19034 154.819 3.94886 155.803 3.94886C156.372 3.94886 156.933 4.04356 157.487 4.23295C158.041 4.42235 158.545 4.73011 158.999 5.15625C159.454 5.57765 159.816 6.13636 160.086 6.83239C160.356 7.52841 160.491 8.38542 160.491 9.40341V10.1136H152.082V8.66477H158.786C158.786 8.04924 158.663 7.5 158.417 7.01705C158.176 6.53409 157.83 6.15294 157.38 5.87358C156.935 5.59422 156.41 5.45455 155.803 5.45455C155.136 5.45455 154.558 5.62026 154.071 5.9517C153.588 6.27841 153.216 6.70455 152.955 7.23011C152.695 7.75568 152.565 8.31913 152.565 8.92045V9.88636C152.565 10.7102 152.707 11.4086 152.991 11.9815C153.28 12.5497 153.68 12.983 154.191 13.2812C154.703 13.5748 155.297 13.7216 155.974 13.7216C156.414 13.7216 156.812 13.66 157.167 13.5369C157.527 13.4091 157.837 13.2197 158.098 12.9688C158.358 12.7131 158.559 12.3958 158.701 12.017L160.321 12.4716C160.15 13.0208 159.864 13.5038 159.461 13.9205C159.059 14.3324 158.562 14.6544 157.97 14.8864C157.378 15.1136 156.713 15.2273 155.974 15.2273ZM163.041 15V4.09091H164.66V5.79545H164.802C165.029 5.21307 165.396 4.76089 165.903 4.43892C166.41 4.11222 167.018 3.94886 167.728 3.94886C168.448 3.94886 169.047 4.11222 169.525 4.43892C170.008 4.76089 170.384 5.21307 170.654 5.79545H170.768C171.047 5.23201 171.466 4.78456 172.025 4.45312C172.584 4.11695 173.254 3.94886 174.035 3.94886C175.01 3.94886 175.808 4.25426 176.428 4.86506C177.049 5.47112 177.359 6.41572 177.359 7.69886V15H175.683V7.69886C175.683 6.89394 175.463 6.31866 175.022 5.97301C174.582 5.62737 174.063 5.45455 173.467 5.45455C172.7 5.45455 172.106 5.68655 171.684 6.15057C171.263 6.60985 171.052 7.19223 171.052 7.89773V15H169.348V7.52841C169.348 6.90814 169.146 6.40862 168.744 6.02983C168.341 5.64631 167.823 5.45455 167.188 5.45455C166.753 5.45455 166.346 5.57055 165.967 5.80256C165.593 6.03456 165.29 6.35653 165.058 6.76847C164.83 7.17566 164.717 7.64678 164.717 8.18182V15H163.041ZM183.634 15.2557C182.942 15.2557 182.315 15.1255 181.752 14.8651C181.188 14.5999 180.741 14.2188 180.409 13.7216C180.078 13.2197 179.912 12.6136 179.912 11.9034C179.912 11.2784 180.035 10.7718 180.281 10.3835C180.528 9.99053 180.857 9.68276 181.269 9.46023C181.681 9.23769 182.135 9.07197 182.632 8.96307C183.134 8.84943 183.638 8.75947 184.145 8.69318C184.808 8.60795 185.345 8.54403 185.757 8.50142C186.174 8.45407 186.477 8.37595 186.666 8.26705C186.861 8.15814 186.958 7.96875 186.958 7.69886V7.64205C186.958 6.94129 186.766 6.39678 186.382 6.00852C186.004 5.62027 185.428 5.42614 184.656 5.42614C183.856 5.42614 183.229 5.60133 182.774 5.9517C182.32 6.30208 182 6.67614 181.816 7.07386L180.225 6.50568C180.509 5.8428 180.888 5.3267 181.361 4.95739C181.839 4.58333 182.36 4.32292 182.923 4.17614C183.492 4.02462 184.05 3.94886 184.6 3.94886C184.95 3.94886 185.352 3.99148 185.807 4.0767C186.266 4.1572 186.709 4.32528 187.135 4.58097C187.566 4.83665 187.923 5.22254 188.208 5.73864C188.492 6.25473 188.634 6.94602 188.634 7.8125V15H186.958V13.5227H186.872C186.759 13.7595 186.569 14.0128 186.304 14.2827C186.039 14.5526 185.686 14.7822 185.246 14.9716C184.806 15.161 184.268 15.2557 183.634 15.2557ZM183.889 13.75C184.552 13.75 185.111 13.6198 185.566 13.3594C186.025 13.099 186.37 12.7628 186.602 12.3509C186.839 11.9389 186.958 11.5057 186.958 11.0511V9.51705C186.887 9.60227 186.73 9.6804 186.489 9.75142C186.252 9.81771 185.977 9.87689 185.665 9.92898C185.357 9.97633 185.057 10.0189 184.763 10.0568C184.474 10.09 184.24 10.1184 184.06 10.142C183.624 10.1989 183.217 10.2912 182.838 10.419C182.464 10.5421 182.161 10.7292 181.929 10.9801C181.702 11.2263 181.588 11.5625 181.588 11.9886C181.588 12.571 181.804 13.0114 182.235 13.3097C182.67 13.6032 183.222 13.75 183.889 13.75ZM193.369 8.4375V15H191.693V4.09091H193.312V5.79545H193.454C193.71 5.24148 194.098 4.7964 194.619 4.46023C195.14 4.11932 195.812 3.94886 196.636 3.94886C197.375 3.94886 198.021 4.10038 198.575 4.40341C199.129 4.7017 199.56 5.15625 199.868 5.76705C200.176 6.37311 200.329 7.14015 200.329 8.06818V15H198.653V8.18182C198.653 7.32481 198.431 6.6572 197.986 6.17898C197.541 5.69602 196.93 5.45455 196.153 5.45455C195.618 5.45455 195.14 5.57055 194.719 5.80256C194.302 6.03456 193.973 6.37311 193.731 6.81818C193.49 7.26326 193.369 7.80303 193.369 8.4375ZM207.512 15.2273C206.602 15.2273 205.8 14.9976 205.104 14.5384C204.408 14.0743 203.863 13.4209 203.47 12.5781C203.077 11.7306 202.881 10.7292 202.881 9.57386C202.881 8.42803 203.077 7.43371 203.47 6.59091C203.863 5.74811 204.41 5.09706 205.111 4.63778C205.812 4.1785 206.621 3.94886 207.54 3.94886C208.25 3.94886 208.811 4.06723 209.223 4.30398C209.64 4.53598 209.957 4.80114 210.175 5.09943C210.397 5.39299 210.57 5.63447 210.693 5.82386H210.835V0.454545H212.512V15H210.892V13.3239H210.693C210.57 13.5227 210.395 13.7737 210.168 14.0767C209.941 14.375 209.616 14.6425 209.195 14.8793C208.773 15.1113 208.212 15.2273 207.512 15.2273ZM207.739 13.7216C208.411 13.7216 208.979 13.5464 209.443 13.196C209.907 12.8409 210.26 12.3509 210.502 11.7259C210.743 11.0961 210.864 10.3693 210.864 9.54545C210.864 8.73106 210.745 8.01847 210.509 7.40767C210.272 6.79214 209.922 6.31392 209.458 5.97301C208.994 5.62737 208.421 5.45455 207.739 5.45455C207.029 5.45455 206.437 5.63684 205.963 6.00142C205.495 6.36127 205.142 6.85133 204.905 7.47159C204.673 8.08712 204.557 8.77841 204.557 9.54545C204.557 10.322 204.675 11.0275 204.912 11.6619C205.154 12.2917 205.509 12.7936 205.977 13.1676C206.451 13.5369 207.038 13.7216 207.739 13.7216ZM225.871 15.2273C224.886 15.2273 224.022 14.9929 223.279 14.5241C222.54 14.0554 221.962 13.3996 221.546 12.5568C221.134 11.714 220.928 10.7292 220.928 9.60227C220.928 8.46591 221.134 7.47396 221.546 6.62642C221.962 5.77888 222.54 5.12074 223.279 4.65199C224.022 4.18324 224.886 3.94886 225.871 3.94886C226.856 3.94886 227.718 4.18324 228.456 4.65199C229.2 5.12074 229.777 5.77888 230.189 6.62642C230.606 7.47396 230.814 8.46591 230.814 9.60227C230.814 10.7292 230.606 11.714 230.189 12.5568C229.777 13.3996 229.2 14.0554 228.456 14.5241C227.718 14.9929 226.856 15.2273 225.871 15.2273ZM225.871 13.7216C226.619 13.7216 227.235 13.5298 227.718 13.1463C228.2 12.7628 228.558 12.2585 228.79 11.6335C229.022 11.0085 229.138 10.3314 229.138 9.60227C229.138 8.87311 229.022 8.19366 228.79 7.56392C228.558 6.93419 228.2 6.42519 227.718 6.03693C227.235 5.64867 226.619 5.45455 225.871 5.45455C225.123 5.45455 224.507 5.64867 224.024 6.03693C223.541 6.42519 223.184 6.93419 222.952 7.56392C222.72 8.19366 222.604 8.87311 222.604 9.60227C222.604 10.3314 222.72 11.0085 222.952 11.6335C223.184 12.2585 223.541 12.7628 224.024 13.1463C224.507 13.5298 225.123 13.7216 225.871 13.7216ZM234.173 4.09091L236.787 8.55114L239.401 4.09091H241.333L237.81 9.54545L241.333 15H239.401L236.787 10.767L234.173 15H232.242L235.708 9.54545L232.242 4.09091H234.173ZM243.724 15V4.09091H245.4V15H243.724ZM244.577 2.27273C244.25 2.27273 243.968 2.16146 243.731 1.93892C243.499 1.71638 243.383 1.44886 243.383 1.13636C243.383 0.823864 243.499 0.556345 243.731 0.333806C243.968 0.111269 244.25 0 244.577 0C244.903 0 245.183 0.111269 245.415 0.333806C245.651 0.556345 245.77 0.823864 245.77 1.13636C245.77 1.44886 245.651 1.71638 245.415 1.93892C245.183 2.16146 244.903 2.27273 244.577 2.27273ZM252.59 15.2273C251.681 15.2273 250.878 14.9976 250.182 14.5384C249.486 14.0743 248.941 13.4209 248.548 12.5781C248.156 11.7306 247.959 10.7292 247.959 9.57386C247.959 8.42803 248.156 7.43371 248.548 6.59091C248.941 5.74811 249.488 5.09706 250.189 4.63778C250.89 4.1785 251.7 3.94886 252.618 3.94886C253.328 3.94886 253.889 4.06723 254.301 4.30398C254.718 4.53598 255.035 4.80114 255.253 5.09943C255.476 5.39299 255.648 5.63447 255.772 5.82386H255.914V0.454545H257.59V15H255.97V13.3239H255.772C255.648 13.5227 255.473 13.7737 255.246 14.0767C255.019 14.375 254.694 14.6425 254.273 14.8793C253.852 15.1113 253.29 15.2273 252.59 15.2273ZM252.817 13.7216C253.489 13.7216 254.057 13.5464 254.522 13.196C254.986 12.8409 255.338 12.3509 255.58 11.7259C255.821 11.0961 255.942 10.3693 255.942 9.54545C255.942 8.73106 255.824 8.01847 255.587 7.40767C255.35 6.79214 255 6.31392 254.536 5.97301C254.072 5.62737 253.499 5.45455 252.817 5.45455C252.107 5.45455 251.515 5.63684 251.041 6.00142C250.573 6.36127 250.22 6.85133 249.983 7.47159C249.751 8.08712 249.635 8.77841 249.635 9.54545C249.635 10.322 249.754 11.0275 249.99 11.6619C250.232 12.2917 250.587 12.7936 251.056 13.1676C251.529 13.5369 252.116 13.7216 252.817 13.7216ZM264.102 15.2557C263.411 15.2557 262.784 15.1255 262.22 14.8651C261.657 14.5999 261.209 14.2188 260.878 13.7216C260.547 13.2197 260.381 12.6136 260.381 11.9034C260.381 11.2784 260.504 10.7718 260.75 10.3835C260.996 9.99053 261.325 9.68276 261.737 9.46023C262.149 9.23769 262.604 9.07197 263.101 8.96307C263.603 8.84943 264.107 8.75947 264.614 8.69318C265.277 8.60795 265.814 8.54403 266.226 8.50142C266.643 8.45407 266.946 8.37595 267.135 8.26705C267.329 8.15814 267.426 7.96875 267.426 7.69886V7.64205C267.426 6.94129 267.235 6.39678 266.851 6.00852C266.472 5.62027 265.897 5.42614 265.125 5.42614C264.325 5.42614 263.698 5.60133 263.243 5.9517C262.789 6.30208 262.469 6.67614 262.284 7.07386L260.693 6.50568C260.977 5.8428 261.356 5.3267 261.83 4.95739C262.308 4.58333 262.829 4.32292 263.392 4.17614C263.96 4.02462 264.519 3.94886 265.068 3.94886C265.419 3.94886 265.821 3.99148 266.276 4.0767C266.735 4.1572 267.178 4.32528 267.604 4.58097C268.035 4.83665 268.392 5.22254 268.676 5.73864C268.96 6.25473 269.102 6.94602 269.102 7.8125V15H267.426V13.5227H267.341C267.227 13.7595 267.038 14.0128 266.773 14.2827C266.508 14.5526 266.155 14.7822 265.715 14.9716C265.274 15.161 264.737 15.2557 264.102 15.2557ZM264.358 13.75C265.021 13.75 265.58 13.6198 266.034 13.3594C266.494 13.099 266.839 12.7628 267.071 12.3509C267.308 11.9389 267.426 11.5057 267.426 11.0511V9.51705C267.355 9.60227 267.199 9.6804 266.958 9.75142C266.721 9.81771 266.446 9.87689 266.134 9.92898C265.826 9.97633 265.525 10.0189 265.232 10.0568C264.943 10.09 264.709 10.1184 264.529 10.142C264.093 10.1989 263.686 10.2912 263.307 10.419C262.933 10.5421 262.63 10.7292 262.398 10.9801C262.171 11.2263 262.057 11.5625 262.057 11.9886C262.057 12.571 262.272 13.0114 262.703 13.3097C263.139 13.6032 263.691 13.75 264.358 13.75ZM276.906 4.09091V5.51136H271.253V4.09091H276.906ZM272.9 1.47727H274.577V11.875C274.577 12.3485 274.645 12.7036 274.783 12.9403C274.925 13.1723 275.104 13.3286 275.322 13.4091C275.545 13.4848 275.779 13.5227 276.025 13.5227C276.21 13.5227 276.362 13.5133 276.48 13.4943C276.598 13.4706 276.693 13.4517 276.764 13.4375L277.105 14.9432C276.991 14.9858 276.833 15.0284 276.629 15.071C276.426 15.1184 276.167 15.142 275.855 15.142C275.381 15.142 274.917 15.0402 274.463 14.8366C274.013 14.633 273.639 14.3229 273.341 13.9062C273.047 13.4896 272.9 12.964 272.9 12.3295V1.47727ZM279.427 15V4.09091H281.104V15H279.427ZM280.28 2.27273C279.953 2.27273 279.671 2.16146 279.435 1.93892C279.202 1.71638 279.086 1.44886 279.086 1.13636C279.086 0.823864 279.202 0.556345 279.435 0.333806C279.671 0.111269 279.953 0 280.28 0C280.606 0 280.886 0.111269 281.118 0.333806C281.354 0.556345 281.473 0.823864 281.473 1.13636C281.473 1.44886 281.354 1.71638 281.118 1.93892C280.886 2.16146 280.606 2.27273 280.28 2.27273ZM288.605 15.2273C287.62 15.2273 286.756 14.9929 286.013 14.5241C285.274 14.0554 284.697 13.3996 284.28 12.5568C283.868 11.714 283.662 10.7292 283.662 9.60227C283.662 8.46591 283.868 7.47396 284.28 6.62642C284.697 5.77888 285.274 5.12074 286.013 4.65199C286.756 4.18324 287.62 3.94886 288.605 3.94886C289.59 3.94886 290.452 4.18324 291.191 4.65199C291.934 5.12074 292.512 5.77888 292.923 6.62642C293.34 7.47396 293.548 8.46591 293.548 9.60227C293.548 10.7292 293.34 11.714 292.923 12.5568C292.512 13.3996 291.934 14.0554 291.191 14.5241C290.452 14.9929 289.59 15.2273 288.605 15.2273ZM288.605 13.7216C289.353 13.7216 289.969 13.5298 290.452 13.1463C290.935 12.7628 291.292 12.2585 291.524 11.6335C291.756 11.0085 291.872 10.3314 291.872 9.60227C291.872 8.87311 291.756 8.19366 291.524 7.56392C291.292 6.93419 290.935 6.42519 290.452 6.03693C289.969 5.64867 289.353 5.45455 288.605 5.45455C287.857 5.45455 287.242 5.64867 286.759 6.03693C286.276 6.42519 285.918 6.93419 285.686 7.56392C285.454 8.19366 285.338 8.87311 285.338 9.60227C285.338 10.3314 285.454 11.0085 285.686 11.6335C285.918 12.2585 286.276 12.7628 286.759 13.1463C287.242 13.5298 287.857 13.7216 288.605 13.7216ZM297.783 8.4375V15H296.107V4.09091H297.726V5.79545H297.868C298.124 5.24148 298.512 4.7964 299.033 4.46023C299.554 4.11932 300.226 3.94886 301.05 3.94886C301.789 3.94886 302.435 4.10038 302.989 4.40341C303.543 4.7017 303.974 5.15625 304.282 5.76705C304.59 6.37311 304.743 7.14015 304.743 8.06818V15H303.067V8.18182C303.067 7.32481 302.845 6.6572 302.4 6.17898C301.955 5.69602 301.344 5.45455 300.567 5.45455C300.032 5.45455 299.554 5.57055 299.133 5.80256C298.716 6.03456 298.387 6.37311 298.145 6.81818C297.904 7.26326 297.783 7.80303 297.783 8.4375ZM314.056 7.98295V9.54545H307.693V7.98295H314.056ZM3.72161 39.2557C3.03033 39.2557 2.40296 39.1255 1.83951 38.8651C1.27606 38.5999 0.828621 38.2188 0.497181 37.7216C0.165742 37.2197 2.22623e-05 36.6136 2.22623e-05 35.9034C2.22623e-05 35.2784 0.123128 34.7718 0.36934 34.3835C0.615553 33.9905 0.944625 33.6828 1.35656 33.4602C1.76849 33.2377 2.22303 33.072 2.72019 32.9631C3.22209 32.8494 3.72635 32.7595 4.23298 32.6932C4.89586 32.608 5.43326 32.544 5.84519 32.5014C6.26186 32.4541 6.56489 32.3759 6.75428 32.267C6.94841 32.1581 7.04548 31.9687 7.04548 31.6989V31.642C7.04548 30.9413 6.85372 30.3968 6.47019 30.0085C6.09141 29.6203 5.51612 29.4261 4.74434 29.4261C3.94415 29.4261 3.31678 29.6013 2.86224 29.9517C2.40769 30.3021 2.08809 30.6761 1.90343 31.0739L0.312522 30.5057C0.596613 29.8428 0.975401 29.3267 1.44889 28.9574C1.92711 28.5833 2.44794 28.3229 3.01139 28.1761C3.57957 28.0246 4.13828 27.9489 4.68752 27.9489C5.0379 27.9489 5.44036 27.9915 5.89491 28.0767C6.35419 28.1572 6.7969 28.3253 7.22303 28.581C7.6539 28.8366 8.01139 29.2225 8.29548 29.7386C8.57957 30.2547 8.72161 30.946 8.72161 31.8125V39H7.04548V37.5227H6.96025C6.84661 37.7595 6.65722 38.0128 6.39207 38.2827C6.12692 38.5526 5.77417 38.7822 5.33383 38.9716C4.89349 39.161 4.35608 39.2557 3.72161 39.2557ZM3.97729 37.75C4.64017 37.75 5.19889 37.6198 5.65343 37.3594C6.11271 37.099 6.45836 36.7628 6.69036 36.3509C6.92711 35.9389 7.04548 35.5057 7.04548 35.0511V33.517C6.97445 33.6023 6.8182 33.6804 6.57673 33.7514C6.33998 33.8177 6.06536 33.8769 5.75286 33.929C5.4451 33.9763 5.14444 34.0189 4.85087 34.0568C4.56205 34.09 4.32767 34.1184 4.14775 34.142C3.71214 34.1989 3.30495 34.2912 2.92616 34.419C2.55211 34.5421 2.24908 34.7292 2.01707 34.9801C1.7898 35.2263 1.67616 35.5625 1.67616 35.9886C1.67616 36.571 1.89159 37.0114 2.32247 37.3097C2.75807 37.6032 3.30968 37.75 3.97729 37.75ZM14.2525 39L10.9286 28.0909H12.69L15.048 36.4432H15.1616L17.4911 28.0909H19.2809L21.5821 36.4148H21.6957L24.0536 28.0909H25.815L22.4911 39H20.8434L18.4571 30.6193H18.2866L15.9002 39H14.2525ZM31.2411 39.2557C30.5499 39.2557 29.9225 39.1255 29.359 38.8651C28.7956 38.5999 28.3482 38.2188 28.0167 37.7216C27.6853 37.2197 27.5196 36.6136 27.5196 35.9034C27.5196 35.2784 27.6427 34.7718 27.8889 34.3835C28.1351 33.9905 28.4642 33.6828 28.8761 33.4602C29.288 33.2377 29.7426 33.072 30.2397 32.9631C30.7416 32.8494 31.2459 32.7595 31.7525 32.6932C32.4154 32.608 32.9528 32.544 33.3647 32.5014C33.7814 32.4541 34.0844 32.3759 34.2738 32.267C34.4679 32.1581 34.565 31.9687 34.565 31.6989V31.642C34.565 30.9413 34.3732 30.3968 33.9897 30.0085C33.6109 29.6203 33.0357 29.4261 32.2639 29.4261C31.4637 29.4261 30.8363 29.6013 30.3818 29.9517C29.9272 30.3021 29.6076 30.6761 29.423 31.0739L27.8321 30.5057C28.1161 29.8428 28.4949 29.3267 28.9684 28.9574C29.4466 28.5833 29.9675 28.3229 30.5309 28.1761C31.0991 28.0246 31.6578 27.9489 32.2071 27.9489C32.5574 27.9489 32.9599 27.9915 33.4144 28.0767C33.8737 28.1572 34.3164 28.3253 34.7426 28.581C35.1734 28.8366 35.5309 29.2225 35.815 29.7386C36.0991 30.2547 36.2411 30.946 36.2411 31.8125V39H34.565V37.5227H34.4798C34.3661 37.7595 34.1768 38.0128 33.9116 38.2827C33.6464 38.5526 33.2937 38.7822 32.8534 38.9716C32.413 39.161 31.8756 39.2557 31.2411 39.2557ZM31.4968 37.75C32.1597 37.75 32.7184 37.6198 33.173 37.3594C33.6322 37.099 33.9779 36.7628 34.2099 36.3509C34.4466 35.9389 34.565 35.5057 34.565 35.0511V33.517C34.494 33.6023 34.3377 33.6804 34.0963 33.7514C33.8595 33.8177 33.5849 33.8769 33.2724 33.929C32.9646 33.9763 32.664 34.0189 32.3704 34.0568C32.0816 34.09 31.8472 34.1184 31.6673 34.142C31.2317 34.1989 30.8245 34.2912 30.4457 34.419C30.0716 34.5421 29.7686 34.7292 29.5366 34.9801C29.3093 35.2263 29.1957 35.5625 29.1957 35.9886C29.1957 36.571 29.4111 37.0114 29.842 37.3097C30.2776 37.6032 30.8292 37.75 31.4968 37.75ZM39.3004 39V28.0909H40.9198V29.7386H41.0334C41.2323 29.1989 41.5921 28.7609 42.1129 28.4247C42.6338 28.0885 43.2209 27.9205 43.8743 27.9205C43.9974 27.9205 44.1513 27.9228 44.336 27.9276C44.5206 27.9323 44.6603 27.9394 44.755 27.9489V29.6534C44.6982 29.6392 44.568 29.6179 44.3644 29.5895C44.1655 29.5563 43.9548 29.5398 43.7323 29.5398C43.202 29.5398 42.7285 29.651 42.3118 29.8736C41.8999 30.0914 41.5732 30.3944 41.3317 30.7827C41.095 31.1662 40.9766 31.6042 40.9766 32.0966V39H39.3004ZM50.9837 39.2273C49.9326 39.2273 49.0258 38.9953 48.2635 38.5312C47.5059 38.0625 46.9212 37.4091 46.5093 36.571C46.1021 35.7282 45.8985 34.7481 45.8985 33.6307C45.8985 32.5133 46.1021 31.5284 46.5093 30.6761C46.9212 29.8191 47.4941 29.1515 48.228 28.6733C48.9666 28.1903 49.8284 27.9489 50.8132 27.9489C51.3814 27.9489 51.9425 28.0436 52.4965 28.233C53.0504 28.4223 53.5547 28.7301 54.0093 29.1562C54.4638 29.5777 54.826 30.1364 55.0959 30.8324C55.3658 31.5284 55.5007 32.3854 55.5007 33.4034V34.1136H47.0916V32.6648H53.7962C53.7962 32.0492 53.6731 31.5 53.4269 31.017C53.1854 30.5341 52.8397 30.1529 52.3899 29.8736C51.9449 29.5942 51.4193 29.4545 50.8132 29.4545C50.1456 29.4545 49.568 29.6203 49.0803 29.9517C48.5973 30.2784 48.2256 30.7045 47.9652 31.2301C47.7048 31.7557 47.5746 32.3191 47.5746 32.9205V33.8864C47.5746 34.7102 47.7166 35.4086 48.0007 35.9815C48.2896 36.5497 48.6897 36.983 49.201 37.2812C49.7124 37.5748 50.3066 37.7216 50.9837 37.7216C51.424 37.7216 51.8218 37.66 52.1769 37.5369C52.5367 37.4091 52.8469 37.2197 53.1073 36.9688C53.3677 36.7131 53.5689 36.3958 53.711 36.017L55.3303 36.4716C55.1598 37.0208 54.8734 37.5038 54.4709 37.9205C54.0684 38.3324 53.5713 38.6544 52.9794 38.8864C52.3876 39.1136 51.7223 39.2273 50.9837 39.2273ZM68.5334 28.0909V29.5114H62.6527V28.0909H68.5334ZM64.4141 39V26.5852C64.4141 25.9602 64.5609 25.4394 64.8544 25.0227C65.148 24.6061 65.5291 24.2936 65.9979 24.0852C66.4666 23.8769 66.9614 23.7727 67.4823 23.7727C67.8942 23.7727 68.2304 23.8059 68.4908 23.8722C68.7512 23.9384 68.9453 24 69.0732 24.0568L68.5902 25.5057C68.505 25.4773 68.3866 25.4418 68.2351 25.3991C68.0883 25.3565 67.8942 25.3352 67.6527 25.3352C67.0987 25.3352 66.6986 25.4749 66.4524 25.7543C66.211 26.0336 66.0902 26.4432 66.0902 26.983V39H64.4141ZM74.8651 39.2273C73.8802 39.2273 73.0161 38.9929 72.2727 38.5241C71.5341 38.0554 70.9565 37.3996 70.5398 36.5568C70.1279 35.714 69.9219 34.7292 69.9219 33.6023C69.9219 32.4659 70.1279 31.474 70.5398 30.6264C70.9565 29.7789 71.5341 29.1207 72.2727 28.652C73.0161 28.1832 73.8802 27.9489 74.8651 27.9489C75.8499 27.9489 76.7117 28.1832 77.4503 28.652C78.1937 29.1207 78.7713 29.7789 79.1833 30.6264C79.5999 31.474 79.8083 32.4659 79.8083 33.6023C79.8083 34.7292 79.5999 35.714 79.1833 36.5568C78.7713 37.3996 78.1937 38.0554 77.4503 38.5241C76.7117 38.9929 75.8499 39.2273 74.8651 39.2273ZM74.8651 37.7216C75.6132 37.7216 76.2287 37.5298 76.7117 37.1463C77.1946 36.7628 77.5521 36.2585 77.7841 35.6335C78.0161 35.0085 78.1321 34.3314 78.1321 33.6023C78.1321 32.8731 78.0161 32.1937 77.7841 31.5639C77.5521 30.9342 77.1946 30.4252 76.7117 30.0369C76.2287 29.6487 75.6132 29.4545 74.8651 29.4545C74.117 29.4545 73.5014 29.6487 73.0185 30.0369C72.5355 30.4252 72.1781 30.9342 71.946 31.5639C71.714 32.1937 71.598 32.8731 71.598 33.6023C71.598 34.3314 71.714 35.0085 71.946 35.6335C72.1781 36.2585 72.5355 36.7628 73.0185 37.1463C73.5014 37.5298 74.117 37.7216 74.8651 37.7216ZM82.3669 39V28.0909H83.9862V29.7386H84.0998C84.2987 29.1989 84.6585 28.7609 85.1794 28.4247C85.7002 28.0885 86.2873 27.9205 86.9407 27.9205C87.0638 27.9205 87.2177 27.9228 87.4024 27.9276C87.587 27.9323 87.7267 27.9394 87.8214 27.9489V29.6534C87.7646 29.6392 87.6344 29.6179 87.4308 29.5895C87.2319 29.5563 87.0212 29.5398 86.7987 29.5398C86.2684 29.5398 85.7949 29.651 85.3782 29.8736C84.9663 30.0914 84.6396 30.3944 84.3981 30.7827C84.1614 31.1662 84.043 31.6042 84.043 32.0966V39H82.3669ZM89.8083 39V28.0909H91.4276V29.7955H91.5696C91.7969 29.2131 92.1638 28.7609 92.6705 28.4389C93.1771 28.1122 93.7855 27.9489 94.4958 27.9489C95.2155 27.9489 95.8144 28.1122 96.2926 28.4389C96.7756 28.7609 97.152 29.2131 97.4219 29.7955H97.5355C97.8149 29.232 98.2339 28.7846 98.7926 28.4531C99.3513 28.117 100.021 27.9489 100.803 27.9489C101.778 27.9489 102.576 28.2543 103.196 28.8651C103.816 29.4711 104.126 30.4157 104.126 31.6989V39H102.45V31.6989C102.45 30.8939 102.23 30.3187 101.79 29.973C101.349 29.6274 100.831 29.4545 100.234 29.4545C99.4674 29.4545 98.8731 29.6866 98.4517 30.1506C98.0303 30.6098 97.8196 31.1922 97.8196 31.8977V39H96.1151V31.5284C96.1151 30.9081 95.9138 30.4086 95.5114 30.0298C95.1089 29.6463 94.5905 29.4545 93.956 29.4545C93.5204 29.4545 93.1132 29.5705 92.7344 29.8026C92.3603 30.0346 92.0573 30.3565 91.8253 30.7685C91.598 31.1757 91.4844 31.6468 91.4844 32.1818V39H89.8083ZM114.066 34.5398V28.0909H115.742V39H114.066V37.1534H113.952C113.697 37.7074 113.299 38.1785 112.759 38.5668C112.219 38.9503 111.538 39.142 110.714 39.142C110.032 39.142 109.426 38.9929 108.896 38.6946C108.365 38.3916 107.949 37.937 107.646 37.331C107.343 36.7202 107.191 35.9508 107.191 35.0227V28.0909H108.867V34.9091C108.867 35.7045 109.09 36.339 109.535 36.8125C109.985 37.286 110.558 37.5227 111.254 37.5227C111.67 37.5227 112.094 37.4162 112.525 37.2031C112.96 36.9901 113.325 36.6634 113.619 36.223C113.917 35.7827 114.066 35.2216 114.066 34.5398ZM120.488 24.4545V39H118.812V24.4545H120.488ZM126.768 39.2557C126.077 39.2557 125.45 39.1255 124.886 38.8651C124.323 38.5999 123.875 38.2188 123.544 37.7216C123.213 37.2197 123.047 36.6136 123.047 35.9034C123.047 35.2784 123.17 34.7718 123.416 34.3835C123.662 33.9905 123.991 33.6828 124.403 33.4602C124.815 33.2377 125.27 33.072 125.767 32.9631C126.269 32.8494 126.773 32.7595 127.28 32.6932C127.943 32.608 128.48 32.544 128.892 32.5014C129.309 32.4541 129.612 32.3759 129.801 32.267C129.995 32.1581 130.092 31.9687 130.092 31.6989V31.642C130.092 30.9413 129.901 30.3968 129.517 30.0085C129.138 29.6203 128.563 29.4261 127.791 29.4261C126.991 29.4261 126.364 29.6013 125.909 29.9517C125.455 30.3021 125.135 30.6761 124.95 31.0739L123.359 30.5057C123.643 29.8428 124.022 29.3267 124.496 28.9574C124.974 28.5833 125.495 28.3229 126.058 28.1761C126.626 28.0246 127.185 27.9489 127.734 27.9489C128.085 27.9489 128.487 27.9915 128.942 28.0767C129.401 28.1572 129.844 28.3253 130.27 28.581C130.701 28.8366 131.058 29.2225 131.342 29.7386C131.626 30.2547 131.768 30.946 131.768 31.8125V39H130.092V37.5227H130.007C129.893 37.7595 129.704 38.0128 129.439 38.2827C129.174 38.5526 128.821 38.7822 128.381 38.9716C127.94 39.161 127.403 39.2557 126.768 39.2557ZM127.024 37.75C127.687 37.75 128.246 37.6198 128.7 37.3594C129.16 37.099 129.505 36.7628 129.737 36.3509C129.974 35.9389 130.092 35.5057 130.092 35.0511V33.517C130.021 33.6023 129.865 33.6804 129.624 33.7514C129.387 33.8177 129.112 33.8769 128.8 33.929C128.492 33.9763 128.191 34.0189 127.898 34.0568C127.609 34.09 127.375 34.1184 127.195 34.142C126.759 34.1989 126.352 34.2912 125.973 34.419C125.599 34.5421 125.296 34.7292 125.064 34.9801C124.837 35.2263 124.723 35.5625 124.723 35.9886C124.723 36.571 124.938 37.0114 125.369 37.3097C125.805 37.6032 126.357 37.75 127.024 37.75ZM139.572 28.0909V29.5114H133.919V28.0909H139.572ZM135.566 25.4773H137.243V35.875C137.243 36.3485 137.311 36.7036 137.449 36.9403C137.591 37.1723 137.771 37.3286 137.988 37.4091C138.211 37.4848 138.445 37.5227 138.691 37.5227C138.876 37.5227 139.028 37.5133 139.146 37.4943C139.264 37.4706 139.359 37.4517 139.43 37.4375L139.771 38.9432C139.657 38.9858 139.499 39.0284 139.295 39.071C139.092 39.1184 138.833 39.142 138.521 39.142C138.047 39.142 137.583 39.0402 137.129 38.8366C136.679 38.633 136.305 38.3229 136.007 37.9062C135.713 37.4896 135.566 36.964 135.566 36.3295V25.4773ZM142.093 39V28.0909H143.77V39H142.093ZM142.946 26.2727C142.619 26.2727 142.337 26.1615 142.101 25.9389C141.869 25.7164 141.753 25.4489 141.753 25.1364C141.753 24.8239 141.869 24.5563 142.101 24.3338C142.337 24.1113 142.619 24 142.946 24C143.272 24 143.552 24.1113 143.784 24.3338C144.021 24.5563 144.139 24.8239 144.139 25.1364C144.139 25.4489 144.021 25.7164 143.784 25.9389C143.552 26.1615 143.272 26.2727 142.946 26.2727ZM151.271 39.2273C150.286 39.2273 149.422 38.9929 148.679 38.5241C147.94 38.0554 147.363 37.3996 146.946 36.5568C146.534 35.714 146.328 34.7292 146.328 33.6023C146.328 32.4659 146.534 31.474 146.946 30.6264C147.363 29.7789 147.94 29.1207 148.679 28.652C149.422 28.1832 150.286 27.9489 151.271 27.9489C152.256 27.9489 153.118 28.1832 153.857 28.652C154.6 29.1207 155.178 29.7789 155.59 30.6264C156.006 31.474 156.215 32.4659 156.215 33.6023C156.215 34.7292 156.006 35.714 155.59 36.5568C155.178 37.3996 154.6 38.0554 153.857 38.5241C153.118 38.9929 152.256 39.2273 151.271 39.2273ZM151.271 37.7216C152.019 37.7216 152.635 37.5298 153.118 37.1463C153.601 36.7628 153.958 36.2585 154.19 35.6335C154.422 35.0085 154.538 34.3314 154.538 33.6023C154.538 32.8731 154.422 32.1937 154.19 31.5639C153.958 30.9342 153.601 30.4252 153.118 30.0369C152.635 29.6487 152.019 29.4545 151.271 29.4545C150.523 29.4545 149.908 29.6487 149.425 30.0369C148.942 30.4252 148.584 30.9342 148.352 31.5639C148.12 32.1937 148.004 32.8731 148.004 33.6023C148.004 34.3314 148.12 35.0085 148.352 35.6335C148.584 36.2585 148.942 36.7628 149.425 37.1463C149.908 37.5298 150.523 37.7216 151.271 37.7216ZM160.449 32.4375V39H158.773V28.0909H160.392V29.7955H160.534C160.79 29.2415 161.178 28.7964 161.699 28.4602C162.22 28.1193 162.892 27.9489 163.716 27.9489C164.455 27.9489 165.101 28.1004 165.655 28.4034C166.209 28.7017 166.64 29.1562 166.948 29.767C167.256 30.3731 167.409 31.1402 167.409 32.0682V39H165.733V32.1818C165.733 31.3248 165.511 30.6572 165.066 30.179C164.621 29.696 164.01 29.4545 163.233 29.4545C162.698 29.4545 162.22 29.5705 161.799 29.8026C161.382 30.0346 161.053 30.3731 160.811 30.8182C160.57 31.2633 160.449 31.803 160.449 32.4375ZM179.308 39.2557C178.616 39.2557 177.989 39.1255 177.425 38.8651C176.862 38.5999 176.415 38.2188 176.083 37.7216C175.752 37.2197 175.586 36.6136 175.586 35.9034C175.586 35.2784 175.709 34.7718 175.955 34.3835C176.201 33.9905 176.531 33.6828 176.942 33.4602C177.354 33.2377 177.809 33.072 178.306 32.9631C178.808 32.8494 179.312 32.7595 179.819 32.6932C180.482 32.608 181.019 32.544 181.431 32.5014C181.848 32.4541 182.151 32.3759 182.34 32.267C182.534 32.1581 182.631 31.9687 182.631 31.6989V31.642C182.631 30.9413 182.44 30.3968 182.056 30.0085C181.677 29.6203 181.102 29.4261 180.33 29.4261C179.53 29.4261 178.903 29.6013 178.448 29.9517C177.994 30.3021 177.674 30.6761 177.489 31.0739L175.898 30.5057C176.183 29.8428 176.561 29.3267 177.035 28.9574C177.513 28.5833 178.034 28.3229 178.597 28.1761C179.166 28.0246 179.724 27.9489 180.273 27.9489C180.624 27.9489 181.026 27.9915 181.481 28.0767C181.94 28.1572 182.383 28.3253 182.809 28.581C183.24 28.8366 183.597 29.2225 183.881 29.7386C184.166 30.2547 184.308 30.946 184.308 31.8125V39H182.631V37.5227H182.546C182.433 37.7595 182.243 38.0128 181.978 38.2827C181.713 38.5526 181.36 38.7822 180.92 38.9716C180.479 39.161 179.942 39.2557 179.308 39.2557ZM179.563 37.75C180.226 37.75 180.785 37.6198 181.239 37.3594C181.699 37.099 182.044 36.7628 182.276 36.3509C182.513 35.9389 182.631 35.5057 182.631 35.0511V33.517C182.56 33.6023 182.404 33.6804 182.163 33.7514C181.926 33.8177 181.651 33.8769 181.339 33.929C181.031 33.9763 180.73 34.0189 180.437 34.0568C180.148 34.09 179.914 34.1184 179.734 34.142C179.298 34.1989 178.891 34.2912 178.512 34.419C178.138 34.5421 177.835 34.7292 177.603 34.9801C177.376 35.2263 177.262 35.5625 177.262 35.9886C177.262 36.571 177.478 37.0114 177.908 37.3097C178.344 37.6032 178.896 37.75 179.563 37.75ZM189.043 32.4375V39H187.367V28.0909H188.986V29.7955H189.128C189.384 29.2415 189.772 28.7964 190.293 28.4602C190.814 28.1193 191.486 27.9489 192.31 27.9489C193.049 27.9489 193.695 28.1004 194.249 28.4034C194.803 28.7017 195.234 29.1562 195.542 29.767C195.849 30.3731 196.003 31.1402 196.003 32.0682V39H194.327V32.1818C194.327 31.3248 194.105 30.6572 193.659 30.179C193.214 29.696 192.604 29.4545 191.827 29.4545C191.292 29.4545 190.814 29.5705 190.392 29.8026C189.976 30.0346 189.647 30.3731 189.405 30.8182C189.164 31.2633 189.043 31.803 189.043 32.4375ZM203.185 39.2273C202.276 39.2273 201.474 38.9976 200.778 38.5384C200.082 38.0743 199.537 37.4209 199.144 36.5781C198.751 35.7306 198.555 34.7292 198.555 33.5739C198.555 32.428 198.751 31.4337 199.144 30.5909C199.537 29.7481 200.084 29.0971 200.785 28.6378C201.486 28.1785 202.295 27.9489 203.214 27.9489C203.924 27.9489 204.485 28.0672 204.897 28.304C205.314 28.536 205.631 28.8011 205.849 29.0994C206.071 29.393 206.244 29.6345 206.367 29.8239H206.509V24.4545H208.185V39H206.566V37.3239H206.367C206.244 37.5227 206.069 37.7737 205.842 38.0767C205.614 38.375 205.29 38.6425 204.869 38.8793C204.447 39.1113 203.886 39.2273 203.185 39.2273ZM203.413 37.7216C204.085 37.7216 204.653 37.5464 205.117 37.196C205.581 36.8409 205.934 36.3509 206.175 35.7259C206.417 35.0961 206.538 34.3693 206.538 33.5455C206.538 32.7311 206.419 32.0185 206.183 31.4077C205.946 30.7921 205.595 30.3139 205.131 29.973C204.667 29.6274 204.094 29.4545 203.413 29.4545C202.702 29.4545 202.111 29.6368 201.637 30.0014C201.168 30.3613 200.816 30.8513 200.579 31.4716C200.347 32.0871 200.231 32.7784 200.231 33.5455C200.231 34.322 200.349 35.0275 200.586 35.6619C200.827 36.2917 201.183 36.7936 201.651 37.1676C202.125 37.5369 202.712 37.7216 203.413 37.7216ZM217.113 43.0909V28.0909H218.732V29.8239H218.931C219.054 29.6345 219.225 29.393 219.442 29.0994C219.665 28.8011 219.982 28.536 220.394 28.304C220.811 28.0672 221.374 27.9489 222.085 27.9489C223.003 27.9489 223.813 28.1785 224.514 28.6378C225.214 29.0971 225.761 29.7481 226.154 30.5909C226.547 31.4337 226.744 32.428 226.744 33.5739C226.744 34.7292 226.547 35.7306 226.154 36.5781C225.761 37.4209 225.217 38.0743 224.521 38.5384C223.825 38.9976 223.022 39.2273 222.113 39.2273C221.412 39.2273 220.851 39.1113 220.43 38.8793C220.008 38.6425 219.684 38.375 219.457 38.0767C219.229 37.7737 219.054 37.5227 218.931 37.3239H218.789V43.0909H217.113ZM218.761 33.5455C218.761 34.3693 218.881 35.0961 219.123 35.7259C219.364 36.3509 219.717 36.8409 220.181 37.196C220.645 37.5464 221.213 37.7216 221.886 37.7216C222.586 37.7216 223.171 37.5369 223.64 37.1676C224.113 36.7936 224.469 36.2917 224.705 35.6619C224.947 35.0275 225.067 34.322 225.067 33.5455C225.067 32.7784 224.949 32.0871 224.712 31.4716C224.48 30.8513 224.128 30.3613 223.654 30.0014C223.185 29.6368 222.596 29.4545 221.886 29.4545C221.204 29.4545 220.631 29.6274 220.167 29.973C219.703 30.3139 219.353 30.7921 219.116 31.4077C218.879 32.0185 218.761 32.7311 218.761 33.5455ZM232.511 39.2557C231.819 39.2557 231.192 39.1255 230.629 38.8651C230.065 38.5999 229.618 38.2188 229.286 37.7216C228.955 37.2197 228.789 36.6136 228.789 35.9034C228.789 35.2784 228.912 34.7718 229.158 34.3835C229.405 33.9905 229.734 33.6828 230.146 33.4602C230.558 33.2377 231.012 33.072 231.509 32.9631C232.011 32.8494 232.515 32.7595 233.022 32.6932C233.685 32.608 234.222 32.544 234.634 32.5014C235.051 32.4541 235.354 32.3759 235.543 32.267C235.737 32.1581 235.835 31.9687 235.835 31.6989V31.642C235.835 30.9413 235.643 30.3968 235.259 30.0085C234.88 29.6203 234.305 29.4261 233.533 29.4261C232.733 29.4261 232.106 29.6013 231.651 29.9517C231.197 30.3021 230.877 30.6761 230.692 31.0739L229.102 30.5057C229.386 29.8428 229.764 29.3267 230.238 28.9574C230.716 28.5833 231.237 28.3229 231.8 28.1761C232.369 28.0246 232.927 27.9489 233.477 27.9489C233.827 27.9489 234.229 27.9915 234.684 28.0767C235.143 28.1572 235.586 28.3253 236.012 28.581C236.443 28.8366 236.8 29.2225 237.085 29.7386C237.369 30.2547 237.511 30.946 237.511 31.8125V39H235.835V37.5227H235.749C235.636 37.7595 235.446 38.0128 235.181 38.2827C234.916 38.5526 234.563 38.7822 234.123 38.9716C233.683 39.161 233.145 39.2557 232.511 39.2557ZM232.766 37.75C233.429 37.75 233.988 37.6198 234.442 37.3594C234.902 37.099 235.247 36.7628 235.479 36.3509C235.716 35.9389 235.835 35.5057 235.835 35.0511V33.517C235.764 33.6023 235.607 33.6804 235.366 33.7514C235.129 33.8177 234.854 33.8769 234.542 33.929C234.234 33.9763 233.933 34.0189 233.64 34.0568C233.351 34.09 233.117 34.1184 232.937 34.142C232.501 34.1989 232.094 34.2912 231.715 34.419C231.341 34.5421 231.038 34.7292 230.806 34.9801C230.579 35.2263 230.465 35.5625 230.465 35.9886C230.465 36.571 230.681 37.0114 231.112 37.3097C231.547 37.6032 232.099 37.75 232.766 37.75ZM245.002 39.2273C243.979 39.2273 243.098 38.9858 242.36 38.5028C241.621 38.0199 241.053 37.3546 240.655 36.5071C240.257 35.6596 240.059 34.6913 240.059 33.6023C240.059 32.4943 240.262 31.5166 240.669 30.669C241.081 29.8168 241.654 29.1515 242.388 28.6733C243.127 28.1903 243.989 27.9489 244.973 27.9489C245.74 27.9489 246.432 28.0909 247.047 28.375C247.663 28.6591 248.167 29.0568 248.56 29.5682C248.953 30.0795 249.197 30.6761 249.292 31.358H247.615C247.488 30.8608 247.204 30.4205 246.763 30.0369C246.328 29.6487 245.74 29.4545 245.002 29.4545C244.348 29.4545 243.775 29.625 243.283 29.9659C242.795 30.3021 242.414 30.7779 242.14 31.3935C241.87 32.0043 241.735 32.7216 241.735 33.5455C241.735 34.3883 241.867 35.1222 242.132 35.7472C242.402 36.3722 242.781 36.8575 243.269 37.2031C243.761 37.5488 244.339 37.7216 245.002 37.7216C245.437 37.7216 245.833 37.6458 246.188 37.4943C246.543 37.3428 246.844 37.125 247.09 36.8409C247.336 36.5568 247.511 36.2159 247.615 35.8182H249.292C249.197 36.4621 248.962 37.0421 248.588 37.5582C248.219 38.0696 247.729 38.4768 247.118 38.7798C246.512 39.0781 245.807 39.2273 245.002 39.2273ZM253.304 35.0227L253.276 32.9489H253.617L258.39 28.0909H260.463L255.378 33.233H255.236L253.304 35.0227ZM251.742 39V24.4545H253.418V39H251.742ZM258.674 39L254.412 33.6023L255.605 32.4375L260.804 39H258.674ZM265.831 39.2557C265.14 39.2557 264.512 39.1255 263.949 38.8651C263.385 38.5999 262.938 38.2188 262.607 37.7216C262.275 37.2197 262.109 36.6136 262.109 35.9034C262.109 35.2784 262.233 34.7718 262.479 34.3835C262.725 33.9905 263.054 33.6828 263.466 33.4602C263.878 33.2377 264.332 33.072 264.83 32.9631C265.331 32.8494 265.836 32.7595 266.342 32.6932C267.005 32.608 267.543 32.544 267.955 32.5014C268.371 32.4541 268.674 32.3759 268.864 32.267C269.058 32.1581 269.155 31.9687 269.155 31.6989V31.642C269.155 30.9413 268.963 30.3968 268.58 30.0085C268.201 29.6203 267.625 29.4261 266.854 29.4261C266.054 29.4261 265.426 29.6013 264.972 29.9517C264.517 30.3021 264.197 30.6761 264.013 31.0739L262.422 30.5057C262.706 29.8428 263.085 29.3267 263.558 28.9574C264.036 28.5833 264.557 28.3229 265.121 28.1761C265.689 28.0246 266.248 27.9489 266.797 27.9489C267.147 27.9489 267.55 27.9915 268.004 28.0767C268.464 28.1572 268.906 28.3253 269.332 28.581C269.763 28.8366 270.121 29.2225 270.405 29.7386C270.689 30.2547 270.831 30.946 270.831 31.8125V39H269.155V37.5227H269.07C268.956 37.7595 268.767 38.0128 268.501 38.2827C268.236 38.5526 267.884 38.7822 267.443 38.9716C267.003 39.161 266.465 39.2557 265.831 39.2557ZM266.087 37.75C266.75 37.75 267.308 37.6198 267.763 37.3594C268.222 37.099 268.568 36.7628 268.8 36.3509C269.036 35.9389 269.155 35.5057 269.155 35.0511V33.517C269.084 33.6023 268.928 33.6804 268.686 33.7514C268.449 33.8177 268.175 33.8769 267.862 33.929C267.554 33.9763 267.254 34.0189 266.96 34.0568C266.671 34.09 266.437 34.1184 266.257 34.142C265.822 34.1989 265.414 34.2912 265.036 34.419C264.661 34.5421 264.358 34.7292 264.126 34.9801C263.899 35.2263 263.786 35.5625 263.786 35.9886C263.786 36.571 264.001 37.0114 264.432 37.3097C264.867 37.6032 265.419 37.75 266.087 37.75ZM278.294 43.3182C277.484 43.3182 276.788 43.214 276.206 43.0057C275.623 42.8021 275.138 42.5322 274.75 42.196C274.366 41.8646 274.061 41.5095 273.833 41.1307L275.169 40.1932C275.32 40.392 275.512 40.6193 275.744 40.875C275.976 41.1354 276.293 41.3603 276.696 41.5497C277.103 41.7438 277.636 41.8409 278.294 41.8409C279.174 41.8409 279.901 41.6278 280.474 41.2017C281.047 40.7756 281.333 40.108 281.333 39.1989V36.983H281.191C281.068 37.1818 280.893 37.428 280.666 37.7216C280.443 38.0104 280.121 38.2685 279.7 38.4957C279.283 38.7183 278.72 38.8295 278.01 38.8295C277.129 38.8295 276.338 38.6212 275.637 38.2045C274.941 37.7879 274.39 37.1818 273.983 36.3864C273.58 35.5909 273.379 34.625 273.379 33.4886C273.379 32.3712 273.575 31.3982 273.968 30.5696C274.361 29.7363 274.908 29.0923 275.609 28.6378C276.31 28.1785 277.119 27.9489 278.038 27.9489C278.748 27.9489 279.312 28.0672 279.728 28.304C280.15 28.536 280.472 28.8011 280.694 29.0994C280.922 29.393 281.097 29.6345 281.22 29.8239H281.39V28.0909H283.01V39.3125C283.01 40.25 282.797 41.0123 282.37 41.5994C281.949 42.1913 281.381 42.6245 280.666 42.8991C279.956 43.1785 279.165 43.3182 278.294 43.3182ZM278.237 37.3239C278.909 37.3239 279.477 37.17 279.941 36.8622C280.405 36.5545 280.758 36.1117 281 35.5341C281.241 34.9564 281.362 34.2652 281.362 33.4602C281.362 32.6742 281.244 31.9806 281.007 31.3793C280.77 30.7779 280.42 30.3068 279.956 29.9659C279.492 29.625 278.919 29.4545 278.237 29.4545C277.527 29.4545 276.935 29.6345 276.461 29.9943C275.993 30.3542 275.64 30.8371 275.403 31.4432C275.171 32.0492 275.055 32.7216 275.055 33.4602C275.055 34.2178 275.173 34.8878 275.41 35.4702C275.652 36.0478 276.007 36.5024 276.476 36.8338C276.949 37.1605 277.536 37.3239 278.237 37.3239ZM286.078 39V28.0909H287.754V39H286.078ZM286.93 26.2727C286.603 26.2727 286.322 26.1615 286.085 25.9389C285.853 25.7164 285.737 25.4489 285.737 25.1364C285.737 24.8239 285.853 24.5563 286.085 24.3338C286.322 24.1113 286.603 24 286.93 24C287.257 24 287.536 24.1113 287.768 24.3338C288.005 24.5563 288.123 24.8239 288.123 25.1364C288.123 25.4489 288.005 25.7164 287.768 25.9389C287.536 26.1615 287.257 26.2727 286.93 26.2727ZM292.5 32.4375V39H290.824V28.0909H292.443V29.7955H292.585C292.841 29.2415 293.229 28.7964 293.75 28.4602C294.271 28.1193 294.943 27.9489 295.767 27.9489C296.506 27.9489 297.152 28.1004 297.706 28.4034C298.26 28.7017 298.691 29.1562 298.999 29.767C299.306 30.3731 299.46 31.1402 299.46 32.0682V39H297.784V32.1818C297.784 31.3248 297.562 30.6572 297.116 30.179C296.671 29.696 296.061 29.4545 295.284 29.4545C294.749 29.4545 294.271 29.5705 293.849 29.8026C293.433 30.0346 293.104 30.3731 292.862 30.8182C292.621 31.2633 292.5 31.803 292.5 32.4375ZM306.927 43.3182C306.117 43.3182 305.421 43.214 304.838 43.0057C304.256 42.8021 303.771 42.5322 303.382 42.196C302.999 41.8646 302.694 41.5095 302.466 41.1307L303.802 40.1932C303.953 40.392 304.145 40.6193 304.377 40.875C304.609 41.1354 304.926 41.3603 305.329 41.5497C305.736 41.7438 306.268 41.8409 306.927 41.8409C307.807 41.8409 308.534 41.6278 309.107 41.2017C309.68 40.7756 309.966 40.108 309.966 39.1989V36.983H309.824C309.701 37.1818 309.526 37.428 309.299 37.7216C309.076 38.0104 308.754 38.2685 308.333 38.4957C307.916 38.7183 307.353 38.8295 306.642 38.8295C305.762 38.8295 304.971 38.6212 304.27 38.2045C303.574 37.7879 303.023 37.1818 302.615 36.3864C302.213 35.5909 302.012 34.625 302.012 33.4886C302.012 32.3712 302.208 31.3982 302.601 30.5696C302.994 29.7363 303.541 29.0923 304.242 28.6378C304.943 28.1785 305.752 27.9489 306.671 27.9489C307.381 27.9489 307.945 28.0672 308.361 28.304C308.783 28.536 309.105 28.8011 309.327 29.0994C309.554 29.393 309.73 29.6345 309.853 29.8239H310.023V28.0909H311.642V39.3125C311.642 40.25 311.429 41.0123 311.003 41.5994C310.582 42.1913 310.014 42.6245 309.299 42.8991C308.588 43.1785 307.798 43.3182 306.927 43.3182ZM306.87 37.3239C307.542 37.3239 308.11 37.17 308.574 36.8622C309.038 36.5545 309.391 36.1117 309.632 35.5341C309.874 34.9564 309.995 34.2652 309.995 33.4602C309.995 32.6742 309.876 31.9806 309.64 31.3793C309.403 30.7779 309.052 30.3068 308.588 29.9659C308.124 29.625 307.552 29.4545 306.87 29.4545C306.159 29.4545 305.568 29.6345 305.094 29.9943C304.625 30.3542 304.273 30.8371 304.036 31.4432C303.804 32.0492 303.688 32.7216 303.688 33.4602C303.688 34.2178 303.806 34.8878 304.043 35.4702C304.284 36.0478 304.64 36.5024 305.108 36.8338C305.582 37.1605 306.169 37.3239 306.87 37.3239ZM315.932 39.1136C315.582 39.1136 315.281 38.9882 315.03 38.7372C314.779 38.4863 314.654 38.1856 314.654 37.8352C314.654 37.4848 314.779 37.1842 315.03 36.9332C315.281 36.6823 315.582 36.5568 315.932 36.5568C316.283 36.5568 316.583 36.6823 316.834 36.9332C317.085 37.1842 317.211 37.4848 317.211 37.8352C317.211 38.0672 317.151 38.2803 317.033 38.4744C316.919 38.6686 316.766 38.8248 316.571 38.9432C316.382 39.0568 316.169 39.1136 315.932 39.1136Z" fill="#DADADA"/>
</svg>
