<svg width="218" height="88" viewBox="0 0 218 88" fill="none" xmlns="http://www.w3.org/2000/svg">
<path d="M4.15396 15V4.09091H5.77328V5.79545H5.91533C6.1426 5.21307 6.50955 4.76089 7.01618 4.43892C7.52281 4.11222 8.13124 3.94886 8.84146 3.94886C9.56116 3.94886 10.1601 4.11222 10.6383 4.43892C11.1213 4.76089 11.4977 5.21307 11.7676 5.79545H11.8812C12.1606 5.23201 12.5796 4.78456 13.1383 4.45312C13.6971 4.11695 14.367 3.94886 15.1483 3.94886C16.1237 3.94886 16.9215 4.25426 17.5417 4.86506C18.162 5.47112 18.4721 6.41572 18.4721 7.69886V15H16.796V7.69886C16.796 6.89394 16.5758 6.31866 16.1355 5.97301C15.6952 5.62737 15.1767 5.45455 14.5801 5.45455C13.8131 5.45455 13.2188 5.68655 12.7974 6.15057C12.376 6.60985 12.1653 7.19223 12.1653 7.89773V15H10.4608V7.52841C10.4608 6.90814 10.2596 6.40862 9.85709 6.02983C9.45463 5.64631 8.93616 5.45455 8.30169 5.45455C7.86609 5.45455 7.45889 5.57055 7.0801 5.80256C6.70605 6.03456 6.40302 6.35653 6.17101 6.76847C5.94374 7.17566 5.8301 7.64678 5.8301 8.18182V15H4.15396ZM26.1106 15.2273C25.0595 15.2273 24.1528 14.9953 23.3905 14.5312C22.6329 14.0625 22.0481 13.4091 21.6362 12.571C21.229 11.7282 21.0254 10.7481 21.0254 9.63068C21.0254 8.51326 21.229 7.52841 21.6362 6.67614C22.0481 5.81913 22.6211 5.15152 23.355 4.6733C24.0936 4.19034 24.9553 3.94886 25.9402 3.94886C26.5084 3.94886 27.0694 4.04356 27.6234 4.23295C28.1774 4.42235 28.6817 4.73011 29.1362 5.15625C29.5908 5.57765 29.953 6.13636 30.2229 6.83239C30.4927 7.52841 30.6277 8.38542 30.6277 9.40341V10.1136H22.2186V8.66477H28.9231C28.9231 8.04924 28.8 7.5 28.5538 7.01705C28.3123 6.53409 27.9667 6.15294 27.5169 5.87358C27.0718 5.59422 26.5462 5.45455 25.9402 5.45455C25.2726 5.45455 24.6949 5.62026 24.2072 5.9517C23.7243 6.27841 23.3526 6.70455 23.0922 7.23011C22.8318 7.75568 22.7015 8.31913 22.7015 8.92045V9.88636C22.7015 10.7102 22.8436 11.4086 23.1277 11.9815C23.4165 12.5497 23.8166 12.983 24.328 13.2812C24.8393 13.5748 25.4336 13.7216 26.1106 13.7216C26.551 13.7216 26.9487 13.66 27.3038 13.5369C27.6637 13.4091 27.9738 13.2197 28.2342 12.9688C28.4946 12.7131 28.6959 12.3958 28.8379 12.017L30.4572 12.4716C30.2868 13.0208 30.0003 13.5038 29.5979 13.9205C29.1954 14.3324 28.6982 14.6544 28.1064 14.8864C27.5145 15.1136 26.8493 15.2273 26.1106 15.2273ZM37.9217 4.09091V5.51136H32.2683V4.09091H37.9217ZM33.916 1.47727H35.5922V11.875C35.5922 12.3485 35.6608 12.7036 35.7981 12.9403C35.9402 13.1723 36.1201 13.3286 36.3379 13.4091C36.5605 13.4848 36.7948 13.5227 37.041 13.5227C37.2257 13.5227 37.3772 13.5133 37.4956 13.4943C37.614 13.4706 37.7087 13.4517 37.7797 13.4375L38.1206 14.9432C38.0069 14.9858 37.8483 15.0284 37.6447 15.071C37.4411 15.1184 37.1831 15.142 36.8706 15.142C36.3971 15.142 35.9331 15.0402 35.4785 14.8366C35.0287 14.633 34.6547 14.3229 34.3564 13.9062C34.0628 13.4896 33.916 12.964 33.916 12.3295V1.47727ZM43.6533 15.2557C42.962 15.2557 42.3346 15.1255 41.7712 14.8651C41.2077 14.5999 40.7603 14.2188 40.4288 13.7216C40.0974 13.2197 39.9317 12.6136 39.9317 11.9034C39.9317 11.2784 40.0548 10.7718 40.301 10.3835C40.5472 9.99053 40.8763 9.68276 41.2882 9.46023C41.7001 9.23769 42.1547 9.07197 42.6518 8.96307C43.1537 8.84943 43.658 8.75947 44.1646 8.69318C44.8275 8.60795 45.3649 8.54403 45.7768 8.50142C46.1935 8.45407 46.4965 8.37595 46.6859 8.26705C46.8801 8.15814 46.9771 7.96875 46.9771 7.69886V7.64205C46.9771 6.94129 46.7854 6.39678 46.4018 6.00852C46.023 5.62027 45.4478 5.42614 44.676 5.42614C43.8758 5.42614 43.2484 5.60133 42.7939 5.9517C42.3393 6.30208 42.0197 6.67614 41.8351 7.07386L40.2442 6.50568C40.5283 5.8428 40.907 5.3267 41.3805 4.95739C41.8587 4.58333 42.3796 4.32292 42.943 4.17614C43.5112 4.02462 44.0699 3.94886 44.6192 3.94886C44.9695 3.94886 45.372 3.99148 45.8265 4.0767C46.2858 4.1572 46.7285 4.32528 47.1547 4.58097C47.5855 4.83665 47.943 5.22254 48.2271 5.73864C48.5112 6.25473 48.6533 6.94602 48.6533 7.8125V15H46.9771V13.5227H46.8919C46.7783 13.7595 46.5889 14.0128 46.3237 14.2827C46.0586 14.5526 45.7058 14.7822 45.2655 14.9716C44.8251 15.161 44.2877 15.2557 43.6533 15.2557ZM43.9089 13.75C44.5718 13.75 45.1305 13.6198 45.5851 13.3594C46.0444 13.099 46.39 12.7628 46.622 12.3509C46.8587 11.9389 46.9771 11.5057 46.9771 11.0511V9.51705C46.9061 9.60227 46.7498 9.6804 46.5084 9.75142C46.2716 9.81771 45.997 9.87689 45.6845 9.92898C45.3767 9.97633 45.0761 10.0189 44.7825 10.0568C44.4937 10.09 44.2593 10.1184 44.0794 10.142C43.6438 10.1989 43.2366 10.2912 42.8578 10.419C42.4837 10.5421 42.1807 10.7292 41.9487 10.9801C41.7214 11.2263 41.6078 11.5625 41.6078 11.9886C41.6078 12.571 41.8232 13.0114 42.2541 13.3097C42.6897 13.6032 43.2413 13.75 43.9089 13.75ZM51.9398 15V0.454545H53.616V5.82386H53.758C53.8811 5.63447 54.0516 5.39299 54.2694 5.09943C54.4919 4.80114 54.8091 4.53598 55.2211 4.30398C55.6377 4.06723 56.2012 3.94886 56.9114 3.94886C57.83 3.94886 58.6396 4.1785 59.3404 4.63778C60.0412 5.09706 60.588 5.74811 60.981 6.59091C61.374 7.43371 61.5705 8.42803 61.5705 9.57386C61.5705 10.7292 61.374 11.7306 60.981 12.5781C60.588 13.4209 60.0435 14.0743 59.3475 14.5384C58.6515 14.9976 57.8489 15.2273 56.9398 15.2273C56.2391 15.2273 55.678 15.1113 55.2566 14.8793C54.8352 14.6425 54.5109 14.375 54.2836 14.0767C54.0563 13.7737 53.8811 13.5227 53.758 13.3239H53.5591V15H51.9398ZM53.5876 9.54545C53.5876 10.3693 53.7083 11.0961 53.9498 11.7259C54.1913 12.3509 54.544 12.8409 55.008 13.196C55.472 13.5464 56.0402 13.7216 56.7126 13.7216C57.4133 13.7216 57.9981 13.5369 58.4668 13.1676C58.9403 12.7936 59.2954 12.2917 59.5322 11.6619C59.7736 11.0275 59.8944 10.322 59.8944 9.54545C59.8944 8.77841 59.776 8.08712 59.5393 7.47159C59.3073 6.85133 58.9545 6.36127 58.481 6.00142C58.0123 5.63684 57.4228 5.45455 56.7126 5.45455C56.0307 5.45455 55.4578 5.62737 54.9938 5.97301C54.5298 6.31392 54.1794 6.79214 53.9427 7.40767C53.7059 8.01847 53.5876 8.73106 53.5876 9.54545ZM68.5663 15.2273C67.5814 15.2273 66.7173 14.9929 65.9739 14.5241C65.2353 14.0554 64.6576 13.3996 64.241 12.5568C63.829 11.714 63.6231 10.7292 63.6231 9.60227C63.6231 8.46591 63.829 7.47396 64.241 6.62642C64.6576 5.77888 65.2353 5.12074 65.9739 4.65199C66.7173 4.18324 67.5814 3.94886 68.5663 3.94886C69.5511 3.94886 70.4128 4.18324 71.1515 4.65199C71.8948 5.12074 72.4725 5.77888 72.8844 6.62642C73.3011 7.47396 73.5094 8.46591 73.5094 9.60227C73.5094 10.7292 73.3011 11.714 72.8844 12.5568C72.4725 13.3996 71.8948 14.0554 71.1515 14.5241C70.4128 14.9929 69.5511 15.2273 68.5663 15.2273ZM68.5663 13.7216C69.3144 13.7216 69.9299 13.5298 70.4128 13.1463C70.8958 12.7628 71.2533 12.2585 71.4853 11.6335C71.7173 11.0085 71.8333 10.3314 71.8333 9.60227C71.8333 8.87311 71.7173 8.19366 71.4853 7.56392C71.2533 6.93419 70.8958 6.42519 70.4128 6.03693C69.9299 5.64867 69.3144 5.45455 68.5663 5.45455C67.8181 5.45455 67.2026 5.64867 66.7197 6.03693C66.2367 6.42519 65.8792 6.93419 65.6472 7.56392C65.4152 8.19366 65.2992 8.87311 65.2992 9.60227C65.2992 10.3314 65.4152 11.0085 65.6472 11.6335C65.8792 12.2585 66.2367 12.7628 66.7197 13.1463C67.2026 13.5298 67.8181 13.7216 68.5663 13.7216ZM77.7442 0.454545V15H76.068V0.454545H77.7442ZM80.8141 15V4.09091H82.4903V15H80.8141ZM81.6664 2.27273C81.3397 2.27273 81.058 2.16146 80.8212 1.93892C80.5892 1.71638 80.4732 1.44886 80.4732 1.13636C80.4732 0.823864 80.5892 0.556345 80.8212 0.333806C81.058 0.111269 81.3397 0 81.6664 0C81.9931 0 82.2725 0.111269 82.5045 0.333806C82.7412 0.556345 82.8596 0.823864 82.8596 1.13636C82.8596 1.44886 82.7412 1.71638 82.5045 1.93892C82.2725 2.16146 81.9931 2.27273 81.6664 2.27273ZM89.992 15.2273C88.9693 15.2273 88.0886 14.9858 87.35 14.5028C86.6114 14.0199 86.0432 13.3546 85.6454 12.5071C85.2477 11.6596 85.0489 10.6913 85.0489 9.60227C85.0489 8.49432 85.2524 7.51657 85.6596 6.66903C86.0716 5.81676 86.6445 5.15152 87.3784 4.6733C88.117 4.19034 88.9788 3.94886 89.9636 3.94886C90.7307 3.94886 91.422 4.09091 92.0375 4.375C92.653 4.65909 93.1573 5.05682 93.5503 5.56818C93.9433 6.07955 94.1871 6.67614 94.2818 7.35795H92.6057C92.4778 6.8608 92.1937 6.42045 91.7534 6.03693C91.3178 5.64867 90.7307 5.45455 89.992 5.45455C89.3386 5.45455 88.7657 5.625 88.2733 5.96591C87.7856 6.30208 87.4044 6.77794 87.1298 7.39347C86.8599 8.00426 86.725 8.72159 86.725 9.54545C86.725 10.3883 86.8576 11.1222 87.1227 11.7472C87.3926 12.3722 87.7714 12.8575 88.2591 13.2031C88.7515 13.5488 89.3292 13.7216 89.992 13.7216C90.4276 13.7216 90.823 13.6458 91.1781 13.4943C91.5332 13.3428 91.8339 13.125 92.0801 12.8409C92.3263 12.5568 92.5015 12.2159 92.6057 11.8182H94.2818C94.1871 12.4621 93.9527 13.0421 93.5787 13.5582C93.2094 14.0696 92.7193 14.4768 92.1085 14.7798C91.5024 15.0781 90.797 15.2273 89.992 15.2273ZM105.567 15.2557C104.876 15.2557 104.249 15.1255 103.685 14.8651C103.122 14.5999 102.674 14.2188 102.343 13.7216C102.011 13.2197 101.846 12.6136 101.846 11.9034C101.846 11.2784 101.969 10.7718 102.215 10.3835C102.461 9.99053 102.79 9.68276 103.202 9.46023C103.614 9.23769 104.069 9.07197 104.566 8.96307C105.068 8.84943 105.572 8.75947 106.079 8.69318C106.742 8.60795 107.279 8.54403 107.691 8.50142C108.108 8.45407 108.411 8.37595 108.6 8.26705C108.794 8.15814 108.891 7.96875 108.891 7.69886V7.64205C108.891 6.94129 108.699 6.39678 108.316 6.00852C107.937 5.62027 107.362 5.42614 106.59 5.42614C105.79 5.42614 105.162 5.60133 104.708 5.9517C104.253 6.30208 103.934 6.67614 103.749 7.07386L102.158 6.50568C102.442 5.8428 102.821 5.3267 103.295 4.95739C103.773 4.58333 104.294 4.32292 104.857 4.17614C105.425 4.02462 105.984 3.94886 106.533 3.94886C106.884 3.94886 107.286 3.99148 107.741 4.0767C108.2 4.1572 108.643 4.32528 109.069 4.58097C109.5 4.83665 109.857 5.22254 110.141 5.73864C110.425 6.25473 110.567 6.94602 110.567 7.8125V15H108.891V13.5227H108.806C108.692 13.7595 108.503 14.0128 108.238 14.2827C107.973 14.5526 107.62 14.7822 107.18 14.9716C106.739 15.161 106.202 15.2557 105.567 15.2557ZM105.823 13.75C106.486 13.75 107.045 13.6198 107.499 13.3594C107.958 13.099 108.304 12.7628 108.536 12.3509C108.773 11.9389 108.891 11.5057 108.891 11.0511V9.51705C108.82 9.60227 108.664 9.6804 108.422 9.75142C108.186 9.81771 107.911 9.87689 107.599 9.92898C107.291 9.97633 106.99 10.0189 106.697 10.0568C106.408 10.09 106.173 10.1184 105.993 10.142C105.558 10.1989 105.151 10.2912 104.772 10.419C104.398 10.5421 104.095 10.7292 103.863 10.9801C103.635 11.2263 103.522 11.5625 103.522 11.9886C103.522 12.571 103.737 13.0114 104.168 13.3097C104.604 13.6032 105.155 13.75 105.823 13.75ZM115.303 8.4375V15H113.627V4.09091H115.246V5.79545H115.388C115.644 5.24148 116.032 4.7964 116.553 4.46023C117.074 4.11932 117.746 3.94886 118.57 3.94886C119.308 3.94886 119.955 4.10038 120.509 4.40341C121.063 4.7017 121.494 5.15625 121.801 5.76705C122.109 6.37311 122.263 7.14015 122.263 8.06818V15H120.587V8.18182C120.587 7.32481 120.364 6.6572 119.919 6.17898C119.474 5.69602 118.863 5.45455 118.087 5.45455C117.552 5.45455 117.074 5.57055 116.652 5.80256C116.236 6.03456 115.906 6.37311 115.665 6.81818C115.423 7.26326 115.303 7.80303 115.303 8.4375ZM129.445 15.2273C128.536 15.2273 127.734 14.9976 127.037 14.5384C126.341 14.0743 125.797 13.4209 125.404 12.5781C125.011 11.7306 124.814 10.7292 124.814 9.57386C124.814 8.42803 125.011 7.43371 125.404 6.59091C125.797 5.74811 126.344 5.09706 127.045 4.63778C127.745 4.1785 128.555 3.94886 129.474 3.94886C130.184 3.94886 130.745 4.06723 131.157 4.30398C131.573 4.53598 131.891 4.80114 132.109 5.09943C132.331 5.39299 132.504 5.63447 132.627 5.82386H132.769V0.454545H134.445V15H132.826V13.3239H132.627C132.504 13.5227 132.329 13.7737 132.101 14.0767C131.874 14.375 131.55 14.6425 131.128 14.8793C130.707 15.1113 130.146 15.2273 129.445 15.2273ZM129.672 13.7216C130.345 13.7216 130.913 13.5464 131.377 13.196C131.841 12.8409 132.194 12.3509 132.435 11.7259C132.677 11.0961 132.797 10.3693 132.797 9.54545C132.797 8.73106 132.679 8.01847 132.442 7.40767C132.206 6.79214 131.855 6.31392 131.391 5.97301C130.927 5.62737 130.354 5.45455 129.672 5.45455C128.962 5.45455 128.37 5.63684 127.897 6.00142C127.428 6.36127 127.075 6.85133 126.839 7.47159C126.607 8.08712 126.491 8.77841 126.491 9.54545C126.491 10.322 126.609 11.0275 126.846 11.6619C127.087 12.2917 127.442 12.7936 127.911 13.1676C128.385 13.5369 128.972 13.7216 129.672 13.7216ZM151.1 6.53409L149.594 6.96023C149.5 6.70928 149.36 6.46544 149.175 6.22869C148.995 5.98722 148.749 5.78835 148.437 5.6321C148.124 5.47585 147.724 5.39773 147.236 5.39773C146.569 5.39773 146.012 5.55161 145.567 5.85938C145.127 6.16241 144.907 6.5483 144.907 7.01705C144.907 7.43371 145.058 7.76278 145.361 8.00426C145.664 8.24574 146.138 8.44697 146.782 8.60795L148.401 9.00568C149.377 9.24242 150.103 9.60464 150.582 10.0923C151.06 10.5753 151.299 11.1979 151.299 11.9602C151.299 12.5852 151.119 13.1439 150.759 13.6364C150.404 14.1288 149.907 14.517 149.268 14.8011C148.628 15.0852 147.885 15.2273 147.037 15.2273C145.925 15.2273 145.004 14.9858 144.275 14.5028C143.546 14.0199 143.084 13.3144 142.89 12.3864L144.481 11.9886C144.632 12.5758 144.919 13.0161 145.34 13.3097C145.766 13.6032 146.323 13.75 147.009 13.75C147.79 13.75 148.411 13.5843 148.87 13.2528C149.334 12.9167 149.566 12.5142 149.566 12.0455C149.566 11.6667 149.433 11.3494 149.168 11.0938C148.903 10.8333 148.496 10.6392 147.947 10.5114L146.128 10.0852C145.129 9.84848 144.395 9.48153 143.927 8.98438C143.463 8.48248 143.231 7.85511 143.231 7.10227C143.231 6.48674 143.403 5.94223 143.749 5.46875C144.1 4.99527 144.575 4.62358 145.177 4.35369C145.783 4.08381 146.469 3.94886 147.236 3.94886C148.316 3.94886 149.163 4.18561 149.779 4.65909C150.399 5.13258 150.84 5.75758 151.1 6.53409ZM157.032 15.2557C156.341 15.2557 155.714 15.1255 155.15 14.8651C154.587 14.5999 154.139 14.2188 153.808 13.7216C153.476 13.2197 153.311 12.6136 153.311 11.9034C153.311 11.2784 153.434 10.7718 153.68 10.3835C153.926 9.99053 154.255 9.68276 154.667 9.46023C155.079 9.23769 155.534 9.07197 156.031 8.96307C156.533 8.84943 157.037 8.75947 157.544 8.69318C158.206 8.60795 158.744 8.54403 159.156 8.50142C159.572 8.45407 159.875 8.37595 160.065 8.26705C160.259 8.15814 160.356 7.96875 160.356 7.69886V7.64205C160.356 6.94129 160.164 6.39678 159.781 6.00852C159.402 5.62027 158.827 5.42614 158.055 5.42614C157.255 5.42614 156.627 5.60133 156.173 5.9517C155.718 6.30208 155.399 6.67614 155.214 7.07386L153.623 6.50568C153.907 5.8428 154.286 5.3267 154.759 4.95739C155.238 4.58333 155.758 4.32292 156.322 4.17614C156.89 4.02462 157.449 3.94886 157.998 3.94886C158.348 3.94886 158.751 3.99148 159.205 4.0767C159.665 4.1572 160.107 4.32528 160.534 4.58097C160.964 4.83665 161.322 5.22254 161.606 5.73864C161.89 6.25473 162.032 6.94602 162.032 7.8125V15H160.356V13.5227H160.271C160.157 13.7595 159.968 14.0128 159.703 14.2827C159.437 14.5526 159.085 14.7822 158.644 14.9716C158.204 15.161 157.667 15.2557 157.032 15.2557ZM157.288 13.75C157.951 13.75 158.509 13.6198 158.964 13.3594C159.423 13.099 159.769 12.7628 160.001 12.3509C160.238 11.9389 160.356 11.5057 160.356 11.0511V9.51705C160.285 9.60227 160.129 9.6804 159.887 9.75142C159.651 9.81771 159.376 9.87689 159.063 9.92898C158.756 9.97633 158.455 10.0189 158.161 10.0568C157.873 10.09 157.638 10.1184 157.458 10.142C157.023 10.1989 156.615 10.2912 156.237 10.419C155.863 10.5421 155.56 10.7292 155.328 10.9801C155.1 11.2263 154.987 11.5625 154.987 11.9886C154.987 12.571 155.202 13.0114 155.633 13.3097C156.069 13.6032 156.62 13.75 157.288 13.75ZM169.836 4.09091V5.51136H164.182V4.09091H169.836ZM165.83 1.47727H167.506V11.875C167.506 12.3485 167.575 12.7036 167.712 12.9403C167.854 13.1723 168.034 13.3286 168.252 13.4091C168.475 13.4848 168.709 13.5227 168.955 13.5227C169.14 13.5227 169.291 13.5133 169.41 13.4943C169.528 13.4706 169.623 13.4517 169.694 13.4375L170.035 14.9432C169.921 14.9858 169.762 15.0284 169.559 15.071C169.355 15.1184 169.097 15.142 168.785 15.142C168.311 15.142 167.847 15.0402 167.393 14.8366C166.943 14.633 166.569 14.3229 166.27 13.9062C165.977 13.4896 165.83 12.964 165.83 12.3295V1.47727ZM172.357 15V4.09091H174.033V15H172.357ZM173.209 2.27273C172.883 2.27273 172.601 2.16146 172.364 1.93892C172.132 1.71638 172.016 1.44886 172.016 1.13636C172.016 0.823864 172.132 0.556345 172.364 0.333806C172.601 0.111269 172.883 0 173.209 0C173.536 0 173.815 0.111269 174.047 0.333806C174.284 0.556345 174.403 0.823864 174.403 1.13636C174.403 1.44886 174.284 1.71638 174.047 1.93892C173.815 2.16146 173.536 2.27273 173.209 2.27273ZM181.677 15.2273C180.626 15.2273 179.719 14.9953 178.957 14.5312C178.199 14.0625 177.615 13.4091 177.203 12.571C176.795 11.7282 176.592 10.7481 176.592 9.63068C176.592 8.51326 176.795 7.52841 177.203 6.67614C177.615 5.81913 178.187 5.15152 178.921 4.6733C179.66 4.19034 180.522 3.94886 181.507 3.94886C182.075 3.94886 182.636 4.04356 183.19 4.23295C183.744 4.42235 184.248 4.73011 184.703 5.15625C185.157 5.57765 185.519 6.13636 185.789 6.83239C186.059 7.52841 186.194 8.38542 186.194 9.40341V10.1136H177.785V8.66477H184.49C184.49 8.04924 184.366 7.5 184.12 7.01705C183.879 6.53409 183.533 6.15294 183.083 5.87358C182.638 5.59422 182.113 5.45455 181.507 5.45455C180.839 5.45455 180.261 5.62026 179.774 5.9517C179.291 6.27841 178.919 6.70455 178.659 7.23011C178.398 7.75568 178.268 8.31913 178.268 8.92045V9.88636C178.268 10.7102 178.41 11.4086 178.694 11.9815C178.983 12.5497 179.383 12.983 179.894 13.2812C180.406 13.5748 181 13.7216 181.677 13.7216C182.117 13.7216 182.515 13.66 182.87 13.5369C183.23 13.4091 183.54 13.2197 183.801 12.9688C184.061 12.7131 184.262 12.3958 184.404 12.017L186.024 12.4716C185.853 13.0208 185.567 13.5038 185.164 13.9205C184.762 14.3324 184.265 14.6544 183.673 14.8864C183.081 15.1136 182.416 15.2273 181.677 15.2273ZM193.488 4.09091V5.51136H187.835V4.09091H193.488ZM189.482 1.47727H191.159V11.875C191.159 12.3485 191.227 12.7036 191.365 12.9403C191.507 13.1723 191.687 13.3286 191.904 13.4091C192.127 13.4848 192.361 13.5227 192.607 13.5227C192.792 13.5227 192.944 13.5133 193.062 13.4943C193.18 13.4706 193.275 13.4517 193.346 13.4375L193.687 14.9432C193.573 14.9858 193.415 15.0284 193.211 15.071C193.008 15.1184 192.749 15.142 192.437 15.142C191.964 15.142 191.499 15.0402 191.045 14.8366C190.595 14.633 190.221 14.3229 189.923 13.9062C189.629 13.4896 189.482 12.964 189.482 12.3295V1.47727ZM197.089 19.0909C196.805 19.0909 196.552 19.0672 196.329 19.0199C196.106 18.9773 195.953 18.9347 195.867 18.892L196.294 17.4148C196.701 17.5189 197.061 17.5568 197.373 17.5284C197.686 17.5 197.963 17.3603 198.204 17.1094C198.45 16.8632 198.675 16.4631 198.879 15.9091L199.191 15.0568L195.157 4.09091H196.975L199.987 12.7841H200.1L203.112 4.09091H204.93L200.299 16.5909C200.091 17.1544 199.833 17.6207 199.525 17.9901C199.217 18.3641 198.86 18.6411 198.453 18.821C198.05 19.0009 197.596 19.0909 197.089 19.0909ZM213.392 7.98295V9.54545H207.029V7.98295H213.392ZM32.5817 39V28.0909H34.201V29.7386H34.3147C34.5135 29.1989 34.8734 28.7609 35.3942 28.4247C35.915 28.0885 36.5022 27.9205 37.1556 27.9205C37.2787 27.9205 37.4326 27.9228 37.6172 27.9276C37.8019 27.9323 37.9415 27.9394 38.0362 27.9489V29.6534C37.9794 29.6392 37.8492 29.6179 37.6456 29.5895C37.4468 29.5563 37.2361 29.5398 37.0135 29.5398C36.4832 29.5398 36.0097 29.651 35.5931 29.8736C35.1811 30.0914 34.8544 30.3944 34.6129 30.7827C34.3762 31.1662 34.2578 31.6042 34.2578 32.0966V39H32.5817ZM44.2649 39.2273C43.2138 39.2273 42.3071 38.9953 41.5448 38.5312C40.7872 38.0625 40.2024 37.4091 39.7905 36.571C39.3833 35.7282 39.1797 34.7481 39.1797 33.6307C39.1797 32.5133 39.3833 31.5284 39.7905 30.6761C40.2024 29.8191 40.7754 29.1515 41.5093 28.6733C42.2479 28.1903 43.1096 27.9489 44.0945 27.9489C44.6627 27.9489 45.2237 28.0436 45.7777 28.233C46.3317 28.4223 46.836 28.7301 47.2905 29.1562C47.7451 29.5777 48.1073 30.1364 48.3772 30.8324C48.647 31.5284 48.782 32.3854 48.782 33.4034V34.1136H40.3729V32.6648H47.0774C47.0774 32.0492 46.9543 31.5 46.7081 31.017C46.4666 30.5341 46.121 30.1529 45.6712 29.8736C45.2261 29.5942 44.7005 29.4545 44.0945 29.4545C43.4269 29.4545 42.8492 29.6203 42.3615 29.9517C41.8786 30.2784 41.5069 30.7045 41.2465 31.2301C40.9861 31.7557 40.8558 32.3191 40.8558 32.9205V33.8864C40.8558 34.7102 40.9979 35.4086 41.282 35.9815C41.5708 36.5497 41.9709 36.983 42.4823 37.2812C42.9936 37.5748 43.5879 37.7216 44.2649 37.7216C44.7053 37.7216 45.103 37.66 45.4581 37.5369C45.818 37.4091 46.1281 37.2197 46.3885 36.9688C46.6489 36.7131 46.8502 36.3958 46.9922 36.017L48.6115 36.4716C48.4411 37.0208 48.1546 37.5038 47.7522 37.9205C47.3497 38.3324 46.8525 38.6544 46.2607 38.8864C45.6688 39.1136 45.0036 39.2273 44.2649 39.2273ZM53.0078 24.4545V39H51.3317V24.4545H53.0078ZM59.288 39.2557C58.5967 39.2557 57.9694 39.1255 57.4059 38.8651C56.8425 38.5999 56.395 38.2188 56.0636 37.7216C55.7321 37.2197 55.5664 36.6136 55.5664 35.9034C55.5664 35.2784 55.6895 34.7718 55.9357 34.3835C56.182 33.9905 56.511 33.6828 56.923 33.4602C57.3349 33.2377 57.7894 33.072 58.2866 32.9631C58.7885 32.8494 59.2928 32.7595 59.7994 32.6932C60.4623 32.608 60.9997 32.544 61.4116 32.5014C61.8283 32.4541 62.1313 32.3759 62.3207 32.267C62.5148 32.1581 62.6119 31.9687 62.6119 31.6989V31.642C62.6119 30.9413 62.4201 30.3968 62.0366 30.0085C61.6578 29.6203 61.0825 29.4261 60.3107 29.4261C59.5106 29.4261 58.8832 29.6013 58.4286 29.9517C57.9741 30.3021 57.6545 30.6761 57.4698 31.0739L55.8789 30.5057C56.163 29.8428 56.5418 29.3267 57.0153 28.9574C57.4935 28.5833 58.0143 28.3229 58.5778 28.1761C59.146 28.0246 59.7047 27.9489 60.2539 27.9489C60.6043 27.9489 61.0068 27.9915 61.4613 28.0767C61.9206 28.1572 62.3633 28.3253 62.7894 28.581C63.2203 28.8366 63.5778 29.2225 63.8619 29.7386C64.146 30.2547 64.288 30.946 64.288 31.8125V39H62.6119V37.5227H62.5267C62.413 37.7595 62.2236 38.0128 61.9585 38.2827C61.6933 38.5526 61.3406 38.7822 60.9002 38.9716C60.4599 39.161 59.9225 39.2557 59.288 39.2557ZM59.5437 37.75C60.2066 37.75 60.7653 37.6198 61.2198 37.3594C61.6791 37.099 62.0248 36.7628 62.2568 36.3509C62.4935 35.9389 62.6119 35.5057 62.6119 35.0511V33.517C62.5409 33.6023 62.3846 33.6804 62.1431 33.7514C61.9064 33.8177 61.6318 33.8769 61.3193 33.929C61.0115 33.9763 60.7108 34.0189 60.4173 34.0568C60.1285 34.09 59.8941 34.1184 59.7142 34.142C59.2785 34.1989 58.8714 34.2912 58.4926 34.419C58.1185 34.5421 57.8155 34.7292 57.5835 34.9801C57.3562 35.2263 57.2426 35.5625 57.2426 35.9886C57.2426 36.571 57.458 37.0114 57.8889 37.3097C58.3245 37.6032 58.8761 37.75 59.5437 37.75ZM72.0916 28.0909V29.5114H66.4382V28.0909H72.0916ZM68.086 25.4773H69.7621V35.875C69.7621 36.3485 69.8308 36.7036 69.9681 36.9403C70.1101 37.1723 70.29 37.3286 70.5078 37.4091C70.7304 37.4848 70.9647 37.5227 71.211 37.5227C71.3956 37.5227 71.5471 37.5133 71.6655 37.4943C71.7839 37.4706 71.8786 37.4517 71.9496 37.4375L72.2905 38.9432C72.1769 38.9858 72.0183 39.0284 71.8147 39.071C71.6111 39.1184 71.353 39.142 71.0405 39.142C70.567 39.142 70.103 39.0402 69.6485 38.8366C69.1986 38.633 68.8246 38.3229 68.5263 37.9062C68.2327 37.4896 68.086 36.964 68.086 36.3295V25.4773ZM79.0696 39.2273C78.0185 39.2273 77.1118 38.9953 76.3495 38.5312C75.5919 38.0625 75.0071 37.4091 74.5952 36.571C74.188 35.7282 73.9844 34.7481 73.9844 33.6307C73.9844 32.5133 74.188 31.5284 74.5952 30.6761C75.0071 29.8191 75.58 29.1515 76.3139 28.6733C77.0526 28.1903 77.9143 27.9489 78.8992 27.9489C79.4674 27.9489 80.0284 28.0436 80.5824 28.233C81.1364 28.4223 81.6406 28.7301 82.0952 29.1562C82.5497 29.5777 82.912 30.1364 83.1818 30.8324C83.4517 31.5284 83.5867 32.3854 83.5867 33.4034V34.1136H75.1776V32.6648H81.8821C81.8821 32.0492 81.759 31.5 81.5128 31.017C81.2713 30.5341 80.9257 30.1529 80.4759 29.8736C80.0308 29.5942 79.5052 29.4545 78.8992 29.4545C78.2316 29.4545 77.6539 29.6203 77.1662 29.9517C76.6833 30.2784 76.3116 30.7045 76.0512 31.2301C75.7907 31.7557 75.6605 32.3191 75.6605 32.9205V33.8864C75.6605 34.7102 75.8026 35.4086 76.0867 35.9815C76.3755 36.5497 76.7756 36.983 77.287 37.2812C77.7983 37.5748 78.3925 37.7216 79.0696 37.7216C79.51 37.7216 79.9077 37.66 80.2628 37.5369C80.6227 37.4091 80.9328 37.2197 81.1932 36.9688C81.4536 36.7131 81.6549 36.3958 81.7969 36.017L83.4162 36.4716C83.2458 37.0208 82.9593 37.5038 82.5568 37.9205C82.1544 38.3324 81.6572 38.6544 81.0654 38.8864C80.4735 39.1136 79.8083 39.2273 79.0696 39.2273ZM90.2557 39.2273C89.3466 39.2273 88.5441 38.9976 87.848 38.5384C87.152 38.0743 86.6075 37.4209 86.2145 36.5781C85.8215 35.7306 85.625 34.7292 85.625 33.5739C85.625 32.428 85.8215 31.4337 86.2145 30.5909C86.6075 29.7481 87.1544 29.0971 87.8551 28.6378C88.5559 28.1785 89.3656 27.9489 90.2841 27.9489C90.9943 27.9489 91.5554 28.0672 91.9674 28.304C92.384 28.536 92.7013 28.8011 92.9191 29.0994C93.1416 29.393 93.3144 29.6345 93.4375 29.8239H93.5796V24.4545H95.2557V39H93.6364V37.3239H93.4375C93.3144 37.5227 93.1392 37.7737 92.912 38.0767C92.6847 38.375 92.3603 38.6425 91.9389 38.8793C91.5175 39.1113 90.9565 39.2273 90.2557 39.2273ZM90.483 37.7216C91.1553 37.7216 91.7235 37.5464 92.1875 37.196C92.6515 36.8409 93.0043 36.3509 93.2458 35.7259C93.4872 35.0961 93.608 34.3693 93.608 33.5455C93.608 32.7311 93.4896 32.0185 93.2529 31.4077C93.0161 30.7921 92.6657 30.3139 92.2017 29.973C91.7377 29.6274 91.1648 29.4545 90.483 29.4545C89.7727 29.4545 89.1809 29.6368 88.7074 30.0014C88.2387 30.3613 87.8859 30.8513 87.6492 31.4716C87.4172 32.0871 87.3012 32.7784 87.3012 33.5455C87.3012 34.322 87.4195 35.0275 87.6563 35.6619C87.8977 36.2917 88.2529 36.7936 88.7216 37.1676C89.1951 37.5369 89.7822 37.7216 90.483 37.7216ZM111.911 30.5341L110.405 30.9602C110.31 30.7093 110.17 30.4654 109.986 30.2287C109.806 29.9872 109.56 29.7884 109.247 29.6321C108.935 29.4759 108.535 29.3977 108.047 29.3977C107.379 29.3977 106.823 29.5516 106.378 29.8594C105.938 30.1624 105.717 30.5483 105.717 31.017C105.717 31.4337 105.869 31.7628 106.172 32.0043C106.475 32.2457 106.948 32.447 107.592 32.608L109.212 33.0057C110.187 33.2424 110.914 33.6046 111.392 34.0923C111.87 34.5753 112.109 35.1979 112.109 35.9602C112.109 36.5852 111.929 37.1439 111.57 37.6364C111.215 38.1288 110.717 38.517 110.078 38.8011C109.439 39.0852 108.696 39.2273 107.848 39.2273C106.735 39.2273 105.814 38.9858 105.085 38.5028C104.356 38.0199 103.894 37.3144 103.7 36.3864L105.291 35.9886C105.443 36.5758 105.729 37.0161 106.151 37.3097C106.577 37.6032 107.133 37.75 107.82 37.75C108.601 37.75 109.221 37.5843 109.68 37.2528C110.144 36.9167 110.376 36.5142 110.376 36.0455C110.376 35.6667 110.244 35.3494 109.979 35.0938C109.714 34.8333 109.306 34.6392 108.757 34.5114L106.939 34.0852C105.94 33.8485 105.206 33.4815 104.737 32.9844C104.273 32.4825 104.041 31.8551 104.041 31.1023C104.041 30.4867 104.214 29.9422 104.56 29.4688C104.91 28.9953 105.386 28.6236 105.987 28.3537C106.593 28.0838 107.28 27.9489 108.047 27.9489C109.126 27.9489 109.974 28.1856 110.59 28.6591C111.21 29.1326 111.65 29.7576 111.911 30.5341ZM114.632 39V28.0909H116.309V39H114.632ZM115.485 26.2727C115.158 26.2727 114.876 26.1615 114.64 25.9389C114.408 25.7164 114.292 25.4489 114.292 25.1364C114.292 24.8239 114.408 24.5563 114.64 24.3338C114.876 24.1113 115.158 24 115.485 24C115.811 24 116.091 24.1113 116.323 24.3338C116.56 24.5563 116.678 24.8239 116.678 25.1364C116.678 25.4489 116.56 25.7164 116.323 25.9389C116.091 26.1615 115.811 26.2727 115.485 26.2727ZM123.782 43.3182C122.972 43.3182 122.276 43.214 121.694 43.0057C121.112 42.8021 120.626 42.5322 120.238 42.196C119.854 41.8646 119.549 41.5095 119.322 41.1307L120.657 40.1932C120.808 40.392 121 40.6193 121.232 40.875C121.464 41.1354 121.782 41.3603 122.184 41.5497C122.591 41.7438 123.124 41.8409 123.782 41.8409C124.663 41.8409 125.389 41.6278 125.962 41.2017C126.535 40.7756 126.822 40.108 126.822 39.1989V36.983H126.68C126.557 37.1818 126.381 37.428 126.154 37.7216C125.932 38.0104 125.61 38.2685 125.188 38.4957C124.772 38.7183 124.208 38.8295 123.498 38.8295C122.617 38.8295 121.826 38.6212 121.126 38.2045C120.43 37.7879 119.878 37.1818 119.471 36.3864C119.068 35.5909 118.867 34.625 118.867 33.4886C118.867 32.3712 119.064 31.3982 119.457 30.5696C119.85 29.7363 120.397 29.0923 121.097 28.6378C121.798 28.1785 122.608 27.9489 123.526 27.9489C124.237 27.9489 124.8 28.0672 125.217 28.304C125.638 28.536 125.96 28.8011 126.183 29.0994C126.41 29.393 126.585 29.6345 126.708 29.8239H126.879V28.0909H128.498V39.3125C128.498 40.25 128.285 41.0123 127.859 41.5994C127.437 42.1913 126.869 42.6245 126.154 42.8991C125.444 43.1785 124.653 43.3182 123.782 43.3182ZM123.725 37.3239C124.398 37.3239 124.966 37.17 125.43 36.8622C125.894 36.5545 126.246 36.1117 126.488 35.5341C126.729 34.9564 126.85 34.2652 126.85 33.4602C126.85 32.6742 126.732 31.9806 126.495 31.3793C126.258 30.7779 125.908 30.3068 125.444 29.9659C124.98 29.625 124.407 29.4545 123.725 29.4545C123.015 29.4545 122.423 29.6345 121.95 29.9943C121.481 30.3542 121.128 30.8371 120.891 31.4432C120.659 32.0492 120.543 32.7216 120.543 33.4602C120.543 34.2178 120.662 34.8878 120.898 35.4702C121.14 36.0478 121.495 36.5024 121.964 36.8338C122.437 37.1605 123.024 37.3239 123.725 37.3239ZM133.242 32.4375V39H131.566V28.0909H133.185V29.7955H133.327C133.583 29.2415 133.971 28.7964 134.492 28.4602C135.013 28.1193 135.685 27.9489 136.509 27.9489C137.248 27.9489 137.894 28.1004 138.448 28.4034C139.002 28.7017 139.433 29.1562 139.741 29.767C140.049 30.3731 140.202 31.1402 140.202 32.0682V39H138.526V32.1818C138.526 31.3248 138.304 30.6572 137.859 30.179C137.414 29.696 136.803 29.4545 136.026 29.4545C135.491 29.4545 135.013 29.5705 134.592 29.8026C134.175 30.0346 133.846 30.3731 133.604 30.8182C133.363 31.2633 133.242 31.803 133.242 32.4375ZM146.476 39.2557C145.784 39.2557 145.157 39.1255 144.593 38.8651C144.03 38.5999 143.583 38.2188 143.251 37.7216C142.92 37.2197 142.754 36.6136 142.754 35.9034C142.754 35.2784 142.877 34.7718 143.123 34.3835C143.369 33.9905 143.699 33.6828 144.11 33.4602C144.522 33.2377 144.977 33.072 145.474 32.9631C145.976 32.8494 146.48 32.7595 146.987 32.6932C147.65 32.608 148.187 32.544 148.599 32.5014C149.016 32.4541 149.319 32.3759 149.508 32.267C149.702 32.1581 149.799 31.9687 149.799 31.6989V31.642C149.799 30.9413 149.608 30.3968 149.224 30.0085C148.845 29.6203 148.27 29.4261 147.498 29.4261C146.698 29.4261 146.071 29.6013 145.616 29.9517C145.162 30.3021 144.842 30.6761 144.657 31.0739L143.066 30.5057C143.351 29.8428 143.729 29.3267 144.203 28.9574C144.681 28.5833 145.202 28.3229 145.765 28.1761C146.333 28.0246 146.892 27.9489 147.441 27.9489C147.792 27.9489 148.194 27.9915 148.649 28.0767C149.108 28.1572 149.551 28.3253 149.977 28.581C150.408 28.8366 150.765 29.2225 151.049 29.7386C151.333 30.2547 151.476 30.946 151.476 31.8125V39H149.799V37.5227H149.714C149.601 37.7595 149.411 38.0128 149.146 38.2827C148.881 38.5526 148.528 38.7822 148.088 38.9716C147.647 39.161 147.11 39.2557 146.476 39.2557ZM146.731 37.75C147.394 37.75 147.953 37.6198 148.407 37.3594C148.867 37.099 149.212 36.7628 149.444 36.3509C149.681 35.9389 149.799 35.5057 149.799 35.0511V33.517C149.728 33.6023 149.572 33.6804 149.331 33.7514C149.094 33.8177 148.819 33.8769 148.507 33.929C148.199 33.9763 147.898 34.0189 147.605 34.0568C147.316 34.09 147.082 34.1184 146.902 34.142C146.466 34.1989 146.059 34.2912 145.68 34.419C145.306 34.5421 145.003 34.7292 144.771 34.9801C144.544 35.2263 144.43 35.5625 144.43 35.9886C144.43 36.571 144.646 37.0114 145.076 37.3097C145.512 37.6032 146.064 37.75 146.731 37.75ZM156.211 24.4545V39H154.535V24.4545H156.211ZM159.281 39V28.0909H160.957V39H159.281ZM160.133 26.2727C159.806 26.2727 159.525 26.1615 159.288 25.9389C159.056 25.7164 158.94 25.4489 158.94 25.1364C158.94 24.8239 159.056 24.5563 159.288 24.3338C159.525 24.1113 159.806 24 160.133 24C160.46 24 160.739 24.1113 160.971 24.3338C161.208 24.5563 161.326 24.8239 161.326 25.1364C161.326 25.4489 161.208 25.7164 160.971 25.9389C160.739 26.1615 160.46 26.2727 160.133 26.2727ZM165.703 32.4375V39H164.027V28.0909H165.646V29.7955H165.788C166.044 29.2415 166.432 28.7964 166.953 28.4602C167.474 28.1193 168.146 27.9489 168.97 27.9489C169.709 27.9489 170.355 28.1004 170.909 28.4034C171.463 28.7017 171.894 29.1562 172.202 29.767C172.509 30.3731 172.663 31.1402 172.663 32.0682V39H170.987V32.1818C170.987 31.3248 170.765 30.6572 170.32 30.179C169.875 29.696 169.264 29.4545 168.487 29.4545C167.952 29.4545 167.474 29.5705 167.053 29.8026C166.636 30.0346 166.307 30.3731 166.065 30.8182C165.824 31.2633 165.703 31.803 165.703 32.4375ZM180.13 43.3182C179.32 43.3182 178.624 43.214 178.042 43.0057C177.459 42.8021 176.974 42.5322 176.586 42.196C176.202 41.8646 175.897 41.5095 175.669 41.1307L177.005 40.1932C177.156 40.392 177.348 40.6193 177.58 40.875C177.812 41.1354 178.129 41.3603 178.532 41.5497C178.939 41.7438 179.471 41.8409 180.13 41.8409C181.01 41.8409 181.737 41.6278 182.31 41.2017C182.883 40.7756 183.169 40.108 183.169 39.1989V36.983H183.027C182.904 37.1818 182.729 37.428 182.502 37.7216C182.279 38.0104 181.957 38.2685 181.536 38.4957C181.119 38.7183 180.556 38.8295 179.846 38.8295C178.965 38.8295 178.174 38.6212 177.473 38.2045C176.777 37.7879 176.226 37.1818 175.819 36.3864C175.416 35.5909 175.215 34.625 175.215 33.4886C175.215 32.3712 175.411 31.3982 175.804 30.5696C176.197 29.7363 176.744 29.0923 177.445 28.6378C178.146 28.1785 178.955 27.9489 179.874 27.9489C180.584 27.9489 181.148 28.0672 181.564 28.304C181.986 28.536 182.308 28.8011 182.53 29.0994C182.757 29.393 182.933 29.6345 183.056 29.8239H183.226V28.0909H184.846V39.3125C184.846 40.25 184.632 41.0123 184.206 41.5994C183.785 42.1913 183.217 42.6245 182.502 42.8991C181.792 43.1785 181.001 43.3182 180.13 43.3182ZM180.073 37.3239C180.745 37.3239 181.313 37.17 181.777 36.8622C182.241 36.5545 182.594 36.1117 182.836 35.5341C183.077 34.9564 183.198 34.2652 183.198 33.4602C183.198 32.6742 183.079 31.9806 182.843 31.3793C182.606 30.7779 182.256 30.3068 181.792 29.9659C181.328 29.625 180.755 29.4545 180.073 29.4545C179.363 29.4545 178.771 29.6345 178.297 29.9943C177.829 30.3542 177.476 30.8371 177.239 31.4432C177.007 32.0492 176.891 32.7216 176.891 33.4602C176.891 34.2178 177.009 34.8878 177.246 35.4702C177.488 36.0478 177.843 36.5024 178.311 36.8338C178.785 37.1605 179.372 37.3239 180.073 37.3239ZM3.72161 63.2557C3.03033 63.2557 2.40296 63.1255 1.83951 62.8651C1.27606 62.5999 0.828621 62.2188 0.497181 61.7216C0.165742 61.2197 2.22623e-05 60.6136 2.22623e-05 59.9034C2.22623e-05 59.2784 0.123128 58.7718 0.36934 58.3835C0.615553 57.9905 0.944625 57.6828 1.35656 57.4602C1.76849 57.2377 2.22303 57.072 2.72019 56.9631C3.22209 56.8494 3.72635 56.7595 4.23298 56.6932C4.89586 56.608 5.43326 56.544 5.84519 56.5014C6.26186 56.4541 6.56489 56.3759 6.75428 56.267C6.94841 56.1581 7.04548 55.9687 7.04548 55.6989V55.642C7.04548 54.9413 6.85372 54.3968 6.47019 54.0085C6.09141 53.6203 5.51612 53.4261 4.74434 53.4261C3.94415 53.4261 3.31678 53.6013 2.86224 53.9517C2.40769 54.3021 2.08809 54.6761 1.90343 55.0739L0.312522 54.5057C0.596613 53.8428 0.975401 53.3267 1.44889 52.9574C1.92711 52.5833 2.44794 52.3229 3.01139 52.1761C3.57957 52.0246 4.13828 51.9489 4.68752 51.9489C5.0379 51.9489 5.44036 51.9915 5.89491 52.0767C6.35419 52.1572 6.7969 52.3253 7.22303 52.581C7.6539 52.8366 8.01139 53.2225 8.29548 53.7386C8.57957 54.2547 8.72161 54.946 8.72161 55.8125V63H7.04548V61.5227H6.96025C6.84661 61.7595 6.65722 62.0128 6.39207 62.2827C6.12692 62.5526 5.77417 62.7822 5.33383 62.9716C4.89349 63.161 4.35608 63.2557 3.72161 63.2557ZM3.97729 61.75C4.64017 61.75 5.19889 61.6198 5.65343 61.3594C6.11271 61.099 6.45836 60.7628 6.69036 60.3509C6.92711 59.9389 7.04548 59.5057 7.04548 59.0511V57.517C6.97445 57.6023 6.8182 57.6804 6.57673 57.7514C6.33998 57.8177 6.06536 57.8769 5.75286 57.929C5.4451 57.9763 5.14444 58.0189 4.85087 58.0568C4.56205 58.09 4.32767 58.1184 4.14775 58.142C3.71214 58.1989 3.30495 58.2912 2.92616 58.419C2.55211 58.5421 2.24908 58.7292 2.01707 58.9801C1.7898 59.2263 1.67616 59.5625 1.67616 59.9886C1.67616 60.571 1.89159 61.0114 2.32247 61.3097C2.75807 61.6032 3.30968 61.75 3.97729 61.75ZM19.5082 54.5341L18.0025 54.9602C17.9078 54.7093 17.7681 54.4654 17.5835 54.2287C17.4036 53.9872 17.1573 53.7884 16.8448 53.6321C16.5323 53.4759 16.1322 53.3977 15.6446 53.3977C14.9769 53.3977 14.4206 53.5516 13.9755 53.8594C13.5352 54.1624 13.315 54.5483 13.315 55.017C13.315 55.4337 13.4665 55.7628 13.7696 56.0043C14.0726 56.2457 14.5461 56.447 15.19 56.608L16.8093 57.0057C17.7847 57.2424 18.5115 57.6046 18.9897 58.0923C19.4679 58.5753 19.7071 59.1979 19.7071 59.9602C19.7071 60.5852 19.5271 61.1439 19.1673 61.6364C18.8122 62.1288 18.315 62.517 17.6758 62.8011C17.0366 63.0852 16.2932 63.2273 15.4457 63.2273C14.333 63.2273 13.4121 62.9858 12.6829 62.5028C11.9537 62.0199 11.4921 61.3144 11.298 60.3864L12.8889 59.9886C13.0404 60.5758 13.3268 61.0161 13.7482 61.3097C14.1744 61.6032 14.7307 61.75 15.4173 61.75C16.1985 61.75 16.8188 61.5843 17.2781 61.2528C17.7421 60.9167 17.9741 60.5142 17.9741 60.0455C17.9741 59.6667 17.8415 59.3494 17.5764 59.0938C17.3112 58.8333 16.904 58.6392 16.3548 58.5114L14.5366 58.0852C13.5375 57.8485 12.8036 57.4815 12.3349 56.9844C11.8709 56.4825 11.6389 55.8551 11.6389 55.1023C11.6389 54.4867 11.8117 53.9422 12.1573 53.4688C12.5077 52.9953 12.9836 52.6236 13.5849 52.3537C14.191 52.0838 14.8775 51.9489 15.6446 51.9489C16.7241 51.9489 17.5716 52.1856 18.1872 52.6591C18.8074 53.1326 19.2478 53.7576 19.5082 54.5341ZM29.9574 54.5341L28.4517 54.9602C28.357 54.7093 28.2174 54.4654 28.0327 54.2287C27.8528 53.9872 27.6066 53.7884 27.2941 53.6321C26.9816 53.4759 26.5815 53.3977 26.0938 53.3977C25.4262 53.3977 24.8698 53.5516 24.4247 53.8594C23.9844 54.1624 23.7642 54.5483 23.7642 55.017C23.7642 55.4337 23.9157 55.7628 24.2188 56.0043C24.5218 56.2457 24.9953 56.447 25.6392 56.608L27.2585 57.0057C28.2339 57.2424 28.9607 57.6046 29.4389 58.0923C29.9172 58.5753 30.1563 59.1979 30.1563 59.9602C30.1563 60.5852 29.9763 61.1439 29.6165 61.6364C29.2614 62.1288 28.7642 62.517 28.125 62.8011C27.4858 63.0852 26.7424 63.2273 25.8949 63.2273C24.7822 63.2273 23.8613 62.9858 23.1321 62.5028C22.403 62.0199 21.9413 61.3144 21.7472 60.3864L23.3381 59.9886C23.4896 60.5758 23.7761 61.0161 24.1975 61.3097C24.6236 61.6032 25.1799 61.75 25.8665 61.75C26.6477 61.75 27.268 61.5843 27.7273 61.2528C28.1913 60.9167 28.4233 60.5142 28.4233 60.0455C28.4233 59.6667 28.2907 59.3494 28.0256 59.0938C27.7604 58.8333 27.3532 58.6392 26.804 58.5114L24.9858 58.0852C23.9868 57.8485 23.2529 57.4815 22.7841 56.9844C22.3201 56.4825 22.0881 55.8551 22.0881 55.1023C22.0881 54.4867 22.2609 53.9422 22.6066 53.4688C22.9569 52.9953 23.4328 52.6236 24.0341 52.3537C24.6402 52.0838 25.3267 51.9489 26.0938 51.9489C27.1733 51.9489 28.0209 52.1856 28.6364 52.6591C29.2567 53.1326 29.697 53.7576 29.9574 54.5341ZM37.1112 63.2273C36.1263 63.2273 35.2622 62.9929 34.5188 62.5241C33.7802 62.0554 33.2026 61.3996 32.7859 60.5568C32.374 59.714 32.168 58.7292 32.168 57.6023C32.168 56.4659 32.374 55.474 32.7859 54.6264C33.2026 53.7789 33.7802 53.1207 34.5188 52.652C35.2622 52.1832 36.1263 51.9489 37.1112 51.9489C38.096 51.9489 38.9578 52.1832 39.6964 52.652C40.4398 53.1207 41.0174 53.7789 41.4294 54.6264C41.846 55.474 42.0544 56.4659 42.0544 57.6023C42.0544 58.7292 41.846 59.714 41.4294 60.5568C41.0174 61.3996 40.4398 62.0554 39.6964 62.5241C38.9578 62.9929 38.096 63.2273 37.1112 63.2273ZM37.1112 61.7216C37.8593 61.7216 38.4748 61.5298 38.9578 61.1463C39.4407 60.7628 39.7982 60.2585 40.0302 59.6335C40.2622 59.0085 40.3782 58.3314 40.3782 57.6023C40.3782 56.8731 40.2622 56.1937 40.0302 55.5639C39.7982 54.9342 39.4407 54.4252 38.9578 54.0369C38.4748 53.6487 37.8593 53.4545 37.1112 53.4545C36.3631 53.4545 35.7475 53.6487 35.2646 54.0369C34.7816 54.4252 34.4241 54.9342 34.1921 55.5639C33.9601 56.1937 33.8441 56.8731 33.8441 57.6023C33.8441 58.3314 33.9601 59.0085 34.1921 59.6335C34.4241 60.2585 34.7816 60.7628 35.2646 61.1463C35.7475 61.5298 36.3631 61.7216 37.1112 61.7216ZM49.0448 63.2273C48.022 63.2273 47.1414 62.9858 46.4027 62.5028C45.6641 62.0199 45.0959 61.3546 44.6982 60.5071C44.3004 59.6596 44.1016 58.6913 44.1016 57.6023C44.1016 56.4943 44.3052 55.5166 44.7124 54.669C45.1243 53.8168 45.6972 53.1515 46.4311 52.6733C47.1698 52.1903 48.0315 51.9489 49.0164 51.9489C49.7834 51.9489 50.4747 52.0909 51.0902 52.375C51.7058 52.6591 52.21 53.0568 52.603 53.5682C52.996 54.0795 53.2398 54.6761 53.3345 55.358H51.6584C51.5306 54.8608 51.2465 54.4205 50.8061 54.0369C50.3705 53.6487 49.7834 53.4545 49.0448 53.4545C48.3914 53.4545 47.8184 53.625 47.326 53.9659C46.8383 54.3021 46.4572 54.7779 46.1826 55.3935C45.9127 56.0043 45.7777 56.7216 45.7777 57.5455C45.7777 58.3883 45.9103 59.1222 46.1754 59.7472C46.4453 60.3722 46.8241 60.8575 47.3118 61.2031C47.8042 61.5488 48.3819 61.7216 49.0448 61.7216C49.4804 61.7216 49.8757 61.6458 50.2308 61.4943C50.586 61.3428 50.8866 61.125 51.1328 60.8409C51.379 60.5568 51.5542 60.2159 51.6584 59.8182H53.3345C53.2398 60.4621 53.0055 61.0421 52.6314 61.5582C52.2621 62.0696 51.772 62.4768 51.1612 62.7798C50.5552 63.0781 49.8497 63.2273 49.0448 63.2273ZM55.7848 63V52.0909H57.461V63H55.7848ZM56.6371 50.2727C56.3104 50.2727 56.0287 50.1615 55.7919 49.9389C55.5599 49.7164 55.4439 49.4489 55.4439 49.1364C55.4439 48.8239 55.5599 48.5563 55.7919 48.3338C56.0287 48.1113 56.3104 48 56.6371 48C56.9638 48 57.2432 48.1113 57.4752 48.3338C57.7119 48.5563 57.8303 48.8239 57.8303 49.1364C57.8303 49.4489 57.7119 49.7164 57.4752 49.9389C57.2432 50.1615 56.9638 50.2727 56.6371 50.2727ZM63.7411 63.2557C63.0499 63.2557 62.4225 63.1255 61.859 62.8651C61.2956 62.5999 60.8482 62.2188 60.5167 61.7216C60.1853 61.2197 60.0196 60.6136 60.0196 59.9034C60.0196 59.2784 60.1427 58.7718 60.3889 58.3835C60.6351 57.9905 60.9642 57.6828 61.3761 57.4602C61.788 57.2377 62.2426 57.072 62.7397 56.9631C63.2416 56.8494 63.7459 56.7595 64.2525 56.6932C64.9154 56.608 65.4528 56.544 65.8647 56.5014C66.2814 56.4541 66.5844 56.3759 66.7738 56.267C66.9679 56.1581 67.065 55.9687 67.065 55.6989V55.642C67.065 54.9413 66.8732 54.3968 66.4897 54.0085C66.1109 53.6203 65.5357 53.4261 64.7639 53.4261C63.9637 53.4261 63.3363 53.6013 62.8818 53.9517C62.4272 54.3021 62.1076 54.6761 61.923 55.0739L60.3321 54.5057C60.6161 53.8428 60.9949 53.3267 61.4684 52.9574C61.9466 52.5833 62.4675 52.3229 63.0309 52.1761C63.5991 52.0246 64.1578 51.9489 64.7071 51.9489C65.0574 51.9489 65.4599 51.9915 65.9144 52.0767C66.3737 52.1572 66.8164 52.3253 67.2426 52.581C67.6734 52.8366 68.0309 53.2225 68.315 53.7386C68.5991 54.2547 68.7411 54.946 68.7411 55.8125V63H67.065V61.5227H66.9798C66.8661 61.7595 66.6768 62.0128 66.4116 62.2827C66.1464 62.5526 65.7937 62.7822 65.3534 62.9716C64.913 63.161 64.3756 63.2557 63.7411 63.2557ZM63.9968 61.75C64.6597 61.75 65.2184 61.6198 65.673 61.3594C66.1322 61.099 66.4779 60.7628 66.7099 60.3509C66.9466 59.9389 67.065 59.5057 67.065 59.0511V57.517C66.994 57.6023 66.8377 57.6804 66.5963 57.7514C66.3595 57.8177 66.0849 57.8769 65.7724 57.929C65.4646 57.9763 65.164 58.0189 64.8704 58.0568C64.5816 58.09 64.3472 58.1184 64.1673 58.142C63.7317 58.1989 63.3245 58.2912 62.9457 58.419C62.5716 58.5421 62.2686 58.7292 62.0366 58.9801C61.8093 59.2263 61.6957 59.5625 61.6957 59.9886C61.6957 60.571 61.9111 61.0114 62.342 61.3097C62.7776 61.6032 63.3292 61.75 63.9968 61.75ZM76.5448 52.0909V53.5114H70.8914V52.0909H76.5448ZM72.5391 49.4773H74.2152V59.875C74.2152 60.3485 74.2839 60.7036 74.4212 60.9403C74.5632 61.1723 74.7432 61.3286 74.961 61.4091C75.1835 61.4848 75.4179 61.5227 75.6641 61.5227C75.8487 61.5227 76.0003 61.5133 76.1186 61.4943C76.237 61.4706 76.3317 61.4517 76.4027 61.4375L76.7436 62.9432C76.63 62.9858 76.4714 63.0284 76.2678 63.071C76.0642 63.1184 75.8061 63.142 75.4936 63.142C75.0201 63.142 74.5561 63.0402 74.1016 62.8366C73.6518 62.633 73.2777 62.3229 72.9794 61.9062C72.6859 61.4896 72.5391 60.964 72.5391 60.3295V49.4773ZM83.5227 63.2273C82.4716 63.2273 81.5649 62.9953 80.8026 62.5312C80.045 62.0625 79.4602 61.4091 79.0483 60.571C78.6411 59.7282 78.4375 58.7481 78.4375 57.6307C78.4375 56.5133 78.6411 55.5284 79.0483 54.6761C79.4602 53.8191 80.0332 53.1515 80.7671 52.6733C81.5057 52.1903 82.3674 51.9489 83.3523 51.9489C83.9205 51.9489 84.4816 52.0436 85.0355 52.233C85.5895 52.4223 86.0938 52.7301 86.5483 53.1562C87.0029 53.5777 87.3651 54.1364 87.635 54.8324C87.9049 55.5284 88.0398 56.3854 88.0398 57.4034V58.1136H79.6307V56.6648H86.3352C86.3352 56.0492 86.2121 55.5 85.9659 55.017C85.7245 54.5341 85.3788 54.1529 84.929 53.8736C84.4839 53.5942 83.9584 53.4545 83.3523 53.4545C82.6847 53.4545 82.107 53.6203 81.6193 53.9517C81.1364 54.2784 80.7647 54.7045 80.5043 55.2301C80.2439 55.7557 80.1137 56.3191 80.1137 56.9205V57.8864C80.1137 58.7102 80.2557 59.4086 80.5398 59.9815C80.8286 60.5497 81.2287 60.983 81.7401 61.2812C82.2514 61.5748 82.8457 61.7216 83.5227 61.7216C83.9631 61.7216 84.3608 61.66 84.7159 61.5369C85.0758 61.4091 85.3859 61.2197 85.6463 60.9688C85.9067 60.7131 86.108 60.3958 86.25 60.017L87.8693 60.4716C87.6989 61.0208 87.4124 61.5038 87.01 61.9205C86.6075 62.3324 86.1103 62.6544 85.5185 62.8864C84.9266 63.1136 84.2614 63.2273 83.5227 63.2273ZM94.7088 63.2273C93.7997 63.2273 92.9972 62.9976 92.3012 62.5384C91.6051 62.0743 91.0606 61.4209 90.6676 60.5781C90.2746 59.7306 90.0781 58.7292 90.0781 57.5739C90.0781 56.428 90.2746 55.4337 90.6676 54.5909C91.0606 53.7481 91.6075 53.0971 92.3083 52.6378C93.009 52.1785 93.8187 51.9489 94.7372 51.9489C95.4475 51.9489 96.0085 52.0672 96.4205 52.304C96.8371 52.536 97.1544 52.8011 97.3722 53.0994C97.5947 53.393 97.7675 53.6345 97.8906 53.8239H98.0327V48.4545H99.7088V63H98.0895V61.3239H97.8906C97.7675 61.5227 97.5924 61.7737 97.3651 62.0767C97.1378 62.375 96.8135 62.6425 96.3921 62.8793C95.9707 63.1113 95.4096 63.2273 94.7088 63.2273ZM94.9361 61.7216C95.6085 61.7216 96.1766 61.5464 96.6406 61.196C97.1047 60.8409 97.4574 60.3509 97.6989 59.7259C97.9404 59.0961 98.0611 58.3693 98.0611 57.5455C98.0611 56.7311 97.9427 56.0185 97.706 55.4077C97.4692 54.7921 97.1189 54.3139 96.6549 53.973C96.1908 53.6274 95.6179 53.4545 94.9361 53.4545C94.2259 53.4545 93.634 53.6368 93.1605 54.0014C92.6918 54.3613 92.339 54.8513 92.1023 55.4716C91.8703 56.0871 91.7543 56.7784 91.7543 57.5455C91.7543 58.322 91.8727 59.0275 92.1094 59.6619C92.3509 60.2917 92.706 60.7936 93.1747 61.1676C93.6482 61.5369 94.2353 61.7216 94.9361 61.7216ZM111.108 63L107.784 52.0909H109.545L111.903 60.4432H112.017L114.347 52.0909H116.136L118.438 60.4148H118.551L120.909 52.0909H122.67L119.347 63H117.699L115.313 54.6193H115.142L112.756 63H111.108ZM124.886 63V52.0909H126.563V63H124.886ZM125.739 50.2727C125.412 50.2727 125.13 50.1615 124.893 49.9389C124.661 49.7164 124.545 49.4489 124.545 49.1364C124.545 48.8239 124.661 48.5563 124.893 48.3338C125.13 48.1113 125.412 48 125.739 48C126.065 48 126.345 48.1113 126.577 48.3338C126.813 48.5563 126.932 48.8239 126.932 49.1364C126.932 49.4489 126.813 49.7164 126.577 49.9389C126.345 50.1615 126.065 50.2727 125.739 50.2727ZM134.377 52.0909V53.5114H128.723V52.0909H134.377ZM130.371 49.4773H132.047V59.875C132.047 60.3485 132.116 60.7036 132.253 60.9403C132.395 61.1723 132.575 61.3286 132.793 61.4091C133.016 61.4848 133.25 61.5227 133.496 61.5227C133.681 61.5227 133.832 61.5133 133.951 61.4943C134.069 61.4706 134.164 61.4517 134.235 61.4375L134.576 62.9432C134.462 62.9858 134.303 63.0284 134.1 63.071C133.896 63.1184 133.638 63.142 133.326 63.142C132.852 63.142 132.388 63.0402 131.934 62.8366C131.484 62.633 131.11 62.3229 130.811 61.9062C130.518 61.4896 130.371 60.964 130.371 60.3295V49.4773ZM138.809 56.4375V63H137.132V48.4545H138.809V53.7955H138.951C139.206 53.232 139.59 52.7846 140.101 52.4531C140.617 52.117 141.304 51.9489 142.161 51.9489C142.904 51.9489 143.555 52.098 144.114 52.3963C144.673 52.6899 145.106 53.142 145.414 53.7528C145.726 54.3589 145.882 55.1307 145.882 56.0682V63H144.206V56.1818C144.206 55.3153 143.981 54.6454 143.532 54.1719C143.087 53.6937 142.469 53.4545 141.678 53.4545C141.129 53.4545 140.636 53.5705 140.201 53.8026C139.77 54.0346 139.429 54.3731 139.178 54.8182C138.932 55.2633 138.809 55.803 138.809 56.4375ZM159.148 63.2273C158.097 63.2273 157.19 62.9953 156.428 62.5312C155.67 62.0625 155.085 61.4091 154.673 60.571C154.266 59.7282 154.063 58.7481 154.063 57.6307C154.063 56.5133 154.266 55.5284 154.673 54.6761C155.085 53.8191 155.658 53.1515 156.392 52.6733C157.131 52.1903 157.992 51.9489 158.977 51.9489C159.545 51.9489 160.107 52.0436 160.661 52.233C161.215 52.4223 161.719 52.7301 162.173 53.1562C162.628 53.5777 162.99 54.1364 163.26 54.8324C163.53 55.5284 163.665 56.3854 163.665 57.4034V58.1136H155.256V56.6648H161.96C161.96 56.0492 161.837 55.5 161.591 55.017C161.349 54.5341 161.004 54.1529 160.554 53.8736C160.109 53.5942 159.583 53.4545 158.977 53.4545C158.31 53.4545 157.732 53.6203 157.244 53.9517C156.761 54.2784 156.39 54.7045 156.129 55.2301C155.869 55.7557 155.739 56.3191 155.739 56.9205V57.8864C155.739 58.7102 155.881 59.4086 156.165 59.9815C156.454 60.5497 156.854 60.983 157.365 61.2812C157.876 61.5748 158.471 61.7216 159.148 61.7216C159.588 61.7216 159.986 61.66 160.341 61.5369C160.701 61.4091 161.011 61.2197 161.271 60.9688C161.532 60.7131 161.733 60.3958 161.875 60.017L163.494 60.4716C163.324 61.0208 163.037 61.5038 162.635 61.9205C162.233 62.3324 161.735 62.6544 161.143 62.8864C160.552 63.1136 159.886 63.2273 159.148 63.2273ZM167.891 56.4375V63H166.215V52.0909H167.834V53.7955H167.976C168.232 53.2415 168.62 52.7964 169.141 52.4602C169.661 52.1193 170.334 51.9489 171.158 51.9489C171.896 51.9489 172.543 52.1004 173.097 52.4034C173.651 52.7017 174.081 53.1562 174.389 53.767C174.697 54.3731 174.851 55.1402 174.851 56.0682V63H173.175V56.1818C173.175 55.3248 172.952 54.6572 172.507 54.179C172.062 53.696 171.451 53.4545 170.675 53.4545C170.14 53.4545 169.661 53.5705 169.24 53.8026C168.823 54.0346 168.494 54.3731 168.253 54.8182C168.011 55.2633 167.891 55.803 167.891 56.4375ZM182.488 63.2273C181.436 63.2273 180.53 62.9953 179.767 62.5312C179.01 62.0625 178.425 61.4091 178.013 60.571C177.606 59.7282 177.402 58.7481 177.402 57.6307C177.402 56.5133 177.606 55.5284 178.013 54.6761C178.425 53.8191 178.998 53.1515 179.732 52.6733C180.471 52.1903 181.332 51.9489 182.317 51.9489C182.885 51.9489 183.446 52.0436 184 52.233C184.554 52.4223 185.059 52.7301 185.513 53.1562C185.968 53.5777 186.33 54.1364 186.6 54.8324C186.87 55.5284 187.005 56.3854 187.005 57.4034V58.1136H178.596V56.6648H185.3C185.3 56.0492 185.177 55.5 184.931 55.017C184.689 54.5341 184.344 54.1529 183.894 53.8736C183.449 53.5942 182.923 53.4545 182.317 53.4545C181.65 53.4545 181.072 53.6203 180.584 53.9517C180.101 54.2784 179.73 54.7045 179.469 55.2301C179.209 55.7557 179.079 56.3191 179.079 56.9205V57.8864C179.079 58.7102 179.221 59.4086 179.505 59.9815C179.793 60.5497 180.194 60.983 180.705 61.2812C181.216 61.5748 181.811 61.7216 182.488 61.7216C182.928 61.7216 183.326 61.66 183.681 61.5369C184.041 61.4091 184.351 61.2197 184.611 60.9688C184.872 60.7131 185.073 60.3958 185.215 60.017L186.834 60.4716C186.664 61.0208 186.377 61.5038 185.975 61.9205C185.572 62.3324 185.075 62.6544 184.483 62.8864C183.891 63.1136 183.226 63.2273 182.488 63.2273ZM189.554 63V52.0909H191.174V53.7386H191.287C191.486 53.1989 191.846 52.7609 192.367 52.4247C192.888 52.0885 193.475 51.9205 194.128 51.9205C194.251 51.9205 194.405 51.9228 194.59 51.9276C194.775 51.9323 194.914 51.9394 195.009 51.9489V53.6534C194.952 53.6392 194.822 53.6179 194.618 53.5895C194.419 53.5563 194.209 53.5398 193.986 53.5398C193.456 53.5398 192.982 53.651 192.566 53.8736C192.154 54.0914 191.827 54.3944 191.586 54.7827C191.349 55.1662 191.23 55.6042 191.23 56.0966V63H189.554ZM201.067 67.3182C200.257 67.3182 199.561 67.214 198.979 67.0057C198.397 66.8021 197.911 66.5322 197.523 66.196C197.14 65.8646 196.834 65.5095 196.607 65.1307L197.942 64.1932C198.094 64.392 198.285 64.6193 198.517 64.875C198.749 65.1354 199.067 65.3603 199.469 65.5497C199.876 65.7438 200.409 65.8409 201.067 65.8409C201.948 65.8409 202.675 65.6278 203.248 65.2017C203.82 64.7756 204.107 64.108 204.107 63.1989V60.983H203.965C203.842 61.1818 203.667 61.428 203.439 61.7216C203.217 62.0104 202.895 62.2685 202.473 62.4957C202.057 62.7183 201.493 62.8295 200.783 62.8295C199.902 62.8295 199.112 62.6212 198.411 62.2045C197.715 61.7879 197.163 61.1818 196.756 60.3864C196.354 59.5909 196.152 58.625 196.152 57.4886C196.152 56.3712 196.349 55.3982 196.742 54.5696C197.135 53.7363 197.682 53.0923 198.382 52.6378C199.083 52.1785 199.893 51.9489 200.811 51.9489C201.522 51.9489 202.085 52.0672 202.502 52.304C202.923 52.536 203.245 52.8011 203.468 53.0994C203.695 53.393 203.87 53.6345 203.993 53.8239H204.164V52.0909H205.783V63.3125C205.783 64.25 205.57 65.0123 205.144 65.5994C204.722 66.1913 204.154 66.6245 203.439 66.8991C202.729 67.1785 201.938 67.3182 201.067 67.3182ZM201.01 61.3239C201.683 61.3239 202.251 61.17 202.715 60.8622C203.179 60.5545 203.532 60.1117 203.773 59.5341C204.015 58.9564 204.135 58.2652 204.135 57.4602C204.135 56.6742 204.017 55.9806 203.78 55.3793C203.543 54.7779 203.193 54.3068 202.729 53.9659C202.265 53.625 201.692 53.4545 201.01 53.4545C200.3 53.4545 199.708 53.6345 199.235 53.9943C198.766 54.3542 198.413 54.8371 198.177 55.4432C197.945 56.0492 197.829 56.7216 197.829 57.4602C197.829 58.2178 197.947 58.8878 198.184 59.4702C198.425 60.0478 198.78 60.5024 199.249 60.8338C199.722 61.1605 200.31 61.3239 201.01 61.3239ZM209.931 67.0909C209.647 67.0909 209.393 67.0672 209.171 67.0199C208.948 66.9773 208.794 66.9347 208.709 66.892L209.135 65.4148C209.543 65.5189 209.902 65.5568 210.215 65.5284C210.527 65.5 210.804 65.3603 211.046 65.1094C211.292 64.8632 211.517 64.4631 211.721 63.9091L212.033 63.0568L207.999 52.0909H209.817L212.829 60.7841H212.942L215.954 52.0909H217.772L213.141 64.5909C212.933 65.1544 212.675 65.6207 212.367 65.9901C212.059 66.3641 211.702 66.6411 211.294 66.821C210.892 67.0009 210.437 67.0909 209.931 67.0909ZM73.3656 87V72.4545H75.0417V77.8239H75.1838C75.3069 77.6345 75.4774 77.393 75.6952 77.0994C75.9177 76.8011 76.2349 76.536 76.6469 76.304C77.0635 76.0672 77.627 75.9489 78.3372 75.9489C79.2558 75.9489 80.0654 76.1785 80.7662 76.6378C81.4669 77.0971 82.0138 77.7481 82.4068 78.5909C82.7998 79.4337 82.9963 80.428 82.9963 81.5739C82.9963 82.7292 82.7998 83.7306 82.4068 84.5781C82.0138 85.4209 81.4693 86.0743 80.7733 86.5384C80.0773 86.9976 79.2747 87.2273 78.3656 87.2273C77.6649 87.2273 77.1038 87.1113 76.6824 86.8793C76.261 86.6425 75.9366 86.375 75.7094 86.0767C75.4821 85.7737 75.3069 85.5227 75.1838 85.3239H74.9849V87H73.3656ZM75.0133 81.5455C75.0133 82.3693 75.1341 83.0961 75.3756 83.7259C75.617 84.3509 75.9698 84.8409 76.4338 85.196C76.8978 85.5464 77.466 85.7216 78.1383 85.7216C78.8391 85.7216 79.4239 85.5369 79.8926 85.1676C80.3661 84.7936 80.7212 84.2917 80.9579 83.6619C81.1994 83.0275 81.3202 82.322 81.3202 81.5455C81.3202 80.7784 81.2018 80.0871 80.965 79.4716C80.733 78.8513 80.3803 78.3613 79.9068 78.0014C79.4381 77.6368 78.8486 77.4545 78.1383 77.4545C77.4565 77.4545 76.8836 77.6274 76.4196 77.973C75.9556 78.3139 75.6052 78.7921 75.3685 79.4077C75.1317 80.0185 75.0133 80.7311 75.0133 81.5455ZM88.7704 87.2557C88.0792 87.2557 87.4518 87.1255 86.8883 86.8651C86.3249 86.5999 85.8774 86.2188 85.546 85.7216C85.2146 85.2197 85.0489 84.6136 85.0489 83.9034C85.0489 83.2784 85.172 82.7718 85.4182 82.3835C85.6644 81.9905 85.9935 81.6828 86.4054 81.4602C86.8173 81.2377 87.2719 81.072 87.769 80.9631C88.2709 80.8494 88.7752 80.7595 89.2818 80.6932C89.9447 80.608 90.4821 80.544 90.894 80.5014C91.3107 80.4541 91.6137 80.3759 91.8031 80.267C91.9972 80.1581 92.0943 79.9687 92.0943 79.6989V79.642C92.0943 78.9413 91.9025 78.3968 91.519 78.0085C91.1402 77.6203 90.5649 77.4261 89.7932 77.4261C88.993 77.4261 88.3656 77.6013 87.9111 77.9517C87.4565 78.3021 87.1369 78.6761 86.9523 79.0739L85.3614 78.5057C85.6454 77.8428 86.0242 77.3267 86.4977 76.9574C86.9759 76.5833 87.4968 76.3229 88.0602 76.1761C88.6284 76.0246 89.1871 75.9489 89.7364 75.9489C90.0867 75.9489 90.4892 75.9915 90.9437 76.0767C91.403 76.1572 91.8457 76.3253 92.2719 76.581C92.7027 76.8366 93.0602 77.2225 93.3443 77.7386C93.6284 78.2547 93.7704 78.946 93.7704 79.8125V87H92.0943V85.5227H92.0091C91.8954 85.7595 91.706 86.0128 91.4409 86.2827C91.1757 86.5526 90.823 86.7822 90.3827 86.9716C89.9423 87.161 89.4049 87.2557 88.7704 87.2557ZM89.0261 85.75C89.689 85.75 90.2477 85.6198 90.7023 85.3594C91.1615 85.099 91.5072 84.7628 91.7392 84.3509C91.9759 83.9389 92.0943 83.5057 92.0943 83.0511V81.517C92.0233 81.6023 91.867 81.6804 91.6256 81.7514C91.3888 81.8177 91.1142 81.8769 90.8017 81.929C90.4939 81.9763 90.1933 82.0189 89.8997 82.0568C89.6109 82.09 89.3765 82.1184 89.1966 82.142C88.761 82.1989 88.3538 82.2912 87.975 82.419C87.6009 82.5421 87.2979 82.7292 87.0659 82.9801C86.8386 83.2263 86.725 83.5625 86.725 83.9886C86.725 84.571 86.9404 85.0114 87.3713 85.3097C87.8069 85.6032 88.3585 85.75 89.0261 85.75ZM98.5059 72.4545V87H96.8297V72.4545H98.5059ZM104.786 87.2557C104.095 87.2557 103.467 87.1255 102.904 86.8651C102.341 86.5999 101.893 86.2188 101.562 85.7216C101.23 85.2197 101.064 84.6136 101.064 83.9034C101.064 83.2784 101.188 82.7718 101.434 82.3835C101.68 81.9905 102.009 81.6828 102.421 81.4602C102.833 81.2377 103.287 81.072 103.785 80.9631C104.287 80.8494 104.791 80.7595 105.297 80.6932C105.96 80.608 106.498 80.544 106.91 80.5014C107.326 80.4541 107.629 80.3759 107.819 80.267C108.013 80.1581 108.11 79.9687 108.11 79.6989V79.642C108.11 78.9413 107.918 78.3968 107.535 78.0085C107.156 77.6203 106.581 77.4261 105.809 77.4261C105.009 77.4261 104.381 77.6013 103.927 77.9517C103.472 78.3021 103.153 78.6761 102.968 79.0739L101.377 78.5057C101.661 77.8428 102.04 77.3267 102.513 76.9574C102.992 76.5833 103.512 76.3229 104.076 76.1761C104.644 76.0246 105.203 75.9489 105.752 75.9489C106.102 75.9489 106.505 75.9915 106.959 76.0767C107.419 76.1572 107.861 76.3253 108.287 76.581C108.718 76.8366 109.076 77.2225 109.36 77.7386C109.644 78.2547 109.786 78.946 109.786 79.8125V87H108.11V85.5227H108.025C107.911 85.7595 107.722 86.0128 107.457 86.2827C107.191 86.5526 106.839 86.7822 106.398 86.9716C105.958 87.161 105.421 87.2557 104.786 87.2557ZM105.042 85.75C105.705 85.75 106.263 85.6198 106.718 85.3594C107.177 85.099 107.523 84.7628 107.755 84.3509C107.992 83.9389 108.11 83.5057 108.11 83.0511V81.517C108.039 81.6023 107.883 81.6804 107.641 81.7514C107.404 81.8177 107.13 81.8769 106.817 81.929C106.51 81.9763 106.209 82.0189 105.915 82.0568C105.627 82.09 105.392 82.1184 105.212 82.142C104.777 82.1989 104.369 82.2912 103.991 82.419C103.617 82.5421 103.314 82.7292 103.082 82.9801C102.854 83.2263 102.741 83.5625 102.741 83.9886C102.741 84.571 102.956 85.0114 103.387 85.3097C103.823 85.6032 104.374 85.75 105.042 85.75ZM114.522 80.4375V87H112.845V76.0909H114.465V77.7955H114.607C114.862 77.2415 115.251 76.7964 115.772 76.4602C116.292 76.1193 116.965 75.9489 117.789 75.9489C118.527 75.9489 119.173 76.1004 119.727 76.4034C120.281 76.7017 120.712 77.1562 121.02 77.767C121.328 78.3731 121.482 79.1402 121.482 80.0682V87H119.806V80.1818C119.806 79.3248 119.583 78.6572 119.138 78.179C118.693 77.696 118.082 77.4545 117.306 77.4545C116.771 77.4545 116.292 77.5705 115.871 77.8026C115.454 78.0346 115.125 78.3731 114.884 78.8182C114.642 79.2633 114.522 79.803 114.522 80.4375ZM128.976 87.2273C127.954 87.2273 127.073 86.9858 126.334 86.5028C125.596 86.0199 125.028 85.3546 124.63 84.5071C124.232 83.6596 124.033 82.6913 124.033 81.6023C124.033 80.4943 124.237 79.5166 124.644 78.669C125.056 77.8168 125.629 77.1515 126.363 76.6733C127.101 76.1903 127.963 75.9489 128.948 75.9489C129.715 75.9489 130.406 76.0909 131.022 76.375C131.637 76.6591 132.142 77.0568 132.535 77.5682C132.928 78.0795 133.171 78.6761 133.266 79.358H131.59C131.462 78.8608 131.178 78.4205 130.738 78.0369C130.302 77.6487 129.715 77.4545 128.976 77.4545C128.323 77.4545 127.75 77.625 127.258 77.9659C126.77 78.3021 126.389 78.7779 126.114 79.3935C125.844 80.0043 125.709 80.7216 125.709 81.5455C125.709 82.3883 125.842 83.1222 126.107 83.7472C126.377 84.3722 126.756 84.8575 127.243 85.2031C127.736 85.5488 128.314 85.7216 128.976 85.7216C129.412 85.7216 129.807 85.6458 130.162 85.4943C130.518 85.3428 130.818 85.125 131.064 84.8409C131.311 84.5568 131.486 84.2159 131.59 83.8182H133.266C133.171 84.4621 132.937 85.0421 132.563 85.5582C132.194 86.0696 131.704 86.4768 131.093 86.7798C130.487 87.0781 129.781 87.2273 128.976 87.2273ZM140.29 87.2273C139.239 87.2273 138.332 86.9953 137.57 86.5312C136.813 86.0625 136.228 85.4091 135.816 84.571C135.409 83.7282 135.205 82.7481 135.205 81.6307C135.205 80.5133 135.409 79.5284 135.816 78.6761C136.228 77.8191 136.801 77.1515 137.535 76.6733C138.273 76.1903 139.135 75.9489 140.12 75.9489C140.688 75.9489 141.249 76.0436 141.803 76.233C142.357 76.4223 142.861 76.7301 143.316 77.1562C143.77 77.5777 144.133 78.1364 144.403 78.8324C144.672 79.5284 144.807 80.3854 144.807 81.4034V82.1136H136.398V80.6648H143.103C143.103 80.0492 142.98 79.5 142.734 79.017C142.492 78.5341 142.146 78.1529 141.697 77.8736C141.252 77.5942 140.726 77.4545 140.12 77.4545C139.452 77.4545 138.875 77.6203 138.387 77.9517C137.904 78.2784 137.532 78.7045 137.272 79.2301C137.011 79.7557 136.881 80.3191 136.881 80.9205V81.8864C136.881 82.7102 137.023 83.4086 137.307 83.9815C137.596 84.5497 137.996 84.983 138.508 85.2812C139.019 85.5748 139.613 85.7216 140.29 85.7216C140.731 85.7216 141.128 85.66 141.484 85.5369C141.843 85.4091 142.153 85.2197 142.414 84.9688C142.674 84.7131 142.876 84.3958 143.018 84.017L144.637 84.4716C144.466 85.0208 144.18 85.5038 143.778 85.9205C143.375 86.3324 142.878 86.6544 142.286 86.8864C141.694 87.1136 141.029 87.2273 140.29 87.2273Z" fill="#DADADA"/>
</svg>
