<svg width="267" height="68" viewBox="0 0 267 68" fill="none" xmlns="http://www.w3.org/2000/svg">
<path d="M11.5341 0.454545V15H9.82956L1.90342 3.57955H1.76137V15H1.12057e-05V0.454545H1.70456L9.6591 11.9034H9.80115V0.454545H11.5341ZM21.0813 7.98295V9.54545H14.7177V7.98295H21.0813ZM27.2408 15.2557C26.5495 15.2557 25.9221 15.1255 25.3587 14.8651C24.7952 14.5999 24.3478 14.2188 24.0163 13.7216C23.6849 13.2197 23.5192 12.6136 23.5192 11.9034C23.5192 11.2784 23.6423 10.7718 23.8885 10.3835C24.1347 9.99053 24.4638 9.68276 24.8757 9.46023C25.2877 9.23769 25.7422 9.07197 26.2394 8.96307C26.7413 8.84943 27.2455 8.75947 27.7521 8.69318C28.415 8.60795 28.9524 8.54403 29.3644 8.50142C29.781 8.45407 30.0841 8.37595 30.2734 8.26705C30.4676 8.15814 30.5646 7.96875 30.5646 7.69886V7.64205C30.5646 6.94129 30.3729 6.39678 29.9894 6.00852C29.6106 5.62027 29.0353 5.42614 28.2635 5.42614C27.4633 5.42614 26.8359 5.60133 26.3814 5.9517C25.9269 6.30208 25.6073 6.67614 25.4226 7.07386L23.8317 6.50568C24.1158 5.8428 24.4946 5.3267 24.9681 4.95739C25.4463 4.58333 25.9671 4.32292 26.5306 4.17614C27.0987 4.02462 27.6574 3.94886 28.2067 3.94886C28.5571 3.94886 28.9595 3.99148 29.4141 4.0767C29.8734 4.1572 30.3161 4.32528 30.7422 4.58097C31.1731 4.83665 31.5306 5.22254 31.8146 5.73864C32.0987 6.25473 32.2408 6.94602 32.2408 7.8125V15H30.5646V13.5227H30.4794C30.3658 13.7595 30.1764 14.0128 29.9112 14.2827C29.6461 14.5526 29.2933 14.7822 28.853 14.9716C28.4127 15.161 27.8752 15.2557 27.2408 15.2557ZM27.4965 13.75C28.1593 13.75 28.7181 13.6198 29.1726 13.3594C29.6319 13.099 29.9775 12.7628 30.2095 12.3509C30.4463 11.9389 30.5646 11.5057 30.5646 11.0511V9.51705C30.4936 9.60227 30.3374 9.6804 30.0959 9.75142C29.8591 9.81771 29.5845 9.87689 29.272 9.92898C28.9643 9.97633 28.6636 10.0189 28.37 10.0568C28.0812 10.09 27.8468 10.1184 27.6669 10.142C27.2313 10.1989 26.8241 10.2912 26.4453 10.419C26.0713 10.5421 25.7682 10.7292 25.5362 10.9801C25.309 11.2263 25.1953 11.5625 25.1953 11.9886C25.1953 12.571 25.4108 13.0114 25.8416 13.3097C26.2772 13.6032 26.8288 13.75 27.4965 13.75ZM39.7319 15.2273C38.7092 15.2273 37.8285 14.9858 37.0899 14.5028C36.3512 14.0199 35.783 13.3546 35.3853 12.5071C34.9876 11.6596 34.7887 10.6913 34.7887 9.60227C34.7887 8.49432 34.9923 7.51657 35.3995 6.66903C35.8114 5.81676 36.3844 5.15152 37.1183 4.6733C37.8569 4.19034 38.7186 3.94886 39.7035 3.94886C40.4705 3.94886 41.1618 4.09091 41.7774 4.375C42.3929 4.65909 42.8971 5.05682 43.2901 5.56818C43.6831 6.07955 43.927 6.67614 44.0217 7.35795H42.3455C42.2177 6.8608 41.9336 6.42045 41.4933 6.03693C41.0577 5.64867 40.4705 5.45455 39.7319 5.45455C39.0785 5.45455 38.5056 5.625 38.0132 5.96591C37.5255 6.30208 37.1443 6.77794 36.8697 7.39347C36.5998 8.00426 36.4649 8.72159 36.4649 9.54545C36.4649 10.3883 36.5974 11.1222 36.8626 11.7472C37.1325 12.3722 37.5113 12.8575 37.9989 13.2031C38.4914 13.5488 39.069 13.7216 39.7319 13.7216C40.1675 13.7216 40.5629 13.6458 40.918 13.4943C41.2731 13.3428 41.5738 13.125 41.82 12.8409C42.0662 12.5568 42.2414 12.2159 42.3455 11.8182H44.0217C43.927 12.4621 43.6926 13.0421 43.3185 13.5582C42.9492 14.0696 42.4592 14.4768 41.8484 14.7798C41.2423 15.0781 40.5368 15.2273 39.7319 15.2273ZM47.5515 19.0909C47.2674 19.0909 47.0141 19.0672 46.7916 19.0199C46.569 18.9773 46.4151 18.9347 46.3299 18.892L46.756 17.4148C47.1632 17.5189 47.5231 17.5568 47.8356 17.5284C48.1481 17.5 48.4251 17.3603 48.6666 17.1094C48.9128 16.8632 49.1377 16.4631 49.3413 15.9091L49.6538 15.0568L45.6197 4.09091H47.4379L50.4492 12.7841H50.5629L53.5742 4.09091H55.3924L50.7617 16.5909C50.5534 17.1544 50.2953 17.6207 49.9876 17.9901C49.6798 18.3641 49.3223 18.6411 48.9151 18.821C48.5127 19.0009 48.0581 19.0909 47.5515 19.0909ZM59.2809 0.454545V15H57.6048V0.454545H59.2809ZM66.9247 15.2273C65.8736 15.2273 64.9669 14.9953 64.2046 14.5312C63.447 14.0625 62.8622 13.4091 62.4503 12.571C62.0431 11.7282 61.8395 10.7481 61.8395 9.63068C61.8395 8.51326 62.0431 7.52841 62.4503 6.67614C62.8622 5.81913 63.4351 5.15152 64.169 4.6733C64.9077 4.19034 65.7694 3.94886 66.7543 3.94886C67.3225 3.94886 67.8835 4.04356 68.4375 4.23295C68.9915 4.42235 69.4958 4.73011 69.9503 5.15625C70.4048 5.57765 70.7671 6.13636 71.0369 6.83239C71.3068 7.52841 71.4418 8.38542 71.4418 9.40341V10.1136H63.0327V8.66477H69.7372C69.7372 8.04924 69.6141 7.5 69.3679 7.01705C69.1264 6.53409 68.7808 6.15294 68.331 5.87358C67.8859 5.59422 67.3603 5.45455 66.7543 5.45455C66.0867 5.45455 65.509 5.62026 65.0213 5.9517C64.5384 6.27841 64.1667 6.70455 63.9063 7.23011C63.6458 7.75568 63.5156 8.31913 63.5156 8.92045V9.88636C63.5156 10.7102 63.6577 11.4086 63.9418 11.9815C64.2306 12.5497 64.6307 12.983 65.1421 13.2812C65.6534 13.5748 66.2476 13.7216 66.9247 13.7216C67.3651 13.7216 67.7628 13.66 68.1179 13.5369C68.4778 13.4091 68.7879 13.2197 69.0483 12.9688C69.3087 12.7131 69.51 12.3958 69.652 12.017L71.2713 12.4716C71.1009 13.0208 70.8144 13.5038 70.4119 13.9205C70.0095 14.3324 69.5123 14.6544 68.9205 14.8864C68.3286 15.1136 67.6634 15.2273 66.9247 15.2273ZM78.7358 4.09091V5.51136H73.0824V4.09091H78.7358ZM74.7301 1.47727H76.4063V11.875C76.4063 12.3485 76.4749 12.7036 76.6122 12.9403C76.7543 13.1723 76.9342 13.3286 77.152 13.4091C77.3745 13.4848 77.6089 13.5227 77.8551 13.5227C78.0398 13.5227 78.1913 13.5133 78.3097 13.4943C78.428 13.4706 78.5227 13.4517 78.5938 13.4375L78.9347 14.9432C78.821 14.9858 78.6624 15.0284 78.4588 15.071C78.2552 15.1184 77.9972 15.142 77.6847 15.142C77.2112 15.142 76.7472 15.0402 76.2926 14.8366C75.8428 14.633 75.4688 14.3229 75.1705 13.9062C74.8769 13.4896 74.7301 12.964 74.7301 12.3295V1.47727ZM83.1676 8.4375V15H81.4915V0.454545H83.1676V5.79545H83.3097C83.5654 5.23201 83.9489 4.78456 84.4602 4.45312C84.9763 4.11695 85.6629 3.94886 86.5199 3.94886C87.2633 3.94886 87.9143 4.09801 88.473 4.39631C89.0317 4.68987 89.465 5.14205 89.7727 5.75284C90.0852 6.3589 90.2415 7.13068 90.2415 8.06818V15H88.5654V8.18182C88.5654 7.31534 88.3404 6.64536 87.8906 6.17188C87.4456 5.69366 86.8277 5.45455 86.0369 5.45455C85.4877 5.45455 84.9953 5.57055 84.5597 5.80256C84.1288 6.03456 83.7879 6.37311 83.5369 6.81818C83.2907 7.26326 83.1676 7.80303 83.1676 8.4375ZM96.5181 15.2557C95.8268 15.2557 95.1995 15.1255 94.636 14.8651C94.0726 14.5999 93.6251 14.2188 93.2937 13.7216C92.9623 13.2197 92.7965 12.6136 92.7965 11.9034C92.7965 11.2784 92.9196 10.7718 93.1658 10.3835C93.4121 9.99053 93.7411 9.68276 94.1531 9.46023C94.565 9.23769 95.0195 9.07197 95.5167 8.96307C96.0186 8.84943 96.5229 8.75947 97.0295 8.69318C97.6924 8.60795 98.2298 8.54403 98.6417 8.50142C99.0584 8.45407 99.3614 8.37595 99.5508 8.26705C99.7449 8.15814 99.842 7.96875 99.842 7.69886V7.64205C99.842 6.94129 99.6502 6.39678 99.2667 6.00852C98.8879 5.62027 98.3126 5.42614 97.5408 5.42614C96.7407 5.42614 96.1133 5.60133 95.6587 5.9517C95.2042 6.30208 94.8846 6.67614 94.6999 7.07386L93.109 6.50568C93.3931 5.8428 93.7719 5.3267 94.2454 4.95739C94.7236 4.58333 95.2444 4.32292 95.8079 4.17614C96.3761 4.02462 96.9348 3.94886 97.484 3.94886C97.8344 3.94886 98.2369 3.99148 98.6914 4.0767C99.1507 4.1572 99.5934 4.32528 100.02 4.58097C100.45 4.83665 100.808 5.22254 101.092 5.73864C101.376 6.25473 101.518 6.94602 101.518 7.8125V15H99.842V13.5227H99.7568C99.6431 13.7595 99.4537 14.0128 99.1886 14.2827C98.9234 14.5526 98.5707 14.7822 98.1303 14.9716C97.69 15.161 97.1526 15.2557 96.5181 15.2557ZM96.7738 13.75C97.4367 13.75 97.9954 13.6198 98.4499 13.3594C98.9092 13.099 99.2549 12.7628 99.4869 12.3509C99.7236 11.9389 99.842 11.5057 99.842 11.0511V9.51705C99.771 9.60227 99.6147 9.6804 99.3732 9.75142C99.1365 9.81771 98.8619 9.87689 98.5494 9.92898C98.2416 9.97633 97.9409 10.0189 97.6474 10.0568C97.3586 10.09 97.1242 10.1184 96.9443 10.142C96.5087 10.1989 96.1015 10.2912 95.7227 10.419C95.3486 10.5421 95.0456 10.7292 94.8136 10.9801C94.5863 11.2263 94.4727 11.5625 94.4727 11.9886C94.4727 12.571 94.6881 13.0114 95.119 13.3097C95.5546 13.6032 96.1062 13.75 96.7738 13.75ZM106.254 8.4375V15H104.577V4.09091H106.197V5.79545H106.339C106.594 5.24148 106.983 4.7964 107.504 4.46023C108.024 4.11932 108.697 3.94886 109.521 3.94886C110.259 3.94886 110.906 4.10038 111.46 4.40341C112.014 4.7017 112.444 5.15625 112.752 5.76705C113.06 6.37311 113.214 7.14015 113.214 8.06818V15H111.538V8.18182C111.538 7.32481 111.315 6.6572 110.87 6.17898C110.425 5.69602 109.814 5.45455 109.038 5.45455C108.503 5.45455 108.024 5.57055 107.603 5.80256C107.186 6.03456 106.857 6.37311 106.616 6.81818C106.374 7.26326 106.254 7.80303 106.254 8.4375ZM120.708 15.2273C119.724 15.2273 118.86 14.9929 118.116 14.5241C117.377 14.0554 116.8 13.3996 116.383 12.5568C115.971 11.714 115.765 10.7292 115.765 9.60227C115.765 8.46591 115.971 7.47396 116.383 6.62642C116.8 5.77888 117.377 5.12074 118.116 4.65199C118.86 4.18324 119.724 3.94886 120.708 3.94886C121.693 3.94886 122.555 4.18324 123.294 4.65199C124.037 5.12074 124.615 5.77888 125.027 6.62642C125.443 7.47396 125.652 8.46591 125.652 9.60227C125.652 10.7292 125.443 11.714 125.027 12.5568C124.615 13.3996 124.037 14.0554 123.294 14.5241C122.555 14.9929 121.693 15.2273 120.708 15.2273ZM120.708 13.7216C121.457 13.7216 122.072 13.5298 122.555 13.1463C123.038 12.7628 123.395 12.2585 123.627 11.6335C123.86 11.0085 123.976 10.3314 123.976 9.60227C123.976 8.87311 123.86 8.19366 123.627 7.56392C123.395 6.93419 123.038 6.42519 122.555 6.03693C122.072 5.64867 121.457 5.45455 120.708 5.45455C119.96 5.45455 119.345 5.64867 118.862 6.03693C118.379 6.42519 118.021 6.93419 117.789 7.56392C117.557 8.19366 117.441 8.87311 117.441 9.60227C117.441 10.3314 117.557 11.0085 117.789 11.6335C118.021 12.2585 118.379 12.7628 118.862 13.1463C119.345 13.5298 119.96 13.7216 120.708 13.7216ZM129.886 0.454545V15H128.21V0.454545H129.886ZM136.167 15.2557C135.475 15.2557 134.848 15.1255 134.284 14.8651C133.721 14.5999 133.274 14.2188 132.942 13.7216C132.611 13.2197 132.445 12.6136 132.445 11.9034C132.445 11.2784 132.568 10.7718 132.814 10.3835C133.06 9.99053 133.39 9.68276 133.802 9.46023C134.213 9.23769 134.668 9.07197 135.165 8.96307C135.667 8.84943 136.171 8.75947 136.678 8.69318C137.341 8.60795 137.878 8.54403 138.29 8.50142C138.707 8.45407 139.01 8.37595 139.199 8.26705C139.393 8.15814 139.49 7.96875 139.49 7.69886V7.64205C139.49 6.94129 139.299 6.39678 138.915 6.00852C138.536 5.62027 137.961 5.42614 137.189 5.42614C136.389 5.42614 135.762 5.60133 135.307 5.9517C134.853 6.30208 134.533 6.67614 134.348 7.07386L132.757 6.50568C133.042 5.8428 133.42 5.3267 133.894 4.95739C134.372 4.58333 134.893 4.32292 135.456 4.17614C136.025 4.02462 136.583 3.94886 137.132 3.94886C137.483 3.94886 137.885 3.99148 138.34 4.0767C138.799 4.1572 139.242 4.32528 139.668 4.58097C140.099 4.83665 140.456 5.22254 140.74 5.73864C141.025 6.25473 141.167 6.94602 141.167 7.8125V15H139.49V13.5227H139.405C139.292 13.7595 139.102 14.0128 138.837 14.2827C138.572 14.5526 138.219 14.7822 137.779 14.9716C137.338 15.161 136.801 15.2557 136.167 15.2557ZM136.422 13.75C137.085 13.75 137.644 13.6198 138.098 13.3594C138.558 13.099 138.903 12.7628 139.135 12.3509C139.372 11.9389 139.49 11.5057 139.49 11.0511V9.51705C139.419 9.60227 139.263 9.6804 139.022 9.75142C138.785 9.81771 138.51 9.87689 138.198 9.92898C137.89 9.97633 137.589 10.0189 137.296 10.0568C137.007 10.09 136.773 10.1184 136.593 10.142C136.157 10.1989 135.75 10.2912 135.371 10.419C134.997 10.5421 134.694 10.7292 134.462 10.9801C134.235 11.2263 134.121 11.5625 134.121 11.9886C134.121 12.571 134.337 13.0114 134.767 13.3097C135.203 13.6032 135.755 13.75 136.422 13.75ZM144.226 15V4.09091H145.845V5.79545H145.987C146.214 5.21307 146.581 4.76089 147.088 4.43892C147.595 4.11222 148.203 3.94886 148.913 3.94886C149.633 3.94886 150.232 4.11222 150.71 4.43892C151.193 4.76089 151.57 5.21307 151.839 5.79545H151.953C152.232 5.23201 152.652 4.78456 153.21 4.45312C153.769 4.11695 154.439 3.94886 155.22 3.94886C156.196 3.94886 156.993 4.25426 157.614 4.86506C158.234 5.47112 158.544 6.41572 158.544 7.69886V15H156.868V7.69886C156.868 6.89394 156.648 6.31866 156.207 5.97301C155.767 5.62737 155.249 5.45455 154.652 5.45455C153.885 5.45455 153.291 5.68655 152.869 6.15057C152.448 6.60985 152.237 7.19223 152.237 7.89773V15H150.533V7.52841C150.533 6.90814 150.331 6.40862 149.929 6.02983C149.527 5.64631 149.008 5.45455 148.374 5.45455C147.938 5.45455 147.531 5.57055 147.152 5.80256C146.778 6.03456 146.475 6.35653 146.243 6.76847C146.016 7.17566 145.902 7.64678 145.902 8.18182V15H144.226ZM161.609 15V4.09091H163.285V15H161.609ZM162.461 2.27273C162.134 2.27273 161.853 2.16146 161.616 1.93892C161.384 1.71638 161.268 1.44886 161.268 1.13636C161.268 0.823864 161.384 0.556345 161.616 0.333806C161.853 0.111269 162.134 0 162.461 0C162.788 0 163.067 0.111269 163.299 0.333806C163.536 0.556345 163.654 0.823864 163.654 1.13636C163.654 1.44886 163.536 1.71638 163.299 1.93892C163.067 2.16146 162.788 2.27273 162.461 2.27273ZM170.474 15.2273C169.565 15.2273 168.762 14.9976 168.066 14.5384C167.37 14.0743 166.826 13.4209 166.433 12.5781C166.04 11.7306 165.843 10.7292 165.843 9.57386C165.843 8.42803 166.04 7.43371 166.433 6.59091C166.826 5.74811 167.373 5.09706 168.074 4.63778C168.774 4.1785 169.584 3.94886 170.502 3.94886C171.213 3.94886 171.774 4.06723 172.186 4.30398C172.602 4.53598 172.92 4.80114 173.137 5.09943C173.36 5.39299 173.533 5.63447 173.656 5.82386H173.798V0.454545H175.474V15H173.855V13.3239H173.656C173.533 13.5227 173.358 13.7737 173.13 14.0767C172.903 14.375 172.579 14.6425 172.157 14.8793C171.736 15.1113 171.175 15.2273 170.474 15.2273ZM170.701 13.7216C171.374 13.7216 171.942 13.5464 172.406 13.196C172.87 12.8409 173.223 12.3509 173.464 11.7259C173.706 11.0961 173.826 10.3693 173.826 9.54545C173.826 8.73106 173.708 8.01847 173.471 7.40767C173.235 6.79214 172.884 6.31392 172.42 5.97301C171.956 5.62737 171.383 5.45455 170.701 5.45455C169.991 5.45455 169.399 5.63684 168.926 6.00142C168.457 6.36127 168.104 6.85133 167.868 7.47159C167.636 8.08712 167.52 8.77841 167.52 9.54545C167.52 10.322 167.638 11.0275 167.875 11.6619C168.116 12.2917 168.471 12.7936 168.94 13.1676C169.413 13.5369 170.001 13.7216 170.701 13.7216ZM183.351 15.2273C182.299 15.2273 181.393 14.9953 180.63 14.5312C179.873 14.0625 179.288 13.4091 178.876 12.571C178.469 11.7282 178.265 10.7481 178.265 9.63068C178.265 8.51326 178.469 7.52841 178.876 6.67614C179.288 5.81913 179.861 5.15152 180.595 4.6733C181.333 4.19034 182.195 3.94886 183.18 3.94886C183.748 3.94886 184.309 4.04356 184.863 4.23295C185.417 4.42235 185.922 4.73011 186.376 5.15625C186.831 5.57765 187.193 6.13636 187.463 6.83239C187.733 7.52841 187.868 8.38542 187.868 9.40341V10.1136H179.458V8.66477H186.163C186.163 8.04924 186.04 7.5 185.794 7.01705C185.552 6.53409 185.207 6.15294 184.757 5.87358C184.312 5.59422 183.786 5.45455 183.18 5.45455C182.512 5.45455 181.935 5.62026 181.447 5.9517C180.964 6.27841 180.592 6.70455 180.332 7.23011C180.072 7.75568 179.941 8.31913 179.941 8.92045V9.88636C179.941 10.7102 180.083 11.4086 180.368 11.9815C180.656 12.5497 181.056 12.983 181.568 13.2812C182.079 13.5748 182.673 13.7216 183.351 13.7216C183.791 13.7216 184.189 13.66 184.544 13.5369C184.904 13.4091 185.214 13.2197 185.474 12.9688C185.735 12.7131 185.936 12.3958 186.078 12.017L187.697 12.4716C187.527 13.0208 187.24 13.5038 186.838 13.9205C186.435 14.3324 185.938 14.6544 185.346 14.8864C184.754 15.1136 184.089 15.2273 183.351 15.2273ZM196.27 15V0.454545H197.946V5.82386H198.088C198.211 5.63447 198.381 5.39299 198.599 5.09943C198.822 4.80114 199.139 4.53598 199.551 4.30398C199.967 4.06723 200.531 3.94886 201.241 3.94886C202.16 3.94886 202.969 4.1785 203.67 4.63778C204.371 5.09706 204.918 5.74811 205.311 6.59091C205.704 7.43371 205.9 8.42803 205.9 9.57386C205.9 10.7292 205.704 11.7306 205.311 12.5781C204.918 13.4209 204.373 14.0743 203.677 14.5384C202.981 14.9976 202.179 15.2273 201.27 15.2273C200.569 15.2273 200.008 15.1113 199.586 14.8793C199.165 14.6425 198.841 14.375 198.613 14.0767C198.386 13.7737 198.211 13.5227 198.088 13.3239H197.889V15H196.27ZM197.917 9.54545C197.917 10.3693 198.038 11.0961 198.279 11.7259C198.521 12.3509 198.874 12.8409 199.338 13.196C199.802 13.5464 200.37 13.7216 201.042 13.7216C201.743 13.7216 202.328 13.5369 202.797 13.1676C203.27 12.7936 203.625 12.2917 203.862 11.6619C204.103 11.0275 204.224 10.322 204.224 9.54545C204.224 8.77841 204.106 8.08712 203.869 7.47159C203.637 6.85133 203.284 6.36127 202.811 6.00142C202.342 5.63684 201.752 5.45455 201.042 5.45455C200.36 5.45455 199.788 5.62737 199.324 5.97301C198.86 6.31392 198.509 6.79214 198.272 7.40767C198.036 8.01847 197.917 8.73106 197.917 9.54545ZM208.464 15V4.09091H210.14V15H208.464ZM209.316 2.27273C208.99 2.27273 208.708 2.16146 208.471 1.93892C208.239 1.71638 208.123 1.44886 208.123 1.13636C208.123 0.823864 208.239 0.556345 208.471 0.333806C208.708 0.111269 208.99 0 209.316 0C209.643 0 209.922 0.111269 210.154 0.333806C210.391 0.556345 210.51 0.823864 210.51 1.13636C210.51 1.44886 210.391 1.71638 210.154 1.93892C209.922 2.16146 209.643 2.27273 209.316 2.27273ZM217.642 15.2273C216.657 15.2273 215.793 14.9929 215.05 14.5241C214.311 14.0554 213.733 13.3996 213.317 12.5568C212.905 11.714 212.699 10.7292 212.699 9.60227C212.699 8.46591 212.905 7.47396 213.317 6.62642C213.733 5.77888 214.311 5.12074 215.05 4.65199C215.793 4.18324 216.657 3.94886 217.642 3.94886C218.627 3.94886 219.489 4.18324 220.227 4.65199C220.971 5.12074 221.548 5.77888 221.96 6.62642C222.377 7.47396 222.585 8.46591 222.585 9.60227C222.585 10.7292 222.377 11.714 221.96 12.5568C221.548 13.3996 220.971 14.0554 220.227 14.5241C219.489 14.9929 218.627 15.2273 217.642 15.2273ZM217.642 13.7216C218.39 13.7216 219.006 13.5298 219.489 13.1463C219.972 12.7628 220.329 12.2585 220.561 11.6335C220.793 11.0085 220.909 10.3314 220.909 9.60227C220.909 8.87311 220.793 8.19366 220.561 7.56392C220.329 6.93419 219.972 6.42519 219.489 6.03693C219.006 5.64867 218.39 5.45455 217.642 5.45455C216.894 5.45455 216.278 5.64867 215.795 6.03693C215.313 6.42519 214.955 6.93419 214.723 7.56392C214.491 8.19366 214.375 8.87311 214.375 9.60227C214.375 10.3314 214.491 11.0085 214.723 11.6335C214.955 12.2585 215.313 12.7628 215.795 13.1463C216.278 13.5298 216.894 13.7216 217.642 13.7216ZM226.82 0.454545V15H225.144V0.454545H226.82ZM234.322 15.2273C233.337 15.2273 232.473 14.9929 231.729 14.5241C230.991 14.0554 230.413 13.3996 229.996 12.5568C229.585 11.714 229.379 10.7292 229.379 9.60227C229.379 8.46591 229.585 7.47396 229.996 6.62642C230.413 5.77888 230.991 5.12074 231.729 4.65199C232.473 4.18324 233.337 3.94886 234.322 3.94886C235.307 3.94886 236.168 4.18324 236.907 4.65199C237.65 5.12074 238.228 5.77888 238.64 6.62642C239.057 7.47396 239.265 8.46591 239.265 9.60227C239.265 10.7292 239.057 11.714 238.64 12.5568C238.228 13.3996 237.65 14.0554 236.907 14.5241C236.168 14.9929 235.307 15.2273 234.322 15.2273ZM234.322 13.7216C235.07 13.7216 235.685 13.5298 236.168 13.1463C236.651 12.7628 237.009 12.2585 237.241 11.6335C237.473 11.0085 237.589 10.3314 237.589 9.60227C237.589 8.87311 237.473 8.19366 237.241 7.56392C237.009 6.93419 236.651 6.42519 236.168 6.03693C235.685 5.64867 235.07 5.45455 234.322 5.45455C233.574 5.45455 232.958 5.64867 232.475 6.03693C231.992 6.42519 231.635 6.93419 231.403 7.56392C231.171 8.19366 231.055 8.87311 231.055 9.60227C231.055 10.3314 231.171 11.0085 231.403 11.6335C231.635 12.2585 231.992 12.7628 232.475 13.1463C232.958 13.5298 233.574 13.7216 234.322 13.7216ZM246.227 19.3182C245.417 19.3182 244.721 19.214 244.139 19.0057C243.556 18.8021 243.071 18.5322 242.683 18.196C242.299 17.8646 241.994 17.5095 241.767 17.1307L243.102 16.1932C243.253 16.392 243.445 16.6193 243.677 16.875C243.909 17.1354 244.226 17.3603 244.629 17.5497C245.036 17.7438 245.569 17.8409 246.227 17.8409C247.108 17.8409 247.834 17.6278 248.407 17.2017C248.98 16.7756 249.267 16.108 249.267 15.1989V12.983H249.125C249.002 13.1818 248.826 13.428 248.599 13.7216C248.377 14.0104 248.055 14.2685 247.633 14.4957C247.217 14.7183 246.653 14.8295 245.943 14.8295C245.062 14.8295 244.271 14.6212 243.571 14.2045C242.875 13.7879 242.323 13.1818 241.916 12.3864C241.513 11.5909 241.312 10.625 241.312 9.48864C241.312 8.37121 241.509 7.3982 241.902 6.5696C242.295 5.73627 242.842 5.09233 243.542 4.63778C244.243 4.1785 245.053 3.94886 245.971 3.94886C246.681 3.94886 247.245 4.06723 247.662 4.30398C248.083 4.53598 248.405 4.80114 248.627 5.09943C248.855 5.39299 249.03 5.63447 249.153 5.82386H249.324V4.09091H250.943V15.3125C250.943 16.25 250.73 17.0123 250.304 17.5994C249.882 18.1913 249.314 18.6245 248.599 18.8991C247.889 19.1785 247.098 19.3182 246.227 19.3182ZM246.17 13.3239C246.842 13.3239 247.411 13.17 247.875 12.8622C248.339 12.5545 248.691 12.1117 248.933 11.5341C249.174 10.9564 249.295 10.2652 249.295 9.46023C249.295 8.67424 249.177 7.98059 248.94 7.37926C248.703 6.77794 248.353 6.30682 247.889 5.96591C247.425 5.625 246.852 5.45455 246.17 5.45455C245.46 5.45455 244.868 5.63447 244.395 5.99432C243.926 6.35417 243.573 6.83712 243.336 7.44318C243.104 8.04924 242.988 8.72159 242.988 9.46023C242.988 10.2178 243.107 10.8878 243.343 11.4702C243.585 12.0478 243.94 12.5024 244.409 12.8338C244.882 13.1605 245.469 13.3239 246.17 13.3239ZM255.091 19.0909C254.806 19.0909 254.553 19.0672 254.331 19.0199C254.108 18.9773 253.954 18.9347 253.869 18.892L254.295 17.4148C254.702 17.5189 255.062 17.5568 255.375 17.5284C255.687 17.5 255.964 17.3603 256.206 17.1094C256.452 16.8632 256.677 16.4631 256.88 15.9091L257.193 15.0568L253.159 4.09091H254.977L257.988 12.7841H258.102L261.113 4.09091H262.931L258.301 16.5909C258.092 17.1544 257.834 17.6207 257.527 17.9901C257.219 18.3641 256.861 18.6411 256.454 18.821C256.052 19.0009 255.597 19.0909 255.091 19.0909ZM266.96 13.0114L266.847 13.7784C266.766 14.3182 266.643 14.8958 266.477 15.5114C266.316 16.1269 266.148 16.7069 265.973 17.2514C265.798 17.7959 265.653 18.2292 265.54 18.5511H264.261C264.323 18.2481 264.403 17.848 264.503 17.3509C264.602 16.8537 264.702 16.2973 264.801 15.6818C264.905 15.071 264.991 14.446 265.057 13.8068L265.142 13.0114H266.96ZM19.5952 28.0909V29.5114H13.9418V28.0909H19.5952ZM15.5895 25.4773H17.2656V35.875C17.2656 36.3485 17.3343 36.7036 17.4716 36.9403C17.6136 37.1723 17.7936 37.3286 18.0114 37.4091C18.2339 37.4848 18.4683 37.5227 18.7145 37.5227C18.8992 37.5227 19.0507 37.5133 19.169 37.4943C19.2874 37.4706 19.3821 37.4517 19.4531 37.4375L19.794 38.9432C19.6804 38.9858 19.5218 39.0284 19.3182 39.071C19.1146 39.1184 18.8565 39.142 18.544 39.142C18.0706 39.142 17.6065 39.0402 17.152 38.8366C16.7022 38.633 16.3281 38.3229 16.0298 37.9062C15.7363 37.4896 15.5895 36.964 15.5895 36.3295V25.4773ZM22.1165 39V28.0909H23.7358V29.7386H23.8494C24.0483 29.1989 24.4082 28.7609 24.929 28.4247C25.4498 28.0885 26.0369 27.9205 26.6904 27.9205C26.8135 27.9205 26.9673 27.9228 27.152 27.9276C27.3367 27.9323 27.4763 27.9394 27.571 27.9489V29.6534C27.5142 29.6392 27.384 29.6179 27.1804 29.5895C26.9815 29.5563 26.7708 29.5398 26.5483 29.5398C26.018 29.5398 25.5445 29.651 25.1279 29.8736C24.7159 30.0914 24.3892 30.3944 24.1477 30.7827C23.911 31.1662 23.7926 31.6042 23.7926 32.0966V39H22.1165ZM32.7681 39.2557C32.0768 39.2557 31.4495 39.1255 30.886 38.8651C30.3226 38.5999 29.8751 38.2188 29.5437 37.7216C29.2123 37.2197 29.0465 36.6136 29.0465 35.9034C29.0465 35.2784 29.1696 34.7718 29.4158 34.3835C29.6621 33.9905 29.9911 33.6828 30.4031 33.4602C30.815 33.2377 31.2695 33.072 31.7667 32.9631C32.2686 32.8494 32.7729 32.7595 33.2795 32.6932C33.9424 32.608 34.4798 32.544 34.8917 32.5014C35.3084 32.4541 35.6114 32.3759 35.8008 32.267C35.9949 32.1581 36.092 31.9687 36.092 31.6989V31.642C36.092 30.9413 35.9002 30.3968 35.5167 30.0085C35.1379 29.6203 34.5626 29.4261 33.7908 29.4261C32.9907 29.4261 32.3633 29.6013 31.9087 29.9517C31.4542 30.3021 31.1346 30.6761 30.9499 31.0739L29.359 30.5057C29.6431 29.8428 30.0219 29.3267 30.4954 28.9574C30.9736 28.5833 31.4944 28.3229 32.0579 28.1761C32.6261 28.0246 33.1848 27.9489 33.734 27.9489C34.0844 27.9489 34.4869 27.9915 34.9414 28.0767C35.4007 28.1572 35.8434 28.3253 36.2695 28.581C36.7004 28.8366 37.0579 29.2225 37.342 29.7386C37.6261 30.2547 37.7681 30.946 37.7681 31.8125V39H36.092V37.5227H36.0068C35.8931 37.7595 35.7037 38.0128 35.4386 38.2827C35.1734 38.5526 34.8207 38.7822 34.3803 38.9716C33.94 39.161 33.4026 39.2557 32.7681 39.2557ZM33.0238 37.75C33.6867 37.75 34.2454 37.6198 34.6999 37.3594C35.1592 37.099 35.5049 36.7628 35.7369 36.3509C35.9736 35.9389 36.092 35.5057 36.092 35.0511V33.517C36.021 33.6023 35.8647 33.6804 35.6232 33.7514C35.3865 33.8177 35.1119 33.8769 34.7994 33.929C34.4916 33.9763 34.1909 34.0189 33.8974 34.0568C33.6086 34.09 33.3742 34.1184 33.1943 34.142C32.7587 34.1989 32.3515 34.2912 31.9727 34.419C31.5986 34.5421 31.2956 34.7292 31.0636 34.9801C30.8363 35.2263 30.7227 35.5625 30.7227 35.9886C30.7227 36.571 30.9381 37.0114 31.369 37.3097C31.8046 37.6032 32.3562 37.75 33.0238 37.75ZM42.5036 32.4375V39H40.8274V28.0909H42.4467V29.7955H42.5888C42.8445 29.2415 43.2327 28.7964 43.7536 28.4602C44.2744 28.1193 44.9467 27.9489 45.7706 27.9489C46.5092 27.9489 47.1556 28.1004 47.7095 28.4034C48.2635 28.7017 48.6944 29.1562 49.0021 29.767C49.3099 30.3731 49.4638 31.1402 49.4638 32.0682V39H47.7877V32.1818C47.7877 31.3248 47.5651 30.6572 47.12 30.179C46.675 29.696 46.0642 29.4545 45.2877 29.4545C44.7526 29.4545 44.2744 29.5705 43.853 29.8026C43.4363 30.0346 43.1073 30.3731 42.8658 30.8182C42.6243 31.2633 42.5036 31.803 42.5036 32.4375ZM60.2539 30.5341L58.7482 30.9602C58.6535 30.7093 58.5139 30.4654 58.3292 30.2287C58.1493 29.9872 57.9031 29.7884 57.5906 29.6321C57.2781 29.4759 56.878 29.3977 56.3903 29.3977C55.7227 29.3977 55.1663 29.5516 54.7212 29.8594C54.2809 30.1624 54.0607 30.5483 54.0607 31.017C54.0607 31.4337 54.2123 31.7628 54.5153 32.0043C54.8183 32.2457 55.2918 32.447 55.9357 32.608L57.5551 33.0057C58.5304 33.2424 59.2572 33.6046 59.7355 34.0923C60.2137 34.5753 60.4528 35.1979 60.4528 35.9602C60.4528 36.5852 60.2729 37.1439 59.913 37.6364C59.5579 38.1288 59.0607 38.517 58.4215 38.8011C57.7823 39.0852 57.039 39.2273 56.1914 39.2273C55.0787 39.2273 54.1578 38.9858 53.4286 38.5028C52.6995 38.0199 52.2378 37.3144 52.0437 36.3864L53.6346 35.9886C53.7861 36.5758 54.0726 37.0161 54.494 37.3097C54.9201 37.6032 55.4765 37.75 56.163 37.75C56.9443 37.75 57.5645 37.5843 58.0238 37.2528C58.4878 36.9167 58.7198 36.5142 58.7198 36.0455C58.7198 35.6667 58.5873 35.3494 58.3221 35.0938C58.0569 34.8333 57.6498 34.6392 57.1005 34.5114L55.2823 34.0852C54.2833 33.8485 53.5494 33.4815 53.0806 32.9844C52.6166 32.4825 52.3846 31.8551 52.3846 31.1023C52.3846 30.4867 52.5574 29.9422 52.9031 29.4688C53.2534 28.9953 53.7293 28.6236 54.3306 28.3537C54.9367 28.0838 55.6232 27.9489 56.3903 27.9489C57.4698 27.9489 58.3174 28.1856 58.9329 28.6591C59.5532 29.1326 59.9935 29.7576 60.2539 30.5341ZM64.652 24.4545V39H62.9759V24.4545H64.652ZM70.9322 39.2557C70.2409 39.2557 69.6135 39.1255 69.0501 38.8651C68.4866 38.5999 68.0392 38.2188 67.7078 37.7216C67.3763 37.2197 67.2106 36.6136 67.2106 35.9034C67.2106 35.2784 67.3337 34.7718 67.5799 34.3835C67.8261 33.9905 68.1552 33.6828 68.5671 33.4602C68.9791 33.2377 69.4336 33.072 69.9308 32.9631C70.4327 32.8494 70.9369 32.7595 71.4435 32.6932C72.1064 32.608 72.6438 32.544 73.0558 32.5014C73.4724 32.4541 73.7755 32.3759 73.9649 32.267C74.159 32.1581 74.256 31.9687 74.256 31.6989V31.642C74.256 30.9413 74.0643 30.3968 73.6808 30.0085C73.302 29.6203 72.7267 29.4261 71.9549 29.4261C71.1547 29.4261 70.5274 29.6013 70.0728 29.9517C69.6183 30.3021 69.2987 30.6761 69.114 31.0739L67.5231 30.5057C67.8072 29.8428 68.186 29.3267 68.6595 28.9574C69.1377 28.5833 69.6585 28.3229 70.222 28.1761C70.7901 28.0246 71.3489 27.9489 71.8981 27.9489C72.2485 27.9489 72.6509 27.9915 73.1055 28.0767C73.5648 28.1572 74.0075 28.3253 74.4336 28.581C74.8645 28.8366 75.222 29.2225 75.506 29.7386C75.7901 30.2547 75.9322 30.946 75.9322 31.8125V39H74.256V37.5227H74.1708C74.0572 37.7595 73.8678 38.0128 73.6026 38.2827C73.3375 38.5526 72.9847 38.7822 72.5444 38.9716C72.1041 39.161 71.5667 39.2557 70.9322 39.2557ZM71.1879 37.75C71.8507 37.75 72.4095 37.6198 72.864 37.3594C73.3233 37.099 73.6689 36.7628 73.9009 36.3509C74.1377 35.9389 74.256 35.5057 74.256 35.0511V33.517C74.185 33.6023 74.0288 33.6804 73.7873 33.7514C73.5506 33.8177 73.2759 33.8769 72.9634 33.929C72.6557 33.9763 72.355 34.0189 72.0614 34.0568C71.7726 34.09 71.5382 34.1184 71.3583 34.142C70.9227 34.1989 70.5155 34.2912 70.1367 34.419C69.7627 34.5421 69.4596 34.7292 69.2276 34.9801C69.0004 35.2263 68.8867 35.5625 68.8867 35.9886C68.8867 36.571 69.1022 37.0114 69.533 37.3097C69.9686 37.6032 70.5203 37.75 71.1879 37.75ZM83.7358 28.0909V29.5114H78.0824V28.0909H83.7358ZM79.7301 25.4773H81.4063V35.875C81.4063 36.3485 81.4749 36.7036 81.6122 36.9403C81.7543 37.1723 81.9342 37.3286 82.152 37.4091C82.3745 37.4848 82.6089 37.5227 82.8551 37.5227C83.0398 37.5227 83.1913 37.5133 83.3097 37.4943C83.428 37.4706 83.5227 37.4517 83.5938 37.4375L83.9347 38.9432C83.821 38.9858 83.6624 39.0284 83.4588 39.071C83.2552 39.1184 82.9972 39.142 82.6847 39.142C82.2112 39.142 81.7472 39.0402 81.2926 38.8366C80.8428 38.633 80.4688 38.3229 80.1705 37.9062C79.8769 37.4896 79.7301 36.964 79.7301 36.3295V25.4773ZM90.7138 39.2273C89.6627 39.2273 88.7559 38.9953 87.9936 38.5312C87.236 38.0625 86.6513 37.4091 86.2394 36.571C85.8322 35.7282 85.6286 34.7481 85.6286 33.6307C85.6286 32.5133 85.8322 31.5284 86.2394 30.6761C86.6513 29.8191 87.2242 29.1515 87.9581 28.6733C88.6967 28.1903 89.5585 27.9489 90.5433 27.9489C91.1115 27.9489 91.6726 28.0436 92.2266 28.233C92.7806 28.4223 93.2848 28.7301 93.7394 29.1562C94.1939 29.5777 94.5561 30.1364 94.826 30.8324C95.0959 31.5284 95.2308 32.3854 95.2308 33.4034V34.1136H86.8217V32.6648H93.5263C93.5263 32.0492 93.4032 31.5 93.157 31.017C92.9155 30.5341 92.5699 30.1529 92.12 29.8736C91.675 29.5942 91.1494 29.4545 90.5433 29.4545C89.8757 29.4545 89.2981 29.6203 88.8104 29.9517C88.3274 30.2784 87.9557 30.7045 87.6953 31.2301C87.4349 31.7557 87.3047 32.3191 87.3047 32.9205V33.8864C87.3047 34.7102 87.4467 35.4086 87.7308 35.9815C88.0197 36.5497 88.4198 36.983 88.9311 37.2812C89.4425 37.5748 90.0367 37.7216 90.7138 37.7216C91.1541 37.7216 91.5519 37.66 91.907 37.5369C92.2668 37.4091 92.577 37.2197 92.8374 36.9688C93.0978 36.7131 93.299 36.3958 93.4411 36.017L95.0604 36.4716C94.8899 37.0208 94.6035 37.5038 94.201 37.9205C93.7985 38.3324 93.3014 38.6544 92.7095 38.8864C92.1177 39.1136 91.4524 39.2273 90.7138 39.2273ZM101.9 39.2273C100.991 39.2273 100.188 38.9976 99.4922 38.5384C98.7962 38.0743 98.2517 37.4209 97.8587 36.5781C97.4657 35.7306 97.2692 34.7292 97.2692 33.5739C97.2692 32.428 97.4657 31.4337 97.8587 30.5909C98.2517 29.7481 98.7985 29.0971 99.4993 28.6378C100.2 28.1785 101.01 27.9489 101.928 27.9489C102.639 27.9489 103.2 28.0672 103.612 28.304C104.028 28.536 104.345 28.8011 104.563 29.0994C104.786 29.393 104.959 29.6345 105.082 29.8239H105.224V24.4545H106.9V39H105.281V37.3239H105.082C104.959 37.5227 104.783 37.7737 104.556 38.0767C104.329 38.375 104.005 38.6425 103.583 38.8793C103.162 39.1113 102.601 39.2273 101.9 39.2273ZM102.127 37.7216C102.799 37.7216 103.368 37.5464 103.832 37.196C104.296 36.8409 104.648 36.3509 104.89 35.7259C105.131 35.0961 105.252 34.3693 105.252 33.5455C105.252 32.7311 105.134 32.0185 104.897 31.4077C104.66 30.7921 104.31 30.3139 103.846 29.973C103.382 29.6274 102.809 29.4545 102.127 29.4545C101.417 29.4545 100.825 29.6368 100.352 30.0014C99.8828 30.3613 99.5301 30.8513 99.2933 31.4716C99.0613 32.0871 98.9453 32.7784 98.9453 33.5455C98.9453 34.322 99.0637 35.0275 99.3004 35.6619C99.5419 36.2917 99.897 36.7936 100.366 37.1676C100.839 37.5369 101.426 37.7216 102.127 37.7216ZM115.827 39V28.0909H117.504V39H115.827ZM116.68 26.2727C116.353 26.2727 116.071 26.1615 115.835 25.9389C115.603 25.7164 115.487 25.4489 115.487 25.1364C115.487 24.8239 115.603 24.5563 115.835 24.3338C116.071 24.1113 116.353 24 116.68 24C117.006 24 117.286 24.1113 117.518 24.3338C117.755 24.5563 117.873 24.8239 117.873 25.1364C117.873 25.4489 117.755 25.7164 117.518 25.9389C117.286 26.1615 117.006 26.2727 116.68 26.2727ZM122.25 32.4375V39H120.574V28.0909H122.193V29.7955H122.335C122.591 29.2415 122.979 28.7964 123.5 28.4602C124.02 28.1193 124.693 27.9489 125.517 27.9489C126.255 27.9489 126.902 28.1004 127.456 28.4034C128.01 28.7017 128.44 29.1562 128.748 29.767C129.056 30.3731 129.21 31.1402 129.21 32.0682V39H127.534V32.1818C127.534 31.3248 127.311 30.6572 126.866 30.179C126.421 29.696 125.81 29.4545 125.034 29.4545C124.499 29.4545 124.02 29.5705 123.599 29.8026C123.182 30.0346 122.853 30.3731 122.612 30.8182C122.37 31.2633 122.25 31.803 122.25 32.4375ZM137.017 28.0909V29.5114H131.364V28.0909H137.017ZM133.011 25.4773H134.688V35.875C134.688 36.3485 134.756 36.7036 134.893 36.9403C135.036 37.1723 135.215 37.3286 135.433 37.4091C135.656 37.4848 135.89 37.5227 136.136 37.5227C136.321 37.5227 136.473 37.5133 136.591 37.4943C136.709 37.4706 136.804 37.4517 136.875 37.4375L137.216 38.9432C137.102 38.9858 136.944 39.0284 136.74 39.071C136.536 39.1184 136.278 39.142 135.966 39.142C135.492 39.142 135.028 39.0402 134.574 38.8366C134.124 38.633 133.75 38.3229 133.452 37.9062C133.158 37.4896 133.011 36.964 133.011 36.3295V25.4773ZM143.853 39.2273C142.868 39.2273 142.004 38.9929 141.261 38.5241C140.522 38.0554 139.944 37.3996 139.528 36.5568C139.116 35.714 138.91 34.7292 138.91 33.6023C138.91 32.4659 139.116 31.474 139.528 30.6264C139.944 29.7789 140.522 29.1207 141.261 28.652C142.004 28.1832 142.868 27.9489 143.853 27.9489C144.838 27.9489 145.7 28.1832 146.438 28.652C147.182 29.1207 147.759 29.7789 148.171 30.6264C148.588 31.474 148.796 32.4659 148.796 33.6023C148.796 34.7292 148.588 35.714 148.171 36.5568C147.759 37.3996 147.182 38.0554 146.438 38.5241C145.7 38.9929 144.838 39.2273 143.853 39.2273ZM143.853 37.7216C144.601 37.7216 145.217 37.5298 145.7 37.1463C146.183 36.7628 146.54 36.2585 146.772 35.6335C147.004 35.0085 147.12 34.3314 147.12 33.6023C147.12 32.8731 147.004 32.1937 146.772 31.5639C146.54 30.9342 146.183 30.4252 145.7 30.0369C145.217 29.6487 144.601 29.4545 143.853 29.4545C143.105 29.4545 142.489 29.6487 142.006 30.0369C141.523 30.4252 141.166 30.9342 140.934 31.5639C140.702 32.1937 140.586 32.8731 140.586 33.6023C140.586 34.3314 140.702 35.0085 140.934 35.6335C141.166 36.2585 141.523 36.7628 142.006 37.1463C142.489 37.5298 143.105 37.7216 143.853 37.7216ZM164.707 30.5341L163.201 30.9602C163.107 30.7093 162.967 30.4654 162.782 30.2287C162.602 29.9872 162.356 29.7884 162.044 29.6321C161.731 29.4759 161.331 29.3977 160.843 29.3977C160.176 29.3977 159.619 29.5516 159.174 29.8594C158.734 30.1624 158.514 30.5483 158.514 31.017C158.514 31.4337 158.665 31.7628 158.968 32.0043C159.271 32.2457 159.745 32.447 160.389 32.608L162.008 33.0057C162.984 33.2424 163.71 33.6046 164.189 34.0923C164.667 34.5753 164.906 35.1979 164.906 35.9602C164.906 36.5852 164.726 37.1439 164.366 37.6364C164.011 38.1288 163.514 38.517 162.875 38.8011C162.235 39.0852 161.492 39.2273 160.645 39.2273C159.532 39.2273 158.611 38.9858 157.882 38.5028C157.153 38.0199 156.691 37.3144 156.497 36.3864L158.088 35.9886C158.239 36.5758 158.526 37.0161 158.947 37.3097C159.373 37.6032 159.93 37.75 160.616 37.75C161.397 37.75 162.018 37.5843 162.477 37.2528C162.941 36.9167 163.173 36.5142 163.173 36.0455C163.173 35.6667 163.04 35.3494 162.775 35.0938C162.51 34.8333 162.103 34.6392 161.554 34.5114L159.735 34.0852C158.736 33.8485 158.002 33.4815 157.534 32.9844C157.07 32.4825 156.838 31.8551 156.838 31.1023C156.838 30.4867 157.011 29.9422 157.356 29.4688C157.707 28.9953 158.182 28.6236 158.784 28.3537C159.39 28.0838 160.076 27.9489 160.843 27.9489C161.923 27.9489 162.77 28.1856 163.386 28.6591C164.006 29.1326 164.447 29.7576 164.707 30.5341ZM172.173 28.0909V29.5114H166.52V28.0909H172.173ZM168.168 25.4773H169.844V35.875C169.844 36.3485 169.912 36.7036 170.05 36.9403C170.192 37.1723 170.372 37.3286 170.589 37.4091C170.812 37.4848 171.046 37.5227 171.293 37.5227C171.477 37.5227 171.629 37.5133 171.747 37.4943C171.866 37.4706 171.96 37.4517 172.031 37.4375L172.372 38.9432C172.259 38.9858 172.1 39.0284 171.896 39.071C171.693 39.1184 171.435 39.142 171.122 39.142C170.649 39.142 170.185 39.0402 169.73 38.8366C169.28 38.633 168.906 38.3229 168.608 37.9062C168.314 37.4896 168.168 36.964 168.168 36.3295V25.4773ZM174.695 39V28.0909H176.314V29.7386H176.428C176.626 29.1989 176.986 28.7609 177.507 28.4247C178.028 28.0885 178.615 27.9205 179.268 27.9205C179.392 27.9205 179.545 27.9228 179.73 27.9276C179.915 27.9323 180.054 27.9394 180.149 27.9489V29.6534C180.092 29.6392 179.962 29.6179 179.759 29.5895C179.56 29.5563 179.349 29.5398 179.126 29.5398C178.596 29.5398 178.123 29.651 177.706 29.8736C177.294 30.0914 176.967 30.3944 176.726 30.7827C176.489 31.1662 176.371 31.6042 176.371 32.0966V39H174.695ZM189.011 34.5398V28.0909H190.687V39H189.011V37.1534H188.897C188.642 37.7074 188.244 38.1785 187.704 38.5668C187.164 38.9503 186.483 39.142 185.659 39.142C184.977 39.142 184.371 38.9929 183.841 38.6946C183.31 38.3916 182.894 37.937 182.591 37.331C182.288 36.7202 182.136 35.9508 182.136 35.0227V28.0909H183.812V34.9091C183.812 35.7045 184.035 36.339 184.48 36.8125C184.93 37.286 185.502 37.5227 186.199 37.5227C186.615 37.5227 187.039 37.4162 187.47 37.2031C187.905 36.9901 188.27 36.6634 188.564 36.223C188.862 35.7827 189.011 35.2216 189.011 34.5398ZM198.189 39.2273C197.166 39.2273 196.286 38.9858 195.547 38.5028C194.808 38.0199 194.24 37.3546 193.842 36.5071C193.445 35.6596 193.246 34.6913 193.246 33.6023C193.246 32.4943 193.449 31.5166 193.857 30.669C194.268 29.8168 194.841 29.1515 195.575 28.6733C196.314 28.1903 197.176 27.9489 198.161 27.9489C198.928 27.9489 199.619 28.0909 200.234 28.375C200.85 28.6591 201.354 29.0568 201.747 29.5682C202.14 30.0795 202.384 30.6761 202.479 31.358H200.803C200.675 30.8608 200.391 30.4205 199.95 30.0369C199.515 29.6487 198.928 29.4545 198.189 29.4545C197.536 29.4545 196.963 29.625 196.47 29.9659C195.982 30.3021 195.601 30.7779 195.327 31.3935C195.057 32.0043 194.922 32.7216 194.922 33.5455C194.922 34.3883 195.054 35.1222 195.32 35.7472C195.589 36.3722 195.968 36.8575 196.456 37.2031C196.948 37.5488 197.526 37.7216 198.189 37.7216C198.625 37.7216 199.02 37.6458 199.375 37.4943C199.73 37.3428 200.031 37.125 200.277 36.8409C200.523 36.5568 200.698 36.2159 200.803 35.8182H202.479C202.384 36.4621 202.15 37.0421 201.776 37.5582C201.406 38.0696 200.916 38.4768 200.305 38.7798C199.699 39.0781 198.994 39.2273 198.189 39.2273ZM209.673 28.0909V29.5114H204.02V28.0909H209.673ZM205.668 25.4773H207.344V35.875C207.344 36.3485 207.412 36.7036 207.55 36.9403C207.692 37.1723 207.872 37.3286 208.089 37.4091C208.312 37.4848 208.546 37.5227 208.793 37.5227C208.977 37.5227 209.129 37.5133 209.247 37.4943C209.366 37.4706 209.46 37.4517 209.531 37.4375L209.872 38.9432C209.759 38.9858 209.6 39.0284 209.396 39.071C209.193 39.1184 208.935 39.142 208.622 39.142C208.149 39.142 207.685 39.0402 207.23 38.8366C206.78 38.633 206.406 38.3229 206.108 37.9062C205.814 37.4896 205.668 36.964 205.668 36.3295V25.4773ZM219.07 34.5398V28.0909H220.746V39H219.07V37.1534H218.956C218.7 37.7074 218.303 38.1785 217.763 38.5668C217.223 38.9503 216.541 39.142 215.717 39.142C215.036 39.142 214.429 38.9929 213.899 38.6946C213.369 38.3916 212.952 37.937 212.649 37.331C212.346 36.7202 212.195 35.9508 212.195 35.0227V28.0909H213.871V34.9091C213.871 35.7045 214.093 36.339 214.538 36.8125C214.988 37.286 215.561 37.5227 216.257 37.5227C216.674 37.5227 217.098 37.4162 217.528 37.2031C217.964 36.9901 218.329 36.6634 218.622 36.223C218.92 35.7827 219.07 35.2216 219.07 34.5398ZM223.816 39V28.0909H225.435V29.7386H225.549C225.748 29.1989 226.107 28.7609 226.628 28.4247C227.149 28.0885 227.736 27.9205 228.39 27.9205C228.513 27.9205 228.667 27.9228 228.851 27.9276C229.036 27.9323 229.176 27.9394 229.27 27.9489V29.6534C229.213 29.6392 229.083 29.6179 228.88 29.5895C228.681 29.5563 228.47 29.5398 228.248 29.5398C227.717 29.5398 227.244 29.651 226.827 29.8736C226.415 30.0914 226.088 30.3944 225.847 30.7827C225.61 31.1662 225.492 31.6042 225.492 32.0966V39H223.816ZM235.499 39.2273C234.448 39.2273 233.541 38.9953 232.779 38.5312C232.021 38.0625 231.436 37.4091 231.025 36.571C230.617 35.7282 230.414 34.7481 230.414 33.6307C230.414 32.5133 230.617 31.5284 231.025 30.6761C231.436 29.8191 232.009 29.1515 232.743 28.6733C233.482 28.1903 234.344 27.9489 235.328 27.9489C235.897 27.9489 236.458 28.0436 237.012 28.233C237.566 28.4223 238.07 28.7301 238.525 29.1562C238.979 29.5777 239.341 30.1364 239.611 30.8324C239.881 31.5284 240.016 32.3854 240.016 33.4034V34.1136H231.607V32.6648H238.311C238.311 32.0492 238.188 31.5 237.942 31.017C237.701 30.5341 237.355 30.1529 236.905 29.8736C236.46 29.5942 235.935 29.4545 235.328 29.4545C234.661 29.4545 234.083 29.6203 233.596 29.9517C233.113 30.2784 232.741 30.7045 232.48 31.2301C232.22 31.7557 232.09 32.3191 232.09 32.9205V33.8864C232.09 34.7102 232.232 35.4086 232.516 35.9815C232.805 36.5497 233.205 36.983 233.716 37.2812C234.228 37.5748 234.822 37.7216 235.499 37.7216C235.939 37.7216 236.337 37.66 236.692 37.5369C237.052 37.4091 237.362 37.2197 237.623 36.9688C237.883 36.7131 238.084 36.3958 238.226 36.017L239.846 36.4716C239.675 37.0208 239.389 37.5038 238.986 37.9205C238.584 38.3324 238.087 38.6544 237.495 38.8864C236.903 39.1136 236.238 39.2273 235.499 39.2273ZM246.685 39.2273C245.776 39.2273 244.973 38.9976 244.277 38.5384C243.581 38.0743 243.037 37.4209 242.644 36.5781C242.251 35.7306 242.054 34.7292 242.054 33.5739C242.054 32.428 242.251 31.4337 242.644 30.5909C243.037 29.7481 243.584 29.0971 244.284 28.6378C244.985 28.1785 245.795 27.9489 246.713 27.9489C247.424 27.9489 247.985 28.0672 248.397 28.304C248.813 28.536 249.131 28.8011 249.348 29.0994C249.571 29.393 249.744 29.6345 249.867 29.8239H250.009V24.4545H251.685V39H250.066V37.3239H249.867C249.744 37.5227 249.569 37.7737 249.341 38.0767C249.114 38.375 248.79 38.6425 248.368 38.8793C247.947 39.1113 247.386 39.2273 246.685 39.2273ZM246.912 37.7216C247.585 37.7216 248.153 37.5464 248.617 37.196C249.081 36.8409 249.434 36.3509 249.675 35.7259C249.917 35.0961 250.037 34.3693 250.037 33.5455C250.037 32.7311 249.919 32.0185 249.682 31.4077C249.445 30.7921 249.095 30.3139 248.631 29.973C248.167 29.6274 247.594 29.4545 246.912 29.4545C246.202 29.4545 245.61 29.6368 245.137 30.0014C244.668 30.3613 244.315 30.8513 244.078 31.4716C243.846 32.0871 243.73 32.7784 243.73 33.5455C243.73 34.322 243.849 35.0275 244.086 35.6619C244.327 36.2917 244.682 36.7936 245.151 37.1676C245.624 37.5369 246.212 37.7216 246.912 37.7216ZM29.4016 67.0909V52.0909H31.021V53.8239H31.2198C31.3429 53.6345 31.5134 53.393 31.7312 53.0994C31.9537 52.8011 32.271 52.536 32.6829 52.304C33.0996 52.0672 33.663 51.9489 34.3732 51.9489C35.2918 51.9489 36.1015 52.1785 36.8022 52.6378C37.503 53.0971 38.0498 53.7481 38.4428 54.5909C38.8358 55.4337 39.0323 56.428 39.0323 57.5739C39.0323 58.7292 38.8358 59.7306 38.4428 60.5781C38.0498 61.4209 37.5053 62.0743 36.8093 62.5384C36.1133 62.9976 35.3107 63.2273 34.4016 63.2273C33.7009 63.2273 33.1398 63.1113 32.7184 62.8793C32.297 62.6425 31.9727 62.375 31.7454 62.0767C31.5181 61.7737 31.3429 61.5227 31.2198 61.3239H31.0778V67.0909H29.4016ZM31.0494 57.5455C31.0494 58.3693 31.1701 59.0961 31.4116 59.7259C31.6531 60.3509 32.0058 60.8409 32.4698 61.196C32.9338 61.5464 33.502 61.7216 34.1744 61.7216C34.8751 61.7216 35.4599 61.5369 35.9286 61.1676C36.4021 60.7936 36.7572 60.2917 36.994 59.6619C37.2355 59.0275 37.3562 58.322 37.3562 57.5455C37.3562 56.7784 37.2378 56.0871 37.0011 55.4716C36.7691 54.8513 36.4163 54.3613 35.9428 54.0014C35.4741 53.6368 34.8846 53.4545 34.1744 53.4545C33.4926 53.4545 32.9196 53.6274 32.4556 53.973C31.9916 54.3139 31.6412 54.7921 31.4045 55.4077C31.1677 56.0185 31.0494 56.7311 31.0494 57.5455ZM46.163 63.2273C45.1119 63.2273 44.2051 62.9953 43.4428 62.5312C42.6853 62.0625 42.1005 61.4091 41.6886 60.571C41.2814 59.7282 41.0778 58.7481 41.0778 57.6307C41.0778 56.5133 41.2814 55.5284 41.6886 54.6761C42.1005 53.8191 42.6734 53.1515 43.4073 52.6733C44.146 52.1903 45.0077 51.9489 45.9926 51.9489C46.5607 51.9489 47.1218 52.0436 47.6758 52.233C48.2298 52.4223 48.734 52.7301 49.1886 53.1562C49.6431 53.5777 50.0053 54.1364 50.2752 54.8324C50.5451 55.5284 50.6801 56.3854 50.6801 57.4034V58.1136H42.271V56.6648H48.9755C48.9755 56.0492 48.8524 55.5 48.6062 55.017C48.3647 54.5341 48.0191 54.1529 47.5693 53.8736C47.1242 53.5942 46.5986 53.4545 45.9926 53.4545C45.3249 53.4545 44.7473 53.6203 44.2596 53.9517C43.7766 54.2784 43.405 54.7045 43.1445 55.2301C42.8841 55.7557 42.7539 56.3191 42.7539 56.9205V57.8864C42.7539 58.7102 42.896 59.4086 43.1801 59.9815C43.4689 60.5497 43.869 60.983 44.3803 61.2812C44.8917 61.5748 45.4859 61.7216 46.163 61.7216C46.6033 61.7216 47.0011 61.66 47.3562 61.5369C47.716 61.4091 48.0262 61.2197 48.2866 60.9688C48.547 60.7131 48.7482 60.3958 48.8903 60.017L50.5096 60.4716C50.3391 61.0208 50.0527 61.5038 49.6502 61.9205C49.2478 62.3324 48.7506 62.6544 48.1587 62.8864C47.5669 63.1136 46.9016 63.2273 46.163 63.2273ZM53.2298 63V52.0909H54.8491V53.7386H54.9627C55.1616 53.1989 55.5214 52.7609 56.0423 52.4247C56.5631 52.0885 57.1502 51.9205 57.8036 51.9205C57.9267 51.9205 58.0806 51.9228 58.2653 51.9276C58.4499 51.9323 58.5896 51.9394 58.6843 51.9489V53.6534C58.6275 53.6392 58.4973 53.6179 58.2937 53.5895C58.0948 53.5563 57.8841 53.5398 57.6616 53.5398C57.1313 53.5398 56.6578 53.651 56.2411 53.8736C55.8292 54.0914 55.5025 54.3944 55.261 54.7827C55.0243 55.1662 54.9059 55.6042 54.9059 56.0966V63H53.2298ZM66.2127 52.0909V53.5114H60.332V52.0909H66.2127ZM62.0934 63V50.5852C62.0934 49.9602 62.2402 49.4394 62.5337 49.0227C62.8273 48.6061 63.2085 48.2936 63.6772 48.0852C64.146 47.8769 64.6408 47.7727 65.1616 47.7727C65.5735 47.7727 65.9097 47.8059 66.1701 47.8722C66.4305 47.9384 66.6247 48 66.7525 48.0568L66.2695 49.5057C66.1843 49.4773 66.0659 49.4418 65.9144 49.3991C65.7676 49.3565 65.5735 49.3352 65.332 49.3352C64.7781 49.3352 64.378 49.4749 64.1318 49.7543C63.8903 50.0336 63.7695 50.4432 63.7695 50.983V63H62.0934ZM72.5444 63.2273C71.5596 63.2273 70.6954 62.9929 69.9521 62.5241C69.2134 62.0554 68.6358 61.3996 68.2191 60.5568C67.8072 59.714 67.6012 58.7292 67.6012 57.6023C67.6012 56.4659 67.8072 55.474 68.2191 54.6264C68.6358 53.7789 69.2134 53.1207 69.9521 52.652C70.6954 52.1832 71.5596 51.9489 72.5444 51.9489C73.5292 51.9489 74.391 52.1832 75.1296 52.652C75.873 53.1207 76.4507 53.7789 76.8626 54.6264C77.2792 55.474 77.4876 56.4659 77.4876 57.6023C77.4876 58.7292 77.2792 59.714 76.8626 60.5568C76.4507 61.3996 75.873 62.0554 75.1296 62.5241C74.391 62.9929 73.5292 63.2273 72.5444 63.2273ZM72.5444 61.7216C73.2925 61.7216 73.908 61.5298 74.391 61.1463C74.8739 60.7628 75.2314 60.2585 75.4634 59.6335C75.6954 59.0085 75.8114 58.3314 75.8114 57.6023C75.8114 56.8731 75.6954 56.1937 75.4634 55.5639C75.2314 54.9342 74.8739 54.4252 74.391 54.0369C73.908 53.6487 73.2925 53.4545 72.5444 53.4545C71.7963 53.4545 71.1808 53.6487 70.6978 54.0369C70.2149 54.4252 69.8574 54.9342 69.6254 55.5639C69.3934 56.1937 69.2774 56.8731 69.2774 57.6023C69.2774 58.3314 69.3934 59.0085 69.6254 59.6335C69.8574 60.2585 70.2149 60.7628 70.6978 61.1463C71.1808 61.5298 71.7963 61.7216 72.5444 61.7216ZM80.0462 63V52.0909H81.6655V53.7386H81.7791C81.978 53.1989 82.3378 52.7609 82.8587 52.4247C83.3795 52.0885 83.9666 51.9205 84.62 51.9205C84.7431 51.9205 84.897 51.9228 85.0817 51.9276C85.2663 51.9323 85.406 51.9394 85.5007 51.9489V53.6534C85.4439 53.6392 85.3137 53.6179 85.1101 53.5895C84.9112 53.5563 84.7005 53.5398 84.478 53.5398C83.9477 53.5398 83.4742 53.651 83.0575 53.8736C82.6456 54.0914 82.3189 54.3944 82.0774 54.7827C81.8407 55.1662 81.7223 55.6042 81.7223 56.0966V63H80.0462ZM87.4876 63V52.0909H89.1069V53.7955H89.2489C89.4762 53.2131 89.8432 52.7609 90.3498 52.4389C90.8564 52.1122 91.4649 51.9489 92.1751 51.9489C92.8948 51.9489 93.4937 52.1122 93.972 52.4389C94.4549 52.7609 94.8313 53.2131 95.1012 53.7955H95.2149C95.4942 53.232 95.9132 52.7846 96.472 52.4531C97.0307 52.117 97.7007 51.9489 98.4819 51.9489C99.4573 51.9489 100.255 52.2543 100.875 52.8651C101.496 53.4711 101.806 54.4157 101.806 55.6989V63H100.13V55.6989C100.13 54.8939 99.9095 54.3187 99.4691 53.973C99.0288 53.6274 98.5103 53.4545 97.9137 53.4545C97.1467 53.4545 96.5525 53.6866 96.131 54.1506C95.7096 54.6098 95.4989 55.1922 95.4989 55.8977V63H93.7944V55.5284C93.7944 54.9081 93.5932 54.4086 93.1907 54.0298C92.7882 53.6463 92.2698 53.4545 91.6353 53.4545C91.1997 53.4545 90.7925 53.5705 90.4137 53.8026C90.0397 54.0346 89.7366 54.3565 89.5046 54.7685C89.2774 55.1757 89.1637 55.6468 89.1637 56.1818V63H87.4876ZM108.081 63.2557C107.389 63.2557 106.762 63.1255 106.199 62.8651C105.635 62.5999 105.188 62.2188 104.856 61.7216C104.525 61.2197 104.359 60.6136 104.359 59.9034C104.359 59.2784 104.482 58.7718 104.728 58.3835C104.975 57.9905 105.304 57.6828 105.716 57.4602C106.127 57.2377 106.582 57.072 107.079 56.9631C107.581 56.8494 108.085 56.7595 108.592 56.6932C109.255 56.608 109.792 56.544 110.204 56.5014C110.621 56.4541 110.924 56.3759 111.113 56.267C111.307 56.1581 111.404 55.9687 111.404 55.6989V55.642C111.404 54.9413 111.213 54.3968 110.829 54.0085C110.45 53.6203 109.875 53.4261 109.103 53.4261C108.303 53.4261 107.676 53.6013 107.221 53.9517C106.767 54.3021 106.447 54.6761 106.262 55.0739L104.672 54.5057C104.956 53.8428 105.334 53.3267 105.808 52.9574C106.286 52.5833 106.807 52.3229 107.37 52.1761C107.939 52.0246 108.497 51.9489 109.047 51.9489C109.397 51.9489 109.799 51.9915 110.254 52.0767C110.713 52.1572 111.156 52.3253 111.582 52.581C112.013 52.8366 112.37 53.2225 112.654 53.7386C112.939 54.2547 113.081 54.946 113.081 55.8125V63H111.404V61.5227H111.319C111.206 61.7595 111.016 62.0128 110.751 62.2827C110.486 62.5526 110.133 62.7822 109.693 62.9716C109.252 63.161 108.715 63.2557 108.081 63.2557ZM108.336 61.75C108.999 61.75 109.558 61.6198 110.012 61.3594C110.472 61.099 110.817 60.7628 111.049 60.3509C111.286 59.9389 111.404 59.5057 111.404 59.0511V57.517C111.333 57.6023 111.177 57.6804 110.936 57.7514C110.699 57.8177 110.424 57.8769 110.112 57.929C109.804 57.9763 109.503 58.0189 109.21 58.0568C108.921 58.09 108.687 58.1184 108.507 58.142C108.071 58.1989 107.664 58.2912 107.285 58.419C106.911 58.5421 106.608 58.7292 106.376 58.9801C106.149 59.2263 106.035 59.5625 106.035 59.9886C106.035 60.571 106.251 61.0114 106.681 61.3097C107.117 61.6032 107.669 61.75 108.336 61.75ZM117.816 56.4375V63H116.14V52.0909H117.759V53.7955H117.901C118.157 53.2415 118.545 52.7964 119.066 52.4602C119.587 52.1193 120.259 51.9489 121.083 51.9489C121.822 51.9489 122.468 52.1004 123.022 52.4034C123.576 52.7017 124.007 53.1562 124.315 53.767C124.622 54.3731 124.776 55.1402 124.776 56.0682V63H123.1V56.1818C123.1 55.3248 122.878 54.6572 122.433 54.179C121.987 53.696 121.377 53.4545 120.6 53.4545C120.065 53.4545 119.587 53.5705 119.165 53.8026C118.749 54.0346 118.42 54.3731 118.178 54.8182C117.937 55.2633 117.816 55.803 117.816 56.4375ZM132.271 63.2273C131.248 63.2273 130.368 62.9858 129.629 62.5028C128.89 62.0199 128.322 61.3546 127.924 60.5071C127.527 59.6596 127.328 58.6913 127.328 57.6023C127.328 56.4943 127.531 55.5166 127.939 54.669C128.351 53.8168 128.923 53.1515 129.657 52.6733C130.396 52.1903 131.258 51.9489 132.243 51.9489C133.01 51.9489 133.701 52.0909 134.316 52.375C134.932 52.6591 135.436 53.0568 135.829 53.5682C136.222 54.0795 136.466 54.6761 136.561 55.358H134.885C134.757 54.8608 134.473 54.4205 134.032 54.0369C133.597 53.6487 133.01 53.4545 132.271 53.4545C131.618 53.4545 131.045 53.625 130.552 53.9659C130.065 54.3021 129.683 54.7779 129.409 55.3935C129.139 56.0043 129.004 56.7216 129.004 57.5455C129.004 58.3883 129.136 59.1222 129.402 59.7472C129.672 60.3722 130.05 60.8575 130.538 61.2031C131.03 61.5488 131.608 61.7216 132.271 61.7216C132.707 61.7216 133.102 61.6458 133.457 61.4943C133.812 61.3428 134.113 61.125 134.359 60.8409C134.605 60.5568 134.78 60.2159 134.885 59.8182H136.561C136.466 60.4621 136.232 61.0421 135.858 61.5582C135.488 62.0696 134.998 62.4768 134.387 62.7798C133.781 63.0781 133.076 63.2273 132.271 63.2273ZM143.585 63.2273C142.534 63.2273 141.627 62.9953 140.865 62.5312C140.107 62.0625 139.522 61.4091 139.11 60.571C138.703 59.7282 138.5 58.7481 138.5 57.6307C138.5 56.5133 138.703 55.5284 139.11 54.6761C139.522 53.8191 140.095 53.1515 140.829 52.6733C141.568 52.1903 142.43 51.9489 143.414 51.9489C143.983 51.9489 144.544 52.0436 145.098 52.233C145.652 52.4223 146.156 52.7301 146.61 53.1562C147.065 53.5777 147.427 54.1364 147.697 54.8324C147.967 55.5284 148.102 56.3854 148.102 57.4034V58.1136H139.693V56.6648H146.397C146.397 56.0492 146.274 55.5 146.028 55.017C145.787 54.5341 145.441 54.1529 144.991 53.8736C144.546 53.5942 144.02 53.4545 143.414 53.4545C142.747 53.4545 142.169 53.6203 141.681 53.9517C141.199 54.2784 140.827 54.7045 140.566 55.2301C140.306 55.7557 140.176 56.3191 140.176 56.9205V57.8864C140.176 58.7102 140.318 59.4086 140.602 59.9815C140.891 60.5497 141.291 60.983 141.802 61.2812C142.314 61.5748 142.908 61.7216 143.585 61.7216C144.025 61.7216 144.423 61.66 144.778 61.5369C145.138 61.4091 145.448 61.2197 145.708 60.9688C145.969 60.7131 146.17 60.3958 146.312 60.017L147.931 60.4716C147.761 61.0208 147.475 61.5038 147.072 61.9205C146.67 62.3324 146.172 62.6544 145.581 62.8864C144.989 63.1136 144.324 63.2273 143.585 63.2273ZM164.004 54.5341L162.498 54.9602C162.404 54.7093 162.264 54.4654 162.079 54.2287C161.899 53.9872 161.653 53.7884 161.341 53.6321C161.028 53.4759 160.628 53.3977 160.14 53.3977C159.473 53.3977 158.916 53.5516 158.471 53.8594C158.031 54.1624 157.811 54.5483 157.811 55.017C157.811 55.4337 157.962 55.7628 158.265 56.0043C158.568 56.2457 159.042 56.447 159.686 56.608L161.305 57.0057C162.28 57.2424 163.007 57.6046 163.485 58.0923C163.964 58.5753 164.203 59.1979 164.203 59.9602C164.203 60.5852 164.023 61.1439 163.663 61.6364C163.308 62.1288 162.811 62.517 162.172 62.8011C161.532 63.0852 160.789 63.2273 159.941 63.2273C158.829 63.2273 157.908 62.9858 157.179 62.5028C156.449 62.0199 155.988 61.3144 155.794 60.3864L157.385 59.9886C157.536 60.5758 157.823 61.0161 158.244 61.3097C158.67 61.6032 159.226 61.75 159.913 61.75C160.694 61.75 161.315 61.5843 161.774 61.2528C162.238 60.9167 162.47 60.5142 162.47 60.0455C162.47 59.6667 162.337 59.3494 162.072 59.0938C161.807 58.8333 161.4 58.6392 160.851 58.5114L159.032 58.0852C158.033 57.8485 157.299 57.4815 156.831 56.9844C156.367 56.4825 156.135 55.8551 156.135 55.1023C156.135 54.4867 156.307 53.9422 156.653 53.4688C157.003 52.9953 157.479 52.6236 158.081 52.3537C158.687 52.0838 159.373 51.9489 160.14 51.9489C161.22 51.9489 162.067 52.1856 162.683 52.6591C163.303 53.1326 163.744 53.7576 164.004 54.5341ZM167.805 67.0909C167.521 67.0909 167.268 67.0672 167.045 67.0199C166.823 66.9773 166.669 66.9347 166.584 66.892L167.01 65.4148C167.417 65.5189 167.777 65.5568 168.089 65.5284C168.402 65.5 168.679 65.3603 168.92 65.1094C169.167 64.8632 169.392 64.4631 169.595 63.9091L169.908 63.0568L165.874 52.0909H167.692L170.703 60.7841H170.817L173.828 52.0909H175.646L171.016 64.5909C170.807 65.1544 170.549 65.6207 170.241 65.9901C169.934 66.3641 169.576 66.6411 169.169 66.821C168.767 67.0009 168.312 67.0909 167.805 67.0909ZM185.586 54.5341L184.08 54.9602C183.986 54.7093 183.846 54.4654 183.661 54.2287C183.481 53.9872 183.235 53.7884 182.923 53.6321C182.61 53.4759 182.21 53.3977 181.722 53.3977C181.055 53.3977 180.498 53.5516 180.053 53.8594C179.613 54.1624 179.393 54.5483 179.393 55.017C179.393 55.4337 179.544 55.7628 179.847 56.0043C180.15 56.2457 180.624 56.447 181.268 56.608L182.887 57.0057C183.862 57.2424 184.589 57.6046 185.067 58.0923C185.546 58.5753 185.785 59.1979 185.785 59.9602C185.785 60.5852 185.605 61.1439 185.245 61.6364C184.89 62.1288 184.393 62.517 183.754 62.8011C183.114 63.0852 182.371 63.2273 181.523 63.2273C180.411 63.2273 179.49 62.9858 178.761 62.5028C178.031 62.0199 177.57 61.3144 177.376 60.3864L178.967 59.9886C179.118 60.5758 179.405 61.0161 179.826 61.3097C180.252 61.6032 180.808 61.75 181.495 61.75C182.276 61.75 182.897 61.5843 183.356 61.2528C183.82 60.9167 184.052 60.5142 184.052 60.0455C184.052 59.6667 183.919 59.3494 183.654 59.0938C183.389 58.8333 182.982 58.6392 182.433 58.5114L180.614 58.0852C179.615 57.8485 178.881 57.4815 178.413 56.9844C177.949 56.4825 177.717 55.8551 177.717 55.1023C177.717 54.4867 177.889 53.9422 178.235 53.4688C178.585 52.9953 179.061 52.6236 179.663 52.3537C180.269 52.0838 180.955 51.9489 181.722 51.9489C182.802 51.9489 183.649 52.1856 184.265 52.6591C184.885 53.1326 185.326 53.7576 185.586 54.5341ZM193.052 52.0909V53.5114H187.399V52.0909H193.052ZM189.047 49.4773H190.723V59.875C190.723 60.3485 190.791 60.7036 190.929 60.9403C191.071 61.1723 191.251 61.3286 191.468 61.4091C191.691 61.4848 191.925 61.5227 192.172 61.5227C192.356 61.5227 192.508 61.5133 192.626 61.4943C192.744 61.4706 192.839 61.4517 192.91 61.4375L193.251 62.9432C193.137 62.9858 192.979 63.0284 192.775 63.071C192.572 63.1184 192.314 63.142 192.001 63.142C191.528 63.142 191.064 63.0402 190.609 62.8366C190.159 62.633 189.785 62.3229 189.487 61.9062C189.193 61.4896 189.047 60.964 189.047 60.3295V49.4773ZM200.03 63.2273C198.979 63.2273 198.072 62.9953 197.31 62.5312C196.552 62.0625 195.968 61.4091 195.556 60.571C195.149 59.7282 194.945 58.7481 194.945 57.6307C194.945 56.5133 195.149 55.5284 195.556 54.6761C195.968 53.8191 196.541 53.1515 197.275 52.6733C198.013 52.1903 198.875 51.9489 199.86 51.9489C200.428 51.9489 200.989 52.0436 201.543 52.233C202.097 52.4223 202.601 52.7301 203.056 53.1562C203.51 53.5777 203.873 54.1364 204.142 54.8324C204.412 55.5284 204.547 56.3854 204.547 57.4034V58.1136H196.138V56.6648H202.843C202.843 56.0492 202.72 55.5 202.473 55.017C202.232 54.5341 201.886 54.1529 201.436 53.8736C200.991 53.5942 200.466 53.4545 199.86 53.4545C199.192 53.4545 198.614 53.6203 198.127 53.9517C197.644 54.2784 197.272 54.7045 197.012 55.2301C196.751 55.7557 196.621 56.3191 196.621 56.9205V57.8864C196.621 58.7102 196.763 59.4086 197.047 59.9815C197.336 60.5497 197.736 60.983 198.248 61.2812C198.759 61.5748 199.353 61.7216 200.03 61.7216C200.471 61.7216 200.868 61.66 201.223 61.5369C201.583 61.4091 201.893 61.2197 202.154 60.9688C202.414 60.7131 202.615 60.3958 202.757 60.017L204.377 60.4716C204.206 61.0208 203.92 61.5038 203.517 61.9205C203.115 62.3324 202.618 62.6544 202.026 62.8864C201.434 63.1136 200.769 63.2273 200.03 63.2273ZM207.097 63V52.0909H208.716V53.7955H208.858C209.086 53.2131 209.453 52.7609 209.959 52.4389C210.466 52.1122 211.074 51.9489 211.784 51.9489C212.504 51.9489 213.103 52.1122 213.581 52.4389C214.064 52.7609 214.441 53.2131 214.711 53.7955H214.824C215.104 53.232 215.523 52.7846 216.081 52.4531C216.64 52.117 217.31 51.9489 218.091 51.9489C219.067 51.9489 219.864 52.2543 220.485 52.8651C221.105 53.4711 221.415 54.4157 221.415 55.6989V63H219.739V55.6989C219.739 54.8939 219.519 54.3187 219.078 53.973C218.638 53.6274 218.12 53.4545 217.523 53.4545C216.756 53.4545 216.162 53.6866 215.74 54.1506C215.319 54.6098 215.108 55.1922 215.108 55.8977V63H213.404V55.5284C213.404 54.9081 213.203 54.4086 212.8 54.0298C212.398 53.6463 211.879 53.4545 211.245 53.4545C210.809 53.4545 210.402 53.5705 210.023 53.8026C209.649 54.0346 209.346 54.3565 209.114 54.7685C208.887 55.1757 208.773 55.6468 208.773 56.1818V63H207.097ZM232.207 54.5341L230.701 54.9602C230.607 54.7093 230.467 54.4654 230.282 54.2287C230.102 53.9872 229.856 53.7884 229.544 53.6321C229.231 53.4759 228.831 53.3977 228.343 53.3977C227.676 53.3977 227.119 53.5516 226.674 53.8594C226.234 54.1624 226.014 54.5483 226.014 55.017C226.014 55.4337 226.165 55.7628 226.468 56.0043C226.771 56.2457 227.245 56.447 227.889 56.608L229.508 57.0057C230.484 57.2424 231.21 57.6046 231.689 58.0923C232.167 58.5753 232.406 59.1979 232.406 59.9602C232.406 60.5852 232.226 61.1439 231.866 61.6364C231.511 62.1288 231.014 62.517 230.375 62.8011C229.735 63.0852 228.992 63.2273 228.145 63.2273C227.032 63.2273 226.111 62.9858 225.382 62.5028C224.653 62.0199 224.191 61.3144 223.997 60.3864L225.588 59.9886C225.739 60.5758 226.026 61.0161 226.447 61.3097C226.873 61.6032 227.43 61.75 228.116 61.75C228.897 61.75 229.518 61.5843 229.977 61.2528C230.441 60.9167 230.673 60.5142 230.673 60.0455C230.673 59.6667 230.54 59.3494 230.275 59.0938C230.01 58.8333 229.603 58.6392 229.054 58.5114L227.235 58.0852C226.236 57.8485 225.502 57.4815 225.034 56.9844C224.57 56.4825 224.338 55.8551 224.338 55.1023C224.338 54.4867 224.511 53.9422 224.856 53.4688C225.207 52.9953 225.682 52.6236 226.284 52.3537C226.89 52.0838 227.576 51.9489 228.343 51.9489C229.423 51.9489 230.27 52.1856 230.886 52.6591C231.506 53.1326 231.947 53.7576 232.207 54.5341ZM236.151 63.1136C235.8 63.1136 235.5 62.9882 235.249 62.7372C234.998 62.4863 234.872 62.1856 234.872 61.8352C234.872 61.4848 234.998 61.1842 235.249 60.9332C235.5 60.6823 235.8 60.5568 236.151 60.5568C236.501 60.5568 236.802 60.6823 237.053 60.9332C237.304 61.1842 237.429 61.4848 237.429 61.8352C237.429 62.0672 237.37 62.2803 237.251 62.4744C237.138 62.6686 236.984 62.8248 236.79 62.9432C236.6 63.0568 236.387 63.1136 236.151 63.1136Z" fill="#DADADA"/>
</svg>
