<svg width="190" height="24" viewBox="0 0 190 24" fill="none" xmlns="http://www.w3.org/2000/svg">
<path d="M17.9297 1.02264V22.8408H14.4141L4.13353 7.97931H3.95243V22.8408H1.10567e-05V1.02264H3.53694L13.8068 15.8948H13.9986V1.02264H17.9297ZM25.0382 22.8408H20.8194L28.5005 1.02264H33.3798L41.0716 22.8408H36.8528L31.0254 5.49707H30.8549L25.0382 22.8408ZM25.1767 14.2861H36.6824V17.4608H25.1767V14.2861ZM43.9453 22.8408V1.02264H58.1357V4.33585H47.8977V10.2591H57.4006V13.5724H47.8977V19.5276H58.2209V22.8408H43.9453ZM69.6094 22.8408V1.02264H77.7912C79.4673 1.02264 80.8736 1.33514 82.01 1.96014C83.1534 2.58514 84.0163 3.44451 84.5987 4.53826C85.1882 5.62491 85.483 6.86071 85.483 8.24565C85.483 9.6448 85.1882 10.8877 84.5987 11.9743C84.0092 13.061 83.1392 13.9168 81.9886 14.5418C80.8381 15.1597 79.4212 15.4687 77.7379 15.4687H72.3154V12.2194H77.2053C78.1854 12.2194 78.9879 12.0489 79.6129 11.708C80.2379 11.3671 80.6996 10.8983 80.9979 10.3018C81.3033 9.70517 81.456 9.0198 81.456 8.24565C81.456 7.4715 81.3033 6.78968 80.9979 6.2002C80.6996 5.61071 80.2344 5.15261 79.6023 4.8259C78.9773 4.4921 78.1712 4.3252 77.184 4.3252H73.5618V22.8408H69.6094ZM92.6021 1.02264V22.8408H88.7456V1.02264H92.6021ZM101.277 23.1711C100.24 23.1711 99.3058 22.9864 98.4748 22.6171C97.6509 22.2407 96.9975 21.6867 96.5146 20.9552C96.0387 20.2236 95.8008 19.3216 95.8008 18.2492C95.8008 17.3259 95.9712 16.5624 96.3122 15.9587C96.6531 15.355 97.1183 14.8721 97.7078 14.5099C98.2972 14.1476 98.9613 13.8742 99.6999 13.6895C100.446 13.4978 101.216 13.3593 102.012 13.2741C102.971 13.1746 103.748 13.0858 104.345 13.0077C104.941 12.9225 105.375 12.7947 105.645 12.6242C105.922 12.4466 106.06 12.1732 106.06 11.8039V11.74C106.06 10.9374 105.822 10.316 105.346 9.87562C104.87 9.43528 104.185 9.21511 103.29 9.21511C102.346 9.21511 101.596 9.42108 101.042 9.83301C100.495 10.2449 100.126 10.7314 99.9343 11.2925L96.3335 10.7812C96.6176 9.78684 97.0863 8.95588 97.7397 8.28826C98.3931 7.61355 99.1921 7.10929 100.137 6.77548C101.081 6.43457 102.125 6.26412 103.269 6.26412C104.057 6.26412 104.842 6.35645 105.623 6.5411C106.404 6.72576 107.118 7.03116 107.765 7.4573C108.411 7.87633 108.929 8.44806 109.32 9.1725C109.718 9.89693 109.917 10.8025 109.917 11.8891V22.8408H106.209V20.593H106.081C105.847 21.0475 105.517 21.4736 105.091 21.8714C104.672 22.262 104.142 22.578 103.503 22.8195C102.871 23.0539 102.129 23.1711 101.277 23.1711ZM102.278 20.3373C103.052 20.3373 103.723 20.1846 104.292 19.8792C104.86 19.5667 105.297 19.1547 105.602 18.6434C105.914 18.132 106.071 17.5745 106.071 16.9708V15.0425C105.95 15.142 105.744 15.2343 105.453 15.3195C105.169 15.4047 104.849 15.4793 104.494 15.5432C104.139 15.6072 103.787 15.664 103.439 15.7137C103.091 15.7634 102.789 15.806 102.534 15.8415C101.958 15.9197 101.444 16.0475 100.989 16.2251C100.534 16.4026 100.176 16.6512 99.913 16.9708C99.6502 17.2833 99.5188 17.6881 99.5188 18.1853C99.5188 18.8955 99.7781 19.4317 100.297 19.7939C100.815 20.1562 101.476 20.3373 102.278 20.3373ZM121.966 6.47718V9.46014H112.559V6.47718H121.966ZM114.881 2.55673H118.738V17.9189C118.738 18.4374 118.816 18.8351 118.972 19.1121C119.135 19.382 119.348 19.5667 119.611 19.6661C119.874 19.7655 120.165 19.8153 120.485 19.8153C120.726 19.8153 120.946 19.7975 121.145 19.762C121.351 19.7265 121.507 19.6945 121.614 19.6661L122.264 22.681C122.058 22.752 121.763 22.8302 121.38 22.9154C121.003 23.0006 120.542 23.0503 119.995 23.0645C119.029 23.093 118.159 22.9474 117.385 22.6278C116.61 22.301 115.996 21.7968 115.542 21.115C115.094 20.4331 114.874 19.5809 114.881 18.5581V2.55673ZM133.479 6.47718V9.46014H123.806V6.47718H133.479ZM126.224 22.8408V4.93244C126.224 3.83159 126.452 2.91539 126.906 2.18386C127.368 1.45233 127.986 0.90545 128.76 0.543234C129.534 0.181018 130.393 -9.02414e-05 131.338 -9.02414e-05C132.006 -9.02414e-05 132.599 0.0531772 133.117 0.159712C133.635 0.266246 134.019 0.362127 134.268 0.447354L133.501 3.43031C133.337 3.38059 133.131 3.33088 132.883 3.28116C132.634 3.22434 132.357 3.19593 132.052 3.19593C131.334 3.19593 130.827 3.36994 130.528 3.71795C130.237 4.05886 130.091 4.54892 130.091 5.18812V22.8408H126.224ZM143.022 23.1604C141.424 23.1604 140.039 22.8089 138.867 22.1057C137.695 21.4026 136.786 20.4189 136.14 19.1547C135.501 17.8905 135.181 16.4133 135.181 14.7229C135.181 13.0326 135.501 11.5518 136.14 10.2805C136.786 9.00914 137.695 8.02193 138.867 7.3188C140.039 6.61568 141.424 6.26412 143.022 6.26412C144.62 6.26412 146.005 6.61568 147.177 7.3188C148.349 8.02193 149.254 9.00914 149.893 10.2805C150.54 11.5518 150.863 13.0326 150.863 14.7229C150.863 16.4133 150.54 17.8905 149.893 19.1547C149.254 20.4189 148.349 21.4026 147.177 22.1057C146.005 22.8089 144.62 23.1604 143.022 23.1604ZM143.043 20.0709C143.91 20.0709 144.634 19.833 145.217 19.3572C145.799 18.8742 146.232 18.2279 146.516 17.4182C146.808 16.6086 146.953 15.7066 146.953 14.7123C146.953 13.7108 146.808 12.8053 146.516 11.9956C146.232 11.1789 145.799 10.529 145.217 10.0461C144.634 9.56312 143.91 9.32164 143.043 9.32164C142.156 9.32164 141.417 9.56312 140.827 10.0461C140.245 10.529 139.808 11.1789 139.517 11.9956C139.233 12.8053 139.091 13.7108 139.091 14.7123C139.091 15.7066 139.233 16.6086 139.517 17.4182C139.808 18.2279 140.245 18.8742 140.827 19.3572C141.417 19.833 142.156 20.0709 143.043 20.0709ZM154.136 22.8408V6.47718H157.876V9.20446H158.046C158.344 8.25985 158.856 7.53187 159.58 7.02051C160.312 6.50204 161.146 6.24281 162.084 6.24281C162.297 6.24281 162.535 6.25346 162.797 6.27477C163.067 6.28897 163.291 6.31383 163.469 6.34934V9.89693C163.305 9.84011 163.046 9.79039 162.691 9.74778C162.343 9.69806 162.006 9.67321 161.679 9.67321C160.976 9.67321 160.344 9.82591 159.783 10.1313C159.229 10.4296 158.792 10.8451 158.472 11.3778C158.153 11.9104 157.993 12.5248 157.993 13.2208V22.8408H154.136ZM166.031 22.8408V6.47718H169.717V9.25772H169.909C170.249 8.32022 170.814 7.58869 171.602 7.06312C172.391 6.53045 173.332 6.26412 174.426 6.26412C175.534 6.26412 176.468 6.534 177.227 7.07377C177.995 7.60644 178.534 8.33443 178.847 9.25772H179.017C179.379 8.34863 179.99 7.6242 180.85 7.08443C181.716 6.53755 182.742 6.26412 183.928 6.26412C185.434 6.26412 186.663 6.73997 187.615 7.69167C188.566 8.64338 189.042 10.0319 189.042 11.8572V22.8408H185.175V12.4537C185.175 11.4381 184.905 10.6959 184.365 10.2272C183.825 9.75133 183.165 9.5134 182.384 9.5134C181.453 9.5134 180.725 9.8046 180.2 10.387C179.681 10.9623 179.422 11.7116 179.422 12.6349V22.8408H175.64V12.2939C175.64 11.4488 175.384 10.7741 174.873 10.2698C174.369 9.76554 173.708 9.5134 172.892 9.5134C172.338 9.5134 171.833 9.65545 171.379 9.93954C170.924 10.2165 170.562 10.6107 170.292 11.1221C170.022 11.6263 169.887 12.2158 169.887 12.8905V22.8408H166.031Z" fill="white"/>
</svg>
