<svg width="460" height="39" viewBox="0 0 460 39" fill="none" xmlns="http://www.w3.org/2000/svg">
<path d="M-6.6638e-05 30.4971V1.40616H10.909C13.1439 1.40616 15.0189 1.82283 16.534 2.65616C18.0586 3.48949 19.2092 4.63533 19.9857 6.09366C20.7717 7.54252 21.1647 9.19025 21.1647 11.0368C21.1647 12.9024 20.7717 14.5596 19.9857 16.0084C19.1997 17.4573 18.0397 18.5984 16.5056 19.4317C14.9715 20.2556 13.0823 20.6675 10.838 20.6675H3.60789V16.3351H10.1278C11.4346 16.3351 12.5047 16.1079 13.338 15.6533C14.1713 15.1988 14.7869 14.5738 15.1846 13.7783C15.5918 12.9829 15.7954 12.069 15.7954 11.0368C15.7954 10.0046 15.5918 9.09556 15.1846 8.30957C14.7869 7.52359 14.1666 6.91279 13.3238 6.47718C12.4905 6.03211 11.4157 5.80957 10.0994 5.80957H5.26982V30.4971H-6.6638e-05ZM34.8614 30.9232C32.6739 30.9232 30.7847 30.4687 29.1938 29.5596C27.6124 28.641 26.3955 27.3437 25.5433 25.6675C24.691 23.9819 24.2648 21.998 24.2648 19.7158C24.2648 17.4715 24.691 15.5018 25.5433 13.8067C26.405 12.1022 27.6077 10.7764 29.1512 9.82946C30.6948 8.87302 32.5082 8.3948 34.5916 8.3948C35.9363 8.3948 37.2052 8.6126 38.3984 9.04821C39.601 9.47434 40.6616 10.1372 41.5802 11.0368C42.5082 11.9365 43.2374 13.0823 43.7677 14.4743C44.298 15.8569 44.5631 17.5046 44.5631 19.4175V20.9942H26.6796V17.5283H39.6342C39.6247 16.5435 39.4116 15.6675 38.995 14.9005C38.5783 14.124 37.9959 13.5132 37.2478 13.0681C36.5092 12.623 35.6474 12.4005 34.6626 12.4005C33.6114 12.4005 32.6881 12.6562 31.8927 13.1675C31.0972 13.6694 30.477 14.3323 30.0319 15.1562C29.5963 15.9706 29.3737 16.8654 29.3643 17.8408V20.8664C29.3643 22.1353 29.5963 23.2243 30.0603 24.1334C30.5243 25.0331 31.173 25.7243 32.0063 26.2073C32.8397 26.6808 33.815 26.9175 34.9325 26.9175C35.6806 26.9175 36.3577 26.8134 36.9637 26.605C37.5698 26.3872 38.0953 26.07 38.5404 25.6533C38.9855 25.2367 39.3217 24.7206 39.5489 24.105L44.3501 24.6448C44.047 25.9137 43.4694 27.0217 42.6171 27.9687C41.7743 28.9062 40.6948 29.6353 39.3785 30.1562C38.0622 30.6675 36.5565 30.9232 34.8614 30.9232ZM48.9133 30.4971V8.67889H53.8991V12.3153H54.1264C54.5241 11.0558 55.2059 10.0851 56.1718 9.40332C57.1472 8.71203 58.2599 8.36639 59.5099 8.36639C59.794 8.36639 60.1112 8.38059 60.4616 8.409C60.8214 8.42794 61.1197 8.46108 61.3565 8.50843V13.2385C61.1387 13.1628 60.793 13.0965 60.3195 13.0397C59.8555 12.9734 59.4057 12.9403 58.9701 12.9403C58.0326 12.9403 57.1898 13.1438 56.4417 13.551C55.7031 13.9488 55.1207 14.5028 54.6945 15.213C54.2684 15.9232 54.0553 16.7423 54.0553 17.6704V30.4971H48.9133ZM64.7727 30.4971V8.67889H69.9147V30.4971H64.7727ZM67.3579 5.5823C66.5435 5.5823 65.8427 5.31241 65.2556 4.77264C64.6685 4.22339 64.3749 3.56525 64.3749 2.79821C64.3749 2.02169 64.6685 1.36355 65.2556 0.823773C65.8427 0.274531 66.5435 -8.96454e-05 67.3579 -8.96454e-05C68.1818 -8.96454e-05 68.8825 0.274531 69.4602 0.823773C70.0473 1.36355 70.3408 2.02169 70.3408 2.79821C70.3408 3.56525 70.0473 4.22339 69.4602 4.77264C68.8825 5.31241 68.1818 5.5823 67.3579 5.5823ZM75.2023 38.6789V8.67889H80.2592V12.2868H80.5575C80.8226 11.7565 81.1967 11.1931 81.6796 10.5965C82.1626 9.99044 82.816 9.47434 83.6398 9.04821C84.4637 8.6126 85.5148 8.3948 86.7933 8.3948C88.4789 8.3948 89.9987 8.82567 91.3529 9.68741C92.7166 10.5397 93.7961 11.8039 94.5916 13.48C95.3965 15.1467 95.7989 17.1921 95.7989 19.6164C95.7989 22.0122 95.4059 24.0482 94.62 25.7243C93.834 27.4005 92.7639 28.6789 91.4097 29.5596C90.0556 30.4403 88.5215 30.8806 86.8075 30.8806C85.5575 30.8806 84.5205 30.6723 83.6967 30.2556C82.8728 29.8389 82.2099 29.337 81.708 28.7499C81.2156 28.1533 80.8321 27.5899 80.5575 27.0596H80.3444V38.6789H75.2023ZM80.245 19.588C80.245 20.999 80.4438 22.2348 80.8416 23.2954C81.2487 24.356 81.8311 25.1846 82.5887 25.7812C83.3558 26.3683 84.2838 26.6618 85.3728 26.6618C86.5092 26.6618 87.4609 26.3588 88.2279 25.7528C88.995 25.1372 89.5726 24.2992 89.9609 23.2385C90.3586 22.1685 90.5575 20.9516 90.5575 19.588C90.5575 18.2338 90.3633 17.0312 89.9751 15.98C89.5868 14.9289 89.0092 14.105 88.2421 13.5084C87.4751 12.9118 86.5186 12.6135 85.3728 12.6135C84.2743 12.6135 83.3416 12.9024 82.5745 13.48C81.8075 14.0577 81.2251 14.8673 80.8273 15.909C80.4391 16.9507 80.245 18.177 80.245 19.588ZM105.344 17.713V30.4971H100.202V1.40616H105.231V12.3863H105.486C105.998 11.1552 106.789 10.1846 107.859 9.47434C108.938 8.75465 110.311 8.3948 111.978 8.3948C113.493 8.3948 114.814 8.71203 115.941 9.3465C117.068 9.98097 117.939 10.909 118.555 12.1306C119.18 13.3522 119.492 14.8437 119.492 16.605V30.4971H114.35V17.4005C114.35 15.9327 113.971 14.7916 113.214 13.9772C112.466 13.1533 111.414 12.7414 110.06 12.7414C109.151 12.7414 108.337 12.9403 107.617 13.338C106.907 13.7262 106.348 14.2897 105.941 15.0283C105.543 15.767 105.344 16.6618 105.344 17.713ZM134.393 30.9232C132.205 30.9232 130.316 30.4687 128.725 29.5596C127.144 28.641 125.927 27.3437 125.075 25.6675C124.222 23.9819 123.796 21.998 123.796 19.7158C123.796 17.4715 124.222 15.5018 125.075 13.8067C125.936 12.1022 127.139 10.7764 128.682 9.82946C130.226 8.87302 132.039 8.3948 134.123 8.3948C135.468 8.3948 136.736 8.6126 137.93 9.04821C139.132 9.47434 140.193 10.1372 141.111 11.0368C142.039 11.9365 142.769 13.0823 143.299 14.4743C143.829 15.8569 144.094 17.5046 144.094 19.4175V20.9942H126.211V17.5283H139.165C139.156 16.5435 138.943 15.6675 138.526 14.9005C138.11 14.124 137.527 13.5132 136.779 13.0681C136.04 12.623 135.179 12.4005 134.194 12.4005C133.143 12.4005 132.219 12.6562 131.424 13.1675C130.628 13.6694 130.008 14.3323 129.563 15.1562C129.128 15.9706 128.905 16.8654 128.896 17.8408V20.8664C128.896 22.1353 129.128 23.2243 129.592 24.1334C130.056 25.0331 130.704 25.7243 131.538 26.2073C132.371 26.6808 133.346 26.9175 134.464 26.9175C135.212 26.9175 135.889 26.8134 136.495 26.605C137.101 26.3872 137.627 26.07 138.072 25.6533C138.517 25.2367 138.853 24.7206 139.08 24.105L143.881 24.6448C143.578 25.9137 143.001 27.0217 142.148 27.9687C141.306 28.9062 140.226 29.6353 138.91 30.1562C137.593 30.6675 136.088 30.9232 134.393 30.9232ZM148.445 30.4971V8.67889H153.43V12.3153H153.658C154.055 11.0558 154.737 10.0851 155.703 9.40332C156.678 8.71203 157.791 8.36639 159.041 8.36639C159.325 8.36639 159.642 8.38059 159.993 8.409C160.353 8.42794 160.651 8.46108 160.888 8.50843V13.2385C160.67 13.1628 160.324 13.0965 159.851 13.0397C159.387 12.9734 158.937 12.9403 158.501 12.9403C157.564 12.9403 156.721 13.1438 155.973 13.551C155.234 13.9488 154.652 14.5028 154.226 15.213C153.8 15.9232 153.587 16.7423 153.587 17.6704V30.4971H148.445ZM170.192 30.9374C168.809 30.9374 167.564 30.6912 166.456 30.1988C165.357 29.6969 164.486 28.9582 163.842 27.9829C163.208 27.0075 162.891 25.8048 162.891 24.3749C162.891 23.1439 163.118 22.1259 163.572 21.3209C164.027 20.516 164.647 19.8721 165.433 19.3891C166.219 18.9062 167.105 18.5416 168.089 18.2954C169.084 18.0397 170.111 17.855 171.172 17.7414C172.45 17.6088 173.487 17.4904 174.283 17.3863C175.078 17.2726 175.656 17.1022 176.016 16.8749C176.385 16.6382 176.57 16.2736 176.57 15.7812V15.6959C176.57 14.6259 176.252 13.7973 175.618 13.2101C174.983 12.623 174.07 12.3295 172.876 12.3295C171.617 12.3295 170.618 12.6041 169.879 13.1533C169.15 13.7026 168.658 14.3512 168.402 15.0993L163.601 14.4175C163.98 13.0918 164.605 11.9838 165.476 11.0937C166.347 10.194 167.412 9.52169 168.672 9.07662C169.931 8.62207 171.323 8.3948 172.848 8.3948C173.899 8.3948 174.945 8.5179 175.987 8.76412C177.029 9.01033 177.981 9.41752 178.842 9.98571C179.704 10.5444 180.395 11.3067 180.916 12.2726C181.446 13.2385 181.712 14.4459 181.712 15.8948V30.4971H176.768V27.4999H176.598C176.285 28.106 175.845 28.6742 175.277 29.2045C174.718 29.7253 174.013 30.1467 173.16 30.4687C172.318 30.7812 171.328 30.9374 170.192 30.9374ZM171.527 27.159C172.559 27.159 173.454 26.9554 174.212 26.5482C174.969 26.1315 175.552 25.5823 175.959 24.9005C176.375 24.2187 176.584 23.4753 176.584 22.6704V20.0993C176.423 20.2319 176.148 20.355 175.76 20.4687C175.381 20.5823 174.955 20.6817 174.481 20.767C174.008 20.8522 173.539 20.9279 173.075 20.9942C172.611 21.0605 172.209 21.1173 171.868 21.1647C171.101 21.2689 170.414 21.4393 169.808 21.676C169.202 21.9128 168.724 22.2442 168.374 22.6704C168.023 23.087 167.848 23.6268 167.848 24.2897C167.848 25.2367 168.194 25.9516 168.885 26.4346C169.576 26.9175 170.457 27.159 171.527 27.159ZM192.024 1.40616V30.4971H186.882V1.40616H192.024ZM231.367 1.40616V30.4971H226.68L212.972 10.6817H212.731V30.4971H207.461V1.40616H212.177L225.87 21.2357H226.126V1.40616H231.367ZM240.845 30.4971H235.22L245.462 1.40616H251.967L262.223 30.4971H256.598L248.828 7.37207H248.601L240.845 30.4971ZM241.03 19.0908H256.371V23.3238H241.03V19.0908ZM266.055 30.4971V1.40616H284.975V5.82378H271.325V13.7215H283.995V18.1391H271.325V26.0795H285.089V30.4971H266.055ZM300.273 30.4971V1.40616H311.182C313.417 1.40616 315.292 1.82283 316.807 2.65616C318.332 3.48949 319.483 4.63533 320.259 6.09366C321.045 7.54252 321.438 9.19025 321.438 11.0368C321.438 12.9024 321.045 14.5596 320.259 16.0084C319.473 17.4573 318.313 18.5984 316.779 19.4317C315.245 20.2556 313.356 20.6675 311.111 20.6675H303.881V16.3351H310.401C311.708 16.3351 312.778 16.1079 313.611 15.6533C314.445 15.1988 315.06 14.5738 315.458 13.7783C315.865 12.9829 316.069 12.069 316.069 11.0368C316.069 10.0046 315.865 9.09556 315.458 8.30957C315.06 7.52359 314.44 6.91279 313.597 6.47718C312.764 6.03211 311.689 5.80957 310.373 5.80957H305.543V30.4971H300.273ZM330.93 1.40616V30.4971H325.788V1.40616H330.93ZM342.496 30.9374C341.114 30.9374 339.869 30.6912 338.761 30.1988C337.662 29.6969 336.791 28.9582 336.147 27.9829C335.512 27.0075 335.195 25.8048 335.195 24.3749C335.195 23.1439 335.423 22.1259 335.877 21.3209C336.332 20.516 336.952 19.8721 337.738 19.3891C338.524 18.9062 339.409 18.5416 340.394 18.2954C341.388 18.0397 342.416 17.855 343.476 17.7414C344.755 17.6088 345.792 17.4904 346.587 17.3863C347.383 17.2726 347.96 17.1022 348.32 16.8749C348.69 16.6382 348.874 16.2736 348.874 15.7812V15.6959C348.874 14.6259 348.557 13.7973 347.923 13.2101C347.288 12.623 346.374 12.3295 345.181 12.3295C343.922 12.3295 342.923 12.6041 342.184 13.1533C341.455 13.7026 340.962 14.3512 340.707 15.0993L335.905 14.4175C336.284 13.0918 336.909 11.9838 337.78 11.0937C338.652 10.194 339.717 9.52169 340.976 9.07662C342.236 8.62207 343.628 8.3948 345.153 8.3948C346.204 8.3948 347.25 8.5179 348.292 8.76412C349.334 9.01033 350.285 9.41752 351.147 9.98571C352.009 10.5444 352.7 11.3067 353.221 12.2726C353.751 13.2385 354.016 14.4459 354.016 15.8948V30.4971H349.073V27.4999H348.903C348.59 28.106 348.15 28.6742 347.582 29.2045C347.023 29.7253 346.317 30.1467 345.465 30.4687C344.622 30.7812 343.633 30.9374 342.496 30.9374ZM343.832 27.159C344.864 27.159 345.759 26.9554 346.516 26.5482C347.274 26.1315 347.856 25.5823 348.263 24.9005C348.68 24.2187 348.888 23.4753 348.888 22.6704V20.0993C348.727 20.2319 348.453 20.355 348.065 20.4687C347.686 20.5823 347.26 20.6817 346.786 20.767C346.313 20.8522 345.844 20.9279 345.38 20.9942C344.916 21.0605 344.513 21.1173 344.173 21.1647C343.405 21.2689 342.719 21.4393 342.113 21.676C341.507 21.9128 341.029 22.2442 340.678 22.6704C340.328 23.087 340.153 23.6268 340.153 24.2897C340.153 25.2367 340.498 25.9516 341.19 26.4346C341.881 26.9175 342.762 27.159 343.832 27.159ZM370.082 8.67889V12.6562H357.539V8.67889H370.082ZM360.636 3.45162H365.778V23.9346C365.778 24.6259 365.882 25.1562 366.09 25.5255C366.308 25.8853 366.592 26.1315 366.942 26.2641C367.293 26.3967 367.681 26.463 368.107 26.463C368.429 26.463 368.723 26.4393 368.988 26.392C369.262 26.3446 369.471 26.302 369.613 26.2641L370.479 30.284C370.205 30.3787 369.812 30.4829 369.3 30.5965C368.798 30.7101 368.183 30.7764 367.454 30.7954C366.166 30.8332 365.006 30.6391 363.974 30.213C362.941 29.7774 362.122 29.105 361.516 28.1959C360.92 27.2868 360.626 26.1505 360.636 24.7868V3.45162ZM385.433 8.67889V12.6562H372.535V8.67889H385.433ZM375.76 30.4971V6.61923C375.76 5.15142 376.063 3.92983 376.669 2.95446C377.284 1.97908 378.108 1.24991 379.141 0.766955C380.173 0.284 381.319 0.0425229 382.578 0.0425229C383.468 0.0425229 384.259 0.113546 384.95 0.255593C385.642 0.397638 386.153 0.525479 386.484 0.639115L385.462 4.61639C385.244 4.5501 384.969 4.48381 384.638 4.41752C384.306 4.34177 383.937 4.30389 383.53 4.30389C382.573 4.30389 381.896 4.5359 381.499 4.99991C381.11 5.45446 380.916 6.10786 380.916 6.96014V30.4971H375.76ZM398.157 30.9232C396.026 30.9232 394.18 30.4545 392.617 29.517C391.055 28.5795 389.842 27.2679 388.981 25.5823C388.128 23.8967 387.702 21.927 387.702 19.6732C387.702 17.4194 388.128 15.445 388.981 13.7499C389.842 12.0548 391.055 10.7385 392.617 9.80105C394.18 8.86355 396.026 8.3948 398.157 8.3948C400.288 8.3948 402.134 8.86355 403.697 9.80105C405.259 10.7385 406.467 12.0548 407.319 13.7499C408.181 15.445 408.611 17.4194 408.611 19.6732C408.611 21.927 408.181 23.8967 407.319 25.5823C406.467 27.2679 405.259 28.5795 403.697 29.517C402.134 30.4545 400.288 30.9232 398.157 30.9232ZM398.185 26.8039C399.341 26.8039 400.307 26.4867 401.083 25.8522C401.86 25.2082 402.437 24.3465 402.816 23.267C403.204 22.1874 403.398 20.9848 403.398 19.659C403.398 18.3238 403.204 17.1164 402.816 16.0368C402.437 14.9478 401.86 14.0814 401.083 13.4374C400.307 12.7935 399.341 12.4715 398.185 12.4715C397.002 12.4715 396.017 12.7935 395.231 13.4374C394.454 14.0814 393.872 14.9478 393.484 16.0368C393.105 17.1164 392.915 18.3238 392.915 19.659C392.915 20.9848 393.105 22.1874 393.484 23.267C393.872 24.3465 394.454 25.2082 395.231 25.8522C396.017 26.4867 397.002 26.8039 398.185 26.8039ZM412.976 30.4971V8.67889H417.962V12.3153H418.189C418.587 11.0558 419.268 10.0851 420.234 9.40332C421.21 8.71203 422.322 8.36639 423.572 8.36639C423.856 8.36639 424.174 8.38059 424.524 8.409C424.884 8.42794 425.182 8.46108 425.419 8.50843V13.2385C425.201 13.1628 424.856 13.0965 424.382 13.0397C423.918 12.9734 423.468 12.9403 423.033 12.9403C422.095 12.9403 421.252 13.1438 420.504 13.551C419.766 13.9488 419.183 14.5028 418.757 15.213C418.331 15.9232 418.118 16.7423 418.118 17.6704V30.4971H412.976ZM428.835 30.4971V8.67889H433.75V12.3863H434.006C434.46 11.1363 435.213 10.1609 436.264 9.46014C437.315 8.74991 438.57 8.3948 440.028 8.3948C441.506 8.3948 442.751 8.75465 443.764 9.47434C444.787 10.1846 445.507 11.1552 445.923 12.3863H446.151C446.633 11.1742 447.448 10.2082 448.594 9.48855C449.749 8.75938 451.117 8.3948 452.699 8.3948C454.706 8.3948 456.345 9.02927 457.614 10.2982C458.883 11.5671 459.517 13.4185 459.517 15.8522V30.4971H454.361V16.6476C454.361 15.2935 454.001 14.3039 453.281 13.6789C452.561 13.0444 451.681 12.7272 450.639 12.7272C449.399 12.7272 448.428 13.1154 447.727 13.892C447.036 14.659 446.69 15.6581 446.69 16.8891V30.4971H441.648V16.4346C441.648 15.3077 441.307 14.4081 440.625 13.7357C439.953 13.0634 439.072 12.7272 437.983 12.7272C437.244 12.7272 436.572 12.9166 435.966 13.2954C435.36 13.6647 434.877 14.1903 434.517 14.8721C434.157 15.5444 433.977 16.3304 433.977 17.23V30.4971H428.835Z" fill="white"/>
</svg>
