<svg width="306" height="44" viewBox="0 0 306 44" fill="none" xmlns="http://www.w3.org/2000/svg">
<path d="M-0.000110865 15.2273V0.68184H4.91466C6.05576 0.68184 6.98853 0.887806 7.71296 1.29974C8.44212 1.70693 8.9819 2.25854 9.33228 2.95457C9.68265 3.65059 9.85784 4.42711 9.85784 5.28411C9.85784 6.14112 9.68265 6.92 9.33228 7.62076C8.98663 8.32152 8.45159 8.88023 7.72716 9.2969C7.00273 9.70883 6.0747 9.91479 4.94307 9.91479H1.42034V8.35229H4.88625C5.6675 8.35229 6.29487 8.21735 6.76836 7.94746C7.24184 7.67758 7.58512 7.313 7.79818 6.85371C8.01599 6.3897 8.12489 5.8665 8.12489 5.28411C8.12489 4.70173 8.01599 4.18089 7.79818 3.72161C7.58512 3.26233 7.23947 2.90248 6.76125 2.64207C6.28303 2.37692 5.64856 2.24434 4.85784 2.24434H1.76125V15.2273H-0.000110865ZM16.9246 15.4546C15.8735 15.4546 14.9667 15.2226 14.2044 14.7585C13.4469 14.2898 12.8621 13.6364 12.4502 12.7983C12.043 11.9555 11.8394 10.9754 11.8394 9.85798C11.8394 8.74055 12.043 7.7557 12.4502 6.90343C12.8621 6.04642 13.435 5.37881 14.1689 4.90059C14.9076 4.41764 15.7693 4.17616 16.7542 4.17616C17.3223 4.17616 17.8834 4.27086 18.4374 4.46025C18.9914 4.64964 19.4956 4.95741 19.9502 5.38354C20.4047 5.80495 20.7669 6.36366 21.0368 7.05968C21.3067 7.7557 21.4417 8.61271 21.4417 9.6307V10.3409H13.0326V8.89207H19.7371C19.7371 8.27654 19.614 7.72729 19.3678 7.24434C19.1263 6.76139 18.7807 6.38023 18.3309 6.10087C17.8858 5.82152 17.3602 5.68184 16.7542 5.68184C16.0865 5.68184 15.5089 5.84756 15.0212 6.179C14.5382 6.5057 14.1666 6.93184 13.9061 7.45741C13.6457 7.98298 13.5155 8.54642 13.5155 9.14775V10.1137C13.5155 10.9375 13.6576 11.6359 13.9417 12.2088C14.2305 12.777 14.6306 13.2102 15.1419 13.5085C15.6533 13.8021 16.2475 13.9489 16.9246 13.9489C17.3649 13.9489 17.7627 13.8873 18.1178 13.7642C18.4776 13.6364 18.7878 13.447 19.0482 13.196C19.3086 12.9404 19.5098 12.6231 19.6519 12.2443L21.2712 12.6989C21.1007 13.2481 20.8143 13.7311 20.4118 14.1477C20.0094 14.5597 19.5122 14.8817 18.9203 15.1137C18.3285 15.3409 17.6632 15.4546 16.9246 15.4546ZM23.9914 15.2273V4.3182H25.6107V5.96593H25.7243C25.9232 5.42616 26.283 4.98818 26.8039 4.65201C27.3247 4.31584 27.9118 4.14775 28.5652 4.14775C28.6883 4.14775 28.8422 4.15012 29.0269 4.15485C29.2115 4.15959 29.3512 4.16669 29.4459 4.17616V5.8807C29.3891 5.8665 29.2589 5.84519 29.0553 5.81678C28.8564 5.78364 28.6457 5.76707 28.4232 5.76707C27.8929 5.76707 27.4194 5.87834 27.0027 6.10087C26.5908 6.31868 26.2641 6.62171 26.0226 7.00996C25.7859 7.39349 25.6675 7.83146 25.6675 8.32389V15.2273H23.9914ZM31.4328 15.2273V4.3182H33.1089V15.2273H31.4328ZM32.285 2.50002C31.9583 2.50002 31.6766 2.38875 31.4399 2.16621C31.2079 1.94368 31.0919 1.67616 31.0919 1.36366C31.0919 1.05116 31.2079 0.78364 31.4399 0.561101C31.6766 0.338564 31.9583 0.227295 32.285 0.227295C32.6117 0.227295 32.8911 0.338564 33.1231 0.561101C33.3599 0.78364 33.4782 1.05116 33.4782 1.36366C33.4782 1.67616 33.3599 1.94368 33.1231 2.16621C32.8911 2.38875 32.6117 2.50002 32.285 2.50002ZM36.1789 19.3182V4.3182H37.7982V6.05116H37.997C38.1202 5.86176 38.2906 5.62029 38.5084 5.32673C38.7309 5.02843 39.0482 4.76328 39.4601 4.53127C39.8768 4.29453 40.4402 4.17616 41.1505 4.17616C42.069 4.17616 42.8787 4.4058 43.5794 4.86508C44.2802 5.32436 44.8271 5.9754 45.2201 6.8182C45.6131 7.66101 45.8095 8.65532 45.8095 9.80116C45.8095 10.9565 45.6131 11.9579 45.2201 12.8054C44.8271 13.6482 44.2826 14.3016 43.5865 14.7656C42.8905 15.2249 42.088 15.4546 41.1789 15.4546C40.4781 15.4546 39.917 15.3386 39.4956 15.1066C39.0742 14.8698 38.7499 14.6023 38.5226 14.304C38.2953 14.001 38.1202 13.75 37.997 13.5512H37.855V19.3182H36.1789ZM37.8266 9.77275C37.8266 10.5966 37.9473 11.3234 38.1888 11.9531C38.4303 12.5781 38.783 13.0682 39.247 13.4233C39.7111 13.7737 40.2792 13.9489 40.9516 13.9489C41.6524 13.9489 42.2371 13.7642 42.7059 13.3949C43.1793 13.0209 43.5345 12.519 43.7712 11.8892C44.0127 11.2548 44.1334 10.5493 44.1334 9.77275C44.1334 9.0057 44.015 8.31442 43.7783 7.69889C43.5463 7.07862 43.1935 6.58856 42.7201 6.22871C42.2513 5.86413 41.6618 5.68184 40.9516 5.68184C40.2698 5.68184 39.6969 5.85466 39.2328 6.20031C38.7688 6.54122 38.4184 7.01943 38.1817 7.63496C37.945 8.24576 37.8266 8.95836 37.8266 9.77275ZM50.0425 8.66479V15.2273H48.3664V0.68184H50.0425V6.02275H50.1845C50.4402 5.4593 50.8238 5.01186 51.3351 4.68042C51.8512 4.34425 52.5378 4.17616 53.3948 4.17616C54.1381 4.17616 54.7892 4.32531 55.3479 4.6236C55.9066 4.91716 56.3399 5.36934 56.6476 5.98014C56.9601 6.5862 57.1164 7.35798 57.1164 8.29548V15.2273H55.4402V8.40911C55.4402 7.54264 55.2153 6.87265 54.7655 6.39917C54.3204 5.92095 53.7025 5.68184 52.9118 5.68184C52.3626 5.68184 51.8702 5.79784 51.4345 6.02985C51.0037 6.26186 50.6628 6.6004 50.4118 7.04548C50.1656 7.49055 50.0425 8.03032 50.0425 8.66479ZM64.7566 15.4546C63.7055 15.4546 62.7988 15.2226 62.0365 14.7585C61.2789 14.2898 60.6941 13.6364 60.2822 12.7983C59.875 11.9555 59.6714 10.9754 59.6714 9.85798C59.6714 8.74055 59.875 7.7557 60.2822 6.90343C60.6941 6.04642 61.2671 5.37881 62.001 4.90059C62.7396 4.41764 63.6013 4.17616 64.5862 4.17616C65.1544 4.17616 65.7154 4.27086 66.2694 4.46025C66.8234 4.64964 67.3277 4.95741 67.7822 5.38354C68.2368 5.80495 68.599 6.36366 68.8689 7.05968C69.1387 7.7557 69.2737 8.61271 69.2737 9.6307V10.3409H60.8646V8.89207H67.5691C67.5691 8.27654 67.446 7.72729 67.1998 7.24434C66.9583 6.76139 66.6127 6.38023 66.1629 6.10087C65.7178 5.82152 65.1922 5.68184 64.5862 5.68184C63.9186 5.68184 63.3409 5.84756 62.8532 6.179C62.3703 6.5057 61.9986 6.93184 61.7382 7.45741C61.4778 7.98298 61.3475 8.54642 61.3475 9.14775V10.1137C61.3475 10.9375 61.4896 11.6359 61.7737 12.2088C62.0625 12.777 62.4626 13.2102 62.974 13.5085C63.4853 13.8021 64.0796 13.9489 64.7566 13.9489C65.197 13.9489 65.5947 13.8873 65.9498 13.7642C66.3097 13.6364 66.6198 13.447 66.8802 13.196C67.1406 12.9404 67.3419 12.6231 67.4839 12.2443L69.1032 12.6989C68.9328 13.2481 68.6463 13.7311 68.2439 14.1477C67.8414 14.5597 67.3442 14.8817 66.7524 15.1137C66.1605 15.3409 65.4953 15.4546 64.7566 15.4546ZM71.8234 15.2273V4.3182H73.4427V5.96593H73.5564C73.7552 5.42616 74.1151 4.98818 74.6359 4.65201C75.1567 4.31584 75.7439 4.14775 76.3973 4.14775C76.5204 4.14775 76.6742 4.15012 76.8589 4.15485C77.0436 4.15959 77.1832 4.16669 77.2779 4.17616V5.8807C77.2211 5.8665 77.0909 5.84519 76.8873 5.81678C76.6885 5.78364 76.4778 5.76707 76.2552 5.76707C75.7249 5.76707 75.2514 5.87834 74.8348 6.10087C74.4228 6.31868 74.0961 6.62171 73.8546 7.00996C73.6179 7.39349 73.4995 7.83146 73.4995 8.32389V15.2273H71.8234ZM82.475 15.483C81.7837 15.483 81.1564 15.3528 80.5929 15.0924C80.0295 14.8272 79.582 14.446 79.2506 13.9489C78.9192 13.447 78.7534 12.8409 78.7534 12.1307C78.7534 11.5057 78.8765 10.9991 79.1228 10.6108C79.369 10.2178 79.698 9.91006 80.11 9.68752C80.5219 9.46498 80.9765 9.29926 81.4736 9.19036C81.9755 9.07673 82.4798 8.98676 82.9864 8.92048C83.6493 8.83525 84.1867 8.77133 84.5986 8.72871C85.0153 8.68137 85.3183 8.60324 85.5077 8.49434C85.7018 8.38544 85.7989 8.19604 85.7989 7.92616V7.86934C85.7989 7.16858 85.6071 6.62407 85.2236 6.23582C84.8448 5.84756 84.2695 5.65343 83.4978 5.65343C82.6976 5.65343 82.0702 5.82862 81.6157 6.179C81.1611 6.52938 80.8415 6.90343 80.6568 7.30116L79.0659 6.73298C79.35 6.0701 79.7288 5.554 80.2023 5.18468C80.6805 4.81063 81.2014 4.55021 81.7648 4.40343C82.333 4.25192 82.8917 4.17616 83.4409 4.17616C83.7913 4.17616 84.1938 4.21877 84.6483 4.304C85.1076 4.38449 85.5503 4.55258 85.9765 4.80826C86.4073 5.06394 86.7648 5.44983 87.0489 5.96593C87.333 6.48203 87.475 7.17332 87.475 8.03979V15.2273H85.7989V13.75H85.7137C85.6 13.9868 85.4106 14.2401 85.1455 14.51C84.8803 14.7799 84.5276 15.0095 84.0872 15.1989C83.6469 15.3883 83.1095 15.483 82.475 15.483ZM82.7307 13.9773C83.3936 13.9773 83.9523 13.8471 84.4068 13.5867C84.8661 13.3263 85.2118 12.9901 85.4438 12.5781C85.6805 12.1662 85.7989 11.733 85.7989 11.2784V9.74434C85.7279 9.82957 85.5716 9.90769 85.3301 9.97871C85.0934 10.045 84.8188 10.1042 84.5063 10.1563C84.1985 10.2036 83.8979 10.2462 83.6043 10.2841C83.3155 10.3173 83.0811 10.3457 82.9012 10.3693C82.4656 10.4262 82.0584 10.5185 81.6796 10.6463C81.3055 10.7694 81.0025 10.9565 80.7705 11.2074C80.5432 11.4536 80.4296 11.7898 80.4296 12.2159C80.4296 12.7983 80.645 13.2387 81.0759 13.537C81.5115 13.8305 82.0631 13.9773 82.7307 13.9773ZM92.2105 0.68184V15.2273H90.5343V0.68184H92.2105ZM101.53 8.21025V9.77275H95.1668V8.21025H101.53ZM109.338 4.3182V5.73866H103.457V4.3182H109.338ZM105.218 15.2273V2.81252C105.218 2.18752 105.365 1.66669 105.659 1.25002C105.952 0.833355 106.333 0.520855 106.802 0.312521C107.271 0.104188 107.766 2.12193e-05 108.286 2.12193e-05C108.698 2.12193e-05 109.035 0.0331654 109.295 0.0994537C109.555 0.165741 109.75 0.227294 109.877 0.284112L109.394 1.73298C109.309 1.70457 109.191 1.66906 109.039 1.62644C108.893 1.58383 108.698 1.56252 108.457 1.56252C107.903 1.56252 107.503 1.7022 107.257 1.98156C107.015 2.26091 106.894 2.67048 106.894 3.21025V15.2273H105.218ZM111.687 15.2273V4.3182H113.363V15.2273H111.687ZM112.539 2.50002C112.212 2.50002 111.931 2.38875 111.694 2.16621C111.462 1.94368 111.346 1.67616 111.346 1.36366C111.346 1.05116 111.462 0.78364 111.694 0.561101C111.931 0.338564 112.212 0.227295 112.539 0.227295C112.866 0.227295 113.145 0.338564 113.377 0.561101C113.614 0.78364 113.732 1.05116 113.732 1.36366C113.732 1.67616 113.614 1.94368 113.377 2.16621C113.145 2.38875 112.866 2.50002 112.539 2.50002ZM116.433 15.2273V4.3182H118.052V5.96593H118.166C118.365 5.42616 118.724 4.98818 119.245 4.65201C119.766 4.31584 120.353 4.14775 121.007 4.14775C121.13 4.14775 121.284 4.15012 121.468 4.15485C121.653 4.15959 121.793 4.16669 121.887 4.17616V5.8807C121.831 5.8665 121.7 5.84519 121.497 5.81678C121.298 5.78364 121.087 5.76707 120.865 5.76707C120.334 5.76707 119.861 5.87834 119.444 6.10087C119.032 6.31868 118.705 6.62171 118.464 7.00996C118.227 7.39349 118.109 7.83146 118.109 8.32389V15.2273H116.433ZM131.601 6.76139L130.096 7.18752C130.001 6.93657 129.861 6.69273 129.677 6.45599C129.497 6.21451 129.251 6.01565 128.938 5.8594C128.626 5.70315 128.226 5.62502 127.738 5.62502C127.07 5.62502 126.514 5.7789 126.069 6.08667C125.628 6.3897 125.408 6.77559 125.408 7.24434C125.408 7.66101 125.56 7.99008 125.863 8.23156C126.166 8.47303 126.639 8.67426 127.283 8.83525L128.903 9.23298C129.878 9.46972 130.605 9.83193 131.083 10.3196C131.561 10.8026 131.8 11.4252 131.8 12.1875C131.8 12.8125 131.62 13.3712 131.261 13.8637C130.905 14.3561 130.408 14.7443 129.769 15.0284C129.13 15.3125 128.386 15.4546 127.539 15.4546C126.426 15.4546 125.505 15.2131 124.776 14.7301C124.047 14.2472 123.585 13.5417 123.391 12.6137L124.982 12.2159C125.134 12.8031 125.42 13.2434 125.842 13.537C126.268 13.8305 126.824 13.9773 127.511 13.9773C128.292 13.9773 128.912 13.8116 129.371 13.4801C129.835 13.144 130.067 12.7415 130.067 12.2727C130.067 11.894 129.935 11.5767 129.67 11.321C129.404 11.0606 128.997 10.8665 128.448 10.7387L126.63 10.3125C125.631 10.0758 124.897 9.70883 124.428 9.21167C123.964 8.70978 123.732 8.08241 123.732 7.32957C123.732 6.71404 123.905 6.16953 124.251 5.69604C124.601 5.22256 125.077 4.85087 125.678 4.58099C126.284 4.3111 126.971 4.17616 127.738 4.17616C128.817 4.17616 129.665 4.4129 130.28 4.88638C130.901 5.35987 131.341 5.98487 131.601 6.76139ZM139.068 4.3182V5.73866H133.414V4.3182H139.068ZM135.062 1.70457H136.738V12.1023C136.738 12.5758 136.807 12.9309 136.944 13.1676C137.086 13.3996 137.266 13.5559 137.484 13.6364C137.706 13.7121 137.941 13.75 138.187 13.75C138.372 13.75 138.523 13.7406 138.642 13.7216C138.76 13.6979 138.855 13.679 138.926 13.6648L139.267 15.1705C139.153 15.2131 138.994 15.2557 138.791 15.2983C138.587 15.3457 138.329 15.3693 138.017 15.3693C137.543 15.3693 137.079 15.2675 136.625 15.0639C136.175 14.8603 135.801 14.5502 135.502 14.1335C135.209 13.7169 135.062 13.1913 135.062 12.5568V1.70457ZM148.89 0.68184V15.2273H147.214V0.68184H148.89ZM151.96 15.2273V4.3182H153.636V15.2273H151.96ZM152.812 2.50002C152.486 2.50002 152.204 2.38875 151.967 2.16621C151.735 1.94368 151.619 1.67616 151.619 1.36366C151.619 1.05116 151.735 0.78364 151.967 0.561101C152.204 0.338564 152.486 0.227295 152.812 0.227295C153.139 0.227295 153.418 0.338564 153.65 0.561101C153.887 0.78364 154.006 1.05116 154.006 1.36366C154.006 1.67616 153.887 1.94368 153.65 2.16621C153.418 2.38875 153.139 2.50002 152.812 2.50002ZM156.706 19.3182V4.3182H158.326V6.05116H158.524C158.647 5.86176 158.818 5.62029 159.036 5.32673C159.258 5.02843 159.576 4.76328 159.987 4.53127C160.404 4.29453 160.968 4.17616 161.678 4.17616C162.596 4.17616 163.406 4.4058 164.107 4.86508C164.808 5.32436 165.354 5.9754 165.747 6.8182C166.14 7.66101 166.337 8.65532 166.337 9.80116C166.337 10.9565 166.14 11.9579 165.747 12.8054C165.354 13.6482 164.81 14.3016 164.114 14.7656C163.418 15.2249 162.615 15.4546 161.706 15.4546C161.005 15.4546 160.444 15.3386 160.023 15.1066C159.602 14.8698 159.277 14.6023 159.05 14.304C158.823 14.001 158.647 13.75 158.524 13.5512H158.382V19.3182H156.706ZM158.354 9.77275C158.354 10.5966 158.475 11.3234 158.716 11.9531C158.958 12.5781 159.31 13.0682 159.774 13.4233C160.238 13.7737 160.807 13.9489 161.479 13.9489C162.18 13.9489 162.764 13.7642 163.233 13.3949C163.707 13.0209 164.062 12.519 164.299 11.8892C164.54 11.2548 164.661 10.5493 164.661 9.77275C164.661 9.0057 164.542 8.31442 164.306 7.69889C164.074 7.07862 163.721 6.58856 163.247 6.22871C162.779 5.86413 162.189 5.68184 161.479 5.68184C160.797 5.68184 160.224 5.85466 159.76 6.20031C159.296 6.54122 158.946 7.01943 158.709 7.63496C158.472 8.24576 158.354 8.95836 158.354 9.77275ZM168.894 15.2273V4.3182H170.57V15.2273H168.894ZM169.746 2.50002C169.419 2.50002 169.138 2.38875 168.901 2.16621C168.669 1.94368 168.553 1.67616 168.553 1.36366C168.553 1.05116 168.669 0.78364 168.901 0.561101C169.138 0.338564 169.419 0.227295 169.746 0.227295C170.073 0.227295 170.352 0.338564 170.584 0.561101C170.821 0.78364 170.939 1.05116 170.939 1.36366C170.939 1.67616 170.821 1.94368 170.584 2.16621C170.352 2.38875 170.073 2.50002 169.746 2.50002ZM177.759 15.4546C176.85 15.4546 176.047 15.2249 175.351 14.7656C174.655 14.3016 174.111 13.6482 173.718 12.8054C173.325 11.9579 173.128 10.9565 173.128 9.80116C173.128 8.65532 173.325 7.66101 173.718 6.8182C174.111 5.9754 174.658 5.32436 175.359 4.86508C176.059 4.4058 176.869 4.17616 177.788 4.17616C178.498 4.17616 179.059 4.29453 179.471 4.53127C179.887 4.76328 180.205 5.02843 180.422 5.32673C180.645 5.62029 180.818 5.86176 180.941 6.05116H181.083V0.68184H182.759V15.2273H181.14V13.5512H180.941C180.818 13.75 180.643 14.001 180.415 14.304C180.188 14.6023 179.864 14.8698 179.442 15.1066C179.021 15.3386 178.46 15.4546 177.759 15.4546ZM177.986 13.9489C178.659 13.9489 179.227 13.7737 179.691 13.4233C180.155 13.0682 180.508 12.5781 180.749 11.9531C180.991 11.3234 181.111 10.5966 181.111 9.77275C181.111 8.95836 180.993 8.24576 180.756 7.63496C180.52 7.01943 180.169 6.54122 179.705 6.20031C179.241 5.85466 178.668 5.68184 177.986 5.68184C177.276 5.68184 176.684 5.86413 176.211 6.22871C175.742 6.58856 175.389 7.07862 175.153 7.69889C174.921 8.31442 174.805 9.0057 174.805 9.77275C174.805 10.5493 174.923 11.2548 175.16 11.8892C175.401 12.519 175.756 13.0209 176.225 13.3949C176.699 13.7642 177.286 13.9489 177.986 13.9489ZM199.414 6.76139L197.908 7.18752C197.814 6.93657 197.674 6.69273 197.489 6.45599C197.309 6.21451 197.063 6.01565 196.751 5.8594C196.438 5.70315 196.038 5.62502 195.55 5.62502C194.883 5.62502 194.326 5.7789 193.881 6.08667C193.441 6.3897 193.221 6.77559 193.221 7.24434C193.221 7.66101 193.372 7.99008 193.675 8.23156C193.978 8.47303 194.452 8.67426 195.096 8.83525L196.715 9.23298C197.69 9.46972 198.417 9.83193 198.895 10.3196C199.374 10.8026 199.613 11.4252 199.613 12.1875C199.613 12.8125 199.433 13.3712 199.073 13.8637C198.718 14.3561 198.221 14.7443 197.582 15.0284C196.942 15.3125 196.199 15.4546 195.351 15.4546C194.239 15.4546 193.318 15.2131 192.589 14.7301C191.86 14.2472 191.398 13.5417 191.204 12.6137L192.795 12.2159C192.946 12.8031 193.233 13.2434 193.654 13.537C194.08 13.8305 194.636 13.9773 195.323 13.9773C196.104 13.9773 196.725 13.8116 197.184 13.4801C197.648 13.144 197.88 12.7415 197.88 12.2727C197.88 11.894 197.747 11.5767 197.482 11.321C197.217 11.0606 196.81 10.8665 196.261 10.7387L194.442 10.3125C193.443 10.0758 192.709 9.70883 192.241 9.21167C191.777 8.70978 191.545 8.08241 191.545 7.32957C191.545 6.71404 191.717 6.16953 192.063 5.69604C192.413 5.22256 192.889 4.85087 193.491 4.58099C194.097 4.3111 194.783 4.17616 195.55 4.17616C196.63 4.17616 197.477 4.4129 198.093 4.88638C198.713 5.35987 199.154 5.98487 199.414 6.76139ZM202.136 15.2273V4.3182H203.812V15.2273H202.136ZM202.988 2.50002C202.661 2.50002 202.38 2.38875 202.143 2.16621C201.911 1.94368 201.795 1.67616 201.795 1.36366C201.795 1.05116 201.911 0.78364 202.143 0.561101C202.38 0.338564 202.661 0.227295 202.988 0.227295C203.315 0.227295 203.594 0.338564 203.826 0.561101C204.063 0.78364 204.181 1.05116 204.181 1.36366C204.181 1.67616 204.063 1.94368 203.826 2.16621C203.594 2.38875 203.315 2.50002 202.988 2.50002ZM211.285 19.5455C210.476 19.5455 209.78 19.4413 209.197 19.233C208.615 19.0294 208.13 18.7595 207.741 18.4233C207.358 18.0919 207.052 17.7368 206.825 17.358L208.16 16.4205C208.312 16.6193 208.504 16.8466 208.736 17.1023C208.968 17.3627 209.285 17.5876 209.687 17.777C210.095 17.9711 210.627 18.0682 211.285 18.0682C212.166 18.0682 212.893 17.8551 213.466 17.429C214.039 17.0029 214.325 16.3352 214.325 15.4262V13.2102H214.183C214.06 13.4091 213.885 13.6553 213.658 13.9489C213.435 14.2377 213.113 14.4958 212.692 14.723C212.275 14.9456 211.712 15.0568 211.001 15.0568C210.121 15.0568 209.33 14.8485 208.629 14.4318C207.933 14.0152 207.382 13.4091 206.974 12.6137C206.572 11.8182 206.371 10.8523 206.371 9.71593C206.371 8.59851 206.567 7.6255 206.96 6.7969C207.353 5.96356 207.9 5.31962 208.601 4.86508C209.301 4.4058 210.111 4.17616 211.03 4.17616C211.74 4.17616 212.303 4.29453 212.72 4.53127C213.141 4.76328 213.463 5.02843 213.686 5.32673C213.913 5.62029 214.088 5.86176 214.212 6.05116H214.382V4.3182H216.001V15.5398C216.001 16.4773 215.788 17.2396 215.362 17.8267C214.941 18.4186 214.373 18.8518 213.658 19.1264C212.947 19.4058 212.157 19.5455 211.285 19.5455ZM211.229 13.5512C211.901 13.5512 212.469 13.3973 212.933 13.0895C213.397 12.7817 213.75 12.339 213.991 11.7614C214.233 11.1837 214.354 10.4924 214.354 9.68752C214.354 8.90154 214.235 8.20788 213.998 7.60656C213.762 7.00523 213.411 6.53411 212.947 6.1932C212.483 5.85229 211.91 5.68184 211.229 5.68184C210.518 5.68184 209.926 5.86176 209.453 6.22161C208.984 6.58146 208.632 7.06442 208.395 7.67048C208.163 8.27654 208.047 8.94889 208.047 9.68752C208.047 10.4451 208.165 11.1151 208.402 11.6975C208.643 12.2751 208.998 12.7297 209.467 13.0611C209.941 13.3878 210.528 13.5512 211.229 13.5512ZM220.746 8.66479V15.2273H219.069V4.3182H220.689V6.02275H220.831C221.087 5.46877 221.475 5.0237 221.996 4.68752C222.516 4.34661 223.189 4.17616 224.013 4.17616C224.751 4.17616 225.398 4.32767 225.952 4.6307C226.506 4.929 226.936 5.38354 227.244 5.99434C227.552 6.6004 227.706 7.36745 227.706 8.29548V15.2273H226.03V8.40911C226.03 7.55211 225.807 6.88449 225.362 6.40627C224.917 5.92332 224.306 5.68184 223.53 5.68184C222.995 5.68184 222.516 5.79784 222.095 6.02985C221.678 6.26186 221.349 6.6004 221.108 7.04548C220.866 7.49055 220.746 8.03032 220.746 8.66479ZM233.979 15.483C233.288 15.483 232.66 15.3528 232.097 15.0924C231.533 14.8272 231.086 14.446 230.755 13.9489C230.423 13.447 230.257 12.8409 230.257 12.1307C230.257 11.5057 230.38 10.9991 230.627 10.6108C230.873 10.2178 231.202 9.91006 231.614 9.68752C232.026 9.46498 232.48 9.29926 232.978 9.19036C233.479 9.07673 233.984 8.98676 234.49 8.92048C235.153 8.83525 235.691 8.77133 236.103 8.72871C236.519 8.68137 236.822 8.60324 237.012 8.49434C237.206 8.38544 237.303 8.19604 237.303 7.92616V7.86934C237.303 7.16858 237.111 6.62407 236.728 6.23582C236.349 5.84756 235.773 5.65343 235.002 5.65343C234.201 5.65343 233.574 5.82862 233.12 6.179C232.665 6.52938 232.345 6.90343 232.161 7.30116L230.57 6.73298C230.854 6.0701 231.233 5.554 231.706 5.18468C232.184 4.81063 232.705 4.55021 233.269 4.40343C233.837 4.25192 234.396 4.17616 234.945 4.17616C235.295 4.17616 235.698 4.21877 236.152 4.304C236.612 4.38449 237.054 4.55258 237.48 4.80826C237.911 5.06394 238.269 5.44983 238.553 5.96593C238.837 6.48203 238.979 7.17332 238.979 8.03979V15.2273H237.303V13.75H237.218C237.104 13.9868 236.915 14.2401 236.649 14.51C236.384 14.7799 236.031 15.0095 235.591 15.1989C235.151 15.3883 234.613 15.483 233.979 15.483ZM234.235 13.9773C234.897 13.9773 235.456 13.8471 235.911 13.5867C236.37 13.3263 236.716 12.9901 236.948 12.5781C237.184 12.1662 237.303 11.733 237.303 11.2784V9.74434C237.232 9.82957 237.076 9.90769 236.834 9.97871C236.597 10.045 236.323 10.1042 236.01 10.1563C235.702 10.2036 235.402 10.2462 235.108 10.2841C234.819 10.3173 234.585 10.3457 234.405 10.3693C233.969 10.4262 233.562 10.5185 233.183 10.6463C232.809 10.7694 232.506 10.9565 232.274 11.2074C232.047 11.4536 231.933 11.7898 231.933 12.2159C231.933 12.7983 232.149 13.2387 232.58 13.537C233.015 13.8305 233.567 13.9773 234.235 13.9773ZM243.714 0.68184V15.2273H242.038V0.68184H243.714ZM246.784 15.2273V4.3182H248.46V15.2273H246.784ZM247.637 2.50002C247.31 2.50002 247.028 2.38875 246.791 2.16621C246.559 1.94368 246.443 1.67616 246.443 1.36366C246.443 1.05116 246.559 0.78364 246.791 0.561101C247.028 0.338564 247.31 0.227295 247.637 0.227295C247.963 0.227295 248.243 0.338564 248.475 0.561101C248.711 0.78364 248.83 1.05116 248.83 1.36366C248.83 1.67616 248.711 1.94368 248.475 2.16621C248.243 2.38875 247.963 2.50002 247.637 2.50002ZM253.207 8.66479V15.2273H251.53V4.3182H253.15V6.02275H253.292C253.547 5.46877 253.936 5.0237 254.457 4.68752C254.977 4.34661 255.65 4.17616 256.474 4.17616C257.212 4.17616 257.859 4.32767 258.413 4.6307C258.967 4.929 259.397 5.38354 259.705 5.99434C260.013 6.6004 260.167 7.36745 260.167 8.29548V15.2273H258.491V8.40911C258.491 7.55211 258.268 6.88449 257.823 6.40627C257.378 5.92332 256.767 5.68184 255.991 5.68184C255.456 5.68184 254.977 5.79784 254.556 6.02985C254.139 6.26186 253.81 6.6004 253.569 7.04548C253.327 7.49055 253.207 8.03032 253.207 8.66479ZM267.633 19.5455C266.823 19.5455 266.127 19.4413 265.545 19.233C264.963 19.0294 264.477 18.7595 264.089 18.4233C263.705 18.0919 263.4 17.7368 263.173 17.358L264.508 16.4205C264.66 16.6193 264.851 16.8466 265.083 17.1023C265.315 17.3627 265.633 17.5876 266.035 17.777C266.442 17.9711 266.975 18.0682 267.633 18.0682C268.514 18.0682 269.241 17.8551 269.813 17.429C270.386 17.0029 270.673 16.3352 270.673 15.4262V13.2102H270.531C270.408 13.4091 270.232 13.6553 270.005 13.9489C269.783 14.2377 269.461 14.4958 269.039 14.723C268.623 14.9456 268.059 15.0568 267.349 15.0568C266.468 15.0568 265.678 14.8485 264.977 14.4318C264.281 14.0152 263.729 13.4091 263.322 12.6137C262.92 11.8182 262.718 10.8523 262.718 9.71593C262.718 8.59851 262.915 7.6255 263.308 6.7969C263.701 5.96356 264.248 5.31962 264.948 4.86508C265.649 4.4058 266.459 4.17616 267.377 4.17616C268.088 4.17616 268.651 4.29453 269.068 4.53127C269.489 4.76328 269.811 5.02843 270.034 5.32673C270.261 5.62029 270.436 5.86176 270.559 6.05116H270.73V4.3182H272.349V15.5398C272.349 16.4773 272.136 17.2396 271.71 17.8267C271.288 18.4186 270.72 18.8518 270.005 19.1264C269.295 19.4058 268.504 19.5455 267.633 19.5455ZM267.576 13.5512C268.249 13.5512 268.817 13.3973 269.281 13.0895C269.745 12.7817 270.098 12.339 270.339 11.7614C270.58 11.1837 270.701 10.4924 270.701 9.68752C270.701 8.90154 270.583 8.20788 270.346 7.60656C270.109 7.00523 269.759 6.53411 269.295 6.1932C268.831 5.85229 268.258 5.68184 267.576 5.68184C266.866 5.68184 266.274 5.86176 265.801 6.22161C265.332 6.58146 264.979 7.06442 264.742 7.67048C264.51 8.27654 264.394 8.94889 264.394 9.68752C264.394 10.4451 264.513 11.1151 264.75 11.6975C264.991 12.2751 265.346 12.7297 265.815 13.0611C266.288 13.3878 266.875 13.5512 267.576 13.5512ZM285.9 4.3182V5.73866H280.019V4.3182H285.9ZM281.781 15.2273V2.81252C281.781 2.18752 281.928 1.66669 282.221 1.25002C282.515 0.833355 282.896 0.520855 283.365 0.312521C283.833 0.104188 284.328 2.12193e-05 284.849 2.12193e-05C285.261 2.12193e-05 285.597 0.0331654 285.857 0.0994537C286.118 0.165741 286.312 0.227294 286.44 0.284112L285.957 1.73298C285.872 1.70457 285.753 1.66906 285.602 1.62644C285.455 1.58383 285.261 1.56252 285.019 1.56252C284.465 1.56252 284.065 1.7022 283.819 1.98156C283.578 2.26091 283.457 2.67048 283.457 3.21025V15.2273H281.781ZM292.232 15.4546C291.247 15.4546 290.383 15.2202 289.639 14.7514C288.901 14.2827 288.323 13.6269 287.906 12.7841C287.495 11.9413 287.289 10.9565 287.289 9.82957C287.289 8.6932 287.495 7.70125 287.906 6.85371C288.323 6.00618 288.901 5.34803 289.639 4.87928C290.383 4.41053 291.247 4.17616 292.232 4.17616C293.217 4.17616 294.078 4.41053 294.817 4.87928C295.56 5.34803 296.138 6.00618 296.55 6.85371C296.967 7.70125 297.175 8.6932 297.175 9.82957C297.175 10.9565 296.967 11.9413 296.55 12.7841C296.138 13.6269 295.56 14.2827 294.817 14.7514C294.078 15.2202 293.217 15.4546 292.232 15.4546ZM292.232 13.9489C292.98 13.9489 293.595 13.7571 294.078 13.3736C294.561 12.9901 294.919 12.4858 295.151 11.8608C295.383 11.2358 295.499 10.5587 295.499 9.82957C295.499 9.1004 295.383 8.42095 295.151 7.79121C294.919 7.16148 294.561 6.65248 294.078 6.26423C293.595 5.87597 292.98 5.68184 292.232 5.68184C291.484 5.68184 290.868 5.87597 290.385 6.26423C289.902 6.65248 289.545 7.16148 289.313 7.79121C289.081 8.42095 288.965 9.1004 288.965 9.82957C288.965 10.5587 289.081 11.2358 289.313 11.8608C289.545 12.4858 289.902 12.9901 290.385 13.3736C290.868 13.7571 291.484 13.9489 292.232 13.9489ZM299.734 15.2273V4.3182H301.353V5.96593H301.467C301.665 5.42616 302.025 4.98818 302.546 4.65201C303.067 4.31584 303.654 4.14775 304.307 4.14775C304.431 4.14775 304.584 4.15012 304.769 4.15485C304.954 4.15959 305.093 4.16669 305.188 4.17616V5.8807C305.131 5.8665 305.001 5.84519 304.797 5.81678C304.599 5.78364 304.388 5.76707 304.165 5.76707C303.635 5.76707 303.162 5.87834 302.745 6.10087C302.333 6.31868 302.006 6.62171 301.765 7.00996C301.528 7.39349 301.41 7.83146 301.41 8.32389V15.2273H299.734ZM35.2494 39.4546C34.3403 39.4546 33.5377 39.2249 32.8417 38.7656C32.1457 38.3016 31.6012 37.6482 31.2082 36.8054C30.8152 35.9579 30.6187 34.9565 30.6187 33.8012C30.6187 32.6553 30.8152 31.661 31.2082 30.8182C31.6012 29.9754 32.148 29.3244 32.8488 28.8651C33.5495 28.4058 34.3592 28.1762 35.2778 28.1762C35.988 28.1762 36.5491 28.2945 36.961 28.5313C37.3777 28.7633 37.6949 29.0284 37.9127 29.3267C38.1352 29.6203 38.3081 29.8618 38.4312 30.0512H38.5732V24.6818H40.2494V39.2273H38.63V37.5512H38.4312C38.3081 37.75 38.1329 38.001 37.9056 38.304C37.6783 38.6023 37.354 38.8698 36.9326 39.1066C36.5112 39.3386 35.9501 39.4546 35.2494 39.4546ZM35.4766 37.9489C36.149 37.9489 36.7172 37.7737 37.1812 37.4233C37.6452 37.0682 37.9979 36.5781 38.2394 35.9531C38.4809 35.3234 38.6016 34.5966 38.6016 33.7727C38.6016 32.9584 38.4833 32.2458 38.2465 31.635C38.0098 31.0194 37.6594 30.5412 37.1954 30.2003C36.7314 29.8547 36.1584 29.6818 35.4766 29.6818C34.7664 29.6818 34.1745 29.8641 33.7011 30.2287C33.2323 30.5886 32.8796 31.0786 32.6428 31.6989C32.4108 32.3144 32.2948 33.0057 32.2948 33.7727C32.2948 34.5493 32.4132 35.2548 32.6499 35.8892C32.8914 36.519 33.2465 37.0209 33.7153 37.3949C34.1888 37.7642 34.7759 37.9489 35.4766 37.9489ZM46.7621 39.483C46.0709 39.483 45.4435 39.3528 44.88 39.0924C44.3166 38.8272 43.8691 38.446 43.5377 37.9489C43.2063 37.447 43.0405 36.8409 43.0405 36.1307C43.0405 35.5057 43.1637 34.9991 43.4099 34.6108C43.6561 34.2178 43.9852 33.9101 44.3971 33.6875C44.809 33.465 45.2636 33.2993 45.7607 33.1904C46.2626 33.0767 46.7669 32.9868 47.2735 32.9205C47.9364 32.8352 48.4738 32.7713 48.8857 32.7287C49.3024 32.6814 49.6054 32.6032 49.7948 32.4943C49.9889 32.3854 50.086 32.196 50.086 31.9262V31.8693C50.086 31.1686 49.8942 30.6241 49.5107 30.2358C49.1319 29.8476 48.5566 29.6534 47.7849 29.6534C46.9847 29.6534 46.3573 29.8286 45.9028 30.179C45.4482 30.5294 45.1286 30.9034 44.944 31.3012L43.353 30.733C43.6371 30.0701 44.0159 29.554 44.4894 29.1847C44.9676 28.8106 45.4885 28.5502 46.0519 28.4034C46.6201 28.2519 47.1788 28.1762 47.728 28.1762C48.0784 28.1762 48.4809 28.2188 48.9354 28.304C49.3947 28.3845 49.8374 28.5526 50.2636 28.8083C50.6944 29.0639 51.0519 29.4498 51.336 29.9659C51.6201 30.482 51.7621 31.1733 51.7621 32.0398V39.2273H50.086V37.75H50.0008C49.8871 37.9868 49.6977 38.2401 49.4326 38.51C49.1674 38.7799 48.8147 39.0095 48.3744 39.1989C47.934 39.3883 47.3966 39.483 46.7621 39.483ZM47.0178 37.9773C47.6807 37.9773 48.2394 37.8471 48.694 37.5867C49.1532 37.3263 49.4989 36.9901 49.7309 36.5781C49.9676 36.1662 50.086 35.733 50.086 35.2784V33.7443C50.015 33.8296 49.8587 33.9077 49.6173 33.9787C49.3805 34.045 49.1059 34.1042 48.7934 34.1563C48.4856 34.2036 48.185 34.2462 47.8914 34.2841C47.6026 34.3173 47.3682 34.3457 47.1883 34.3693C46.7527 34.4262 46.3455 34.5185 45.9667 34.6463C45.5926 34.7694 45.2896 34.9565 45.0576 35.2074C44.8303 35.4536 44.7167 35.7898 44.7167 36.2159C44.7167 36.7983 44.9321 37.2387 45.363 37.537C45.7986 37.8305 46.3502 37.9773 47.0178 37.9773ZM54.8214 39.2273V28.3182H56.4976V39.2273H54.8214ZM55.6737 26.5C55.347 26.5 55.0653 26.3888 54.8285 26.1662C54.5965 25.9437 54.4805 25.6762 54.4805 25.3637C54.4805 25.0512 54.5965 24.7836 54.8285 24.5611C55.0653 24.3386 55.347 24.2273 55.6737 24.2273C56.0004 24.2273 56.2798 24.3386 56.5118 24.5611C56.7485 24.7836 56.8669 25.0512 56.8669 25.3637C56.8669 25.6762 56.7485 25.9437 56.5118 26.1662C56.2798 26.3888 56.0004 26.5 55.6737 26.5ZM61.2437 24.6818V39.2273H59.5675V24.6818H61.2437ZM65.3932 43.3182C65.1091 43.3182 64.8558 43.2945 64.6332 43.2472C64.4107 43.2046 64.2568 43.162 64.1716 43.1193L64.5977 41.6421C65.0049 41.7462 65.3648 41.7841 65.6773 41.7557C65.9898 41.7273 66.2668 41.5876 66.5082 41.3367C66.7544 41.0905 66.9794 40.6904 67.183 40.1364L67.4955 39.2841L63.4614 28.3182H65.2795L68.2909 37.0114H68.4045L71.4159 28.3182H73.2341L68.6034 40.8182C68.3951 41.3817 68.137 41.848 67.8293 42.2174C67.5215 42.5914 67.164 42.8684 66.7568 43.0483C66.3544 43.2282 65.8998 43.3182 65.3932 43.3182ZM85.8158 28.3182V29.7387H80.1624V28.3182H85.8158ZM81.8101 25.7046H83.4862V36.1023C83.4862 36.5758 83.5549 36.9309 83.6922 37.1676C83.8342 37.3996 84.0142 37.5559 84.232 37.6364C84.4545 37.7121 84.6889 37.75 84.9351 37.75C85.1197 37.75 85.2713 37.7406 85.3896 37.7216C85.508 37.6979 85.6027 37.679 85.6737 37.6648L86.0146 39.1705C85.901 39.2131 85.7424 39.2557 85.5388 39.2983C85.3352 39.3457 85.0771 39.3693 84.7646 39.3693C84.2911 39.3693 83.8271 39.2675 83.3726 39.0639C82.9228 38.8603 82.5487 38.5502 82.2504 38.1335C81.9569 37.7169 81.8101 37.1913 81.8101 36.5568V25.7046ZM88.3371 39.2273V28.3182H89.9564V29.9659H90.07C90.2689 29.4262 90.6287 28.9882 91.1496 28.652C91.6704 28.3158 92.2575 28.1477 92.9109 28.1477C93.034 28.1477 93.1879 28.1501 93.3726 28.1549C93.5572 28.1596 93.6969 28.1667 93.7916 28.1762V29.8807C93.7348 29.8665 93.6046 29.8452 93.401 29.8168C93.2021 29.7836 92.9914 29.7671 92.7689 29.7671C92.2386 29.7671 91.7651 29.8783 91.3484 30.1009C90.9365 30.3187 90.6098 30.6217 90.3683 31.01C90.1316 31.3935 90.0132 31.8315 90.0132 32.3239V39.2273H88.3371ZM98.9887 39.483C98.2974 39.483 97.67 39.3528 97.1066 39.0924C96.5432 38.8272 96.0957 38.446 95.7643 37.9489C95.4328 37.447 95.2671 36.8409 95.2671 36.1307C95.2671 35.5057 95.3902 34.9991 95.6364 34.6108C95.8826 34.2178 96.2117 33.9101 96.6236 33.6875C97.0356 33.465 97.4901 33.2993 97.9873 33.1904C98.4892 33.0767 98.9934 32.9868 99.5001 32.9205C100.163 32.8352 100.7 32.7713 101.112 32.7287C101.529 32.6814 101.832 32.6032 102.021 32.4943C102.216 32.3854 102.313 32.196 102.313 31.9262V31.8693C102.313 31.1686 102.121 30.6241 101.737 30.2358C101.358 29.8476 100.783 29.6534 100.011 29.6534C99.2112 29.6534 98.5839 29.8286 98.1293 30.179C97.6748 30.5294 97.3552 30.9034 97.1705 31.3012L95.5796 30.733C95.8637 30.0701 96.2425 29.554 96.716 29.1847C97.1942 28.8106 97.715 28.5502 98.2785 28.4034C98.8467 28.2519 99.4054 28.1762 99.9546 28.1762C100.305 28.1762 100.707 28.2188 101.162 28.304C101.621 28.3845 102.064 28.5526 102.49 28.8083C102.921 29.0639 103.278 29.4498 103.563 29.9659C103.847 30.482 103.989 31.1733 103.989 32.0398V39.2273H102.313V37.75H102.227C102.114 37.9868 101.924 38.2401 101.659 38.51C101.394 38.7799 101.041 39.0095 100.601 39.1989C100.161 39.3883 99.6232 39.483 98.9887 39.483ZM99.2444 37.9773C99.9073 37.9773 100.466 37.8471 100.921 37.5867C101.38 37.3263 101.725 36.9901 101.957 36.5781C102.194 36.1662 102.313 35.733 102.313 35.2784V33.7443C102.242 33.8296 102.085 33.9077 101.844 33.9787C101.607 34.045 101.332 34.1042 101.02 34.1563C100.712 34.2036 100.412 34.2462 100.118 34.2841C99.8291 34.3173 99.5948 34.3457 99.4148 34.3693C98.9792 34.4262 98.572 34.5185 98.1932 34.6463C97.8192 34.7694 97.5162 34.9565 97.2842 35.2074C97.0569 35.4536 96.9432 35.7898 96.9432 36.2159C96.9432 36.7983 97.1587 37.2387 97.5896 37.537C98.0252 37.8305 98.5768 37.9773 99.2444 37.9773ZM107.048 39.2273V28.3182H108.724V39.2273H107.048ZM107.9 26.5C107.574 26.5 107.292 26.3888 107.055 26.1662C106.823 25.9437 106.707 25.6762 106.707 25.3637C106.707 25.0512 106.823 24.7836 107.055 24.5611C107.292 24.3386 107.574 24.2273 107.9 24.2273C108.227 24.2273 108.506 24.3386 108.738 24.5611C108.975 24.7836 109.093 25.0512 109.093 25.3637C109.093 25.6762 108.975 25.9437 108.738 26.1662C108.506 26.3888 108.227 26.5 107.9 26.5ZM113.47 32.6648V39.2273H111.794V28.3182H113.413V30.0227H113.555C113.811 29.4688 114.199 29.0237 114.72 28.6875C115.241 28.3466 115.913 28.1762 116.737 28.1762C117.476 28.1762 118.122 28.3277 118.676 28.6307C119.23 28.929 119.661 29.3835 119.969 29.9943C120.277 30.6004 120.43 31.3674 120.43 32.2955V39.2273H118.754V32.4091C118.754 31.5521 118.532 30.8845 118.087 30.4063C117.642 29.9233 117.031 29.6818 116.254 29.6818C115.719 29.6818 115.241 29.7978 114.82 30.0299C114.403 30.2619 114.074 30.6004 113.832 31.0455C113.591 31.4906 113.47 32.0303 113.47 32.6648ZM123.493 39.2273V28.3182H125.169V39.2273H123.493ZM124.346 26.5C124.019 26.5 123.737 26.3888 123.5 26.1662C123.268 25.9437 123.152 25.6762 123.152 25.3637C123.152 25.0512 123.268 24.7836 123.5 24.5611C123.737 24.3386 124.019 24.2273 124.346 24.2273C124.672 24.2273 124.952 24.3386 125.184 24.5611C125.42 24.7836 125.539 25.0512 125.539 25.3637C125.539 25.6762 125.42 25.9437 125.184 26.1662C124.952 26.3888 124.672 26.5 124.346 26.5ZM129.916 32.6648V39.2273H128.239V28.3182H129.859V30.0227H130.001C130.256 29.4688 130.645 29.0237 131.166 28.6875C131.686 28.3466 132.359 28.1762 133.183 28.1762C133.921 28.1762 134.568 28.3277 135.122 28.6307C135.675 28.929 136.106 29.3835 136.414 29.9943C136.722 30.6004 136.876 31.3674 136.876 32.2955V39.2273H135.2V32.4091C135.2 31.5521 134.977 30.8845 134.532 30.4063C134.087 29.9233 133.476 29.6818 132.7 29.6818C132.165 29.6818 131.686 29.7978 131.265 30.0299C130.848 30.2619 130.519 30.6004 130.278 31.0455C130.036 31.4906 129.916 32.0303 129.916 32.6648ZM144.342 43.5455C143.532 43.5455 142.836 43.4413 142.254 43.233C141.672 43.0294 141.186 42.7595 140.798 42.4233C140.414 42.0919 140.109 41.7368 139.882 41.358L141.217 40.4205C141.369 40.6193 141.56 40.8466 141.792 41.1023C142.024 41.3627 142.342 41.5876 142.744 41.777C143.151 41.9711 143.684 42.0682 144.342 42.0682C145.223 42.0682 145.95 41.8551 146.522 41.429C147.095 41.0029 147.382 40.3352 147.382 39.4262V37.2102H147.24C147.117 37.4091 146.941 37.6553 146.714 37.9489C146.492 38.2377 146.17 38.4958 145.748 38.723C145.332 38.9456 144.768 39.0568 144.058 39.0568C143.177 39.0568 142.387 38.8485 141.686 38.4318C140.99 38.0152 140.438 37.4091 140.031 36.6137C139.628 35.8182 139.427 34.8523 139.427 33.7159C139.427 32.5985 139.624 31.6255 140.017 30.7969C140.41 29.9636 140.957 29.3196 141.657 28.8651C142.358 28.4058 143.168 28.1762 144.086 28.1762C144.797 28.1762 145.36 28.2945 145.777 28.5313C146.198 28.7633 146.52 29.0284 146.743 29.3267C146.97 29.6203 147.145 29.8618 147.268 30.0512H147.439V28.3182H149.058V39.5398C149.058 40.4773 148.845 41.2396 148.419 41.8267C147.997 42.4186 147.429 42.8518 146.714 43.1264C146.004 43.4058 145.213 43.5455 144.342 43.5455ZM144.285 37.5512C144.958 37.5512 145.526 37.3973 145.99 37.0895C146.454 36.7817 146.807 36.339 147.048 35.7614C147.289 35.1837 147.41 34.4924 147.41 33.6875C147.41 32.9015 147.292 32.2079 147.055 31.6066C146.818 31.0052 146.468 30.5341 146.004 30.1932C145.54 29.8523 144.967 29.6818 144.285 29.6818C143.575 29.6818 142.983 29.8618 142.51 30.2216C142.041 30.5815 141.688 31.0644 141.451 31.6705C141.219 32.2765 141.103 32.9489 141.103 33.6875C141.103 34.4451 141.222 35.1151 141.459 35.6975C141.7 36.2751 142.055 36.7297 142.524 37.0611C142.997 37.3878 143.584 37.5512 144.285 37.5512ZM162.183 39.4546C161.16 39.4546 160.28 39.2131 159.541 38.7301C158.802 38.2472 158.234 37.5819 157.836 36.7344C157.439 35.8869 157.24 34.9186 157.24 33.8296C157.24 32.7216 157.443 31.7439 157.851 30.8963C158.262 30.0441 158.835 29.3788 159.569 28.9006C160.308 28.4176 161.17 28.1762 162.155 28.1762C162.922 28.1762 163.613 28.3182 164.228 28.6023C164.844 28.8864 165.348 29.2841 165.741 29.7955C166.134 30.3068 166.378 30.9034 166.473 31.5852H164.797C164.669 31.0881 164.385 30.6477 163.944 30.2642C163.509 29.876 162.922 29.6818 162.183 29.6818C161.53 29.6818 160.957 29.8523 160.464 30.1932C159.977 30.5294 159.595 31.0052 159.321 31.6208C159.051 32.2316 158.916 32.9489 158.916 33.7727C158.916 34.6156 159.048 35.3495 159.314 35.9745C159.584 36.5995 159.962 37.0848 160.45 37.4304C160.942 37.7761 161.52 37.9489 162.183 37.9489C162.619 37.9489 163.014 37.8731 163.369 37.7216C163.724 37.5701 164.025 37.3523 164.271 37.0682C164.517 36.7841 164.692 36.4432 164.797 36.0455H166.473C166.378 36.6894 166.144 37.2694 165.77 37.7855C165.4 38.2969 164.91 38.7041 164.299 39.0071C163.693 39.3054 162.988 39.4546 162.183 39.4546ZM173.355 39.4546C172.37 39.4546 171.506 39.2202 170.762 38.7514C170.024 38.2827 169.446 37.6269 169.03 36.7841C168.618 35.9413 168.412 34.9565 168.412 33.8296C168.412 32.6932 168.618 31.7013 169.03 30.8537C169.446 30.0062 170.024 29.348 170.762 28.8793C171.506 28.4105 172.37 28.1762 173.355 28.1762C174.34 28.1762 175.201 28.4105 175.94 28.8793C176.683 29.348 177.261 30.0062 177.673 30.8537C178.09 31.7013 178.298 32.6932 178.298 33.8296C178.298 34.9565 178.09 35.9413 177.673 36.7841C177.261 37.6269 176.683 38.2827 175.94 38.7514C175.201 39.2202 174.34 39.4546 173.355 39.4546ZM173.355 37.9489C174.103 37.9489 174.718 37.7571 175.201 37.3736C175.684 36.9901 176.042 36.4858 176.274 35.8608C176.506 35.2358 176.622 34.5587 176.622 33.8296C176.622 33.1004 176.506 32.4209 176.274 31.7912C176.042 31.1615 175.684 30.6525 175.201 30.2642C174.718 29.876 174.103 29.6818 173.355 29.6818C172.607 29.6818 171.991 29.876 171.508 30.2642C171.025 30.6525 170.668 31.1615 170.436 31.7912C170.204 32.4209 170.088 33.1004 170.088 33.8296C170.088 34.5587 170.204 35.2358 170.436 35.8608C170.668 36.4858 171.025 36.9901 171.508 37.3736C171.991 37.7571 172.607 37.9489 173.355 37.9489ZM182.533 32.6648V39.2273H180.857V28.3182H182.476V30.0227H182.618C182.874 29.4688 183.262 29.0237 183.783 28.6875C184.304 28.3466 184.976 28.1762 185.8 28.1762C186.538 28.1762 187.185 28.3277 187.739 28.6307C188.293 28.929 188.724 29.3835 189.031 29.9943C189.339 30.6004 189.493 31.3674 189.493 32.2955V39.2273H187.817V32.4091C187.817 31.5521 187.594 30.8845 187.149 30.4063C186.704 29.9233 186.093 29.6818 185.317 29.6818C184.782 29.6818 184.304 29.7978 183.882 30.0299C183.466 30.2619 183.136 30.6004 182.895 31.0455C182.653 31.4906 182.533 32.0303 182.533 32.6648ZM200.283 30.7614L198.777 31.1875C198.683 30.9366 198.543 30.6927 198.358 30.456C198.178 30.2145 197.932 30.0156 197.62 29.8594C197.307 29.7031 196.907 29.625 196.419 29.625C195.752 29.625 195.195 29.7789 194.75 30.0867C194.31 30.3897 194.09 30.7756 194.09 31.2443C194.09 31.661 194.241 31.9901 194.544 32.2316C194.847 32.473 195.321 32.6743 195.965 32.8352L197.584 33.233C198.56 33.4697 199.286 33.8319 199.765 34.3196C200.243 34.8026 200.482 35.4252 200.482 36.1875C200.482 36.8125 200.302 37.3712 199.942 37.8637C199.587 38.3561 199.09 38.7443 198.451 39.0284C197.812 39.3125 197.068 39.4546 196.221 39.4546C195.108 39.4546 194.187 39.2131 193.458 38.7301C192.729 38.2472 192.267 37.5417 192.073 36.6137L193.664 36.2159C193.815 36.8031 194.102 37.2434 194.523 37.537C194.949 37.8305 195.506 37.9773 196.192 37.9773C196.973 37.9773 197.594 37.8116 198.053 37.4801C198.517 37.144 198.749 36.7415 198.749 36.2727C198.749 35.894 198.616 35.5767 198.351 35.321C198.086 35.0606 197.679 34.8665 197.13 34.7387L195.312 34.3125C194.312 34.0758 193.579 33.7088 193.11 33.2117C192.646 32.7098 192.414 32.0824 192.414 31.3296C192.414 30.714 192.587 30.1695 192.932 29.696C193.283 29.2226 193.758 28.8509 194.36 28.581C194.966 28.3111 195.652 28.1762 196.419 28.1762C197.499 28.1762 198.347 28.4129 198.962 28.8864C199.582 29.3599 200.023 29.9849 200.283 30.7614ZM203.005 39.2273V28.3182H204.681V39.2273H203.005ZM203.857 26.5C203.531 26.5 203.249 26.3888 203.012 26.1662C202.78 25.9437 202.664 25.6762 202.664 25.3637C202.664 25.0512 202.78 24.7836 203.012 24.5611C203.249 24.3386 203.531 24.2273 203.857 24.2273C204.184 24.2273 204.463 24.3386 204.695 24.5611C204.932 24.7836 205.05 25.0512 205.05 25.3637C205.05 25.6762 204.932 25.9437 204.695 26.1662C204.463 26.3888 204.184 26.5 203.857 26.5ZM215.478 30.7614L213.973 31.1875C213.878 30.9366 213.738 30.6927 213.554 30.456C213.374 30.2145 213.128 30.0156 212.815 29.8594C212.503 29.7031 212.102 29.625 211.615 29.625C210.947 29.625 210.391 29.7789 209.946 30.0867C209.505 30.3897 209.285 30.7756 209.285 31.2443C209.285 31.661 209.437 31.9901 209.74 32.2316C210.043 32.473 210.516 32.6743 211.16 32.8352L212.78 33.233C213.755 33.4697 214.482 33.8319 214.96 34.3196C215.438 34.8026 215.677 35.4252 215.677 36.1875C215.677 36.8125 215.497 37.3712 215.137 37.8637C214.782 38.3561 214.285 38.7443 213.646 39.0284C213.007 39.3125 212.263 39.4546 211.416 39.4546C210.303 39.4546 209.382 39.2131 208.653 38.7301C207.924 38.2472 207.462 37.5417 207.268 36.6137L208.859 36.2159C209.011 36.8031 209.297 37.2434 209.718 37.537C210.145 37.8305 210.701 37.9773 211.387 37.9773C212.169 37.9773 212.789 37.8116 213.248 37.4801C213.712 37.144 213.944 36.7415 213.944 36.2727C213.944 35.894 213.812 35.5767 213.547 35.321C213.281 35.0606 212.874 34.8665 212.325 34.7387L210.507 34.3125C209.508 34.0758 208.774 33.7088 208.305 33.2117C207.841 32.7098 207.609 32.0824 207.609 31.3296C207.609 30.714 207.782 30.1695 208.128 29.696C208.478 29.2226 208.954 28.8509 209.555 28.581C210.161 28.3111 210.848 28.1762 211.615 28.1762C212.694 28.1762 213.542 28.4129 214.157 28.8864C214.778 29.3599 215.218 29.9849 215.478 30.7614ZM222.945 28.3182V29.7387H217.291V28.3182H222.945ZM218.939 25.7046H220.615V36.1023C220.615 36.5758 220.684 36.9309 220.821 37.1676C220.963 37.3996 221.143 37.5559 221.361 37.6364C221.583 37.7121 221.818 37.75 222.064 37.75C222.249 37.75 222.4 37.7406 222.519 37.7216C222.637 37.6979 222.732 37.679 222.803 37.6648L223.144 39.1705C223.03 39.2131 222.871 39.2557 222.668 39.2983C222.464 39.3457 222.206 39.3693 221.894 39.3693C221.42 39.3693 220.956 39.2675 220.501 39.0639C220.052 38.8603 219.678 38.5502 219.379 38.1335C219.086 37.7169 218.939 37.1913 218.939 36.5568V25.7046ZM229.923 39.4546C228.872 39.4546 227.965 39.2226 227.202 38.7585C226.445 38.2898 225.86 37.6364 225.448 36.7983C225.041 35.9555 224.837 34.9754 224.837 33.858C224.837 32.7406 225.041 31.7557 225.448 30.9034C225.86 30.0464 226.433 29.3788 227.167 28.9006C227.906 28.4176 228.767 28.1762 229.752 28.1762C230.32 28.1762 230.881 28.2709 231.435 28.4602C231.989 28.6496 232.494 28.9574 232.948 29.3835C233.403 29.8049 233.765 30.3637 234.035 31.0597C234.305 31.7557 234.44 32.6127 234.44 33.6307V34.3409H226.031V32.8921H232.735C232.735 32.2765 232.612 31.7273 232.366 31.2443C232.124 30.7614 231.779 30.3802 231.329 30.1009C230.884 29.8215 230.358 29.6818 229.752 29.6818C229.085 29.6818 228.507 29.8476 228.019 30.179C227.536 30.5057 227.165 30.9318 226.904 31.4574C226.644 31.983 226.514 32.5464 226.514 33.1477V34.1137C226.514 34.9375 226.656 35.6359 226.94 36.2088C227.229 36.777 227.629 37.2102 228.14 37.5085C228.651 37.8021 229.246 37.9489 229.923 37.9489C230.363 37.9489 230.761 37.8873 231.116 37.7642C231.476 37.6364 231.786 37.447 232.046 37.196C232.307 36.9404 232.508 36.6231 232.65 36.2443L234.269 36.6989C234.099 37.2481 233.812 37.7311 233.41 38.1477C233.007 38.5597 232.51 38.8817 231.918 39.1137C231.327 39.3409 230.661 39.4546 229.923 39.4546ZM238.666 32.6648V39.2273H236.989V28.3182H238.609V30.0227H238.751C239.006 29.4688 239.395 29.0237 239.916 28.6875C240.436 28.3466 241.109 28.1762 241.933 28.1762C242.671 28.1762 243.318 28.3277 243.872 28.6307C244.425 28.929 244.856 29.3835 245.164 29.9943C245.472 30.6004 245.626 31.3674 245.626 32.2955V39.2273H243.95V32.4091C243.95 31.5521 243.727 30.8845 243.282 30.4063C242.837 29.9233 242.226 29.6818 241.45 29.6818C240.915 29.6818 240.436 29.7978 240.015 30.0299C239.598 30.2619 239.269 30.6004 239.028 31.0455C238.786 31.4906 238.666 32.0303 238.666 32.6648ZM253.12 39.4546C252.098 39.4546 251.217 39.2131 250.478 38.7301C249.74 38.2472 249.172 37.5819 248.774 36.7344C248.376 35.8869 248.177 34.9186 248.177 33.8296C248.177 32.7216 248.381 31.7439 248.788 30.8963C249.2 30.0441 249.773 29.3788 250.507 28.9006C251.245 28.4176 252.107 28.1762 253.092 28.1762C253.859 28.1762 254.55 28.3182 255.166 28.6023C255.781 28.8864 256.286 29.2841 256.679 29.7955C257.072 30.3068 257.316 30.9034 257.41 31.5852H255.734C255.606 31.0881 255.322 30.6477 254.882 30.2642C254.446 29.876 253.859 29.6818 253.12 29.6818C252.467 29.6818 251.894 29.8523 251.402 30.1932C250.914 30.5294 250.533 31.0052 250.258 31.6208C249.988 32.2316 249.853 32.9489 249.853 33.7727C249.853 34.6156 249.986 35.3495 250.251 35.9745C250.521 36.5995 250.9 37.0848 251.387 37.4304C251.88 37.7761 252.458 37.9489 253.12 37.9489C253.556 37.9489 253.951 37.8731 254.307 37.7216C254.662 37.5701 254.962 37.3523 255.209 37.0682C255.455 36.7841 255.63 36.4432 255.734 36.0455H257.41C257.316 36.6894 257.081 37.2694 256.707 37.7855C256.338 38.2969 255.848 38.7041 255.237 39.0071C254.631 39.3054 253.925 39.4546 253.12 39.4546ZM260.94 43.3182C260.656 43.3182 260.403 43.2945 260.18 43.2472C259.958 43.2046 259.804 43.162 259.718 43.1193L260.145 41.6421C260.552 41.7462 260.912 41.7841 261.224 41.7557C261.537 41.7273 261.814 41.5876 262.055 41.3367C262.301 41.0905 262.526 40.6904 262.73 40.1364L263.042 39.2841L259.008 28.3182H260.826L263.838 37.0114H263.951L266.963 28.3182H268.781L264.15 40.8182C263.942 41.3817 263.684 41.848 263.376 42.2174C263.068 42.5914 262.711 42.8684 262.304 43.0483C261.901 43.2282 261.447 43.3182 260.94 43.3182ZM271.531 39.3409C271.181 39.3409 270.88 39.2155 270.629 38.9645C270.378 38.7136 270.253 38.4129 270.253 38.0625C270.253 37.7121 270.378 37.4115 270.629 37.1605C270.88 36.9096 271.181 36.7841 271.531 36.7841C271.882 36.7841 272.182 36.9096 272.433 37.1605C272.684 37.4115 272.81 37.7121 272.81 38.0625C272.81 38.2945 272.751 38.5076 272.632 38.7017C272.519 38.8959 272.365 39.0521 272.171 39.1705C271.981 39.2841 271.768 39.3409 271.531 39.3409Z" fill="#DADADA"/>
</svg>
