<svg width="104" height="15" viewBox="0 0 104 15" fill="none" xmlns="http://www.w3.org/2000/svg">
<path d="M-0.000110865 14.7444V0.19893H4.91466C6.05576 0.19893 6.98853 0.404896 7.71296 0.816827C8.44212 1.22402 8.9819 1.77563 9.33228 2.47166C9.68265 3.16768 9.85784 3.94419 9.85784 4.8012C9.85784 5.65821 9.68265 6.43709 9.33228 7.13785C8.98663 7.83861 8.45159 8.39732 7.72716 8.81399C7.00273 9.22592 6.0747 9.43188 4.94307 9.43188H1.42034V7.86938H4.88625C5.6675 7.86938 6.29487 7.73444 6.76836 7.46455C7.24184 7.19467 7.58512 6.83009 7.79818 6.3708C8.01599 5.90679 8.12489 5.38359 8.12489 4.8012C8.12489 4.21882 8.01599 3.69798 7.79818 3.2387C7.58512 2.77942 7.23947 2.41957 6.76125 2.15916C6.28303 1.89401 5.64856 1.76143 4.85784 1.76143H1.76125V14.7444H-0.000110865ZM12.6952 14.7444V0.19893H14.4566V13.1819H21.2179V14.7444H12.6952ZM25.4598 14.7444H23.6132L28.9541 0.19893H30.7723L36.1132 14.7444H34.2666L29.92 2.50007H29.8064L25.4598 14.7444ZM26.1416 9.06257H33.5848V10.6251H26.1416V9.06257ZM35.8841 1.76143V0.19893H46.7932V1.76143H42.2193V14.7444H40.458V1.76143H35.8841ZM49.5116 14.7444V0.19893H58.2332V1.76143H51.273V6.6762H57.5798V8.2387H51.273V14.7444H49.5116ZM73.5226 7.47166C73.5226 9.00575 73.2456 10.3315 72.6917 11.4489C72.1377 12.5664 71.3777 13.4281 70.4118 14.0342C69.4459 14.6402 68.3427 14.9432 67.1022 14.9432C65.8616 14.9432 64.7584 14.6402 63.7925 14.0342C62.8266 13.4281 62.0667 12.5664 61.5127 11.4489C60.9587 10.3315 60.6817 9.00575 60.6817 7.47166C60.6817 5.93757 60.9587 4.61181 61.5127 3.49438C62.0667 2.37696 62.8266 1.51522 63.7925 0.909157C64.7584 0.303096 65.8616 6.60419e-05 67.1022 6.60419e-05C68.3427 6.60419e-05 69.4459 0.303096 70.4118 0.909157C71.3777 1.51522 72.1377 2.37696 72.6917 3.49438C73.2456 4.61181 73.5226 5.93757 73.5226 7.47166ZM71.8181 7.47166C71.8181 6.21219 71.6074 5.14921 71.186 4.28274C70.7693 3.41626 70.2035 2.76048 69.4885 2.31541C68.7783 1.87033 67.9828 1.64779 67.1022 1.64779C66.2215 1.64779 65.4237 1.87033 64.7087 2.31541C63.9985 2.76048 63.4327 3.41626 63.0113 4.28274C62.5946 5.14921 62.3863 6.21219 62.3863 7.47166C62.3863 8.73113 62.5946 9.7941 63.0113 10.6606C63.4327 11.5271 63.9985 12.1828 64.7087 12.6279C65.4237 13.073 66.2215 13.2955 67.1022 13.2955C67.9828 13.2955 68.7783 13.073 69.4885 12.6279C70.2035 12.1828 70.7693 11.5271 71.186 10.6606C71.6074 9.7941 71.8181 8.73113 71.8181 7.47166ZM76.4843 14.7444V0.19893H81.399C82.5354 0.19893 83.4682 0.393059 84.1973 0.781316C84.9265 1.16484 85.4663 1.69277 85.8167 2.36512C86.167 3.03747 86.3422 3.80215 86.3422 4.65916C86.3422 5.51616 86.167 6.27611 85.8167 6.93899C85.4663 7.60187 84.9289 8.1227 84.2044 8.50149C83.48 8.87554 82.5543 9.06257 81.4274 9.06257H77.4502V7.47166H81.3706C82.1471 7.47166 82.7721 7.35802 83.2456 7.13075C83.7238 6.90348 84.0695 6.58151 84.2826 6.16484C84.5004 5.74344 84.6093 5.24154 84.6093 4.65916C84.6093 4.07677 84.5004 3.56777 84.2826 3.13217C84.0648 2.69656 83.7167 2.36039 83.2385 2.12365C82.7603 1.88217 82.1282 1.76143 81.3422 1.76143H78.2456V14.7444H76.4843ZM83.3309 8.21029L86.9104 14.7444H84.8649L81.3422 8.21029H83.3309ZM89.2772 0.19893H91.3795L96.3227 12.2728H96.4931L101.436 0.19893H103.539V14.7444H101.891V3.69325H101.749L97.2034 14.7444H95.6125L91.067 3.69325H90.925V14.7444H89.2772V0.19893Z" fill="#5E7CF2"/>
</svg>
