<svg width="37" height="15" viewBox="0 0 37 15" fill="none" xmlns="http://www.w3.org/2000/svg">
<path d="M-0.000110865 14.6875V0.142045H4.91466C6.05103 0.142045 6.98379 0.336174 7.71296 0.724431C8.44212 1.10795 8.9819 1.63589 9.33228 2.30824C9.68265 2.98059 9.85784 3.74527 9.85784 4.60227C9.85784 5.45928 9.68265 6.21922 9.33228 6.8821C8.9819 7.54498 8.44449 8.06581 7.72006 8.4446C6.99563 8.81866 6.06997 9.00568 4.94307 9.00568H0.965798V7.41477H4.88625C5.66277 7.41477 6.28777 7.30114 6.76125 7.07386C7.23947 6.84659 7.58512 6.52462 7.79818 6.10795C8.01599 5.68655 8.12489 5.18466 8.12489 4.60227C8.12489 4.01989 8.01599 3.51089 7.79818 3.07528C7.58038 2.63968 7.23237 2.3035 6.75415 2.06676C6.27593 1.82528 5.64383 1.70455 4.85784 1.70455H1.76125V14.6875H-0.000110865ZM6.84648 8.15341L10.426 14.6875H8.38057L4.85784 8.15341H6.84648ZM16.6849 14.8864C15.7285 14.8864 14.9046 14.7112 14.2133 14.3608C13.522 14.0104 12.9894 13.5298 12.6153 12.919C12.2412 12.3082 12.0542 11.6098 12.0542 10.8239C12.0542 10.2178 12.1821 9.6804 12.4377 9.21165C12.6982 8.73816 13.0556 8.30019 13.5102 7.89773C13.9695 7.49053 14.4974 7.08333 15.094 6.67614L17.1963 5.11364C17.6082 4.84375 17.9373 4.55492 18.1835 4.24716C18.4344 3.93939 18.5599 3.53693 18.5599 3.03977C18.5599 2.67045 18.3966 2.31297 18.0698 1.96733C17.7479 1.62169 17.3241 1.44886 16.7985 1.44886C16.4292 1.44886 16.1025 1.54356 15.8184 1.73295C15.5391 1.91761 15.3189 2.15436 15.1579 2.44318C15.0017 2.72727 14.9235 3.02083 14.9235 3.32386C14.9235 3.66477 15.0159 4.01042 15.2005 4.3608C15.3899 4.70644 15.629 5.06155 15.9179 5.42614C16.2114 5.78598 16.5144 6.1553 16.8269 6.53409L23.5031 14.6875H21.486L15.9747 8.03977C15.4633 7.42424 14.9993 6.86553 14.5826 6.36364C14.166 5.86174 13.8345 5.36695 13.5883 4.87926C13.3421 4.39157 13.219 3.86364 13.219 3.29545C13.219 2.64204 13.3634 2.06913 13.6522 1.5767C13.9458 1.07954 14.3554 0.693655 14.8809 0.419034C15.4112 0.139678 16.0315 0 16.7417 0C17.4709 0 18.0983 0.142045 18.6238 0.426136C19.1494 0.705492 19.5542 1.07718 19.8383 1.54119C20.1224 2.00047 20.2644 2.5 20.2644 3.03977C20.2644 3.7358 20.0916 4.33949 19.746 4.85085C19.4003 5.36222 18.9292 5.83807 18.3326 6.27841L15.4349 8.4375C14.7815 8.92045 14.3388 9.3892 14.1068 9.84375C13.8748 10.2983 13.7588 10.625 13.7588 10.8239C13.7588 11.2784 13.8771 11.7022 14.1139 12.0952C14.3506 12.4882 14.6844 12.8054 15.1153 13.0469C15.5462 13.2884 16.0504 13.4091 16.6281 13.4091C17.1773 13.4091 17.7124 13.2931 18.2332 13.0611C18.754 12.8243 19.2251 12.4834 19.6466 12.0384C20.0727 11.5933 20.4089 11.0582 20.6551 10.4332C20.906 9.80824 21.0315 9.10511 21.0315 8.32386H22.6508C22.6508 9.28977 22.5395 10.0781 22.317 10.6889C22.0945 11.2997 21.8435 11.7779 21.5642 12.1236C21.2848 12.4692 21.0599 12.7273 20.8894 12.8977C20.8326 12.9687 20.7805 13.0398 20.7332 13.1108C20.6859 13.1818 20.6338 13.2528 20.5769 13.3239C20.1082 13.8494 19.5163 14.2424 18.8014 14.5028C18.0864 14.7585 17.3809 14.8864 16.6849 14.8864ZM30.0745 14.6875H25.5858V0.142045H30.2733C31.6843 0.142045 32.8917 0.433238 33.8955 1.01562C34.8993 1.59328 35.6687 2.42424 36.2037 3.50852C36.7388 4.58807 37.0063 5.88068 37.0063 7.38636C37.0063 8.90151 36.7364 10.206 36.1966 11.2997C35.6568 12.3887 34.8709 13.2268 33.8387 13.8139C32.8065 14.3963 31.5517 14.6875 30.0745 14.6875ZM27.3472 13.125H29.9608C31.1635 13.125 32.1602 12.893 32.9509 12.429C33.7416 11.965 34.3311 11.3045 34.7193 10.4474C35.1076 9.59044 35.3017 8.57008 35.3017 7.38636C35.3017 6.21212 35.11 5.20123 34.7265 4.35369C34.3429 3.50142 33.77 2.84801 33.0077 2.39347C32.2454 1.93419 31.2961 1.70455 30.1597 1.70455H27.3472V13.125Z" fill="#5E7CF2"/>
</svg>
