<svg width="520" height="30" viewBox="0 0 520 30" fill="none" xmlns="http://www.w3.org/2000/svg">
<path d="M5.54323e-05 29.4886V0.397738H10.9091C13.144 0.397738 15.019 0.785995 16.5341 1.56251C18.0588 2.33903 19.2093 3.42804 19.9859 4.82956C20.7718 6.2216 21.1648 7.84565 21.1648 9.70171C21.1648 11.5672 20.7671 13.1866 19.9716 14.5597C19.1857 15.9233 18.0256 16.9792 16.4915 17.7273C14.9574 18.4659 13.073 18.8352 10.8381 18.8352H3.06824V14.4602H10.1279C11.4347 14.4602 12.5048 14.2803 13.3381 13.9205C14.1715 13.5511 14.787 13.0161 15.1847 12.3154C15.5919 11.6051 15.7955 10.7339 15.7955 9.70171C15.7955 8.66952 15.5919 7.78884 15.1847 7.05967C14.7775 6.32103 14.1573 5.76232 13.3239 5.38353C12.4906 4.99528 11.4158 4.80115 10.0995 4.80115H5.26994V29.4886H5.54323e-05ZM15.0285 16.3068L22.2302 29.4886H16.3495L9.27562 16.3068H15.0285ZM26.0157 29.4886V0.397738H44.9361V4.81535H31.2856V12.7131H43.956V17.1307H31.2856V25.071H45.0498V29.4886H26.0157ZM75.2131 10.2131H69.9006C69.7491 9.34187 69.4698 8.57009 69.0626 7.89774C68.6554 7.21592 68.1487 6.63827 67.5427 6.16478C66.9366 5.6913 66.2453 5.33618 65.4688 5.09944C64.7018 4.85323 63.8732 4.73012 62.983 4.73012C61.4016 4.73012 60.0001 5.12785 58.7785 5.92331C57.5569 6.70929 56.6004 7.86459 55.9091 9.38921C55.2179 10.9044 54.8722 12.7557 54.8722 14.9432C54.8722 17.1686 55.2179 19.0436 55.9091 20.5682C56.6099 22.0833 57.5663 23.2292 58.7785 24.0057C60.0001 24.7727 61.3968 25.1563 62.9688 25.1563C63.84 25.1563 64.6544 25.0426 65.412 24.8154C66.179 24.5786 66.8656 24.233 67.4716 23.7784C68.0872 23.3239 68.6033 22.7652 69.0199 22.1023C69.4461 21.4394 69.7396 20.6818 69.9006 19.8296L75.2131 19.858C75.0143 21.2405 74.5834 22.5379 73.9205 23.75C73.2671 24.9621 72.4101 26.0322 71.3495 26.9602C70.2889 27.8788 69.0484 28.5985 67.6279 29.1193C66.2074 29.6307 64.6307 29.8864 62.8978 29.8864C60.341 29.8864 58.0588 29.2945 56.0512 28.1108C54.0436 26.9271 52.4622 25.2178 51.3069 22.983C50.1516 20.7481 49.5739 18.0682 49.5739 14.9432C49.5739 11.8087 50.1563 9.1288 51.3211 6.90342C52.4859 4.66857 54.072 2.95929 56.0796 1.77558C58.0872 0.591866 60.3599 1.00136e-05 62.8978 1.00136e-05C64.5171 1.00136e-05 66.0228 0.227283 67.4148 0.681828C68.8069 1.13637 70.0474 1.80399 71.1364 2.68467C72.2254 3.55588 73.1203 4.62596 73.8211 5.8949C74.5313 7.15437 74.9953 8.59376 75.2131 10.2131ZM106.033 14.9432C106.033 18.0777 105.446 20.7623 104.272 22.9972C103.107 25.2225 101.516 26.9271 99.4993 28.1108C97.4918 29.2945 95.2143 29.8864 92.667 29.8864C90.1196 29.8864 87.8374 29.2945 85.8204 28.1108C83.8128 26.9176 82.2219 25.2083 81.0476 22.983C79.8829 20.7481 79.3005 18.0682 79.3005 14.9432C79.3005 11.8087 79.8829 9.1288 81.0476 6.90342C82.2219 4.66857 83.8128 2.95929 85.8204 1.77558C87.8374 0.591866 90.1196 1.00136e-05 92.667 1.00136e-05C95.2143 1.00136e-05 97.4918 0.591866 99.4993 1.77558C101.516 2.95929 103.107 4.66857 104.272 6.90342C105.446 9.1288 106.033 11.8087 106.033 14.9432ZM100.735 14.9432C100.735 12.7368 100.389 10.876 99.6982 9.36081C99.0164 7.83618 98.0694 6.68562 96.8573 5.9091C95.6452 5.12312 94.2484 4.73012 92.667 4.73012C91.0855 4.73012 89.6887 5.12312 88.4766 5.9091C87.2645 6.68562 86.3128 7.83618 85.6215 9.36081C84.9397 10.876 84.5988 12.7368 84.5988 14.9432C84.5988 17.1496 84.9397 19.0152 85.6215 20.5398C86.3128 22.0549 87.2645 23.2055 88.4766 23.9915C89.6887 24.768 91.0855 25.1563 92.667 25.1563C94.2484 25.1563 95.6452 24.768 96.8573 23.9915C98.0694 23.2055 99.0164 22.0549 99.6982 20.5398C100.389 19.0152 100.735 17.1496 100.735 14.9432ZM120.874 29.4886H111.016V0.397738H121.072C123.961 0.397738 126.442 0.980124 128.516 2.1449C130.599 3.3002 132.199 4.96213 133.317 7.13069C134.434 9.29925 134.993 11.894 134.993 14.9148C134.993 17.9451 134.43 20.5493 133.303 22.7273C132.185 24.9053 130.571 26.5767 128.459 27.7415C126.357 28.9063 123.828 29.4886 120.874 29.4886ZM116.286 24.929H120.618C122.644 24.929 124.335 24.5597 125.689 23.821C127.043 23.0729 128.061 21.9602 128.743 20.483C129.425 18.9962 129.766 17.1402 129.766 14.9148C129.766 12.6894 129.425 10.8428 128.743 9.37501C128.061 7.89774 127.053 6.79452 125.717 6.06535C124.392 5.32672 122.744 4.9574 120.774 4.9574H116.286V24.929ZM145.27 0.397738V29.4886H140V0.397738H145.27ZM174.883 0.397738V29.4886H170.195L156.488 9.67331H156.247V29.4886H150.977V0.397738H155.693L169.386 20.2273H169.641V0.397738H174.883ZM200.114 9.68751C199.877 8.92046 199.55 8.23391 199.134 7.62785C198.726 7.01232 198.234 6.48675 197.656 6.05115C197.088 5.61554 196.435 5.28884 195.696 5.07103C194.957 4.84376 194.153 4.73012 193.281 4.73012C191.719 4.73012 190.327 5.12312 189.105 5.9091C187.884 6.69509 186.922 7.85039 186.222 9.37501C185.53 10.8902 185.185 12.7368 185.185 14.9148C185.185 17.1118 185.53 18.9725 186.222 20.4972C186.913 22.0218 187.874 23.1818 189.105 23.9773C190.336 24.7633 191.766 25.1563 193.395 25.1563C194.872 25.1563 196.151 24.8722 197.23 24.304C198.319 23.7358 199.157 22.9309 199.744 21.8892C200.331 20.8381 200.625 19.607 200.625 18.196L201.818 18.3807H193.921V14.2614H205.724V17.7557C205.724 20.2462 205.194 22.4006 204.134 24.2188C203.073 26.0369 201.615 27.4385 199.759 28.4233C197.903 29.3987 195.772 29.8864 193.367 29.8864C190.687 29.8864 188.333 29.285 186.307 28.0824C184.29 26.8703 182.713 25.1515 181.577 22.9261C180.45 20.6913 179.886 18.0398 179.886 14.9716C179.886 12.6231 180.218 10.5256 180.881 8.67899C181.553 6.8324 182.491 5.26516 183.693 3.97728C184.896 2.67993 186.307 1.69509 187.926 1.02274C189.546 0.340919 191.307 1.00136e-05 193.21 1.00136e-05C194.82 1.00136e-05 196.321 0.236753 197.713 0.710238C199.105 1.17425 200.341 1.83713 201.421 2.69887C202.51 3.56062 203.404 4.58334 204.105 5.76706C204.806 6.95077 205.265 8.25759 205.483 9.68751H200.114ZM218.754 0.397738H224.705L231.822 13.2671H232.106L239.222 0.397738H245.174L234.592 18.6364V29.4886H229.336V18.6364L218.754 0.397738ZM273.26 14.9432C273.26 18.0777 272.673 20.7623 271.499 22.9972C270.334 25.2225 268.743 26.9271 266.726 28.1108C264.718 29.2945 262.441 29.8864 259.894 29.8864C257.346 29.8864 255.064 29.2945 253.047 28.1108C251.039 26.9176 249.448 25.2083 248.274 22.983C247.109 20.7481 246.527 18.0682 246.527 14.9432C246.527 11.8087 247.109 9.1288 248.274 6.90342C249.448 4.66857 251.039 2.95929 253.047 1.77558C255.064 0.591866 257.346 1.00136e-05 259.894 1.00136e-05C262.441 1.00136e-05 264.718 0.591866 266.726 1.77558C268.743 2.95929 270.334 4.66857 271.499 6.90342C272.673 9.1288 273.26 11.8087 273.26 14.9432ZM267.962 14.9432C267.962 12.7368 267.616 10.876 266.925 9.36081C266.243 7.83618 265.296 6.68562 264.084 5.9091C262.872 5.12312 261.475 4.73012 259.894 4.73012C258.312 4.73012 256.915 5.12312 255.703 5.9091C254.491 6.68562 253.539 7.83618 252.848 9.36081C252.166 10.876 251.825 12.7368 251.825 14.9432C251.825 17.1496 252.166 19.0152 252.848 20.5398C253.539 22.0549 254.491 23.2055 255.703 23.9915C256.915 24.768 258.312 25.1563 259.894 25.1563C261.475 25.1563 262.872 24.768 264.084 23.9915C265.296 23.2055 266.243 22.0549 266.925 20.5398C267.616 19.0152 267.962 17.1496 267.962 14.9432ZM296.58 0.397738H301.85V19.4034C301.85 21.4868 301.358 23.3191 300.373 24.9006C299.398 26.482 298.024 27.7178 296.254 28.608C294.483 29.4886 292.414 29.929 290.046 29.929C287.669 29.929 285.595 29.4886 283.825 28.608C282.054 27.7178 280.681 26.482 279.705 24.9006C278.73 23.3191 278.242 21.4868 278.242 19.4034V0.397738H283.512V18.9631C283.512 20.1752 283.777 21.2547 284.308 22.2017C284.847 23.1487 285.605 23.8921 286.58 24.4318C287.556 24.9621 288.711 25.2273 290.046 25.2273C291.381 25.2273 292.537 24.9621 293.512 24.4318C294.497 23.8921 295.255 23.1487 295.785 22.2017C296.315 21.2547 296.58 20.1752 296.58 18.9631V0.397738ZM307.578 29.4886V0.397738H318.487C320.722 0.397738 322.597 0.785995 324.112 1.56251C325.637 2.33903 326.787 3.42804 327.564 4.82956C328.35 6.2216 328.743 7.84565 328.743 9.70171C328.743 11.5672 328.345 13.1866 327.55 14.5597C326.764 15.9233 325.604 16.9792 324.07 17.7273C322.536 18.4659 320.651 18.8352 318.416 18.8352H310.646V14.4602H317.706C319.013 14.4602 320.083 14.2803 320.916 13.9205C321.75 13.5511 322.365 13.0161 322.763 12.3154C323.17 11.6051 323.374 10.7339 323.374 9.70171C323.374 8.66952 323.17 7.78884 322.763 7.05967C322.356 6.32103 321.735 5.76232 320.902 5.38353C320.069 4.99528 318.994 4.80115 317.678 4.80115H312.848V29.4886H307.578ZM322.607 16.3068L329.808 29.4886H323.928L316.854 16.3068H322.607ZM347.408 0.397738L354.979 23.2955H355.277L362.834 0.397738H368.629L358.374 29.4886H351.868L341.626 0.397738H347.408ZM377.731 0.397738V29.4886H372.461V0.397738H377.731ZM382.159 4.81535V0.397738H405.369V4.81535H396.378V29.4886H391.151V4.81535H382.159ZM410.064 29.4886H404.439L414.68 0.397738H421.186L431.442 29.4886H425.817L418.047 6.36365H417.82L410.064 29.4886ZM410.249 18.0824H425.59V22.3154H410.249V18.0824ZM435.273 29.4886V0.397738H440.543V25.071H453.356V29.4886H435.273ZM463.2 0.397738V29.4886H457.93V0.397738H463.2ZM467.628 4.81535V0.397738H490.838V4.81535H481.847V29.4886H476.619V4.81535H467.628ZM493.324 0.397738H499.276L506.392 13.2671H506.676L513.793 0.397738H519.744L509.162 18.6364V29.4886H503.906V18.6364L493.324 0.397738Z" fill="white"/>
</svg>
