<svg width="255" height="43" viewBox="0 0 255 43" fill="none" xmlns="http://www.w3.org/2000/svg">
<path d="M-0.000110865 14.5454V-4.48227e-05H4.91466C6.05103 -4.48227e-05 6.98379 0.194084 7.71296 0.582341C8.44212 0.965864 8.9819 1.4938 9.33228 2.16615C9.68265 2.8385 9.85784 3.60318 9.85784 4.46018C9.85784 5.31719 9.68265 6.07713 9.33228 6.74001C8.9819 7.40289 8.44449 7.92372 7.72006 8.30251C6.99563 8.67657 6.06997 8.86359 4.94307 8.86359H0.965798V7.27268H4.88625C5.66277 7.27268 6.28777 7.15905 6.76125 6.93177C7.23947 6.7045 7.58512 6.38253 7.79818 5.96586C8.01599 5.54446 8.12489 5.04257 8.12489 4.46018C8.12489 3.8778 8.01599 3.3688 7.79818 2.93319C7.58038 2.49759 7.23237 2.16141 6.75415 1.92467C6.27593 1.68319 5.64383 1.56246 4.85784 1.56246H1.76125V14.5454H-0.000110865ZM6.84648 8.01132L10.426 14.5454H8.38057L4.85784 8.01132H6.84648ZM17.0223 14.7727C15.9711 14.7727 15.0644 14.5407 14.3021 14.0767C13.5445 13.6079 12.9598 12.9545 12.5478 12.1164C12.1406 11.2736 11.937 10.2935 11.937 9.17609C11.937 8.05867 12.1406 7.07382 12.5478 6.22155C12.9598 5.36454 13.5327 4.69693 14.2666 4.21871C15.0052 3.73575 15.867 3.49427 16.8518 3.49427C17.42 3.49427 17.9811 3.58897 18.535 3.77836C19.089 3.96776 19.5933 4.27552 20.0478 4.70166C20.5024 5.12306 20.8646 5.68177 21.1345 6.3778C21.4044 7.07382 21.5393 7.93083 21.5393 8.94882V9.65905H13.1302V8.21018H19.8348C19.8348 7.59465 19.7117 7.04541 19.4654 6.56246C19.224 6.0795 18.8783 5.69835 18.4285 5.41899C17.9834 5.13963 17.4579 4.99996 16.8518 4.99996C16.1842 4.99996 15.6065 5.16567 15.1189 5.49711C14.6359 5.82382 14.2642 6.24996 14.0038 6.77552C13.7434 7.30109 13.6132 7.86454 13.6132 8.46586V9.43177C13.6132 10.2556 13.7552 10.954 14.0393 11.5269C14.3281 12.0951 14.7282 12.5284 15.2396 12.8267C15.751 13.1202 16.3452 13.267 17.0223 13.267C17.4626 13.267 17.8603 13.2054 18.2154 13.0823C18.5753 12.9545 18.8854 12.7651 19.1458 12.5142C19.4063 12.2585 19.6075 11.9412 19.7495 11.5625L21.3689 12.017C21.1984 12.5662 20.9119 13.0492 20.5095 13.4659C20.107 13.8778 19.6099 14.1998 19.018 14.4318C18.4261 14.659 17.7609 14.7727 17.0223 14.7727ZM24.089 18.6363V3.63632H25.7083V5.36927H25.9072C26.0303 5.17988 26.2008 4.9384 26.4186 4.64484C26.6411 4.34655 26.9583 4.0814 27.3703 3.84939C27.7869 3.61265 28.3504 3.49427 29.0606 3.49427C29.9792 3.49427 30.7888 3.72391 31.4896 4.18319C32.1903 4.64247 32.7372 5.29352 33.1302 6.13632C33.5232 6.97912 33.7197 7.97344 33.7197 9.11927C33.7197 10.2746 33.5232 11.276 33.1302 12.1235C32.7372 12.9663 32.1927 13.6197 31.4967 14.0838C30.8007 14.543 29.9981 14.7727 29.089 14.7727C28.3883 14.7727 27.8272 14.6567 27.4058 14.4247C26.9844 14.1879 26.66 13.9204 26.4328 13.6221C26.2055 13.3191 26.0303 13.0681 25.9072 12.8693H25.7652V18.6363H24.089ZM25.7367 9.09086C25.7367 9.91473 25.8575 10.6415 26.099 11.2713C26.3404 11.8963 26.6932 12.3863 27.1572 12.7414C27.6212 13.0918 28.1894 13.267 28.8617 13.267C29.5625 13.267 30.1473 13.0823 30.616 12.713C31.0895 12.339 31.4446 11.8371 31.6814 11.2073C31.9228 10.5729 32.0436 9.86738 32.0436 9.09086C32.0436 8.32382 31.9252 7.63253 31.6885 7.017C31.4564 6.39674 31.1037 5.90668 30.6302 5.54683C30.1615 5.18225 29.572 4.99996 28.8617 4.99996C28.1799 4.99996 27.607 5.17278 27.143 5.51842C26.679 5.85933 26.3286 6.33755 26.0919 6.95308C25.8551 7.56388 25.7367 8.27647 25.7367 9.09086ZM40.8504 14.7727C39.7992 14.7727 38.8925 14.5407 38.1302 14.0767C37.3726 13.6079 36.7879 12.9545 36.376 12.1164C35.9688 11.2736 35.7652 10.2935 35.7652 9.17609C35.7652 8.05867 35.9688 7.07382 36.376 6.22155C36.7879 5.36454 37.3608 4.69693 38.0947 4.21871C38.8333 3.73575 39.6951 3.49427 40.6799 3.49427C41.2481 3.49427 41.8092 3.58897 42.3632 3.77836C42.9171 3.96776 43.4214 4.27552 43.876 4.70166C44.3305 5.12306 44.6927 5.68177 44.9626 6.3778C45.2325 7.07382 45.3674 7.93083 45.3674 8.94882V9.65905H36.9583V8.21018H43.6629C43.6629 7.59465 43.5398 7.04541 43.2936 6.56246C43.0521 6.0795 42.7064 5.69835 42.2566 5.41899C41.8116 5.13963 41.286 4.99996 40.6799 4.99996C40.0123 4.99996 39.4347 5.16567 38.947 5.49711C38.464 5.82382 38.0923 6.24996 37.8319 6.77552C37.5715 7.30109 37.4413 7.86454 37.4413 8.46586V9.43177C37.4413 10.2556 37.5833 10.954 37.8674 11.5269C38.1563 12.0951 38.5564 12.5284 39.0677 12.8267C39.5791 13.1202 40.1733 13.267 40.8504 13.267C41.2907 13.267 41.6885 13.2054 42.0436 13.0823C42.4034 12.9545 42.7135 12.7651 42.974 12.5142C43.2344 12.2585 43.4356 11.9412 43.5777 11.5625L45.197 12.017C45.0265 12.5662 44.7401 13.0492 44.3376 13.4659C43.9351 13.8778 43.438 14.1998 42.8461 14.4318C42.2543 14.659 41.589 14.7727 40.8504 14.7727ZM51.1274 14.8011C50.4361 14.8011 49.8087 14.6709 49.2453 14.4105C48.6818 14.1453 48.2344 13.7642 47.9029 13.267C47.5715 12.7651 47.4058 12.159 47.4058 11.4488C47.4058 10.8238 47.5289 10.3172 47.7751 9.92893C48.0213 9.53594 48.3504 9.22817 48.7623 9.00564C49.1742 8.7831 49.6288 8.61738 50.126 8.50848C50.6278 8.39484 51.1321 8.30488 51.6387 8.23859C52.3016 8.15336 52.839 8.08944 53.251 8.04683C53.6676 7.99948 53.9707 7.92136 54.16 7.81246C54.3542 7.70355 54.4512 7.51416 54.4512 7.24427V7.18746C54.4512 6.4867 54.2595 5.94219 53.876 5.55393C53.4972 5.16568 52.9219 4.97155 52.1501 4.97155C51.3499 4.97155 50.7225 5.14674 50.268 5.49711C49.8135 5.84749 49.4939 6.22155 49.3092 6.61927L47.7183 6.05109C48.0024 5.38821 48.3812 4.87211 48.8546 4.5028C49.3329 4.12874 49.8537 3.86833 50.4171 3.72155C50.9853 3.57003 51.544 3.49427 52.0933 3.49427C52.4437 3.49427 52.8461 3.53689 53.3007 3.62211C53.76 3.70261 54.2027 3.87069 54.6288 4.12638C55.0597 4.38206 55.4171 4.76795 55.7012 5.28405C55.9853 5.80014 56.1274 6.49143 56.1274 7.35791V14.5454H54.4512V13.0681H54.366C54.2524 13.3049 54.063 13.5582 53.7978 13.8281C53.5327 14.098 53.1799 14.3276 52.7396 14.517C52.2993 14.7064 51.7618 14.8011 51.1274 14.8011ZM51.3831 13.2954C52.0459 13.2954 52.6046 13.1652 53.0592 12.9048C53.5185 12.6444 53.8641 12.3082 54.0961 11.8963C54.3329 11.4843 54.4512 11.0511 54.4512 10.5965V9.06246C54.3802 9.14768 54.224 9.22581 53.9825 9.29683C53.7457 9.36312 53.4711 9.4223 53.1586 9.47439C52.8509 9.52174 52.5502 9.56435 52.2566 9.60223C51.9678 9.63537 51.7334 9.66378 51.5535 9.68746C51.1179 9.74427 50.7107 9.8366 50.3319 9.96444C49.9579 10.0876 49.6548 10.2746 49.4228 10.5255C49.1956 10.7717 49.0819 11.1079 49.0819 11.534C49.0819 12.1164 49.2974 12.5568 49.7282 12.8551C50.1638 13.1486 50.7154 13.2954 51.3831 13.2954ZM63.931 3.63632V5.05677H58.2776V3.63632H63.931ZM59.9253 1.02268H61.6015V11.4204C61.6015 11.8939 61.6701 12.249 61.8074 12.4858C61.9495 12.7178 62.1294 12.874 62.3472 12.9545C62.5697 13.0303 62.8041 13.0681 63.0503 13.0681C63.235 13.0681 63.3865 13.0587 63.5049 13.0397C63.6232 13.0161 63.7179 12.9971 63.789 12.9829L64.1299 14.4886C64.0162 14.5312 63.8576 14.5738 63.654 14.6164C63.4504 14.6638 63.1924 14.6875 62.8799 14.6875C62.4064 14.6875 61.9424 14.5857 61.4878 14.3821C61.038 14.1785 60.664 13.8683 60.3657 13.4517C60.0721 13.035 59.9253 12.5094 59.9253 11.875V1.02268ZM69.6625 14.8011C68.9712 14.8011 68.3439 14.6709 67.7804 14.4105C67.217 14.1453 66.7695 13.7642 66.4381 13.267C66.1067 12.7651 65.9409 12.159 65.9409 11.4488C65.9409 10.8238 66.064 10.3172 66.3103 9.92893C66.5565 9.53594 66.8855 9.22817 67.2975 9.00564C67.7094 8.7831 68.164 8.61738 68.6611 8.50848C69.163 8.39484 69.6673 8.30488 70.1739 8.23859C70.8368 8.15336 71.3742 8.08944 71.7861 8.04683C72.2028 7.99948 72.5058 7.92136 72.6952 7.81246C72.8893 7.70355 72.9864 7.51416 72.9864 7.24427V7.18746C72.9864 6.4867 72.7946 5.94219 72.4111 5.55393C72.0323 5.16568 71.457 4.97155 70.6853 4.97155C69.8851 4.97155 69.2577 5.14674 68.8032 5.49711C68.3486 5.84749 68.029 6.22155 67.8443 6.61927L66.2534 6.05109C66.5375 5.38821 66.9163 4.87211 67.3898 4.5028C67.868 4.12874 68.3889 3.86833 68.9523 3.72155C69.5205 3.57003 70.0792 3.49427 70.6284 3.49427C70.9788 3.49427 71.3813 3.53689 71.8358 3.62211C72.2951 3.70261 72.7378 3.87069 73.164 4.12638C73.5948 4.38206 73.9523 4.76795 74.2364 5.28405C74.5205 5.80014 74.6625 6.49143 74.6625 7.35791V14.5454H72.9864V13.0681H72.9012C72.7875 13.3049 72.5981 13.5582 72.333 13.8281C72.0678 14.098 71.7151 14.3276 71.2747 14.517C70.8344 14.7064 70.297 14.8011 69.6625 14.8011ZM69.9182 13.2954C70.5811 13.2954 71.1398 13.1652 71.5943 12.9048C72.0536 12.6444 72.3993 12.3082 72.6313 11.8963C72.868 11.4843 72.9864 11.0511 72.9864 10.5965V9.06246C72.9154 9.14768 72.7591 9.22581 72.5176 9.29683C72.2809 9.36312 72.0063 9.4223 71.6938 9.47439C71.386 9.52174 71.0854 9.56435 70.7918 9.60223C70.503 9.63537 70.2686 9.66378 70.0887 9.68746C69.6531 9.74427 69.2459 9.8366 68.8671 9.96444C68.493 10.0876 68.19 10.2746 67.958 10.5255C67.7307 10.7717 67.6171 11.1079 67.6171 11.534C67.6171 12.1164 67.8325 12.5568 68.2634 12.8551C68.699 13.1486 69.2506 13.2954 69.9182 13.2954ZM77.9491 14.5454V-4.48227e-05H79.6252V5.36927H79.7673C79.8904 5.17988 80.0609 4.9384 80.2787 4.64484C80.5012 4.34655 80.8184 4.0814 81.2304 3.84939C81.647 3.61265 82.2105 3.49427 82.9207 3.49427C83.8393 3.49427 84.6489 3.72391 85.3497 4.18319C86.0504 4.64247 86.5973 5.29352 86.9903 6.13632C87.3833 6.97912 87.5798 7.97344 87.5798 9.11927C87.5798 10.2746 87.3833 11.276 86.9903 12.1235C86.5973 12.9663 86.0528 13.6197 85.3568 14.0838C84.6608 14.543 83.8582 14.7727 82.9491 14.7727C82.2484 14.7727 81.6873 14.6567 81.2659 14.4247C80.8445 14.1879 80.5201 13.9204 80.2929 13.6221C80.0656 13.3191 79.8904 13.0681 79.7673 12.8693H79.5684V14.5454H77.9491ZM79.5968 9.09086C79.5968 9.91473 79.7176 10.6415 79.9591 11.2713C80.2005 11.8963 80.5533 12.3863 81.0173 12.7414C81.4813 13.0918 82.0495 13.267 82.7218 13.267C83.4226 13.267 84.0073 13.0823 84.4761 12.713C84.9496 12.339 85.3047 11.8371 85.5414 11.2073C85.7829 10.5729 85.9037 9.86738 85.9037 9.09086C85.9037 8.32382 85.7853 7.63253 85.5485 7.017C85.3165 6.39674 84.9638 5.90668 84.4903 5.54683C84.0216 5.18225 83.4321 4.99996 82.7218 4.99996C82.04 4.99996 81.4671 5.17278 81.0031 5.51842C80.5391 5.85933 80.1887 6.33755 79.9519 6.95308C79.7152 7.56388 79.5968 8.27647 79.5968 9.09086ZM91.8198 -4.48227e-05V14.5454H90.1437V-4.48227e-05H91.8198ZM99.4637 14.7727C98.4125 14.7727 97.5058 14.5407 96.7435 14.0767C95.9859 13.6079 95.4012 12.9545 94.9892 12.1164C94.582 11.2736 94.3784 10.2935 94.3784 9.17609C94.3784 8.05867 94.582 7.07382 94.9892 6.22155C95.4012 5.36454 95.9741 4.69693 96.708 4.21871C97.4466 3.73575 98.3084 3.49427 99.2932 3.49427C99.8614 3.49427 100.422 3.58897 100.976 3.77836C101.53 3.96776 102.035 4.27552 102.489 4.70166C102.944 5.12306 103.306 5.68177 103.576 6.3778C103.846 7.07382 103.981 7.93083 103.981 8.94882V9.65905H95.5716V8.21018H102.276C102.276 7.59465 102.153 7.04541 101.907 6.56246C101.665 6.0795 101.32 5.69835 100.87 5.41899C100.425 5.13963 99.8993 4.99996 99.2932 4.99996C98.6256 4.99996 98.0479 5.16567 97.5603 5.49711C97.0773 5.82382 96.7056 6.24996 96.4452 6.77552C96.1848 7.30109 96.0546 7.86454 96.0546 8.46586V9.43177C96.0546 10.2556 96.1966 10.954 96.4807 11.5269C96.7695 12.0951 97.1696 12.5284 97.681 12.8267C98.1924 13.1202 98.7866 13.267 99.4637 13.267C99.904 13.267 100.302 13.2054 100.657 13.0823C101.017 12.9545 101.327 12.7651 101.587 12.5142C101.848 12.2585 102.049 11.9412 102.191 11.5625L103.81 12.017C103.64 12.5662 103.353 13.0492 102.951 13.4659C102.548 13.8778 102.051 14.1998 101.459 14.4318C100.868 14.659 100.202 14.7727 99.4637 14.7727ZM112.155 18.6363V3.63632H113.775V5.36927H113.974C114.097 5.17988 114.267 4.9384 114.485 4.64484C114.708 4.34655 115.025 4.0814 115.437 3.84939C115.853 3.61265 116.417 3.49427 117.127 3.49427C118.046 3.49427 118.855 3.72391 119.556 4.18319C120.257 4.64247 120.804 5.29352 121.197 6.13632C121.59 6.97912 121.786 7.97344 121.786 9.11927C121.786 10.2746 121.59 11.276 121.197 12.1235C120.804 12.9663 120.259 13.6197 119.563 14.0838C118.867 14.543 118.065 14.7727 117.155 14.7727C116.455 14.7727 115.894 14.6567 115.472 14.4247C115.051 14.1879 114.726 13.9204 114.499 13.6221C114.272 13.3191 114.097 13.0681 113.974 12.8693H113.832V18.6363H112.155ZM113.803 9.09086C113.803 9.91473 113.924 10.6415 114.165 11.2713C114.407 11.8963 114.76 12.3863 115.224 12.7414C115.688 13.0918 116.256 13.267 116.928 13.267C117.629 13.267 118.214 13.0823 118.682 12.713C119.156 12.339 119.511 11.8371 119.748 11.2073C119.989 10.5729 120.11 9.86738 120.11 9.09086C120.11 8.32382 119.992 7.63253 119.755 7.017C119.523 6.39674 119.17 5.90668 118.697 5.54683C118.228 5.18225 117.638 4.99996 116.928 4.99996C116.246 4.99996 115.673 5.17278 115.209 5.51842C114.745 5.85933 114.395 6.33755 114.158 6.95308C113.922 7.56388 113.803 8.27647 113.803 9.09086ZM124.343 14.5454V3.63632H125.962V5.28405H126.076C126.275 4.74427 126.635 4.3063 127.155 3.97013C127.676 3.63395 128.263 3.46586 128.917 3.46586C129.04 3.46586 129.194 3.46823 129.378 3.47297C129.563 3.4777 129.703 3.4848 129.797 3.49427V5.19882C129.741 5.18461 129.61 5.16331 129.407 5.1349C129.208 5.10175 128.997 5.08518 128.775 5.08518C128.244 5.08518 127.771 5.19645 127.354 5.41899C126.942 5.63679 126.616 5.93982 126.374 6.32808C126.137 6.7116 126.019 7.14958 126.019 7.642V14.5454H124.343ZM135.884 14.7727C134.899 14.7727 134.035 14.5383 133.292 14.0696C132.553 13.6008 131.976 12.945 131.559 12.1022C131.147 11.2594 130.941 10.2746 130.941 9.14768C130.941 8.01132 131.147 7.01937 131.559 6.17183C131.976 5.32429 132.553 4.66615 133.292 4.1974C134.035 3.72865 134.899 3.49427 135.884 3.49427C136.869 3.49427 137.731 3.72865 138.469 4.1974C139.213 4.66615 139.79 5.32429 140.202 6.17183C140.619 7.01937 140.827 8.01132 140.827 9.14768C140.827 10.2746 140.619 11.2594 140.202 12.1022C139.79 12.945 139.213 13.6008 138.469 14.0696C137.731 14.5383 136.869 14.7727 135.884 14.7727ZM135.884 13.267C136.632 13.267 137.248 13.0752 137.731 12.6917C138.214 12.3082 138.571 11.8039 138.803 11.1789C139.035 10.5539 139.151 9.87685 139.151 9.14768C139.151 8.41852 139.035 7.73907 138.803 7.10933C138.571 6.4796 138.214 5.9706 137.731 5.58234C137.248 5.19408 136.632 4.99996 135.884 4.99996C135.136 4.99996 134.52 5.19408 134.038 5.58234C133.555 5.9706 133.197 6.4796 132.965 7.10933C132.733 7.73907 132.617 8.41852 132.617 9.14768C132.617 9.87685 132.733 10.5539 132.965 11.1789C133.197 11.8039 133.555 12.3082 134.038 12.6917C134.52 13.0752 135.136 13.267 135.884 13.267ZM147.818 14.7727C146.795 14.7727 145.914 14.5312 145.176 14.0483C144.437 13.5653 143.869 12.9001 143.471 12.0525C143.073 11.205 142.875 10.2367 142.875 9.14768C142.875 8.03973 143.078 7.06198 143.485 6.21444C143.897 5.36217 144.47 4.69693 145.204 4.21871C145.943 3.73575 146.804 3.49427 147.789 3.49427C148.556 3.49427 149.248 3.63632 149.863 3.92041C150.479 4.2045 150.983 4.60223 151.376 5.11359C151.769 5.62496 152.013 6.22155 152.107 6.90336H150.431C150.304 6.40621 150.019 5.96586 149.579 5.58234C149.143 5.19408 148.556 4.99996 147.818 4.99996C147.164 4.99996 146.591 5.17041 146.099 5.51132C145.611 5.84749 145.23 6.32335 144.955 6.93888C144.686 7.54967 144.551 8.267 144.551 9.09086C144.551 9.93367 144.683 10.6676 144.948 11.2926C145.218 11.9176 145.597 12.4029 146.085 12.7485C146.577 13.0942 147.155 13.267 147.818 13.267C148.253 13.267 148.649 13.1912 149.004 13.0397C149.359 12.8882 149.66 12.6704 149.906 12.3863C150.152 12.1022 150.327 11.7613 150.431 11.3636H152.107C152.013 12.0075 151.778 12.5876 151.404 13.1036C151.035 13.615 150.545 14.0222 149.934 14.3252C149.328 14.6235 148.623 14.7727 147.818 14.7727ZM159.132 14.7727C158.08 14.7727 157.174 14.5407 156.411 14.0767C155.654 13.6079 155.069 12.9545 154.657 12.1164C154.25 11.2736 154.046 10.2935 154.046 9.17609C154.046 8.05867 154.25 7.07382 154.657 6.22155C155.069 5.36454 155.642 4.69693 156.376 4.21871C157.115 3.73575 157.976 3.49427 158.961 3.49427C159.529 3.49427 160.09 3.58897 160.644 3.77836C161.198 3.96776 161.703 4.27552 162.157 4.70166C162.612 5.12306 162.974 5.68177 163.244 6.3778C163.514 7.07382 163.649 7.93083 163.649 8.94882V9.65905H155.24V8.21018H161.944C161.944 7.59465 161.821 7.04541 161.575 6.56246C161.333 6.0795 160.988 5.69835 160.538 5.41899C160.093 5.13963 159.567 4.99996 158.961 4.99996C158.294 4.99996 157.716 5.16567 157.228 5.49711C156.745 5.82382 156.374 6.24996 156.113 6.77552C155.853 7.30109 155.723 7.86454 155.723 8.46586V9.43177C155.723 10.2556 155.865 10.954 156.149 11.5269C156.438 12.0951 156.838 12.5284 157.349 12.8267C157.86 13.1202 158.455 13.267 159.132 13.267C159.572 13.267 159.97 13.2054 160.325 13.0823C160.685 12.9545 160.995 12.7651 161.255 12.5142C161.516 12.2585 161.717 11.9412 161.859 11.5625L163.478 12.017C163.308 12.5662 163.021 13.0492 162.619 13.4659C162.216 13.8778 161.719 14.1998 161.127 14.4318C160.536 14.659 159.87 14.7727 159.132 14.7727ZM173.926 6.0795L172.42 6.50564C172.325 6.25469 172.186 6.01085 172.001 5.7741C171.821 5.53263 171.575 5.33376 171.262 5.17751C170.95 5.02126 170.55 4.94314 170.062 4.94314C169.394 4.94314 168.838 5.09702 168.393 5.40479C167.953 5.70782 167.732 6.09371 167.732 6.56246C167.732 6.97912 167.884 7.30819 168.187 7.54967C168.49 7.79115 168.964 7.99238 169.607 8.15336L171.227 8.55109C172.202 8.78783 172.929 9.15005 173.407 9.63774C173.885 10.1207 174.125 10.7433 174.125 11.5056C174.125 12.1306 173.945 12.6893 173.585 13.1818C173.23 13.6742 172.732 14.0625 172.093 14.3465C171.454 14.6306 170.711 14.7727 169.863 14.7727C168.75 14.7727 167.83 14.5312 167.1 14.0483C166.371 13.5653 165.91 12.8598 165.715 11.9318L167.306 11.534C167.458 12.1212 167.744 12.5615 168.166 12.8551C168.592 13.1486 169.148 13.2954 169.835 13.2954C170.616 13.2954 171.236 13.1297 171.696 12.7983C172.16 12.4621 172.392 12.0596 172.392 11.5909C172.392 11.2121 172.259 10.8948 171.994 10.6392C171.729 10.3787 171.322 10.1846 170.772 10.0568L168.954 9.63064C167.955 9.3939 167.221 9.02694 166.752 8.52979C166.288 8.02789 166.056 7.40052 166.056 6.64768C166.056 6.03215 166.229 5.48764 166.575 5.01416C166.925 4.54068 167.401 4.16899 168.002 3.8991C168.608 3.62922 169.295 3.49427 170.062 3.49427C171.142 3.49427 171.989 3.73102 172.605 4.2045C173.225 4.67799 173.665 5.30299 173.926 6.0795ZM184.375 6.0795L182.869 6.50564C182.775 6.25469 182.635 6.01085 182.45 5.7741C182.27 5.53263 182.024 5.33376 181.712 5.17751C181.399 5.02126 180.999 4.94314 180.511 4.94314C179.844 4.94314 179.287 5.09702 178.842 5.40479C178.402 5.70782 178.182 6.09371 178.182 6.56246C178.182 6.97912 178.333 7.30819 178.636 7.54967C178.939 7.79115 179.413 7.99238 180.057 8.15336L181.676 8.55109C182.651 8.78783 183.378 9.15005 183.856 9.63774C184.335 10.1207 184.574 10.7433 184.574 11.5056C184.574 12.1306 184.394 12.6893 184.034 13.1818C183.679 13.6742 183.182 14.0625 182.543 14.3465C181.903 14.6306 181.16 14.7727 180.312 14.7727C179.2 14.7727 178.279 14.5312 177.55 14.0483C176.82 13.5653 176.359 12.8598 176.165 11.9318L177.756 11.534C177.907 12.1212 178.194 12.5615 178.615 12.8551C179.041 13.1486 179.597 13.2954 180.284 13.2954C181.065 13.2954 181.685 13.1297 182.145 12.7983C182.609 12.4621 182.841 12.0596 182.841 11.5909C182.841 11.2121 182.708 10.8948 182.443 10.6392C182.178 10.3787 181.771 10.1846 181.221 10.0568L179.403 9.63064C178.404 9.3939 177.67 9.02694 177.202 8.52979C176.738 8.02789 176.506 7.40052 176.506 6.64768C176.506 6.03215 176.678 5.48764 177.024 5.01416C177.374 4.54068 177.85 4.16899 178.452 3.8991C179.058 3.62922 179.744 3.49427 180.511 3.49427C181.591 3.49427 182.438 3.73102 183.054 4.2045C183.674 4.67799 184.114 5.30299 184.375 6.0795ZM191.671 14.7727C190.62 14.7727 189.713 14.5407 188.951 14.0767C188.193 13.6079 187.608 12.9545 187.196 12.1164C186.789 11.2736 186.585 10.2935 186.585 9.17609C186.585 8.05867 186.789 7.07382 187.196 6.22155C187.608 5.36454 188.181 4.69693 188.915 4.21871C189.654 3.73575 190.515 3.49427 191.5 3.49427C192.068 3.49427 192.63 3.58897 193.183 3.77836C193.737 3.96776 194.242 4.27552 194.696 4.70166C195.151 5.12306 195.513 5.68177 195.783 6.3778C196.053 7.07382 196.188 7.93083 196.188 8.94882V9.65905H187.779V8.21018H194.483C194.483 7.59465 194.36 7.04541 194.114 6.56246C193.872 6.0795 193.527 5.69835 193.077 5.41899C192.632 5.13963 192.106 4.99996 191.5 4.99996C190.833 4.99996 190.255 5.16567 189.767 5.49711C189.284 5.82382 188.913 6.24996 188.652 6.77552C188.392 7.30109 188.262 7.86454 188.262 8.46586V9.43177C188.262 10.2556 188.404 10.954 188.688 11.5269C188.977 12.0951 189.377 12.5284 189.888 12.8267C190.399 13.1202 190.994 13.267 191.671 13.267C192.111 13.267 192.509 13.2054 192.864 13.0823C193.224 12.9545 193.534 12.7651 193.794 12.5142C194.055 12.2585 194.256 11.9412 194.398 11.5625L196.017 12.017C195.847 12.5662 195.56 13.0492 195.158 13.4659C194.755 13.8778 194.258 14.1998 193.666 14.4318C193.075 14.659 192.409 14.7727 191.671 14.7727ZM206.465 6.0795L204.959 6.50564C204.864 6.25469 204.725 6.01085 204.54 5.7741C204.36 5.53263 204.114 5.33376 203.801 5.17751C203.489 5.02126 203.089 4.94314 202.601 4.94314C201.933 4.94314 201.377 5.09702 200.932 5.40479C200.492 5.70782 200.272 6.09371 200.272 6.56246C200.272 6.97912 200.423 7.30819 200.726 7.54967C201.029 7.79115 201.503 7.99238 202.147 8.15336L203.766 8.55109C204.741 8.78783 205.468 9.15005 205.946 9.63774C206.424 10.1207 206.664 10.7433 206.664 11.5056C206.664 12.1306 206.484 12.6893 206.124 13.1818C205.769 13.6742 205.272 14.0625 204.632 14.3465C203.993 14.6306 203.25 14.7727 202.402 14.7727C201.29 14.7727 200.369 14.5312 199.639 14.0483C198.91 13.5653 198.449 12.8598 198.255 11.9318L199.845 11.534C199.997 12.1212 200.283 12.5615 200.705 12.8551C201.131 13.1486 201.687 13.2954 202.374 13.2954C203.155 13.2954 203.775 13.1297 204.235 12.7983C204.699 12.4621 204.931 12.0596 204.931 11.5909C204.931 11.2121 204.798 10.8948 204.533 10.6392C204.268 10.3787 203.861 10.1846 203.311 10.0568L201.493 9.63064C200.494 9.3939 199.76 9.02694 199.291 8.52979C198.827 8.02789 198.595 7.40052 198.595 6.64768C198.595 6.03215 198.768 5.48764 199.114 5.01416C199.464 4.54068 199.94 4.16899 200.541 3.8991C201.147 3.62922 201.834 3.49427 202.601 3.49427C203.681 3.49427 204.528 3.73102 205.144 4.2045C205.764 4.67799 206.204 5.30299 206.465 6.0795ZM219.243 14.7727C218.259 14.7727 217.395 14.5383 216.651 14.0696C215.913 13.6008 215.335 12.945 214.918 12.1022C214.506 11.2594 214.3 10.2746 214.3 9.14768C214.3 8.01132 214.506 7.01937 214.918 6.17183C215.335 5.32429 215.913 4.66615 216.651 4.1974C217.395 3.72865 218.259 3.49427 219.243 3.49427C220.228 3.49427 221.09 3.72865 221.829 4.1974C222.572 4.66615 223.15 5.32429 223.562 6.17183C223.978 7.01937 224.187 8.01132 224.187 9.14768C224.187 10.2746 223.978 11.2594 223.562 12.1022C223.15 12.945 222.572 13.6008 221.829 14.0696C221.09 14.5383 220.228 14.7727 219.243 14.7727ZM219.243 13.267C219.992 13.267 220.607 13.0752 221.09 12.6917C221.573 12.3082 221.931 11.8039 222.163 11.1789C222.395 10.5539 222.511 9.87685 222.511 9.14768C222.511 8.41852 222.395 7.73907 222.163 7.10933C221.931 6.4796 221.573 5.9706 221.09 5.58234C220.607 5.19408 219.992 4.99996 219.243 4.99996C218.495 4.99996 217.88 5.19408 217.397 5.58234C216.914 5.9706 216.556 6.4796 216.324 7.10933C216.092 7.73907 215.976 8.41852 215.976 9.14768C215.976 9.87685 216.092 10.5539 216.324 11.1789C216.556 11.8039 216.914 12.3082 217.397 12.6917C217.88 13.0752 218.495 13.267 219.243 13.267ZM235.275 3.63632L231.241 14.5454H229.536L225.502 3.63632H227.321L230.332 12.3295H230.446L233.457 3.63632H235.275ZM241.671 14.7727C240.62 14.7727 239.713 14.5407 238.951 14.0767C238.193 13.6079 237.608 12.9545 237.196 12.1164C236.789 11.2736 236.585 10.2935 236.585 9.17609C236.585 8.05867 236.789 7.07382 237.196 6.22155C237.608 5.36454 238.181 4.69693 238.915 4.21871C239.654 3.73575 240.515 3.49427 241.5 3.49427C242.068 3.49427 242.63 3.58897 243.183 3.77836C243.737 3.96776 244.242 4.27552 244.696 4.70166C245.151 5.12306 245.513 5.68177 245.783 6.3778C246.053 7.07382 246.188 7.93083 246.188 8.94882V9.65905H237.779V8.21018H244.483C244.483 7.59465 244.36 7.04541 244.114 6.56246C243.872 6.0795 243.527 5.69835 243.077 5.41899C242.632 5.13963 242.106 4.99996 241.5 4.99996C240.833 4.99996 240.255 5.16567 239.767 5.49711C239.284 5.82382 238.913 6.24996 238.652 6.77552C238.392 7.30109 238.262 7.86454 238.262 8.46586V9.43177C238.262 10.2556 238.404 10.954 238.688 11.5269C238.977 12.0951 239.377 12.5284 239.888 12.8267C240.399 13.1202 240.994 13.267 241.671 13.267C242.111 13.267 242.509 13.2054 242.864 13.0823C243.224 12.9545 243.534 12.7651 243.794 12.5142C244.055 12.2585 244.256 11.9412 244.398 11.5625L246.017 12.017C245.847 12.5662 245.56 13.0492 245.158 13.4659C244.755 13.8778 244.258 14.1998 243.666 14.4318C243.075 14.659 242.409 14.7727 241.671 14.7727ZM248.737 14.5454V3.63632H250.357V5.28405H250.47C250.669 4.74427 251.029 4.3063 251.55 3.97013C252.071 3.63395 252.658 3.46586 253.311 3.46586C253.434 3.46586 253.588 3.46823 253.773 3.47297C253.958 3.4777 254.097 3.4848 254.192 3.49427V5.19882C254.135 5.18461 254.005 5.16331 253.801 5.1349C253.603 5.10175 253.392 5.08518 253.169 5.08518C252.639 5.08518 252.165 5.19645 251.749 5.41899C251.337 5.63679 251.01 5.93982 250.769 6.32808C250.532 6.7116 250.414 7.14958 250.414 7.642V14.5454H248.737ZM87.1776 30.0795L85.6719 30.5056C85.5772 30.2547 85.4376 30.0108 85.2529 29.7741C85.073 29.5326 84.8268 29.3338 84.5143 29.1775C84.2018 29.0213 83.8017 28.9431 83.314 28.9431C82.6464 28.9431 82.09 29.097 81.645 29.4048C81.2046 29.7078 80.9844 30.0937 80.9844 30.5625C80.9844 30.9791 81.136 31.3082 81.439 31.5497C81.742 31.7911 82.2155 31.9924 82.8594 32.1534L84.4788 32.5511C85.4541 32.7878 86.1809 33.15 86.6592 33.6377C87.1374 34.1207 87.3765 34.7433 87.3765 35.5056C87.3765 36.1306 87.1966 36.6893 86.8367 37.1818C86.4816 37.6742 85.9844 38.0625 85.3452 38.3465C84.706 38.6306 83.9627 38.7727 83.1151 38.7727C82.0024 38.7727 81.0815 38.5312 80.3523 38.0483C79.6232 37.5653 79.1615 36.8598 78.9674 35.9318L80.5583 35.534C80.7098 36.1212 80.9963 36.5615 81.4177 36.8551C81.8438 37.1486 82.4002 37.2954 83.0867 37.2954C83.868 37.2954 84.4882 37.1297 84.9475 36.7983C85.4115 36.4621 85.6435 36.0596 85.6435 35.5909C85.6435 35.2121 85.511 34.8948 85.2458 34.6392C84.9807 34.3787 84.5735 34.1846 84.0242 34.0568L82.206 33.6306C81.207 33.3939 80.4731 33.0269 80.0043 32.5298C79.5403 32.0279 79.3083 31.4005 79.3083 30.6477C79.3083 30.0322 79.4811 29.4876 79.8268 29.0142C80.1772 28.5407 80.653 28.169 81.2543 27.8991C81.8604 27.6292 82.5469 27.4943 83.314 27.4943C84.3935 27.4943 85.2411 27.731 85.8566 28.2045C86.4769 28.678 86.9172 29.303 87.1776 30.0795ZM89.8996 42.6363V27.6363H91.5189V29.3693H91.7178C91.8409 29.1799 92.0113 28.9384 92.2291 28.6448C92.4517 28.3465 92.7689 28.0814 93.1808 27.8494C93.5975 27.6126 94.1609 27.4943 94.8712 27.4943C95.7897 27.4943 96.5994 27.7239 97.3001 28.1832C98.0009 28.6425 98.5478 29.2935 98.9408 30.1363C99.3338 30.9791 99.5303 31.9734 99.5303 33.1193C99.5303 34.2746 99.3338 35.276 98.9408 36.1235C98.5478 36.9663 98.0033 37.6197 97.3072 38.0838C96.6112 38.543 95.8087 38.7727 94.8996 38.7727C94.1988 38.7727 93.6377 38.6567 93.2163 38.4247C92.7949 38.1879 92.4706 37.9204 92.2433 37.6221C92.016 37.3191 91.8409 37.0681 91.7178 36.8693H91.5757V42.6363H89.8996ZM91.5473 33.0909C91.5473 33.9147 91.668 34.6415 91.9095 35.2713C92.151 35.8963 92.5037 36.3863 92.9678 36.7414C93.4318 37.0918 93.9999 37.267 94.6723 37.267C95.3731 37.267 95.9578 37.0823 96.4266 36.713C96.9 36.339 97.2552 35.8371 97.4919 35.2073C97.7334 34.5729 97.8541 33.8674 97.8541 33.0909C97.8541 32.3238 97.7357 31.6325 97.499 31.017C97.267 30.3967 96.9142 29.9067 96.4408 29.5468C95.972 29.1822 95.3825 29 94.6723 29C93.9905 29 93.4176 29.1728 92.9535 29.5184C92.4895 29.8593 92.1392 30.3376 91.9024 30.9531C91.6657 31.5639 91.5473 32.2765 91.5473 33.0909ZM106.661 38.7727C105.61 38.7727 104.703 38.5407 103.941 38.0767C103.183 37.6079 102.598 36.9545 102.187 36.1164C101.779 35.2736 101.576 34.2935 101.576 33.1761C101.576 32.0587 101.779 31.0738 102.187 30.2215C102.598 29.3645 103.171 28.6969 103.905 28.2187C104.644 27.7358 105.506 27.4943 106.49 27.4943C107.059 27.4943 107.62 27.589 108.174 27.7784C108.728 27.9678 109.232 28.2755 109.687 28.7017C110.141 29.1231 110.503 29.6818 110.773 30.3778C111.043 31.0738 111.178 31.9308 111.178 32.9488V33.659H102.769V32.2102H109.473C109.473 31.5947 109.35 31.0454 109.104 30.5625C108.863 30.0795 108.517 29.6983 108.067 29.419C107.622 29.1396 107.097 29 106.49 29C105.823 29 105.245 29.1657 104.758 29.4971C104.275 29.8238 103.903 30.25 103.642 30.7755C103.382 31.3011 103.252 31.8645 103.252 32.4659V33.4318C103.252 34.2556 103.394 34.954 103.678 35.5269C103.967 36.0951 104.367 36.5284 104.878 36.8267C105.39 37.1202 105.984 37.267 106.661 37.267C107.101 37.267 107.499 37.2054 107.854 37.0823C108.214 36.9545 108.524 36.7651 108.785 36.5142C109.045 36.2585 109.246 35.9412 109.388 35.5625L111.008 36.017C110.837 36.5662 110.551 37.0492 110.148 37.4659C109.746 37.8778 109.249 38.1998 108.657 38.4318C108.065 38.659 107.4 38.7727 106.661 38.7727ZM118.16 38.7727C117.137 38.7727 116.256 38.5312 115.517 38.0483C114.779 37.5653 114.211 36.9001 113.813 36.0525C113.415 35.205 113.216 34.2367 113.216 33.1477C113.216 32.0397 113.42 31.062 113.827 30.2144C114.239 29.3622 114.812 28.6969 115.546 28.2187C116.285 27.7358 117.146 27.4943 118.131 27.4943C118.898 27.4943 119.589 27.6363 120.205 27.9204C120.82 28.2045 121.325 28.6022 121.718 29.1136C122.111 29.625 122.355 30.2215 122.449 30.9034H120.773C120.645 30.4062 120.361 29.9659 119.921 29.5823C119.485 29.1941 118.898 29 118.16 29C117.506 29 116.933 29.1704 116.441 29.5113C115.953 29.8475 115.572 30.3233 115.297 30.9389C115.027 31.5497 114.892 32.267 114.892 33.0909C114.892 33.9337 115.025 34.6676 115.29 35.2926C115.56 35.9176 115.939 36.4029 116.427 36.7485C116.919 37.0942 117.497 37.267 118.16 37.267C118.595 37.267 118.99 37.1912 119.346 37.0397C119.701 36.8882 120.001 36.6704 120.248 36.3863C120.494 36.1022 120.669 35.7613 120.773 35.3636H122.449C122.355 36.0075 122.12 36.5876 121.746 37.1036C121.377 37.615 120.887 38.0222 120.276 38.3252C119.67 38.6235 118.964 38.7727 118.16 38.7727ZM129.644 27.6363V29.0568H123.99V27.6363H129.644ZM125.638 25.0227H127.314V35.4204C127.314 35.8939 127.383 36.249 127.52 36.4858C127.662 36.7178 127.842 36.874 128.06 36.9545C128.283 37.0303 128.517 37.0681 128.763 37.0681C128.948 37.0681 129.099 37.0587 129.218 37.0397C129.336 37.0161 129.431 36.9971 129.502 36.9829L129.843 38.4886C129.729 38.5312 129.57 38.5738 129.367 38.6164C129.163 38.6638 128.905 38.6875 128.593 38.6875C128.119 38.6875 127.655 38.5857 127.201 38.3821C126.751 38.1785 126.377 37.8683 126.079 37.4517C125.785 37.035 125.638 36.5094 125.638 35.875V25.0227ZM135.375 38.8011C134.684 38.8011 134.057 38.6709 133.493 38.4105C132.93 38.1453 132.482 37.7642 132.151 37.267C131.82 36.7651 131.654 36.159 131.654 35.4488C131.654 34.8238 131.777 34.3172 132.023 33.9289C132.269 33.5359 132.598 33.2282 133.01 33.0056C133.422 32.7831 133.877 32.6174 134.374 32.5085C134.876 32.3948 135.38 32.3049 135.887 32.2386C136.55 32.1534 137.087 32.0894 137.499 32.0468C137.916 31.9995 138.219 31.9214 138.408 31.8125C138.602 31.7036 138.699 31.5142 138.699 31.2443V31.1875C138.699 30.4867 138.508 29.9422 138.124 29.5539C137.745 29.1657 137.17 28.9715 136.398 28.9715C135.598 28.9715 134.971 29.1467 134.516 29.4971C134.062 29.8475 133.742 30.2215 133.557 30.6193L131.966 30.0511C132.25 29.3882 132.629 28.8721 133.103 28.5028C133.581 28.1287 134.102 27.8683 134.665 27.7215C135.233 27.57 135.792 27.4943 136.341 27.4943C136.692 27.4943 137.094 27.5369 137.549 27.6221C138.008 27.7026 138.451 27.8707 138.877 28.1264C139.308 28.3821 139.665 28.7679 139.949 29.284C140.233 29.8001 140.375 30.4914 140.375 31.3579V38.5454H138.699V37.0681H138.614C138.5 37.3049 138.311 37.5582 138.046 37.8281C137.781 38.098 137.428 38.3276 136.988 38.517C136.547 38.7064 136.01 38.8011 135.375 38.8011ZM135.631 37.2954C136.294 37.2954 136.853 37.1652 137.307 36.9048C137.767 36.6444 138.112 36.3082 138.344 35.8963C138.581 35.4843 138.699 35.0511 138.699 34.5965V33.0625C138.628 33.1477 138.472 33.2258 138.231 33.2968C137.994 33.3631 137.719 33.4223 137.407 33.4744C137.099 33.5217 136.798 33.5643 136.505 33.6022C136.216 33.6354 135.981 33.6638 135.802 33.6875C135.366 33.7443 134.959 33.8366 134.58 33.9644C134.206 34.0876 133.903 34.2746 133.671 34.5255C133.444 34.7717 133.33 35.1079 133.33 35.534C133.33 36.1164 133.545 36.5568 133.976 36.8551C134.412 37.1486 134.963 37.2954 135.631 37.2954ZM147.867 38.7727C146.844 38.7727 145.963 38.5312 145.224 38.0483C144.486 37.5653 143.918 36.9001 143.52 36.0525C143.122 35.205 142.923 34.2367 142.923 33.1477C142.923 32.0397 143.127 31.062 143.534 30.2144C143.946 29.3622 144.519 28.6969 145.253 28.2187C145.992 27.7358 146.853 27.4943 147.838 27.4943C148.605 27.4943 149.296 27.6363 149.912 27.9204C150.528 28.2045 151.032 28.6022 151.425 29.1136C151.818 29.625 152.062 30.2215 152.156 30.9034H150.48C150.352 30.4062 150.068 29.9659 149.628 29.5823C149.192 29.1941 148.605 29 147.867 29C147.213 29 146.64 29.1704 146.148 29.5113C145.66 29.8475 145.279 30.3233 145.004 30.9389C144.734 31.5497 144.599 32.267 144.599 33.0909C144.599 33.9337 144.732 34.6676 144.997 35.2926C145.267 35.9176 145.646 36.4029 146.134 36.7485C146.626 37.0942 147.204 37.267 147.867 37.267C148.302 37.267 148.698 37.1912 149.053 37.0397C149.408 36.8882 149.708 36.6704 149.955 36.3863C150.201 36.1022 150.376 35.7613 150.48 35.3636H152.156C152.062 36.0075 151.827 36.5876 151.453 37.1036C151.084 37.615 150.594 38.0222 149.983 38.3252C149.377 38.6235 148.671 38.7727 147.867 38.7727ZM156.283 24V38.5454H154.607V24H156.283ZM163.927 38.7727C162.875 38.7727 161.969 38.5407 161.206 38.0767C160.449 37.6079 159.864 36.9545 159.452 36.1164C159.045 35.2736 158.841 34.2935 158.841 33.1761C158.841 32.0587 159.045 31.0738 159.452 30.2215C159.864 29.3645 160.437 28.6969 161.171 28.2187C161.91 27.7358 162.771 27.4943 163.756 27.4943C164.324 27.4943 164.885 27.589 165.439 27.7784C165.993 27.9678 166.498 28.2755 166.952 28.7017C167.407 29.1231 167.769 29.6818 168.039 30.3778C168.309 31.0738 168.444 31.9308 168.444 32.9488V33.659H160.035V32.2102H166.739C166.739 31.5947 166.616 31.0454 166.37 30.5625C166.128 30.0795 165.783 29.6983 165.333 29.419C164.888 29.1396 164.362 29 163.756 29C163.088 29 162.511 29.1657 162.023 29.4971C161.54 29.8238 161.169 30.25 160.908 30.7755C160.648 31.3011 160.517 31.8645 160.517 32.4659V33.4318C160.517 34.2556 160.66 34.954 160.944 35.5269C161.232 36.0951 161.633 36.5284 162.144 36.8267C162.655 37.1202 163.249 37.267 163.927 37.267C164.367 37.267 164.765 37.2054 165.12 37.0823C165.48 36.9545 165.79 36.7651 166.05 36.5142C166.311 36.2585 166.512 35.9412 166.654 35.5625L168.273 36.017C168.103 36.5662 167.816 37.0492 167.414 37.4659C167.011 37.8778 166.514 38.1998 165.922 38.4318C165.33 38.659 164.665 38.7727 163.927 38.7727ZM172.215 38.659C171.865 38.659 171.564 38.5336 171.313 38.2826C171.062 38.0317 170.937 37.731 170.937 37.3806C170.937 37.0303 171.062 36.7296 171.313 36.4786C171.564 36.2277 171.865 36.1022 172.215 36.1022C172.565 36.1022 172.866 36.2277 173.117 36.4786C173.368 36.7296 173.493 37.0303 173.493 37.3806C173.493 37.6126 173.434 37.8257 173.316 38.0198C173.202 38.214 173.048 38.3702 172.854 38.4886C172.665 38.6022 172.452 38.659 172.215 38.659Z" fill="#DADADA"/>
</svg>
