<svg width="84" height="15" viewBox="0 0 84 15" fill="none" xmlns="http://www.w3.org/2000/svg">
<path d="M8.57956 3.83529C8.49433 3.1156 8.14869 2.55688 7.54262 2.15916C6.93656 1.76143 6.19319 1.56257 5.31251 1.56257C4.66857 1.56257 4.10513 1.66673 3.62217 1.87507C3.14395 2.0834 2.7699 2.36986 2.50001 2.73444C2.23486 3.09902 2.10228 3.51332 2.10228 3.97734C2.10228 4.3656 2.19461 4.6994 2.37927 4.97876C2.56867 5.25338 2.81014 5.48302 3.1037 5.66768C3.39726 5.8476 3.70503 5.99675 4.027 6.11512C4.34897 6.22876 4.6449 6.32109 4.91478 6.39211L6.39206 6.78984C6.77084 6.88927 7.19225 7.02658 7.65626 7.20177C8.12501 7.37696 8.57245 7.61607 8.99859 7.9191C9.42946 8.2174 9.78458 8.60092 10.0639 9.06967C10.3433 9.53842 10.483 10.1137 10.483 10.7955C10.483 11.5815 10.277 12.2917 9.86507 12.9262C9.45787 13.5607 8.86128 14.0649 8.0753 14.439C7.29405 14.813 6.34471 15.0001 5.22728 15.0001C4.18562 15.0001 3.28363 14.832 2.52132 14.4958C1.76374 14.1596 1.16715 13.6909 0.731545 13.0896C0.300674 12.4882 0.0568293 11.7898 1.11312e-05 10.9944H1.81819C1.86554 11.5436 2.0502 11.9982 2.37217 12.358C2.69887 12.7131 3.11081 12.9783 3.60797 13.1535C4.10986 13.3239 4.64963 13.4092 5.22728 13.4092C5.89963 13.4092 6.50333 13.3003 7.03836 13.0825C7.5734 12.8599 7.99717 12.5521 8.30967 12.1592C8.62217 11.7614 8.77842 11.2974 8.77842 10.7671C8.77842 10.2842 8.64348 9.89116 8.37359 9.58813C8.1037 9.2851 7.74859 9.03889 7.30825 8.8495C6.86791 8.6601 6.39206 8.49438 5.88069 8.35234L4.09092 7.84098C2.95456 7.51427 2.05494 7.04789 1.39206 6.44183C0.729178 5.83577 0.397738 5.04268 0.397738 4.06257C0.397738 3.24817 0.617909 2.53794 1.05825 1.93188C1.50333 1.32109 2.09992 0.847604 2.84802 0.51143C3.60086 0.170521 4.4413 6.60419e-05 5.36933 6.60419e-05C6.30683 6.60419e-05 7.14016 0.168153 7.86933 0.504327C8.5985 0.835766 9.17615 1.29031 9.60228 1.86796C10.0332 2.44562 10.2604 3.10139 10.2841 3.83529H8.57956ZM25.0835 4.74438H23.3221C23.2179 4.23776 23.0356 3.79268 22.7752 3.40916C22.5195 3.02563 22.207 2.70367 21.8377 2.44325C21.4731 2.1781 21.0683 1.97923 20.6232 1.84666C20.1782 1.71408 19.7141 1.64779 19.2312 1.64779C18.3505 1.64779 17.5527 1.87033 16.8377 2.31541C16.1275 2.76048 15.5617 3.41626 15.1403 4.28274C14.7236 5.14921 14.5153 6.21219 14.5153 7.47166C14.5153 8.73113 14.7236 9.7941 15.1403 10.6606C15.5617 11.5271 16.1275 12.1828 16.8377 12.6279C17.5527 13.073 18.3505 13.2955 19.2312 13.2955C19.7141 13.2955 20.1782 13.2292 20.6232 13.0967C21.0683 12.9641 21.4731 12.7676 21.8377 12.5072C22.207 12.242 22.5195 11.9177 22.7752 11.5342C23.0356 11.1459 23.2179 10.7008 23.3221 10.1989H25.0835C24.9509 10.9423 24.7094 11.6075 24.359 12.1947C24.0087 12.7818 23.573 13.2813 23.0522 13.6932C22.5314 14.1004 21.9466 14.4106 21.298 14.6236C20.654 14.8367 19.9651 14.9432 19.2312 14.9432C17.9907 14.9432 16.8874 14.6402 15.9215 14.0342C14.9556 13.4281 14.1957 12.5664 13.6417 11.4489C13.0877 10.3315 12.8107 9.00575 12.8107 7.47166C12.8107 5.93757 13.0877 4.61181 13.6417 3.49438C14.1957 2.37696 14.9556 1.51522 15.9215 0.909157C16.8874 0.303096 17.9907 6.60419e-05 19.2312 6.60419e-05C19.9651 6.60419e-05 20.654 0.1066 21.298 0.319669C21.9466 0.532737 22.5314 0.845237 23.0522 1.25717C23.573 1.66437 24.0087 2.16152 24.359 2.74865C24.7094 3.33103 24.9509 3.99628 25.0835 4.74438ZM29.6911 0.19893V14.7444H27.9297V0.19893H29.6911ZM33.2227 14.7444V0.19893H42.0011V1.76143H34.984V6.6762H41.5465V8.2387H34.984V13.1819H42.1147V14.7444H33.2227ZM56.7099 0.19893V14.7444H55.0053L47.0792 3.32393H46.9372V14.7444H45.1758V0.19893H46.8803L54.8349 11.6478H54.9769V0.19893H56.7099ZM71.9389 4.74438H70.1776C70.0734 4.23776 69.8911 3.79268 69.6307 3.40916C69.375 3.02563 69.0625 2.70367 68.6932 2.44325C68.3286 2.1781 67.9238 1.97923 67.4787 1.84666C67.0336 1.71408 66.5696 1.64779 66.0867 1.64779C65.206 1.64779 64.4082 1.87033 63.6932 2.31541C62.983 2.76048 62.4172 3.41626 61.9957 4.28274C61.5791 5.14921 61.3707 6.21219 61.3707 7.47166C61.3707 8.73113 61.5791 9.7941 61.9957 10.6606C62.4172 11.5271 62.983 12.1828 63.6932 12.6279C64.4082 13.073 65.206 13.2955 66.0867 13.2955C66.5696 13.2955 67.0336 13.2292 67.4787 13.0967C67.9238 12.9641 68.3286 12.7676 68.6932 12.5072C69.0625 12.242 69.375 11.9177 69.6307 11.5342C69.8911 11.1459 70.0734 10.7008 70.1776 10.1989H71.9389C71.8064 10.9423 71.5649 11.6075 71.2145 12.1947C70.8641 12.7818 70.4285 13.2813 69.9077 13.6932C69.3868 14.1004 68.8021 14.4106 68.1534 14.6236C67.5095 14.8367 66.8206 14.9432 66.0867 14.9432C64.8461 14.9432 63.7429 14.6402 62.777 14.0342C61.8111 13.4281 61.0511 12.5664 60.4972 11.4489C59.9432 10.3315 59.6662 9.00575 59.6662 7.47166C59.6662 5.93757 59.9432 4.61181 60.4972 3.49438C61.0511 2.37696 61.8111 1.51522 62.777 0.909157C63.7429 0.303096 64.8461 6.60419e-05 66.0867 6.60419e-05C66.8206 6.60419e-05 67.5095 0.1066 68.1534 0.319669C68.8021 0.532737 69.3868 0.845237 69.9077 1.25717C70.4285 1.66437 70.8641 2.16152 71.2145 2.74865C71.5649 3.33103 71.8064 3.99628 71.9389 4.74438ZM74.7852 14.7444V0.19893H83.5636V1.76143H76.5465V6.6762H83.109V8.2387H76.5465V13.1819H83.6772V14.7444H74.7852Z" fill="#5E7CF2"/>
</svg>
