<svg width="169" height="44" viewBox="0 0 169 44" fill="none" xmlns="http://www.w3.org/2000/svg">
<path d="M8.57956 4.09091C8.49433 3.37121 8.14869 2.8125 7.54262 2.41477C6.93656 2.01705 6.19319 1.81818 5.31251 1.81818C4.66857 1.81818 4.10513 1.92235 3.62217 2.13068C3.14395 2.33901 2.7699 2.62547 2.50001 2.99006C2.23486 3.35464 2.10228 3.76894 2.10228 4.23295C2.10228 4.62121 2.19461 4.95502 2.37927 5.23438C2.56867 5.509 2.81014 5.73864 3.1037 5.9233C3.39726 6.10322 3.70503 6.25237 4.027 6.37074C4.34897 6.48437 4.6449 6.5767 4.91478 6.64773L6.39206 7.04545C6.77084 7.14489 7.19225 7.2822 7.65626 7.45739C8.12501 7.63258 8.57245 7.87169 8.99859 8.17472C9.42946 8.47301 9.78458 8.85653 10.0639 9.32528C10.3433 9.79403 10.483 10.3693 10.483 11.0511C10.483 11.8371 10.277 12.5473 9.86507 13.1818C9.45787 13.8163 8.86128 14.3205 8.0753 14.6946C7.29405 15.0687 6.34471 15.2557 5.22728 15.2557C4.18562 15.2557 3.28363 15.0876 2.52132 14.7514C1.76374 14.4152 1.16715 13.9465 0.731545 13.3452C0.300674 12.7438 0.0568293 12.0455 1.11312e-05 11.25H1.81819C1.86554 11.7992 2.0502 12.2538 2.37217 12.6136C2.69887 12.9687 3.11081 13.2339 3.60797 13.4091C4.10986 13.5795 4.64963 13.6648 5.22728 13.6648C5.89963 13.6648 6.50333 13.5559 7.03836 13.3381C7.5734 13.1155 7.99717 12.8078 8.30967 12.4148C8.62217 12.017 8.77842 11.553 8.77842 11.0227C8.77842 10.5398 8.64348 10.1468 8.37359 9.84375C8.1037 9.54072 7.74859 9.29451 7.30825 9.10511C6.86791 8.91572 6.39206 8.75 5.88069 8.60795L4.09092 8.09659C2.95456 7.76989 2.05494 7.3035 1.39206 6.69744C0.729178 6.09138 0.397738 5.2983 0.397738 4.31818C0.397738 3.50379 0.617909 2.79356 1.05825 2.1875C1.50333 1.5767 2.09992 1.10322 2.84802 0.767045C3.60086 0.426136 4.4413 0.255681 5.36933 0.255681C6.30683 0.255681 7.14016 0.423768 7.86933 0.759943C8.5985 1.09138 9.17615 1.54593 9.60228 2.12358C10.0332 2.70123 10.2604 3.35701 10.2841 4.09091H8.57956ZM20.0266 10.5398V4.09091H21.7028V15H20.0266V13.1534H19.913C19.6573 13.7074 19.2596 14.1785 18.7198 14.5668C18.1801 14.9503 17.4982 15.142 16.6744 15.142C15.9926 15.142 15.3865 14.9929 14.8562 14.6946C14.3259 14.3916 13.9092 13.937 13.6062 13.331C13.3032 12.7202 13.1516 11.9508 13.1516 11.0227V4.09091H14.8278V10.9091C14.8278 11.7045 15.0503 12.339 15.4954 12.8125C15.9452 13.286 16.5181 13.5227 17.2141 13.5227C17.6308 13.5227 18.0546 13.4162 18.4855 13.2031C18.9211 12.9901 19.2856 12.6634 19.5792 12.223C19.8775 11.7827 20.0266 11.2216 20.0266 10.5398ZM24.7727 19.0909V4.09091H26.3921V5.82386H26.5909C26.714 5.63447 26.8845 5.39299 27.1023 5.09943C27.3248 4.80114 27.6421 4.53598 28.054 4.30398C28.4707 4.06723 29.0341 3.94886 29.7443 3.94886C30.6629 3.94886 31.4725 4.1785 32.1733 4.63778C32.8741 5.09706 33.4209 5.74811 33.8139 6.59091C34.2069 7.43371 34.4034 8.42803 34.4034 9.57386C34.4034 10.7292 34.2069 11.7306 33.8139 12.5781C33.4209 13.4209 32.8764 14.0743 32.1804 14.5384C31.4844 14.9976 30.6818 15.2273 29.7727 15.2273C29.072 15.2273 28.5109 15.1113 28.0895 14.8793C27.6681 14.6425 27.3438 14.375 27.1165 14.0767C26.8892 13.7737 26.714 13.5227 26.5909 13.3239H26.4489V19.0909H24.7727ZM26.4205 9.54545C26.4205 10.3693 26.5412 11.0961 26.7827 11.7259C27.0242 12.3509 27.3769 12.8409 27.8409 13.196C28.3049 13.5464 28.8731 13.7216 29.5455 13.7216C30.2462 13.7216 30.831 13.5369 31.2997 13.1676C31.7732 12.7936 32.1283 12.2917 32.3651 11.6619C32.6065 11.0275 32.7273 10.322 32.7273 9.54545C32.7273 8.77841 32.6089 8.08712 32.3722 7.47159C32.1402 6.85133 31.7874 6.36127 31.3139 6.00142C30.8452 5.63684 30.2557 5.45455 29.5455 5.45455C28.8636 5.45455 28.2907 5.62737 27.8267 5.97301C27.3627 6.31392 27.0123 6.79214 26.7756 7.40767C26.5388 8.01847 26.4205 8.73106 26.4205 9.54545ZM36.9602 19.0909V4.09091H38.5796V5.82386H38.7784C38.9015 5.63447 39.072 5.39299 39.2898 5.09943C39.5123 4.80114 39.8296 4.53598 40.2415 4.30398C40.6582 4.06723 41.2216 3.94886 41.9318 3.94886C42.8504 3.94886 43.66 4.1785 44.3608 4.63778C45.0616 5.09706 45.6084 5.74811 46.0014 6.59091C46.3944 7.43371 46.5909 8.42803 46.5909 9.57386C46.5909 10.7292 46.3944 11.7306 46.0014 12.5781C45.6084 13.4209 45.0639 14.0743 44.3679 14.5384C43.6719 14.9976 42.8693 15.2273 41.9602 15.2273C41.2595 15.2273 40.6984 15.1113 40.277 14.8793C39.8556 14.6425 39.5313 14.375 39.304 14.0767C39.0767 13.7737 38.9015 13.5227 38.7784 13.3239H38.6364V19.0909H36.9602ZM38.608 9.54545C38.608 10.3693 38.7287 11.0961 38.9702 11.7259C39.2117 12.3509 39.5644 12.8409 40.0284 13.196C40.4924 13.5464 41.0606 13.7216 41.733 13.7216C42.4337 13.7216 43.0185 13.5369 43.4872 13.1676C43.9607 12.7936 44.3158 12.2917 44.5526 11.6619C44.794 11.0275 44.9148 10.322 44.9148 9.54545C44.9148 8.77841 44.7964 8.08712 44.5597 7.47159C44.3277 6.85133 43.9749 6.36127 43.5014 6.00142C43.0327 5.63684 42.4432 5.45455 41.733 5.45455C41.0511 5.45455 40.4782 5.62737 40.0142 5.97301C39.5502 6.31392 39.1998 6.79214 38.9631 7.40767C38.7263 8.01847 38.608 8.73106 38.608 9.54545ZM50.8239 0.454545V15H49.1477V0.454545H50.8239ZM58.4677 15.2273C57.4166 15.2273 56.5098 14.9953 55.7475 14.5312C54.9899 14.0625 54.4052 13.4091 53.9933 12.571C53.5861 11.7282 53.3825 10.7481 53.3825 9.63068C53.3825 8.51326 53.5861 7.52841 53.9933 6.67614C54.4052 5.81913 54.9781 5.15152 55.712 4.6733C56.4507 4.19034 57.3124 3.94886 58.2972 3.94886C58.8654 3.94886 59.4265 4.04356 59.9805 4.23295C60.5345 4.42235 61.0387 4.73011 61.4933 5.15625C61.9478 5.57765 62.31 6.13636 62.5799 6.83239C62.8498 7.52841 62.9847 8.38542 62.9847 9.40341V10.1136H54.5757V8.66477H61.2802C61.2802 8.04924 61.1571 7.5 60.9109 7.01705C60.6694 6.53409 60.3238 6.15294 59.8739 5.87358C59.4289 5.59422 58.9033 5.45455 58.2972 5.45455C57.6296 5.45455 57.052 5.62026 56.5643 5.9517C56.0813 6.27841 55.7096 6.70455 55.4492 7.23011C55.1888 7.75568 55.0586 8.31913 55.0586 8.92045V9.88636C55.0586 10.7102 55.2007 11.4086 55.4847 11.9815C55.7736 12.5497 56.1737 12.983 56.685 13.2812C57.1964 13.5748 57.7906 13.7216 58.4677 13.7216C58.908 13.7216 59.3058 13.66 59.6609 13.5369C60.0207 13.4091 60.3309 13.2197 60.5913 12.9688C60.8517 12.7131 61.0529 12.3958 61.195 12.017L62.8143 12.4716C62.6438 13.0208 62.3574 13.5038 61.9549 13.9205C61.5524 14.3324 61.0553 14.6544 60.4634 14.8864C59.8716 15.1136 59.2063 15.2273 58.4677 15.2273ZM65.5345 15V4.09091H67.1538V5.79545H67.2958C67.5231 5.21307 67.89 4.76089 68.3967 4.43892C68.9033 4.11222 69.5117 3.94886 70.222 3.94886C70.9417 3.94886 71.5406 4.11222 72.0188 4.43892C72.5018 4.76089 72.8782 5.21307 73.1481 5.79545H73.2617C73.5411 5.23201 73.9601 4.78456 74.5188 4.45312C75.0775 4.11695 75.7475 3.94886 76.5288 3.94886C77.5042 3.94886 78.302 4.25426 78.9222 4.86506C79.5425 5.47112 79.8526 6.41572 79.8526 7.69886V15H78.1765V7.69886C78.1765 6.89394 77.9563 6.31866 77.516 5.97301C77.0757 5.62737 76.5572 5.45455 75.9606 5.45455C75.1935 5.45455 74.5993 5.68655 74.1779 6.15057C73.7565 6.60985 73.5458 7.19223 73.5458 7.89773V15H71.8413V7.52841C71.8413 6.90814 71.64 6.40862 71.2376 6.02983C70.8351 5.64631 70.3167 5.45455 69.6822 5.45455C69.2466 5.45455 68.8394 5.57055 68.4606 5.80256C68.0865 6.03456 67.7835 6.35653 67.5515 6.76847C67.3242 7.17566 67.2106 7.64678 67.2106 8.18182V15H65.5345ZM87.4911 15.2273C86.44 15.2273 85.5333 14.9953 84.771 14.5312C84.0134 14.0625 83.4286 13.4091 83.0167 12.571C82.6095 11.7282 82.4059 10.7481 82.4059 9.63068C82.4059 8.51326 82.6095 7.52841 83.0167 6.67614C83.4286 5.81913 84.0015 5.15152 84.7355 4.6733C85.4741 4.19034 86.3358 3.94886 87.3207 3.94886C87.8889 3.94886 88.4499 4.04356 89.0039 4.23295C89.5579 4.42235 90.0622 4.73011 90.5167 5.15625C90.9712 5.57765 91.3335 6.13636 91.6033 6.83239C91.8732 7.52841 92.0082 8.38542 92.0082 9.40341V10.1136H83.5991V8.66477H90.3036C90.3036 8.04924 90.1805 7.5 89.9343 7.01705C89.6928 6.53409 89.3472 6.15294 88.8974 5.87358C88.4523 5.59422 87.9267 5.45455 87.3207 5.45455C86.6531 5.45455 86.0754 5.62026 85.5877 5.9517C85.1048 6.27841 84.7331 6.70455 84.4727 7.23011C84.2123 7.75568 84.082 8.31913 84.082 8.92045V9.88636C84.082 10.7102 84.2241 11.4086 84.5082 11.9815C84.797 12.5497 85.1971 12.983 85.7085 13.2812C86.2198 13.5748 86.8141 13.7216 87.4911 13.7216C87.9315 13.7216 88.3292 13.66 88.6843 13.5369C89.0442 13.4091 89.3543 13.2197 89.6147 12.9688C89.8751 12.7131 90.0764 12.3958 90.2184 12.017L91.8377 12.4716C91.6673 13.0208 91.3808 13.5038 90.9783 13.9205C90.5759 14.3324 90.0787 14.6544 89.4869 14.8864C88.895 15.1136 88.2298 15.2273 87.4911 15.2273ZM96.234 8.4375V15H94.5579V4.09091H96.1772V5.79545H96.3193C96.5749 5.24148 96.9632 4.7964 97.484 4.46023C98.0049 4.11932 98.6772 3.94886 99.5011 3.94886C100.24 3.94886 100.886 4.10038 101.44 4.40341C101.994 4.7017 102.425 5.15625 102.733 5.76705C103.04 6.37311 103.194 7.14015 103.194 8.06818V15H101.518V8.18182C101.518 7.32481 101.296 6.6572 100.851 6.17898C100.405 5.69602 99.7946 5.45455 99.0181 5.45455C98.4831 5.45455 98.0049 5.57055 97.5835 5.80256C97.1668 6.03456 96.8377 6.37311 96.5962 6.81818C96.3548 7.26326 96.234 7.80303 96.234 8.4375ZM111.001 4.09091V5.51136H105.348V4.09091H111.001ZM106.996 1.47727H108.672V11.875C108.672 12.3485 108.741 12.7036 108.878 12.9403C109.02 13.1723 109.2 13.3286 109.418 13.4091C109.64 13.4848 109.875 13.5227 110.121 13.5227C110.305 13.5227 110.457 13.5133 110.575 13.4943C110.694 13.4706 110.788 13.4517 110.859 13.4375L111.2 14.9432C111.087 14.9858 110.928 15.0284 110.724 15.071C110.521 15.1184 110.263 15.142 109.95 15.142C109.477 15.142 109.013 15.0402 108.558 14.8366C108.108 14.633 107.734 14.3229 107.436 13.9062C107.143 13.4896 106.996 12.964 106.996 12.3295V1.47727ZM116.733 15.2557C116.042 15.2557 115.414 15.1255 114.851 14.8651C114.287 14.5999 113.84 14.2188 113.509 13.7216C113.177 13.2197 113.011 12.6136 113.011 11.9034C113.011 11.2784 113.134 10.7718 113.381 10.3835C113.627 9.99053 113.956 9.68276 114.368 9.46023C114.78 9.23769 115.234 9.07197 115.732 8.96307C116.233 8.84943 116.738 8.75947 117.244 8.69318C117.907 8.60795 118.445 8.54403 118.857 8.50142C119.273 8.45407 119.576 8.37595 119.766 8.26705C119.96 8.15814 120.057 7.96875 120.057 7.69886V7.64205C120.057 6.94129 119.865 6.39678 119.482 6.00852C119.103 5.62027 118.527 5.42614 117.756 5.42614C116.956 5.42614 116.328 5.60133 115.874 5.9517C115.419 6.30208 115.099 6.67614 114.915 7.07386L113.324 6.50568C113.608 5.8428 113.987 5.3267 114.46 4.95739C114.938 4.58333 115.459 4.32292 116.023 4.17614C116.591 4.02462 117.15 3.94886 117.699 3.94886C118.049 3.94886 118.452 3.99148 118.906 4.0767C119.366 4.1572 119.808 4.32528 120.234 4.58097C120.665 4.83665 121.023 5.22254 121.307 5.73864C121.591 6.25473 121.733 6.94602 121.733 7.8125V15H120.057V13.5227H119.972C119.858 13.7595 119.669 14.0128 119.403 14.2827C119.138 14.5526 118.786 14.7822 118.345 14.9716C117.905 15.161 117.367 15.2557 116.733 15.2557ZM116.989 13.75C117.652 13.75 118.21 13.6198 118.665 13.3594C119.124 13.099 119.47 12.7628 119.702 12.3509C119.938 11.9389 120.057 11.5057 120.057 11.0511V9.51705C119.986 9.60227 119.83 9.6804 119.588 9.75142C119.351 9.81771 119.077 9.87689 118.764 9.92898C118.456 9.97633 118.156 10.0189 117.862 10.0568C117.573 10.09 117.339 10.1184 117.159 10.142C116.723 10.1989 116.316 10.2912 115.938 10.419C115.563 10.5421 115.26 10.7292 115.028 10.9801C114.801 11.2263 114.688 11.5625 114.688 11.9886C114.688 12.571 114.903 13.0114 115.334 13.3097C115.769 13.6032 116.321 13.75 116.989 13.75ZM129.537 4.09091V5.51136H123.883V4.09091H129.537ZM125.531 1.47727H127.207V11.875C127.207 12.3485 127.276 12.7036 127.413 12.9403C127.555 13.1723 127.735 13.3286 127.953 13.4091C128.175 13.4848 128.41 13.5227 128.656 13.5227C128.841 13.5227 128.992 13.5133 129.11 13.4943C129.229 13.4706 129.324 13.4517 129.395 13.4375L129.735 14.9432C129.622 14.9858 129.463 15.0284 129.26 15.071C129.056 15.1184 128.798 15.142 128.485 15.142C128.012 15.142 127.548 15.0402 127.093 14.8366C126.644 14.633 126.27 14.3229 125.971 13.9062C125.678 13.4896 125.531 12.964 125.531 12.3295V1.47727ZM132.058 15V4.09091H133.734V15H132.058ZM132.91 2.27273C132.583 2.27273 132.302 2.16146 132.065 1.93892C131.833 1.71638 131.717 1.44886 131.717 1.13636C131.717 0.823864 131.833 0.556345 132.065 0.333806C132.302 0.111269 132.583 0 132.91 0C133.237 0 133.516 0.111269 133.748 0.333806C133.985 0.556345 134.103 0.823864 134.103 1.13636C134.103 1.44886 133.985 1.71638 133.748 1.93892C133.516 2.16146 133.237 2.27273 132.91 2.27273ZM141.236 15.2273C140.251 15.2273 139.387 14.9929 138.643 14.5241C137.905 14.0554 137.327 13.3996 136.911 12.5568C136.499 11.714 136.293 10.7292 136.293 9.60227C136.293 8.46591 136.499 7.47396 136.911 6.62642C137.327 5.77888 137.905 5.12074 138.643 4.65199C139.387 4.18324 140.251 3.94886 141.236 3.94886C142.221 3.94886 143.082 4.18324 143.821 4.65199C144.564 5.12074 145.142 5.77888 145.554 6.62642C145.971 7.47396 146.179 8.46591 146.179 9.60227C146.179 10.7292 145.971 11.714 145.554 12.5568C145.142 13.3996 144.564 14.0554 143.821 14.5241C143.082 14.9929 142.221 15.2273 141.236 15.2273ZM141.236 13.7216C141.984 13.7216 142.599 13.5298 143.082 13.1463C143.565 12.7628 143.923 12.2585 144.155 11.6335C144.387 11.0085 144.503 10.3314 144.503 9.60227C144.503 8.87311 144.387 8.19366 144.155 7.56392C143.923 6.93419 143.565 6.42519 143.082 6.03693C142.599 5.64867 141.984 5.45455 141.236 5.45455C140.488 5.45455 139.872 5.64867 139.389 6.03693C138.906 6.42519 138.549 6.93419 138.317 7.56392C138.085 8.19366 137.969 8.87311 137.969 9.60227C137.969 10.3314 138.085 11.0085 138.317 11.6335C138.549 12.2585 138.906 12.7628 139.389 13.1463C139.872 13.5298 140.488 13.7216 141.236 13.7216ZM150.414 8.4375V15H148.738V4.09091H150.357V5.79545H150.499C150.755 5.24148 151.143 4.7964 151.664 4.46023C152.185 4.11932 152.857 3.94886 153.681 3.94886C154.419 3.94886 155.066 4.10038 155.62 4.40341C156.174 4.7017 156.605 5.15625 156.912 5.76705C157.22 6.37311 157.374 7.14015 157.374 8.06818V15H155.698V8.18182C155.698 7.32481 155.475 6.6572 155.03 6.17898C154.585 5.69602 153.974 5.45455 153.198 5.45455C152.663 5.45455 152.185 5.57055 151.763 5.80256C151.346 6.03456 151.017 6.37311 150.776 6.81818C150.534 7.26326 150.414 7.80303 150.414 8.4375ZM166.062 15V4.09091H167.738V15H166.062ZM166.914 2.27273C166.587 2.27273 166.306 2.16146 166.069 1.93892C165.837 1.71638 165.721 1.44886 165.721 1.13636C165.721 0.823864 165.837 0.556345 166.069 0.333806C166.306 0.111269 166.587 0 166.914 0C167.241 0 167.52 0.111269 167.752 0.333806C167.989 0.556345 168.107 0.823864 168.107 1.13636C168.107 1.44886 167.989 1.71638 167.752 1.93892C167.52 2.16146 167.241 2.27273 166.914 2.27273ZM22.1635 39.2273C21.1787 39.2273 20.3146 38.9929 19.5712 38.5241C18.8326 38.0554 18.2549 37.3996 17.8383 36.5568C17.4263 35.714 17.2204 34.7292 17.2204 33.6023C17.2204 32.4659 17.4263 31.474 17.8383 30.6264C18.2549 29.7789 18.8326 29.1207 19.5712 28.652C20.3146 28.1832 21.1787 27.9489 22.1635 27.9489C23.1484 27.9489 24.0101 28.1832 24.7488 28.652C25.4921 29.1207 26.0698 29.7789 26.4817 30.6264C26.8984 31.474 27.1067 32.4659 27.1067 33.6023C27.1067 34.7292 26.8984 35.714 26.4817 36.5568C26.0698 37.3996 25.4921 38.0554 24.7488 38.5241C24.0101 38.9929 23.1484 39.2273 22.1635 39.2273ZM22.1635 37.7216C22.9116 37.7216 23.5272 37.5298 24.0101 37.1463C24.4931 36.7628 24.8506 36.2585 25.0826 35.6335C25.3146 35.0085 25.4306 34.3314 25.4306 33.6023C25.4306 32.8731 25.3146 32.1937 25.0826 31.5639C24.8506 30.9342 24.4931 30.4252 24.0101 30.0369C23.5272 29.6487 22.9116 29.4545 22.1635 29.4545C21.4154 29.4545 20.7999 29.6487 20.317 30.0369C19.834 30.4252 19.4765 30.9342 19.2445 31.5639C19.0125 32.1937 18.8965 32.8731 18.8965 33.6023C18.8965 34.3314 19.0125 35.0085 19.2445 35.6335C19.4765 36.2585 19.834 36.7628 20.317 37.1463C20.7999 37.5298 21.4154 37.7216 22.1635 37.7216ZM31.3415 32.4375V39H29.6653V28.0909H31.2846V29.7955H31.4267C31.6824 29.2415 32.0706 28.7964 32.5915 28.4602C33.1123 28.1193 33.7846 27.9489 34.6085 27.9489C35.3471 27.9489 35.9934 28.1004 36.5474 28.4034C37.1014 28.7017 37.5323 29.1562 37.84 29.767C38.1478 30.3731 38.3017 31.1402 38.3017 32.0682V39H36.6255V32.1818C36.6255 31.3248 36.403 30.6572 35.9579 30.179C35.5129 29.696 34.9021 29.4545 34.1255 29.4545C33.5905 29.4545 33.1123 29.5705 32.6909 29.8026C32.2742 30.0346 31.9451 30.3731 31.7037 30.8182C31.4622 31.2633 31.3415 31.803 31.3415 32.4375ZM43.0407 24.4545V39H41.3645V24.4545H43.0407ZM47.1902 43.0909C46.9061 43.0909 46.6528 43.0672 46.4302 43.0199C46.2077 42.9773 46.0538 42.9347 45.9686 42.892L46.3947 41.4148C46.8019 41.5189 47.1618 41.5568 47.4743 41.5284C47.7868 41.5 48.0638 41.3603 48.3052 41.1094C48.5514 40.8632 48.7763 40.4631 48.9799 39.9091L49.2924 39.0568L45.2584 28.0909H47.0765L50.0879 36.7841H50.2015L53.2129 28.0909H55.0311L50.4004 40.5909C50.1921 41.1544 49.934 41.6207 49.6263 41.9901C49.3185 42.3641 48.961 42.6411 48.5538 42.821C48.1513 43.0009 47.6968 43.0909 47.1902 43.0909ZM67.3003 39.2273C66.3154 39.2273 65.4513 38.9929 64.7079 38.5241C63.9693 38.0554 63.3916 37.3996 62.975 36.5568C62.563 35.714 62.3571 34.7292 62.3571 33.6023C62.3571 32.4659 62.563 31.474 62.975 30.6264C63.3916 29.7789 63.9693 29.1207 64.7079 28.652C65.4513 28.1832 66.3154 27.9489 67.3003 27.9489C68.2851 27.9489 69.1469 28.1832 69.8855 28.652C70.6289 29.1207 71.2065 29.7789 71.6184 30.6264C72.0351 31.474 72.2434 32.4659 72.2434 33.6023C72.2434 34.7292 72.0351 35.714 71.6184 36.5568C71.2065 37.3996 70.6289 38.0554 69.8855 38.5241C69.1469 38.9929 68.2851 39.2273 67.3003 39.2273ZM67.3003 37.7216C68.0484 37.7216 68.6639 37.5298 69.1469 37.1463C69.6298 36.7628 69.9873 36.2585 70.2193 35.6335C70.4513 35.0085 70.5673 34.3314 70.5673 33.6023C70.5673 32.8731 70.4513 32.1937 70.2193 31.5639C69.9873 30.9342 69.6298 30.4252 69.1469 30.0369C68.6639 29.6487 68.0484 29.4545 67.3003 29.4545C66.5522 29.4545 65.9366 29.6487 65.4537 30.0369C64.9707 30.4252 64.6132 30.9342 64.3812 31.5639C64.1492 32.1937 64.0332 32.8731 64.0332 33.6023C64.0332 34.3314 64.1492 35.0085 64.3812 35.6335C64.6132 36.2585 64.9707 36.7628 65.4537 37.1463C65.9366 37.5298 66.5522 37.7216 67.3003 37.7216ZM76.4782 32.4375V39H74.802V28.0909H76.4214V29.7955H76.5634C76.8191 29.2415 77.2073 28.7964 77.7282 28.4602C78.249 28.1193 78.9214 27.9489 79.7452 27.9489C80.4839 27.9489 81.1302 28.1004 81.6841 28.4034C82.2381 28.7017 82.669 29.1562 82.9768 29.767C83.2845 30.3731 83.4384 31.1402 83.4384 32.0682V39H81.7623V32.1818C81.7623 31.3248 81.5397 30.6572 81.0946 30.179C80.6496 29.696 80.0388 29.4545 79.2623 29.4545C78.7272 29.4545 78.249 29.5705 77.8276 29.8026C77.4109 30.0346 77.0819 30.3731 76.8404 30.8182C76.5989 31.2633 76.4782 31.803 76.4782 32.4375ZM91.0751 39.2273C90.024 39.2273 89.1173 38.9953 88.3549 38.5312C87.5974 38.0625 87.0126 37.4091 86.6007 36.571C86.1935 35.7282 85.9899 34.7481 85.9899 33.6307C85.9899 32.5133 86.1935 31.5284 86.6007 30.6761C87.0126 29.8191 87.5855 29.1515 88.3194 28.6733C89.0581 28.1903 89.9198 27.9489 90.9047 27.9489C91.4728 27.9489 92.0339 28.0436 92.5879 28.233C93.1419 28.4223 93.6461 28.7301 94.1007 29.1562C94.5552 29.5777 94.9174 30.1364 95.1873 30.8324C95.4572 31.5284 95.5922 32.3854 95.5922 33.4034V34.1136H87.1831V32.6648H93.8876C93.8876 32.0492 93.7645 31.5 93.5183 31.017C93.2768 30.5341 92.9312 30.1529 92.4814 29.8736C92.0363 29.5942 91.5107 29.4545 90.9047 29.4545C90.237 29.4545 89.6594 29.6203 89.1717 29.9517C88.6888 30.2784 88.3171 30.7045 88.0567 31.2301C87.7962 31.7557 87.666 32.3191 87.666 32.9205V33.8864C87.666 34.7102 87.8081 35.4086 88.0922 35.9815C88.381 36.5497 88.7811 36.983 89.2924 37.2812C89.8038 37.5748 90.398 37.7216 91.0751 37.7216C91.5155 37.7216 91.9132 37.66 92.2683 37.5369C92.6281 37.4091 92.9383 37.2197 93.1987 36.9688C93.4591 36.7131 93.6603 36.3958 93.8024 36.017L95.4217 36.4716C95.2513 37.0208 94.9648 37.5038 94.5623 37.9205C94.1599 38.3324 93.6627 38.6544 93.0709 38.8864C92.479 39.1136 91.8138 39.2273 91.0751 39.2273ZM105.443 24.4545V39H103.767V24.4545H105.443ZM111.723 39.2557C111.032 39.2557 110.405 39.1255 109.841 38.8651C109.278 38.5999 108.83 38.2188 108.499 37.7216C108.167 37.2197 108.002 36.6136 108.002 35.9034C108.002 35.2784 108.125 34.7718 108.371 34.3835C108.617 33.9905 108.946 33.6828 109.358 33.4602C109.77 33.2377 110.225 33.072 110.722 32.9631C111.224 32.8494 111.728 32.7595 112.235 32.6932C112.897 32.608 113.435 32.544 113.847 32.5014C114.263 32.4541 114.566 32.3759 114.756 32.267C114.95 32.1581 115.047 31.9687 115.047 31.6989V31.642C115.047 30.9413 114.855 30.3968 114.472 30.0085C114.093 29.6203 113.518 29.4261 112.746 29.4261C111.946 29.4261 111.318 29.6013 110.864 29.9517C110.409 30.3021 110.09 30.6761 109.905 31.0739L108.314 30.5057C108.598 29.8428 108.977 29.3267 109.45 28.9574C109.929 28.5833 110.45 28.3229 111.013 28.1761C111.581 28.0246 112.14 27.9489 112.689 27.9489C113.039 27.9489 113.442 27.9915 113.896 28.0767C114.356 28.1572 114.798 28.3253 115.225 28.581C115.655 28.8366 116.013 29.2225 116.297 29.7386C116.581 30.2547 116.723 30.946 116.723 31.8125V39H115.047V37.5227H114.962C114.848 37.7595 114.659 38.0128 114.394 38.2827C114.129 38.5526 113.776 38.7822 113.335 38.9716C112.895 39.161 112.358 39.2557 111.723 39.2557ZM111.979 37.75C112.642 37.75 113.2 37.6198 113.655 37.3594C114.114 37.099 114.46 36.7628 114.692 36.3509C114.929 35.9389 115.047 35.5057 115.047 35.0511V33.517C114.976 33.6023 114.82 33.6804 114.578 33.7514C114.342 33.8177 114.067 33.8769 113.754 33.929C113.447 33.9763 113.146 34.0189 112.852 34.0568C112.564 34.09 112.329 34.1184 112.149 34.142C111.714 34.1989 111.307 34.2912 110.928 34.419C110.554 34.5421 110.251 34.7292 110.019 34.9801C109.791 35.2263 109.678 35.5625 109.678 35.9886C109.678 36.571 109.893 37.0114 110.324 37.3097C110.76 37.6032 111.311 37.75 111.979 37.75ZM120.471 43.0909C120.187 43.0909 119.934 43.0672 119.711 43.0199C119.489 42.9773 119.335 42.9347 119.25 42.892L119.676 41.4148C120.083 41.5189 120.443 41.5568 120.756 41.5284C121.068 41.5 121.345 41.3603 121.586 41.1094C121.833 40.8632 122.058 40.4631 122.261 39.9091L122.574 39.0568L118.54 28.0909H120.358L123.369 36.7841H123.483L126.494 28.0909H128.312L123.682 40.5909C123.473 41.1544 123.215 41.6207 122.908 41.9901C122.6 42.3641 122.242 42.6411 121.835 42.821C121.433 43.0009 120.978 43.0909 120.471 43.0909ZM134.708 39.2273C133.657 39.2273 132.75 38.9953 131.988 38.5312C131.23 38.0625 130.645 37.4091 130.233 36.571C129.826 35.7282 129.623 34.7481 129.623 33.6307C129.623 32.5133 129.826 31.5284 130.233 30.6761C130.645 29.8191 131.218 29.1515 131.952 28.6733C132.691 28.1903 133.553 27.9489 134.537 27.9489C135.106 27.9489 135.667 28.0436 136.221 28.233C136.775 28.4223 137.279 28.7301 137.733 29.1562C138.188 29.5777 138.55 30.1364 138.82 30.8324C139.09 31.5284 139.225 32.3854 139.225 33.4034V34.1136H130.816V32.6648H137.52C137.52 32.0492 137.397 31.5 137.151 31.017C136.91 30.5341 136.564 30.1529 136.114 29.8736C135.669 29.5942 135.144 29.4545 134.537 29.4545C133.87 29.4545 133.292 29.6203 132.805 29.9517C132.322 30.2784 131.95 30.7045 131.689 31.2301C131.429 31.7557 131.299 32.3191 131.299 32.9205V33.8864C131.299 34.7102 131.441 35.4086 131.725 35.9815C132.014 36.5497 132.414 36.983 132.925 37.2812C133.437 37.5748 134.031 37.7216 134.708 37.7216C135.148 37.7216 135.546 37.66 135.901 37.5369C136.261 37.4091 136.571 37.2197 136.832 36.9688C137.092 36.7131 137.293 36.3958 137.435 36.017L139.055 36.4716C138.884 37.0208 138.598 37.5038 138.195 37.9205C137.793 38.3324 137.296 38.6544 136.704 38.8864C136.112 39.1136 135.447 39.2273 134.708 39.2273ZM141.775 39V28.0909H143.394V29.7386H143.508C143.707 29.1989 144.066 28.7609 144.587 28.4247C145.108 28.0885 145.695 27.9205 146.349 27.9205C146.472 27.9205 146.626 27.9228 146.81 27.9276C146.995 27.9323 147.135 27.9394 147.229 27.9489V29.6534C147.172 29.6392 147.042 29.6179 146.839 29.5895C146.64 29.5563 146.429 29.5398 146.207 29.5398C145.676 29.5398 145.203 29.651 144.786 29.8736C144.374 30.0914 144.047 30.3944 143.806 30.7827C143.569 31.1662 143.451 31.6042 143.451 32.0966V39H141.775ZM149.188 39.1136C148.837 39.1136 148.537 38.9882 148.286 38.7372C148.035 38.4863 147.909 38.1856 147.909 37.8352C147.909 37.4848 148.035 37.1842 148.286 36.9332C148.537 36.6823 148.837 36.5568 149.188 36.5568C149.538 36.5568 149.839 36.6823 150.09 36.9332C150.341 37.1842 150.466 37.4848 150.466 37.8352C150.466 38.0672 150.407 38.2803 150.289 38.4744C150.175 38.6686 150.021 38.8248 149.827 38.9432C149.637 39.0568 149.424 39.1136 149.188 39.1136Z" fill="#DADADA"/>
</svg>
