<svg width="943" height="30" viewBox="0 0 943 30" fill="none" xmlns="http://www.w3.org/2000/svg">
<path d="M-3.3319e-05 4.81535V0.397738H23.2102V4.81535H14.2187V29.4886H8.99144V4.81535H-3.3319e-05ZM27.6846 29.4886V0.397738H32.9545V12.7131H46.4346V0.397738H51.7187V29.4886H46.4346V17.1307H32.9545V29.4886H27.6846ZM57.4503 29.4886V0.397738H76.3707V4.81535H62.7201V12.7131H75.3906V17.1307H62.7201V25.071H76.4843V29.4886H57.4503ZM91.669 29.4886V0.397738H110.305V4.81535H96.9389V12.7131H109.027V17.1307H96.9389V29.4886H91.669ZM133.445 0.397738H138.714V19.4034C138.714 21.4868 138.222 23.3191 137.237 24.9006C136.262 26.482 134.889 27.7178 133.118 28.608C131.347 29.4886 129.278 29.929 126.91 29.929C124.534 29.929 122.46 29.4886 120.689 28.608C118.918 27.7178 117.545 26.482 116.57 24.9006C115.594 23.3191 115.107 21.4868 115.107 19.4034V0.397738H120.376V18.9631C120.376 20.1752 120.642 21.2547 121.172 22.2017C121.712 23.1487 122.469 23.8921 123.445 24.4318C124.42 24.9621 125.575 25.2273 126.91 25.2273C128.246 25.2273 129.401 24.9621 130.376 24.4318C131.361 23.8921 132.119 23.1487 132.649 22.2017C133.179 21.2547 133.445 20.1752 133.445 18.9631V0.397738ZM143.164 4.81535V0.397738H166.374V4.81535H157.383V29.4886H152.156V4.81535H143.164ZM189.187 0.397738H194.457V19.4034C194.457 21.4868 193.964 23.3191 192.979 24.9006C192.004 26.482 190.631 27.7178 188.86 28.608C187.089 29.4886 185.02 29.929 182.653 29.929C180.276 29.929 178.202 29.4886 176.431 28.608C174.66 27.7178 173.287 26.482 172.312 24.9006C171.336 23.3191 170.849 21.4868 170.849 19.4034V0.397738H176.119V18.9631C176.119 20.1752 176.384 21.2547 176.914 22.2017C177.454 23.1487 178.211 23.8921 179.187 24.4318C180.162 24.9621 181.317 25.2273 182.653 25.2273C183.988 25.2273 185.143 24.9621 186.119 24.4318C187.103 23.8921 187.861 23.1487 188.391 22.2017C188.922 21.2547 189.187 20.1752 189.187 18.9631V0.397738ZM200.185 29.4886V0.397738H211.094C213.329 0.397738 215.204 0.785995 216.719 1.56251C218.243 2.33903 219.394 3.42804 220.17 4.82956C220.956 6.2216 221.349 7.84565 221.349 9.70171C221.349 11.5672 220.952 13.1866 220.156 14.5597C219.37 15.9233 218.21 16.9792 216.676 17.7273C215.142 18.4659 213.258 18.8352 211.023 18.8352H203.253V14.4602H210.312C211.619 14.4602 212.689 14.2803 213.523 13.9205C214.356 13.5511 214.972 13.0161 215.369 12.3154C215.776 11.6051 215.98 10.7339 215.98 9.70171C215.98 8.66952 215.776 7.78884 215.369 7.05967C214.962 6.32103 214.342 5.76232 213.508 5.38353C212.675 4.99528 211.6 4.80115 210.284 4.80115H205.455V29.4886H200.185ZM215.213 16.3068L222.415 29.4886H216.534L209.46 16.3068H215.213ZM226.2 29.4886V0.397738H245.121V4.81535H231.47V12.7131H244.141V17.1307H231.47V25.071H245.234V29.4886H226.2ZM286.413 14.9432C286.413 18.0777 285.826 20.7623 284.652 22.9972C283.487 25.2225 281.896 26.9271 279.879 28.1108C277.872 29.2945 275.594 29.8864 273.047 29.8864C270.499 29.8864 268.217 29.2945 266.2 28.1108C264.193 26.9176 262.602 25.2083 261.428 22.983C260.263 20.7481 259.68 18.0682 259.68 14.9432C259.68 11.8087 260.263 9.1288 261.428 6.90342C262.602 4.66857 264.193 2.95929 266.2 1.77558C268.217 0.591866 270.499 1.00136e-05 273.047 1.00136e-05C275.594 1.00136e-05 277.872 0.591866 279.879 1.77558C281.896 2.95929 283.487 4.66857 284.652 6.90342C285.826 9.1288 286.413 11.8087 286.413 14.9432ZM281.115 14.9432C281.115 12.7368 280.769 10.876 280.078 9.36081C279.396 7.83618 278.449 6.68562 277.237 5.9091C276.025 5.12312 274.628 4.73012 273.047 4.73012C271.465 4.73012 270.069 5.12312 268.857 5.9091C267.644 6.68562 266.693 7.83618 266.001 9.36081C265.32 10.876 264.979 12.7368 264.979 14.9432C264.979 17.1496 265.32 19.0152 266.001 20.5398C266.693 22.0549 267.644 23.2055 268.857 23.9915C270.069 24.768 271.465 25.1563 273.047 25.1563C274.628 25.1563 276.025 24.768 277.237 23.9915C278.449 23.2055 279.396 22.0549 280.078 20.5398C280.769 19.0152 281.115 17.1496 281.115 14.9432ZM291.396 29.4886V0.397738H310.032V4.81535H296.665V12.7131H308.754V17.1307H296.665V29.4886H291.396ZM324.755 29.4886V0.397738H343.675V4.81535H330.025V12.7131H342.695V17.1307H330.025V25.071H343.789V29.4886H324.755ZM372.958 0.397738V29.4886H368.271L354.563 9.67331H354.322V29.4886H349.052V0.397738H353.768L367.461 20.2273H367.717V0.397738H372.958ZM388.558 29.4886H378.7V0.397738H388.757C391.645 0.397738 394.126 0.980124 396.2 2.1449C398.284 3.3002 399.884 4.96213 401.001 7.13069C402.119 9.29925 402.678 11.894 402.678 14.9148C402.678 17.9451 402.114 20.5493 400.987 22.7273C399.87 24.9053 398.255 26.5767 396.143 27.7415C394.041 28.9063 391.513 29.4886 388.558 29.4886ZM383.97 24.929H388.303C390.329 24.929 392.019 24.5597 393.374 23.821C394.728 23.0729 395.746 21.9602 396.428 20.483C397.109 18.9962 397.45 17.1402 397.45 14.9148C397.45 12.6894 397.109 10.8428 396.428 9.37501C395.746 7.89774 394.737 6.79452 393.402 6.06535C392.076 5.32672 390.428 4.9574 388.459 4.9574H383.97V24.929ZM433.679 14.9432C433.679 18.0777 433.092 20.7623 431.918 22.9972C430.753 25.2225 429.162 26.9271 427.145 28.1108C425.137 29.2945 422.86 29.8864 420.312 29.8864C417.765 29.8864 415.483 29.2945 413.466 28.1108C411.458 26.9176 409.867 25.2083 408.693 22.983C407.528 20.7481 406.946 18.0682 406.946 14.9432C406.946 11.8087 407.528 9.1288 408.693 6.90342C409.867 4.66857 411.458 2.95929 413.466 1.77558C415.483 0.591866 417.765 1.00136e-05 420.312 1.00136e-05C422.86 1.00136e-05 425.137 0.591866 427.145 1.77558C429.162 2.95929 430.753 4.66857 431.918 6.90342C433.092 9.1288 433.679 11.8087 433.679 14.9432ZM428.381 14.9432C428.381 12.7368 428.035 10.876 427.344 9.36081C426.662 7.83618 425.715 6.68562 424.503 5.9091C423.291 5.12312 421.894 4.73012 420.312 4.73012C418.731 4.73012 417.334 5.12312 416.122 5.9091C414.91 6.68562 413.958 7.83618 413.267 9.36081C412.585 10.876 412.244 12.7368 412.244 14.9432C412.244 17.1496 412.585 19.0152 413.267 20.5398C413.958 22.0549 414.91 23.2055 416.122 23.9915C417.334 24.768 418.731 25.1563 420.312 25.1563C421.894 25.1563 423.291 24.768 424.503 23.9915C425.715 23.2055 426.662 22.0549 427.344 20.5398C428.035 19.0152 428.381 17.1496 428.381 14.9432ZM458.15 9.68751C457.913 8.92046 457.586 8.23391 457.17 7.62785C456.763 7.01232 456.27 6.48675 455.692 6.05115C455.124 5.61554 454.471 5.28884 453.732 5.07103C452.994 4.84376 452.189 4.73012 451.317 4.73012C449.755 4.73012 448.363 5.12312 447.141 5.9091C445.92 6.69509 444.959 7.85039 444.258 9.37501C443.566 10.8902 443.221 12.7368 443.221 14.9148C443.221 17.1118 443.566 18.9725 444.258 20.4972C444.949 22.0218 445.91 23.1818 447.141 23.9773C448.372 24.7633 449.802 25.1563 451.431 25.1563C452.908 25.1563 454.187 24.8722 455.266 24.304C456.355 23.7358 457.193 22.9309 457.781 21.8892C458.368 20.8381 458.661 19.607 458.661 18.196L459.854 18.3807H451.957V14.2614H463.761V17.7557C463.761 20.2462 463.23 22.4006 462.17 24.2188C461.109 26.0369 459.651 27.4385 457.795 28.4233C455.939 29.3987 453.808 29.8864 451.403 29.8864C448.723 29.8864 446.37 29.285 444.343 28.0824C442.326 26.8703 440.749 25.1515 439.613 22.9261C438.486 20.6913 437.923 18.0398 437.923 14.9716C437.923 12.6231 438.254 10.5256 438.917 8.67899C439.589 6.8324 440.527 5.26516 441.729 3.97728C442.932 2.67993 444.343 1.69509 445.962 1.02274C447.582 0.340919 449.343 1.00136e-05 451.246 1.00136e-05C452.856 1.00136e-05 454.357 0.236753 455.749 0.710238C457.141 1.17425 458.377 1.83713 459.457 2.69887C460.546 3.56062 461.441 4.58334 462.141 5.76706C462.842 6.95077 463.301 8.25759 463.519 9.68751H458.15ZM468.857 29.4886V0.397738H487.777V4.81535H474.126V12.7131H486.797V17.1307H474.126V25.071H487.891V29.4886H468.857ZM517.06 0.397738V29.4886H512.372L498.665 9.67331H498.423V29.4886H493.153V0.397738H497.869L511.562 20.2273H511.818V0.397738H517.06ZM548.796 14.9432C548.796 18.0777 548.209 20.7623 547.035 22.9972C545.87 25.2225 544.279 26.9271 542.262 28.1108C540.254 29.2945 537.977 29.8864 535.43 29.8864C532.882 29.8864 530.6 29.2945 528.583 28.1108C526.575 26.9176 524.985 25.2083 523.81 22.983C522.646 20.7481 522.063 18.0682 522.063 14.9432C522.063 11.8087 522.646 9.1288 523.81 6.90342C524.985 4.66857 526.575 2.95929 528.583 1.77558C530.6 0.591866 532.882 1.00136e-05 535.43 1.00136e-05C537.977 1.00136e-05 540.254 0.591866 542.262 1.77558C544.279 2.95929 545.87 4.66857 547.035 6.90342C548.209 9.1288 548.796 11.8087 548.796 14.9432ZM543.498 14.9432C543.498 12.7368 543.152 10.876 542.461 9.36081C541.779 7.83618 540.832 6.68562 539.62 5.9091C538.408 5.12312 537.011 4.73012 535.43 4.73012C533.848 4.73012 532.451 5.12312 531.239 5.9091C530.027 6.68562 529.075 7.83618 528.384 9.36081C527.702 10.876 527.361 12.7368 527.361 14.9432C527.361 17.1496 527.702 19.0152 528.384 20.5398C529.075 22.0549 530.027 23.2055 531.239 23.9915C532.451 24.768 533.848 25.1563 535.43 25.1563C537.011 25.1563 538.408 24.768 539.62 23.9915C540.832 23.2055 541.779 22.0549 542.461 20.5398C543.152 19.0152 543.498 17.1496 543.498 14.9432ZM572.116 0.397738H577.386V19.4034C577.386 21.4868 576.894 23.3191 575.909 24.9006C574.934 26.482 573.561 27.7178 571.79 28.608C570.019 29.4886 567.95 29.929 565.582 29.929C563.205 29.929 561.132 29.4886 559.361 28.608C557.59 27.7178 556.217 26.482 555.241 24.9006C554.266 23.3191 553.778 21.4868 553.778 19.4034V0.397738H559.048V18.9631C559.048 20.1752 559.313 21.2547 559.844 22.2017C560.383 23.1487 561.141 23.8921 562.116 24.4318C563.092 24.9621 564.247 25.2273 565.582 25.2273C566.918 25.2273 568.073 24.9621 569.048 24.4318C570.033 23.8921 570.791 23.1487 571.321 22.2017C571.851 21.2547 572.116 20.1752 572.116 18.9631V0.397738ZM598.924 8.3949C598.791 7.15437 598.233 6.18846 597.248 5.49717C596.272 4.80588 595.004 4.46024 593.441 4.46024C592.343 4.46024 591.4 4.62596 590.614 4.9574C589.828 5.28884 589.227 5.73865 588.81 6.30683C588.394 6.87501 588.181 7.52369 588.171 8.25285C588.171 8.85891 588.308 9.38448 588.583 9.82956C588.867 10.2746 589.251 10.6534 589.734 10.9659C590.217 11.2689 590.752 11.5246 591.339 11.733C591.926 11.9413 592.518 12.1165 593.114 12.2585L595.842 12.9404C596.94 13.196 597.996 13.5417 599.009 13.9773C600.032 14.4129 600.946 14.9621 601.751 15.625C602.565 16.2879 603.209 17.0881 603.682 18.0256C604.156 18.9631 604.393 20.0616 604.393 21.321C604.393 23.0256 603.957 24.5265 603.086 25.8239C602.215 27.1118 600.955 28.1203 599.307 28.8494C597.669 29.5691 595.685 29.929 593.356 29.929C591.093 29.929 589.128 29.5786 587.461 28.8779C585.804 28.1771 584.506 27.1544 583.569 25.8097C582.641 24.465 582.139 22.8267 582.063 20.8949H587.248C587.324 21.9082 587.636 22.751 588.185 23.4233C588.735 24.0957 589.45 24.5975 590.33 24.929C591.22 25.2604 592.215 25.4261 593.313 25.4261C594.459 25.4261 595.463 25.2557 596.325 24.9148C597.196 24.5644 597.878 24.0815 598.37 23.4659C598.862 22.8409 599.113 22.1118 599.123 21.2784C599.113 20.5208 598.891 19.8958 598.455 19.4034C598.02 18.9015 597.409 18.4849 596.623 18.1534C595.846 17.8125 594.937 17.5095 593.896 17.2443L590.586 16.3921C588.19 15.7765 586.296 14.8438 584.904 13.5938C583.522 12.3343 582.83 10.6629 582.83 8.57956C582.83 6.86554 583.294 5.36459 584.222 4.07671C585.16 2.78884 586.433 1.78978 588.043 1.07956C589.653 0.359858 591.476 1.00136e-05 593.512 1.00136e-05C595.576 1.00136e-05 597.385 0.359858 598.938 1.07956C600.501 1.78978 601.727 2.77937 602.617 4.04831C603.507 5.30778 603.967 6.75664 603.995 8.3949H598.924ZM619.013 29.4886V0.397738H624.283V25.071H637.095V29.4886H619.013ZM646.939 0.397738V29.4886H641.669V0.397738H646.939ZM652.646 29.4886V0.397738H663.555C665.79 0.397738 667.665 0.814404 669.18 1.64774C670.704 2.48107 671.855 3.6269 672.631 5.08524C673.417 6.5341 673.81 8.18183 673.81 10.0284C673.81 11.8939 673.417 13.5511 672.631 15C671.845 16.4489 670.685 17.59 669.151 18.4233C667.617 19.2472 665.728 19.6591 663.484 19.6591H656.254V15.3267H662.773C664.08 15.3267 665.15 15.0994 665.984 14.6449C666.817 14.1904 667.432 13.5654 667.83 12.7699C668.237 11.9744 668.441 11.0606 668.441 10.0284C668.441 8.99622 668.237 8.08713 667.83 7.30115C667.432 6.51516 666.812 5.90437 665.969 5.46876C665.136 5.02368 664.061 4.80115 662.745 4.80115H657.915V29.4886H652.646ZM683.658 0.397738V29.4886H678.388V0.397738H683.658ZM699.222 29.4886H689.364V0.397738H699.421C702.309 0.397738 704.79 0.980124 706.864 2.1449C708.948 3.3002 710.548 4.96213 711.665 7.13069C712.783 9.29925 713.342 11.894 713.342 14.9148C713.342 17.9451 712.778 20.5493 711.651 22.7273C710.534 24.9053 708.919 26.5767 706.807 27.7415C704.705 28.9063 702.177 29.4886 699.222 29.4886ZM694.634 24.929H698.967C700.993 24.929 702.683 24.5597 704.038 23.821C705.392 23.0729 706.41 21.9602 707.092 20.483C707.773 18.9962 708.114 17.1402 708.114 14.9148C708.114 12.6894 707.773 10.8428 707.092 9.37501C706.41 7.89774 705.401 6.79452 704.066 6.06535C702.74 5.32672 701.093 4.9574 699.123 4.9574H694.634V24.929ZM744.08 8.3949C743.948 7.15437 743.389 6.18846 742.404 5.49717C741.429 4.80588 740.16 4.46024 738.597 4.46024C737.499 4.46024 736.557 4.62596 735.771 4.9574C734.985 5.28884 734.383 5.73865 733.967 6.30683C733.55 6.87501 733.337 7.52369 733.327 8.25285C733.327 8.85891 733.465 9.38448 733.739 9.82956C734.023 10.2746 734.407 10.6534 734.89 10.9659C735.373 11.2689 735.908 11.5246 736.495 11.733C737.082 11.9413 737.674 12.1165 738.271 12.2585L740.998 12.9404C742.096 13.196 743.152 13.5417 744.165 13.9773C745.188 14.4129 746.102 14.9621 746.907 15.625C747.721 16.2879 748.365 17.0881 748.839 18.0256C749.312 18.9631 749.549 20.0616 749.549 21.321C749.549 23.0256 749.113 24.5265 748.242 25.8239C747.371 27.1118 746.111 28.1203 744.464 28.8494C742.825 29.5691 740.842 29.929 738.512 29.929C736.249 29.929 734.284 29.5786 732.617 28.8779C730.96 28.1771 729.663 27.1544 728.725 25.8097C727.797 24.465 727.295 22.8267 727.219 20.8949H732.404C732.48 21.9082 732.792 22.751 733.342 23.4233C733.891 24.0957 734.606 24.5975 735.486 24.929C736.377 25.2604 737.371 25.4261 738.469 25.4261C739.615 25.4261 740.619 25.2557 741.481 24.9148C742.352 24.5644 743.034 24.0815 743.526 23.4659C744.019 22.8409 744.27 22.1118 744.279 21.2784C744.27 20.5208 744.047 19.8958 743.611 19.4034C743.176 18.9015 742.565 18.4849 741.779 18.1534C741.003 17.8125 740.093 17.5095 739.052 17.2443L735.742 16.3921C733.346 15.7765 731.452 14.8438 730.06 13.5938C728.678 12.3343 727.986 10.6629 727.986 8.57956C727.986 6.86554 728.45 5.36459 729.379 4.07671C730.316 2.78884 731.59 1.78978 733.2 1.07956C734.809 0.359858 736.632 1.00136e-05 738.668 1.00136e-05C740.733 1.00136e-05 742.541 0.359858 744.094 1.07956C745.657 1.78978 746.883 2.77937 747.773 4.04831C748.664 5.30778 749.123 6.75664 749.151 8.3949H744.08ZM759.517 0.397738V29.4886H754.247V0.397738H759.517ZM784.712 9.68751C784.476 8.92046 784.149 8.23391 783.732 7.62785C783.325 7.01232 782.833 6.48675 782.255 6.05115C781.687 5.61554 781.033 5.28884 780.295 5.07103C779.556 4.84376 778.751 4.73012 777.88 4.73012C776.317 4.73012 774.925 5.12312 773.704 5.9091C772.482 6.69509 771.521 7.85039 770.82 9.37501C770.129 10.8902 769.783 12.7368 769.783 14.9148C769.783 17.1118 770.129 18.9725 770.82 20.4972C771.512 22.0218 772.473 23.1818 773.704 23.9773C774.935 24.7633 776.365 25.1563 777.994 25.1563C779.471 25.1563 780.749 24.8722 781.829 24.304C782.918 23.7358 783.756 22.9309 784.343 21.8892C784.93 20.8381 785.224 19.607 785.224 18.196L786.417 18.3807H778.519V14.2614H790.323V17.7557C790.323 20.2462 789.793 22.4006 788.732 24.2188C787.672 26.0369 786.213 27.4385 784.357 28.4233C782.501 29.3987 780.37 29.8864 777.965 29.8864C775.285 29.8864 772.932 29.285 770.906 28.0824C768.888 26.8703 767.312 25.1515 766.175 22.9261C765.048 20.6913 764.485 18.0398 764.485 14.9716C764.485 12.6231 764.816 10.5256 765.479 8.67899C766.152 6.8324 767.089 5.26516 768.292 3.97728C769.495 2.67993 770.906 1.69509 772.525 1.02274C774.144 0.340919 775.906 1.00136e-05 777.809 1.00136e-05C779.419 1.00136e-05 780.92 0.236753 782.312 0.710238C783.704 1.17425 784.94 1.83713 786.019 2.69887C787.108 3.56062 788.003 4.58334 788.704 5.76706C789.405 6.95077 789.864 8.25759 790.082 9.68751H784.712ZM819.325 0.397738V29.4886H814.638L800.93 9.67331H800.689V29.4886H795.419V0.397738H800.135L813.828 20.2273H814.084V0.397738H819.325ZM828.803 29.4886H823.178L833.42 0.397738H839.925L850.181 29.4886H844.556L836.786 6.36365H836.559L828.803 29.4886ZM828.988 18.0824H844.329V22.3154H828.988V18.0824ZM854.013 29.4886V0.397738H859.283V25.071H872.095V29.4886H854.013ZM881.939 0.397738V29.4886H876.669V0.397738H881.939ZM911.552 0.397738V29.4886H906.864L893.157 9.67331H892.915V29.4886H887.646V0.397738H892.361L906.055 20.2273H906.31V0.397738H911.552ZM936.783 9.68751C936.546 8.92046 936.219 8.23391 935.803 7.62785C935.395 7.01232 934.903 6.48675 934.325 6.05115C933.757 5.61554 933.104 5.28884 932.365 5.07103C931.626 4.84376 930.821 4.73012 929.95 4.73012C928.388 4.73012 926.996 5.12312 925.774 5.9091C924.553 6.69509 923.591 7.85039 922.891 9.37501C922.199 10.8902 921.854 12.7368 921.854 14.9148C921.854 17.1118 922.199 18.9725 922.891 20.4972C923.582 22.0218 924.543 23.1818 925.774 23.9773C927.005 24.7633 928.435 25.1563 930.064 25.1563C931.541 25.1563 932.82 24.8722 933.899 24.304C934.988 23.7358 935.826 22.9309 936.413 21.8892C937 20.8381 937.294 19.607 937.294 18.196L938.487 18.3807H930.589V14.2614H942.393V17.7557C942.393 20.2462 941.863 22.4006 940.803 24.2188C939.742 26.0369 938.284 27.4385 936.428 28.4233C934.571 29.3987 932.441 29.8864 930.035 29.8864C927.356 29.8864 925.002 29.285 922.976 28.0824C920.959 26.8703 919.382 25.1515 918.246 22.9261C917.119 20.6913 916.555 18.0398 916.555 14.9716C916.555 12.6231 916.887 10.5256 917.55 8.67899C918.222 6.8324 919.16 5.26516 920.362 3.97728C921.565 2.67993 922.976 1.69509 924.595 1.02274C926.214 0.340919 927.976 1.00136e-05 929.879 1.00136e-05C931.489 1.00136e-05 932.99 0.236753 934.382 0.710238C935.774 1.17425 937.01 1.83713 938.089 2.69887C939.178 3.56062 940.073 4.58334 940.774 5.76706C941.475 6.95077 941.934 8.25759 942.152 9.68751H936.783Z" fill="white"/>
</svg>
