<svg width="667" height="53" viewBox="0 0 667 53" fill="none" xmlns="http://www.w3.org/2000/svg">
<path d="M131.561 2.42045V0.545454H144.652V2.42045H139.163V18H137.05V2.42045H131.561ZM149.653 10.125V18H147.641V0.545454H149.653V6.95455H149.823C150.13 6.27841 150.59 5.74148 151.204 5.34375C151.823 4.94034 152.647 4.73864 153.675 4.73864C154.567 4.73864 155.349 4.91761 156.019 5.27557C156.69 5.62784 157.21 6.17045 157.579 6.90341C157.954 7.63068 158.141 8.55682 158.141 9.68182V18H156.13V9.81818C156.13 8.77841 155.86 7.97443 155.32 7.40625C154.786 6.83239 154.045 6.54545 153.096 6.54545C152.437 6.54545 151.846 6.68466 151.323 6.96307C150.806 7.24148 150.397 7.64773 150.096 8.18182C149.8 8.71591 149.653 9.36364 149.653 10.125ZM161.821 18V4.90909H163.832V18H161.821ZM162.844 2.72727C162.452 2.72727 162.114 2.59375 161.83 2.3267C161.551 2.05966 161.412 1.73864 161.412 1.36364C161.412 0.988636 161.551 0.667614 161.83 0.400568C162.114 0.133523 162.452 0 162.844 0C163.236 0 163.571 0.133523 163.849 0.400568C164.134 0.667614 164.276 0.988636 164.276 1.36364C164.276 1.73864 164.134 2.05966 163.849 2.3267C163.571 2.59375 163.236 2.72727 162.844 2.72727ZM176.789 7.84091L174.982 8.35227C174.869 8.05114 174.701 7.75852 174.479 7.47443C174.263 7.18466 173.968 6.94602 173.593 6.75852C173.218 6.57102 172.738 6.47727 172.153 6.47727C171.352 6.47727 170.684 6.66193 170.15 7.03125C169.621 7.39489 169.357 7.85795 169.357 8.42045C169.357 8.92045 169.539 9.31534 169.903 9.60511C170.266 9.89489 170.835 10.1364 171.607 10.3295L173.55 10.8068C174.721 11.0909 175.593 11.5256 176.167 12.1108C176.741 12.6903 177.028 13.4375 177.028 14.3523C177.028 15.1023 176.812 15.7727 176.38 16.3636C175.954 16.9545 175.357 17.4205 174.59 17.7614C173.823 18.1023 172.931 18.2727 171.914 18.2727C170.579 18.2727 169.474 17.983 168.599 17.4034C167.724 16.8239 167.17 15.9773 166.937 14.8636L168.846 14.3864C169.028 15.0909 169.371 15.6193 169.877 15.9716C170.388 16.3239 171.056 16.5 171.88 16.5C172.817 16.5 173.562 16.3011 174.113 15.9034C174.67 15.5 174.948 15.017 174.948 14.4545C174.948 14 174.789 13.6193 174.471 13.3125C174.153 13 173.664 12.767 173.005 12.6136L170.823 12.1023C169.624 11.8182 168.744 11.3778 168.181 10.7812C167.624 10.179 167.346 9.42614 167.346 8.52273C167.346 7.78409 167.553 7.13068 167.968 6.5625C168.388 5.99432 168.96 5.5483 169.681 5.22443C170.408 4.90057 171.232 4.73864 172.153 4.73864C173.448 4.73864 174.465 5.02273 175.204 5.59091C175.948 6.15909 176.477 6.90909 176.789 7.84091ZM186.805 18V4.90909H188.817V18H186.805ZM187.828 2.72727C187.436 2.72727 187.098 2.59375 186.814 2.3267C186.536 2.05966 186.396 1.73864 186.396 1.36364C186.396 0.988636 186.536 0.667614 186.814 0.400568C187.098 0.133523 187.436 0 187.828 0C188.22 0 188.555 0.133523 188.834 0.400568C189.118 0.667614 189.26 0.988636 189.26 1.36364C189.26 1.73864 189.118 2.05966 188.834 2.3267C188.555 2.59375 188.22 2.72727 187.828 2.72727ZM201.773 7.84091L199.967 8.35227C199.853 8.05114 199.685 7.75852 199.464 7.47443C199.248 7.18466 198.952 6.94602 198.577 6.75852C198.202 6.57102 197.722 6.47727 197.137 6.47727C196.336 6.47727 195.668 6.66193 195.134 7.03125C194.606 7.39489 194.342 7.85795 194.342 8.42045C194.342 8.92045 194.523 9.31534 194.887 9.60511C195.251 9.89489 195.819 10.1364 196.592 10.3295L198.535 10.8068C199.705 11.0909 200.577 11.5256 201.151 12.1108C201.725 12.6903 202.012 13.4375 202.012 14.3523C202.012 15.1023 201.796 15.7727 201.364 16.3636C200.938 16.9545 200.342 17.4205 199.575 17.7614C198.808 18.1023 197.915 18.2727 196.898 18.2727C195.563 18.2727 194.458 17.983 193.583 17.4034C192.708 16.8239 192.154 15.9773 191.921 14.8636L193.83 14.3864C194.012 15.0909 194.356 15.6193 194.861 15.9716C195.373 16.3239 196.04 16.5 196.864 16.5C197.802 16.5 198.546 16.3011 199.097 15.9034C199.654 15.5 199.933 15.017 199.933 14.4545C199.933 14 199.773 13.6193 199.455 13.3125C199.137 13 198.648 12.767 197.989 12.6136L195.808 12.1023C194.609 11.8182 193.728 11.3778 193.165 10.7812C192.609 10.179 192.33 9.42614 192.33 8.52273C192.33 7.78409 192.538 7.13068 192.952 6.5625C193.373 5.99432 193.944 5.5483 194.665 5.22443C195.393 4.90057 196.217 4.73864 197.137 4.73864C198.433 4.73864 199.45 5.02273 200.188 5.59091C200.933 6.15909 201.461 6.90909 201.773 7.84091ZM213.801 10.125V18H211.79V4.90909H213.733V6.95455H213.903C214.21 6.28977 214.676 5.75568 215.301 5.35227C215.926 4.94318 216.733 4.73864 217.722 4.73864C218.608 4.73864 219.384 4.92045 220.048 5.28409C220.713 5.64205 221.23 6.1875 221.599 6.92045C221.969 7.64773 222.153 8.56818 222.153 9.68182V18H220.142V9.81818C220.142 8.78977 219.875 7.98864 219.341 7.41477C218.807 6.83523 218.074 6.54545 217.142 6.54545C216.5 6.54545 215.926 6.68466 215.42 6.96307C214.92 7.24148 214.526 7.64773 214.236 8.18182C213.946 8.71591 213.801 9.36364 213.801 10.125ZM231.147 18.2727C229.965 18.2727 228.928 17.9915 228.036 17.429C227.15 16.8665 226.457 16.0795 225.957 15.0682C225.462 14.0568 225.215 12.875 225.215 11.5227C225.215 10.1591 225.462 8.96875 225.957 7.9517C226.457 6.93466 227.15 6.14489 228.036 5.58239C228.928 5.01989 229.965 4.73864 231.147 4.73864C232.329 4.73864 233.363 5.01989 234.249 5.58239C235.141 6.14489 235.835 6.93466 236.329 7.9517C236.829 8.96875 237.079 10.1591 237.079 11.5227C237.079 12.875 236.829 14.0568 236.329 15.0682C235.835 16.0795 235.141 16.8665 234.249 17.429C233.363 17.9915 232.329 18.2727 231.147 18.2727ZM231.147 16.4659C232.045 16.4659 232.783 16.2358 233.363 15.7756C233.942 15.3153 234.371 14.7102 234.65 13.9602C234.928 13.2102 235.067 12.3977 235.067 11.5227C235.067 10.6477 234.928 9.83239 234.65 9.0767C234.371 8.32102 233.942 7.71023 233.363 7.24432C232.783 6.77841 232.045 6.54545 231.147 6.54545C230.249 6.54545 229.511 6.77841 228.931 7.24432C228.352 7.71023 227.923 8.32102 227.644 9.0767C227.366 9.83239 227.227 10.6477 227.227 11.5227C227.227 12.3977 227.366 13.2102 227.644 13.9602C227.923 14.7102 228.352 15.3153 228.931 15.7756C229.511 16.2358 230.249 16.4659 231.147 16.4659ZM245.842 4.90909V6.61364H239.058V4.90909H245.842ZM241.036 1.77273H243.047V14.25C243.047 14.8182 243.129 15.2443 243.294 15.5284C243.464 15.8068 243.68 15.9943 243.942 16.0909C244.209 16.1818 244.49 16.2273 244.786 16.2273C245.007 16.2273 245.189 16.2159 245.331 16.1932C245.473 16.1648 245.587 16.142 245.672 16.125L246.081 17.9318C245.945 17.983 245.754 18.0341 245.51 18.0852C245.266 18.142 244.956 18.1705 244.581 18.1705C244.013 18.1705 243.456 18.0483 242.911 17.804C242.371 17.5597 241.922 17.1875 241.564 16.6875C241.212 16.1875 241.036 15.5568 241.036 14.7955V1.77273ZM259.47 18.3068C258.641 18.3068 257.888 18.1506 257.212 17.8381C256.536 17.5199 255.999 17.0625 255.601 16.4659C255.203 15.8636 255.004 15.1364 255.004 14.2841C255.004 13.5341 255.152 12.9261 255.447 12.4602C255.743 11.9886 256.138 11.6193 256.632 11.3523C257.126 11.0852 257.672 10.8864 258.268 10.7557C258.871 10.6193 259.476 10.5114 260.084 10.4318C260.879 10.3295 261.524 10.2528 262.018 10.2017C262.518 10.1449 262.882 10.0511 263.109 9.92045C263.342 9.78977 263.459 9.5625 263.459 9.23864V9.17045C263.459 8.32955 263.229 7.67614 262.768 7.21023C262.314 6.74432 261.624 6.51136 260.697 6.51136C259.737 6.51136 258.984 6.72159 258.439 7.14205C257.893 7.5625 257.51 8.01136 257.288 8.48864L255.379 7.80682C255.72 7.01136 256.175 6.39205 256.743 5.94886C257.317 5.5 257.942 5.1875 258.618 5.01136C259.3 4.82955 259.97 4.73864 260.629 4.73864C261.05 4.73864 261.533 4.78977 262.078 4.89204C262.629 4.98864 263.161 5.19034 263.672 5.49716C264.189 5.80398 264.618 6.26705 264.959 6.88636C265.3 7.50568 265.47 8.33523 265.47 9.375V18H263.459V16.2273H263.357C263.22 16.5114 262.993 16.8153 262.675 17.1392C262.357 17.4631 261.933 17.7386 261.405 17.9659C260.876 18.1932 260.232 18.3068 259.47 18.3068ZM259.777 16.5C260.572 16.5 261.243 16.3438 261.788 16.0312C262.339 15.7188 262.754 15.3153 263.033 14.821C263.317 14.3267 263.459 13.8068 263.459 13.2614V11.4205C263.374 11.5227 263.186 11.6165 262.896 11.7017C262.612 11.7812 262.283 11.8523 261.908 11.9148C261.538 11.9716 261.178 12.0227 260.825 12.0682C260.479 12.108 260.197 12.142 259.982 12.1705C259.459 12.2386 258.97 12.3494 258.516 12.5028C258.067 12.6506 257.703 12.875 257.425 13.1761C257.152 13.4716 257.016 13.875 257.016 14.3864C257.016 15.0852 257.274 15.6136 257.791 15.9716C258.314 16.3239 258.976 16.5 259.777 16.5ZM269.414 18V0.545454H271.425V6.98864H271.596C271.744 6.76136 271.948 6.47159 272.21 6.11932C272.477 5.76136 272.857 5.44318 273.352 5.16477C273.852 4.88068 274.528 4.73864 275.38 4.73864C276.482 4.73864 277.454 5.0142 278.295 5.56534C279.136 6.11648 279.792 6.89773 280.263 7.90909C280.735 8.92045 280.971 10.1136 280.971 11.4886C280.971 12.875 280.735 14.0767 280.263 15.0938C279.792 16.1051 279.138 16.8892 278.303 17.446C277.468 17.9972 276.505 18.2727 275.414 18.2727C274.573 18.2727 273.9 18.1335 273.394 17.8551C272.888 17.571 272.499 17.25 272.227 16.892C271.954 16.5284 271.744 16.2273 271.596 15.9886H271.357V18H269.414ZM271.391 11.4545C271.391 12.4432 271.536 13.3153 271.826 14.071C272.116 14.821 272.539 15.4091 273.096 15.8352C273.653 16.2557 274.335 16.4659 275.141 16.4659C275.982 16.4659 276.684 16.2443 277.246 15.8011C277.815 15.3523 278.241 14.75 278.525 13.9943C278.815 13.233 278.96 12.3864 278.96 11.4545C278.96 10.5341 278.817 9.70455 278.533 8.96591C278.255 8.22159 277.832 7.63352 277.263 7.2017C276.701 6.7642 275.994 6.54545 275.141 6.54545C274.323 6.54545 273.636 6.75284 273.079 7.16761C272.522 7.5767 272.102 8.15057 271.817 8.8892C271.533 9.62216 271.391 10.4773 271.391 11.4545ZM289.366 18.2727C288.184 18.2727 287.147 17.9915 286.255 17.429C285.369 16.8665 284.675 16.0795 284.175 15.0682C283.681 14.0568 283.434 12.875 283.434 11.5227C283.434 10.1591 283.681 8.96875 284.175 7.9517C284.675 6.93466 285.369 6.14489 286.255 5.58239C287.147 5.01989 288.184 4.73864 289.366 4.73864C290.548 4.73864 291.582 5.01989 292.468 5.58239C293.36 6.14489 294.053 6.93466 294.548 7.9517C295.048 8.96875 295.298 10.1591 295.298 11.5227C295.298 12.875 295.048 14.0568 294.548 15.0682C294.053 16.0795 293.36 16.8665 292.468 17.429C291.582 17.9915 290.548 18.2727 289.366 18.2727ZM289.366 16.4659C290.263 16.4659 291.002 16.2358 291.582 15.7756C292.161 15.3153 292.59 14.7102 292.869 13.9602C293.147 13.2102 293.286 12.3977 293.286 11.5227C293.286 10.6477 293.147 9.83239 292.869 9.0767C292.59 8.32102 292.161 7.71023 291.582 7.24432C291.002 6.77841 290.263 6.54545 289.366 6.54545C288.468 6.54545 287.729 6.77841 287.15 7.24432C286.57 7.71023 286.141 8.32102 285.863 9.0767C285.585 9.83239 285.445 10.6477 285.445 11.5227C285.445 12.3977 285.585 13.2102 285.863 13.9602C286.141 14.7102 286.57 15.3153 287.15 15.7756C287.729 16.2358 288.468 16.4659 289.366 16.4659ZM306.618 12.6477V4.90909H308.629V18H306.618V15.7841H306.482C306.175 16.4489 305.697 17.0142 305.05 17.4801C304.402 17.9403 303.584 18.1705 302.595 18.1705C301.777 18.1705 301.05 17.9915 300.413 17.6335C299.777 17.2699 299.277 16.7244 298.913 15.9972C298.55 15.2642 298.368 14.3409 298.368 13.2273V4.90909H300.379V13.0909C300.379 14.0455 300.646 14.8068 301.18 15.375C301.72 15.9432 302.408 16.2273 303.243 16.2273C303.743 16.2273 304.251 16.0994 304.768 15.8438C305.291 15.5881 305.729 15.196 306.081 14.6676C306.439 14.1392 306.618 13.4659 306.618 12.6477ZM318.006 4.90909V6.61364H311.222V4.90909H318.006ZM313.2 1.77273H315.211V14.25C315.211 14.8182 315.293 15.2443 315.458 15.5284C315.629 15.8068 315.844 15.9943 316.106 16.0909C316.373 16.1818 316.654 16.2273 316.95 16.2273C317.171 16.2273 317.353 16.2159 317.495 16.1932C317.637 16.1648 317.751 16.142 317.836 16.125L318.245 17.9318C318.109 17.983 317.918 18.0341 317.674 18.0852C317.43 18.142 317.12 18.1705 316.745 18.1705C316.177 18.1705 315.62 18.0483 315.075 17.804C314.535 17.5597 314.086 17.1875 313.728 16.6875C313.376 16.1875 313.2 15.5568 313.2 14.7955V1.77273ZM331.634 18.3068C330.805 18.3068 330.052 18.1506 329.376 17.8381C328.7 17.5199 328.163 17.0625 327.765 16.4659C327.367 15.8636 327.168 15.1364 327.168 14.2841C327.168 13.5341 327.316 12.9261 327.611 12.4602C327.907 11.9886 328.302 11.6193 328.796 11.3523C329.29 11.0852 329.836 10.8864 330.433 10.7557C331.035 10.6193 331.64 10.5114 332.248 10.4318C333.043 10.3295 333.688 10.2528 334.183 10.2017C334.683 10.1449 335.046 10.0511 335.273 9.92045C335.506 9.78977 335.623 9.5625 335.623 9.23864V9.17045C335.623 8.32955 335.393 7.67614 334.933 7.21023C334.478 6.74432 333.788 6.51136 332.861 6.51136C331.901 6.51136 331.148 6.72159 330.603 7.14205C330.058 7.5625 329.674 8.01136 329.452 8.48864L327.543 7.80682C327.884 7.01136 328.339 6.39205 328.907 5.94886C329.481 5.5 330.106 5.1875 330.782 5.01136C331.464 4.82955 332.134 4.73864 332.793 4.73864C333.214 4.73864 333.697 4.78977 334.242 4.89204C334.793 4.98864 335.325 5.19034 335.836 5.49716C336.353 5.80398 336.782 6.26705 337.123 6.88636C337.464 7.50568 337.634 8.33523 337.634 9.375V18H335.623V16.2273H335.521C335.384 16.5114 335.157 16.8153 334.839 17.1392C334.521 17.4631 334.097 17.7386 333.569 17.9659C333.04 18.1932 332.396 18.3068 331.634 18.3068ZM331.941 16.5C332.736 16.5 333.407 16.3438 333.952 16.0312C334.504 15.7188 334.918 15.3153 335.197 14.821C335.481 14.3267 335.623 13.8068 335.623 13.2614V11.4205C335.538 11.5227 335.35 11.6165 335.06 11.7017C334.776 11.7812 334.447 11.8523 334.072 11.9148C333.702 11.9716 333.342 12.0227 332.989 12.0682C332.643 12.108 332.361 12.142 332.146 12.1705C331.623 12.2386 331.134 12.3494 330.68 12.5028C330.231 12.6506 329.867 12.875 329.589 13.1761C329.316 13.4716 329.18 13.875 329.18 14.3864C329.18 15.0852 329.438 15.6136 329.955 15.9716C330.478 16.3239 331.14 16.5 331.941 16.5ZM346.249 18.2727C345.158 18.2727 344.195 17.9972 343.359 17.446C342.524 16.8892 341.871 16.1051 341.399 15.0938C340.928 14.0767 340.692 12.875 340.692 11.4886C340.692 10.1136 340.928 8.92045 341.399 7.90909C341.871 6.89773 342.527 6.11648 343.368 5.56534C344.209 5.0142 345.18 4.73864 346.283 4.73864C347.135 4.73864 347.808 4.88068 348.303 5.16477C348.803 5.44318 349.183 5.76136 349.445 6.11932C349.712 6.47159 349.919 6.76136 350.067 6.98864H350.237V0.545454H352.249V18H350.305V15.9886H350.067C349.919 16.2273 349.709 16.5284 349.436 16.892C349.163 17.25 348.774 17.571 348.268 17.8551C347.763 18.1335 347.089 18.2727 346.249 18.2727ZM346.521 16.4659C347.328 16.4659 348.01 16.2557 348.567 15.8352C349.124 15.4091 349.547 14.821 349.837 14.071C350.126 13.3153 350.271 12.4432 350.271 11.4545C350.271 10.4773 350.129 9.62216 349.845 8.8892C349.561 8.15057 349.141 7.5767 348.584 7.16761C348.027 6.75284 347.339 6.54545 346.521 6.54545C345.669 6.54545 344.959 6.7642 344.391 7.2017C343.828 7.63352 343.405 8.22159 343.121 8.96591C342.842 9.70455 342.703 10.5341 342.703 11.4545C342.703 12.3864 342.845 13.233 343.129 13.9943C343.419 14.75 343.845 15.3523 344.408 15.8011C344.976 16.2443 345.68 16.4659 346.521 16.4659ZM361.155 18.2727C360.064 18.2727 359.101 17.9972 358.266 17.446C357.43 16.8892 356.777 16.1051 356.305 15.0938C355.834 14.0767 355.598 12.875 355.598 11.4886C355.598 10.1136 355.834 8.92045 356.305 7.90909C356.777 6.89773 357.433 6.11648 358.274 5.56534C359.115 5.0142 360.087 4.73864 361.189 4.73864C362.041 4.73864 362.714 4.88068 363.209 5.16477C363.709 5.44318 364.089 5.76136 364.351 6.11932C364.618 6.47159 364.825 6.76136 364.973 6.98864H365.143V0.545454H367.155V18H365.212V15.9886H364.973C364.825 16.2273 364.615 16.5284 364.342 16.892C364.07 17.25 363.68 17.571 363.175 17.8551C362.669 18.1335 361.996 18.2727 361.155 18.2727ZM361.428 16.4659C362.234 16.4659 362.916 16.2557 363.473 15.8352C364.03 15.4091 364.453 14.821 364.743 14.071C365.033 13.3153 365.178 12.4432 365.178 11.4545C365.178 10.4773 365.036 9.62216 364.751 8.8892C364.467 8.15057 364.047 7.5767 363.49 7.16761C362.933 6.75284 362.246 6.54545 361.428 6.54545C360.575 6.54545 359.865 6.7642 359.297 7.2017C358.734 7.63352 358.311 8.22159 358.027 8.96591C357.749 9.70455 357.609 10.5341 357.609 11.4545C357.609 12.3864 357.751 13.233 358.036 13.9943C358.325 14.75 358.751 15.3523 359.314 15.8011C359.882 16.2443 360.587 16.4659 361.428 16.4659ZM371.118 18V4.90909H373.129V18H371.118ZM372.141 2.72727C371.749 2.72727 371.411 2.59375 371.126 2.3267C370.848 2.05966 370.709 1.73864 370.709 1.36364C370.709 0.988636 370.848 0.667614 371.126 0.400568C371.411 0.133523 371.749 0 372.141 0C372.533 0 372.868 0.133523 373.146 0.400568C373.43 0.667614 373.572 0.988636 373.572 1.36364C373.572 1.73864 373.43 2.05966 373.146 2.3267C372.868 2.59375 372.533 2.72727 372.141 2.72727ZM378.825 10.125V18H376.813V4.90909H378.756V6.95455H378.927C379.234 6.28977 379.7 5.75568 380.325 5.35227C380.95 4.94318 381.756 4.73864 382.745 4.73864C383.631 4.73864 384.407 4.92045 385.072 5.28409C385.736 5.64205 386.254 6.1875 386.623 6.92045C386.992 7.64773 387.177 8.56818 387.177 9.68182V18H385.165V9.81818C385.165 8.78977 384.898 7.98864 384.364 7.41477C383.83 6.83523 383.097 6.54545 382.165 6.54545C381.523 6.54545 380.95 6.68466 380.444 6.96307C379.944 7.24148 379.549 7.64773 379.259 8.18182C378.969 8.71591 378.825 9.36364 378.825 10.125ZM396.136 23.1818C395.165 23.1818 394.33 23.0568 393.631 22.8068C392.932 22.5625 392.349 22.2386 391.884 21.8352C391.423 21.4375 391.057 21.0114 390.784 20.5568L392.386 19.4318C392.568 19.6705 392.798 19.9432 393.077 20.25C393.355 20.5625 393.736 20.8324 394.219 21.0597C394.707 21.2926 395.347 21.4091 396.136 21.4091C397.193 21.4091 398.065 21.1534 398.753 20.642C399.44 20.1307 399.784 19.3295 399.784 18.2386V15.5795H399.614C399.466 15.8182 399.256 16.1136 398.983 16.4659C398.716 16.8125 398.33 17.1222 397.824 17.3949C397.324 17.6619 396.648 17.7955 395.795 17.7955C394.739 17.7955 393.79 17.5455 392.949 17.0455C392.114 16.5455 391.452 15.8182 390.963 14.8636C390.48 13.9091 390.239 12.75 390.239 11.3864C390.239 10.0455 390.474 8.87784 390.946 7.88352C391.418 6.88352 392.074 6.1108 392.915 5.56534C393.756 5.0142 394.727 4.73864 395.83 4.73864C396.682 4.73864 397.358 4.88068 397.858 5.16477C398.364 5.44318 398.75 5.76136 399.017 6.11932C399.29 6.47159 399.5 6.76136 399.648 6.98864H399.852V4.90909H401.795V18.375C401.795 19.5 401.54 20.4148 401.028 21.1193C400.523 21.8295 399.841 22.3494 398.983 22.679C398.131 23.0142 397.182 23.1818 396.136 23.1818ZM396.068 15.9886C396.875 15.9886 397.557 15.804 398.114 15.4347C398.67 15.0653 399.094 14.5341 399.384 13.8409C399.673 13.1477 399.818 12.3182 399.818 11.3523C399.818 10.4091 399.676 9.5767 399.392 8.85511C399.108 8.13352 398.687 7.56818 398.131 7.15909C397.574 6.75 396.886 6.54545 396.068 6.54545C395.216 6.54545 394.506 6.76136 393.937 7.19318C393.375 7.625 392.952 8.20455 392.668 8.93182C392.389 9.65909 392.25 10.4659 392.25 11.3523C392.25 12.2614 392.392 13.0653 392.676 13.7642C392.966 14.4574 393.392 15.0028 393.955 15.4006C394.523 15.7926 395.227 15.9886 396.068 15.9886ZM412.227 18V4.90909H414.17V6.95455H414.341C414.614 6.25568 415.054 5.71307 415.662 5.3267C416.27 4.93466 417 4.73864 417.852 4.73864C418.716 4.73864 419.435 4.93466 420.009 5.3267C420.588 5.71307 421.04 6.25568 421.364 6.95455H421.5C421.835 6.27841 422.338 5.74148 423.009 5.34375C423.679 4.94034 424.483 4.73864 425.42 4.73864C426.591 4.73864 427.548 5.10511 428.293 5.83807C429.037 6.56534 429.409 7.69886 429.409 9.23864V18H427.398V9.23864C427.398 8.27273 427.134 7.58239 426.605 7.16761C426.077 6.75284 425.455 6.54545 424.739 6.54545C423.818 6.54545 423.105 6.82386 422.599 7.38068C422.094 7.93182 421.841 8.63068 421.841 9.47727V18H419.795V9.03409C419.795 8.28977 419.554 7.69034 419.071 7.2358C418.588 6.77557 417.966 6.54545 417.205 6.54545C416.682 6.54545 416.193 6.68466 415.739 6.96307C415.29 7.24148 414.926 7.62784 414.648 8.12216C414.375 8.6108 414.239 9.17614 414.239 9.81818V18H412.227ZM438.405 18.2727C437.223 18.2727 436.186 17.9915 435.294 17.429C434.408 16.8665 433.714 16.0795 433.214 15.0682C432.72 14.0568 432.473 12.875 432.473 11.5227C432.473 10.1591 432.72 8.96875 433.214 7.9517C433.714 6.93466 434.408 6.14489 435.294 5.58239C436.186 5.01989 437.223 4.73864 438.405 4.73864C439.587 4.73864 440.621 5.01989 441.507 5.58239C442.399 6.14489 443.092 6.93466 443.587 7.9517C444.087 8.96875 444.337 10.1591 444.337 11.5227C444.337 12.875 444.087 14.0568 443.587 15.0682C443.092 16.0795 442.399 16.8665 441.507 17.429C440.621 17.9915 439.587 18.2727 438.405 18.2727ZM438.405 16.4659C439.303 16.4659 440.041 16.2358 440.621 15.7756C441.2 15.3153 441.629 14.7102 441.908 13.9602C442.186 13.2102 442.325 12.3977 442.325 11.5227C442.325 10.6477 442.186 9.83239 441.908 9.0767C441.629 8.32102 441.2 7.71023 440.621 7.24432C440.041 6.77841 439.303 6.54545 438.405 6.54545C437.507 6.54545 436.768 6.77841 436.189 7.24432C435.609 7.71023 435.18 8.32102 434.902 9.0767C434.624 9.83239 434.484 10.6477 434.484 11.5227C434.484 12.3977 434.624 13.2102 434.902 13.9602C435.18 14.7102 435.609 15.3153 436.189 15.7756C436.768 16.2358 437.507 16.4659 438.405 16.4659ZM453.1 4.90909V6.61364H446.316V4.90909H453.1ZM448.293 1.77273H450.305V14.25C450.305 14.8182 450.387 15.2443 450.552 15.5284C450.722 15.8068 450.938 15.9943 451.2 16.0909C451.467 16.1818 451.748 16.2273 452.043 16.2273C452.265 16.2273 452.447 16.2159 452.589 16.1932C452.731 16.1648 452.844 16.142 452.93 16.125L453.339 17.9318C453.202 17.983 453.012 18.0341 452.768 18.0852C452.523 18.142 452.214 18.1705 451.839 18.1705C451.271 18.1705 450.714 18.0483 450.168 17.804C449.629 17.5597 449.18 17.1875 448.822 16.6875C448.469 16.1875 448.293 15.5568 448.293 14.7955V1.77273ZM456.126 18V4.90909H458.137V18H456.126ZM457.148 2.72727C456.756 2.72727 456.418 2.59375 456.134 2.3267C455.856 2.05966 455.717 1.73864 455.717 1.36364C455.717 0.988636 455.856 0.667614 456.134 0.400568C456.418 0.133523 456.756 0 457.148 0C457.54 0 457.876 0.133523 458.154 0.400568C458.438 0.667614 458.58 0.988636 458.58 1.36364C458.58 1.73864 458.438 2.05966 458.154 2.3267C457.876 2.59375 457.54 2.72727 457.148 2.72727ZM472.526 4.90909L467.685 18H465.639L460.798 4.90909H462.98L466.594 15.3409H466.73L470.344 4.90909H472.526ZM478.634 18.3068C477.805 18.3068 477.052 18.1506 476.376 17.8381C475.7 17.5199 475.163 17.0625 474.765 16.4659C474.367 15.8636 474.168 15.1364 474.168 14.2841C474.168 13.5341 474.316 12.9261 474.611 12.4602C474.907 11.9886 475.302 11.6193 475.796 11.3523C476.29 11.0852 476.836 10.8864 477.433 10.7557C478.035 10.6193 478.64 10.5114 479.248 10.4318C480.043 10.3295 480.688 10.2528 481.183 10.2017C481.683 10.1449 482.046 10.0511 482.273 9.92045C482.506 9.78977 482.623 9.5625 482.623 9.23864V9.17045C482.623 8.32955 482.393 7.67614 481.933 7.21023C481.478 6.74432 480.788 6.51136 479.861 6.51136C478.901 6.51136 478.148 6.72159 477.603 7.14205C477.058 7.5625 476.674 8.01136 476.452 8.48864L474.543 7.80682C474.884 7.01136 475.339 6.39205 475.907 5.94886C476.481 5.5 477.106 5.1875 477.782 5.01136C478.464 4.82955 479.134 4.73864 479.793 4.73864C480.214 4.73864 480.697 4.78977 481.242 4.89204C481.793 4.98864 482.325 5.19034 482.836 5.49716C483.353 5.80398 483.782 6.26705 484.123 6.88636C484.464 7.50568 484.634 8.33523 484.634 9.375V18H482.623V16.2273H482.521C482.384 16.5114 482.157 16.8153 481.839 17.1392C481.521 17.4631 481.097 17.7386 480.569 17.9659C480.04 18.1932 479.396 18.3068 478.634 18.3068ZM478.941 16.5C479.736 16.5 480.407 16.3438 480.952 16.0312C481.504 15.7188 481.918 15.3153 482.197 14.821C482.481 14.3267 482.623 13.8068 482.623 13.2614V11.4205C482.538 11.5227 482.35 11.6165 482.06 11.7017C481.776 11.7812 481.447 11.8523 481.072 11.9148C480.702 11.9716 480.342 12.0227 479.989 12.0682C479.643 12.108 479.361 12.142 479.146 12.1705C478.623 12.2386 478.134 12.3494 477.68 12.5028C477.231 12.6506 476.867 12.875 476.589 13.1761C476.316 13.4716 476.18 13.875 476.18 14.3864C476.18 15.0852 476.438 15.6136 476.955 15.9716C477.478 16.3239 478.14 16.5 478.941 16.5ZM493.999 4.90909V6.61364H487.214V4.90909H493.999ZM489.192 1.77273H491.203V14.25C491.203 14.8182 491.286 15.2443 491.45 15.5284C491.621 15.8068 491.837 15.9943 492.098 16.0909C492.365 16.1818 492.646 16.2273 492.942 16.2273C493.163 16.2273 493.345 16.2159 493.487 16.1932C493.629 16.1648 493.743 16.142 493.828 16.125L494.237 17.9318C494.101 17.983 493.911 18.0341 493.666 18.0852C493.422 18.142 493.112 18.1705 492.737 18.1705C492.169 18.1705 491.612 18.0483 491.067 17.804C490.527 17.5597 490.078 17.1875 489.72 16.6875C489.368 16.1875 489.192 15.5568 489.192 14.7955V1.77273ZM497.024 18V4.90909H499.036V18H497.024ZM498.047 2.72727C497.655 2.72727 497.317 2.59375 497.033 2.3267C496.754 2.05966 496.615 1.73864 496.615 1.36364C496.615 0.988636 496.754 0.667614 497.033 0.400568C497.317 0.133523 497.655 0 498.047 0C498.439 0 498.774 0.133523 499.053 0.400568C499.337 0.667614 499.479 0.988636 499.479 1.36364C499.479 1.73864 499.337 2.05966 499.053 2.3267C498.774 2.59375 498.439 2.72727 498.047 2.72727ZM508.038 18.2727C506.856 18.2727 505.819 17.9915 504.927 17.429C504.04 16.8665 503.347 16.0795 502.847 15.0682C502.353 14.0568 502.106 12.875 502.106 11.5227C502.106 10.1591 502.353 8.96875 502.847 7.9517C503.347 6.93466 504.04 6.14489 504.927 5.58239C505.819 5.01989 506.856 4.73864 508.038 4.73864C509.219 4.73864 510.254 5.01989 511.14 5.58239C512.032 6.14489 512.725 6.93466 513.219 7.9517C513.719 8.96875 513.969 10.1591 513.969 11.5227C513.969 12.875 513.719 14.0568 513.219 15.0682C512.725 16.0795 512.032 16.8665 511.14 17.429C510.254 17.9915 509.219 18.2727 508.038 18.2727ZM508.038 16.4659C508.935 16.4659 509.674 16.2358 510.254 15.7756C510.833 15.3153 511.262 14.7102 511.54 13.9602C511.819 13.2102 511.958 12.3977 511.958 11.5227C511.958 10.6477 511.819 9.83239 511.54 9.0767C511.262 8.32102 510.833 7.71023 510.254 7.24432C509.674 6.77841 508.935 6.54545 508.038 6.54545C507.14 6.54545 506.401 6.77841 505.822 7.24432C505.242 7.71023 504.813 8.32102 504.535 9.0767C504.256 9.83239 504.117 10.6477 504.117 11.5227C504.117 12.3977 504.256 13.2102 504.535 13.9602C504.813 14.7102 505.242 15.3153 505.822 15.7756C506.401 16.2358 507.14 16.4659 508.038 16.4659ZM519.051 10.125V18H517.04V4.90909H518.983V6.95455H519.153C519.46 6.28977 519.926 5.75568 520.551 5.35227C521.176 4.94318 521.983 4.73864 522.972 4.73864C523.858 4.73864 524.634 4.92045 525.298 5.28409C525.963 5.64205 526.48 6.1875 526.849 6.92045C527.219 7.64773 527.403 8.56818 527.403 9.68182V18H525.392V9.81818C525.392 8.78977 525.125 7.98864 524.591 7.41477C524.057 6.83523 523.324 6.54545 522.392 6.54545C521.75 6.54545 521.176 6.68466 520.67 6.96307C520.17 7.24148 519.776 7.64773 519.486 8.18182C519.196 8.71591 519.051 9.36364 519.051 10.125ZM532.545 18.1364C532.124 18.1364 531.763 17.9858 531.462 17.6847C531.161 17.3835 531.011 17.0227 531.011 16.6023C531.011 16.1818 531.161 15.821 531.462 15.5199C531.763 15.2187 532.124 15.0682 532.545 15.0682C532.965 15.0682 533.326 15.2187 533.627 15.5199C533.928 15.821 534.079 16.1818 534.079 16.6023C534.079 16.8807 534.008 17.1364 533.866 17.3693C533.729 17.6023 533.545 17.7898 533.312 17.9318C533.085 18.0682 532.829 18.1364 532.545 18.1364ZM2.11363 29.5455V47H-1.09673e-05V29.5455H2.11363ZM11.772 33.9091V35.6136H4.98792V33.9091H11.772ZM6.96519 30.7727H8.97655V43.25C8.97655 43.8182 9.05894 44.2443 9.22371 44.5284C9.39417 44.8068 9.61007 44.9943 9.87144 45.0909C10.1385 45.1818 10.4197 45.2273 10.7152 45.2273C10.9368 45.2273 11.1186 45.2159 11.2606 45.1932C11.4027 45.1648 11.5163 45.142 11.6016 45.125L12.0106 46.9318C11.8743 46.983 11.6839 47.0341 11.4396 47.0852C11.1953 47.142 10.8856 47.1705 10.5106 47.1705C9.94246 47.1705 9.38564 47.0483 8.84019 46.804C8.30042 46.5597 7.85155 46.1875 7.4936 45.6875C7.14132 45.1875 6.96519 44.5568 6.96519 43.7955V30.7727ZM21.5476 47V33.9091H23.5589V47H21.5476ZM22.5703 31.7273C22.1783 31.7273 21.8402 31.5938 21.5561 31.3267C21.2777 31.0597 21.1385 30.7386 21.1385 30.3636C21.1385 29.9886 21.2777 29.6676 21.5561 29.4006C21.8402 29.1335 22.1783 29 22.5703 29C22.9623 29 23.2976 29.1335 23.576 29.4006C23.8601 29.6676 24.0021 29.9886 24.0021 30.3636C24.0021 30.7386 23.8601 31.0597 23.576 31.3267C23.2976 31.5938 22.9623 31.7273 22.5703 31.7273ZM36.5156 36.8409L34.7088 37.3523C34.5952 37.0511 34.4275 36.7585 34.206 36.4744C33.99 36.1847 33.6946 35.946 33.3196 35.7585C32.9446 35.571 32.4645 35.4773 31.8793 35.4773C31.0781 35.4773 30.4105 35.6619 29.8764 36.0312C29.348 36.3949 29.0838 36.858 29.0838 37.4205C29.0838 37.9205 29.2656 38.3153 29.6293 38.6051C29.9929 38.8949 30.5611 39.1364 31.3338 39.3295L33.277 39.8068C34.4474 40.0909 35.3196 40.5256 35.8935 41.1108C36.4673 41.6903 36.7543 42.4375 36.7543 43.3523C36.7543 44.1023 36.5383 44.7727 36.1065 45.3636C35.6804 45.9545 35.0838 46.4205 34.3168 46.7614C33.5497 47.1023 32.6577 47.2727 31.6406 47.2727C30.3054 47.2727 29.2003 46.983 28.3253 46.4034C27.4503 45.8239 26.8963 44.9773 26.6633 43.8636L28.5724 43.3864C28.7543 44.0909 29.098 44.6193 29.6037 44.9716C30.115 45.3239 30.7827 45.5 31.6065 45.5C32.544 45.5 33.2883 45.3011 33.8395 44.9034C34.3963 44.5 34.6747 44.017 34.6747 43.4545C34.6747 43 34.5156 42.6193 34.1974 42.3125C33.8793 42 33.3906 41.767 32.7315 41.6136L30.5497 41.1023C29.3508 40.8182 28.4702 40.3778 27.9077 39.7812C27.3508 39.179 27.0724 38.4261 27.0724 37.5227C27.0724 36.7841 27.2798 36.1307 27.6946 35.5625C28.115 34.9943 28.6861 34.5483 29.4077 34.2244C30.1349 33.9006 30.9588 33.7386 31.8793 33.7386C33.1747 33.7386 34.1918 34.0227 34.9304 34.5909C35.6747 35.1591 36.2031 35.9091 36.5156 36.8409ZM50.3842 47.3068C49.5547 47.3068 48.8018 47.1506 48.1257 46.8381C47.4496 46.5199 46.9126 46.0625 46.5149 45.4659C46.1172 44.8636 45.9183 44.1364 45.9183 43.2841C45.9183 42.5341 46.066 41.9261 46.3615 41.4602C46.6569 40.9886 47.0518 40.6193 47.5462 40.3523C48.0405 40.0852 48.5859 39.8864 49.1825 39.7557C49.7848 39.6193 50.3899 39.5114 50.9979 39.4318C51.7933 39.3295 52.4382 39.2528 52.9325 39.2017C53.4325 39.1449 53.7962 39.0511 54.0234 38.9205C54.2564 38.7898 54.3729 38.5625 54.3729 38.2386V38.1705C54.3729 37.3295 54.1427 36.6761 53.6825 36.2102C53.228 35.7443 52.5376 35.5114 51.6115 35.5114C50.6513 35.5114 49.8984 35.7216 49.353 36.142C48.8075 36.5625 48.424 37.0114 48.2024 37.4886L46.2933 36.8068C46.6342 36.0114 47.0888 35.392 47.6569 34.9489C48.2308 34.5 48.8558 34.1875 49.5319 34.0114C50.2138 33.8295 50.8842 33.7386 51.5433 33.7386C51.9638 33.7386 52.4467 33.7898 52.9922 33.892C53.5433 33.9886 54.0746 34.1903 54.5859 34.4972C55.103 34.804 55.5319 35.267 55.8729 35.8864C56.2138 36.5057 56.3842 37.3352 56.3842 38.375V47H54.3729V45.2273H54.2706C54.1342 45.5114 53.9069 45.8153 53.5888 46.1392C53.2706 46.4631 52.8473 46.7386 52.3189 46.9659C51.7905 47.1932 51.1456 47.3068 50.3842 47.3068ZM50.691 45.5C51.4865 45.5 52.1569 45.3438 52.7024 45.0312C53.2535 44.7188 53.6683 44.3153 53.9467 43.821C54.2308 43.3267 54.3729 42.8068 54.3729 42.2614V40.4205C54.2876 40.5227 54.1001 40.6165 53.8104 40.7017C53.5263 40.7812 53.1967 40.8523 52.8217 40.9148C52.4524 40.9716 52.0916 41.0227 51.7393 41.0682C51.3927 41.108 51.1115 41.142 50.8956 41.1705C50.3729 41.2386 49.8842 41.3494 49.4297 41.5028C48.9808 41.6506 48.6172 41.875 48.3388 42.1761C48.066 42.4716 47.9297 42.875 47.9297 43.3864C47.9297 44.0852 48.1882 44.6136 48.7052 44.9716C49.228 45.3239 49.8899 45.5 50.691 45.5ZM60.3281 47V29.5455H62.3395V35.9886H62.5099C62.6577 35.7614 62.8622 35.4716 63.1236 35.1193C63.3906 34.7614 63.7713 34.4432 64.2656 34.1648C64.7656 33.8807 65.4418 33.7386 66.294 33.7386C67.3963 33.7386 68.3679 34.0142 69.2088 34.5653C70.0497 35.1165 70.706 35.8977 71.1775 36.9091C71.6491 37.9205 71.8849 39.1136 71.8849 40.4886C71.8849 41.875 71.6491 43.0767 71.1775 44.0938C70.706 45.1051 70.0525 45.8892 69.2173 46.446C68.3821 46.9972 67.419 47.2727 66.3281 47.2727C65.4872 47.2727 64.8139 47.1335 64.3082 46.8551C63.8025 46.571 63.4133 46.25 63.1406 45.892C62.8679 45.5284 62.6577 45.2273 62.5099 44.9886H62.2713V47H60.3281ZM62.3054 40.4545C62.3054 41.4432 62.4503 42.3153 62.74 43.071C63.0298 43.821 63.4531 44.4091 64.0099 44.8352C64.5668 45.2557 65.2486 45.4659 66.0554 45.4659C66.8963 45.4659 67.598 45.2443 68.1605 44.8011C68.7287 44.3523 69.1548 43.75 69.4389 42.9943C69.7287 42.233 69.8736 41.3864 69.8736 40.4545C69.8736 39.5341 69.7315 38.7045 69.4474 37.9659C69.169 37.2216 68.7457 36.6335 68.1775 36.2017C67.615 35.7642 66.9077 35.5455 66.0554 35.5455C65.2372 35.5455 64.5497 35.7528 63.9929 36.1676C63.4361 36.5767 63.0156 37.1506 62.7315 37.8892C62.4474 38.6222 62.3054 39.4773 62.3054 40.4545ZM80.2798 47.2727C79.098 47.2727 78.0611 46.9915 77.169 46.429C76.2827 45.8665 75.5895 45.0795 75.0895 44.0682C74.5952 43.0568 74.348 41.875 74.348 40.5227C74.348 39.1591 74.5952 37.9687 75.0895 36.9517C75.5895 35.9347 76.2827 35.1449 77.169 34.5824C78.0611 34.0199 79.098 33.7386 80.2798 33.7386C81.4616 33.7386 82.4957 34.0199 83.3821 34.5824C84.2741 35.1449 84.9673 35.9347 85.4616 36.9517C85.9616 37.9687 86.2116 39.1591 86.2116 40.5227C86.2116 41.875 85.9616 43.0568 85.4616 44.0682C84.9673 45.0795 84.2741 45.8665 83.3821 46.429C82.4957 46.9915 81.4616 47.2727 80.2798 47.2727ZM80.2798 45.4659C81.1775 45.4659 81.9162 45.2358 82.4957 44.7756C83.0753 44.3153 83.5043 43.7102 83.7827 42.9602C84.0611 42.2102 84.2003 41.3977 84.2003 40.5227C84.2003 39.6477 84.0611 38.8324 83.7827 38.0767C83.5043 37.321 83.0753 36.7102 82.4957 36.2443C81.9162 35.7784 81.1775 35.5455 80.2798 35.5455C79.3821 35.5455 78.6435 35.7784 78.0639 36.2443C77.4844 36.7102 77.0554 37.321 76.777 38.0767C76.4986 38.8324 76.3594 39.6477 76.3594 40.5227C76.3594 41.3977 76.4986 42.2102 76.777 42.9602C77.0554 43.7102 77.4844 44.3153 78.0639 44.7756C78.6435 45.2358 79.3821 45.4659 80.2798 45.4659ZM97.5319 41.6477V33.9091H99.5433V47H97.5319V44.7841H97.3956C97.0888 45.4489 96.6115 46.0142 95.9638 46.4801C95.316 46.9403 94.4979 47.1705 93.5092 47.1705C92.691 47.1705 91.9638 46.9915 91.3274 46.6335C90.691 46.2699 90.191 45.7244 89.8274 44.9972C89.4638 44.2642 89.2819 43.3409 89.2819 42.2273V33.9091H91.2933V42.0909C91.2933 43.0455 91.5604 43.8068 92.0944 44.375C92.6342 44.9432 93.3217 45.2273 94.1569 45.2273C94.6569 45.2273 95.1655 45.0994 95.6825 44.8438C96.2052 44.5881 96.6427 44.196 96.995 43.6676C97.353 43.1392 97.5319 42.4659 97.5319 41.6477ZM108.92 33.9091V35.6136H102.136V33.9091H108.92ZM104.114 30.7727H106.125V43.25C106.125 43.8182 106.207 44.2443 106.372 44.5284C106.543 44.8068 106.759 44.9943 107.02 45.0909C107.287 45.1818 107.568 45.2273 107.864 45.2273C108.085 45.2273 108.267 45.2159 108.409 45.1932C108.551 45.1648 108.665 45.142 108.75 45.125L109.159 46.9318C109.023 46.983 108.832 47.0341 108.588 47.0852C108.344 47.142 108.034 47.1705 107.659 47.1705C107.091 47.1705 106.534 47.0483 105.989 46.804C105.449 46.5597 105 46.1875 104.642 45.6875C104.29 45.1875 104.114 44.5568 104.114 43.7955V30.7727ZM123.639 47.2727C122.548 47.2727 121.585 46.9972 120.75 46.446C119.915 45.8892 119.261 45.1051 118.79 44.0938C118.318 43.0767 118.082 41.875 118.082 40.4886C118.082 39.1136 118.318 37.9205 118.79 36.9091C119.261 35.8977 119.918 35.1165 120.759 34.5653C121.599 34.0142 122.571 33.7386 123.673 33.7386C124.526 33.7386 125.199 33.8807 125.693 34.1648C126.193 34.4432 126.574 34.7614 126.835 35.1193C127.102 35.4716 127.31 35.7614 127.457 35.9886H127.628V29.5455H129.639V47H127.696V44.9886H127.457C127.31 45.2273 127.099 45.5284 126.827 45.892C126.554 46.25 126.165 46.571 125.659 46.8551C125.153 47.1335 124.48 47.2727 123.639 47.2727ZM123.912 45.4659C124.719 45.4659 125.401 45.2557 125.957 44.8352C126.514 44.4091 126.937 43.821 127.227 43.071C127.517 42.3153 127.662 41.4432 127.662 40.4545C127.662 39.4773 127.52 38.6222 127.236 37.8892C126.952 37.1506 126.531 36.5767 125.974 36.1676C125.418 35.7528 124.73 35.5455 123.912 35.5455C123.06 35.5455 122.349 35.7642 121.781 36.2017C121.219 36.6335 120.795 37.2216 120.511 37.9659C120.233 38.7045 120.094 39.5341 120.094 40.4545C120.094 41.3864 120.236 42.233 120.52 42.9943C120.81 43.75 121.236 44.3523 121.798 44.8011C122.366 45.2443 123.071 45.4659 123.912 45.4659ZM139.091 47.2727C137.83 47.2727 136.741 46.9943 135.827 46.4375C134.918 45.875 134.216 45.0909 133.722 44.0852C133.233 43.0739 132.989 41.8977 132.989 40.5568C132.989 39.2159 133.233 38.0341 133.722 37.0114C134.216 35.983 134.903 35.1818 135.784 34.608C136.67 34.0284 137.705 33.7386 138.886 33.7386C139.568 33.7386 140.241 33.8523 140.906 34.0795C141.571 34.3068 142.176 34.6761 142.722 35.1875C143.267 35.6932 143.702 36.3636 144.026 37.1989C144.349 38.0341 144.511 39.0625 144.511 40.2841V41.1364H134.42V39.3977H142.466C142.466 38.6591 142.318 38 142.023 37.4205C141.733 36.8409 141.318 36.3835 140.778 36.0483C140.244 35.7131 139.614 35.5455 138.886 35.5455C138.085 35.5455 137.392 35.7443 136.807 36.142C136.227 36.5341 135.781 37.0455 135.469 37.6761C135.156 38.3068 135 38.983 135 39.7045V40.8636C135 41.8523 135.17 42.6903 135.511 43.3778C135.858 44.0597 136.338 44.5795 136.952 44.9375C137.565 45.2898 138.278 45.4659 139.091 45.4659C139.619 45.4659 140.097 45.392 140.523 45.2443C140.955 45.0909 141.327 44.8636 141.639 44.5625C141.952 44.2557 142.193 43.875 142.364 43.4205L144.307 43.9659C144.102 44.625 143.759 45.2045 143.276 45.7045C142.793 46.1989 142.196 46.5852 141.486 46.8636C140.776 47.1364 139.977 47.2727 139.091 47.2727ZM156.844 36.8409L155.037 37.3523C154.923 37.0511 154.756 36.7585 154.534 36.4744C154.318 36.1847 154.023 35.946 153.648 35.7585C153.273 35.571 152.793 35.4773 152.207 35.4773C151.406 35.4773 150.739 35.6619 150.205 36.0312C149.676 36.3949 149.412 36.858 149.412 37.4205C149.412 37.9205 149.594 38.3153 149.957 38.6051C150.321 38.8949 150.889 39.1364 151.662 39.3295L153.605 39.8068C154.776 40.0909 155.648 40.5256 156.222 41.1108C156.795 41.6903 157.082 42.4375 157.082 43.3523C157.082 44.1023 156.866 44.7727 156.435 45.3636C156.009 45.9545 155.412 46.4205 154.645 46.7614C153.878 47.1023 152.986 47.2727 151.969 47.2727C150.634 47.2727 149.528 46.983 148.653 46.4034C147.778 45.8239 147.224 44.9773 146.991 43.8636L148.901 43.3864C149.082 44.0909 149.426 44.6193 149.932 44.9716C150.443 45.3239 151.111 45.5 151.935 45.5C152.872 45.5 153.616 45.3011 154.168 44.9034C154.724 44.5 155.003 44.017 155.003 43.4545C155.003 43 154.844 42.6193 154.526 42.3125C154.207 42 153.719 41.767 153.06 41.6136L150.878 41.1023C149.679 40.8182 148.798 40.3778 148.236 39.7812C147.679 39.179 147.401 38.4261 147.401 37.5227C147.401 36.7841 147.608 36.1307 148.023 35.5625C148.443 34.9943 149.014 34.5483 149.736 34.2244C150.463 33.9006 151.287 33.7386 152.207 33.7386C153.503 33.7386 154.52 34.0227 155.259 34.5909C156.003 35.1591 156.531 35.9091 156.844 36.8409ZM160.11 47V33.9091H162.121V47H160.11ZM161.133 31.7273C160.741 31.7273 160.403 31.5938 160.119 31.3267C159.84 31.0597 159.701 30.7386 159.701 30.3636C159.701 29.9886 159.84 29.6676 160.119 29.4006C160.403 29.1335 160.741 29 161.133 29C161.525 29 161.86 29.1335 162.138 29.4006C162.423 29.6676 162.565 29.9886 162.565 30.3636C162.565 30.7386 162.423 31.0597 162.138 31.3267C161.86 31.5938 161.525 31.7273 161.133 31.7273ZM171.089 52.1818C170.118 52.1818 169.283 52.0568 168.584 51.8068C167.885 51.5625 167.303 51.2386 166.837 50.8352C166.376 50.4375 166.01 50.0114 165.737 49.5568L167.339 48.4318C167.521 48.6705 167.751 48.9432 168.03 49.25C168.308 49.5625 168.689 49.8324 169.172 50.0597C169.661 50.2926 170.3 50.4091 171.089 50.4091C172.146 50.4091 173.018 50.1534 173.706 49.642C174.393 49.1307 174.737 48.3295 174.737 47.2386V44.5795H174.567C174.419 44.8182 174.209 45.1136 173.936 45.4659C173.669 45.8125 173.283 46.1222 172.777 46.3949C172.277 46.6619 171.601 46.7955 170.749 46.7955C169.692 46.7955 168.743 46.5455 167.902 46.0455C167.067 45.5455 166.405 44.8182 165.916 43.8636C165.433 42.9091 165.192 41.75 165.192 40.3864C165.192 39.0455 165.428 37.8778 165.899 36.8835C166.371 35.8835 167.027 35.1108 167.868 34.5653C168.709 34.0142 169.68 33.7386 170.783 33.7386C171.635 33.7386 172.311 33.8807 172.811 34.1648C173.317 34.4432 173.703 34.7614 173.97 35.1193C174.243 35.4716 174.453 35.7614 174.601 35.9886H174.805V33.9091H176.749V47.375C176.749 48.5 176.493 49.4148 175.982 50.1193C175.476 50.8295 174.794 51.3494 173.936 51.679C173.084 52.0142 172.135 52.1818 171.089 52.1818ZM171.021 44.9886C171.828 44.9886 172.51 44.804 173.067 44.4347C173.624 44.0653 174.047 43.5341 174.337 42.8409C174.626 42.1477 174.771 41.3182 174.771 40.3523C174.771 39.4091 174.629 38.5767 174.345 37.8551C174.061 37.1335 173.641 36.5682 173.084 36.1591C172.527 35.75 171.839 35.5455 171.021 35.5455C170.169 35.5455 169.459 35.7614 168.891 36.1932C168.328 36.625 167.905 37.2045 167.621 37.9318C167.342 38.6591 167.203 39.4659 167.203 40.3523C167.203 41.2614 167.345 42.0653 167.629 42.7642C167.919 43.4574 168.345 44.0028 168.908 44.4006C169.476 44.7926 170.18 44.9886 171.021 44.9886ZM182.442 39.125V47H180.43V33.9091H182.374V35.9545H182.544C182.851 35.2898 183.317 34.7557 183.942 34.3523C184.567 33.9432 185.374 33.7386 186.362 33.7386C187.249 33.7386 188.024 33.9205 188.689 34.2841C189.354 34.642 189.871 35.1875 190.24 35.9205C190.609 36.6477 190.794 37.5682 190.794 38.6818V47H188.783V38.8182C188.783 37.7898 188.516 36.9886 187.982 36.4148C187.447 35.8352 186.714 35.5455 185.783 35.5455C185.141 35.5455 184.567 35.6847 184.061 35.9631C183.561 36.2415 183.166 36.6477 182.876 37.1818C182.587 37.7159 182.442 38.3636 182.442 39.125ZM194.469 47V33.9091H196.481V47H194.469ZM195.492 31.7273C195.1 31.7273 194.762 31.5938 194.478 31.3267C194.2 31.0597 194.06 30.7386 194.06 30.3636C194.06 29.9886 194.2 29.6676 194.478 29.4006C194.762 29.1335 195.1 29 195.492 29C195.884 29 196.219 29.1335 196.498 29.4006C196.782 29.6676 196.924 29.9886 196.924 30.3636C196.924 30.7386 196.782 31.0597 196.498 31.3267C196.219 31.5938 195.884 31.7273 195.492 31.7273ZM202.176 39.125V47H200.165V33.9091H202.108V35.9545H202.278C202.585 35.2898 203.051 34.7557 203.676 34.3523C204.301 33.9432 205.108 33.7386 206.097 33.7386C206.983 33.7386 207.759 33.9205 208.423 34.2841C209.088 34.642 209.605 35.1875 209.974 35.9205C210.344 36.6477 210.528 37.5682 210.528 38.6818V47H208.517V38.8182C208.517 37.7898 208.25 36.9886 207.716 36.4148C207.182 35.8352 206.449 35.5455 205.517 35.5455C204.875 35.5455 204.301 35.6847 203.795 35.9631C203.295 36.2415 202.901 36.6477 202.611 37.1818C202.321 37.7159 202.176 38.3636 202.176 39.125ZM219.488 52.1818C218.516 52.1818 217.681 52.0568 216.982 51.8068C216.283 51.5625 215.701 51.2386 215.235 50.8352C214.775 50.4375 214.408 50.0114 214.136 49.5568L215.738 48.4318C215.92 48.6705 216.15 48.9432 216.428 49.25C216.707 49.5625 217.087 49.8324 217.57 50.0597C218.059 50.2926 218.698 50.4091 219.488 50.4091C220.545 50.4091 221.417 50.1534 222.104 49.642C222.792 49.1307 223.136 48.3295 223.136 47.2386V44.5795H222.965C222.817 44.8182 222.607 45.1136 222.335 45.4659C222.067 45.8125 221.681 46.1222 221.175 46.3949C220.675 46.6619 219.999 46.7955 219.147 46.7955C218.09 46.7955 217.141 46.5455 216.3 46.0455C215.465 45.5455 214.803 44.8182 214.315 43.8636C213.832 42.9091 213.59 41.75 213.59 40.3864C213.59 39.0455 213.826 37.8778 214.298 36.8835C214.769 35.8835 215.425 35.1108 216.266 34.5653C217.107 34.0142 218.079 33.7386 219.181 33.7386C220.033 33.7386 220.71 33.8807 221.21 34.1648C221.715 34.4432 222.102 34.7614 222.369 35.1193C222.641 35.4716 222.852 35.7614 222.999 35.9886H223.204V33.9091H225.147V47.375C225.147 48.5 224.891 49.4148 224.38 50.1193C223.874 50.8295 223.192 51.3494 222.335 51.679C221.482 52.0142 220.533 52.1818 219.488 52.1818ZM219.42 44.9886C220.227 44.9886 220.908 44.804 221.465 44.4347C222.022 44.0653 222.445 43.5341 222.735 42.8409C223.025 42.1477 223.17 41.3182 223.17 40.3523C223.17 39.4091 223.028 38.5767 222.744 37.8551C222.46 37.1335 222.039 36.5682 221.482 36.1591C220.925 35.75 220.238 35.5455 219.42 35.5455C218.567 35.5455 217.857 35.7614 217.289 36.1932C216.727 36.625 216.303 37.2045 216.019 37.9318C215.741 38.6591 215.602 39.4659 215.602 40.3523C215.602 41.2614 215.744 42.0653 216.028 42.7642C216.317 43.4574 216.744 44.0028 217.306 44.4006C217.874 44.7926 218.579 44.9886 219.42 44.9886ZM244.852 36.8409L243.045 37.3523C242.931 37.0511 242.763 36.7585 242.542 36.4744C242.326 36.1847 242.031 35.946 241.656 35.7585C241.281 35.571 240.8 35.4773 240.215 35.4773C239.414 35.4773 238.746 35.6619 238.212 36.0312C237.684 36.3949 237.42 36.858 237.42 37.4205C237.42 37.9205 237.602 38.3153 237.965 38.6051C238.329 38.8949 238.897 39.1364 239.67 39.3295L241.613 39.8068C242.783 40.0909 243.656 40.5256 244.229 41.1108C244.803 41.6903 245.09 42.4375 245.09 43.3523C245.09 44.1023 244.874 44.7727 244.442 45.3636C244.016 45.9545 243.42 46.4205 242.653 46.7614C241.886 47.1023 240.994 47.2727 239.977 47.2727C238.641 47.2727 237.536 46.983 236.661 46.4034C235.786 45.8239 235.232 44.9773 234.999 43.8636L236.908 43.3864C237.09 44.0909 237.434 44.6193 237.94 44.9716C238.451 45.3239 239.119 45.5 239.942 45.5C240.88 45.5 241.624 45.3011 242.175 44.9034C242.732 44.5 243.011 44.017 243.011 43.4545C243.011 43 242.852 42.6193 242.533 42.3125C242.215 42 241.727 41.767 241.067 41.6136L238.886 41.1023C237.687 40.8182 236.806 40.3778 236.244 39.7812C235.687 39.179 235.408 38.4261 235.408 37.5227C235.408 36.7841 235.616 36.1307 236.031 35.5625C236.451 34.9943 237.022 34.5483 237.744 34.2244C238.471 33.9006 239.295 33.7386 240.215 33.7386C241.511 33.7386 242.528 34.0227 243.266 34.5909C244.011 35.1591 244.539 35.9091 244.852 36.8409ZM249.413 51.9091C249.072 51.9091 248.768 51.8807 248.501 51.8239C248.234 51.7727 248.05 51.7216 247.947 51.6705L248.459 49.8977C248.947 50.0227 249.379 50.0682 249.754 50.0341C250.129 50 250.462 49.8324 250.751 49.5312C251.047 49.2358 251.317 48.7557 251.561 48.0909L251.936 47.0682L247.095 33.9091H249.277L252.891 44.3409H253.027L256.641 33.9091H258.822L253.266 48.9091C253.016 49.5852 252.706 50.1449 252.337 50.5881C251.967 51.0369 251.538 51.3693 251.05 51.5852C250.567 51.8011 250.021 51.9091 249.413 51.9091ZM270.75 36.8409L268.943 37.3523C268.83 37.0511 268.662 36.7585 268.44 36.4744C268.224 36.1847 267.929 35.946 267.554 35.7585C267.179 35.571 266.699 35.4773 266.114 35.4773C265.312 35.4773 264.645 35.6619 264.111 36.0312C263.582 36.3949 263.318 36.858 263.318 37.4205C263.318 37.9205 263.5 38.3153 263.864 38.6051C264.227 38.8949 264.795 39.1364 265.568 39.3295L267.511 39.8068C268.682 40.0909 269.554 40.5256 270.128 41.1108C270.702 41.6903 270.989 42.4375 270.989 43.3523C270.989 44.1023 270.773 44.7727 270.341 45.3636C269.915 45.9545 269.318 46.4205 268.551 46.7614C267.784 47.1023 266.892 47.2727 265.875 47.2727C264.54 47.2727 263.435 46.983 262.56 46.4034C261.685 45.8239 261.131 44.9773 260.898 43.8636L262.807 43.3864C262.989 44.0909 263.332 44.6193 263.838 44.9716C264.349 45.3239 265.017 45.5 265.841 45.5C266.778 45.5 267.523 45.3011 268.074 44.9034C268.631 44.5 268.909 44.017 268.909 43.4545C268.909 43 268.75 42.6193 268.432 42.3125C268.114 42 267.625 41.767 266.966 41.6136L264.784 41.1023C263.585 40.8182 262.705 40.3778 262.142 39.7812C261.585 39.179 261.307 38.4261 261.307 37.5227C261.307 36.7841 261.514 36.1307 261.929 35.5625C262.349 34.9943 262.92 34.5483 263.642 34.2244C264.369 33.9006 265.193 33.7386 266.114 33.7386C267.409 33.7386 268.426 34.0227 269.165 34.5909C269.909 35.1591 270.437 35.9091 270.75 36.8409ZM279.71 33.9091V35.6136H272.925V33.9091H279.71ZM274.903 30.7727H276.914V43.25C276.914 43.8182 276.996 44.2443 277.161 44.5284C277.332 44.8068 277.548 44.9943 277.809 45.0909C278.076 45.1818 278.357 45.2273 278.653 45.2273C278.874 45.2273 279.056 45.2159 279.198 45.1932C279.34 45.1648 279.454 45.142 279.539 45.125L279.948 46.9318C279.812 46.983 279.621 47.0341 279.377 47.0852C279.133 47.142 278.823 47.1705 278.448 47.1705C277.88 47.1705 277.323 47.0483 276.778 46.804C276.238 46.5597 275.789 46.1875 275.431 45.6875C275.079 45.1875 274.903 44.5568 274.903 43.7955V30.7727ZM288.083 47.2727C286.822 47.2727 285.734 46.9943 284.819 46.4375C283.91 45.875 283.208 45.0909 282.714 44.0852C282.225 43.0739 281.981 41.8977 281.981 40.5568C281.981 39.2159 282.225 38.0341 282.714 37.0114C283.208 35.983 283.896 35.1818 284.776 34.608C285.663 34.0284 286.697 33.7386 287.879 33.7386C288.56 33.7386 289.234 33.8523 289.898 34.0795C290.563 34.3068 291.168 34.6761 291.714 35.1875C292.259 35.6932 292.694 36.3636 293.018 37.1989C293.342 38.0341 293.504 39.0625 293.504 40.2841V41.1364H283.413V39.3977H291.458C291.458 38.6591 291.31 38 291.015 37.4205C290.725 36.8409 290.31 36.3835 289.771 36.0483C289.236 35.7131 288.606 35.5455 287.879 35.5455C287.077 35.5455 286.384 35.7443 285.799 36.142C285.219 36.5341 284.773 37.0455 284.461 37.6761C284.148 38.3068 283.992 38.983 283.992 39.7045V40.8636C283.992 41.8523 284.163 42.6903 284.504 43.3778C284.85 44.0597 285.33 44.5795 285.944 44.9375C286.558 45.2898 287.271 45.4659 288.083 45.4659C288.611 45.4659 289.089 45.392 289.515 45.2443C289.947 45.0909 290.319 44.8636 290.631 44.5625C290.944 44.2557 291.185 43.875 291.356 43.4205L293.299 43.9659C293.094 44.625 292.751 45.2045 292.268 45.7045C291.785 46.1989 291.188 46.5852 290.478 46.8636C289.768 47.1364 288.969 47.2727 288.083 47.2727ZM296.563 47V33.9091H298.506V35.9545H298.677C298.95 35.2557 299.39 34.7131 299.998 34.3267C300.606 33.9347 301.336 33.7386 302.188 33.7386C303.052 33.7386 303.771 33.9347 304.344 34.3267C304.924 34.7131 305.376 35.2557 305.7 35.9545H305.836C306.171 35.2784 306.674 34.7415 307.344 34.3438C308.015 33.9403 308.819 33.7386 309.756 33.7386C310.927 33.7386 311.884 34.1051 312.629 34.8381C313.373 35.5653 313.745 36.6989 313.745 38.2386V47H311.734V38.2386C311.734 37.2727 311.469 36.5824 310.941 36.1676C310.413 35.7528 309.79 35.5455 309.075 35.5455C308.154 35.5455 307.441 35.8239 306.935 36.3807C306.43 36.9318 306.177 37.6307 306.177 38.4773V47H304.131V38.0341C304.131 37.2898 303.89 36.6903 303.407 36.2358C302.924 35.7756 302.302 35.5455 301.54 35.5455C301.018 35.5455 300.529 35.6847 300.075 35.9631C299.626 36.2415 299.262 36.6278 298.984 37.1222C298.711 37.6108 298.575 38.1761 298.575 38.8182V47H296.563ZM326.695 36.8409L324.888 37.3523C324.775 37.0511 324.607 36.7585 324.386 36.4744C324.17 36.1847 323.874 35.946 323.499 35.7585C323.124 35.571 322.644 35.4773 322.059 35.4773C321.258 35.4773 320.59 35.6619 320.056 36.0312C319.528 36.3949 319.263 36.858 319.263 37.4205C319.263 37.9205 319.445 38.3153 319.809 38.6051C320.173 38.8949 320.741 39.1364 321.513 39.3295L323.457 39.8068C324.627 40.0909 325.499 40.5256 326.073 41.1108C326.647 41.6903 326.934 42.4375 326.934 43.3523C326.934 44.1023 326.718 44.7727 326.286 45.3636C325.86 45.9545 325.263 46.4205 324.496 46.7614C323.729 47.1023 322.837 47.2727 321.82 47.2727C320.485 47.2727 319.38 46.983 318.505 46.4034C317.63 45.8239 317.076 44.9773 316.843 43.8636L318.752 43.3864C318.934 44.0909 319.278 44.6193 319.783 44.9716C320.295 45.3239 320.962 45.5 321.786 45.5C322.724 45.5 323.468 45.3011 324.019 44.9034C324.576 44.5 324.854 44.017 324.854 43.4545C324.854 43 324.695 42.6193 324.377 42.3125C324.059 42 323.57 41.767 322.911 41.6136L320.729 41.1023C319.531 40.8182 318.65 40.3778 318.087 39.7812C317.531 39.179 317.252 38.4261 317.252 37.5227C317.252 36.7841 317.46 36.1307 317.874 35.5625C318.295 34.9943 318.866 34.5483 319.587 34.2244C320.315 33.9006 321.138 33.7386 322.059 33.7386C323.354 33.7386 324.371 34.0227 325.11 34.5909C325.854 35.1591 326.383 35.9091 326.695 36.8409ZM339.678 47L335.689 33.9091H337.803L340.632 43.9318H340.768L343.564 33.9091H345.712L348.473 43.8977H348.609L351.439 33.9091H353.553L349.564 47H347.587L344.723 36.9432H344.518L341.655 47H339.678ZM358.223 39.125V47H356.212V29.5455H358.223V35.9545H358.393C358.7 35.2784 359.161 34.7415 359.774 34.3438C360.393 33.9403 361.217 33.7386 362.246 33.7386C363.138 33.7386 363.919 33.9176 364.589 34.2756C365.26 34.6278 365.78 35.1705 366.149 35.9034C366.524 36.6307 366.712 37.5568 366.712 38.6818V47H364.7V38.8182C364.7 37.7784 364.43 36.9744 363.891 36.4062C363.357 35.8324 362.615 35.5455 361.666 35.5455C361.007 35.5455 360.416 35.6847 359.893 35.9631C359.376 36.2415 358.967 36.6477 358.666 37.1818C358.371 37.7159 358.223 38.3636 358.223 39.125ZM375.88 47.2727C374.619 47.2727 373.531 46.9943 372.616 46.4375C371.707 45.875 371.005 45.0909 370.511 44.0852C370.022 43.0739 369.778 41.8977 369.778 40.5568C369.778 39.2159 370.022 38.0341 370.511 37.0114C371.005 35.983 371.692 35.1818 372.573 34.608C373.46 34.0284 374.494 33.7386 375.675 33.7386C376.357 33.7386 377.031 33.8523 377.695 34.0795C378.36 34.3068 378.965 34.6761 379.511 35.1875C380.056 35.6932 380.491 36.3636 380.815 37.1989C381.138 38.0341 381.3 39.0625 381.3 40.2841V41.1364H371.21V39.3977H379.255C379.255 38.6591 379.107 38 378.812 37.4205C378.522 36.8409 378.107 36.3835 377.567 36.0483C377.033 35.7131 376.403 35.5455 375.675 35.5455C374.874 35.5455 374.181 35.7443 373.596 36.142C373.016 36.5341 372.57 37.0455 372.258 37.6761C371.945 38.3068 371.789 38.983 371.789 39.7045V40.8636C371.789 41.8523 371.96 42.6903 372.3 43.3778C372.647 44.0597 373.127 44.5795 373.741 44.9375C374.354 45.2898 375.067 45.4659 375.88 45.4659C376.408 45.4659 376.886 45.392 377.312 45.2443C377.744 45.0909 378.116 44.8636 378.428 44.5625C378.741 44.2557 378.982 43.875 379.153 43.4205L381.096 43.9659C380.891 44.625 380.548 45.2045 380.065 45.7045C379.582 46.1989 378.985 46.5852 378.275 46.8636C377.565 47.1364 376.766 47.2727 375.88 47.2727ZM384.36 47V33.9091H386.303V35.8864H386.44C386.678 35.2386 387.11 34.7131 387.735 34.3097C388.36 33.9062 389.065 33.7045 389.849 33.7045C389.996 33.7045 390.181 33.7074 390.403 33.7131C390.624 33.7187 390.792 33.7273 390.906 33.7386V35.7841C390.837 35.767 390.681 35.7415 390.437 35.7074C390.198 35.6676 389.945 35.6477 389.678 35.6477C389.042 35.6477 388.474 35.7812 387.974 36.0483C387.479 36.3097 387.087 36.6733 386.798 37.1392C386.513 37.5994 386.371 38.125 386.371 38.7159V47H384.36ZM398.38 47.2727C397.119 47.2727 396.031 46.9943 395.116 46.4375C394.207 45.875 393.505 45.0909 393.011 44.0852C392.522 43.0739 392.278 41.8977 392.278 40.5568C392.278 39.2159 392.522 38.0341 393.011 37.0114C393.505 35.983 394.192 35.1818 395.073 34.608C395.96 34.0284 396.994 33.7386 398.175 33.7386C398.857 33.7386 399.531 33.8523 400.195 34.0795C400.86 34.3068 401.465 34.6761 402.011 35.1875C402.556 35.6932 402.991 36.3636 403.315 37.1989C403.638 38.0341 403.8 39.0625 403.8 40.2841V41.1364H393.71V39.3977H401.755C401.755 38.6591 401.607 38 401.312 37.4205C401.022 36.8409 400.607 36.3835 400.067 36.0483C399.533 35.7131 398.903 35.5455 398.175 35.5455C397.374 35.5455 396.681 35.7443 396.096 36.142C395.516 36.5341 395.07 37.0455 394.758 37.6761C394.445 38.3068 394.289 38.983 394.289 39.7045V40.8636C394.289 41.8523 394.46 42.6903 394.8 43.3778C395.147 44.0597 395.627 44.5795 396.241 44.9375C396.854 45.2898 397.567 45.4659 398.38 45.4659C398.908 45.4659 399.386 45.392 399.812 45.2443C400.244 45.0909 400.616 44.8636 400.928 44.5625C401.241 44.2557 401.482 43.875 401.653 43.4205L403.596 43.9659C403.391 44.625 403.048 45.2045 402.565 45.7045C402.082 46.1989 401.485 46.5852 400.775 46.8636C400.065 47.1364 399.266 47.2727 398.38 47.2727ZM413.61 47V33.9091H415.553V35.9545H415.724C415.996 35.2557 416.437 34.7131 417.045 34.3267C417.653 33.9347 418.383 33.7386 419.235 33.7386C420.099 33.7386 420.817 33.9347 421.391 34.3267C421.971 34.7131 422.423 35.2557 422.746 35.9545H422.883C423.218 35.2784 423.721 34.7415 424.391 34.3438C425.062 33.9403 425.866 33.7386 426.803 33.7386C427.974 33.7386 428.931 34.1051 429.675 34.8381C430.42 35.5653 430.792 36.6989 430.792 38.2386V47H428.781V38.2386C428.781 37.2727 428.516 36.5824 427.988 36.1676C427.46 35.7528 426.837 35.5455 426.121 35.5455C425.201 35.5455 424.488 35.8239 423.982 36.3807C423.477 36.9318 423.224 37.6307 423.224 38.4773V47H421.178V38.0341C421.178 37.2898 420.937 36.6903 420.454 36.2358C419.971 35.7756 419.349 35.5455 418.587 35.5455C418.065 35.5455 417.576 35.6847 417.121 35.9631C416.673 36.2415 416.309 36.6278 416.031 37.1222C415.758 37.6108 415.621 38.1761 415.621 38.8182V47H413.61ZM439.788 47.2727C438.606 47.2727 437.569 46.9915 436.677 46.429C435.79 45.8665 435.097 45.0795 434.597 44.0682C434.103 43.0568 433.856 41.875 433.856 40.5227C433.856 39.1591 434.103 37.9687 434.597 36.9517C435.097 35.9347 435.79 35.1449 436.677 34.5824C437.569 34.0199 438.606 33.7386 439.788 33.7386C440.969 33.7386 442.004 34.0199 442.89 34.5824C443.782 35.1449 444.475 35.9347 444.969 36.9517C445.469 37.9687 445.719 39.1591 445.719 40.5227C445.719 41.875 445.469 43.0568 444.969 44.0682C444.475 45.0795 443.782 45.8665 442.89 46.429C442.004 46.9915 440.969 47.2727 439.788 47.2727ZM439.788 45.4659C440.685 45.4659 441.424 45.2358 442.004 44.7756C442.583 44.3153 443.012 43.7102 443.29 42.9602C443.569 42.2102 443.708 41.3977 443.708 40.5227C443.708 39.6477 443.569 38.8324 443.29 38.0767C443.012 37.321 442.583 36.7102 442.004 36.2443C441.424 35.7784 440.685 35.5455 439.788 35.5455C438.89 35.5455 438.151 35.7784 437.572 36.2443C436.992 36.7102 436.563 37.321 436.285 38.0767C436.006 38.8324 435.867 39.6477 435.867 40.5227C435.867 41.3977 436.006 42.2102 436.285 42.9602C436.563 43.7102 436.992 44.3153 437.572 44.7756C438.151 45.2358 438.89 45.4659 439.788 45.4659ZM459.026 33.9091L454.185 47H452.139L447.298 33.9091H449.48L453.094 44.3409H453.23L456.844 33.9091H459.026ZM466.7 47.2727C465.439 47.2727 464.351 46.9943 463.436 46.4375C462.527 45.875 461.825 45.0909 461.331 44.0852C460.842 43.0739 460.598 41.8977 460.598 40.5568C460.598 39.2159 460.842 38.0341 461.331 37.0114C461.825 35.983 462.513 35.1818 463.393 34.608C464.28 34.0284 465.314 33.7386 466.496 33.7386C467.178 33.7386 467.851 33.8523 468.516 34.0795C469.18 34.3068 469.786 34.6761 470.331 35.1875C470.876 35.6932 471.311 36.3636 471.635 37.1989C471.959 38.0341 472.121 39.0625 472.121 40.2841V41.1364H462.03V39.3977H470.075C470.075 38.6591 469.928 38 469.632 37.4205C469.342 36.8409 468.928 36.3835 468.388 36.0483C467.854 35.7131 467.223 35.5455 466.496 35.5455C465.695 35.5455 465.001 35.7443 464.416 36.142C463.837 36.5341 463.391 37.0455 463.078 37.6761C462.766 38.3068 462.609 38.983 462.609 39.7045V40.8636C462.609 41.8523 462.78 42.6903 463.121 43.3778C463.467 44.0597 463.947 44.5795 464.561 44.9375C465.175 45.2898 465.888 45.4659 466.7 45.4659C467.229 45.4659 467.706 45.392 468.132 45.2443C468.564 45.0909 468.936 44.8636 469.249 44.5625C469.561 44.2557 469.803 43.875 469.973 43.4205L471.916 43.9659C471.712 44.625 471.368 45.2045 470.885 45.7045C470.402 46.1989 469.805 46.5852 469.095 46.8636C468.385 47.1364 467.587 47.2727 466.7 47.2727ZM475.18 47V33.9091H477.124V35.9545H477.294C477.567 35.2557 478.007 34.7131 478.615 34.3267C479.223 33.9347 479.953 33.7386 480.805 33.7386C481.669 33.7386 482.388 33.9347 482.962 34.3267C483.541 34.7131 483.993 35.2557 484.317 35.9545H484.453C484.788 35.2784 485.291 34.7415 485.962 34.3438C486.632 33.9403 487.436 33.7386 488.374 33.7386C489.544 33.7386 490.501 34.1051 491.246 34.8381C491.99 35.5653 492.362 36.6989 492.362 38.2386V47H490.351V38.2386C490.351 37.2727 490.087 36.5824 489.558 36.1676C489.03 35.7528 488.408 35.5455 487.692 35.5455C486.771 35.5455 486.058 35.8239 485.553 36.3807C485.047 36.9318 484.794 37.6307 484.794 38.4773V47H482.749V38.0341C482.749 37.2898 482.507 36.6903 482.024 36.2358C481.541 35.7756 480.919 35.5455 480.158 35.5455C479.635 35.5455 479.146 35.6847 478.692 35.9631C478.243 36.2415 477.879 36.6278 477.601 37.1222C477.328 37.6108 477.192 38.1761 477.192 38.8182V47H475.18ZM501.528 47.2727C500.267 47.2727 499.179 46.9943 498.264 46.4375C497.355 45.875 496.653 45.0909 496.159 44.0852C495.67 43.0739 495.426 41.8977 495.426 40.5568C495.426 39.2159 495.67 38.0341 496.159 37.0114C496.653 35.983 497.341 35.1818 498.222 34.608C499.108 34.0284 500.142 33.7386 501.324 33.7386C502.006 33.7386 502.679 33.8523 503.344 34.0795C504.009 34.3068 504.614 34.6761 505.159 35.1875C505.705 35.6932 506.139 36.3636 506.463 37.1989C506.787 38.0341 506.949 39.0625 506.949 40.2841V41.1364H496.858V39.3977H504.903C504.903 38.6591 504.756 38 504.46 37.4205C504.17 36.8409 503.756 36.3835 503.216 36.0483C502.682 35.7131 502.051 35.5455 501.324 35.5455C500.523 35.5455 499.83 35.7443 499.244 36.142C498.665 36.5341 498.219 37.0455 497.906 37.6761C497.594 38.3068 497.437 38.983 497.437 39.7045V40.8636C497.437 41.8523 497.608 42.6903 497.949 43.3778C498.295 44.0597 498.776 44.5795 499.389 44.9375C500.003 45.2898 500.716 45.4659 501.528 45.4659C502.057 45.4659 502.534 45.392 502.96 45.2443C503.392 45.0909 503.764 44.8636 504.077 44.5625C504.389 44.2557 504.631 43.875 504.801 43.4205L506.744 43.9659C506.54 44.625 506.196 45.2045 505.713 45.7045C505.23 46.1989 504.634 46.5852 503.923 46.8636C503.213 47.1364 502.415 47.2727 501.528 47.2727ZM512.02 39.125V47H510.009V33.9091H511.952V35.9545H512.122C512.429 35.2898 512.895 34.7557 513.52 34.3523C514.145 33.9432 514.952 33.7386 515.94 33.7386C516.827 33.7386 517.602 33.9205 518.267 34.2841C518.932 34.642 519.449 35.1875 519.818 35.9205C520.187 36.6477 520.372 37.5682 520.372 38.6818V47H518.361V38.8182C518.361 37.7898 518.094 36.9886 517.56 36.4148C517.026 35.8352 516.293 35.5455 515.361 35.5455C514.719 35.5455 514.145 35.6847 513.639 35.9631C513.139 36.2415 512.744 36.6477 512.455 37.1818C512.165 37.7159 512.02 38.3636 512.02 39.125ZM529.741 33.9091V35.6136H522.957V33.9091H529.741ZM524.934 30.7727H526.945V43.25C526.945 43.8182 527.028 44.2443 527.192 44.5284C527.363 44.8068 527.579 44.9943 527.84 45.0909C528.107 45.1818 528.388 45.2273 528.684 45.2273C528.906 45.2273 529.087 45.2159 529.229 45.1932C529.371 45.1648 529.485 45.142 529.57 45.125L529.979 46.9318C529.843 46.983 529.653 47.0341 529.408 47.0852C529.164 47.142 528.854 47.1705 528.479 47.1705C527.911 47.1705 527.354 47.0483 526.809 46.804C526.269 46.5597 525.82 46.1875 525.462 45.6875C525.11 45.1875 524.934 44.5568 524.934 43.7955V30.7727ZM543.369 47.3068C542.539 47.3068 541.786 47.1506 541.11 46.8381C540.434 46.5199 539.897 46.0625 539.499 45.4659C539.102 44.8636 538.903 44.1364 538.903 43.2841C538.903 42.5341 539.05 41.9261 539.346 41.4602C539.641 40.9886 540.036 40.6193 540.531 40.3523C541.025 40.0852 541.57 39.8864 542.167 39.7557C542.769 39.6193 543.374 39.5114 543.982 39.4318C544.778 39.3295 545.423 39.2528 545.917 39.2017C546.417 39.1449 546.781 39.0511 547.008 38.9205C547.241 38.7898 547.357 38.5625 547.357 38.2386V38.1705C547.357 37.3295 547.127 36.6761 546.667 36.2102C546.212 35.7443 545.522 35.5114 544.596 35.5114C543.636 35.5114 542.883 35.7216 542.337 36.142C541.792 36.5625 541.408 37.0114 541.187 37.4886L539.278 36.8068C539.619 36.0114 540.073 35.392 540.641 34.9489C541.215 34.5 541.84 34.1875 542.516 34.0114C543.198 33.8295 543.869 33.7386 544.528 33.7386C544.948 33.7386 545.431 33.7898 545.977 33.892C546.528 33.9886 547.059 34.1903 547.57 34.4972C548.087 34.804 548.516 35.267 548.857 35.8864C549.198 36.5057 549.369 37.3352 549.369 38.375V47H547.357V45.2273H547.255C547.119 45.5114 546.891 45.8153 546.573 46.1392C546.255 46.4631 545.832 46.7386 545.303 46.9659C544.775 47.1932 544.13 47.3068 543.369 47.3068ZM543.675 45.5C544.471 45.5 545.141 45.3438 545.687 45.0312C546.238 44.7188 546.653 44.3153 546.931 43.821C547.215 43.3267 547.357 42.8068 547.357 42.2614V40.4205C547.272 40.5227 547.085 40.6165 546.795 40.7017C546.511 40.7812 546.181 40.8523 545.806 40.9148C545.437 40.9716 545.076 41.0227 544.724 41.0682C544.377 41.108 544.096 41.142 543.88 41.1705C543.357 41.2386 542.869 41.3494 542.414 41.5028C541.965 41.6506 541.602 41.875 541.323 42.1761C541.05 42.4716 540.914 42.875 540.914 43.3864C540.914 44.0852 541.173 44.6136 541.69 44.9716C542.212 45.3239 542.874 45.5 543.675 45.5ZM558.358 47.2727C557.131 47.2727 556.074 46.983 555.187 46.4034C554.301 45.8239 553.619 45.0256 553.142 44.0085C552.665 42.9915 552.426 41.8295 552.426 40.5227C552.426 39.1932 552.67 38.0199 553.159 37.0028C553.653 35.9801 554.341 35.1818 555.222 34.608C556.108 34.0284 557.142 33.7386 558.324 33.7386C559.244 33.7386 560.074 33.9091 560.812 34.25C561.551 34.5909 562.156 35.0682 562.628 35.6818C563.099 36.2955 563.392 37.0114 563.506 37.8295H561.494C561.341 37.233 561 36.7045 560.472 36.2443C559.949 35.7784 559.244 35.5455 558.358 35.5455C557.574 35.5455 556.886 35.75 556.295 36.1591C555.71 36.5625 555.253 37.1335 554.923 37.8722C554.599 38.6051 554.437 39.4659 554.437 40.4545C554.437 41.4659 554.597 42.3466 554.915 43.0966C555.239 43.8466 555.693 44.429 556.278 44.8438C556.869 45.2585 557.562 45.4659 558.358 45.4659C558.881 45.4659 559.355 45.375 559.781 45.1932C560.207 45.0114 560.568 44.75 560.864 44.4091C561.159 44.0682 561.369 43.6591 561.494 43.1818H563.506C563.392 43.9545 563.111 44.6506 562.662 45.2699C562.219 45.8835 561.631 46.3722 560.898 46.7358C560.17 47.0938 559.324 47.2727 558.358 47.2727ZM572.139 33.9091V35.6136H565.355V33.9091H572.139ZM567.332 30.7727H569.344V43.25C569.344 43.8182 569.426 44.2443 569.591 44.5284C569.761 44.8068 569.977 44.9943 570.239 45.0909C570.506 45.1818 570.787 45.2273 571.082 45.2273C571.304 45.2273 571.486 45.2159 571.628 45.1932C571.77 45.1648 571.884 45.142 571.969 45.125L572.378 46.9318C572.241 46.983 572.051 47.0341 571.807 47.0852C571.562 47.142 571.253 47.1705 570.878 47.1705C570.31 47.1705 569.753 47.0483 569.207 46.804C568.668 46.5597 568.219 46.1875 567.861 45.6875C567.509 45.1875 567.332 44.5568 567.332 43.7955V30.7727ZM575.165 47V33.9091H577.176V47H575.165ZM576.187 31.7273C575.795 31.7273 575.457 31.5938 575.173 31.3267C574.895 31.0597 574.756 30.7386 574.756 30.3636C574.756 29.9886 574.895 29.6676 575.173 29.4006C575.457 29.1335 575.795 29 576.187 29C576.58 29 576.915 29.1335 577.193 29.4006C577.477 29.6676 577.619 29.9886 577.619 30.3636C577.619 30.7386 577.477 31.0597 577.193 31.3267C576.915 31.5938 576.58 31.7273 576.187 31.7273ZM591.565 33.9091L586.724 47H584.678L579.837 33.9091H582.019L585.633 44.3409H585.769L589.383 33.9091H591.565ZM597.673 47.3068C596.844 47.3068 596.091 47.1506 595.415 46.8381C594.739 46.5199 594.202 46.0625 593.804 45.4659C593.406 44.8636 593.207 44.1364 593.207 43.2841C593.207 42.5341 593.355 41.9261 593.651 41.4602C593.946 40.9886 594.341 40.6193 594.835 40.3523C595.33 40.0852 595.875 39.8864 596.472 39.7557C597.074 39.6193 597.679 39.5114 598.287 39.4318C599.082 39.3295 599.727 39.2528 600.222 39.2017C600.722 39.1449 601.085 39.0511 601.312 38.9205C601.545 38.7898 601.662 38.5625 601.662 38.2386V38.1705C601.662 37.3295 601.432 36.6761 600.972 36.2102C600.517 35.7443 599.827 35.5114 598.901 35.5114C597.94 35.5114 597.187 35.7216 596.642 36.142C596.097 36.5625 595.713 37.0114 595.491 37.4886L593.582 36.8068C593.923 36.0114 594.378 35.392 594.946 34.9489C595.52 34.5 596.145 34.1875 596.821 34.0114C597.503 33.8295 598.173 33.7386 598.832 33.7386C599.253 33.7386 599.736 33.7898 600.281 33.892C600.832 33.9886 601.364 34.1903 601.875 34.4972C602.392 34.804 602.821 35.267 603.162 35.8864C603.503 36.5057 603.673 37.3352 603.673 38.375V47H601.662V45.2273H601.56C601.423 45.5114 601.196 45.8153 600.878 46.1392C600.56 46.4631 600.136 46.7386 599.608 46.9659C599.08 47.1932 598.435 47.3068 597.673 47.3068ZM597.98 45.5C598.776 45.5 599.446 45.3438 599.991 45.0312C600.543 44.7188 600.957 44.3153 601.236 43.821C601.52 43.3267 601.662 42.8068 601.662 42.2614V40.4205C601.577 40.5227 601.389 40.6165 601.099 40.7017C600.815 40.7812 600.486 40.8523 600.111 40.9148C599.741 40.9716 599.381 41.0227 599.028 41.0682C598.682 41.108 598.401 41.142 598.185 41.1705C597.662 41.2386 597.173 41.3494 596.719 41.5028C596.27 41.6506 595.906 41.875 595.628 42.1761C595.355 42.4716 595.219 42.875 595.219 43.3864C595.219 44.0852 595.477 44.6136 595.994 44.9716C596.517 45.3239 597.179 45.5 597.98 45.5ZM613.038 33.9091V35.6136H606.254V33.9091H613.038ZM608.231 30.7727H610.242V43.25C610.242 43.8182 610.325 44.2443 610.489 44.5284C610.66 44.8068 610.876 44.9943 611.137 45.0909C611.404 45.1818 611.685 45.2273 611.981 45.2273C612.202 45.2273 612.384 45.2159 612.526 45.1932C612.668 45.1648 612.782 45.142 612.867 45.125L613.276 46.9318C613.14 46.983 612.95 47.0341 612.705 47.0852C612.461 47.142 612.151 47.1705 611.776 47.1705C611.208 47.1705 610.651 47.0483 610.106 46.804C609.566 46.5597 609.117 46.1875 608.759 45.6875C608.407 45.1875 608.231 44.5568 608.231 43.7955V30.7727ZM621.411 47.2727C620.15 47.2727 619.062 46.9943 618.147 46.4375C617.238 45.875 616.536 45.0909 616.042 44.0852C615.553 43.0739 615.309 41.8977 615.309 40.5568C615.309 39.2159 615.553 38.0341 616.042 37.0114C616.536 35.983 617.224 35.1818 618.104 34.608C618.991 34.0284 620.025 33.7386 621.207 33.7386C621.888 33.7386 622.562 33.8523 623.227 34.0795C623.891 34.3068 624.496 34.6761 625.042 35.1875C625.587 35.6932 626.022 36.3636 626.346 37.1989C626.67 38.0341 626.832 39.0625 626.832 40.2841V41.1364H616.741V39.3977H624.786C624.786 38.6591 624.638 38 624.343 37.4205C624.053 36.8409 623.638 36.3835 623.099 36.0483C622.565 35.7131 621.934 35.5455 621.207 35.5455C620.406 35.5455 619.712 35.7443 619.127 36.142C618.548 36.5341 618.102 37.0455 617.789 37.6761C617.477 38.3068 617.32 38.983 617.32 39.7045V40.8636C617.32 41.8523 617.491 42.6903 617.832 43.3778C618.178 44.0597 618.658 44.5795 619.272 44.9375C619.886 45.2898 620.599 45.4659 621.411 45.4659C621.94 45.4659 622.417 45.392 622.843 45.2443C623.275 45.0909 623.647 44.8636 623.96 44.5625C624.272 44.2557 624.513 43.875 624.684 43.4205L626.627 43.9659C626.423 44.625 626.079 45.2045 625.596 45.7045C625.113 46.1989 624.516 46.5852 623.806 46.8636C623.096 47.1364 622.298 47.2727 621.411 47.2727ZM639.164 36.8409L637.357 37.3523C637.244 37.0511 637.076 36.7585 636.854 36.4744C636.638 36.1847 636.343 35.946 635.968 35.7585C635.593 35.571 635.113 35.4773 634.528 35.4773C633.727 35.4773 633.059 35.6619 632.525 36.0312C631.996 36.3949 631.732 36.858 631.732 37.4205C631.732 37.9205 631.914 38.3153 632.278 38.6051C632.641 38.8949 633.21 39.1364 633.982 39.3295L635.925 39.8068C637.096 40.0909 637.968 40.5256 638.542 41.1108C639.116 41.6903 639.403 42.4375 639.403 43.3523C639.403 44.1023 639.187 44.7727 638.755 45.3636C638.329 45.9545 637.732 46.4205 636.965 46.7614C636.198 47.1023 635.306 47.2727 634.289 47.2727C632.954 47.2727 631.849 46.983 630.974 46.4034C630.099 45.8239 629.545 44.9773 629.312 43.8636L631.221 43.3864C631.403 44.0909 631.746 44.6193 632.252 44.9716C632.763 45.3239 633.431 45.5 634.255 45.5C635.192 45.5 635.937 45.3011 636.488 44.9034C637.045 44.5 637.323 44.017 637.323 43.4545C637.323 43 637.164 42.6193 636.846 42.3125C636.528 42 636.039 41.767 635.38 41.6136L633.198 41.1023C631.999 40.8182 631.119 40.3778 630.556 39.7812C629.999 39.179 629.721 38.4261 629.721 37.5227C629.721 36.7841 629.928 36.1307 630.343 35.5625C630.763 34.9943 631.335 34.5483 632.056 34.2244C632.783 33.9006 633.607 33.7386 634.528 33.7386C635.823 33.7386 636.84 34.0227 637.579 34.5909C638.323 35.1591 638.852 35.9091 639.164 36.8409ZM649.18 47V33.9091H651.192V47H649.18ZM650.203 31.7273C649.811 31.7273 649.473 31.5938 649.189 31.3267C648.911 31.0597 648.771 30.7386 648.771 30.3636C648.771 29.9886 648.911 29.6676 649.189 29.4006C649.473 29.1335 649.811 29 650.203 29C650.595 29 650.93 29.1335 651.209 29.4006C651.493 29.6676 651.635 29.9886 651.635 30.3636C651.635 30.7386 651.493 31.0597 651.209 31.3267C650.93 31.5938 650.595 31.7273 650.203 31.7273ZM660.569 33.9091V35.6136H653.785V33.9091H660.569ZM655.762 30.7727H657.773V43.25C657.773 43.8182 657.856 44.2443 658.021 44.5284C658.191 44.8068 658.407 44.9943 658.668 45.0909C658.935 45.1818 659.217 45.2273 659.512 45.2273C659.734 45.2273 659.915 45.2159 660.058 45.1932C660.2 45.1648 660.313 45.142 660.398 45.125L660.808 46.9318C660.671 46.983 660.481 47.0341 660.236 47.0852C659.992 47.142 659.683 47.1705 659.308 47.1705C658.739 47.1705 658.183 47.0483 657.637 46.804C657.097 46.5597 656.648 46.1875 656.29 45.6875C655.938 45.1875 655.762 44.5568 655.762 43.7955V30.7727ZM665.06 47.1364C664.64 47.1364 664.279 46.9858 663.978 46.6847C663.677 46.3835 663.526 46.0227 663.526 45.6023C663.526 45.1818 663.677 44.821 663.978 44.5199C664.279 44.2187 664.64 44.0682 665.06 44.0682C665.481 44.0682 665.842 44.2187 666.143 44.5199C666.444 44.821 666.594 45.1818 666.594 45.6023C666.594 45.8807 666.523 46.1364 666.381 46.3693C666.245 46.6023 666.06 46.7898 665.827 46.9318C665.6 47.0682 665.344 47.1364 665.06 47.1364Z" fill="#DADADA"/>
</svg>
