<svg width="277" height="65" viewBox="0 0 277 65" fill="none" xmlns="http://www.w3.org/2000/svg">
<path d="M-5.55068e-05 4.36783V1.05462H17.4076V4.36783H10.664V22.8728H6.74355V4.36783H-5.55068e-05ZM18.8938 22.8728V6.50917H22.6331V9.23644H22.8036C23.1019 8.29184 23.6132 7.56385 24.3377 7.05249C25.0692 6.53402 25.9037 6.27479 26.8412 6.27479C27.0543 6.27479 27.2922 6.28544 27.555 6.30675C27.8249 6.32096 28.0486 6.34581 28.2262 6.38132V9.92891C28.0628 9.87209 27.8036 9.82238 27.4485 9.77976C27.1004 9.73005 26.7631 9.70519 26.4364 9.70519C25.7333 9.70519 25.1012 9.85789 24.5401 10.1633C23.9861 10.4616 23.5493 10.8771 23.2297 11.4097C22.9101 11.9424 22.7503 12.5568 22.7503 13.2528V22.8728H18.8938ZM35.2041 23.2031C34.1672 23.2031 33.2333 23.0184 32.4023 22.6491C31.5784 22.2727 30.925 21.7187 30.4421 20.9871C29.9662 20.2556 29.7283 19.3536 29.7283 18.2812C29.7283 17.3579 29.8987 16.5944 30.2396 15.9907C30.5806 15.387 31.0458 14.9041 31.6352 14.5418C32.2247 14.1796 32.8888 13.9062 33.6274 13.7215C34.3732 13.5298 35.1438 13.3913 35.9392 13.306C36.898 13.2066 37.6757 13.1178 38.2723 13.0397C38.8689 12.9545 39.3021 12.8266 39.572 12.6562C39.849 12.4786 39.9875 12.2052 39.9875 11.8359V11.772C39.9875 10.9694 39.7496 10.3479 39.2737 9.9076C38.7979 9.46726 38.1125 9.24709 37.2176 9.24709C36.273 9.24709 35.5237 9.45306 34.9698 9.86499C34.4229 10.2769 34.0536 10.7634 33.8618 11.3245L30.261 10.8131C30.545 9.81882 31.0138 8.98786 31.6672 8.32025C32.3206 7.64553 33.1196 7.14127 34.0642 6.80746C35.0088 6.46655 36.0529 6.2961 37.1963 6.2961C37.9847 6.2961 38.7695 6.38843 39.5507 6.57309C40.332 6.75775 41.0458 7.06314 41.6921 7.48928C42.3384 7.90831 42.8568 8.48005 43.2475 9.20448C43.6452 9.92891 43.8441 10.8344 43.8441 11.9211V22.8728H40.1367V20.6249H40.0088C39.7744 21.0795 39.4442 21.5056 39.0181 21.9033C38.599 22.294 38.0699 22.61 37.4307 22.8515C36.7986 23.0859 36.0564 23.2031 35.2041 23.2031ZM36.2056 20.3693C36.9797 20.3693 37.6509 20.2166 38.219 19.9112C38.7872 19.5987 39.224 19.1867 39.5294 18.6754C39.8419 18.164 39.9982 17.6065 39.9982 17.0028V15.0745C39.8774 15.1739 39.6715 15.2663 39.3803 15.3515C39.0962 15.4367 38.7766 15.5113 38.4215 15.5752C38.0664 15.6391 37.7148 15.696 37.3668 15.7457C37.0188 15.7954 36.7169 15.838 36.4612 15.8735C35.886 15.9516 35.371 16.0795 34.9165 16.257C34.4619 16.4346 34.1033 16.6832 33.8405 17.0028C33.5777 17.3153 33.4463 17.7201 33.4463 18.2173C33.4463 18.9275 33.7056 19.4637 34.224 19.8259C34.7425 20.1881 35.403 20.3693 36.2056 20.3693ZM47.7219 22.8728V6.50917H51.5784V22.8728H47.7219ZM49.6608 4.18672C49.05 4.18672 48.5244 3.98431 48.0841 3.57948C47.6438 3.16755 47.4236 2.67394 47.4236 2.09865C47.4236 1.51627 47.6438 1.02266 48.0841 0.61783C48.5244 0.205898 49.05 -6.7234e-05 49.6608 -6.7234e-05C50.2787 -6.7234e-05 50.8043 0.205898 51.2375 0.61783C51.6779 1.02266 51.898 1.51627 51.898 2.09865C51.898 2.67394 51.6779 3.16755 51.2375 3.57948C50.8043 3.98431 50.2787 4.18672 49.6608 4.18672ZM59.4007 13.2847V22.8728H55.5442V6.50917H59.2302V9.28971H59.422C59.7984 8.37351 60.3986 7.64553 61.2224 7.10576C62.0534 6.56598 63.0797 6.2961 64.3013 6.2961C65.4305 6.2961 66.4142 6.53758 67.2523 7.02053C68.0974 7.50348 68.7508 8.20306 69.2125 9.11925C69.6812 10.0354 69.9121 11.1469 69.905 12.4538V22.8728H66.0484V13.0504C66.0484 11.9566 65.7643 11.1008 65.1961 10.4829C64.6351 9.86499 63.8574 9.55604 62.863 9.55604C62.1883 9.55604 61.5882 9.70519 61.0626 10.0035C60.5442 10.2947 60.1358 10.7173 59.8375 11.2712C59.5463 11.8252 59.4007 12.4964 59.4007 13.2847ZM73.8254 22.8728V6.50917H77.6819V22.8728H73.8254ZM75.7643 4.18672C75.1535 4.18672 74.628 3.98431 74.1876 3.57948C73.7473 3.16755 73.5271 2.67394 73.5271 2.09865C73.5271 1.51627 73.7473 1.02266 74.1876 0.61783C74.628 0.205898 75.1535 -6.7234e-05 75.7643 -6.7234e-05C76.3822 -6.7234e-05 76.9078 0.205898 77.341 0.61783C77.7814 1.02266 78.0015 1.51627 78.0015 2.09865C78.0015 2.67394 77.7814 3.16755 77.341 3.57948C76.9078 3.98431 76.3822 4.18672 75.7643 4.18672ZM85.5042 13.2847V22.8728H81.6477V6.50917H85.3338V9.28971H85.5255C85.9019 8.37351 86.5021 7.64553 87.3259 7.10576C88.1569 6.56598 89.1832 6.2961 90.4048 6.2961C91.534 6.2961 92.5177 6.53758 93.3558 7.02053C94.2009 7.50348 94.8543 8.20306 95.316 9.11925C95.7847 10.0354 96.0156 11.1469 96.0085 12.4538V22.8728H92.1519V13.0504C92.1519 11.9566 91.8678 11.1008 91.2997 10.4829C90.7386 9.86499 89.9609 9.55604 88.9666 9.55604C88.2918 9.55604 87.6917 9.70519 87.1661 10.0035C86.6477 10.2947 86.2393 10.7173 85.941 11.2712C85.6498 11.8252 85.5042 12.4964 85.5042 13.2847ZM107.045 29.3501C105.66 29.3501 104.471 29.1619 103.477 28.7854C102.482 28.4161 101.683 27.919 101.079 27.294C100.476 26.669 100.057 25.9765 99.8224 25.2166L103.295 24.3749C103.452 24.6945 103.679 25.0106 103.977 25.3231C104.276 25.6427 104.677 25.9055 105.181 26.1114C105.692 26.3245 106.335 26.431 107.109 26.431C108.203 26.431 109.109 26.1647 109.826 25.632C110.543 25.1065 110.902 24.24 110.902 23.0326V19.9325H110.71C110.511 20.3302 110.22 20.7386 109.837 21.1576C109.46 21.5766 108.959 21.9282 108.334 22.2123C107.717 22.4964 106.939 22.6384 106.001 22.6384C104.744 22.6384 103.604 22.3437 102.582 21.7542C101.566 21.1576 100.756 20.2698 100.153 19.0908C99.5561 17.9048 99.2578 16.4204 99.2578 14.6377C99.2578 12.8408 99.5561 11.3245 100.153 10.0887C100.756 8.84581 101.57 7.90476 102.592 7.26556C103.615 6.61925 104.755 6.2961 106.012 6.2961C106.971 6.2961 107.759 6.45945 108.377 6.78615C109.002 7.10576 109.499 7.49283 109.869 7.94738C110.238 8.39482 110.518 8.8174 110.71 9.21513H110.923V6.50917H114.727V23.1391C114.727 24.5383 114.393 25.696 113.725 26.6121C113.057 27.5283 112.145 28.2137 110.987 28.6683C109.829 29.1228 108.516 29.3501 107.045 29.3501ZM107.077 19.6129C107.894 19.6129 108.59 19.414 109.165 19.0163C109.741 18.6185 110.178 18.0468 110.476 17.3011C110.774 16.5553 110.923 15.6604 110.923 14.6164C110.923 13.5866 110.774 12.6846 110.476 11.9104C110.185 11.1363 109.751 10.5362 109.176 10.11C108.608 9.67678 107.908 9.46016 107.077 9.46016C106.218 9.46016 105.501 9.68388 104.925 10.1313C104.35 10.5788 103.917 11.1931 103.626 11.9744C103.334 12.7485 103.189 13.6292 103.189 14.6164C103.189 15.6178 103.334 16.495 103.626 17.2478C103.924 17.9935 104.361 18.5759 104.936 18.995C105.518 19.4069 106.232 19.6129 107.077 19.6129ZM126.291 1.05462H131.127L137.605 16.8643H137.86L144.338 1.05462H149.174V22.8728H145.382V7.88346H145.179L139.149 22.8089H136.316L130.286 7.8515H130.083V22.8728H126.291V1.05462ZM160.446 23.1924C158.848 23.1924 157.463 22.8408 156.291 22.1377C155.119 21.4346 154.21 20.4509 153.564 19.1867C152.924 17.9225 152.605 16.4452 152.605 14.7549C152.605 13.0646 152.924 11.5837 153.564 10.3124C154.21 9.04113 155.119 8.05391 156.291 7.35079C157.463 6.64766 158.848 6.2961 160.446 6.2961C162.044 6.2961 163.429 6.64766 164.6 7.35079C165.772 8.05391 166.678 9.04113 167.317 10.3124C167.963 11.5837 168.287 13.0646 168.287 14.7549C168.287 16.4452 167.963 17.9225 167.317 19.1867C166.678 20.4509 165.772 21.4346 164.6 22.1377C163.429 22.8408 162.044 23.1924 160.446 23.1924ZM160.467 20.1029C161.333 20.1029 162.058 19.865 162.64 19.3891C163.223 18.9062 163.656 18.2599 163.94 17.4502C164.231 16.6406 164.377 15.7386 164.377 14.7443C164.377 13.7428 164.231 12.8373 163.94 12.0276C163.656 11.2109 163.223 10.561 162.64 10.0781C162.058 9.5951 161.333 9.35363 160.467 9.35363C159.579 9.35363 158.84 9.5951 158.251 10.0781C157.669 10.561 157.232 11.2109 156.941 12.0276C156.657 12.8373 156.515 13.7428 156.515 14.7443C156.515 15.7386 156.657 16.6406 156.941 17.4502C157.232 18.2599 157.669 18.9062 158.251 19.3891C158.84 19.865 159.579 20.1029 160.467 20.1029ZM179.731 6.50917V9.49212H170.324V6.50917H179.731ZM172.646 2.58871H176.503V17.9509C176.503 18.4694 176.581 18.8671 176.737 19.1441C176.901 19.414 177.114 19.5987 177.377 19.6981C177.639 19.7975 177.931 19.8472 178.25 19.8472C178.492 19.8472 178.712 19.8295 178.911 19.794C179.117 19.7585 179.273 19.7265 179.379 19.6981L180.029 22.713C179.823 22.784 179.529 22.8621 179.145 22.9474C178.769 23.0326 178.307 23.0823 177.76 23.0965C176.794 23.1249 175.924 22.9793 175.15 22.6597C174.376 22.333 173.761 21.8288 173.307 21.147C172.859 20.4651 172.639 19.6129 172.646 18.5901V2.58871ZM182.956 22.8728V6.50917H186.813V22.8728H182.956ZM184.895 4.18672C184.284 4.18672 183.759 3.98431 183.318 3.57948C182.878 3.16755 182.658 2.67394 182.658 2.09865C182.658 1.51627 182.878 1.02266 183.318 0.61783C183.759 0.205898 184.284 -6.7234e-05 184.895 -6.7234e-05C185.513 -6.7234e-05 186.039 0.205898 186.472 0.61783C186.912 1.02266 187.132 1.51627 187.132 2.09865C187.132 2.67394 186.912 3.16755 186.472 3.57948C186.039 3.98431 185.513 4.18672 184.895 4.18672ZM205.395 6.50917L199.568 22.8728H195.306L189.479 6.50917H193.591L197.352 18.6647H197.522L201.293 6.50917H205.395ZM212.304 23.2031C211.267 23.2031 210.333 23.0184 209.502 22.6491C208.678 22.2727 208.025 21.7187 207.542 20.9871C207.066 20.2556 206.828 19.3536 206.828 18.2812C206.828 17.3579 206.998 16.5944 207.339 15.9907C207.68 15.387 208.145 14.9041 208.735 14.5418C209.324 14.1796 209.988 13.9062 210.727 13.7215C211.473 13.5298 212.243 13.3913 213.039 13.306C213.998 13.2066 214.775 13.1178 215.372 13.0397C215.969 12.9545 216.402 12.8266 216.672 12.6562C216.949 12.4786 217.087 12.2052 217.087 11.8359V11.772C217.087 10.9694 216.849 10.3479 216.373 9.9076C215.897 9.46726 215.212 9.24709 214.317 9.24709C213.373 9.24709 212.623 9.45306 212.069 9.86499C211.522 10.2769 211.153 10.7634 210.961 11.3245L207.361 10.8131C207.645 9.81882 208.113 8.98786 208.767 8.32025C209.42 7.64553 210.219 7.14127 211.164 6.80746C212.108 6.46655 213.152 6.2961 214.296 6.2961C215.084 6.2961 215.869 6.38843 216.65 6.57309C217.432 6.75775 218.145 7.06314 218.792 7.48928C219.438 7.90831 219.956 8.48005 220.347 9.20448C220.745 9.92891 220.944 10.8344 220.944 11.9211V22.8728H217.236V20.6249H217.108C216.874 21.0795 216.544 21.5056 216.118 21.9033C215.699 22.294 215.17 22.61 214.53 22.8515C213.898 23.0859 213.156 23.2031 212.304 23.2031ZM213.305 20.3693C214.079 20.3693 214.75 20.2166 215.319 19.9112C215.887 19.5987 216.324 19.1867 216.629 18.6754C216.942 18.164 217.098 17.6065 217.098 17.0028V15.0745C216.977 15.1739 216.771 15.2663 216.48 15.3515C216.196 15.4367 215.876 15.5113 215.521 15.5752C215.166 15.6391 214.814 15.696 214.466 15.7457C214.118 15.7954 213.817 15.838 213.561 15.8735C212.986 15.9516 212.471 16.0795 212.016 16.257C211.562 16.4346 211.203 16.6832 210.94 17.0028C210.677 17.3153 210.546 17.7201 210.546 18.2173C210.546 18.9275 210.805 19.4637 211.324 19.8259C211.842 20.1881 212.503 20.3693 213.305 20.3693ZM232.993 6.50917V9.49212H223.586V6.50917H232.993ZM225.908 2.58871H229.765V17.9509C229.765 18.4694 229.843 18.8671 229.999 19.1441C230.162 19.414 230.375 19.5987 230.638 19.6981C230.901 19.7975 231.192 19.8472 231.512 19.8472C231.753 19.8472 231.973 19.8295 232.172 19.794C232.378 19.7585 232.535 19.7265 232.641 19.6981L233.291 22.713C233.085 22.784 232.79 22.8621 232.407 22.9474C232.03 23.0326 231.569 23.0823 231.022 23.0965C230.056 23.1249 229.186 22.9793 228.412 22.6597C227.638 22.333 227.023 21.8288 226.569 21.147C226.121 20.4651 225.901 19.6129 225.908 18.5901V2.58871ZM236.218 22.8728V6.50917H240.075V22.8728H236.218ZM238.157 4.18672C237.546 4.18672 237.021 3.98431 236.58 3.57948C236.14 3.16755 235.92 2.67394 235.92 2.09865C235.92 1.51627 236.14 1.02266 236.58 0.61783C237.021 0.205898 237.546 -6.7234e-05 238.157 -6.7234e-05C238.775 -6.7234e-05 239.3 0.205898 239.734 0.61783C240.174 1.02266 240.394 1.51627 240.394 2.09865C240.394 2.67394 240.174 3.16755 239.734 3.57948C239.3 3.98431 238.775 4.18672 238.157 4.18672ZM251.178 23.1924C249.58 23.1924 248.195 22.8408 247.023 22.1377C245.851 21.4346 244.942 20.4509 244.296 19.1867C243.657 17.9225 243.337 16.4452 243.337 14.7549C243.337 13.0646 243.657 11.5837 244.296 10.3124C244.942 9.04113 245.851 8.05391 247.023 7.35079C248.195 6.64766 249.58 6.2961 251.178 6.2961C252.776 6.2961 254.161 6.64766 255.333 7.35079C256.505 8.05391 257.41 9.04113 258.049 10.3124C258.696 11.5837 259.019 13.0646 259.019 14.7549C259.019 16.4452 258.696 17.9225 258.049 19.1867C257.41 20.4509 256.505 21.4346 255.333 22.1377C254.161 22.8408 252.776 23.1924 251.178 23.1924ZM251.199 20.1029C252.066 20.1029 252.79 19.865 253.373 19.3891C253.955 18.9062 254.388 18.2599 254.672 17.4502C254.964 16.6406 255.109 15.7386 255.109 14.7443C255.109 13.7428 254.964 12.8373 254.672 12.0276C254.388 11.2109 253.955 10.561 253.373 10.0781C252.79 9.5951 252.066 9.35363 251.199 9.35363C250.312 9.35363 249.573 9.5951 248.983 10.0781C248.401 10.561 247.964 11.2109 247.673 12.0276C247.389 12.8373 247.247 13.7428 247.247 14.7443C247.247 15.7386 247.389 16.6406 247.673 17.4502C247.964 18.2599 248.401 18.9062 248.983 19.3891C249.573 19.865 250.312 20.1029 251.199 20.1029ZM266.149 13.2847V22.8728H262.292V6.50917H265.978V9.28971H266.17C266.546 8.37351 267.147 7.64553 267.97 7.10576C268.801 6.56598 269.828 6.2961 271.049 6.2961C272.179 6.2961 273.162 6.53758 274 7.02053C274.845 7.50348 275.499 8.20306 275.961 9.11925C276.429 10.0354 276.66 11.1469 276.653 12.4538V22.8728H272.796V13.0504C272.796 11.9566 272.512 11.1008 271.944 10.4829C271.383 9.86499 270.605 9.55604 269.611 9.55604C268.936 9.55604 268.336 9.70519 267.811 10.0035C267.292 10.2947 266.884 10.7173 266.586 11.2712C266.294 11.8252 266.149 12.4964 266.149 13.2847ZM98.1285 43.0525C98.0291 42.1221 97.61 41.3977 96.8714 40.8792C96.1399 40.3607 95.1882 40.1015 94.0163 40.1015C93.1924 40.1015 92.4857 40.2258 91.8963 40.4744C91.3068 40.7229 90.8558 41.0603 90.5433 41.4864C90.2308 41.9126 90.071 42.3991 90.0639 42.946C90.0639 43.4005 90.1668 43.7947 90.3728 44.1285C90.5859 44.4623 90.8735 44.7464 91.2357 44.9808C91.598 45.208 91.9992 45.3998 92.4396 45.556C92.8799 45.7123 93.3238 45.8437 93.7713 45.9502L95.8167 46.4616C96.6406 46.6533 97.4325 46.9126 98.1924 47.2393C98.9595 47.566 99.6448 47.9779 100.249 48.4751C100.859 48.9722 101.342 49.5724 101.697 50.2755C102.053 50.9786 102.23 51.8025 102.23 52.7471C102.23 54.0255 101.903 55.1512 101.25 56.1242C100.597 57.0901 99.6519 57.8465 98.4161 58.3934C97.1874 58.9332 95.6995 59.2031 93.9524 59.2031C92.2549 59.2031 90.7812 58.9403 89.5312 58.4147C88.2883 57.8891 87.3153 57.1221 86.6122 56.1136C85.9161 55.105 85.5397 53.8764 85.4829 52.4275H89.3714C89.4282 53.1874 89.6626 53.8195 90.0745 54.3238C90.4865 54.8281 91.0227 55.2045 91.6832 55.4531C92.3508 55.7016 93.0965 55.8259 93.9204 55.8259C94.7798 55.8259 95.5326 55.6981 96.1789 55.4424C96.8323 55.1796 97.3437 54.8174 97.713 54.3558C98.0823 53.887 98.2705 53.3401 98.2776 52.7151C98.2705 52.147 98.1036 51.6782 97.7769 51.3089C97.4502 50.9325 96.9921 50.62 96.4026 50.3714C95.8203 50.1157 95.1384 49.8884 94.3572 49.6896L91.8749 49.0504C90.0781 48.5887 88.6576 47.8891 87.6136 46.9516C86.5766 46.007 86.0582 44.7535 86.0582 43.191C86.0582 41.9055 86.4062 40.7798 87.1022 39.8139C87.8053 38.8479 88.7606 38.0987 89.968 37.566C91.1754 37.0262 92.5426 36.7563 94.0695 36.7563C95.6178 36.7563 96.9744 37.0262 98.1391 37.566C99.311 38.0987 100.231 38.8408 100.898 39.7925C101.566 40.7371 101.91 41.8238 101.932 43.0525H98.1285ZM107.98 65.0092C107.455 65.0092 106.968 64.9666 106.521 64.8813C106.08 64.8032 105.729 64.7109 105.466 64.6043L106.361 61.6001C106.922 61.7634 107.423 61.8416 107.863 61.8345C108.303 61.8273 108.69 61.6889 109.024 61.419C109.365 61.1562 109.653 60.7158 109.887 60.0979L110.217 59.2137L104.284 42.5092H108.374L112.146 54.8671H112.316L116.098 42.5092H120.2L113.648 60.8543C113.342 61.7208 112.938 62.463 112.433 63.0809C111.929 63.7059 111.311 64.1818 110.58 64.5085C109.855 64.8423 108.989 65.0092 107.98 65.0092ZM135.802 46.8345L132.286 47.218C132.187 46.8629 132.013 46.5291 131.764 46.2166C131.522 45.9041 131.196 45.6519 130.784 45.4602C130.372 45.2684 129.868 45.1725 129.271 45.1725C128.469 45.1725 127.794 45.3465 127.247 45.6945C126.707 46.0425 126.441 46.4935 126.448 47.0475C126.441 47.5234 126.615 47.9104 126.97 48.2087C127.332 48.507 127.929 48.7521 128.76 48.9438L131.551 49.5404C133.099 49.8742 134.25 50.4033 135.003 51.1278C135.763 51.8522 136.146 52.8004 136.153 53.9722C136.146 55.0021 135.844 55.9112 135.248 56.6995C134.658 57.4808 133.838 58.0916 132.787 58.5319C131.736 58.9722 130.528 59.1924 129.165 59.1924C127.162 59.1924 125.549 58.7734 124.328 57.9353C123.106 57.0901 122.378 55.9147 122.144 54.409L125.905 54.0468C126.075 54.7854 126.437 55.343 126.991 55.7194C127.545 56.0958 128.266 56.284 129.154 56.284C130.07 56.284 130.805 56.0958 131.359 55.7194C131.92 55.343 132.201 54.8778 132.201 54.3238C132.201 53.855 132.02 53.468 131.657 53.1626C131.302 52.8572 130.748 52.6228 129.996 52.4595L127.204 51.8735C125.635 51.5468 124.473 50.9964 123.721 50.2222C122.968 49.441 122.595 48.4538 122.602 47.2606C122.595 46.2521 122.868 45.3785 123.422 44.6398C123.983 43.8941 124.761 43.3188 125.755 42.914C126.757 42.5021 127.911 42.2961 129.218 42.2961C131.135 42.2961 132.645 42.7045 133.746 43.5212C134.853 44.338 135.539 45.4424 135.802 46.8345ZM147.504 42.5092V45.4921H138.097V42.5092H147.504ZM140.42 38.5887H144.276V53.9509C144.276 54.4694 144.355 54.8671 144.511 55.1441C144.674 55.414 144.887 55.5987 145.15 55.6981C145.413 55.7975 145.704 55.8472 146.024 55.8472C146.265 55.8472 146.485 55.8295 146.684 55.794C146.89 55.7585 147.046 55.7265 147.153 55.6981L147.803 58.713C147.597 58.784 147.302 58.8621 146.918 58.9474C146.542 59.0326 146.08 59.0823 145.534 59.0965C144.568 59.1249 143.698 58.9793 142.923 58.6597C142.149 58.333 141.535 57.8288 141.08 57.147C140.633 56.4651 140.413 55.6129 140.42 54.5901V38.5887ZM157.798 59.1924C156.158 59.1924 154.741 58.8515 153.548 58.1697C152.361 57.4808 151.449 56.5077 150.81 55.2506C150.17 53.9864 149.851 52.4985 149.851 50.7869C149.851 49.1036 150.17 47.6264 150.81 46.355C151.456 45.0766 152.358 44.0823 153.516 43.3721C154.673 42.6548 156.033 42.2961 157.596 42.2961C158.604 42.2961 159.556 42.4595 160.451 42.7862C161.353 43.1058 162.148 43.6029 162.837 44.2776C163.533 44.9523 164.08 45.8117 164.478 46.8558C164.876 47.8927 165.075 49.1285 165.075 50.5631V51.7457H151.662V49.1462H161.378C161.371 48.4076 161.211 47.7506 160.898 47.1754C160.586 46.593 160.149 46.1349 159.588 45.8011C159.034 45.4673 158.388 45.3004 157.649 45.3004C156.861 45.3004 156.168 45.4921 155.572 45.8756C154.975 46.2521 154.51 46.7492 154.176 47.3671C153.849 47.9779 153.682 48.6491 153.675 49.3806V51.6498C153.675 52.6015 153.849 53.4183 154.197 54.1001C154.545 54.7748 155.032 55.2933 155.657 55.6555C156.282 56.0106 157.013 56.1881 157.852 56.1881C158.413 56.1881 158.92 56.11 159.375 55.9538C159.829 55.7904 160.224 55.5525 160.557 55.24C160.891 54.9275 161.143 54.5404 161.314 54.0788L164.915 54.4836C164.687 55.4353 164.254 56.2663 163.615 56.9765C162.983 57.6796 162.173 58.2265 161.186 58.6171C160.199 59.0006 159.07 59.1924 157.798 59.1924ZM168.337 58.8728V42.5092H172.023V45.2897H172.215C172.556 44.3522 173.121 43.6207 173.909 43.0951C174.697 42.5624 175.638 42.2961 176.732 42.2961C177.84 42.2961 178.774 42.566 179.534 43.1058C180.301 43.6384 180.841 44.3664 181.153 45.2897H181.324C181.686 44.3806 182.297 43.6562 183.156 43.1164C184.022 42.5695 185.049 42.2961 186.235 42.2961C187.741 42.2961 188.969 42.772 189.921 43.7237C190.873 44.6754 191.348 46.0639 191.348 47.8891V58.8728H187.481V48.4857C187.481 47.4701 187.211 46.7279 186.672 46.2592C186.132 45.7833 185.471 45.5454 184.69 45.5454C183.76 45.5454 183.032 45.8366 182.506 46.419C181.988 46.9943 181.728 47.7435 181.728 48.6668V58.8728H177.947V48.3259C177.947 47.4808 177.691 46.806 177.179 46.3018C176.675 45.7975 176.015 45.5454 175.198 45.5454C174.644 45.5454 174.14 45.6874 173.685 45.9715C173.231 46.2485 172.868 46.6427 172.598 47.1541C172.329 47.6583 172.194 48.2478 172.194 48.9225V58.8728H168.337Z" fill="white"/>
</svg>
